<?xml version="1.0" standalone="no"?>
<!DOCTYPE svg PUBLIC "-//W3C//DTD SVG 1.1//EN" "http://www.w3.org/Graphics/SVG/1.1/DTD/svg11.dtd" >
<svg xmlns="http://www.w3.org/2000/svg" xmlns:xlink="http://www.w3.org/1999/xlink" version="1.1">
<metadata></metadata>
<defs>
<font id="freighttextfreighttextproBkIt" horiz-adv-x="966" >
<font-face units-per-em="2048" ascent="1489" descent="-559" />
<missing-glyph horiz-adv-x="466" />
<glyph unicode="&#xfb01;" horiz-adv-x="991" d="M-305 -385q0 45 25.5 73.5t66.5 28.5q47 0 77 -36.5t36 -94.5l120 64q35 80 91 381l137 788l-185 8l7 58l192 43q45 258 168 377q51 51 130 83.5t163 32.5q82 0 134 -41t52 -96q0 -45 -26.5 -76.5t-67.5 -31.5q-47 0 -80 38.5t-43 100.5l-203 -37q-63 -115 -98 -360h283 q45 29 77.5 28.5t86 -36.5t47.5 -58l-211 -764l47 -16l184 141l33 -37q-43 -72 -126 -139.5t-138 -67.5q-31 0 -80 38t-45 56l201 756l-15 6h-360l-117 -645q-82 -463 -201 -590q-88 -94 -217 -94q-61 0 -103 34t-42 85z" />
<glyph unicode="&#xfb02;" horiz-adv-x="1013" d="M-305 -385q0 45 25.5 73.5t66.5 28.5q47 0 77 -36.5t36 -94.5l125 64q47 92 92 381l125 788l-179 8l7 58l192 43q45 258 168 377q51 51 130 83.5t163 32.5q63 0 115 -28l157 34l-297 -1333l58 -18l176 137l31 -37q-43 -72 -126 -139.5t-139 -67.5q-31 0 -80 38t-45 56 l162 762h-360l-117 -645q-82 -463 -201 -590q-88 -94 -217 -94q-61 0 -103 34t-42 85zM391 918h363l65 305q-39 -10 -68.5 16.5t-39.5 79.5l-215 -35q-68 -117 -105 -366z" />
<glyph unicode="&#xfb03;" horiz-adv-x="1492" d="M-305 -385q0 45 25.5 73.5t66.5 28.5q47 0 77 -36.5t36 -94.5l120 64q35 80 91 381l137 788l-185 8l7 58l192 43q45 248 162 364q106 111 256 111q78 0 128 -40t50 -93q0 -43 -25.5 -74t-64.5 -31q-94 0 -119 133l-166 -36q-66 -145 -92 -344h371q45 264 170 387 q51 51 130 83.5t163 32.5q82 0 134 -41t52 -96q0 -45 -26.5 -76.5t-67.5 -31.5q-47 0 -80 38.5t-43 100.5l-203 -37q-68 -123 -98 -360h283q45 29 77.5 28.5t86 -36.5t46.5 -58l-210 -764l47 -16l184 141l33 -37q-43 -72 -126 -139.5t-138 -67.5q-31 0 -80 38t-45 56 l200 756l-14 6h-360l-109 -589q-90 -473 -201 -590q-96 -96 -198 -97q-61 0 -104.5 35t-43.5 86q0 43 26.5 72t65.5 29q49 0 79 -37t36 -94l107 65q45 100 92 381l118 739h-370l-117 -645q-82 -463 -201 -590q-88 -94 -217 -94q-61 0 -103 34t-42 85z" />
<glyph unicode="&#xfb04;" horiz-adv-x="1515" d="M-305 -385q0 45 25.5 73.5t66.5 28.5q47 0 77 -36.5t36 -94.5l120 64q35 80 91 381l137 788l-185 8l7 58l192 43q45 248 162 364q106 111 256 111q78 0 128 -40t50 -93q0 -43 -25.5 -74t-64.5 -31q-94 0 -119 133l-166 -36q-66 -145 -92 -344h371q45 264 170 387 q51 51 130 83.5t163 32.5q66 0 114 -28l158 34l-297 -1333l57 -18l175 137l32 -37q-43 -72 -126 -139.5t-138 -67.5q-31 0 -80 38t-45 56l162 762h-360l-109 -589q-86 -467 -201 -590q-96 -96 -198 -97q-61 0 -104.5 35t-43.5 86q0 43 26.5 72t65.5 29q49 0 79 -37t36 -94 l107 65q45 100 92 381l118 739h-370l-117 -645q-82 -463 -201 -590q-88 -94 -217 -94q-61 0 -103 34t-42 85zM893 918h362l66 305q-39 -10 -69.5 15.5t-39.5 80.5l-215 -35q-74 -125 -104 -366z" />
<glyph horiz-adv-x="0" />
<glyph unicode="&#xd;" horiz-adv-x="681" />
<glyph unicode=" "  horiz-adv-x="466" />
<glyph unicode="&#x09;" horiz-adv-x="466" />
<glyph unicode="&#xa0;" horiz-adv-x="466" />
<glyph unicode="!" horiz-adv-x="575" d="M125 86q0 45 34 79t85 34q49 0 81.5 -34t32.5 -79q0 -47 -32.5 -82t-81.5 -35q-51 0 -86 35t-33 82zM256 406l33 831q4 74 78 74h30q106 0 86 -82l-184 -826q-2 -12 -22.5 -11t-20.5 14z" />
<glyph unicode="&#x22;" horiz-adv-x="727" d="M80 825l233 500h2l152 -53l-320 -447h-67zM399 825l236 500h2l151 -53l-319 -447h-70z" />
<glyph unicode="#" horiz-adv-x="1148" d="M4 371v71h283l104 389h-264v72h283l108 389h74l-107 -389h359l104 389h74l-104 -389h266v-72h-287l-104 -389h268v-71h-287l-102 -383h-74l102 383h-358l-102 -383h-74l102 383h-264zM360 442h359l104 389h-356z" />
<glyph unicode="$" horiz-adv-x="1019" d="M41 25l20 362h80l52 -283q55 -29 126 -41l146 537q-147 82 -222 165t-75 212q0 150 132 241t302 91q37 0 53 -2l58 204h73q-55 -207 -57 -206q82 -10 141 -25l109 27l-53 -394h-84l-21 256q-41 23 -116 41l-132 -481q80 -45 122 -73.5t95.5 -78t78 -105.5t24.5 -126 q0 -172 -138.5 -274.5t-340.5 -102.5h-45l-84 -309h-74l84 313q-127 10 -254 52zM322 1034q-2 -84 45 -144.5t143 -121.5q8 29 20.5 76t40 146.5t43.5 164.5l19 66q-37 4 -62 4q-98 0 -173.5 -50.5t-75.5 -140.5zM393 55q16 -2 51 -2q131 0 212 61.5t81 172.5 q2 86 -51.5 147t-157.5 127z" />
<glyph unicode="%" horiz-adv-x="1527" d="M92 -31l1294 1340h117l-1294 -1340h-117zM113 946q0 156 109.5 267.5t262.5 111.5q137 0 230.5 -82t93.5 -219q0 -160 -109.5 -271.5t-267.5 -111.5q-135 0 -227 84t-92 221zM203 950q0 -102 68.5 -166.5t168.5 -64.5q117 0 196 84t79 201q0 104 -66.5 171.5t-171.5 67.5 q-115 0 -194.5 -88t-79.5 -205zM801 254q0 160 107.5 271.5t265.5 111.5q135 0 227 -82t92 -219q0 -158 -110.5 -270.5t-266.5 -112.5q-139 0 -227 82t-88 219zM891 262q0 -102 66.5 -166.5t166.5 -64.5q115 0 197 87t82 206q0 100 -68.5 165.5t-169.5 65.5 q-115 0 -194.5 -88t-79.5 -205z" />
<glyph unicode="&#x26;" horiz-adv-x="1265" d="M12 268q0 164 107.5 265.5t265.5 138.5v2q-141 152 -141 293q0 145 111.5 243.5t267.5 98.5q135 0 227 -74t92 -191q0 -248 -385 -352v-2l272 -297h2l252 236v4q-43 8 -68.5 38.5t-25.5 65.5q0 43 32 70t79 27q51 0 84 -37t33 -84q0 -139 -228 -285l-119 -78l306 -332 l-166 -49l-252 289h-2q-123 -145 -229.5 -218t-237.5 -73q-119 0 -198 88t-79 213zM162 307q0 -94 52 -154.5t124 -60.5q139 0 381 207l-299 338q-258 -135 -258 -330zM393 1010q0 -86 30 -143.5t95 -135.5q139 68 207 136.5t68 164.5q0 90 -49.5 147.5t-135.5 57.5 q-96 0 -155.5 -65.5t-59.5 -161.5z" />
<glyph unicode="'" horiz-adv-x="405" d="M78 825l235 500h2l152 -53l-320 -447h-69z" />
<glyph unicode="(" horiz-adv-x="808" d="M190 428q0 176 53.5 340t137.5 280.5t174 198.5t178 125q49 -66 49 -69q-182 -96 -335.5 -335t-153.5 -540q0 -158 47 -306.5t122 -257t156.5 -187t163.5 -121.5l-49 -72q-88 43 -178 125t-174 198.5t-137.5 280.5t-53.5 340z" />
<glyph unicode=")" horiz-adv-x="808" d="M27 -446q182 96 335.5 334.5t153.5 539.5t-153.5 539.5t-335.5 335.5l51 69q88 -43 177 -125t173 -198.5t137 -280.5t53 -340t-53 -340t-137 -280.5t-173 -198.5t-177 -125q-51 66 -51 70z" />
<glyph unicode="*" horiz-adv-x="710" d="M129 793l70 116l178 49l2 35l-174 54l-64 110l27 37l129 -25l100 -155l35 10l6 190l86 93l45 -15l11 -127l-125 -151l20 -27l184 62l111 -56l-2 -45l-115 -55l-180 63l-20 -26l108 -152l-22 -127l-43 -10l-82 94l12 189l-31 8l-112 -150l-127 -26z" />
<glyph unicode="+" horiz-adv-x="983" d="M66 430l6 100h368v379h105v-379h366l7 -100h-373v-381h-105v381h-374z" />
<glyph unicode="," horiz-adv-x="462" d="M-55 -307q201 121 209 266q2 31 -11.5 58.5t-33 46t-39 33t-33.5 22.5l-14 6q2 43 39.5 73.5t91.5 30.5q70 0 120 -54t48 -132q-6 -197 -334 -387z" />
<glyph unicode="-" horiz-adv-x="671" d="M51 428l6 104h525l6 -104h-537z" />
<glyph unicode="." horiz-adv-x="464" d="M61 96q0 51 36 87t91.5 36t91 -37t33.5 -86q0 -51 -35.5 -89t-89.5 -38q-55 0 -92 38t-35 89z" />
<glyph unicode="/" horiz-adv-x="571" d="M18 -432l439 1790h92l-438 -1790h-93z" />
<glyph unicode="0" horiz-adv-x="1034" d="M82 410q0 229 132 404t337 175q172 0 280.5 -117.5t108.5 -318.5q0 -147 -56.5 -280.5t-166 -218.5t-244.5 -85q-172 0 -281.5 119t-109.5 322zM203 410q0 -145 77.5 -239.5t198.5 -94.5q113 0 194 81t113.5 185.5t32.5 210.5q0 143 -77.5 235.5t-196.5 92.5 q-113 0 -195 -80t-114.5 -182.5t-32.5 -208.5z" />
<glyph unicode="1" horiz-adv-x="749" d="M57 0l9 70l161 20q37 2 41 37l99 727l-232 29l15 59l376 35l-114 -850q-4 -35 32 -37l160 -20l4 -70h-551z" />
<glyph unicode="2" horiz-adv-x="917" d="M20 0l5 113q49 35 130 91t127 89t107.5 80t96 80.5t69.5 73.5t50.5 78t15.5 77q0 86 -60.5 135t-150.5 49q-143 0 -287 -127l-19 47q74 84 183.5 141.5t214.5 57.5q121 0 203.5 -65.5t82.5 -180.5q0 -63 -31.5 -126.5t-77.5 -115t-126 -110.5t-148.5 -103t-173.5 -108 q-45 -27 -67 -41l-2 -10h59q195 0 281 8t125 29.5t67 75.5l49 100h84l-98 -338h-709z" />
<glyph unicode="3" horiz-adv-x="849" d="M-68 -279q0 41 31 71t72 30q55 0 96 -44t47 -102q31 -8 68 -8q129 0 226 101.5t97 234.5q0 109 -66.5 176.5t-180.5 67.5q-88 0 -166 -33l-19 49q12 8 67.5 40t82 49.5t78 51t80 61.5t61.5 63.5t47 72.5t14 76q0 90 -55 140t-143 50q-133 0 -295 -125l-21 48 q205 197 410 196q121 0 207 -67.5t86 -186.5q0 -203 -381 -395v-4q31 6 71 6q123 0 207 -78t84 -201q0 -127 -87 -239.5t-216 -174t-256 -61.5q-33 0 -71.5 7.5t-79.5 21.5t-68 42t-27 64z" />
<glyph unicode="4" horiz-adv-x="956" d="M-25 80l2 74l777 841h59l-108 -825h231l-27 -90h-217l-59 -457h-146l60 457h-572zM100 170h459l86 588h-8z" />
<glyph unicode="5" horiz-adv-x="874" d="M-72 -276q2 43 33 72.5t72 29.5q57 0 97 -44t44 -104q27 -8 64 -8q129 0 224 82t99 203q2 78 -36 148.5t-108.5 126t-146 97.5t-166.5 76l218 560h520l-25 -154h-469l-108 -289q477 -182 469 -487q-8 -197 -164 -322t-367 -125q-88 0 -170 35t-80 103z" />
<glyph unicode="6" horiz-adv-x="1036" d="M84 449q0 217 145.5 415.5t375 322.5t480.5 150l27 -55q-317 -66 -544.5 -242t-329.5 -434l20 -2q72 100 172 160.5t195 60.5q135 0 226 -99t91 -269q0 -195 -144.5 -341.5t-320.5 -146.5q-170 0 -281.5 135.5t-111.5 344.5zM233 385q0 -141 68 -244.5t182 -103.5 q123 0 214 118.5t91 286.5q0 131 -67.5 215t-153.5 84q-180 0 -313 -217q-20 -90 -21 -139z" />
<glyph unicode="7" horiz-adv-x="915" d="M23 -379l749 1188v10h-283q-160 0 -198.5 -9t-59.5 -50q-66 -115 -67 -123h-68l86 326h725v-89l-780 -1253h-104z" />
<glyph unicode="8" horiz-adv-x="997" d="M86 313q8 231 317 334v4q-207 121 -198 307q4 154 119.5 249.5t283.5 90.5q141 -4 239.5 -94t92.5 -227q-8 -219 -276 -318v-4q241 -136 233 -333q-6 -172 -129 -264.5t-309 -88.5q-156 4 -267.5 100.5t-105.5 243.5zM238 313q-6 -123 64.5 -199.5t199.5 -78.5 q111 -4 178.5 56t73.5 171q2 59 -21.5 112.5t-77 99.5t-94.5 75t-110 69q-207 -123 -213 -305zM350 1020q-6 -100 66.5 -178t199.5 -152q167 99 175 283q4 109 -52.5 186.5t-163.5 79.5q-100 2 -160.5 -59.5t-64.5 -159.5z" />
<glyph unicode="9" horiz-adv-x="1036" d="M-80 -326q317 66 543.5 241t331.5 435l-21 2q-72 -100 -173 -160.5t-193 -60.5q-135 0 -226.5 99.5t-91.5 269.5q0 195 143.5 341t319.5 146q170 0 282.5 -135t112.5 -344q0 -217 -145.5 -415.5t-374.5 -322.5t-483 -151zM244 514q0 -131 66.5 -215t152.5 -84 q180 0 313 217q20 90 21 139q0 141 -66.5 245t-183.5 104q-121 0 -212 -119t-91 -287z" />
<glyph unicode=":" horiz-adv-x="462" d="M61 96q0 51 36 87t91.5 36t91 -37t33.5 -86q0 -51 -35.5 -89t-89.5 -38q-55 0 -92 38t-35 89zM145 731q0 51 37 87t90 36q55 0 91 -36t36 -87q-2 -51 -37.5 -88t-89.5 -37q-55 0 -91 37t-36 88z" />
<glyph unicode=";" horiz-adv-x="462" d="M-55 -307q201 121 209 266q2 31 -11.5 58.5t-33 46t-39 33t-33.5 22.5l-14 6q2 43 39.5 73.5t91.5 30.5q70 0 120 -54t48 -132q-6 -197 -334 -387zM145 731q0 51 36 87t91.5 36t91 -37t33.5 -86q0 -51 -35.5 -88t-89.5 -37q-55 0 -91 37t-36 88z" />
<glyph unicode="&#x3c;" horiz-adv-x="983" d="M59 457v49l820 385l24 -92l-667 -312v-10l667 -313l-24 -92z" />
<glyph unicode="=" horiz-adv-x="983" d="M86 250l6 100h799l6 -100h-811zM86 707h811l-6 -101h-799z" />
<glyph unicode="&#x3e;" horiz-adv-x="983" d="M80 164l668 313v10l-668 312l24 92l820 -385v-49l-820 -385z" />
<glyph unicode="?" horiz-adv-x="727" d="M123 86q0 45 33.5 79t85 34t83 -33t31.5 -80t-31.5 -82t-83 -35t-85 35t-33.5 82zM166 590q0 104 68.5 157.5t191.5 92.5q72 25 102.5 36t63.5 39.5t33 63.5q0 70 -95.5 124t-232.5 54q-47 0 -96 -8q-10 14 -11 45q0 51 39 82t111 31q154 0 260.5 -99.5t108.5 -226.5 q0 -125 -65.5 -183.5t-184.5 -97.5q-129 -45 -164 -77q-35 -37 -35 -91q0 -70 82 -161l-63 4q-113 113 -113 215z" />
<glyph unicode="@" horiz-adv-x="1708" d="M111 537q8 213 120.5 392t298 280.5t398.5 97.5q319 -8 532 -209t199 -504q-10 -225 -141.5 -371.5t-311.5 -146.5q-133 0 -177 51t-28 106l72 314h-26q-227 -440 -371 -441q-82 0 -144.5 63.5t-62.5 135.5q0 123 72.5 293t165.5 262q94 94 200 94q72 0 126 -45t79 -116 h23l51 137h96l-117 -334l-45 -365q-6 -37 21.5 -60.5t89.5 -23.5q143 0 239.5 128t106.5 319q14 272 -176.5 452.5t-476.5 188.5q-289 6 -504 -201t-227 -495q-14 -311 177 -517t480 -206q119 0 252 41l20 -68q-141 -47 -278 -47q-322 0 -536 226.5t-197 568.5zM608 334 q0 -66 36 -99.5t77 -33.5t134 132t187 304q29 53 29 82q-27 51 -85 99t-120 48q-55 0 -88 -32q-57 -55 -113.5 -223.5t-56.5 -276.5z" />
<glyph unicode="A" horiz-adv-x="1181" d="M-66 0l7 70l96 20q33 10 51 30.5t41 67.5l451 1012v60l190 47l211 -1166q4 -16 8 -24t14.5 -16.5t28.5 -10.5l117 -20l6 -70h-512l6 70l121 16q34 7 34 39q0 6 -1 14l-53 324h-402l-98 -234q-22 -56 -22 -89q0 -42 34 -50l111 -20l6 -70h-445zM383 547h352l-94 583h-10z " />
<glyph unicode="B" horiz-adv-x="1169" d="M27 0l6 70l127 20q35 6 41 37l137 1026q4 29 -33 37l-119 20l-6 70h498q211 0 319.5 -80t108.5 -215q0 -121 -92 -207t-238 -119l6 -8q139 -27 219 -107t80 -184q0 -133 -96 -229q-133 -131 -426 -131h-532zM369 102q6 0 76.5 -13t76.5 -13h76q127 0 212 74.5t85 195.5 q0 125 -94 200t-236 75h-129zM446 694h138q152 0 249 67.5t97 190.5t-88 187.5t-236 64.5h-90z" />
<glyph unicode="C" horiz-adv-x="1255" d="M102 532q0 158 59.5 306.5t168.5 257.5q213 213 501 213q152 0 277 -39l145 33l-55 -416h-84l-20 272q-125 70 -269 70q-225 0 -383.5 -204t-158.5 -501q0 -240 137 -377q98 -98 264 -98q123 0 246 62l121 274h96l-98 -387l-95 20q-156 -49 -280 -49q-274 0 -423 150.5 t-149 412.5z" />
<glyph unicode="D" horiz-adv-x="1331" d="M27 0l6 70l127 20q35 6 41 37l137 1026q4 29 -33 37l-119 20l-6 70h490q276 0 441 -153.5t165 -409.5q0 -297 -201 -496q-102 -104 -260 -162.5t-344 -58.5h-444zM369 104l149 -28q252 10 413 180t161 467q0 223 -120 352t-343 129h-115z" />
<glyph unicode="E" horiz-adv-x="1175" d="M27 0l6 70l127 20q35 6 41 37l137 1026q6 29 -31 37l-119 20l-6 70h983l-49 -371h-88l-18 207q-6 51 -39 66q-51 22 -358 22h-27h-70l-70 -514h70q131 0 164 6t47 33l66 137h69l-100 -426h-68l8 131q2 18 -9 26.5t-55 13.5t-136 5h-66l-71 -540h47q225 0 317 7t124 22.5 t50 58.5l82 198h98l-86 -362h-970z" />
<glyph unicode="F" horiz-adv-x="1128" d="M27 0l6 70l127 20q35 6 41 37l137 1026q6 29 -31 37l-119 20l-6 70h967l-49 -371h-90l-19 207q-4 35 -12 49.5t-56.5 24.5t-120 12t-235.5 2h-51l-72 -526h82q131 0 165 6t48 33l66 137h69l-100 -426h-67l8 131q2 18 -10.5 26.5t-56.5 13.5t-136 5h-78l-63 -477 q-6 -29 30 -37l134 -20l6 -70h-514z" />
<glyph unicode="G" horiz-adv-x="1341" d="M102 532q0 158 59.5 306.5t168.5 257.5q213 213 501 213q145 0 271 -39l145 33l-55 -416h-84l-21 272q-125 70 -262 70q-223 0 -382.5 -203t-159.5 -502q0 -238 137 -374q96 -100 266 -101q117 0 219 45l47 342q6 35 -32 39l-134 21l-6 67h502l-6 -67l-117 -21 q-37 -8 -43 -39l-45 -311l115 -21l4 -55q-287 -80 -518 -80q-272 0 -421 152.5t-149 410.5z" />
<glyph unicode="H" horiz-adv-x="1468" d="M31 0l6 70l125 20q37 6 41 37l137 1026q6 29 -31 37l-119 20l-6 70h500l-6 -70l-127 -20q-35 -6 -41 -37l-59 -455h620l62 455q2 18 -3.5 25.5t-27.5 11.5l-121 20l-6 70h502l-9 -70l-125 -20q-35 -6 -40 -37l-138 -1026q-6 -29 31 -37l119 -20l6 -70h-500l6 70l127 20 q35 6 41 37l66 487h-623l-65 -487q-2 -29 33 -37l118 -20l6 -70h-499z" />
<glyph unicode="I" horiz-adv-x="716" d="M37 0l6 70l141 20q35 6 41 37l137 1026q6 31 -30 37l-135 20l-7 70h529l-6 -70l-142 -20q-35 -6 -41 -37l-135 -1026q-6 -31 31 -37l135 -20l6 -70h-530z" />
<glyph unicode="J" horiz-adv-x="798" d="M-20 168q26 25 69 25q119 -4 139 -156h2q86 16 133.5 105t77.5 325l93 686q4 31 -31 37l-154 20l-6 70h547l-6 -70l-139 -20q-37 -6 -41 -37l-89 -666q-35 -258 -143 -388t-274 -130q-90 0 -150 37q-57 36 -57 92q0 43 29 70z" />
<glyph unicode="K" horiz-adv-x="1294" d="M27 0l6 70l127 20q35 6 41 37l137 1026q6 29 -31 37l-119 20l-6 70h500l-8 -70l-125 -20q-35 -6 -41 -37l-72 -543l461 418q12 10 29.5 26.5t27 26t21.5 20.5t18 18t12.5 16.5t9.5 14.5t3 11q0 23 -41 37l-84 14l-6 70h485l-6 -68l-61 -8q-78 -12 -193 -106l-401 -359 l344 -594q16 -25 30.5 -38t23.5 -16t32 -9l73 -14l7 -70h-441l6 70l82 18q27 6 6 39l-284 516l-172 -147l-47 -369q-6 -29 30 -37l121 -20l6 -70h-501z" />
<glyph unicode="L" horiz-adv-x="1124" d="M27 0l6 70l127 20q35 6 41 37l135 1026q6 31 -31 37l-123 20l-6 70h522l-6 -70l-145 -20q-35 -4 -41 -37l-141 -1077h41q205 0 288.5 7t114.5 22.5t47 58.5l96 244h97l-99 -408h-923z" />
<glyph unicode="M" horiz-adv-x="1617" d="M-23 0l7 70l139 22q18 2 29.5 15.5t28 77t36.5 192.5l129 780q6 29 -27 35l-139 18l-6 70h418l166 -1020h10l496 1020h393l-6 -70l-142 -20q-37 -6 -41 -37l-77 -782q-11 -115 -13 -177q0 -10 -1 -20q1 -46 7 -62q8 -18 23 -20l123 -22l6 -70h-522l6 70l135 22 q25 4 38 57.5t30 221.5l80 774h-11l-542 -1104h-119l-187 1118h-10l-129 -782l-24 -158q-8 -51 -8.5 -82t4 -37t16.5 -8l133 -22l6 -70h-455z" />
<glyph unicode="N" horiz-adv-x="1433" d="M16 0l7 70l124 16q45 8 62.5 55t44.5 236l90 676q4 29 4 51q0 28 -6 44q-10 28 -45 36l-113 26l-6 70h363l534 -1028h8l88 651q22 170 22 233q0 24 -3 33q-10 18 -43 25l-121 16l-6 70h477l-6 -70l-125 -16q-31 -6 -45 -23.5t-28.5 -77t-32.5 -190.5l-123 -919h-103 l-590 1126h-8l-94 -733q-14 -109 -20 -157q-3 -29 -3 -53q-1 -15 1 -29q4 -34 14 -41t35 -11l118 -16l7 -70h-478z" />
<glyph unicode="O" horiz-adv-x="1409" d="M102 567q0 293 177 508q197 233 497 234q254 0 417 -172t163 -428q0 -154 -54.5 -295.5t-154.5 -243.5q-190 -201 -465 -201q-256 0 -418 171t-162 427zM287 547q0 -254 133 -387q109 -109 280 -109q117 0 211.5 66.5t148.5 171t82.5 219t28.5 225.5q0 254 -131 385 q-106 111 -282 111q-117 0 -211 -66.5t-148.5 -171t-83 -219.5t-28.5 -225z" />
<glyph unicode="P" horiz-adv-x="1124" d="M27 0l6 70l127 20q35 6 41 37l137 1026q6 29 -31 37l-119 20l-6 70h475q209 0 336 -96t127 -256q0 -188 -151.5 -298t-364.5 -110q-84 0 -178 15l-55 -408q-6 -35 30 -37l162 -20l6 -70h-542zM436 612q88 -18 162 -18q152 0 246 89t94 245q0 131 -85 204.5t-226 73.5 q-98 0 -111 -2z" />
<glyph unicode="Q" horiz-adv-x="1413" d="M102 567q0 293 177 508q197 233 497 234q254 0 417 -172t163 -428q0 -154 -54.5 -295.5t-154.5 -243.5q-172 -184 -428 -201q80 -164 212 -225q110 -51 284 -51q34 0 71 2l2 -66q-92 -22 -216 -22h-11q-219 0 -335 78.5t-222 308.5q-184 53 -293 206.5t-109 366.5z M287 547q0 -254 133 -387q109 -109 280 -109q117 0 211.5 66.5t148.5 171t82.5 219t28.5 225.5q0 254 -131 385q-106 111 -282 111q-117 0 -211 -66.5t-148.5 -171t-83 -219.5t-28.5 -225z" />
<glyph unicode="R" horiz-adv-x="1212" d="M29 0l6 70l125 20q35 6 41 37l135 1026q6 29 -31 37l-121 20l-6 70h529q201 0 309 -85t108 -218q0 -147 -98 -248.5t-268 -146.5l223 -412q18 -37 35.5 -56.5t25 -22.5t25.5 -7l78 -14l6 -70h-283l-67 141l-207 422l-164 6l-59 -442q-6 -31 30 -37l134 -20l6 -70h-512z M442 657l176 -26q145 18 231.5 99t86.5 214q0 122 -83 192q-81 68 -224 68h-8l-109 -2z" />
<glyph unicode="S" horiz-adv-x="1011" d="M41 25l20 362h80l52 -283q98 -51 251 -51q131 0 212 61.5t81 172.5q0 53 -18.5 97t-62.5 83t-82.5 64.5t-110.5 68.5q-102 61 -156.5 102t-96.5 113t-42 162q0 150 132 241t302 91q137 0 268 -29l109 27l-53 -394h-84l-21 256q-106 55 -250 56q-98 0 -173.5 -50.5 t-75.5 -140.5v-6q0 -98 64 -162q66 -66 212 -151q70 -41 113 -71t90 -75t69.5 -100t22.5 -123q0 -172 -138.5 -274.5t-340.5 -102.5q-201 0 -373 56z" />
<glyph unicode="T" horiz-adv-x="1257" d="M102 887l86 393h1096l-51 -393h-84l-19 215q-4 43 -20 61.5t-81.5 29.5t-209.5 11h-14l-141 -1077q-6 -31 30 -37l152 -20l6 -70h-567l8 70l160 20q33 2 41 37l141 1077h-14q-205 0 -258.5 -14t-79.5 -74l-84 -229h-97z" />
<glyph unicode="U" horiz-adv-x="1458" d="M164 1280h502l-7 -70l-127 -20q-37 -6 -40 -37l-89 -651q-10 -72 -10 -113q0 -160 91 -238.5t251 -78.5q326 0 377 354l64 477q14 107 20 157q4 30 4 54q0 16 -2 29q-4 33 -13 40t-34 11l-121 16l-6 70h477l-6 -70l-125 -16q-31 -6 -45 -23.5t-28.5 -76t-32.5 -191.5 l-68 -495q-31 -217 -170 -328t-350 -111q-205 0 -331 99.5t-126 287.5q0 39 10 136l93 661q4 29 -33 37l-119 20z" />
<glyph unicode="V" horiz-adv-x="1189" d="M70 1280h512l-7 -70l-122 -16q-34 -6 -34 -35q0 -8 3 -18l170 -977h8l418 950q8 19 8 33q0 32 -41 43l-108 20l-7 70h447l-6 -70l-99 -20q-35 -10 -53 -30.5t-39 -67.5l-504 -1094h-153l-219 1141q-6 45 -51 51l-117 20z" />
<glyph unicode="W" horiz-adv-x="1757" d="M59 1280h512l-6 -70l-123 -16q-32 -6 -32 -37q0 -7 2 -16l131 -983l8 -2l364 852l-20 131q-6 43 -53 51l-117 20l-6 70h508l-6 -70l-123 -16q-34 -7 -34 -39q0 -6 1 -14l145 -981l7 -2l376 956q10 20 2 44t-36 32l-109 20l-6 70h446l-6 -70l-98 -20q-66 -23 -96 -98 l-445 -1094h-164l-129 848h-8l-371 -848h-163l-177 1141q-6 45 -51 51l-116 20z" />
<glyph unicode="X" horiz-adv-x="1273" d="M-39 0l6 70l80 14q86 18 154 104l385 459l-250 445q-27 49 -45.5 68.5t-50.5 29.5l-95 20l-4 70h502l-8 -70l-105 -12q-38 -4 -38 -37q0 -28 28 -78l172 -333h10l291 364q20 25 20 42q0 27 -48 38l-99 16l-6 70h469l-6 -70l-80 -14q-82 -18 -153 -104l-345 -412l277 -492 q27 -49 45 -68.5t49 -29.5l94 -20l7 -70h-504l8 70l102 12q41 4 41 35q0 27 -28 80l-201 381h-6l-332 -412q-19 -24 -19 -41q0 -27 48 -37l98 -18l6 -70h-469z" />
<glyph unicode="Y" horiz-adv-x="1210" d="M76 1280h499l-8 -70l-102 -12q-25 -2 -34 -16.5t-3 -39t25 -63.5l209 -450h8l331 485q14 24 14 42q0 29 -42 38l-107 16l-6 70h467l-6 -70l-82 -14q-47 -10 -79 -31.5t-66 -72.5l-381 -543l-56 -422q-6 -31 31 -37l152 -20l6 -70h-567l6 70l161 20q33 2 41 37l54 420 l-269 545q-23 47 -43 67.5t-55 30.5l-92 20z" />
<glyph unicode="Z" horiz-adv-x="1116" d="M-2 0l8 70l955 1126v8h-224q-182 0 -266 -11t-110.5 -31.5t-51.5 -74.5l-65 -186h-84l49 379h962l-10 -72l-950 -1126l-2 -8l205 2q201 2 292 12t120.5 27.5t52.5 64.5l77 203h97l-95 -383h-960z" />
<glyph unicode="[" horiz-adv-x="753" d="M195 -451v1784h516v-86h-416v-1612h416v-86h-516z" />
<glyph unicode="\" horiz-adv-x="571" d="M20 1358h93l438 -1790h-92z" />
<glyph unicode="]" horiz-adv-x="753" d="M43 -365h416v1612h-416v86h516v-1784h-516v86z" />
<glyph unicode="^" horiz-adv-x="819" d="M188 1040l226 377h182l125 -377h-43l-182 271h-4l-259 -271h-45z" />
<glyph unicode="_" horiz-adv-x="962" d="M-78 -106l6 104h983l7 -104h-996z" />
<glyph unicode="`" horiz-adv-x="819" d="M238 1417h192l141 -377h-45z" />
<glyph unicode="a" d="M45 233q0 156 65.5 322t161.5 262q131 131 254 131h1q106 0 167 -155h15l41 153h127l-101 -364l-108 -488l61 -18l162 137l35 -37q-39 -72 -118 -139.5t-134 -67.5q-37 0 -92.5 22.5t-55.5 43.5q0 35 117 401h-18q-123 -225 -215.5 -346t-178.5 -121q-84 0 -135 73 t-51 191zM186 270q0 -180 101 -180q53 0 129 102.5t235 372.5l29 119q-43 63 -109.5 116.5t-128.5 53.5q-41 0 -82 -41q-57 -57 -115.5 -235.5t-58.5 -307.5z" />
<glyph unicode="b" horiz-adv-x="915" d="M86 102l223 1106q6 35 -14 41l-141 45l6 52l334 81l-113 -477l-121 -485h19q119 225 215 354t180 129q80 0 130 -85t50 -204q0 -158 -56.5 -311t-148.5 -246q-137 -137 -291 -137q-80 0 -179 55.5t-93 81.5zM211 164q51 -51 118.5 -88t116.5 -37q47 0 93 49 q66 66 119 232t53 303q0 86 -26 143t-73 59q-49 0 -127.5 -109.5t-234.5 -383.5z" />
<glyph unicode="c" horiz-adv-x="763" d="M61 287q0 246 147.5 452.5t338.5 206.5q90 0 155.5 -45t65.5 -113q0 -45 -26.5 -76.5t-67.5 -31.5q-80 0 -80 76q0 35 14 55q-10 16 -65.5 35.5t-100.5 19.5q-20 0 -61 -41q-59 -59 -117.5 -216.5t-58.5 -297.5q0 -111 53 -172t131 -61q74 0 246 131l29 -37 q-174 -203 -330 -203q-117 0 -195 91.5t-78 226.5z" />
<glyph unicode="d" d="M45 233q0 156 65.5 322t161.5 262q131 131 254 131q106 0 168 -155h15l82 415q6 35 -15 41l-141 45l8 52l332 81l-203 -862l-104 -471l61 -18l162 137l35 -37q-39 -72 -118 -139.5t-134 -67.5q-37 0 -92.5 22.5t-55.5 43.5q0 35 117 401h-18q-123 -225 -215.5 -346 t-178.5 -121q-84 0 -135 73t-51 191zM186 270q0 -180 101 -180q53 0 129 102.5t235 372.5l29 119q-43 63 -109.5 116.5t-128.5 53.5q-41 0 -82 -41q-57 -57 -115.5 -235.5t-58.5 -307.5z" />
<glyph unicode="e" horiz-adv-x="751" d="M61 287q0 248 146.5 453.5t329.5 205.5q96 0 155.5 -53t59.5 -129q0 -88 -88.5 -151.5t-389.5 -221.5q-44 -23 -67 -35q-2 -14 -2 -45q0 -111 53 -172t131 -61q74 0 246 131l29 -37q-174 -203 -330 -203q-117 0 -195 91.5t-78 226.5zM209 418l4 -2q244 131 323.5 199.5 t79.5 146.5q0 37 -54 66.5t-97 29.5q-55 0 -94 -39q-43 -45 -89 -154.5t-73 -246.5z" />
<glyph unicode="f" horiz-adv-x="552" d="M-305 -385q0 45 25.5 73.5t66.5 28.5q47 0 77 -36.5t36 -94.5l120 64q35 80 91 381l137 788l-185 8l7 58l194 43q49 258 162 370q106 111 254 111q78 0 128 -40t50 -93q0 -43 -25.5 -74t-64.5 -31q-94 0 -119 134l-166 -37q-61 -135 -92 -350h244l8 -93h-268l-117 -645 q-82 -463 -201 -590q-88 -94 -217 -94q-61 0 -103 34t-42 85z" />
<glyph unicode="g" horiz-adv-x="872" d="M-121 -254q0 84 83 149.5t188 102.5v10q-98 53 -99 137q0 115 185 177v10q-125 90 -125 248q0 156 118.5 261t280.5 105q94 0 235 -37h207l-39 -135l-239 47v-16q88 -100 88 -201q0 -133 -109.5 -232.5t-232.5 -99.5q-66 0 -135 27q-47 -12 -76 -44t-29 -62q0 -41 36 -66 t138 -61l95 -33q147 -49 225 -106.5t78 -151.5q0 -113 -137.5 -197t-364.5 -84q-154 0 -262.5 67.5t-108.5 184.5zM6 -231q0 -84 95.5 -140.5t238.5 -56.5q119 0 205 47t86 117q0 53 -53.5 89t-159.5 75q-23 8 -99.5 33.5t-115.5 41.5q-197 -94 -197 -206zM246 543 q2 -121 57 -176q35 -35 76 -35q84 0 158 74q102 102 102 290q0 63 -62.5 116.5t-125.5 53.5q-53 0 -99 -41q-49 -49 -78 -127q-28 -72 -28 -145v-10z" />
<glyph unicode="h" horiz-adv-x="1005" d="M45 0l72 301l186 907q6 35 -14 41l-142 45l7 52l333 81l-114 -479l-137 -590h18q186 395 303 519q67 69 139 69h2q57 0 105.5 -42t48.5 -101q0 -80 -86 -371l-100 -338l59 -18l164 137l33 -37q-39 -72 -118 -139.5t-134 -67.5q-37 0 -89.5 22.5t-52.5 43.5q0 39 107 393 q82 262 82 303q0 35 -31 62.5t-68 27.5q-86 0 -376 -579l-45 -252z" />
<glyph unicode="i" horiz-adv-x="522" d="M41 707q39 82 115.5 160.5t130.5 78.5q23 0 59.5 -9t65 -25.5t24.5 -30.5l-217 -787l62 -18l163 137l35 -37q-41 -72 -119.5 -139.5t-134.5 -67.5q-35 0 -89 23.5t-50 42.5l209 788l-62 11l-157 -164zM346 1233q0 55 32 94t73 39q47 0 73.5 -29.5t26.5 -74.5 q0 -55 -31 -94.5t-71 -39.5q-47 0 -75 30t-28 75z" />
<glyph unicode="j" horiz-adv-x="499" d="M-272 -426v5q0 38 28 63q29 28 70 28q82 0 119 -100l41 8q59 109 137 479l168 766l-62 11l-157 -164l-35 37q39 82 115.5 160.5t130.5 78.5q23 0 59.5 -9t65 -25.5t24.5 -30.5l-174 -752q-53 -231 -105.5 -373.5t-123.5 -214.5q-78 -78 -168 -78q-53 0 -93 31t-40 80z M340 1233q0 55 30.5 94t71.5 39q47 0 74 -29.5t27 -74.5q0 -55 -31 -94.5t-72 -39.5q-47 0 -73.5 29t-26.5 76z" />
<glyph unicode="k" horiz-adv-x="884" d="M41 0l76 301l186 907q6 35 -14 41l-142 45l7 52l333 81l-114 -479l-107 -442h13l405 221l16 29q-82 18 -82 94q0 41 34 71.5t77 30.5q47 0 80 -34.5t33 -75.5q0 -80 -48.5 -130t-162.5 -104l-174 -80l149 -438h45l146 146l34 -37q-39 -80 -112.5 -155t-128.5 -75 q-20 0 -59 21.5t-44 36.5l-141 454l-80 -37l-76 -454z" />
<glyph unicode="l" horiz-adv-x="501" d="M55 35l250 1173q6 35 -14 41l-141 45l8 52l327 81l-297 -1333l62 -18l164 137l35 -37q-39 -72 -118 -139.5t-134 -67.5q-20 0 -55.5 11.5t-62 27t-24.5 27.5z" />
<glyph unicode="m" horiz-adv-x="1523" d="M35 707q39 82 115.5 160.5t130.5 78.5q37 0 92 -22.5t55 -42.5q0 -18 -129 -523h20q190 403 299 519q67 69 140 69h2q55 0 94 -42t39 -107q0 -61 -113 -439h19q186 395 303 519q67 69 139 69h2q59 0 106.5 -42t47.5 -101q0 -86 -88 -371q-31 -109 -101 -338l62 -18 l162 137l34 -37q-39 -72 -117.5 -139.5t-134.5 -67.5q-37 0 -89 22.5t-52 43.5q0 39 107 393q82 262 82 303q0 35 -31 62.5t-68 27.5q-90 0 -377 -579l-57 -252l-151 10l120 428q8 33 25.5 89t28 91t18.5 71t8 52q0 35 -30.5 62.5t-67.5 27.5q-86 0 -373 -579l-47 -252 l-149 10l69 301l111 522l-62 11l-159 -164z" />
<glyph unicode="n" horiz-adv-x="1042" d="M35 707q39 82 115.5 160.5t130.5 78.5q35 0 91 -22.5t56 -42.5q0 -18 -129 -523h20q193 403 302 519q67 69 139 69h2q59 0 106 -42t47 -101q0 -92 -86 -371q-90 -301 -102 -338l61 -18l164 137l35 -37q-39 -72 -119 -139.5t-135 -67.5q-35 0 -87 22.5t-52 43.5 q0 39 106 393q80 270 80 303q0 35 -30.5 62.5t-67.5 27.5q-88 0 -375 -579l-47 -252l-149 10l69 301l109 514l-60 12l-161 -157z" />
<glyph unicode="o" horiz-adv-x="894" d="M68 362q0 135 57 268.5t163.5 224.5t231.5 91q150 0 226.5 -110.5t76.5 -282.5q0 -211 -133 -397.5t-319 -186.5q-150 0 -226.5 110.5t-76.5 282.5zM207 317q0 -115 42 -199.5t126 -84.5q70 0 131 67.5t95 144.5t54 154q27 113 27 211q0 113 -42 193t-126 80 q-94 0 -169 -115t-109 -242q-29 -109 -29 -209z" />
<glyph unicode="p" horiz-adv-x="972" d="M-156 -504l4 70l129 20q37 2 43 37l271 1196l-64 15l-157 -164l-35 37q39 82 115.5 160.5t130.5 78.5q37 0 94 -22.5t57 -42.5q0 -29 -117 -416h19q119 225 215 354t180 129q80 0 130 -85t50 -204q0 -152 -62.5 -309t-156.5 -254q-129 -129 -270 -129q-98 0 -174 76h-4 l-82 -420q-6 -35 28 -37l152 -20l6 -70h-502zM268 178q131 -139 217 -139q43 0 93 49q68 68 128 234.5t60 300.5q0 86 -25.5 143t-72.5 59q-49 0 -128 -109.5t-235 -383.5z" />
<glyph unicode="q" horiz-adv-x="901" d="M45 233q0 156 65.5 322t161.5 262q131 131 254 131q106 0 168 -155h15l39 147l126 -4l-98 -354l-207 -959q-6 -31 29 -37l133 -20l4 -70h-491l4 70l135 20q35 2 43 37l113 463q82 281 104 350h-18q-123 -225 -215.5 -346t-178.5 -121q-84 0 -135 73t-51 191zM186 270 q0 -180 101 -180q53 0 129 102.5t235 372.5l29 119q-43 63 -109.5 116.5t-128.5 53.5q-41 0 -82 -41q-57 -57 -115.5 -235.5t-58.5 -307.5z" />
<glyph unicode="r" horiz-adv-x="804" d="M35 707q39 82 115.5 160.5t130.5 78.5q37 0 92 -22.5t55 -42.5q0 -55 -131 -523h27q41 111 115.5 264.5t119.5 208.5q55 70 88 92.5t84 22.5q53 0 88 -36t35 -87t-27.5 -83.5t-68.5 -32.5q-44 1 -68 31q-15 19 -15 47q0 17 5 36l-35 13q-41 -37 -159.5 -250t-178.5 -342 l-47 -252l-149 10l69 301l109 522l-62 11l-157 -164z" />
<glyph unicode="s" horiz-adv-x="696" d="M-8 119q0 41 26.5 68.5t69.5 27.5q33 0 53.5 -23.5t20.5 -56.5q0 -20 -12 -45q92 -41 192 -47q41 16 76 61.5t37 88.5v5q1 34 -23 72q-26 42 -54 69.5t-81 76.5q-176 167 -176 275v7q8 115 107.5 181.5t211.5 66.5q244 0 244 -145q0 -43 -26.5 -71t-67.5 -28 q-33 0 -53.5 24t-20.5 56q0 23 10 47q-96 41 -172 43q-41 -12 -73.5 -55t-34.5 -86v-6q0 -35 22 -73q24 -42 47 -64.5t86 -83.5q53 -51 82 -83q29 -31 64 -91q31 -53 31 -99v-10q-8 -111 -108.5 -181.5t-215.5 -70.5q-262 0 -262 150z" />
<glyph unicode="t" horiz-adv-x="604" d="M80 827l6 60l31 10q18 6 59 18.5t68 20.5l26 8l49 254h132l-56 -280h252l6 -93h-276l-154 -731l62 -18l164 137l34 -37q-41 -72 -119.5 -139.5t-134.5 -67.5q-37 0 -90 19.5t-49 38.5l160 792z" />
<glyph unicode="u" horiz-adv-x="1042" d="M59 707q41 82 118 160.5t130 78.5q35 0 89.5 -22.5t54.5 -42.5q0 -39 -107 -394q-82 -262 -82 -301q0 -35 31 -63.5t67 -28.5q86 0 377 580l49 252l150 -11l-72 -301q-96 -473 -110 -520l61 -18l162 137l35 -37q-39 -72 -118 -139.5t-134 -67.5q-37 0 -90.5 22.5 t-53.5 43.5q0 27 127 522h-18q-190 -397 -303 -518q-68 -70 -148 -70q-57 0 -102 42t-45 102q0 80 86 370l100 340l-61 11l-158 -164z" />
<glyph unicode="v" horiz-adv-x="874" d="M-4 702q41 82 115.5 163t128.5 81q37 0 92 -24.5t55 -47.5l-10 -776h14l246 396q94 145 94 227q-2 41 -33.5 68.5t-87.5 37.5q25 121 129 121q55 0 94 -37q37 -35 37 -99v-7q2 -70 -53 -169.5t-184 -283.5l-238 -352l-147 -31v848l-60 12l-157 -163z" />
<glyph unicode="w" horiz-adv-x="1359" d="M-4 702q41 82 115.5 163t128.5 81q37 0 92 -24.5t55 -47.5l-2 -776h10l330 672l-4 170l61 -12l74 -15l25 -815h12l217 396q88 155 88 222q0 87 -119 111q25 121 129 121q55 0 93 -37t38 -104q0 -37 -11 -77t-50 -107.5t-66.5 -112.5t-101.5 -158l-221 -352l-148 -31 l-10 658h-6l-324 -627l-147 -31l-6 848l-60 12l-157 -163z" />
<glyph unicode="x" horiz-adv-x="960" d="M-20 84q0 51 26.5 85t67.5 34q46 0 68 -30q19 -25 19 -68q0 -7 -1 -15l57 -6l213 367l-143 380h-47l-117 -147l-31 37q123 227 207 227q20 0 65.5 -21.5t49.5 -35.5l104 -359h4q119 252 181.5 333t130.5 81q66 0 109.5 -33t43.5 -82q-2 -51 -29.5 -84.5t-68.5 -33.5 q-45 1 -67 29q-17 22 -16 58q0 10 1 21l-59 6l-203 -348l145 -395h47l117 149l31 -36q-125 -227 -209 -228q-20 0 -64.5 21.5t-48.5 36.5l-106 362h-8q-135 -272 -192.5 -346t-125.5 -74q-66 0 -110 33q-41 31 -41 76v6z" />
<glyph unicode="y" horiz-adv-x="878" d="M-227 -393q0 43 30.5 72.5t67.5 29.5q47 0 83 -37q32 -33 32 -78v-10l55 -4l281 404l-80 22l6 811l-60 12l-157 -163l-35 36q41 82 115.5 163t128.5 81q37 0 92 -24.5t55 -47.5l-16 -776h20l354 592l7 33q-102 37 -103 113q0 47 30 80.5t75 33.5q57 0 92 -36t35 -95 q0 -102 -185 -364l-237 -355l-121 -215q-115 -219 -206 -314t-200 -95q-63 0 -111 36.5t-48 94.5z" />
<glyph unicode="z" horiz-adv-x="808" d="M-14 66q0 90 131 176l506 448q-59 23 -193.5 99.5t-155.5 84.5l-38 -38q38 -50 38 -86q0 -37 -22.5 -59.5t-58.5 -22.5q-43 0 -67 23.5t-24 58.5q0 72 69 132t179 64q61 0 110.5 -18.5t85.5 -58.5t49 -59t38 -65q4 -6 6 -10l18 2l58 209q53 -2 86 -28.5t33 -63.5 q0 -84 -138 -174l-495 -436q70 -29 207 -117t159 -96l43 43q-51 53 -51 96q0 31 24.5 53.5t65.5 22.5q39 0 60.5 -22.5t21.5 -59.5q0 -72 -61.5 -132.5t-165.5 -70.5q-117 0 -199 70.5t-121 165.5l-18 -2l-60 -226q-53 2 -86.5 31t-33.5 66z" />
<glyph unicode="{" horiz-adv-x="681" d="M57 442l23 56q268 8 268 159q0 66 -60.5 186t-60.5 212q0 137 100.5 216t288.5 91v-68q-117 -10 -184 -64t-67 -128q0 -66 60 -186.5t60 -213.5q0 -96 -86 -170.5t-176 -78.5v-25q90 -6 176 -80t86 -170q0 -90 -60 -209t-60 -184q0 -74 67.5 -131t183.5 -68v-63 q-186 8 -287.5 89t-101.5 218q0 90 60.5 210t60.5 185q0 147 -268 160z" />
<glyph unicode="|" horiz-adv-x="569" d="M240 -381v1790h90v-1790h-90z" />
<glyph unicode="}" horiz-adv-x="681" d="M51 -414q117 10 184.5 67.5t67.5 131.5q0 66 -60.5 184.5t-60.5 208.5q0 96 86 170t176 80v25q-90 4 -176 78.5t-86 170.5q0 92 60.5 213t60.5 187q0 74 -67.5 128t-184.5 64v68q188 -12 288.5 -91t100.5 -216q0 -92 -60.5 -212t-60.5 -186q0 -152 269 -159l22 -56 l-22 -57q-268 -12 -269 -160q0 -66 60.5 -185.5t60.5 -209.5q0 -137 -101 -218t-288 -89v63z" />
<glyph unicode="~" horiz-adv-x="774" d="M39 367q35 119 89 173t134 54q70 0 162 -75t123 -75q33 0 60.5 28t66.5 108h55q-37 -119 -90 -173.5t-135 -54.5q-43 0 -87 23.5t-74 51.5t-63.5 51.5t-58.5 23.5q-35 0 -61.5 -28t-67.5 -107h-53z" />
<glyph unicode="&#xa1;" horiz-adv-x="575" d="M152 49l184 825q2 12 21.5 12.5t19.5 -12.5l-33 -833q-4 -72 -76 -72h-30q-57 0 -76.5 21.5t-9.5 58.5zM274 1192q0 47 33 82t84 35q49 0 83 -34t34 -83q2 -45 -33 -79t-84 -34q-51 0 -84 34t-33 79z" />
<glyph unicode="&#xa2;" horiz-adv-x="755" d="M61 287q0 248 138.5 451.5t328.5 207.5h7l98 357h72l-101 -365q72 -16 116 -59t44 -99q0 -45 -28.5 -75.5t-69.5 -30.5t-68 27.5t-33 62.5l-188 -686q61 -6 254 131l33 -37q-168 -193 -320 -201l-82 -311h-72l84 313q-94 18 -153.5 105.5t-59.5 208.5zM205 311 q0 -178 106 -223l205 752q-31 18 -86 18q-23 0 -55 -33q-59 -59 -114.5 -220t-55.5 -294z" />
<glyph unicode="&#xa3;" horiz-adv-x="946" d="M-57 23q160 37 230.5 120.5t90.5 233.5q10 80 17 153h-209l6 80h209q12 178 18 240q27 201 144.5 319.5t293.5 118.5q100 0 165 -42t65 -107q0 -45 -27.5 -77t-73.5 -32q-55 0 -83.5 45t-8.5 107q-41 33 -104 32q-174 4 -213 -313q-10 -90 -23 -291h322l6 -80h-336 q-6 -70 -18 -133q-27 -143 -90 -225v-8q8 -2 83.5 -30t130 -41t99.5 -13q72 0 111 39q31 31 90 137l41 -14q-14 -125 -81 -208t-188 -83q-68 0 -140.5 34.5t-100 57.5t-84.5 72q-127 -135 -330 -166z" />
<glyph unicode="&#xa4;" horiz-adv-x="886" d="M74 1032l69 70l119 -119q80 53 178 53q104 0 183 -55l112 113l68 -68l-115 -115q49 -78 49 -176q0 -96 -51 -176l127 -127l-70 -70l-125 125q-80 -53 -178 -53q-100 0 -178 51l-115 -114l-67 67l115 115q-53 78 -54 182q0 106 52 178zM229 735q0 -88 58.5 -151.5 t153 -63.5t151.5 63.5t57 151.5q0 90 -57 152.5t-151.5 62.5t-153 -62.5t-58.5 -152.5z" />
<glyph unicode="&#xa5;" horiz-adv-x="1253" d="M115 1280h485l-6 -70l-105 -12q-37 -4 -35.5 -40t40.5 -118l188 -389h6l303 436q63 98 -4 113l-76 10l-6 70h414l-6 -70l-62 -10q-92 -25 -151 -110l-334 -463h324l8 -82h-377l-23 -174h392l8 -82h-410l-22 -162q-6 -31 30 -37l160 -20l6 -70h-565l6 70l164 20 q33 2 41 37l22 162h-356l4 82h361l24 174h-389l6 82h357l-256 512q-23 43 -76 57l-84 14z" />
<glyph unicode="&#xa6;" horiz-adv-x="569" d="M240 -285v686h90v-686h-90zM240 629v686h90v-686h-90z" />
<glyph unicode="&#xa7;" horiz-adv-x="880" d="M88 657q0 88 61.5 160t149.5 107q-29 57 -29 112q0 104 90.5 185.5t223.5 81.5q78 0 154.5 -39t76.5 -109q0 -41 -28.5 -70.5t-67.5 -29.5q-51 0 -81 42t-34 113q-37 18 -72 19q-68 0 -104.5 -41t-36.5 -96q0 -51 35 -101.5t68.5 -78t109.5 -81.5q59 -45 85 -65.5t67 -61 t57 -82t16 -90.5q0 -88 -60 -161.5t-148 -108.5q29 -57 28 -112q0 -102 -92 -189.5t-233 -87.5q-78 0 -155 39t-77 108q0 43 29 72t69 29q102 0 113 -154q39 -20 90 -20q59 0 97 44t38 105q0 49 -34.5 99.5t-69.5 79t-107 79.5q-76 53 -115.5 88t-76.5 93.5t-37 121.5z M207 725q0 -59 41 -111.5t125 -113.5q10 -8 39.5 -29.5t43 -32t38 -30t40 -34t33 -33.5t29.5 -38q115 56 115 160q0 66 -42 116t-116 107q-6 4 -27.5 19.5t-27.5 20.5t-24.5 19.5t-27 20.5t-23.5 18.5t-22.5 19.5t-20.5 19.5t-20.5 20.5t-16.5 19t-17 22q-49 -25 -84 -69 t-35 -91z" />
<glyph unicode="&#xa8;" horiz-adv-x="819" d="M188 1223q0 49 32 84.5t81 35.5q51 0 82 -35.5t31 -84.5t-31 -85t-82 -36t-82 36t-31 85zM598 1223q0 49 32 84.5t81 35.5t80.5 -35.5t31.5 -84.5t-30.5 -85t-82 -36t-82 36t-30.5 85z" />
<glyph unicode="&#xa9;" horiz-adv-x="1503" d="M82 639q0 279 195.5 475.5t474 196.5t474 -196.5t195.5 -475.5t-195.5 -474.5t-474 -195.5t-474 195.5t-195.5 474.5zM156 639q0 -248 175 -425t420.5 -177t421 177t175.5 425t-175.5 426t-421 178t-420.5 -178t-175 -426zM389 627q0 172 107.5 282.5t275.5 110.5 q90 0 166 -23l92 23v-260h-53l-43 151q-61 43 -172 43t-184.5 -81.5t-73.5 -215.5q0 -152 76.5 -243.5t212.5 -91.5q80 0 129 32l63 162h55l-26 -242l-58 13q-82 -29 -180 -29q-180 0 -283.5 102.5t-103.5 266.5z" />
<glyph unicode="&#xaa;" horiz-adv-x="706" d="M111 803q0 102 47 224t114 190q92 92 187 92q74 0 121 -115h12l26 115h87l-64 -269l-78 -354l39 -10l139 121l19 -27q-39 -59 -104.5 -117.5t-106.5 -58.5q-23 0 -51.5 25.5t-28.5 44.5q0 14 11.5 52t40 125t50.5 165h-10q-209 -412 -313 -412q-66 0 -101.5 58.5 t-35.5 150.5zM215 823q0 -63 22.5 -99t55.5 -36q53 0 242 340l20 76q-27 45 -72 85t-92 40q-29 0 -57 -29q-43 -43 -81 -159.5t-38 -217.5z" />
<glyph unicode="&#xab;" horiz-adv-x="997" d="M51 414l2 82l492 301l14 -43l-344 -303l266 -291l-26 -39zM436 414l2 82l492 321l14 -43l-364 -323l280 -312l-24 -39z" />
<glyph unicode="&#xac;" horiz-adv-x="983" d="M72 528l6 101h833v-430h-104v329h-735z" />
<glyph unicode="&#xad;" horiz-adv-x="671" d="M51 428l6 104h525l6 -104h-537z" />
<glyph unicode="&#xae;" horiz-adv-x="1503" d="M82 639q0 279 195.5 475.5t474 196.5t474 -196.5t195.5 -475.5t-195.5 -474.5t-474 -195.5t-474 195.5t-195.5 474.5zM156 639q0 -248 175 -425t420.5 -177t421 177t175.5 425t-175.5 426t-421 178t-420.5 -178t-175 -426zM440 281l6 59l76 12q20 2 21 23v538 q0 20 -21 23l-76 12l-6 60h324q131 0 198.5 -54.5t67.5 -132.5q0 -156 -178 -211l145 -221q29 -35 52 -41l69 -8l6 -59h-190l-45 81l-141 224l-97 4v-215q0 -20 21 -23l88 -12l4 -59h-324zM651 655l94 -10q166 15 166 158q0 150 -198 141l-62 -2v-287z" />
<glyph unicode="&#xaf;" horiz-adv-x="819" d="M231 1104l15 84h491v-84h-506z" />
<glyph unicode="&#xb0;" horiz-adv-x="841" d="M150 948q0 156 109.5 267.5t262.5 111.5q137 0 230.5 -82t93.5 -219q0 -160 -109.5 -271.5t-267.5 -111.5q-135 0 -227 84t-92 221zM242 952q-2 -102 66.5 -165.5t168.5 -65.5q115 -2 194 82t81 203q2 104 -66 170.5t-172 66.5q-115 2 -192.5 -86t-79.5 -205z" />
<glyph unicode="&#xb1;" horiz-adv-x="983" d="M66 29l6 100h839l7 -100h-852zM66 471l6 100h368v338h105v-338h366l7 -100h-373v-305h-105v305h-374z" />
<glyph unicode="&#xb2;" horiz-adv-x="675" d="M8 559l4 70q47 37 143.5 109.5t138.5 107.5t97 88t76.5 96t21.5 88q0 66 -47 105t-114 39q-104 0 -226 -93l-12 29q147 152 305 152q92 0 159 -54.5t67 -138.5q0 -37 -14.5 -75t-46.5 -75.5t-62.5 -69.5t-86 -73t-92 -67.5t-103 -71.5t-99.5 -70q-2 -6 0 -6h106 q176 0 226.5 10.5t76.5 49.5l35 59h57l-69 -209h-541z" />
<glyph unicode="&#xb3;" horiz-adv-x="675" d="M16 633q0 27 20.5 46t49.5 19q45 0 73.5 -33.5t28.5 -76.5q37 -6 52 -6q94 0 151.5 60t59.5 140q0 59 -40 96t-106 37q-49 0 -123 -24l-14 35q195 90 242 129q57 51 59 104q0 49 -39 77t-88 28q-106 0 -223 -80l-10 33q137 133 305 133q80 0 142 -41t62 -109 q0 -39 -21.5 -73.5t-46 -56t-72.5 -45.5t-70.5 -33t-71.5 -25v-2q33 8 74 8q78 0 128 -45t50 -123q0 -117 -118 -196t-257 -79q-68 0 -132.5 26t-64.5 77z" />
<glyph unicode="&#xb4;" horiz-adv-x="819" d="M369 1040l243 377h193l-389 -377h-47z" />
<glyph unicode="&#xb5;" horiz-adv-x="1077" d="M20 913h306l-9 -622q-6 -197 191 -197q115 0 244 111v602q0 27 -56 31l-102 8l-6 67h311v-786q0 -33 19 -39l147 -33l-6 -49l-307 -37v156h-11q-41 -51 -68.5 -79t-74.5 -52.5t-100 -24.5q-131 0 -191 119h-6l16 -573l-180 -19l29 731l4 580q0 8 -1 12t-3 7t-8 5l-13 3 q-6 0 -18 1t-23 3l-77 8z" />
<glyph unicode="&#xb6;" horiz-adv-x="1011" d="M141 872q0 207 139.5 307.5t356.5 100.5h311l-176 -1346h-96l80 617q-109 -23 -168 -23q-197 0 -322 93.5t-125 250.5z" />
<glyph unicode="&#xb7;" horiz-adv-x="462" d="M61 465q0 51 36 87t91.5 36t91 -37t33.5 -86q0 -51 -35.5 -88t-89.5 -37q-55 0 -92 37t-35 88z" />
<glyph unicode="&#xb8;" horiz-adv-x="819" d="M68 -502q344 47 344 195q0 96 -160 96q-53 0 -121 -10l4 35l242 225h84l-174 -160q111 4 177 -39t66 -121q0 -106 -122.5 -179t-331.5 -87z" />
<glyph unicode="&#xb9;" horiz-adv-x="675" d="M76 559l2 51l149 15q33 4 37 28l86 592l-182 21l8 39l309 43l-100 -695q-4 -27 27 -28l127 -15l4 -51h-467z" />
<glyph unicode="&#xba;" horiz-adv-x="653" d="M123 881q0 156 95 292t235 136q111 0 167 -81t56 -208q0 -156 -95.5 -291t-236.5 -135q-111 0 -166 80t-55 207zM227 848q0 -84 30 -142.5t91 -58.5q72 0 126 85t79 181q18 78 18 150q0 82 -30.5 137t-91.5 55q-68 0 -122.5 -82.5t-80.5 -177.5q-18 -74 -19 -147z" />
<glyph unicode="&#xbb;" horiz-adv-x="997" d="M20 137l363 324l-279 311l23 39l399 -315l-2 -82l-491 -320zM403 158l347 303l-269 291l27 39l405 -295l-2 -82l-493 -299z" />
<glyph unicode="&#xbc;" horiz-adv-x="1464" d="M41 -238l1300 1518h105l-1303 -1518h-102zM117 559l2 51l149 15q33 4 37 28l86 592l-182 21l8 39l309 43l-100 -695q-4 -27 27 -28l127 -15l4 -51h-467zM756 -14l479 512l78 -11l-72 -489h143l-18 -64h-133l-35 -227h-115l33 227h-360v52zM831 -2h293l54 358h-11z" />
<glyph unicode="&#xbd;" horiz-adv-x="1464" d="M41 -238l1300 1518h105l-1303 -1518h-102zM117 559l2 51l149 15q33 4 37 28l86 592l-182 21l8 39l309 43l-100 -695q-4 -27 27 -28l127 -15l4 -51h-467zM756 -293l4 70q47 37 143 109.5t138 107.5t97.5 88t77 96t21.5 88q0 66 -47 105t-115 39q-104 0 -225 -93l-12 29 q147 152 305 152q92 0 158.5 -54.5t66.5 -138.5q0 -37 -14.5 -74.5t-46 -75.5t-62.5 -70t-86 -73t-92 -67.5t-103.5 -71.5t-99.5 -70q-2 -6 0 -6h107q176 0 226 10.5t77 49.5l35 59h57l-70 -209h-540z" />
<glyph unicode="&#xbe;" horiz-adv-x="1464" d="M41 -238l1300 1518h105l-1303 -1518h-102zM57 633q0 27 20.5 46t49.5 19q45 0 73.5 -33.5t28.5 -76.5q37 -6 52 -6q94 0 151 60t60 140q0 59 -40 96t-106 37q-49 0 -123 -24l-14 35q195 90 242 129q57 51 59 104q0 49 -39 77t-88 28q-106 0 -223 -80l-10 33 q137 133 305 133q80 0 142 -41t62 -109q0 -39 -21.5 -73.5t-46 -56t-72.5 -45.5t-70.5 -33t-71.5 -25v-2q33 8 74 8q78 0 128 -45t50 -123q0 -117 -118 -196t-257 -79q-68 0 -132.5 26t-64.5 77zM756 -14l479 512l78 -11l-72 -489h143l-18 -64h-133l-35 -227h-115l33 227 h-360v52zM831 -2h293l54 358h-11z" />
<glyph unicode="&#xbf;" horiz-adv-x="727" d="M49 305q0 125 65.5 184.5t182.5 96.5q55 18 76.5 27.5t58.5 30t50.5 47t13.5 63.5q0 74 -82 161l63 -4q115 -115 115 -215q0 -102 -69.5 -156.5t-190.5 -90.5q-70 -23 -103.5 -36.5t-65.5 -42t-32 -63.5q0 -70 95.5 -123t232.5 -53q59 0 96 6q12 -18 12 -45 q0 -51 -40 -81.5t-111 -30.5q-154 0 -260.5 99t-106.5 226zM399 1200q0 47 33 82t82 35q51 0 86 -35t33 -82q0 -45 -34 -79t-85 -34q-49 0 -82 34t-33 79z" />
<glyph unicode="&#xc0;" horiz-adv-x="1181" d="M-66 0l7 70l96 20q33 10 51 30.5t41 67.5l451 1012v60l190 47l211 -1166q4 -16 8 -24t14.5 -16.5t28.5 -10.5l117 -20l6 -70h-512l6 70l121 16q41 8 33 53l-53 324h-402l-98 -234q-49 -125 12 -139l111 -20l6 -70h-445zM383 547h352l-94 583h-10zM420 1769h192l142 -376 h-45z" />
<glyph unicode="&#xc1;" horiz-adv-x="1181" d="M-66 0l7 70l96 20q33 10 51 30.5t41 67.5l451 1012v60l190 47l211 -1166q4 -16 8 -24t14.5 -16.5t28.5 -10.5l117 -20l6 -70h-512l6 70l121 16q41 8 33 53l-53 324h-402l-98 -234q-49 -125 12 -139l111 -20l6 -70h-445zM383 547h352l-94 583h-10zM610 1393l244 376h193 l-390 -376h-47z" />
<glyph unicode="&#xc2;" horiz-adv-x="1181" d="M-66 0l7 70l96 20q33 10 51 30.5t41 67.5l451 1012v60l190 47l211 -1166q4 -16 8 -24t14.5 -16.5t28.5 -10.5l117 -20l6 -70h-512l6 70l121 16q41 8 33 53l-53 324h-402l-98 -234q-49 -125 12 -139l111 -20l6 -70h-445zM383 547h352l-94 583h-10zM414 1393l225 376h182 l125 -376h-43l-182 270h-4l-258 -270h-45z" />
<glyph unicode="&#xc3;" horiz-adv-x="1181" d="M-66 0l7 70l96 20q33 10 51 30.5t41 67.5l451 1012v60l190 47l211 -1166q4 -16 8 -24t14.5 -16.5t28.5 -10.5l117 -20l6 -70h-512l6 70l121 16q41 8 33 53l-53 324h-402l-98 -234q-49 -125 12 -139l111 -20l6 -70h-445zM373 1432q72 240 225 239q70 0 161 -73.5 t122 -73.5q33 0 60.5 27.5t68.5 105.5h55q-76 -240 -227 -240q-70 0 -161 74t-122 74q-35 0 -61.5 -28t-67.5 -105h-53zM383 547h352l-94 583h-10z" />
<glyph unicode="&#xc4;" horiz-adv-x="1181" d="M-66 0l7 70l96 20q33 10 51 30.5t41 67.5l451 1012v60l190 47l211 -1166q4 -16 8 -24t14.5 -16.5t28.5 -10.5l117 -20l6 -70h-512l6 70l121 16q41 8 33 53l-53 324h-402l-98 -234q-49 -125 12 -139l111 -20l6 -70h-445zM369 1575q0 49 31.5 85t80.5 36q51 0 82 -36 t31 -85t-31 -85t-82 -36t-81.5 36t-30.5 85zM383 547h352l-94 583h-10zM778 1575q0 49 32 85t81 36t81 -36t32 -85t-31 -85t-82 -36t-82 36t-31 85z" />
<glyph unicode="&#xc5;" horiz-adv-x="1181" d="M-66 0l7 70l96 20q33 10 51 30.5t41 67.5l473 1063q-84 51 -84 160q2 78 51 131t131 53t133.5 -53t49.5 -131q0 -123 -101 -168l199 -1102q6 -45 51 -51l117 -20l6 -70h-512l6 70l121 16q41 8 33 53l-53 324h-402l-98 -234q-49 -125 12 -139l111 -20l6 -70h-445zM383 547 h352l-94 583h-10zM580 1411q0 -55 33.5 -93t89 -38t88 38t32.5 93q0 53 -33.5 91t-89 38t-88 -38t-32.5 -91z" />
<glyph unicode="&#xc6;" horiz-adv-x="1642" d="M-117 0l6 70l97 20q59 18 110 100l613 963q18 29 -25 37l-125 20l-4 70h1085l-49 -371h-90l-18 207q-4 33 -12.5 47.5t-55.5 25.5t-120.5 13t-233.5 2h-47l-72 -514h47q131 0 165 6t48 33l64 137h71l-100 -426h-70l9 131q2 18 -9.5 26.5t-55.5 13.5t-136 5h-43l-70 -540 h25q172 0 256 2t138 13t68.5 25.5t28.5 47.5l80 198h98l-86 -362h-938l9 70l129 20q35 6 41 37l45 336h-385l-99 -156q-94 -156 -94 -180q-2 -29 35 -37l109 -20l6 -70h-445zM424 547h342l90 657h-18z" />
<glyph unicode="&#xc7;" horiz-adv-x="1255" d="M102 532q0 158 59.5 306.5t168.5 257.5q213 213 501 213q152 0 277 -39l145 33l-55 -416h-84l-20 272q-125 70 -269 70q-225 0 -383.5 -204t-158.5 -501q0 -240 137 -377q98 -98 264 -98q123 0 246 62l121 274h96l-98 -387l-95 20q-156 -49 -280 -49h-15l-98 -90 q111 4 177.5 -39t66.5 -121q0 -106 -123 -178.5t-332 -87.5l-8 45q344 47 344 195q0 96 -160 96q-53 0 -120 -10l4 35l172 159q-231 27 -355.5 173.5t-124.5 385.5z" />
<glyph unicode="&#xc8;" horiz-adv-x="1175" d="M27 0l6 70l127 20q35 6 41 37l137 1026q6 29 -31 37l-119 20l-6 70h983l-49 -371h-88l-18 207q-6 51 -39 66q-53 23 -385 22h-70l-70 -514h70q131 0 164 6t47 33l66 137h69l-100 -426h-68l8 131q2 18 -9 26.5t-55 13.5t-136 5h-66l-71 -540h47q225 0 317 7t124 22.5 t50 58.5l82 198h98l-86 -362h-970zM444 1769h193l141 -376h-45z" />
<glyph unicode="&#xc9;" horiz-adv-x="1175" d="M27 0l6 70l127 20q35 6 41 37l137 1026q6 29 -31 37l-119 20l-6 70h983l-49 -371h-88l-18 207q-6 51 -39 66q-53 23 -385 22h-70l-70 -514h70q131 0 164 6t47 33l66 137h69l-100 -426h-68l8 131q2 18 -9 26.5t-55 13.5t-136 5h-66l-71 -540h47q225 0 317 7t124 22.5 t50 58.5l82 198h98l-86 -362h-970zM547 1393l244 376h192l-389 -376h-47z" />
<glyph unicode="&#xca;" horiz-adv-x="1175" d="M27 0l6 70l127 20q35 6 41 37l137 1026q6 29 -31 37l-119 20l-6 70h983l-49 -371h-88l-18 207q-6 51 -39 66q-53 23 -385 22h-70l-70 -514h70q131 0 164 6t47 33l66 137h69l-100 -426h-68l8 131q2 18 -9 26.5t-55 13.5t-136 5h-66l-71 -540h47q225 0 317 7t124 22.5 t50 58.5l82 198h98l-86 -362h-970zM426 1393l225 376h183l124 -376h-43l-182 270h-4l-258 -270h-45z" />
<glyph unicode="&#xcb;" horiz-adv-x="1175" d="M27 0l6 70l127 20q35 6 41 37l137 1026q6 29 -31 37l-119 20l-6 70h983l-49 -371h-88l-18 207q-6 51 -39 66q-53 23 -385 22h-70l-70 -514h70q131 0 164 6t47 33l66 137h69l-100 -426h-68l8 131q2 18 -9 26.5t-55 13.5t-136 5h-66l-71 -540h47q225 0 317 7t124 22.5 t50 58.5l82 198h98l-86 -362h-970zM393 1575q0 49 32 85t81 36q51 0 81.5 -36t30.5 -85t-30.5 -85t-81.5 -36t-82 36t-31 85zM803 1575q0 49 31.5 85t81 36t81 -36t31.5 -85t-30.5 -85t-82 -36t-82 36t-30.5 85z" />
<glyph unicode="&#xcc;" horiz-adv-x="716" d="M37 0l6 70l141 20q35 6 41 37l137 1026q6 31 -30 37l-135 20l-7 70h529l-6 -70l-142 -20q-35 -6 -41 -37l-135 -1026q-6 -31 31 -37l135 -20l6 -70h-530zM168 1769h192l142 -376h-45z" />
<glyph unicode="&#xcd;" horiz-adv-x="716" d="M37 0l6 70l141 20q35 6 41 37l137 1026q6 31 -30 37l-135 20l-7 70h529l-6 -70l-142 -20q-35 -6 -41 -37l-135 -1026q-6 -31 31 -37l135 -20l6 -70h-530zM434 1393l244 376h192l-389 -376h-47z" />
<glyph unicode="&#xce;" horiz-adv-x="716" d="M37 0l6 70l141 20q35 6 41 37l137 1026q6 31 -30 37l-135 20l-7 70h529l-6 -70l-142 -20q-35 -6 -41 -37l-135 -1026q-6 -31 31 -37l135 -20l6 -70h-530zM201 1393l225 376h182l125 -376h-43l-182 270h-4l-258 -270h-45z" />
<glyph unicode="&#xcf;" horiz-adv-x="716" d="M37 0l6 70l141 20q35 6 41 37l137 1026q6 31 -30 37l-135 20l-7 70h529l-6 -70l-142 -20q-35 -6 -41 -37l-135 -1026q-6 -31 31 -37l135 -20l6 -70h-530zM162 1575q0 49 31.5 85t80.5 36q51 0 82 -36t31 -85t-30.5 -85t-82 -36t-82 36t-30.5 85zM571 1575q0 49 32 85 t81 36t81 -36t32 -85t-31 -85t-82 -36t-82 36t-31 85z" />
<glyph unicode="&#xd0;" horiz-adv-x="1331" d="M27 0l6 70l127 20q35 6 41 37l65 487h-176l6 80h180l62 459q4 29 -33 37l-119 20l-6 70h490q276 0 441 -153.5t165 -409.5q0 -297 -201 -496q-102 -104 -260 -162.5t-344 -58.5h-444zM369 104l149 -28q252 10 413 180t161 467q0 223 -120 352t-343 129h-115l-68 -510h238 l6 -80h-254z" />
<glyph unicode="&#xd1;" horiz-adv-x="1433" d="M16 0l7 70l124 16q45 8 62.5 55t44.5 236l90 676q8 66 -2 94.5t-45 36.5l-113 26l-6 70h363l534 -1028h8l88 651q31 236 19 266q-10 18 -43 25l-121 16l-6 70h477l-6 -70l-125 -16q-31 -6 -45 -23.5t-28.5 -77t-32.5 -190.5l-123 -919h-103l-590 1126h-8l-94 -733 q-14 -109 -19.5 -157t-2 -82t13.5 -41t35 -11l118 -16l7 -70h-478zM453 1432q72 240 225 239q70 0 161 -73.5t122 -73.5q33 0 60.5 27.5t68.5 105.5h55q-76 -240 -227 -240q-70 0 -161 74t-122 74q-35 0 -61.5 -28t-67.5 -105h-53z" />
<glyph unicode="&#xd2;" horiz-adv-x="1409" d="M102 567q0 293 177 508q197 233 497 234q254 0 417 -172t163 -428q0 -154 -54.5 -295.5t-154.5 -243.5q-190 -201 -465 -201q-256 0 -418 171t-162 427zM287 547q0 -254 133 -387q109 -109 280 -109q117 0 211.5 66.5t148.5 171t82.5 219t28.5 225.5q0 254 -131 385 q-106 111 -282 111q-117 0 -211 -66.5t-148.5 -171t-83 -219.5t-28.5 -225zM514 1769h193l141 -376h-45z" />
<glyph unicode="&#xd3;" horiz-adv-x="1409" d="M102 567q0 293 177 508q197 233 497 234q254 0 417 -172t163 -428q0 -154 -54.5 -295.5t-154.5 -243.5q-190 -201 -465 -201q-256 0 -418 171t-162 427zM287 547q0 -254 133 -387q109 -109 280 -109q117 0 211.5 66.5t148.5 171t82.5 219t28.5 225.5q0 254 -131 385 q-106 111 -282 111q-117 0 -211 -66.5t-148.5 -171t-83 -219.5t-28.5 -225zM729 1393l244 376h192l-389 -376h-47z" />
<glyph unicode="&#xd4;" horiz-adv-x="1409" d="M102 567q0 293 177 508q197 233 497 234q254 0 417 -172t163 -428q0 -154 -54.5 -295.5t-154.5 -243.5q-190 -201 -465 -201q-256 0 -418 171t-162 427zM287 547q0 -254 133 -387q109 -109 280 -109q117 0 211.5 66.5t148.5 171t82.5 219t28.5 225.5q0 254 -131 385 q-106 111 -282 111q-117 0 -211 -66.5t-148.5 -171t-83 -219.5t-28.5 -225zM555 1393l225 376h183l124 -376h-43l-182 270h-4l-258 -270h-45z" />
<glyph unicode="&#xd5;" horiz-adv-x="1409" d="M102 567q0 293 177 508q197 233 497 234q254 0 417 -172t163 -428q0 -154 -54.5 -295.5t-154.5 -243.5q-190 -201 -465 -201q-256 0 -418 171t-162 427zM287 547q0 -254 133 -387q109 -109 280 -109q117 0 211.5 66.5t148.5 171t82.5 219t28.5 225.5q0 254 -131 385 q-106 111 -282 111q-117 0 -211 -66.5t-148.5 -171t-83 -219.5t-28.5 -225zM498 1432q72 240 225 239q70 0 161 -73.5t122 -73.5q33 0 60.5 27.5t68.5 105.5h55q-76 -240 -227 -240q-70 0 -161 74t-122 74q-35 0 -61.5 -28t-67.5 -105h-53z" />
<glyph unicode="&#xd6;" horiz-adv-x="1409" d="M102 567q0 293 177 508q197 233 497 234q254 0 417 -172t163 -428q0 -154 -54.5 -295.5t-154.5 -243.5q-190 -201 -465 -201q-256 0 -418 171t-162 427zM287 547q0 -254 133 -387q109 -109 280 -109q117 0 211.5 66.5t148.5 171t82.5 219t28.5 225.5q0 254 -131 385 q-106 111 -282 111q-117 0 -211 -66.5t-148.5 -171t-83 -219.5t-28.5 -225zM483 1575q0 49 32 85t81 36q51 0 82 -36t31 -85t-31 -85t-82 -36t-82 36t-31 85zM893 1575q0 49 31.5 85t81 36t81 -36t31.5 -85t-30.5 -85t-82 -36t-82 36t-30.5 85z" />
<glyph unicode="&#xd7;" horiz-adv-x="983" d="M74 133l346 348l-346 346l69 70l349 -346l348 346l69 -70l-346 -346l346 -348l-69 -72l-348 349l-349 -349z" />
<glyph unicode="&#xd8;" horiz-adv-x="1409" d="M102 567q0 293 177 508q197 233 497 234q160 0 281 -72l108 172h90q-133 -211 -133 -213q111 -80 172.5 -207t61.5 -280.5t-54.5 -295t-154.5 -243.5q-190 -201 -465 -201q-158 0 -279 68l-30 -47l-58 -94l-30 -48h-88l141 228q-111 82 -173.5 210t-62.5 281zM287 547 q-1 -236 114 -369l603 971q-98 80 -246 80q-117 0 -211 -66.5t-148.5 -171t-83 -219.5t-28.5 -225zM459 127q94 -76 241 -76q117 0 211.5 66.5t148.5 171t82.5 219.5t28.5 225q1 234 -110 365z" />
<glyph unicode="&#xd9;" horiz-adv-x="1458" d="M164 1280h502l-7 -70l-127 -20q-37 -6 -40 -37l-89 -651q-10 -72 -10 -113q0 -160 91 -238.5t251 -78.5q326 0 377 354l64 477q14 106 20 156.5t2 83.5t-13 40t-34 11l-121 16l-6 70h477l-6 -70l-125 -16q-31 -6 -45 -23.5t-28.5 -76t-32.5 -191.5l-68 -495 q-31 -217 -170 -328t-350 -111q-205 0 -331 99.5t-126 287.5q0 39 10 136l93 661q4 29 -33 37l-119 20zM567 1769h193l141 -376h-45z" />
<glyph unicode="&#xda;" horiz-adv-x="1458" d="M164 1280h502l-7 -70l-127 -20q-37 -6 -40 -37l-89 -651q-10 -72 -10 -113q0 -160 91 -238.5t251 -78.5q326 0 377 354l64 477q14 106 20 156.5t2 83.5t-13 40t-34 11l-121 16l-6 70h477l-6 -70l-125 -16q-31 -6 -45 -23.5t-28.5 -76t-32.5 -191.5l-68 -495 q-31 -217 -170 -328t-350 -111q-205 0 -331 99.5t-126 287.5q0 39 10 136l93 661q4 29 -33 37l-119 20zM791 1393l243 376h193l-389 -376h-47z" />
<glyph unicode="&#xdb;" horiz-adv-x="1458" d="M164 1280h502l-7 -70l-127 -20q-37 -6 -40 -37l-89 -651q-10 -72 -10 -113q0 -160 91 -238.5t251 -78.5q326 0 377 354l64 477q14 106 20 156.5t2 83.5t-13 40t-34 11l-121 16l-6 70h477l-6 -70l-125 -16q-31 -6 -45 -23.5t-28.5 -76t-32.5 -191.5l-68 -495 q-31 -217 -170 -328t-350 -111q-205 0 -331 99.5t-126 287.5q0 39 10 136l93 661q4 29 -33 37l-119 20zM584 1393l225 376h182l125 -376h-43l-182 270h-4l-258 -270h-45z" />
<glyph unicode="&#xdc;" horiz-adv-x="1458" d="M164 1280h502l-7 -70l-127 -20q-37 -6 -40 -37l-89 -651q-10 -72 -10 -113q0 -160 91 -238.5t251 -78.5q326 0 377 354l64 477q14 106 20 156.5t2 83.5t-13 40t-34 11l-121 16l-6 70h477l-6 -70l-125 -16q-31 -6 -45 -23.5t-28.5 -76t-32.5 -191.5l-68 -495 q-31 -217 -170 -328t-350 -111q-205 0 -331 99.5t-126 287.5q0 39 10 136l93 661q4 29 -33 37l-119 20zM508 1575q0 49 31.5 85t81.5 36q51 0 81.5 -36t30.5 -85t-30.5 -85t-82 -36t-82 36t-30.5 85zM918 1575q0 49 31.5 85t80.5 36t81 -36t32 -85t-31 -85t-82 -36t-81.5 36 t-30.5 85z" />
<glyph unicode="&#xdd;" horiz-adv-x="1210" d="M76 1280h499l-8 -70l-102 -12q-25 -2 -34 -16.5t-3 -39t25 -63.5l209 -450h8l331 485q39 66 -28 80l-107 16l-6 70h467l-6 -70l-82 -14q-47 -10 -79 -31.5t-66 -72.5l-381 -543l-56 -422q-6 -31 31 -37l152 -20l6 -70h-567l6 70l161 20q33 2 41 37l54 420l-269 545 q-23 47 -43 67.5t-55 30.5l-92 20zM668 1393l243 376h193l-389 -376h-47z" />
<glyph unicode="&#xde;" horiz-adv-x="1124" d="M27 0l6 70l127 20q35 6 41 37l139 1026q6 29 -31 37l-119 20l-6 70h500l-6 -70l-127 -20q-35 -6 -41 -37l-16 -125h131q209 0 335.5 -96t126.5 -256q0 -188 -151.5 -298t-364.5 -110q-84 0 -178 15l-22 -156q-6 -35 30 -37l162 -20l6 -70h-542zM403 360q82 -20 162 -20 q152 0 246 89t94 247q0 129 -86 203.5t-225 74.5q-82 0 -111 -4z" />
<glyph unicode="&#xdf;" horiz-adv-x="1026" d="M-291 -385q0 45 25.5 73.5t66.5 28.5q47 0 77 -36.5t36 -94.5l121 64q35 80 90 381l131 788l-178 8l6 58l192 43q51 254 152.5 369.5t265.5 115.5q133 0 217 -79t76 -191q-10 -232 -299 -289q119 -84 202 -217t75 -283q-8 -152 -121 -269.5t-250 -113.5 q-104 2 -165.5 52.5t-57.5 123.5q2 49 35.5 84t82.5 35q59 0 82 -41t8.5 -90t-53.5 -72q27 -23 80 -26q86 -2 151.5 73.5t69.5 184.5q10 139 -65.5 281.5t-233.5 259.5l9 41q301 16 317 268q4 74 -45 133t-125 61q-115 2 -177.5 -99t-100.5 -322l-134 -738 q-86 -467 -200 -590q-94 -94 -217 -94q-61 0 -103.5 34t-42.5 85z" />
<glyph unicode="&#xe0;" d="M45 233q0 156 65.5 322t161.5 262q131 131 254 131q107 1 168 -155h15l41 153h127l-101 -364l-108 -488l61 -18l162 137l35 -37q-39 -72 -118 -139.5t-134 -67.5q-37 0 -92.5 22.5t-55.5 43.5q0 35 117 401h-18q-123 -225 -215.5 -346t-178.5 -121q-84 0 -135 73t-51 191 zM186 270q0 -180 101 -180q53 0 129 102.5t235 372.5l29 119q-43 63 -109.5 116.5t-128.5 53.5q-41 0 -82 -41q-57 -57 -115.5 -235.5t-58.5 -307.5zM313 1417h193l141 -377h-45z" />
<glyph unicode="&#xe1;" d="M45 233q0 156 65.5 322t161.5 262q131 131 254 131q107 1 168 -155h15l41 153h127l-101 -364l-108 -488l61 -18l162 137l35 -37q-39 -72 -118 -139.5t-134 -67.5q-37 0 -92.5 22.5t-55.5 43.5q0 35 117 401h-18q-123 -225 -215.5 -346t-178.5 -121q-84 0 -135 73t-51 191 zM186 270q0 -180 101 -180q53 0 129 102.5t235 372.5l29 119q-43 63 -109.5 116.5t-128.5 53.5q-41 0 -82 -41q-57 -57 -115.5 -235.5t-58.5 -307.5zM449 1040l243 377h193l-389 -377h-47z" />
<glyph unicode="&#xe2;" d="M45 233q0 156 65.5 322t161.5 262q131 131 254 131q107 1 168 -155h15l41 153h127l-101 -364l-108 -488l61 -18l162 137l35 -37q-39 -72 -118 -139.5t-134 -67.5q-37 0 -92.5 22.5t-55.5 43.5q0 35 117 401h-18q-123 -225 -215.5 -346t-178.5 -121q-84 0 -135 73t-51 191 zM186 270q0 -180 101 -180q53 0 129 102.5t235 372.5l29 119q-43 63 -109.5 116.5t-128.5 53.5q-41 0 -82 -41q-57 -57 -115.5 -235.5t-58.5 -307.5zM285 1040l225 377h182l125 -377h-43l-182 271h-4l-258 -271h-45z" />
<glyph unicode="&#xe3;" d="M45 233q0 156 65.5 322t161.5 262q131 131 254 131q107 1 168 -155h15l41 153h127l-101 -364l-108 -488l61 -18l162 137l35 -37q-39 -72 -118 -139.5t-134 -67.5q-37 0 -92.5 22.5t-55.5 43.5q0 35 117 401h-18q-123 -225 -215.5 -346t-178.5 -121q-84 0 -135 73t-51 191 zM186 270q0 -180 101 -180q53 0 129 102.5t235 372.5l29 119q-43 63 -109.5 116.5t-128.5 53.5q-41 0 -82 -41q-57 -57 -115.5 -235.5t-58.5 -307.5zM225 1079q72 240 226 240q70 0 160.5 -74t121.5 -74q33 0 60.5 28t68.5 106h56q-76 -240 -228 -240q-70 0 -161 73.5 t-121 73.5q-35 0 -62 -27.5t-67 -105.5h-54z" />
<glyph unicode="&#xe4;" d="M45 233q0 156 65.5 322t161.5 262q131 131 254 131q107 1 168 -155h15l41 153h127l-101 -364l-108 -488l61 -18l162 137l35 -37q-39 -72 -118 -139.5t-134 -67.5q-37 0 -92.5 22.5t-55.5 43.5q0 35 117 401h-18q-123 -225 -215.5 -346t-178.5 -121q-84 0 -135 73t-51 191 zM186 270q0 -180 101 -180q53 0 129 102.5t235 372.5l29 119q-43 63 -109.5 116.5t-128.5 53.5q-41 0 -82 -41q-57 -57 -115.5 -235.5t-58.5 -307.5zM262 1223q0 49 32 84.5t81 35.5q51 0 81.5 -35.5t30.5 -84.5t-30.5 -85t-81.5 -36t-82 36t-31 85zM672 1223 q0 49 31.5 84.5t81 35.5t81 -35.5t31.5 -84.5t-30.5 -85t-82 -36t-82 36t-30.5 85z" />
<glyph unicode="&#xe5;" d="M45 233q0 156 65.5 322t161.5 262q131 131 254 131q107 1 168 -155h15l41 153h127l-101 -364l-108 -488l61 -18l162 137l35 -37q-39 -72 -118 -139.5t-134 -67.5q-37 0 -92.5 22.5t-55.5 43.5q0 35 117 401h-18q-123 -225 -215.5 -346t-178.5 -121q-84 0 -135 73t-51 191 zM186 270q0 -180 101 -180q53 0 129 102.5t235 372.5l29 119q-43 63 -109.5 116.5t-128.5 53.5q-41 0 -82 -41q-57 -57 -115.5 -235.5t-58.5 -307.5zM399 1239q2 78 51.5 131t131.5 53t133 -53t49 -131q0 -78 -50 -131t-132 -53t-132.5 53t-50.5 131zM461 1239 q0 -53 33.5 -91t89 -38t88.5 38t33 91q0 55 -34 93t-89.5 38t-88 -38t-32.5 -93z" />
<glyph unicode="&#xe6;" horiz-adv-x="1239" d="M45 262q0 156 58.5 307.5t154.5 247.5q131 131 254 131q70 0 119 -67.5t74 -151.5q145 217 319 217q94 0 153.5 -53t59.5 -125q0 -80 -79 -139.5t-337 -196.5q-82 -43 -129 -67q-2 -14 -2 -54q0 -111 53.5 -172t130.5 -61q74 0 246 131l29 -37q-174 -203 -330 -203 q-117 0 -194.5 91.5t-77.5 226.5q0 4 1 16t1 23q-90 -162 -180 -259.5t-150 -97.5q-84 0 -129 83t-45 210zM186 299q0 -88 23.5 -144.5t58.5 -56.5t75 35t94.5 120t85 138t95.5 174q6 10 20.5 41t18.5 39q-37 82 -102.5 145.5t-130.5 63.5q-39 0 -80 -41 q-55 -55 -106.5 -219t-51.5 -295zM694 426h4q254 137 331 200.5t77 135.5q0 37 -59.5 66.5t-106.5 29.5q-43 0 -80 -33q-45 -45 -92 -153.5t-74 -245.5z" />
<glyph unicode="&#xe7;" horiz-adv-x="763" d="M55 -502q344 47 344 195q0 96 -159 96q-53 0 -121 -10l4 35q170 157 170 159q-102 16 -167 103.5t-65 210.5q0 246 147.5 452.5t338.5 206.5q90 0 155.5 -45t65.5 -113q0 -45 -26.5 -76.5t-67.5 -31.5q-80 0 -80 76q0 35 14 55q-10 16 -65.5 35.5t-100.5 19.5 q-20 0 -61 -41q-59 -59 -117.5 -216.5t-58.5 -297.5q0 -111 53 -172t131 -61q74 0 246 131l29 -37q-154 -178 -287 -199l-103 -94q111 4 177.5 -39t66.5 -121q0 -106 -123 -178.5t-332 -87.5z" />
<glyph unicode="&#xe8;" horiz-adv-x="751" d="M61 287q0 248 146.5 453.5t329.5 205.5q96 0 155.5 -53t59.5 -129q0 -88 -88.5 -151.5t-389.5 -221.5q-44 -23 -67 -35q-2 -14 -2 -45q0 -111 53 -172t131 -61q74 0 246 131l29 -37q-174 -203 -330 -203q-117 0 -195 91.5t-78 226.5zM209 418l4 -2q244 131 323.5 199.5 t79.5 146.5q0 37 -54 66.5t-97 29.5q-55 0 -94 -39q-43 -45 -89 -154.5t-73 -246.5zM268 1417h193l141 -377h-45z" />
<glyph unicode="&#xe9;" horiz-adv-x="751" d="M61 287q0 248 146.5 453.5t329.5 205.5q96 0 155.5 -53t59.5 -129q0 -88 -88.5 -151.5t-389.5 -221.5q-44 -23 -67 -35q-2 -14 -2 -45q0 -111 53 -172t131 -61q74 0 246 131l29 -37q-174 -203 -330 -203q-117 0 -195 91.5t-78 226.5zM209 418l4 -2q244 131 323.5 199.5 t79.5 146.5q0 37 -54 66.5t-97 29.5q-55 0 -94 -39q-43 -45 -89 -154.5t-73 -246.5zM418 1040l244 377h192l-389 -377h-47z" />
<glyph unicode="&#xea;" horiz-adv-x="751" d="M61 287q0 248 146.5 453.5t329.5 205.5q96 0 155.5 -53t59.5 -129q0 -88 -88.5 -151.5t-389.5 -221.5q-44 -23 -67 -35q-2 -14 -2 -45q0 -111 53 -172t131 -61q74 0 246 131l29 -37q-174 -203 -330 -203q-117 0 -195 91.5t-78 226.5zM209 418l4 -2q244 131 323.5 199.5 t79.5 146.5q0 37 -54 66.5t-97 29.5q-55 0 -94 -39q-43 -45 -89 -154.5t-73 -246.5zM248 1040l225 377h182l125 -377h-43l-182 271h-4l-258 -271h-45z" />
<glyph unicode="&#xeb;" horiz-adv-x="751" d="M61 287q0 248 146.5 453.5t329.5 205.5q96 0 155.5 -53t59.5 -129q0 -88 -88.5 -151.5t-389.5 -221.5q-44 -23 -67 -35q-2 -14 -2 -45q0 -111 53 -172t131 -61q74 0 246 131l29 -37q-174 -203 -330 -203q-117 0 -195 91.5t-78 226.5zM209 418l4 -2q244 131 323.5 199.5 t79.5 146.5q0 37 -54 66.5t-97 29.5q-55 0 -94 -39q-43 -45 -89 -154.5t-73 -246.5zM217 1223q0 49 32 84.5t81 35.5q51 0 81.5 -35.5t30.5 -84.5t-30.5 -85t-81.5 -36t-82 36t-31 85zM627 1223q0 49 31.5 84.5t80.5 35.5t81 -35.5t32 -84.5t-30.5 -85t-82 -36t-82 36 t-30.5 85z" />
<glyph unicode="&#xec;" horiz-adv-x="522" d="M41 707q39 82 115.5 160.5t130.5 78.5q23 0 59.5 -9t65 -25.5t24.5 -30.5l-217 -787l62 -18l163 137l35 -37q-41 -72 -119.5 -139.5t-134.5 -67.5q-35 0 -89 23.5t-50 42.5l209 788l-62 11l-157 -164zM96 1417h193l141 -377h-45z" />
<glyph unicode="&#xed;" horiz-adv-x="522" d="M41 707q39 82 115.5 160.5t130.5 78.5q23 0 59.5 -9t65 -25.5t24.5 -30.5l-217 -787l62 -18l163 137l35 -37q-41 -72 -119.5 -139.5t-134.5 -67.5q-35 0 -89 23.5t-50 42.5l209 788l-62 11l-157 -164zM240 1040l243 377h193l-389 -377h-47z" />
<glyph unicode="&#xee;" horiz-adv-x="522" d="M41 707q39 82 115.5 160.5t130.5 78.5q23 0 59.5 -9t65 -25.5t24.5 -30.5l-217 -787l62 -18l163 137l35 -37q-41 -72 -119.5 -139.5t-134.5 -67.5q-35 0 -89 23.5t-50 42.5l209 788l-62 11l-157 -164zM76 1040l225 377h182l125 -377h-43l-182 271h-4l-258 -271h-45z" />
<glyph unicode="&#xef;" horiz-adv-x="522" d="M39 1223q0 49 31.5 84.5t81.5 35.5q51 0 81.5 -35.5t30.5 -84.5t-30.5 -85t-82 -36t-82 36t-30.5 85zM41 707q39 82 115.5 160.5t130.5 78.5q23 0 59.5 -9t65 -25.5t24.5 -30.5l-217 -787l62 -18l163 137l35 -37q-41 -72 -119.5 -139.5t-134.5 -67.5q-35 0 -89 23.5 t-50 42.5l209 788l-62 11l-157 -164zM449 1223q0 49 31.5 84.5t80.5 35.5t81 -35.5t32 -84.5t-31 -85t-82 -36t-81.5 36t-30.5 85z" />
<glyph unicode="&#xf0;" horiz-adv-x="894" d="M68 362q0 135 55 268.5t159.5 224.5t229.5 91q150 0 207 -145q-21 209 -148 354l-325 -100l18 84l244 75q-82 66 -207 111l43 70q156 -51 264 -150l297 92l-18 -84l-215 -67q182 -199 186 -484q0 -276 -144.5 -504.5t-342.5 -228.5q-150 0 -226.5 110.5t-76.5 282.5z M207 317q0 -115 42 -199.5t126 -84.5q70 0 131 67.5t95 144.5t54 154q27 113 27 211q0 113 -42 193t-126 80q-94 0 -168.5 -115t-109.5 -242q-29 -109 -29 -209z" />
<glyph unicode="&#xf1;" horiz-adv-x="1042" d="M35 707q39 82 115.5 160.5t130.5 78.5q35 0 91 -22.5t56 -42.5q0 -18 -129 -523h20q193 403 302 519q68 70 141 69q59 0 106 -42t47 -101q0 -92 -86 -371q-90 -301 -102 -338l61 -18l164 137l35 -37q-39 -72 -119 -139.5t-135 -67.5q-35 0 -87 22.5t-52 43.5 q0 39 106 393q80 270 80 303q0 35 -30.5 62.5t-67.5 27.5q-88 0 -375 -579l-47 -252l-149 10l69 301l109 514l-60 12l-161 -157zM256 1079q72 240 225 240q70 0 161 -74t122 -74q33 0 60.5 28t68.5 106h55q-76 -240 -227 -240q-70 0 -161 73.5t-122 73.5q-35 0 -61.5 -27.5 t-67.5 -105.5h-53z" />
<glyph unicode="&#xf2;" horiz-adv-x="894" d="M68 362q0 135 57 268.5t163.5 224.5t231.5 91q150 0 226.5 -110.5t76.5 -282.5q0 -211 -133 -397.5t-319 -186.5q-150 0 -226.5 110.5t-76.5 282.5zM207 317q0 -115 42 -199.5t126 -84.5q70 0 131 67.5t95 144.5t54 154q27 113 27 211q0 113 -42 193t-126 80 q-94 0 -169 -115t-109 -242q-29 -109 -29 -209zM303 1417h193l141 -377h-45z" />
<glyph unicode="&#xf3;" horiz-adv-x="894" d="M68 362q0 135 57 268.5t163.5 224.5t231.5 91q150 0 226.5 -110.5t76.5 -282.5q0 -211 -133 -397.5t-319 -186.5q-150 0 -226.5 110.5t-76.5 282.5zM207 317q0 -115 42 -199.5t126 -84.5q70 0 131 67.5t95 144.5t54 154q27 113 27 211q0 113 -42 193t-126 80 q-94 0 -169 -115t-109 -242q-29 -109 -29 -209zM455 1040l243 377h193l-389 -377h-47z" />
<glyph unicode="&#xf4;" horiz-adv-x="894" d="M68 362q0 135 57 268.5t163.5 224.5t231.5 91q150 0 226.5 -110.5t76.5 -282.5q0 -211 -133 -397.5t-319 -186.5q-150 0 -226.5 110.5t-76.5 282.5zM207 317q0 -115 42 -199.5t126 -84.5q70 0 131 67.5t95 144.5t54 154q27 113 27 211q0 113 -42 193t-126 80 q-94 0 -169 -115t-109 -242q-29 -109 -29 -209zM276 1040l226 377h182l125 -377h-43l-182 271h-4l-258 -271h-46z" />
<glyph unicode="&#xf5;" horiz-adv-x="894" d="M68 362q0 135 57 268.5t163.5 224.5t231.5 91q150 0 226.5 -110.5t76.5 -282.5q0 -211 -133 -397.5t-319 -186.5q-150 0 -226.5 110.5t-76.5 282.5zM207 317q0 -115 42 -199.5t126 -84.5q70 0 131 67.5t95 144.5t54 154q27 113 27 211q0 113 -42 193t-126 80 q-94 0 -169 -115t-109 -242q-29 -109 -29 -209zM225 1079q72 240 226 240q70 0 160.5 -74t121.5 -74q33 0 60.5 28t68.5 106h56q-76 -240 -228 -240q-70 0 -161 73.5t-121 73.5q-35 0 -62 -27.5t-67 -105.5h-54z" />
<glyph unicode="&#xf6;" horiz-adv-x="894" d="M68 362q0 135 57 268.5t163.5 224.5t231.5 91q150 0 226.5 -110.5t76.5 -282.5q0 -211 -133 -397.5t-319 -186.5q-150 0 -226.5 110.5t-76.5 282.5zM207 317q0 -115 42 -199.5t126 -84.5q70 0 131 67.5t95 144.5t54 154q27 113 27 211q0 113 -42 193t-126 80 q-94 0 -169 -115t-109 -242q-29 -109 -29 -209zM260 1223q0 49 32 84.5t81 35.5q51 0 81.5 -35.5t30.5 -84.5t-30.5 -85t-81.5 -36t-82 36t-31 85zM670 1223q0 49 31.5 84.5t80.5 35.5t81 -35.5t32 -84.5t-30.5 -85t-82 -36t-82 36t-30.5 85z" />
<glyph unicode="&#xf7;" horiz-adv-x="983" d="M66 430l6 100h839l7 -100h-852zM389 193q0 43 31 73.5t76 30.5t74.5 -30.5t29.5 -73.5t-29.5 -75t-74.5 -32t-76 32t-31 75zM389 766q0 43 30 74.5t75 31.5t75.5 -31.5t30.5 -74.5t-30.5 -75t-75.5 -32t-75 32t-30 75z" />
<glyph unicode="&#xf8;" horiz-adv-x="894" d="M-18 -229l176 290q-90 104 -90 301q0 135 57 268.5t163.5 224.5t231.5 91q92 0 156 -45l166 273h78q-190 -315 -193 -318q96 -104 96 -303q0 -211 -133 -397.5t-319 -186.5q-96 0 -160 47l-150 -245h-79zM207 317q0 -82 20 -145l402 649q-47 61 -115 62q-94 0 -169 -115 t-109 -242q-29 -109 -29 -209zM260 98q45 -66 114.5 -65.5t131 68t95.5 144.5t54 154q27 113 27 211q0 79 -20 140q-399 -651 -402 -652z" />
<glyph unicode="&#xf9;" horiz-adv-x="1042" d="M59 707q41 82 118 160.5t130 78.5q35 0 89.5 -22.5t54.5 -42.5q0 -39 -107 -394q-82 -262 -82 -301q0 -35 31 -63.5t67 -28.5q86 0 377 580l49 252l150 -11l-72 -301q-96 -473 -110 -520l61 -18l162 137l35 -37q-39 -72 -118 -139.5t-134 -67.5q-37 0 -90.5 22.5 t-53.5 43.5q0 27 127 522h-18q-190 -397 -303 -518q-68 -70 -148 -70q-57 0 -102 42t-45 102q0 80 86 370l100 340l-61 11l-158 -164zM336 1417h192l142 -377h-45z" />
<glyph unicode="&#xfa;" horiz-adv-x="1042" d="M59 707q41 82 118 160.5t130 78.5q35 0 89.5 -22.5t54.5 -42.5q0 -39 -107 -394q-82 -262 -82 -301q0 -35 31 -63.5t67 -28.5q86 0 377 580l49 252l150 -11l-72 -301q-96 -473 -110 -520l61 -18l162 137l35 -37q-39 -72 -118 -139.5t-134 -67.5q-37 0 -90.5 22.5 t-53.5 43.5q0 27 127 522h-18q-190 -397 -303 -518q-68 -70 -148 -70q-57 0 -102 42t-45 102q0 80 86 370l100 340l-61 11l-158 -164zM508 1040l244 377h192l-389 -377h-47z" />
<glyph unicode="&#xfb;" horiz-adv-x="1042" d="M59 707q41 82 118 160.5t130 78.5q35 0 89.5 -22.5t54.5 -42.5q0 -39 -107 -394q-82 -262 -82 -301q0 -35 31 -63.5t67 -28.5q86 0 377 580l49 252l150 -11l-72 -301q-96 -473 -110 -520l61 -18l162 137l35 -37q-39 -72 -118 -139.5t-134 -67.5q-37 0 -90.5 22.5 t-53.5 43.5q0 27 127 522h-18q-190 -397 -303 -518q-68 -70 -148 -70q-57 0 -102 42t-45 102q0 80 86 370l100 340l-61 11l-158 -164zM336 1040l225 377h182l125 -377h-43l-182 271h-4l-258 -271h-45z" />
<glyph unicode="&#xfc;" horiz-adv-x="1042" d="M59 707q41 82 118 160.5t130 78.5q35 0 89.5 -22.5t54.5 -42.5q0 -39 -107 -394q-82 -262 -82 -301q0 -35 31 -63.5t67 -28.5q86 0 377 580l49 252l150 -11l-72 -301q-96 -473 -110 -520l61 -18l162 137l35 -37q-39 -72 -118 -139.5t-134 -67.5q-37 0 -90.5 22.5 t-53.5 43.5q0 27 127 522h-18q-190 -397 -303 -518q-68 -70 -148 -70q-57 0 -102 42t-45 102q0 80 86 370l100 340l-61 11l-158 -164zM319 1223q0 49 32 84.5t81 35.5q51 0 82 -35.5t31 -84.5t-31 -85t-82 -36t-82 36t-31 85zM729 1223q0 49 32 84.5t81 35.5t80.5 -35.5 t31.5 -84.5t-30.5 -85t-81.5 -36t-82 36t-31 85z" />
<glyph unicode="&#xfd;" horiz-adv-x="878" d="M-227 -393q0 43 30.5 72.5t67.5 29.5q47 0 83 -37t32 -88l55 -4l281 404l-80 22l6 811l-60 12l-157 -163l-35 36q41 82 115.5 163t128.5 81q37 0 92 -24.5t55 -47.5l-16 -776h20l354 592l7 33q-102 37 -103 113q0 47 30 80.5t75 33.5q57 0 92 -36t35 -95 q0 -102 -185 -364l-237 -355l-121 -215q-115 -219 -206 -314t-200 -95q-63 0 -111 36.5t-48 94.5zM426 1040l244 377h192l-389 -377h-47z" />
<glyph unicode="&#xfe;" horiz-adv-x="911" d="M-217 -504l4 70l129 20q37 2 43 37l344 1585q10 35 -14 41l-142 45l7 52l333 81l-112 -477l-127 -504h16q131 250 224.5 375t177.5 127q80 0 131 -85t51 -204q0 -154 -60.5 -308t-154.5 -249q-139 -135 -275 -135q-98 0 -174 76h-4l-84 -420q-4 -35 29 -37l154 -20l6 -70 h-502zM211 178q125 -139 213 -139q43 0 86 43q72 72 133.5 240t61.5 301q0 86 -26 143t-73 59q-49 0 -128 -109.5t-232 -383.5z" />
<glyph unicode="&#xff;" horiz-adv-x="878" d="M-227 -393q0 43 30.5 72.5t67.5 29.5q47 0 83 -37t32 -88l55 -4l281 404l-80 22l6 811l-60 12l-157 -163l-35 36q41 82 115.5 163t128.5 81q37 0 92 -24.5t55 -47.5l-16 -776h20l354 592l7 33q-102 37 -103 113q0 47 30 80.5t75 33.5q57 0 92 -36t35 -95 q0 -102 -185 -364l-237 -355l-121 -215q-115 -219 -206 -314t-200 -95q-63 0 -111 36.5t-48 94.5zM238 1223q0 49 31.5 84.5t80.5 35.5q51 0 82 -35.5t31 -84.5t-31 -85t-82 -36t-81.5 36t-30.5 85zM647 1223q0 49 32 84.5t81 35.5t80.5 -35.5t31.5 -84.5t-30.5 -85 t-81.5 -36t-82 36t-31 85z" />
<glyph unicode="&#x152;" horiz-adv-x="1839" d="M102 563q0 295 201 496q104 104 262 162.5t344 58.5h928l-63 -371h-74l-19 207q-6 51 -39 66q-53 23 -385 22h-69l-70 -514h70q125 0 167 10.5t60 38.5l49 127h70l-100 -426h-68l8 131q2 18 -9 26.5t-55 13.5t-136 5h-66l-72 -540h47q225 0 317.5 7t124 22.5t50.5 58.5 l82 198h98l-86 -362h-958q-279 0 -444 153.5t-165 409.5zM287 557q0 -223 119.5 -352t343.5 -129h116l146 1100l-150 28q-252 -10 -413.5 -180t-161.5 -467z" />
<glyph unicode="&#x153;" horiz-adv-x="1339" d="M68 362q0 213 130 398.5t322 185.5q209 0 268 -217q63 100 150.5 158.5t183.5 58.5q94 0 154.5 -53t60.5 -125q0 -80 -75.5 -137.5t-343.5 -198.5q-27 -14 -42.5 -22.5t-40 -20.5t-44.5 -24v-54q0 -111 53 -172t129 -61t248 131l28 -37q-178 -203 -329 -203 q-88 0 -149.5 48.5t-86.5 129.5q-129 -178 -313 -178q-152 0 -227.5 109.5t-75.5 283.5zM207 317q0 -115 42 -199.5t126 -84.5q70 0 131 67.5t95 144.5t54 154q27 113 27 211q0 113 -42 193t-126 80q-94 0 -169 -115t-109 -242q-29 -109 -29 -209zM795 426h4 q254 137 330.5 200.5t76.5 135.5q0 37 -59.5 66.5t-108.5 29.5q-43 0 -80 -33q-43 -45 -90 -154.5t-73 -244.5z" />
<glyph unicode="&#x178;" horiz-adv-x="1210" d="M76 1280h499l-8 -70l-102 -12q-25 -2 -34 -16.5t-3 -39t25 -63.5l209 -450h8l331 485q39 66 -28 80l-107 16l-6 70h467l-6 -70l-82 -14q-47 -10 -79 -31.5t-66 -72.5l-381 -543l-56 -422q-6 -31 31 -37l152 -20l6 -70h-567l6 70l161 20q33 2 41 37l54 420l-269 545 q-23 47 -43 67.5t-55 30.5l-92 20zM430 1575q0 49 32 85t81 36q51 0 81.5 -36t30.5 -85t-30.5 -85t-81.5 -36t-82 36t-31 85zM840 1575q0 49 31.5 85t80.5 36t81 -36t32 -85t-30.5 -85t-82 -36t-82 36t-30.5 85z" />
<glyph unicode="&#x2c6;" horiz-adv-x="819" d="M205 1040l225 377h182l125 -377h-43l-182 271h-4l-258 -271h-45z" />
<glyph unicode="&#x2dc;" horiz-adv-x="819" d="M145 1079q72 240 226 240q70 0 161 -74t121 -74q33 0 60.5 28t68.5 106h56q-76 -240 -228 -240q-70 0 -161 73.5t-121 73.5q-35 0 -61.5 -27.5t-67.5 -105.5h-54z" />
<glyph unicode="&#x2000;" horiz-adv-x="884" />
<glyph unicode="&#x2001;" horiz-adv-x="1769" />
<glyph unicode="&#x2002;" horiz-adv-x="884" />
<glyph unicode="&#x2003;" horiz-adv-x="1769" />
<glyph unicode="&#x2004;" horiz-adv-x="589" />
<glyph unicode="&#x2005;" horiz-adv-x="442" />
<glyph unicode="&#x2006;" horiz-adv-x="294" />
<glyph unicode="&#x2007;" horiz-adv-x="294" />
<glyph unicode="&#x2008;" horiz-adv-x="221" />
<glyph unicode="&#x2009;" horiz-adv-x="353" />
<glyph unicode="&#x200a;" horiz-adv-x="98" />
<glyph unicode="&#x2010;" horiz-adv-x="671" d="M51 428l6 104h525l6 -104h-537z" />
<glyph unicode="&#x2011;" horiz-adv-x="671" d="M51 428l6 104h525l6 -104h-537z" />
<glyph unicode="&#x2012;" horiz-adv-x="671" d="M51 428l6 104h525l6 -104h-537z" />
<glyph unicode="&#x2013;" horiz-adv-x="962" d="M55 424l6 100h848l6 -100h-860z" />
<glyph unicode="&#x2014;" horiz-adv-x="1921" d="M55 424l6 100h1805l8 -100h-1819z" />
<glyph unicode="&#x2018;" horiz-adv-x="462" d="M129 954q4 125 118.5 235.5t284.5 184.5l29 -39q-96 -51 -169 -131t-77 -160q-2 -45 27 -82.5t55 -56.5l29 -20q-10 -45 -47 -74t-90 -29q-72 0 -118 50.5t-42 121.5z" />
<glyph unicode="&#x2019;" horiz-adv-x="462" d="M96 813q201 121 209 264q2 31 -11 59.5t-32.5 47t-39 32t-34.5 21.5l-14 6q2 45 40 76t91 31q70 0 120 -54.5t48 -132.5q-6 -203 -336 -387z" />
<glyph unicode="&#x201a;" horiz-adv-x="462" d="M-55 -307q201 121 209 264q2 31 -11.5 59.5t-33 47t-39 32t-33.5 19.5l-14 8q2 45 39.5 75.5t91.5 30.5q70 0 120 -54t48 -132q-6 -203 -336 -387z" />
<glyph unicode="&#x201c;" horiz-adv-x="868" d="M127 969q6 197 334 387l43 -37q-201 -121 -209 -266q-2 -31 11 -58.5t32.5 -46t39 -33t34.5 -22.5l14 -6q-2 -43 -40 -74t-91 -31q-70 0 -120 54.5t-48 132.5zM553 969q6 197 334 387l43 -37q-201 -121 -209 -266q-2 -31 11 -58.5t32.5 -46t39 -33t34.5 -22.5l14 -6 q-2 -43 -40 -74t-91 -31q-70 0 -120 54.5t-48 132.5z" />
<glyph unicode="&#x201d;" horiz-adv-x="868" d="M106 813q201 123 207 264q2 31 -11 59.5t-31.5 47t-38 32t-33.5 21.5l-15 6q2 45 40 76t91 31q70 0 120 -54.5t48 -132.5q-6 -203 -336 -387zM532 813q201 121 209 264q2 31 -11 59.5t-32.5 47t-39 32t-33.5 21.5l-15 6q2 45 40 76t91 31q70 0 120 -54.5t48 -132.5 q-6 -203 -336 -387z" />
<glyph unicode="&#x201e;" horiz-adv-x="868" d="M-45 -307q201 123 207 264q2 31 -11.5 59.5t-32 47t-38 32t-33.5 19.5l-14 8q2 45 40 75.5t91 30.5q70 0 120 -54t48 -132q-6 -203 -336 -387zM381 -307q201 121 209 264q2 31 -11.5 59.5t-33 47t-39 32t-33.5 19.5l-14 8q2 45 40 75.5t91 30.5q70 0 120 -54t48 -132 q-6 -203 -336 -387z" />
<glyph unicode="&#x2022;" horiz-adv-x="931" d="M72 475q0 45 43 146.5t73.5 132t133 72.5t145.5 42q45 0 146.5 -42t132 -72.5t72.5 -132t42 -146.5t-41 -146.5t-74 -133.5q-31 -31 -133 -73t-147 -42q-43 0 -145.5 42t-131.5 73q-31 33 -73.5 135t-42.5 145z" />
<glyph unicode="&#x2026;" horiz-adv-x="1392" d="M61 96q0 51 36 87t91.5 36t91 -37t33.5 -86q0 -51 -35.5 -89t-89.5 -38q-55 0 -92 38t-35 89zM524 96q0 51 37 87t92 36q53 0 89 -36t36 -87t-35.5 -89t-91.5 -38q-53 0 -90 38t-37 89zM989 96q0 51 37 87t90 36q55 0 91 -36t34 -87q0 -51 -36 -89t-89 -38q-55 0 -92 38 t-35 89z" />
<glyph unicode="&#x202f;" horiz-adv-x="353" />
<glyph unicode="&#x2039;" horiz-adv-x="620" d="M63 414l3 82l491 321l14 -43l-366 -323l282 -312l-24 -39z" />
<glyph unicode="&#x203a;" horiz-adv-x="620" d="M47 137l344 318l-260 317l25 39l399 -315l-12 -86l-482 -316z" />
<glyph unicode="&#x205f;" horiz-adv-x="442" />
<glyph unicode="&#x20ac;" horiz-adv-x="1028" d="M20 434l7 80h125v16q4 92 14 160h-123l6 80h133q61 229 221 373.5t367 144.5q133 0 218 -49t85 -127q0 -45 -24.5 -75.5t-69.5 -30.5q-51 0 -82 48t-31 111q-53 43 -151 43q-145 0 -245.5 -116.5t-135.5 -321.5h420l6 -80h-436q-10 -61 -11 -155v-21h416l8 -80h-418 q18 -160 103.5 -259t220.5 -99q152 0 297 137l29 -45q-68 -90 -167.5 -144.5t-209.5 -54.5q-188 0 -300 132t-134 333h-138z" />
<glyph unicode="&#x2122;" horiz-adv-x="1865" d="M102 1012l17 268h672v-268h-60l-14 71q-27 90 -60.5 115t-146.5 25h-6v-615q0 -20 18 -22l105 -13l2 -55h-371l4 55l105 13q20 2 20 22v615h-10q-98 0 -135 -27t-66 -113l-18 -71h-56zM879 518l4 55l80 11q12 2 18 11t10 42t6 98l15 453q0 23 -19 24l-86 13l-4 55h289 l156 -586h18l199 586h288l-4 -55l-84 -13q-23 -2 -22 -24l12 -510q2 -86 31 -92l80 -13l4 -55h-336l4 55l78 13q14 2 17 19.5t3 72.5l-12 520h-20l-228 -655h-92l-186 659h-21l-16 -467q-2 -96 0 -120.5t18 -30.5l82 -11l2 -55h-284z" />
<glyph unicode="&#x25fc;" horiz-adv-x="952" d="M0 0v952h952v-952h-952z" />
</font>
</defs>
</svg>
