<?xml version="1.0" standalone="no"?>
<!DOCTYPE svg PUBLIC "-//W3C//DTD SVG 1.1//EN" "http://www.w3.org/Graphics/SVG/1.1/DTD/svg11.dtd" >
<svg xmlns="http://www.w3.org/2000/svg" xmlns:xlink="http://www.w3.org/1999/xlink" version="1.1">
<metadata></metadata>
<defs>
<font id="freighttextprfreighttextproMd" horiz-adv-x="819" >
<font-face units-per-em="2048" ascent="1491" descent="-557" />
<missing-glyph horiz-adv-x="466" />
<glyph unicode="&#xfb01;" horiz-adv-x="1153" d="M25 819l12 99h145l2 43q10 213 139.5 339.5t333.5 126.5q72 0 137.5 -38.5t65.5 -108.5q0 -45 -28.5 -73.5t-71.5 -28.5q-104 0 -135 125l-2 8l-117 24q-145 -82 -146 -342v-75h336l262 26v-829q0 -33 78 -37l60 -6l6 -72h-445l7 72l57 6q70 6 70 39v698h-431v-700 q0 -33 78 -37l111 -6l6 -72h-496l7 72l57 6q70 6 70 39v692z" />
<glyph unicode="&#xfb02;" horiz-adv-x="1153" d="M25 819l12 99h145l2 43q10 213 139.5 339.5t333.5 126.5q84 0 144 -45l157 45v-1312q0 -33 78 -37l60 -6l6 -72h-445l7 72l57 6q70 6 70 39v698h-431v-700q0 -33 78 -37l111 -6l6 -72h-496l7 72l57 6q70 6 70 39v692zM360 918h431v264q-20 -4 -31 -4q-104 0 -135 125 l-2 8l-117 24q-145 -82 -146 -342v-75z" />
<glyph unicode="&#xfb03;" horiz-adv-x="1751" d="M25 819l12 99h145l2 22q20 209 144.5 338t289.5 129q78 0 132.5 -37t54.5 -92q0 -49 -27.5 -74.5t-70.5 -25.5q-45 0 -83 34.5t-55 100.5l-2 8l-59 4q-147 -84 -148 -352v-55h420l2 43q10 213 139.5 339.5t333.5 126.5q72 0 137.5 -38.5t65.5 -108.5q0 -45 -28.5 -73.5 t-71.5 -28.5q-104 0 -135 125l-2 8l-117 24q-145 -82 -146 -342v-75h336l262 26v-829q0 -33 78 -37l60 -6l6 -72h-445l7 72l57 6q70 6 70 39v698h-431v-700q0 -33 78 -37l111 -6l6 -72h-496l7 72l57 6q70 10 70 39v702h-431v-676q0 -43 48 -49l151 -22l6 -72h-506l7 72 l79 22q47 8 48 49v666z" />
<glyph unicode="&#xfb04;" horiz-adv-x="1751" d="M25 819l12 99h145l2 22q20 209 144.5 338t289.5 129q78 0 132.5 -37t54.5 -92q0 -49 -27.5 -74.5t-70.5 -25.5q-45 0 -83 34.5t-55 100.5l-2 8l-59 4q-147 -84 -148 -352v-55h420l2 43q10 213 139.5 339.5t333.5 126.5q84 0 144 -45l157 45v-1312q0 -33 78 -37l60 -6 l6 -72h-445l7 72l57 6q70 6 70 39v698h-431v-700q0 -33 78 -37l111 -6l6 -72h-496l7 72l57 6q70 10 70 39v702h-431v-676q0 -43 48 -49l151 -22l6 -72h-506l7 72l79 22q47 8 48 49v666zM958 918h431v264q-20 -4 -31 -4q-104 0 -135 125l-2 8l-117 24q-145 -82 -146 -342v-75 z" />
<glyph horiz-adv-x="0" />
<glyph unicode="&#xd;" horiz-adv-x="681" />
<glyph unicode=" "  horiz-adv-x="466" />
<glyph unicode="&#x09;" horiz-adv-x="466" />
<glyph unicode="&#xa0;" horiz-adv-x="466" />
<glyph unicode="!" horiz-adv-x="581" d="M168 92q0 49 36 84t89 35t87 -35t34 -84q0 -51 -34 -87t-87 -36t-89 37t-36 86zM186 1221q-4 43 17.5 65.5t87.5 22.5h4q66 0 87 -22.5t17 -65.5l-86 -820q-2 -12 -20.5 -12t-20.5 12z" />
<glyph unicode="&#x22;" horiz-adv-x="757" d="M27 825l219 498h4l164 -57l-310 -441h-77zM360 825l220 498h2l163 -57l-309 -441h-76z" />
<glyph unicode="#" horiz-adv-x="1159" d="M0 369v77h283l102 381h-262v78h283l106 387h80l-105 -387h349l104 387h80l-105 -387h265v-78h-285l-102 -381h264v-77h-285l-102 -381h-80l102 381h-350l-102 -381h-80l102 381h-262zM362 446h351l102 381h-348z" />
<glyph unicode="$" horiz-adv-x="1044" d="M109 395h75l92 -280q14 -8 52 -21l135 500q-76 31 -124 56.5t-100.5 68.5t-78 102.5t-25.5 136.5q0 141 105.5 245t312.5 106q72 0 100 -2l56 204h79l-57 -213l62 -12l106 29v-408h-80l-59 254q-33 14 -60 23l-116 -434q76 -31 112.5 -47.5t99 -53.5t92.5 -73.5t54.5 -95 t24.5 -130.5q0 -152 -129 -265.5t-344 -115.5q-60 0 -119 6l-84 -315h-80l88 326q-72 12 -162 45zM297 1022q0 -92 55.5 -146.5t159.5 -97.5q8 27 19.5 71t37 138t41.5 156l17 61q-66 14 -105 15q-109 0 -167 -57.5t-58 -139.5zM401 72q76 -16 131 -15q125 2 197 70t72 158 q0 59 -19.5 104t-61.5 78t-80.5 52t-104.5 46q-133 -492 -134 -493z" />
<glyph unicode="%" horiz-adv-x="1527" d="M35 987q0 143 93 242.5t246.5 99.5t247 -98.5t93.5 -243.5q0 -141 -93.5 -239.5t-246.5 -98.5q-152 0 -246 98.5t-94 239.5zM135 987q0 -100 65.5 -173t174 -73t174 73t65.5 173q0 106 -65.5 178t-174 72t-174 -71.5t-65.5 -178.5zM190 -31l1039 1340h110l-1038 -1340 h-111zM813 291q0 141 93 239.5t247 98.5q152 0 246 -98.5t94 -239.5q0 -143 -93 -242.5t-247 -99.5t-247 98t-93 244zM913 291q0 -106 65.5 -178t174.5 -72t174.5 72t65.5 178q0 100 -65.5 173t-174.5 73t-174.5 -73t-65.5 -173z" />
<glyph unicode="&#x26;" horiz-adv-x="1423" d="M49 303q0 123 80 223.5t211 155.5q-94 43 -144.5 117.5t-50.5 169.5q0 141 112 240.5t275 99.5q152 0 244 -81t92 -188q0 -215 -260 -327q211 -100 316 -279q119 162 120 211q2 23 -13 35t-46 16l-41 6l-4 70h444l-8 -70l-43 -10q-139 -35 -219 -141l-145 -193 q70 -145 124 -198.5t136 -53.5q61 0 164 60l32 -55q-137 -143 -274 -144q-109 0 -174.5 59.5t-126.5 184.5q-80 -102 -194.5 -172t-239.5 -70q-170 0 -268.5 98.5t-98.5 235.5zM217 369q-2 -106 84 -183t203 -77q176 0 307 186q-63 133 -158.5 206.5t-251.5 139.5 q-182 -115 -184 -272zM297 1030q0 -98 58.5 -164.5t183.5 -117.5q159 80 159 264q0 84 -51 148.5t-141 64.5q-94 0 -151.5 -55.5t-57.5 -139.5z" />
<glyph unicode="'" horiz-adv-x="425" d="M27 825l221 498h2l164 -57l-310 -441h-77z" />
<glyph unicode="(" horiz-adv-x="808" d="M188 428q0 178 53.5 342t138.5 280.5t175 199.5t178 126l53 -71q-182 -98 -336.5 -337t-154.5 -540t154.5 -539.5t336.5 -334.5l-53 -74q-88 43 -178 126t-175 199.5t-138.5 280.5t-53.5 342z" />
<glyph unicode=")" horiz-adv-x="808" d="M23 -449q182 98 336.5 337t154.5 540t-154.5 539.5t-336.5 337.5l55 71q88 -43 177 -125t174 -199.5t138.5 -281.5t53.5 -342t-53.5 -342t-138.5 -281.5t-174 -199.5t-177 -125z" />
<glyph unicode="*" horiz-adv-x="714" d="M66 1161l26 37l131 -18l107 -166l32 10l-4 199l88 86l46 -15l22 -125l-127 -155l21 -27l188 68l109 -62v-45l-109 -61l-188 69l-21 -26l123 -156l-23 -125l-43 -12l-92 88l8 199l-30 8l-107 -160l-127 -20l-28 36l57 119l186 49v37l-186 54z" />
<glyph unicode="+" horiz-adv-x="983" d="M63 426l7 109h368v376h109v-376h366l7 -109h-373v-379h-109v379h-375z" />
<glyph unicode="," horiz-adv-x="475" d="M70 -328q70 51 123 123t53 146q0 35 -16.5 64.5t-40 48t-48 31.5t-41 20.5t-16.5 9.5q0 53 39 89t104 36q70 0 129.5 -56.5t59.5 -136.5q0 -117 -81 -213t-212 -194z" />
<glyph unicode="-" horiz-adv-x="671" d="M68 426l6 109h528l6 -109h-540z" />
<glyph unicode="." horiz-adv-x="479" d="M102 106.5q0 55.5 40 94.5t99.5 39t97.5 -39t38 -94.5t-39 -96.5t-96 -41q-59 0 -99.5 41t-40.5 96.5z" />
<glyph unicode="/" horiz-adv-x="571" d="M14 -434l441 1796h98l-440 -1796h-99z" />
<glyph unicode="0" horiz-adv-x="1142" d="M76 477.5q0 227.5 139 369.5t358.5 142t356.5 -140t137 -367.5t-139.5 -370t-358.5 -142.5t-356 140.5t-137 368zM205 481q0 -170 103.5 -278.5t265 -108.5t263 106.5t101.5 276.5t-103.5 278.5t-265 108.5t-263 -106.5t-101.5 -276.5z" />
<glyph unicode="1" horiz-adv-x="776" d="M90 854l6 61l385 66v-840q0 -39 47 -47l140 -22l6 -72h-543l6 72l131 22q47 14 47 47v695z" />
<glyph unicode="2" horiz-adv-x="958" d="M63 119q297 221 386 313q119 123 118 215q0 86 -58 140.5t-157 54.5q-63 0 -122.5 -40t-96.5 -91l-41 22q43 121 140.5 188.5t222.5 67.5t215 -76.5t90 -193.5q0 -143 -156 -283q-82 -74 -387 -286v-11h90q293 0 375 18.5t119 92.5l39 80h67l-22 -330h-811z" />
<glyph unicode="3" horiz-adv-x="866" d="M23 -262q0 43 29.5 71.5t70.5 28.5q57 0 103 -47t57 -108q18 -4 53 -5q109 0 195.5 82t86.5 211t-74.5 207t-193.5 78q-86 0 -164 -35l-22 55q18 12 90 57.5t102.5 68t78.5 64.5t68.5 84t20.5 87q0 86 -57 145.5t-150 59.5q-133 0 -227 -131q-18 4 -41 22 q43 121 145.5 188.5t235.5 67.5q129 0 211 -74.5t82 -185.5q0 -98 -63.5 -181t-206.5 -165v-4q152 -4 250 -88t98 -228q0 -186 -160 -330.5t-367 -144.5q-109 0 -180 44t-71 106z" />
<glyph unicode="4" horiz-adv-x="980" d="M10 111l666 868h76v-799h235l-14 -139h-221v-418h-166v418h-570zM152 180h434v557h-6z" />
<glyph unicode="5" horiz-adv-x="870" d="M20 -270q0 43 30 71.5t71 28.5q57 0 102 -44t56 -103q18 -4 53 -5q125 0 207 84t82 211q0 268 -525 408l148 577h555l-6 -170h-496l-70 -268q545 -150 545 -469q0 -190 -150.5 -326.5t-351.5 -136.5q-109 0 -179.5 40t-70.5 102z" />
<glyph unicode="6" horiz-adv-x="1046" d="M80 469q0 229 127 426t329.5 311.5t430.5 128.5l6 -65q-279 -37 -449 -198t-233 -392l2 -2q133 119 295 119q170 0 270 -111.5t100 -277.5q0 -201 -128 -324t-322 -123q-201 0 -314.5 150.5t-113.5 357.5zM264 469q0 -168 80 -295t211 -127q109 0 170 89t61 214 q0 145 -77.5 241.5t-194.5 96.5q-133 0 -231 -98q-18 -18 -19 -121z" />
<glyph unicode="7" horiz-adv-x="956" d="M51 629l41 329h811l10 -94l-639 -1241h-112l614 1170v10h-307q-231 0 -260 -12q-18 -8 -33 -39l-57 -123h-68z" />
<glyph unicode="8" horiz-adv-x="1019" d="M82 303q0 113 77 198t203 134v2q-117 63 -181 138t-64 188q0 131 108.5 239.5t294.5 108.5q152 0 258.5 -92.5t106.5 -233.5q0 -190 -242 -297v-2q141 -72 218 -151.5t77 -210.5q0 -150 -123 -252.5t-326 -102.5q-168 0 -287.5 94.5t-119.5 239.5zM248 303 q0 -113 81 -189.5t203 -76.5q117 0 185.5 62.5t68.5 154.5q0 31 -6 58.5t-21.5 53t-27.5 45t-42 42t-44 34t-55 34t-54.5 29.5t-61.5 29.5t-58 28.5q-168 -129 -168 -305zM270 1034q0 -47 19.5 -89t42 -69.5t75 -61.5t81 -49t96.5 -48q137 94 137 268q0 100 -66.5 182 t-173.5 82q-94 0 -152.5 -63.5t-58.5 -151.5z" />
<glyph unicode="9" horiz-adv-x="1046" d="M72 -309q279 37 448.5 197.5t233.5 392.5l-2 2q-133 -119 -295 -119q-170 0 -270.5 111.5t-100.5 277.5q0 201 128 323.5t323 122.5q201 0 314.5 -150t113.5 -357q0 -229 -127 -426t-330 -311.5t-430 -129.5zM258 610q0 -145 78 -241.5t194 -96.5q133 0 232 99 q18 19 18 121q0 168 -79.5 294.5t-211.5 126.5q-109 0 -170 -89t-61 -214z" />
<glyph unicode=":" horiz-adv-x="475" d="M102 106.5q0 55.5 40 94.5t99.5 39t97.5 -39t38 -94.5t-39 -96.5t-96 -41q-59 0 -99.5 41t-40.5 96.5zM102 733q0 55 40 94t99.5 39t97.5 -39t38 -94t-39 -96t-96 -41q-59 0 -99.5 41t-40.5 96z" />
<glyph unicode=";" horiz-adv-x="475" d="M70 -328q70 51 123 123t53 146q0 35 -16.5 64.5t-40 48t-48 31.5t-41 20.5t-16.5 9.5q0 53 39 89t104 36q70 0 129.5 -56.5t59.5 -136.5q0 -117 -81 -213t-212 -194zM102 733q0 55 40 94t99.5 39t97.5 -39t38 -94t-39 -96t-96 -41q-59 0 -99.5 41t-40.5 96z" />
<glyph unicode="&#x3c;" horiz-adv-x="983" d="M57 455v53l824 387l26 -100l-663 -310v-6l663 -311l-26 -100z" />
<glyph unicode="=" horiz-adv-x="983" d="M84 248l6 108h803l6 -108h-815zM84 713h815l-6 -109h-803z" />
<glyph unicode="&#x3e;" horiz-adv-x="983" d="M76 168l663 311v6l-663 310l26 100l824 -387v-53l-824 -387z" />
<glyph unicode="?" horiz-adv-x="743" d="M104 1194q0 49 45.5 82t118.5 33q162 0 280 -105.5t118 -240.5q0 -117 -51.5 -169.5t-170.5 -99.5q-115 -45 -143 -76q-27 -29 -27 -69q0 -74 95 -168h-62q-139 115 -139 229q0 96 56.5 143.5t178.5 96.5q66 27 91.5 38t55.5 37.5t30 57.5q0 68 -90.5 113t-225.5 45 q-55 0 -137 -15q-23 29 -23 68zM193 92q0 49 35.5 84t89 35t87 -35t33.5 -84q0 -51 -33.5 -87t-87 -36t-89 37t-35.5 86z" />
<glyph unicode="@" horiz-adv-x="1708" d="M121 555q20 322 261 542t562 210q326 -10 536 -217t189 -515q-16 -231 -150.5 -364t-304.5 -133q-86 0 -137 19.5t-65.5 53t-14 61t10.5 60.5l55 234h-29q-211 -401 -348 -402q-82 0 -146.5 62.5t-64.5 128.5q0 121 71.5 294t162.5 263q106 106 221 106q66 0 118 -38.5 t72 -110.5h23l45 121h108l-118 -334l-37 -334q-20 -106 106 -106q131 0 224.5 116.5t107.5 307.5q20 272 -165 454.5t-474 192.5q-283 8 -497 -190.5t-232 -483.5q-20 -315 171 -522t476 -207q117 0 252 39l23 -74q-141 -47 -279 -47q-322 0 -539 230.5t-194 582.5zM637 326 q0 -53 35 -83t69 -30q37 0 124 126t175 284q33 59 33 100q-20 43 -80.5 89t-122.5 46q-49 0 -73 -24q-53 -53 -106.5 -224.5t-53.5 -283.5z" />
<glyph unicode="A" horiz-adv-x="1228" d="M-33 0l6 72l58 14q47 10 74.5 39t63.5 108.5t101 264.5l238 665v74l184 86l387 -1180q14 -41 66 -49l110 -22l7 -72h-557l6 72l100 16q29 6 42 14.5t13 35t-9 59t-32 104.5l-51 160h-422l-49 -158q-31 -82 -40 -123q-4 -20 -4.5 -36t4.5 -28q9 -22 44 -28l82 -16l6 -72 h-428zM381 547h367l-170 551h-13z" />
<glyph unicode="B" horiz-adv-x="1191" d="M84 0l6 72l84 10q72 8 72 37v1046q0 14 -13.5 20.5t-58.5 12.5l-84 10l-6 72h537q240 0 345 -78t105 -205q0 -123 -89 -214t-232 -113v-11q190 -16 282 -104t92 -209q0 -166 -137 -256t-377 -90h-526zM440 109l142 -31l49 2q117 4 200.5 69.5t83.5 180.5 q0 139 -102 212.5t-272 73.5h-101v-507zM440 696l138 2q143 2 211.5 76t68.5 168q0 121 -76.5 190.5t-232.5 69.5h-109v-506z" />
<glyph unicode="C" horiz-adv-x="1396" d="M94 627q0 313 205 497.5t516 184.5q160 0 283 -41l164 30v-419h-95l-55 262q-137 82 -307 82q-219 0 -356.5 -161t-137.5 -409q0 -272 137.5 -437t382.5 -165q141 0 252 62l88 282h99l-45 -395l-105 18q-139 -49 -311 -49q-311 0 -513 175t-202 483z" />
<glyph unicode="D" horiz-adv-x="1406" d="M84 0l6 72l84 10q72 8 72 37v1046q0 14 -13.5 20.5t-58.5 12.5l-84 10l-6 72l469 6h15q330 0 536 -170q211 -174 211 -444q0 -289 -201 -480.5t-569 -191.5h-461zM440 111l148 -31q242 0 379 151t137 387q0 266 -156.5 425t-445.5 159h-62v-1091z" />
<glyph unicode="E" horiz-adv-x="1216" d="M84 0l6 72l84 10q72 8 72 37v1046q0 14 -13.5 20.5t-58.5 12.5l-84 10l-6 72h1006v-381h-99l-49 199q-14 51 -43 69.5t-105.5 25.5t-279.5 7h-74v-510h56q121 0 155.5 7.5t44.5 37.5l47 137h80l-43 -440h-78l-16 131q-4 31 -37 40t-160 9h-49v-532h58q213 0 301 8 t118.5 26.5t49.5 67.5l49 189h110l-39 -371h-1003z" />
<glyph unicode="F" horiz-adv-x="1155" d="M84 0l6 72l84 10q72 8 72 37v1046q0 14 -13.5 20.5t-58.5 12.5l-84 10l-6 72h983v-381h-98l-45 199q-10 33 -21.5 48t-32 28.5t-73 17.5t-116 6t-189.5 2h-52v-522h78q121 0 156 7t47 38l47 137h80l-45 -440h-76l-16 131q-4 31 -38 40t-159 9h-74v-485q0 -25 72 -33 l125 -10l6 -72h-559z" />
<glyph unicode="G" horiz-adv-x="1466" d="M94 627q0 313 215 497.5t527 184.5q160 0 278 -41l164 30v-419h-96l-56 262q-129 82 -307 82q-217 0 -362.5 -162t-145.5 -408q0 -272 133.5 -437t370.5 -165q139 0 250 51v351q0 14 -14.5 21t-57.5 11l-104 11l-6 71h538l-6 -71l-88 -11q-72 -8 -72 -36v-308l123 -12 l4 -55q-295 -104 -573 -105q-311 0 -513 176.5t-202 481.5z" />
<glyph unicode="H" horiz-adv-x="1509" d="M84 0l6 72l84 10q72 8 72 37v1046q0 14 -13.5 20.5t-58.5 12.5l-84 10l-6 72h518l-6 -72l-84 -10q-72 -8 -72 -37v-463h629v467q0 14 -14.5 21.5t-57.5 11.5l-84 10l-6 72h518l-6 -72l-84 -10q-72 -8 -71 -37v-1046q0 -14 13 -20.5t58 -12.5l84 -10l6 -72h-518l6 72 l84 10q72 8 72 37v493h-629v-497q0 -25 72 -33l84 -10l6 -72h-518z" />
<glyph unicode="I" horiz-adv-x="737" d="M90 0l6 72l105 10q72 8 71 37v1046q0 14 -13 20.5t-58 12.5l-105 10l-6 72h559l-6 -72l-104 -10q-72 -8 -72 -37v-1046q0 -25 72 -33l104 -10l6 -72h-559z" />
<glyph unicode="J" horiz-adv-x="831" d="M12 100q0 43 28 69t75 26q53 0 100 -43q35 -35 57 -111h2q49 16 76 49t44.5 130t17.5 276v669q0 14 -14.5 21.5t-57.5 11.5l-125 10l-6 72h577l-6 -72l-102 -10q-72 -8 -72 -37v-626q0 -276 -100 -421t-287 -145q-90 0 -148.5 38t-58.5 93z" />
<glyph unicode="K" horiz-adv-x="1308" d="M84 0l6 72l84 10q72 8 72 37v1046q0 14 -13.5 20.5t-58.5 12.5l-84 10l-6 72h518l-6 -72l-84 -10q-72 -8 -72 -37v-538l377 366q117 115 117 167q0 28 -33 38q-10 2 -24 4l-84 10l-7 72h519l-7 -72l-69 -10q-49 -8 -93 -35.5t-116 -99.5l-326 -320l416 -571 q39 -53 61.5 -69.5t63.5 -22.5l59 -8l6 -72h-479l6 72l70 14q15 3 15 16q0 14 -19 41l-330 482l-123 -117v-393q0 -25 72 -33l84 -10l6 -72h-518z" />
<glyph unicode="L" horiz-adv-x="1175" d="M84 0l6 72l84 10q72 8 72 37v1046q0 14 -13.5 20.5t-58.5 12.5l-84 10l-6 72h537l-7 -72l-102 -10q-72 -8 -72 -37v-1081h64q193 0 273.5 8t111.5 26.5t47 67.5l59 228h107l-45 -410h-973z" />
<glyph unicode="M" horiz-adv-x="1751" d="M37 0l6 72l115 14q23 4 36 26.5t25 113.5t23 272l26 503q1 13 1 26q0 138 -83 159l-123 22l-6 72h467l346 -958h11l336 958h452l-6 -72l-139 -12q-49 -6 -49 -59l24 -648q8 -244 21.5 -321.5t46.5 -81.5l114 -14l7 -72h-543l6 72l115 14q31 4 40 88q5 44 5 130 q0 76 -4 185l-25 662h-14l-398 -1110h-98l-387 1065h-25l-26 -608q-10 -223 -10 -310q0 -22 1 -34q3 -66 33 -68l117 -14l6 -72h-444z" />
<glyph unicode="N" horiz-adv-x="1540" d="M80 0l6 72l96 16q35 6 50.5 16.5t26.5 56.5t13 115.5t2 221.5v503q0 86 -19 129.5t-69 63.5l-96 14l-6 72h371l731 -1001h10v503q0 315 -22 365q-16 37 -68 45l-98 16l-7 72h472l-7 -72l-96 -16q-35 -6 -50 -16.5t-26.5 -56.5t-13.5 -115.5t-2 -221.5v-800h-104 l-809 1103h-11v-587q0 -152 2 -221.5t13.5 -115.5t26 -56.5t48.5 -16.5l99 -16l6 -72h-469z" />
<glyph unicode="O" horiz-adv-x="1525" d="M94 627q0 279 195.5 479.5t476.5 200.5q287 0 476.5 -185.5t189.5 -476.5q0 -279 -196 -478.5t-476 -199.5q-287 0 -476.5 185.5t-189.5 474.5zM311 651q0 -274 132 -441t322.5 -167t319.5 156t129 424q0 272 -133 439t-323.5 167t-318.5 -154.5t-128 -423.5z" />
<glyph unicode="P" horiz-adv-x="1173" d="M84 0l6 72l84 10q72 8 72 37v1046q0 14 -13.5 20.5t-58.5 12.5l-84 10l-6 72h526q240 0 370 -97.5t130 -244.5q0 -203 -142.5 -312.5t-359.5 -109.5q-57 0 -168 8v-409q0 -25 72 -33l123 -10l6 -72h-557zM440 612q74 -18 156 -18q135 0 220 82t85 221t-80 221t-215 82 h-166v-588z" />
<glyph unicode="Q" horiz-adv-x="1525" d="M94 627q0 279 195.5 479.5t476.5 200.5q287 0 476.5 -185.5t189.5 -476.5q0 -227 -132.5 -406.5t-341.5 -242.5q100 -174 238 -226q97 -37 224 -37q56 0 118 7l6 -68q-115 -41 -266 -41q-207 0 -330 78t-215 258q-279 8 -459 191.5t-180 468.5zM311 651q0 -274 132 -441 t322.5 -167t319.5 156t129 424q0 272 -133 439t-323.5 167t-318.5 -154.5t-128 -423.5z" />
<glyph unicode="R" horiz-adv-x="1239" d="M84 0l6 72l84 10q72 8 72 37v1046q0 14 -13.5 20.5t-58.5 12.5l-84 10l-6 72h530q236 0 352.5 -84t116.5 -231q0 -127 -78.5 -217.5t-213.5 -137.5l262 -405q49 -70 74.5 -91.5t58.5 -27.5l63 -14l8 -72h-329l-78 141l-246 430l-164 -6v-450q0 -25 72 -33l100 -10l6 -72 h-534zM440 655l146 -12q133 10 208.5 81t75.5 202q0 138 -76 208q-68 62 -193 63q-15 0 -30 -1l-131 -4v-537z" />
<glyph unicode="S" horiz-adv-x="1058" d="M96 395h86l92 -280q123 -60 239 -60h11q125 2 196 70t71 160q0 53 -18.5 96t-42 68.5t-74 54t-81 41t-100.5 39.5q-68 27 -108.5 45t-93 52t-82 68.5t-50 89t-20.5 119.5q0 141 108.5 245t317.5 106h17q108 0 229 -23l106 29v-408h-86l-63 262q-113 49 -232 50 q-109 0 -168 -57.5t-59 -139.5q0 -39 8 -70.5t34.5 -60.5t39 -43t63.5 -39t61.5 -29t75.5 -30q16 -6 25 -11q70 -27 113 -46t98 -54t85 -71t51.5 -92t21.5 -126q0 -152 -131 -265.5t-349 -115.5h-11q-169 0 -351 62z" />
<glyph unicode="T" horiz-adv-x="1267" d="M49 879l35 401h1112v-401h-98l-47 198q-14 51 -34 72.5t-84.5 35t-197.5 15.5h-4v-1085q0 -25 72 -33l123 -10l6 -72h-596l6 72l123 10q72 8 72 37v1081h-5q-193 0 -248 -17.5t-75 -84.5l-57 -219h-103z" />
<glyph unicode="U" horiz-adv-x="1462" d="M74 1280h518l-6 -72l-84 -10q-72 -8 -72 -37v-688q0 -389 367 -389q160 0 250 94t90 260v344q0 315 -23 365q-16 37 -67 45l-99 16l-6 72h471l-6 -72l-96 -16q-35 -6 -50.5 -16.5t-26.5 -56.5t-13 -115.5t-2 -221.5v-364q0 -207 -132.5 -328t-361.5 -121q-233 0 -361 116 t-128 343v737q0 14 -13.5 20.5t-58.5 12.5l-84 10z" />
<glyph unicode="V" horiz-adv-x="1282" d="M-35 1280h557l-6 -72l-100 -16q-47 -8 -49 -39q0 -27 49 -174l270 -819h23l213 622q76 239 76 321v12q-6 75 -91 87l-49 6l-6 72h465l-6 -72l-58 -14q-72 -16 -109.5 -80.5t-131.5 -331.5l-277 -784h-192l-396 1139q-14 41 -63 49l-113 22z" />
<glyph unicode="W" horiz-adv-x="1894" d="M-33 1280h559l-6 -72l-102 -16q-47 -8 -47 -41q0 -27 47 -172l229 -721h10l267 727l-52 152q-14 41 -65 49l-107 22l-6 72h551l-6 -72l-106 -16q-23 -4 -33 -14.5t-9 -37t10 -61.5t32 -100l231 -723l10 2l164 524q58 186 72 266q7 39 7 65q-1 28 -9 41q-16 26 -70 38 l-82 16l-6 72h471l-6 -72l-45 -14q-49 -16 -72.5 -40t-57.5 -102.5t-98 -269.5l-256 -784h-122l-289 862h-6l-310 -862h-124l-385 1139q-14 41 -64 49l-113 22z" />
<glyph unicode="X" horiz-adv-x="1284" d="M6 0l6 72l74 16q47 10 81 41t87 102l297 408l-348 498q-31 41 -72 49l-98 22l-6 72h536l-6 -72l-80 -12q-52 -9 -52 -40q0 -5 1 -11q8 -31 96 -168l146 -219h10l188 286q44 65 44 103q0 39 -48 49l-69 12l-7 72h449l-6 -72l-72 -16q-47 -10 -85 -42t-87 -101l-256 -359 l383 -547q29 -39 72 -49l96 -22l6 -72h-536l6 72l84 12q48 6 48 37q0 7 -3 16q-10 33 -97 164l-178 270h-10l-219 -335q-49 -65 -49 -103q0 -39 53 -49l68 -12l6 -72h-453z" />
<glyph unicode="Y" horiz-adv-x="1232" d="M-16 1280h524l-6 -72l-82 -12q-25 -4 -34 -17.5t-5 -39t22.5 -64.5t53.5 -96l205 -338h10l229 403q41 67 41 102q0 4 -1 7q-5 35 -58 45l-49 10l-7 72h414l-6 -72l-29 -8q-61 -18 -102 -49t-88 -102l-289 -488v-446q0 -25 72 -33l123 -10l6 -72h-598l6 72l125 10 q72 8 71 37v413l-368 586q-43 59 -109 74l-65 16z" />
<glyph unicode="Z" horiz-adv-x="1169" d="M80 0v74l799 1116v10h-238q-170 0 -248 -15.5t-101.5 -40t-45.5 -87.5l-41 -170h-88v393h987v-76l-797 -1116l-2 -10l248 2q178 0 263 13t110.5 35t46.5 77l49 180h104l-43 -385h-1003z" />
<glyph unicode="[" horiz-adv-x="753" d="M193 -455v1788h520v-90h-416v-1608h416v-90h-520z" />
<glyph unicode="\" horiz-adv-x="571" d="M16 1362h99l440 -1796h-98z" />
<glyph unicode="]" horiz-adv-x="753" d="M41 -365h416v1608h-416v90h520v-1788h-520v90z" />
<glyph unicode="^" d="M150 1044l217 383h86l217 -383h-56l-202 222h-4l-203 -222h-55z" />
<glyph unicode="_" horiz-adv-x="962" d="M-18 -109l6 109h987l6 -109h-999z" />
<glyph unicode="`" d="M117 1427h200l191 -383h-45z" />
<glyph unicode="a" horiz-adv-x="917" d="M63 702q0 76 134.5 162t255.5 86q183 0 245 -90q54 -78 53 -268q0 -30 -1 -64l-15 -348v-11q0 -69 47 -69q37 0 101 50l35 -46q-106 -137 -201 -137q-129 0 -137 150h-11q-133 -147 -254 -148q-98 0 -171.5 70t-73.5 170q0 125 121.5 205t390.5 143v18q0 160 -50.5 219.5 t-148.5 59.5q-49 0 -100.5 -16.5t-51.5 -30.5q0 -2 11.5 -17.5t24 -38t12.5 -46.5q0 -41 -30 -70t-79 -29q-47 0 -77 28t-30 68zM242 252q0 -68 43 -111t104 -43q82 0 178 86l11 305q-188 -47 -262 -105t-74 -132z" />
<glyph unicode="b" horiz-adv-x="1054" d="M-6 1288l6 51l322 88v-645h10q135 152 293 152q168 0 266 -126t98 -314q0 -211 -130 -368t-349 -157q-39 0 -116 14.5t-115 30.5h-3l-98 -57h-24v1227q0 39 -23 47zM322 178q113 -125 233 -125q102 0 177 102.5t75 262.5q0 170 -70.5 271.5t-183.5 101.5 q-133 0 -231 -121v-492z" />
<glyph unicode="c" horiz-adv-x="901" d="M66 428q0 223 143 371.5t342 148.5q133 0 212 -58.5t79 -137.5q0 -59 -35 -85t-80 -26q-59 -1 -92 57q-22 39 -22 86q0 23 5 47v5q-44 32 -108 32h-4q-115 0 -189.5 -94t-74.5 -252q0 -174 90 -289.5t227 -115.5q154 0 250 108l41 -22q-57 -113 -154.5 -173.5 t-218.5 -60.5q-180 0 -295.5 132t-115.5 327z" />
<glyph unicode="d" horiz-adv-x="1075" d="M66 430q0 209 137 358.5t360 149.5q76 0 168 -29h2v328q0 39 -22 47l-146 43l8 51l328 49v-1282q0 -39 23 -47l137 -41l-6 -51l-322 -37v142h-6q-121 -139 -281 -140q-164 0 -272 130t-108 329zM248 498q0 -176 76.5 -280.5t205.5 -104.5q111 0 203 82v524 q-115 131 -233 131q-111 0 -181.5 -97.5t-70.5 -254.5z" />
<glyph unicode="e" horiz-adv-x="944" d="M66 428q0 225 138 372.5t339 147.5q145 0 232 -84t87 -223q0 -61 -12 -111l-608 9v-23q0 -176 90 -287.5t227 -111.5q154 0 250 108l41 -22q-57 -113 -154.5 -173.5t-218.5 -60.5q-180 0 -295.5 132t-115.5 327zM248 604h426q1 17 1 34q0 100 -42 162q-49 72 -135 72 q-88 0 -160 -72.5t-90 -195.5z" />
<glyph unicode="f" horiz-adv-x="657" d="M25 819l12 99h145l2 43q10 209 138.5 337.5t295.5 128.5q78 0 132.5 -37t54.5 -92q0 -49 -27.5 -74.5t-70.5 -25.5q-45 0 -83 35t-55 100l-2 8l-59 5q-147 -84 -148 -353v-75h281l-14 -103h-267v-700q0 -33 78 -37l111 -6l6 -72h-496l7 72l57 6q70 6 70 39v692z" />
<glyph unicode="g" horiz-adv-x="962" d="M20 -283q0 158 199 240v8q-59 10 -99 56.5t-40 97.5q0 59 47 113.5t121 86.5q0 8 8 11q-174 82 -174 282q0 143 105.5 239.5t261.5 96.5q125 0 245 -57h279v-127l-223 39v-12q57 -76 57 -170q0 -135 -106.5 -231.5t-256.5 -96.5q-66 0 -122 14q-31 -14 -60 -41.5 t-29 -54.5q0 -41 38 -68.5t94 -27.5q49 0 131 3t110 3q125 0 212 -80t87 -195q0 -162 -148.5 -265t-379.5 -103q-162 0 -259.5 65.5t-97.5 173.5zM178 -227q0 -98 81 -157.5t212 -59.5q125 0 202 60.5t77 152.5q0 176 -215 184q-17 1 -40 1q-33 0 -79 -2q-76 -3 -115 -3 q-39 -14 -81 -62.5t-42 -113.5zM256 645q0 -154 84 -237q45 -45 104 -46q84 0 129 46q64 61 64 206q0 143 -70 213q-51 51 -118 52q-84 0 -138.5 -65.5t-54.5 -168.5z" />
<glyph unicode="h" horiz-adv-x="1087" d="M10 1288l6 51l322 88v-624h10q176 145 328 145q104 0 168 -63q78 -78 78 -230v-538q0 -16 16 -24.5t68 -14.5l53 -6l6 -72h-440l6 72l53 6q70 4 70 39v428q0 145 -46 203.5t-143 58.5q-111 0 -227 -86v-606q0 -33 78 -37l69 -6l7 -72h-455l6 72l57 6q70 6 70 39v1067 q0 39 -23 47z" />
<glyph unicode="i" horiz-adv-x="557" d="M57 813l2 55l303 80v-833q0 -33 78 -37l60 -6l6 -72h-445l7 72l57 6q70 6 70 39v518q0 94 -15.5 122.5t-73.5 43.5zM147 1245q0 51 29 86t82 35t82 -35t29 -86t-29 -86t-82 -35t-82 35t-29 86z" />
<glyph unicode="j" horiz-adv-x="526" d="M-137 -412q0 43 33.5 73t74.5 30q94 0 146 -115q71 31 71 240v6v813q0 94 -15 122.5t-73 43.5l-49 12l2 55l303 80v-997q-14 -217 -122.5 -351.5t-221.5 -134.5q-66 0 -107.5 32t-41.5 91zM141 1245q0 51 29 86t82 35t81.5 -35t28.5 -86t-28.5 -86t-81.5 -35t-82 35 t-29 86z" />
<glyph unicode="k" horiz-adv-x="1007" d="M10 1288l6 51l322 88v-958l141 131q133 123 154 162q8 16 8 29q0 43 -80 53l-31 4l-6 70h443l-6 -70l-31 -6q-53 -8 -110.5 -48t-178.5 -151l-100 -92l274 -381q63 -86 105 -90l67 -8l6 -72h-293l-110 184l-170 256l-82 -75v-250q0 -16 15.5 -23.5t62.5 -13.5l49 -6 l6 -72h-434l6 72l57 6q70 8 70 39v1067q0 39 -23 47z" />
<glyph unicode="l" horiz-adv-x="557" d="M35 1288l6 51l321 88v-1312q0 -33 78 -37l60 -6l6 -72h-445l7 72l57 6q70 6 70 39v1067q0 39 -23 47z" />
<glyph unicode="m" horiz-adv-x="1662" d="M57 813l2 55l303 80v-145h7q166 145 311 145q104 0 168 -63q41 -41 59 -97h8q174 160 328 160q104 0 168 -63q78 -78 78 -230v-538q0 -16 16.5 -24.5t67.5 -14.5l53 -6l6 -72h-440l6 72l53 6q70 4 70 39v428q0 262 -188 262q-98 0 -209 -94q2 -18 2 -58v-538 q0 -16 16 -24.5t68 -14.5l53 -6l6 -72h-440l6 72l53 6q70 4 70 39v428q0 262 -189 262q-90 0 -207 -86v-606q0 -33 78 -37l70 -6l6 -72h-455l7 72l57 6q70 6 70 39v518q0 94 -15.5 122.5t-73.5 43.5z" />
<glyph unicode="n" horiz-adv-x="1120" d="M57 813l2 55l303 80v-145h11q176 145 327 145q104 0 168 -63q78 -78 78 -230v-538q0 -16 16.5 -24.5t67.5 -14.5l53 -6l7 -72h-441l6 72l54 6q70 4 69 39v428q0 145 -46 203.5t-142 58.5q-111 0 -228 -86v-606q0 -33 78 -37l70 -6l6 -72h-455l7 72l57 6q70 6 70 39v518 q0 94 -15.5 122.5t-73.5 43.5z" />
<glyph unicode="o" horiz-adv-x="1060" d="M66 455q0 207 141 350t344 143q197 0 320.5 -132t123.5 -331q0 -215 -139 -365.5t-344 -150.5q-201 0 -323.5 139.5t-122.5 346.5zM252 518q0 -270 110 -387q72 -78 179 -78q113 0 190.5 93t77.5 253q0 272 -109 387q-72 78 -178 78q-117 0 -193.5 -93t-76.5 -253z" />
<glyph unicode="p" horiz-adv-x="1075" d="M37 813l2 55l303 80v-166h10q135 152 293 152q168 0 266.5 -126t98.5 -314q0 -211 -129 -368t-349 -157q-94 0 -188 29h-2v-387q0 -33 78 -37l80 -6l6 -72h-465l6 72l57 6q70 6 70 39v1022q0 94 -15.5 122.5t-72.5 43.5zM342 178q113 -125 233 -125q102 0 177 102.5 t75 262.5q0 170 -70.5 271.5t-183.5 101.5q-133 0 -231 -121v-492z" />
<glyph unicode="q" horiz-adv-x="1052" d="M66 430q0 209 137 358.5t360 149.5q102 0 213 -45h2l99 57h24v-1337q0 -16 16.5 -24.5t67.5 -14.5l53 -6l6 -72h-464l6 72l78 6q70 4 69 39v498h-6q-121 -139 -281 -140q-164 0 -272 130t-108 329zM248 498q0 -176 76.5 -280.5t205.5 -104.5q111 0 203 82v524 q-115 131 -233 131q-111 0 -181.5 -97.5t-70.5 -254.5z" />
<glyph unicode="r" horiz-adv-x="788" d="M57 813l2 55l303 80v-262h11q88 143 148.5 202.5t129.5 59.5q57 0 90 -31.5t33 -83t-27.5 -83t-78.5 -31.5q-61 0 -105 67q-127 -74 -201 -219v-452q0 -33 78 -37l80 -6l6 -72h-465l7 72l57 6q70 6 70 39v518q0 94 -15.5 122.5t-73.5 43.5z" />
<glyph unicode="s" horiz-adv-x="831" d="M100 283h103l47 -181q80 -57 164 -57q68 0 127 46t59 118q0 29 -14.5 52.5t-29.5 38.5t-53 34.5t-57.5 27t-70.5 27.5q-63 25 -101 44.5t-82.5 53t-66 80.5t-21.5 111q0 109 88.5 191.5t239.5 82.5q113 0 205 -34l63 26l13 -291h-101l-41 170q-68 51 -155 51 q-68 0 -115 -37.5t-47 -97.5q0 -63 48 -98t171 -84q63 -25 101 -44t84.5 -54t68 -83.5t21.5 -109.5q0 -123 -97.5 -210t-261.5 -87t-276 43z" />
<glyph unicode="t" horiz-adv-x="729" d="M18 819l2 62l134 110l133 113l65 -12l-2 -174h336l-14 -103h-320l-16 -512v-13q0 -188 176 -188q78 0 170 52l10 -52q-55 -61 -132 -97t-148 -36q-112 0 -178 71q-65 69 -64 209v9l14 551z" />
<glyph unicode="u" horiz-adv-x="1083" d="M18 918h324l-16 -545q0 -145 46 -203.5t142 -58.5q111 0 227 86v606q0 16 -15 24.5t-62 12.5l-80 6l-9 72h334v-773q0 -39 23 -47l137 -41l-6 -51l-322 -37v146h-10q-176 -145 -328 -146q-104 0 -167 64q-78 78 -78 229l6 539q0 10 -2 16t-5 9t-11.5 5.5t-15.5 2.5 t-24.5 2t-31.5 4l-49 6z" />
<glyph unicode="v" horiz-adv-x="958" d="M-43 918h461l-6 -72l-58 -8q-53 -7 -53 -45q0 -13 6 -29l228 -580l186 512q23 56 23 86q0 8 -2 14q-8 30 -60 38l-57 14l-7 70h375l-6 -70l-51 -14q-45 -6 -68.5 -34t-58.5 -118l-270 -700h-105l-315 772q-18 43 -38 56t-69 21l-47 13z" />
<glyph unicode="w" horiz-adv-x="1425" d="M-31 918h434l-6 -72l-47 -8q-57 -8 -57 -48q0 -13 6 -30l195 -563l186 487l-25 70q-16 43 -35.5 57t-68.5 23l-47 12l-6 72h442l-6 -70l-47 -10q-57 -5 -57 -46q0 -14 6 -32l202 -570l150 492q17 52 17 86q1 14 -3 26q-12 36 -76 46l-41 8l-6 70h379l-6 -70l-43 -10 q-53 -8 -76.5 -35t-54.5 -121l-227 -700h-99l-227 593l-238 -593h-98l-274 772q-16 43 -35 59t-60 23l-45 8z" />
<glyph unicode="x" horiz-adv-x="985" d="M-12 0l6 70l59 12q43 6 74 30.5t98 104.5l189 229l-193 254q-57 76 -88 100.5t-78 33.5l-45 12l-6 72h447l-7 -70l-41 -12q-47 -8 -46 -32t49 -87l110 -156h2l117 156q33 43 43 66.5t0 37t-45 17.5l-53 10l-7 70h400l-6 -70l-60 -12q-49 -6 -79.5 -31t-98.5 -105 l-162 -196l213 -287q55 -74 87 -99.5t73 -33.5l41 -12l6 -72h-442l6 70l41 12q49 10 49 36q0 24 -43 83l-135 188h-2l-142 -188q-35 -45 -45 -68.5t0.5 -36t47.5 -16.5l53 -10l6 -70h-393z" />
<glyph unicode="y" horiz-adv-x="940" d="M-43 918h451l-7 -72l-51 -8q-54 -6 -54 -41q0 -14 9 -33l246 -543l168 475q18 51 18 80q0 13 -3 22q-11 29 -66 36l-56 14l-6 70h385l-6 -70l-53 -14q-45 -6 -68.5 -34t-58.5 -118l-240 -631l-102 -313q-47 -143 -99.5 -208t-136.5 -65q-66 0 -101.5 31t-35.5 82 q0 47 25.5 78t74.5 31q78 0 121 -66q37 18 80 135l86 240v4l-364 754q-20 43 -38 56t-67 21l-43 13z" />
<glyph unicode="z" horiz-adv-x="950" d="M61 0v68l582 774h-51q-211 0 -274.5 -22.5t-79.5 -104.5l-39 -148h-103v351h754v-68l-578 -774h82q209 0 280 23.5t109 103.5l72 147h98l-84 -350h-768z" />
<glyph unicode="{" horiz-adv-x="688" d="M49 440l23 58q268 8 268 157q0 66 -60.5 186t-60.5 212q0 137 104.5 218t294.5 91v-72q-117 -10 -184 -63t-67 -127q0 -66 60 -186.5t60 -213.5q0 -98 -86 -172.5t-176 -76.5v-25q90 -4 176 -78t86 -172q0 -90 -60 -209t-60 -184q0 -74 67.5 -130t183.5 -67v-67 q-188 10 -293.5 91t-105.5 218q0 90 60.5 210t60.5 185q0 145 -268 158z" />
<glyph unicode="|" horiz-adv-x="565" d="M236 -383v1796h94v-1796h-94z" />
<glyph unicode="}" horiz-adv-x="688" d="M70 -414q117 10 184.5 66.5t67.5 130.5q0 66 -60.5 184.5t-60.5 208.5q0 98 86 172t176 78v25q-90 2 -176 76.5t-86 172.5q0 92 60.5 213t60.5 187q0 74 -68 127t-184 63v72q190 -10 294.5 -91t104.5 -218q0 -92 -60.5 -212t-60.5 -186q0 -150 268 -157l23 -58l-23 -59 q-268 -12 -268 -158q0 -66 60.5 -185.5t60.5 -209.5q0 -137 -105.5 -218t-293.5 -91v67z" />
<glyph unicode="~" d="M74 356q41 252 200 252q57 0 119 -38t112 -74.5t83 -36.5q29 0 51.5 28.5t52.5 104.5h53q-41 -252 -200 -252q-74 0 -177.5 74.5t-136.5 74.5q-29 0 -51 -28.5t-53 -104.5h-53z" />
<glyph unicode="&#xa1;" horiz-adv-x="581" d="M168 1186q0 49 36 86t89 37t87 -36t34 -87q0 -49 -34 -84t-87 -35t-89 35t-36 84zM186 57l86 820q2 12 20.5 12t20.5 -12l86 -820q4 -43 -17.5 -65.5t-86.5 -22.5h-4q-66 0 -87.5 22.5t-17.5 65.5z" />
<glyph unicode="&#xa2;" horiz-adv-x="909" d="M66 449q0 221 142 360t343 139q51 0 86 -8l96 360h80l-102 -380q63 -27 97 -72t34 -96q0 -45 -28 -73t-60 -28q-70 0 -103 49l-39 -143q-39 -143 -75 -287l-39 -143q37 -10 73 -10q143 0 240 108l41 -22q-57 -111 -152.5 -172.5t-210.5 -61.5q-22 0 -32 2l-84 -311h-80 l88 326q-141 39 -228 168t-87 295zM242 522q0 -125 49 -223t135 -145l182 682q-45 27 -102 26q-115 0 -189.5 -91t-74.5 -249z" />
<glyph unicode="&#xa3;" horiz-adv-x="976" d="M10 25q154 49 214.5 135t60.5 227q0 23 -1 70t-1 71h-220l7 84h209q0 29 -3.5 99.5t-3.5 99.5q0 221 115 350t303 129q104 0 161.5 -42t57.5 -115q0 -45 -30.5 -76t-73.5 -31q-57 0 -88 44t-21 112q-41 25 -90 24q-166 0 -166 -315q0 -29 3 -124t6 -155h327l6 -84h-331 q2 -29 2 -90q0 -143 -74 -262v-10q18 -4 131 -36t168 -32q74 0 113 39q43 43 94 156l45 -12q6 -131 -58.5 -230.5t-197.5 -99.5q-53 0 -108.5 21.5t-80 37t-84 63.5t-63.5 50q-113 -137 -303 -178z" />
<glyph unicode="&#xa4;" horiz-adv-x="890" d="M76 1032l74 74l118 -119q82 53 178 53q98 0 183 -55l112 113l72 -72l-115 -115q49 -84 50 -176q0 -94 -52 -176l127 -127l-73 -74l-125 125q-82 -53 -178.5 -53t-178.5 51l-114 -114l-72 71l115 115q-53 80 -54 182q0 100 52 178zM240 735q0 -86 56 -148.5t150 -62.5 q92 0 148.5 62.5t56.5 148.5q0 88 -56 149.5t-149 61.5q-94 0 -150 -61.5t-56 -149.5z" />
<glyph unicode="&#xa5;" horiz-adv-x="1253" d="M16 1280h514l-6 -72l-84 -12q-25 -4 -35 -16.5t-4.5 -39t23.5 -65.5t55 -96l193 -322h10l213 387q39 74 34 109t-57 45l-47 10l-6 72h408l-6 -72l-27 -8q-61 -20 -102 -50t-84 -101l-242 -424h332l6 -84h-373v-166h367l6 -84h-373v-148q0 -41 47 -49l152 -22l6 -72h-592 l6 72l152 22q47 8 47 49v148h-359l7 84h352v166h-359l7 84h315l-313 493q-39 59 -109 74l-67 16z" />
<glyph unicode="&#xa6;" horiz-adv-x="565" d="M236 -285v686h94v-686h-94zM236 629v686h94v-686h-94z" />
<glyph unicode="&#xa7;" horiz-adv-x="862" d="M51 662q0 80 48 145t120 100q-49 74 -49 150q0 92 94 172t219 80q86 0 155 -41t69 -111q0 -45 -29 -73.5t-72 -28.5q-102 0 -137 157q-31 12 -57 13q-51 0 -84 -32t-33 -91q0 -45 40 -93t81 -78t121 -81q156 -100 202 -152q70 -76 70 -166q0 -80 -49 -146.5t-121 -102.5 q49 -70 49 -148q0 -104 -97 -186t-233 -82q-86 0 -154.5 41t-68.5 110q0 45 29 74t72 29q102 0 137 -158q33 -12 71 -12q119 0 119 137q0 47 -39 96t-80 79t-120 81q-156 100 -203 152q-70 76 -70 166zM168 735q0 -47 28.5 -90t61.5 -68.5t94 -68.5q20 -14 82 -53t101.5 -69 t70.5 -62q84 51 84 133q0 47 -29.5 90t-60.5 68.5t-94 70.5q-27 18 -83 53t-98 66t-71 63q-35 -20 -60.5 -58t-25.5 -75z" />
<glyph unicode="&#xa8;" d="M84 1243q0 53 33 91t88 38t88 -38t33 -91t-33 -91t-88 -38t-88 38t-33 91zM494 1243q0 53 32.5 91t88 38t88 -38t32.5 -91t-32.5 -91t-88 -38t-88 38t-32.5 91z" />
<glyph unicode="&#xa9;" horiz-adv-x="1503" d="M82 639q0 279 195.5 475.5t474 196.5t474 -196.5t195.5 -475.5t-195.5 -474.5t-474 -195.5t-474 195.5t-195.5 474.5zM160 639q0 -246 173 -423t418.5 -177t418.5 177t173 423t-173 424t-418.5 178t-418.5 -178t-173 -424zM393 629q0 170 105.5 278.5t271.5 108.5 q86 0 164 -25l94 25v-268h-55l-47 149q-57 45 -166 45q-102 0 -170 -75.5t-68 -198.5q0 -152 73 -243t204 -91q74 0 114 33l70 161h57l-24 -247l-62 12q-82 -31 -176 -31q-182 0 -283.5 102.5t-101.5 264.5z" />
<glyph unicode="&#xaa;" horiz-adv-x="710" d="M49 748q0 180 391 256l2 55q6 76 -45 125t-121 49q-33 0 -61.5 -16.5t-28.5 -26.5q0 -2 7.5 -12.5t13.5 -26.5t6 -31q0 -31 -21.5 -50t-58.5 -19t-60.5 22.5t-23.5 56.5q0 63 107.5 121t218.5 58q104 0 161.5 -59.5t53.5 -145.5l-12 -334q-2 -43 11 -62.5t46 -19.5 q35 0 67 21l7 -41q-59 -82 -160 -82q-98 0 -113 110h-4q-121 -111 -211 -110q-70 0 -121 44t-51 118zM197 801q0 -47 28.5 -77t73.5 -30q27 0 67.5 19.5t65.5 42.5l6 196q-242 -49 -241 -151z" />
<glyph unicode="&#xab;" horiz-adv-x="1003" d="M78 406v94l444 291l21 -41l-293 -297l293 -297l-21 -41zM467 406v94l444 311l21 -41l-314 -317l314 -318l-21 -41z" />
<glyph unicode="&#xac;" horiz-adv-x="983" d="M72 524l6 109h833v-434h-108v325h-731z" />
<glyph unicode="&#xad;" horiz-adv-x="671" d="M68 426l6 109h528l6 -109h-540z" />
<glyph unicode="&#xae;" horiz-adv-x="1503" d="M82 639q0 279 195.5 475.5t474 196.5t474 -196.5t195.5 -475.5t-195.5 -474.5t-474 -195.5t-474 195.5t-195.5 474.5zM160 639q0 -246 173 -423t418.5 -177t418.5 177t173 423t-173 424t-418.5 178t-418.5 -178t-173 -424zM446 285l5 63l59 12q27 6 27 27v512 q0 23 -27 29l-59 12l-5 64h312q133 0 200.5 -54.5t67.5 -130.5q0 -156 -172 -207l133 -200q37 -49 66 -56l63 -8l4 -63h-202l-44 80l-137 219l-80 4v-201q0 -20 29 -27l68 -12l2 -63h-310zM657 659l78 -10q160 10 160 151.5t-190 133.5l-48 -2v-273z" />
<glyph unicode="&#xaf;" d="M154 1108l6 84h504l6 -84h-516z" />
<glyph unicode="&#xb0;" horiz-adv-x="839" d="M80 987q0 143 93 242.5t246.5 99.5t247 -98.5t93.5 -243.5q0 -141 -93.5 -239.5t-246.5 -98.5q-152 0 -246 98.5t-94 239.5zM180 987q0 -100 65.5 -173t174 -73t174 73t65.5 173q0 106 -65.5 178t-174 72t-174 -71.5t-65.5 -178.5z" />
<glyph unicode="&#xb1;" horiz-adv-x="983" d="M63 487l7 109h368v334h109v-334h366l7 -109h-373v-337h-109v337h-375zM66 12l6 109h839l7 -109h-852z" />
<glyph unicode="&#xb2;" horiz-adv-x="675" d="M39 631q31 29 86 78t83 74.5t68.5 65.5t61 66.5t43 59.5t32 62.5t9.5 60.5q0 66 -42 102.5t-110 36.5q-98 0 -196 -86l-21 29q125 172 295 172q111 0 178.5 -59.5t67.5 -149.5q0 -33 -9.5 -62.5t-35 -63.5t-45 -57.5t-68.5 -66.5t-74.5 -63.5t-95 -75t-100.5 -78.5v-8h96 q180 0 225 7t64 42l29 51h59l-47 -209h-545z" />
<glyph unicode="&#xb3;" horiz-adv-x="675" d="M43 637q0 29 22.5 50.5t53.5 21.5q47 0 76.5 -36t35.5 -83q6 -2 39 -2q72 0 122 48t50 119.5t-47 109.5t-114 38q-53 0 -103 -24l-22 39q14 8 39.5 23t40 23.5t37 21.5t34.5 23.5t28.5 24t26 24.5t18.5 24.5t13 26.5t4 28q0 47 -37.5 75.5t-99.5 28.5q-88 0 -188 -76 l-27 33q137 154 305 154q90 0 155.5 -44t65.5 -110q0 -39 -17 -70.5t-64.5 -64.5t-73 -47.5t-97.5 -50.5v-4q100 39 193.5 -11.5t93.5 -154.5q0 -106 -108.5 -186.5t-255.5 -80.5q-90 0 -144.5 30t-54.5 79z" />
<glyph unicode="&#xb4;" d="M307 1044l187 383h208l-346 -383h-49z" />
<glyph unicode="&#xb5;" horiz-adv-x="1083" d="M18 918h324l-16 -594q0 -117 46 -165t142 -48q111 0 227 86v606q0 16 -15 24.5t-62 12.5l-80 6l-9 72h334v-773q0 -39 23 -47l137 -41l-6 -51l-322 -37v146h-10q-4 -4 -19.5 -22.5t-21.5 -25t-20.5 -21.5t-22.5 -21.5t-22.5 -17.5t-26.5 -16t-27.5 -11.5t-32 -8.5 t-34.5 -2q-117 0 -174 113q-4 4 -4 6h-11l21 -573l-205 -19l27 766l6 539q0 10 -2 16t-5 9t-11.5 5.5t-15.5 2.5t-24.5 2t-31.5 4l-49 6z" />
<glyph unicode="&#xb6;" horiz-adv-x="1026" d="M82 899q0 186 123 283.5t319 97.5h318v-1346h-105v613q-98 -27 -180 -27q-233 0 -354 105.5t-121 273.5z" />
<glyph unicode="&#xb7;" horiz-adv-x="475" d="M102 467q0 55 40 94t99.5 39t97.5 -39t38 -94t-39 -96t-96 -41q-59 0 -99.5 41t-40.5 96z" />
<glyph unicode="&#xb8;" d="M201 -504q322 39 321 176q0 49 -45 79t-129 30q-61 0 -127 -12v41l223 233h91l-154 -160q125 0 196.5 -49t71.5 -137q0 -102 -114.5 -169t-315.5 -81z" />
<glyph unicode="&#xb9;" horiz-adv-x="675" d="M102 1235l4 41l326 78v-692q0 -23 31 -29l108 -17l4 -57h-464l4 57l131 17q31 6 30 29v561z" />
<glyph unicode="&#xba;" horiz-adv-x="800" d="M49 944q0 154 100.5 259.5t253.5 105.5q156 0 251.5 -103.5t95.5 -257t-99.5 -258t-253.5 -104.5q-156 0 -252 103.5t-96 254.5zM209 989q0 -197 86 -287q45 -45 121 -45q74 0 124 66.5t50 179.5q0 205 -84 285q-49 49 -121 49q-78 0 -127 -67.5t-49 -180.5z" />
<glyph unicode="&#xbb;" horiz-adv-x="1003" d="M78 135l313 318l-313 317l20 41l445 -311v-94l-445 -312zM467 156l293 297l-293 297l20 41l445 -291v-94l-445 -291z" />
<glyph unicode="&#xbc;" horiz-adv-x="1464" d="M102 1235l4 41l326 78v-692q0 -23 31 -29l108 -17l4 -57h-464l4 57l131 17q31 6 30 29v561zM172 -238l1092 1518h112l-1091 -1518h-113zM809 -16l399 508h103v-496h137l-8 -68h-129v-221h-146v221h-348zM887 -4h278v344h-6z" />
<glyph unicode="&#xbd;" horiz-adv-x="1464" d="M102 1235l4 41l326 78v-692q0 -23 31 -29l108 -17l4 -57h-464l4 57l131 17q31 6 30 29v561zM141 -238l1092 1518h113l-1092 -1518h-113zM827 -221q31 29 86.5 78t83 74.5t68.5 65.5t61.5 66.5t43 59.5t31.5 62.5t9 60.5q0 66 -42 102.5t-109 36.5q-98 0 -197 -86l-20 29 q125 172 295 172q111 0 178 -59.5t67 -149.5q0 -33 -9 -62.5t-34.5 -63.5t-45 -57.5t-68.5 -66.5t-75 -63.5t-95.5 -75t-100.5 -78.5v-8h97q180 0 225 7t63 42l29 51h59l-47 -209h-544z" />
<glyph unicode="&#xbe;" horiz-adv-x="1464" d="M43 637q0 29 22.5 50.5t53.5 21.5q47 0 76.5 -36t35.5 -83q6 -2 39 -2q72 0 122 48t50 119.5t-47 109.5t-114 38q-53 0 -103 -24l-22 39q14 8 39.5 23t40 23.5t37 21.5t34.5 23.5t28.5 24t26 24.5t18.5 24.5t13 26.5t4 28q0 47 -37.5 75.5t-99.5 28.5q-88 0 -188 -76 l-27 33q137 154 305 154q90 0 155.5 -44t65.5 -110q0 -39 -17 -70.5t-64.5 -64.5t-73 -47.5t-97.5 -50.5v-4q100 39 193.5 -11.5t93.5 -154.5q0 -106 -108.5 -186.5t-255.5 -80.5q-90 0 -144.5 30t-54.5 79zM172 -238l1092 1518h112l-1091 -1518h-113zM809 -16l399 508h103 v-496h137l-8 -68h-129v-221h-146v221h-348zM887 -4h278v344h-6z" />
<glyph unicode="&#xbf;" horiz-adv-x="743" d="M82 315q0 117 51 169.5t170 99.5q115 45 143 75q27 29 27 70q0 74 -94 168h61q139 -115 140 -229q0 -96 -56.5 -143.5t-179.5 -96.5q-66 -27 -91.5 -38t-55 -37.5t-29.5 -57.5q0 -68 90 -113t225 -45q55 0 138 15q22 -29 22 -68q0 -49 -45 -82t-119 -33 q-162 0 -279.5 105.5t-117.5 240.5zM309 1186q0 51 34 87t87 36t89 -37t36 -86t-36 -84t-89 -35t-87 35t-34 84z" />
<glyph unicode="&#xc0;" horiz-adv-x="1228" d="M-33 0l6 72l58 14q47 10 74.5 39t63.5 108.5t101 264.5l238 665v74l184 86l387 -1180q14 -41 66 -49l110 -22l7 -72h-557l6 72l100 16q29 6 42 14.5t13 35t-9 59t-32 104.5l-51 160h-422l-49 -158q-31 -82 -40 -123t0 -63.5t44 -28.5l82 -16l6 -72h-428zM281 1769h200 l191 -383h-45zM381 547h367l-170 551h-13z" />
<glyph unicode="&#xc1;" horiz-adv-x="1228" d="M-33 0l6 72l58 14q47 10 74.5 39t63.5 108.5t101 264.5l238 665v74l184 86l387 -1180q14 -41 66 -49l110 -22l7 -72h-557l6 72l100 16q29 6 42 14.5t13 35t-9 59t-32 104.5l-51 160h-422l-49 -158q-31 -82 -40 -123t0 -63.5t44 -28.5l82 -16l6 -72h-428zM381 547h367 l-170 551h-13zM532 1386l187 383h209l-346 -383h-50z" />
<glyph unicode="&#xc2;" horiz-adv-x="1228" d="M-33 0l6 72l58 14q47 10 74.5 39t63.5 108.5t101 264.5l238 665v74l184 86l387 -1180q14 -41 66 -49l110 -22l7 -72h-557l6 72l100 16q29 6 42 14.5t13 35t-9 59t-32 104.5l-51 160h-422l-49 -158q-31 -82 -40 -123t0 -63.5t44 -28.5l82 -16l6 -72h-428zM354 1386 l217 383h86l217 -383h-55l-203 222h-4l-202 -222h-56zM381 547h367l-170 551h-13z" />
<glyph unicode="&#xc3;" horiz-adv-x="1228" d="M-33 0l6 72l58 14q47 10 74.5 39t63.5 108.5t101 264.5l238 665v74l184 86l387 -1180q14 -41 66 -49l110 -22l7 -72h-557l6 72l100 16q29 6 42 14.5t13 35t-9 59t-32 104.5l-51 160h-422l-49 -158q-31 -82 -40 -123t0 -63.5t44 -28.5l82 -16l6 -72h-428zM279 1423 q41 252 200 252q57 0 118.5 -36.5t112 -74.5t83.5 -38q29 0 51 28.5t53 104.5h53q-41 -252 -200 -252q-74 0 -177.5 74.5t-136.5 74.5q-29 0 -51.5 -28.5t-52.5 -104.5h-53zM381 547h367l-170 551h-13z" />
<glyph unicode="&#xc4;" horiz-adv-x="1228" d="M-33 0l6 72l58 14q47 10 74.5 39t63.5 108.5t101 264.5l238 665v74l184 86l387 -1180q14 -41 66 -49l110 -22l7 -72h-557l6 72l100 16q29 6 42 14.5t13 35t-9 59t-32 104.5l-51 160h-422l-49 -158q-31 -82 -40 -123t0 -63.5t44 -28.5l82 -16l6 -72h-428zM289 1585 q0 53 32.5 91t88 38t88 -38t32.5 -91t-32.5 -91t-88 -38t-88 38t-32.5 91zM381 547h367l-170 551h-13zM698 1585q0 53 33 91t88 38t88 -38t33 -91t-33 -91t-88 -38t-88 38t-33 91z" />
<glyph unicode="&#xc5;" horiz-adv-x="1228" d="M-33 0l6 72l58 14q47 10 74.5 39t63.5 108.5t101 264.5l267 743q-49 20 -77 66.5t-28 101.5q0 78 50 131t132 53t132.5 -53t50.5 -131q0 -106 -82 -158l364 -1108q14 -41 66 -49l110 -22l7 -72h-557l6 72l100 16q29 6 42 14.5t13 35t-9 59t-32 104.5l-51 160h-422 l-49 -158q-31 -82 -40 -123t0 -63.5t44 -28.5l82 -16l6 -72h-428zM381 547h367l-170 555h-13zM494 1409q0 -53 32.5 -91t88 -38t88 38t32.5 91t-32.5 91t-88 38t-88 -38t-32.5 -91z" />
<glyph unicode="&#xc6;" horiz-adv-x="1644" d="M-102 0l6 72l59 14q55 16 83 35.5t83 104.5t150 272l286 569q57 111 -55 131l-55 10l-6 72h1093v-381h-90l-49 199q-8 33 -18.5 47t-30 28.5t-71.5 18.5t-117.5 6t-194.5 2h-43v-510h28q125 0 160 7.5t45 37.5l47 137h74l-43 -440h-72l-16 131q-4 31 -37 40t-162 9h-24 v-532h22q221 0 310.5 8t119 26.5t45.5 67.5l52 189h102l-39 -371h-956l6 72l110 22q47 8 48 49v318h-386l-63 -127q-41 -82 -59.5 -125t-22.5 -70.5t5 -37t32 -13.5l80 -16l6 -72h-442zM406 547h342v643h-21z" />
<glyph unicode="&#xc7;" horiz-adv-x="1396" d="M94 627q0 313 205 497.5t516 184.5q160 0 283 -41l164 30v-419h-95l-55 262q-137 82 -307 82q-219 0 -356.5 -161t-137.5 -409q0 -272 137.5 -437t382.5 -165q141 0 252 62l88 282h99l-45 -395l-105 18q-117 -43 -276 -49l-84 -86q125 0 196.5 -49t71.5 -137 q0 -102 -114.5 -169t-315.5 -81l-18 49q322 39 321 176q0 49 -45 79t-129 30q-63 0 -127 -12v41l154 161q-289 16 -474.5 189.5t-185.5 466.5z" />
<glyph unicode="&#xc8;" horiz-adv-x="1216" d="M84 0l6 72l84 10q72 8 72 37v1046q0 14 -13.5 20.5t-58.5 12.5l-84 10l-6 72h1006v-381h-99l-49 199q-14 51 -43 69.5t-105.5 25.5t-279.5 7h-74v-510h56q121 0 155.5 7.5t44.5 37.5l47 137h80l-43 -440h-78l-16 131q-4 31 -37 40t-160 9h-49v-532h58q213 0 301 8 t118.5 26.5t49.5 67.5l49 189h110l-39 -371h-1003zM295 1769h201l190 -383h-45z" />
<glyph unicode="&#xc9;" horiz-adv-x="1216" d="M84 0l6 72l84 10q72 8 72 37v1046q0 14 -13.5 20.5t-58.5 12.5l-84 10l-6 72h1006v-381h-99l-49 199q-14 51 -43 69.5t-105.5 25.5t-279.5 7h-74v-510h56q121 0 155.5 7.5t44.5 37.5l47 137h80l-43 -440h-78l-16 131q-4 31 -37 40t-160 9h-49v-532h58q213 0 301 8 t118.5 26.5t49.5 67.5l49 189h110l-39 -371h-1003zM567 1386l187 383h209l-347 -383h-49z" />
<glyph unicode="&#xca;" horiz-adv-x="1216" d="M84 0l6 72l84 10q72 8 72 37v1046q0 14 -13.5 20.5t-58.5 12.5l-84 10l-6 72h1006v-381h-99l-49 199q-14 51 -43 69.5t-105.5 25.5t-279.5 7h-74v-510h56q121 0 155.5 7.5t44.5 37.5l47 137h80l-43 -440h-78l-16 131q-4 31 -37 40t-160 9h-49v-532h58q213 0 301 8 t118.5 26.5t49.5 67.5l49 189h110l-39 -371h-1003zM348 1386l217 383h86l217 -383h-55l-203 222h-4l-203 -222h-55z" />
<glyph unicode="&#xcb;" horiz-adv-x="1216" d="M84 0l6 72l84 10q72 8 72 37v1046q0 14 -13.5 20.5t-58.5 12.5l-84 10l-6 72h1006v-381h-99l-49 199q-14 51 -43 69.5t-105.5 25.5t-279.5 7h-74v-510h56q121 0 155.5 7.5t44.5 37.5l47 137h80l-43 -440h-78l-16 131q-4 31 -37 40t-160 9h-49v-532h58q213 0 301 8 t118.5 26.5t49.5 67.5l49 189h110l-39 -371h-1003zM283 1585q0 53 32.5 91t88 38t88 -38t32.5 -91t-32.5 -91t-88 -38t-88 38t-32.5 91zM692 1585q0 53 33 91t88 38t88 -38t33 -91t-33 -91t-88 -38t-88 38t-33 91z" />
<glyph unicode="&#xcc;" horiz-adv-x="737" d="M14 1769h201l191 -383h-46zM90 0l6 72l105 10q72 8 71 37v1046q0 14 -13 20.5t-58 12.5l-105 10l-6 72h559l-6 -72l-104 -10q-72 -8 -72 -37v-1046q0 -25 72 -33l104 -10l6 -72h-559z" />
<glyph unicode="&#xcd;" horiz-adv-x="737" d="M90 0l6 72l105 10q72 8 71 37v1046q0 14 -13 20.5t-58 12.5l-105 10l-6 72h559l-6 -72l-104 -10q-72 -8 -72 -37v-1046q0 -25 72 -33l104 -10l6 -72h-559zM330 1386l186 383h209l-346 -383h-49z" />
<glyph unicode="&#xce;" horiz-adv-x="737" d="M90 0l6 72l105 10q72 8 71 37v1046q0 14 -13 20.5t-58 12.5l-105 10l-6 72h559l-6 -72l-104 -10q-72 -8 -72 -37v-1046q0 -25 72 -33l104 -10l6 -72h-559zM109 1386l217 383h86l217 -383h-56l-202 222h-4l-203 -222h-55z" />
<glyph unicode="&#xcf;" horiz-adv-x="737" d="M43 1585q0 53 33 91t88 38t88 -38t33 -91t-33 -91t-88 -38t-88 38t-33 91zM90 0l6 72l105 10q72 8 71 37v1046q0 14 -13 20.5t-58 12.5l-105 10l-6 72h559l-6 -72l-104 -10q-72 -8 -72 -37v-1046q0 -25 72 -33l104 -10l6 -72h-559zM453 1585q0 53 32.5 91t88 38t88 -38 t32.5 -91t-32.5 -91t-88 -38t-88 38t-32.5 91z" />
<glyph unicode="&#xd0;" horiz-adv-x="1380" d="M68 610l6 84h172v443q0 41 -47 49l-111 22l-6 72l455 6q332 4 546.5 -170t214.5 -444q0 -309 -197.5 -490.5t-572.5 -181.5h-446l6 72l111 22q47 8 47 49v467h-178zM426 111l147 -31q242 -12 386.5 139.5t144.5 388.5q0 274 -161 434t-456 160h-61v-508h238l6 -84h-244 v-499z" />
<glyph unicode="&#xd1;" horiz-adv-x="1540" d="M80 0l6 72l96 16q35 6 50.5 16.5t26.5 56.5t13 115.5t2 221.5v503q0 86 -19 129.5t-69 63.5l-96 14l-6 72h371l731 -1001h10v503q0 315 -22 365q-16 37 -68 45l-98 16l-7 72h472l-7 -72l-96 -16q-35 -6 -50 -16.5t-26.5 -56.5t-13.5 -115.5t-2 -221.5v-800h-104 l-809 1103h-11v-587q0 -152 2 -221.5t13.5 -115.5t26 -56.5t48.5 -16.5l99 -16l6 -72h-469zM434 1423q41 252 201 252q57 0 118.5 -36.5t111.5 -74.5t83 -38q29 0 51.5 28.5t53.5 104.5h53q-41 -252 -201 -252q-74 0 -177 74.5t-136 74.5q-29 0 -51.5 -28.5t-53.5 -104.5 h-53z" />
<glyph unicode="&#xd2;" horiz-adv-x="1525" d="M94 627q0 279 195.5 479.5t476.5 200.5q287 0 476.5 -185.5t189.5 -476.5q0 -279 -196 -478.5t-476 -199.5q-287 0 -476.5 185.5t-189.5 474.5zM311 651q0 -274 132 -441t322.5 -167t319.5 156t129 424q0 272 -133 439t-323.5 167t-318.5 -154.5t-128 -423.5zM469 1769 h201l190 -383h-45z" />
<glyph unicode="&#xd3;" horiz-adv-x="1525" d="M94 627q0 279 195.5 479.5t476.5 200.5q287 0 476.5 -185.5t189.5 -476.5q0 -279 -196 -478.5t-476 -199.5q-287 0 -476.5 185.5t-189.5 474.5zM311 651q0 -274 132 -441t322.5 -167t319.5 156t129 424q0 272 -133 439t-323.5 167t-318.5 -154.5t-128 -423.5zM659 1386 l187 383h209l-346 -383h-50z" />
<glyph unicode="&#xd4;" horiz-adv-x="1525" d="M94 627q0 279 195.5 479.5t476.5 200.5q287 0 476.5 -185.5t189.5 -476.5q0 -279 -196 -478.5t-476 -199.5q-287 0 -476.5 185.5t-189.5 474.5zM311 651q0 -274 132 -441t322.5 -167t319.5 156t129 424q0 272 -133 439t-323.5 167t-318.5 -154.5t-128 -423.5zM502 1386 l217 383h86l217 -383h-55l-203 222h-4l-203 -222h-55z" />
<glyph unicode="&#xd5;" horiz-adv-x="1525" d="M94 627q0 279 195.5 479.5t476.5 200.5q287 0 476.5 -185.5t189.5 -476.5q0 -279 -196 -478.5t-476 -199.5q-287 0 -476.5 185.5t-189.5 474.5zM311 651q0 -274 132 -441t322.5 -167t319.5 156t129 424q0 272 -133 439t-323.5 167t-318.5 -154.5t-128 -423.5zM426 1423 q41 252 201 252q57 0 118.5 -36.5t111.5 -74.5t83 -38q29 0 51.5 28.5t52.5 104.5h54q-41 -252 -201 -252q-74 0 -177.5 74.5t-135.5 74.5q-29 0 -51.5 -28.5t-53.5 -104.5h-53z" />
<glyph unicode="&#xd6;" horiz-adv-x="1525" d="M94 627q0 279 195.5 479.5t476.5 200.5q287 0 476.5 -185.5t189.5 -476.5q0 -279 -196 -478.5t-476 -199.5q-287 0 -476.5 185.5t-189.5 474.5zM311 651q0 -274 132 -441t322.5 -167t319.5 156t129 424q0 272 -133 439t-323.5 167t-318.5 -154.5t-128 -423.5zM436 1585 q0 53 33 91t88 38t88 -38t33 -91t-33 -91t-88 -38t-88 38t-33 91zM846 1585q0 53 32.5 91t88 38t88 -38t32.5 -91t-32.5 -91t-88 -38t-88 38t-32.5 91z" />
<glyph unicode="&#xd7;" horiz-adv-x="983" d="M70 135l346 346l-346 344l77 76l345 -344l344 344l77 -76l-346 -344l346 -346l-77 -76l-344 344l-345 -344z" />
<glyph unicode="&#xd8;" horiz-adv-x="1525" d="M82 627q0 281 177 481.5t472 200.5q166 0 305 -70l99 170h96l-123 -211q129 -88 200.5 -229.5t71.5 -317.5q0 -281 -177 -481.5t-472 -200.5q-164 0 -299 66l-108 -187h-95l131 228q-131 86 -204.5 229.5t-73.5 321.5zM268 672q0 -289 166 -469l539 925q-117 94 -262 95 q-197 0 -320 -149.5t-123 -401.5zM496 147q117 -88 256 -88q197 0 319.5 148.5t122.5 400.5q0 283 -160 463q-537 -924 -538 -924z" />
<glyph unicode="&#xd9;" horiz-adv-x="1462" d="M74 1280h518l-6 -72l-84 -10q-72 -8 -72 -37v-688q0 -389 367 -389q160 0 250 94t90 260v344q0 315 -23 365q-16 37 -67 45l-99 16l-6 72h471l-6 -72l-96 -16q-35 -6 -50.5 -16.5t-26.5 -56.5t-13 -115.5t-2 -221.5v-364q0 -207 -132.5 -328t-361.5 -121q-233 0 -361 116 t-128 343v737q0 14 -13.5 20.5t-58.5 12.5l-84 10zM438 1769h201l190 -383h-45z" />
<glyph unicode="&#xda;" horiz-adv-x="1462" d="M74 1280h518l-6 -72l-84 -10q-72 -8 -72 -37v-688q0 -389 367 -389q160 0 250 94t90 260v344q0 315 -23 365q-16 37 -67 45l-99 16l-6 72h471l-6 -72l-96 -16q-35 -6 -50.5 -16.5t-26.5 -56.5t-13 -115.5t-2 -221.5v-364q0 -207 -132.5 -328t-361.5 -121q-233 0 -361 116 t-128 343v737q0 14 -13.5 20.5t-58.5 12.5l-84 10zM711 1386l186 383h209l-346 -383h-49z" />
<glyph unicode="&#xdb;" horiz-adv-x="1462" d="M74 1280h518l-6 -72l-84 -10q-72 -8 -72 -37v-688q0 -389 367 -389q160 0 250 94t90 260v344q0 315 -23 365q-16 37 -67 45l-99 16l-6 72h471l-6 -72l-96 -16q-35 -6 -50.5 -16.5t-26.5 -56.5t-13 -115.5t-2 -221.5v-364q0 -207 -132.5 -328t-361.5 -121q-233 0 -361 116 t-128 343v737q0 14 -13.5 20.5t-58.5 12.5l-84 10zM512 1386l217 383h86l217 -383h-55l-203 222h-4l-203 -222h-55z" />
<glyph unicode="&#xdc;" horiz-adv-x="1462" d="M74 1280h518l-6 -72l-84 -10q-72 -8 -72 -37v-688q0 -389 367 -389q160 0 250 94t90 260v344q0 315 -23 365q-16 37 -67 45l-99 16l-6 72h471l-6 -72l-96 -16q-35 -6 -50.5 -16.5t-26.5 -56.5t-13 -115.5t-2 -221.5v-364q0 -207 -132.5 -328t-361.5 -121q-233 0 -361 116 t-128 343v737q0 14 -13.5 20.5t-58.5 12.5l-84 10zM406 1585q0 53 32.5 91t88 38t88 -38t32.5 -91t-32.5 -91t-88 -38t-88 38t-32.5 91zM815 1585q0 53 33 91t88 38t88 -38t33 -91t-33 -91t-88 -38t-88 38t-33 91z" />
<glyph unicode="&#xdd;" horiz-adv-x="1232" d="M-16 1280h524l-6 -72l-82 -12q-25 -4 -34 -17.5t-5 -39t22.5 -64.5t53.5 -96l205 -338h10l229 403q45 74 40 109t-58 45l-49 10l-7 72h414l-6 -72l-29 -8q-61 -18 -102 -49t-88 -102l-289 -488v-446q0 -25 72 -33l123 -10l6 -72h-598l6 72l125 10q72 8 71 37v413 l-368 586q-43 59 -109 74l-65 16zM514 1386l186 383h209l-346 -383h-49z" />
<glyph unicode="&#xde;" horiz-adv-x="1204" d="M84 0l6 72l84 10q72 8 72 37v1046q0 14 -13.5 20.5t-58.5 12.5l-84 10l-6 72h518l-6 -72l-84 -10q-72 -10 -72 -37v-131h170q242 0 371 -98t129 -254q0 -195 -142.5 -303.5t-359.5 -108.5q-61 0 -168 10v-161q0 -25 72 -33l123 -10l6 -72h-557zM440 367q82 -20 176 -21 q133 0 209 78t76 213q0 147 -96 230t-268 83h-97v-583z" />
<glyph unicode="&#xdf;" horiz-adv-x="1064" d="M25 819l12 99l145 6l2 24q20 238 126 355.5t282 117.5q150 0 238 -76.5t88 -205.5q0 -199 -244 -273q143 -82 250.5 -219t107.5 -297q0 -150 -101.5 -266.5t-236.5 -116.5q-96 0 -164.5 52.5t-68.5 127.5q0 57 37 95.5t90 38.5q70 0 99.5 -46.5t14 -99.5t-64.5 -74 q33 -16 63 -16q76 0 130.5 65.5t54.5 161.5q0 137 -104.5 289t-295.5 260v53q137 23 202 87.5t65 183.5q0 80 -55.5 137t-131.5 57q-205 0 -205 -303v-1036h-301l7 72l69 6q57 2 58 39v692z" />
<glyph unicode="&#xe0;" horiz-adv-x="917" d="M63 702q0 76 134.5 162t255.5 86q182 0 244.5 -90t52.5 -332l-15 -348q-4 -80 47 -80q37 0 101 50l35 -46q-106 -137 -201 -137q-129 0 -137 150h-11q-133 -147 -254 -148q-98 0 -171.5 70t-73.5 170q0 125 121.5 205t390.5 143v18q0 160 -50.5 219.5t-148.5 59.5 q-49 0 -100.5 -16.5t-51.5 -30.5q0 -2 11.5 -17.5t24 -38t12.5 -46.5q0 -41 -30 -70t-79 -29q-47 0 -77 28t-30 68zM121 1427h201l190 -383h-45zM242 252q0 -68 43 -111t104 -43q82 0 178 86l11 305q-188 -47 -262 -105t-74 -132z" />
<glyph unicode="&#xe1;" horiz-adv-x="917" d="M63 702q0 76 134.5 162t255.5 86q182 0 244.5 -90t52.5 -332l-15 -348q-4 -80 47 -80q37 0 101 50l35 -46q-106 -137 -201 -137q-129 0 -137 150h-11q-133 -147 -254 -148q-98 0 -171.5 70t-73.5 170q0 125 121.5 205t390.5 143v18q0 160 -50.5 219.5t-148.5 59.5 q-49 0 -100.5 -16.5t-51.5 -30.5q0 -2 11.5 -17.5t24 -38t12.5 -46.5q0 -41 -30 -70t-79 -29q-47 0 -77 28t-30 68zM242 252q0 -68 43 -111t104 -43q82 0 178 86l11 305q-188 -47 -262 -105t-74 -132zM352 1044l187 383h209l-347 -383h-49z" />
<glyph unicode="&#xe2;" horiz-adv-x="917" d="M63 702q0 76 134.5 162t255.5 86q182 0 244.5 -90t52.5 -332l-15 -348q-4 -80 47 -80q37 0 101 50l35 -46q-106 -137 -201 -137q-129 0 -137 150h-11q-133 -147 -254 -148q-98 0 -171.5 70t-73.5 170q0 125 121.5 205t390.5 143v18q0 160 -50.5 219.5t-148.5 59.5 q-49 0 -100.5 -16.5t-51.5 -30.5q0 -2 11.5 -17.5t24 -38t12.5 -46.5q0 -41 -30 -70t-79 -29q-47 0 -77 28t-30 68zM154 1044l217 383h86l217 -383h-56l-202 222h-4l-203 -222h-55zM242 252q0 -68 43 -111t104 -43q82 0 178 86l11 305q-188 -47 -262 -105t-74 -132z" />
<glyph unicode="&#xe3;" horiz-adv-x="917" d="M63 702q0 76 134.5 162t255.5 86q182 0 244.5 -90t52.5 -332l-15 -348q-4 -80 47 -80q37 0 101 50l35 -46q-106 -137 -201 -137q-129 0 -137 150h-11q-133 -147 -254 -148q-98 0 -171.5 70t-73.5 170q0 125 121.5 205t390.5 143v18q0 160 -50.5 219.5t-148.5 59.5 q-49 0 -100.5 -16.5t-51.5 -30.5q0 -2 11.5 -17.5t24 -38t12.5 -46.5q0 -41 -30 -70t-79 -29q-47 0 -77 28t-30 68zM78 1081q41 252 201 252q57 0 118.5 -38t111.5 -74.5t83 -36.5q29 0 51.5 28.5t52.5 104.5h54q-41 -252 -201 -252q-74 0 -177.5 74.5t-135.5 74.5 q-29 0 -51.5 -28.5t-53.5 -104.5h-53zM242 252q0 -68 43 -111t104 -43q82 0 178 86l11 305q-188 -47 -262 -105t-74 -132z" />
<glyph unicode="&#xe4;" horiz-adv-x="917" d="M63 702q0 76 134.5 162t255.5 86q182 0 244.5 -90t52.5 -332l-15 -348q-4 -80 47 -80q37 0 101 50l35 -46q-106 -137 -201 -137q-129 0 -137 150h-11q-133 -147 -254 -148q-98 0 -171.5 70t-73.5 170q0 125 121.5 205t390.5 143v18q0 160 -50.5 219.5t-148.5 59.5 q-49 0 -100.5 -16.5t-51.5 -30.5q0 -2 11.5 -17.5t24 -38t12.5 -46.5q0 -41 -30 -70t-79 -29q-47 0 -77 28t-30 68zM109 1243q0 53 32.5 91t88 38t88 -38t32.5 -91t-32.5 -91t-88 -38t-88 38t-32.5 91zM242 252q0 -68 43 -111t104 -43q82 0 178 86l11 305 q-188 -47 -262 -105t-74 -132zM518 1243q0 53 33 91t88 38t88 -38t33 -91t-33 -91t-88 -38t-88 38t-33 91z" />
<glyph unicode="&#xe5;" horiz-adv-x="917" d="M63 702q0 76 134.5 162t255.5 86q182 0 244.5 -90t52.5 -332l-15 -348q-4 -80 47 -80q37 0 101 50l35 -46q-106 -137 -201 -137q-129 0 -137 150h-11q-133 -147 -254 -148q-98 0 -171.5 70t-73.5 170q0 125 121.5 205t390.5 143v18q0 160 -50.5 219.5t-148.5 59.5 q-49 0 -100.5 -16.5t-51.5 -30.5q0 -2 11.5 -17.5t24 -38t12.5 -46.5q0 -41 -30 -70t-79 -29q-47 0 -77 28t-30 68zM242 252q0 -68 43 -111t104 -43q82 0 178 86l11 305q-188 -47 -262 -105t-74 -132zM262 1243q0 78 50 131t132 53t132.5 -53t50.5 -131t-50.5 -131 t-132.5 -53t-132 53t-50 131zM324 1243q0 -53 32.5 -91t88 -38t88 38t32.5 91t-32.5 91t-88 38t-88 -38t-32.5 -91z" />
<glyph unicode="&#xe6;" horiz-adv-x="1452" d="M63 702q0 76 134.5 162t255.5 86q225 0 272 -137q139 135 326 135q145 0 232 -84t87 -223q0 -61 -12 -111l-608 9v-23q0 -176 90 -287.5t227 -111.5q154 0 250 108l41 -22q-57 -113 -154.5 -173.5t-218.5 -60.5q-111 0 -201 54.5t-145 146.5q-145 -201 -324 -201 q-98 0 -171.5 70t-73.5 170q0 125 121.5 205t390.5 143l2 27q12 141 -45.5 205.5t-155.5 64.5q-49 0 -100.5 -16.5t-51.5 -30.5q0 -2 11.5 -17.5t24 -38t12.5 -46.5q0 -41 -30 -70t-79 -29q-47 0 -77 28t-30 68zM242 252q0 -70 43 -112t110 -42q117 0 217 119 q-39 100 -39 211q1 30 5 59q-188 -47 -262 -104t-74 -131zM756 604h426q8 123 -41 195.5t-135 72.5q-88 0 -160 -72.5t-90 -195.5z" />
<glyph unicode="&#xe7;" horiz-adv-x="901" d="M66 428q0 223 143 371.5t342 148.5q133 0 212 -58.5t79 -137.5q0 -59 -35 -85t-80 -26q-59 0 -92 57.5t-17 132.5v5q-45 33 -112 32q-115 0 -189.5 -94t-74.5 -252q0 -174 90 -289.5t227 -115.5q154 0 250 108l41 -22q-102 -205 -315 -230l-86 -90q125 0 196.5 -49 t71.5 -137q0 -102 -115 -169t-315 -81l-19 49q322 39 322 176q0 49 -45 79t-129 30q-63 0 -127 -12v41l153 161q-166 14 -271 142.5t-105 314.5z" />
<glyph unicode="&#xe8;" horiz-adv-x="944" d="M66 428q0 225 138 372.5t339 147.5q145 0 232 -84t87 -223q0 -61 -12 -111l-608 9v-23q0 -176 90 -287.5t227 -111.5q154 0 250 108l41 -22q-57 -113 -154.5 -173.5t-218.5 -60.5q-180 0 -295.5 132t-115.5 327zM178 1427h201l190 -383h-45zM248 604h426q8 123 -41 195.5 t-135 72.5q-88 0 -160 -72.5t-90 -195.5z" />
<glyph unicode="&#xe9;" horiz-adv-x="944" d="M66 428q0 225 138 372.5t339 147.5q145 0 232 -84t87 -223q0 -61 -12 -111l-608 9v-23q0 -176 90 -287.5t227 -111.5q154 0 250 108l41 -22q-57 -113 -154.5 -173.5t-218.5 -60.5q-180 0 -295.5 132t-115.5 327zM248 604h426q8 123 -41 195.5t-135 72.5q-88 0 -160 -72.5 t-90 -195.5zM369 1044l186 383h209l-346 -383h-49z" />
<glyph unicode="&#xea;" horiz-adv-x="944" d="M66 428q0 225 138 372.5t339 147.5q145 0 232 -84t87 -223q0 -61 -12 -111l-608 9v-23q0 -176 90 -287.5t227 -111.5q154 0 250 108l41 -22q-57 -113 -154.5 -173.5t-218.5 -60.5q-180 0 -295.5 132t-115.5 327zM211 1044l217 383h86l217 -383h-55l-203 222h-4l-203 -222 h-55zM248 604h426q8 123 -41 195.5t-135 72.5q-88 0 -160 -72.5t-90 -195.5z" />
<glyph unicode="&#xeb;" horiz-adv-x="944" d="M66 428q0 225 138 372.5t339 147.5q145 0 232 -84t87 -223q0 -61 -12 -111l-608 9v-23q0 -176 90 -287.5t227 -111.5q154 0 250 108l41 -22q-57 -113 -154.5 -173.5t-218.5 -60.5q-180 0 -295.5 132t-115.5 327zM145 1243q0 53 33 91t88.5 38t88 -38t32.5 -91t-32.5 -91 t-88 -38t-88.5 38t-33 91zM248 604h426q8 123 -41 195.5t-135 72.5q-88 0 -160 -72.5t-90 -195.5zM555 1243q0 53 33 91t88 38t88 -38t33 -91t-33 -91t-88 -38t-88 38t-33 91z" />
<glyph unicode="&#xec;" horiz-adv-x="557" d="M-25 1427h201l191 -383h-45zM57 813l2 55l303 80v-833q0 -33 78 -37l60 -6l6 -72h-445l7 72l57 6q70 6 70 39v518q0 94 -15.5 122.5t-73.5 43.5z" />
<glyph unicode="&#xed;" horiz-adv-x="557" d="M57 813l2 55l303 80v-833q0 -33 78 -37l60 -6l6 -72h-445l7 72l57 6q70 6 70 39v518q0 94 -15.5 122.5t-73.5 43.5zM176 1044l186 383h209l-346 -383h-49z" />
<glyph unicode="&#xee;" horiz-adv-x="557" d="M18 1044l218 383h86l217 -383h-56l-202 222h-5l-202 -222h-56zM57 813l2 55l303 80v-833q0 -33 78 -37l60 -6l6 -72h-445l7 72l57 6q70 6 70 39v518q0 94 -15.5 122.5t-73.5 43.5z" />
<glyph unicode="&#xef;" horiz-adv-x="557" d="M-47 1243q0 53 32.5 91t88 38t88.5 -38t33 -91t-33 -91t-88.5 -38t-88 38t-32.5 91zM57 813l2 55l303 80v-833q0 -33 78 -37l60 -6l6 -72h-445l7 72l57 6q70 6 70 39v518q0 94 -15.5 122.5t-73.5 43.5zM362 1243q0 53 33 91t88.5 38t88 -38t32.5 -91t-32.5 -91t-88 -38 t-88.5 38t-33 91z" />
<glyph unicode="&#xf0;" horiz-adv-x="1046" d="M66 459q0 215 129 348t297 133q207 0 313 -190q-54 255 -232 407l-305 -102v88l221 74q-98 61 -223 96l25 61q170 -35 309 -121l264 88v-88q-178 -59 -180 -59q309 -248 313 -655q0 -252 -129 -411t-340 -159q-203 0 -332.5 141.5t-129.5 348.5zM248 524 q0 -119 33.5 -224t93.5 -165q78 -78 178 -78q113 0 186.5 88t73.5 248q0 121 -32.5 225.5t-92.5 163.5q-78 78 -178 78q-117 0 -189.5 -88t-72.5 -248z" />
<glyph unicode="&#xf1;" horiz-adv-x="1120" d="M57 813l2 55l303 80v-145h11q176 145 327 145q104 0 168 -63q78 -78 78 -230v-538q0 -16 16.5 -24.5t67.5 -14.5l53 -6l7 -72h-441l6 72l54 6q70 4 69 39v428q0 145 -46 203.5t-142 58.5q-111 0 -228 -86v-606q0 -33 78 -37l70 -6l6 -72h-455l7 72l57 6q70 6 70 39v518 q0 94 -15.5 122.5t-73.5 43.5zM223 1081q41 252 201 252q57 0 118.5 -38t112 -74.5t82.5 -36.5q29 0 51.5 28.5t53.5 104.5h53q-41 -252 -201 -252q-74 0 -177 74.5t-136 74.5q-29 0 -51.5 -28.5t-53.5 -104.5h-53z" />
<glyph unicode="&#xf2;" horiz-adv-x="1060" d="M66 455q0 207 141 350t344 143q197 0 320.5 -132t123.5 -331q0 -215 -139 -365.5t-344 -150.5q-201 0 -323.5 139.5t-122.5 346.5zM217 1427h201l190 -383h-45zM252 518q0 -270 110 -387q72 -78 179 -78q113 0 190.5 93t77.5 253q0 272 -109 387q-72 78 -178 78 q-117 0 -193.5 -93t-76.5 -253z" />
<glyph unicode="&#xf3;" horiz-adv-x="1060" d="M66 455q0 207 141 350t344 143q197 0 320.5 -132t123.5 -331q0 -215 -139 -365.5t-344 -150.5q-201 0 -323.5 139.5t-122.5 346.5zM252 518q0 -270 110 -387q72 -78 179 -78q113 0 190.5 93t77.5 253q0 272 -109 387q-72 78 -178 78q-117 0 -193.5 -93t-76.5 -253z M449 1044l186 383h209l-346 -383h-49z" />
<glyph unicode="&#xf4;" horiz-adv-x="1060" d="M66 455q0 207 141 350t344 143q197 0 320.5 -132t123.5 -331q0 -215 -139 -365.5t-344 -150.5q-201 0 -323.5 139.5t-122.5 346.5zM252 518q0 -270 110 -387q72 -78 179 -78q113 0 190.5 93t77.5 253q0 272 -109 387q-72 78 -178 78q-117 0 -193.5 -93t-76.5 -253z M270 1044l217 383h86l218 -383h-56l-203 222h-4l-202 -222h-56z" />
<glyph unicode="&#xf5;" horiz-adv-x="1060" d="M66 455q0 207 141 350t344 143q197 0 320.5 -132t123.5 -331q0 -215 -139 -365.5t-344 -150.5q-201 0 -323.5 139.5t-122.5 346.5zM195 1081q41 252 200 252q57 0 118.5 -38t112 -74.5t83.5 -36.5q29 0 51 28.5t53 104.5h53q-41 -252 -200 -252q-74 0 -177.5 74.5 t-136.5 74.5q-29 0 -51 -28.5t-53 -104.5h-53zM252 518q0 -270 110 -387q72 -78 179 -78q113 0 190.5 93t77.5 253q0 272 -109 387q-72 78 -178 78q-117 0 -193.5 -93t-76.5 -253z" />
<glyph unicode="&#xf6;" horiz-adv-x="1060" d="M66 455q0 207 141 350t344 143q197 0 320.5 -132t123.5 -331q0 -215 -139 -365.5t-344 -150.5q-201 0 -323.5 139.5t-122.5 346.5zM205 1243q0 53 32.5 91t88 38t88 -38t32.5 -91t-32.5 -91t-88 -38t-88 38t-32.5 91zM252 518q0 -270 110 -387q72 -78 179 -78 q113 0 190.5 93t77.5 253q0 272 -109 387q-72 78 -178 78q-117 0 -193.5 -93t-76.5 -253zM614 1243q0 53 33 91t88.5 38t88 -38t32.5 -91t-32.5 -91t-88 -38t-88.5 38t-33 91z" />
<glyph unicode="&#xf7;" horiz-adv-x="995" d="M84 426l6 109h817l6 -109h-829zM395 193q0 43 31 73.5t76 30.5t74.5 -30.5t29.5 -73.5t-29.5 -75t-74.5 -32t-76 32t-31 75zM395 766q0 43 30 74.5t75 31.5t75.5 -31.5t30.5 -74.5t-30.5 -75t-75.5 -32t-75 32t-30 75z" />
<glyph unicode="&#xf8;" horiz-adv-x="1060" d="M72 -264l184 319q-184 139 -184 404q0 207 132 348t328 141q111 0 209 -49l189 326h82l-211 -365q86 -66 134 -171t48 -230q0 -207 -132 -348.5t-329 -141.5q-109 0 -207 49l-161 -282h-82zM238 522q0 -207 92 -338l346 602q-78 74 -187 74q-111 0 -181 -88t-70 -250z M379 127q80 -70 184 -70q109 0 180.5 90t71.5 248q0 203 -90 332z" />
<glyph unicode="&#xf9;" horiz-adv-x="1083" d="M18 918h324l-16 -545q0 -145 46 -203.5t142 -58.5q111 0 227 86v606q0 16 -15 24.5t-62 12.5l-80 6l-9 72h334v-773q0 -39 23 -47l137 -41l-6 -51l-322 -37v146h-10q-176 -145 -328 -146q-104 0 -167 64q-78 78 -78 229l6 539q0 10 -2 16t-5 9t-11.5 5.5t-15.5 2.5 t-24.5 2t-31.5 4l-49 6zM207 1427h201l190 -383h-45z" />
<glyph unicode="&#xfa;" horiz-adv-x="1083" d="M18 918h324l-16 -545q0 -145 46 -203.5t142 -58.5q111 0 227 86v606q0 16 -15 24.5t-62 12.5l-80 6l-9 72h334v-773q0 -39 23 -47l137 -41l-6 -51l-322 -37v146h-10q-176 -145 -328 -146q-104 0 -167 64q-78 78 -78 229l6 539q0 10 -2 16t-5 9t-11.5 5.5t-15.5 2.5 t-24.5 2t-31.5 4l-49 6zM438 1044l187 383h209l-347 -383h-49z" />
<glyph unicode="&#xfb;" horiz-adv-x="1083" d="M18 918h324l-16 -545q0 -145 46 -203.5t142 -58.5q111 0 227 86v606q0 16 -15 24.5t-62 12.5l-80 6l-9 72h334v-773q0 -39 23 -47l137 -41l-6 -51l-322 -37v146h-10q-176 -145 -328 -146q-104 0 -167 64q-78 78 -78 229l6 539q0 10 -2 16t-5 9t-11.5 5.5t-15.5 2.5 t-24.5 2t-31.5 4l-49 6zM260 1044l217 383h86l217 -383h-55l-203 222h-4l-203 -222h-55z" />
<glyph unicode="&#xfc;" horiz-adv-x="1083" d="M18 918h324l-16 -545q0 -145 46 -203.5t142 -58.5q111 0 227 86v606q0 16 -15 24.5t-62 12.5l-80 6l-9 72h334v-773q0 -39 23 -47l137 -41l-6 -51l-322 -37v146h-10q-176 -145 -328 -146q-104 0 -167 64q-78 78 -78 229l6 539q0 10 -2 16t-5 9t-11.5 5.5t-15.5 2.5 t-24.5 2t-31.5 4l-49 6zM186 1243q0 53 33 91t88 38t88 -38t33 -91t-33 -91t-88 -38t-88 38t-33 91zM596 1243q0 53 33 91t88 38t88 -38t33 -91t-33 -91t-88 -38t-88 38t-33 91z" />
<glyph unicode="&#xfd;" horiz-adv-x="940" d="M-43 918h451l-7 -72l-51 -8q-76 -8 -45 -74l246 -543l168 475q25 72 14.5 101.5t-65.5 36.5l-56 14l-6 70h385l-6 -70l-53 -14q-45 -6 -68.5 -34t-58.5 -118l-240 -631l-102 -313q-47 -143 -99.5 -208t-136.5 -65q-66 0 -101.5 31t-35.5 82q0 47 25.5 78t74.5 31 q78 0 121 -66q37 18 80 135l86 240v4l-364 754q-20 43 -38 56t-67 21l-43 13zM367 1044l186 383h209l-346 -383h-49z" />
<glyph unicode="&#xfe;" horiz-adv-x="1054" d="M-6 1288l6 51l322 88v-645h10q135 152 293 152q168 0 266 -126t98 -314q0 -211 -129 -368t-348 -157q-94 0 -188 29h-2v-387q0 -33 77 -37l80 -6l6 -72h-465l7 72l57 6q70 6 70 39v1571q0 39 -23 47zM322 178q113 -125 233 -125q102 0 177 102.5t75 262.5 q0 170 -70.5 271.5t-183.5 101.5q-133 0 -231 -121v-492z" />
<glyph unicode="&#xff;" horiz-adv-x="940" d="M-43 918h451l-7 -72l-51 -8q-76 -8 -45 -74l246 -543l168 475q25 72 14.5 101.5t-65.5 36.5l-56 14l-6 70h385l-6 -70l-53 -14q-45 -6 -68.5 -34t-58.5 -118l-240 -631l-102 -313q-47 -143 -99.5 -208t-136.5 -65q-66 0 -101.5 31t-35.5 82q0 47 25.5 78t74.5 31 q78 0 121 -66q37 18 80 135l86 240v4l-364 754q-20 43 -38 56t-67 21l-43 13zM164 1243q0 53 32.5 91t88 38t88.5 -38t33 -91t-33 -91t-88.5 -38t-88 38t-32.5 91zM573 1243q0 53 33 91t88.5 38t88 -38t32.5 -91t-32.5 -91t-88 -38t-88.5 38t-33 91z" />
<glyph unicode="&#x152;" horiz-adv-x="1933" d="M94 614q0 289 201 478.5t569 189.5l942 -2v-381h-90l-49 199q-8 33 -18.5 47t-30 28.5t-71.5 18.5t-117.5 6t-194.5 2h-88v-510h74q125 0 159.5 7.5t44.5 37.5l48 137h73l-43 -440h-71l-17 131q-4 31 -36.5 40t-161.5 9h-70v-532h67q221 0 310.5 8t119 26.5t46.5 67.5 l51 189h102l-39 -371h-950q-338 0 -549 173t-211 441zM289 668q0 -266 161.5 -425t454.5 -159h62v1092l-148 30q-250 0 -390 -151.5t-140 -386.5z" />
<glyph unicode="&#x153;" horiz-adv-x="1687" d="M72 459q6 207 145 348t340 141q238 0 363 -188q139 188 372 188q145 0 232.5 -84t87.5 -223q0 -61 -13 -111l-608 9v-23q0 -176 90 -287.5t228 -111.5q154 0 250 108l40 -22q-57 -113 -154 -173.5t-218 -60.5q-217 1 -334 183q-143 -182 -375 -183q-203 0 -327.5 141.5 t-118.5 348.5zM258 524q-4 -272 111 -393q72 -78 178 -78q113 0 189.5 90t78.5 250q4 274 -108 393q-72 78 -179 78q-117 0 -192.5 -90t-77.5 -250zM997 604h426q8 123 -41 195.5t-135 72.5q-88 0 -159.5 -72.5t-90.5 -195.5z" />
<glyph unicode="&#x178;" horiz-adv-x="1232" d="M-16 1280h524l-6 -72l-82 -12q-25 -4 -34 -17.5t-5 -39t22.5 -64.5t53.5 -96l205 -338h10l229 403q45 74 40 109t-58 45l-49 10l-7 72h414l-6 -72l-29 -8q-61 -18 -102 -49t-88 -102l-289 -488v-446q0 -25 72 -33l123 -10l6 -72h-598l6 72l125 10q72 8 71 37v413 l-368 586q-43 59 -109 74l-65 16zM332 1585q0 53 32.5 91t88 38t88 -38t32.5 -91t-32.5 -91t-88 -38t-88 38t-32.5 91zM741 1585q0 53 33 91t88.5 38t88 -38t32.5 -91t-32.5 -91t-88 -38t-88.5 38t-33 91z" />
<glyph unicode="&#x2c6;" d="M150 1044l217 383h86l217 -383h-56l-202 222h-4l-203 -222h-55z" />
<glyph unicode="&#x2dc;" d="M74 1081q41 252 200 252q57 0 119 -38t112 -74.5t83 -36.5q29 0 51.5 28.5t52.5 104.5h53q-41 -252 -200 -252q-74 0 -177.5 74.5t-136.5 74.5q-29 0 -51 -28.5t-53 -104.5h-53z" />
<glyph unicode="&#x2000;" horiz-adv-x="884" />
<glyph unicode="&#x2001;" horiz-adv-x="1769" />
<glyph unicode="&#x2002;" horiz-adv-x="884" />
<glyph unicode="&#x2003;" horiz-adv-x="1769" />
<glyph unicode="&#x2004;" horiz-adv-x="589" />
<glyph unicode="&#x2005;" horiz-adv-x="442" />
<glyph unicode="&#x2006;" horiz-adv-x="294" />
<glyph unicode="&#x2007;" horiz-adv-x="294" />
<glyph unicode="&#x2008;" horiz-adv-x="221" />
<glyph unicode="&#x2009;" horiz-adv-x="353" />
<glyph unicode="&#x200a;" horiz-adv-x="98" />
<glyph unicode="&#x2010;" horiz-adv-x="671" d="M68 426l6 109h528l6 -109h-540z" />
<glyph unicode="&#x2011;" horiz-adv-x="671" d="M68 426l6 109h528l6 -109h-540z" />
<glyph unicode="&#x2012;" horiz-adv-x="671" d="M68 426l6 109h528l6 -109h-540z" />
<glyph unicode="&#x2013;" horiz-adv-x="962" d="M55 426l6 109h844l6 -109h-856z" />
<glyph unicode="&#x2014;" horiz-adv-x="1925" d="M55 426l6 109h1807l6 -109h-1819z" />
<glyph unicode="&#x2018;" horiz-adv-x="475" d="M68 958q0 117 80.5 213.5t211.5 194.5l54 -33q-70 -51 -123 -122.5t-53 -145.5q0 -35 16 -64.5t40.5 -48t48.5 -32t40 -20.5t16 -9q0 -53 -38.5 -89t-104.5 -36q-70 0 -129 56.5t-59 135.5z" />
<glyph unicode="&#x2019;" horiz-adv-x="475" d="M70 782q70 51 123 123t53 146q0 35 -16.5 64.5t-40 48t-48 31.5t-41 20.5t-16.5 9.5q0 53 39 89t104 36q70 0 129.5 -56.5t59.5 -136.5q0 -117 -81 -213t-212 -194z" />
<glyph unicode="&#x201a;" horiz-adv-x="475" d="M70 -328q70 51 123 123t53 146q0 35 -16.5 64.5t-40 48t-48 31.5t-41 20.5t-16.5 9.5q0 53 39 89t104 36q70 0 129.5 -56.5t59.5 -136.5q0 -117 -81 -213t-212 -194z" />
<glyph unicode="&#x201c;" horiz-adv-x="888" d="M68 958q0 117 80.5 213.5t211.5 194.5l54 -33q-70 -51 -123 -122.5t-53 -145.5q0 -35 16 -64.5t40.5 -48t48.5 -32t40 -20.5t16 -9q0 -53 -38.5 -89t-104.5 -36q-70 0 -129 56.5t-59 135.5zM510 958q0 117 81 213.5t212 194.5l53 -33q-70 -51 -123 -122.5t-53 -145.5 q0 -35 16.5 -64.5t41 -48t48 -32t40 -20.5t16.5 -9q0 -53 -39 -89t-105 -36q-70 0 -129 56.5t-59 135.5z" />
<glyph unicode="&#x201d;" horiz-adv-x="888" d="M70 782q70 51 123 123t53 146q0 35 -16.5 64.5t-40 48t-48 31.5t-41 20.5t-16.5 9.5q0 53 39 89t104 36q70 0 129.5 -56.5t59.5 -136.5q0 -117 -81 -213t-212 -194zM514 782q70 51 123 123t53 146q0 35 -16.5 64.5t-40 48t-48 31.5t-41 20.5t-16.5 9.5q0 53 39 89t105 36 q70 0 129 -56.5t59 -136.5q0 -117 -81 -213t-212 -194z" />
<glyph unicode="&#x201e;" horiz-adv-x="888" d="M70 -328q70 51 123 123t53 146q0 35 -16.5 64.5t-40 48t-48 31.5t-41 20.5t-16.5 9.5q0 53 39 89t104 36q70 0 129.5 -56.5t59.5 -136.5q0 -117 -81 -213t-212 -194zM514 -328q70 51 123 123t53 146q0 35 -16.5 64.5t-40 48t-48 31.5t-41 20.5t-16.5 9.5q0 53 39 89 t105 36q70 0 129 -56.5t59 -136.5q0 -117 -81 -213t-212 -194z" />
<glyph unicode="&#x2022;" horiz-adv-x="931" d="M72 475q0 45 43 146.5t73.5 132t133 72.5t145.5 42q45 0 146.5 -42t132 -72.5t72.5 -132t42 -146.5t-41 -146.5t-74 -133.5q-31 -31 -133 -73t-147 -42q-43 0 -145.5 42t-131.5 73q-31 33 -73.5 135t-42.5 145z" />
<glyph unicode="&#x2026;" horiz-adv-x="1425" d="M102 106.5q0 55.5 40 94.5t99.5 39t97.5 -39t38 -94.5t-39 -96.5t-96 -41q-59 0 -99.5 41t-40.5 96.5zM578 106.5q0 55.5 39.5 94.5t99 39t97.5 -39t38 -94.5t-39 -96.5t-96 -41q-59 0 -99 41t-40 96.5zM1053 106.5q0 55.5 40 94.5t99 39t97 -39t38 -94.5t-39 -96.5 t-96 -41q-59 0 -99 41t-40 96.5z" />
<glyph unicode="&#x202f;" horiz-adv-x="353" />
<glyph unicode="&#x2039;" horiz-adv-x="634" d="M78 406v94l444 311l21 -41l-293 -317l293 -318l-21 -41z" />
<glyph unicode="&#x203a;" horiz-adv-x="634" d="M98 135l293 318l-293 317l21 41l444 -311v-94l-444 -312z" />
<glyph unicode="&#x205f;" horiz-adv-x="442" />
<glyph unicode="&#x20ac;" horiz-adv-x="1073" d="M51 436l6 84h119q-2 27 -2 80q0 29 4 86h-127l6 84h131q43 231 189.5 374.5t345.5 143.5q127 0 219 -50t92 -120q0 -45 -27.5 -73.5t-72.5 -28.5q-53 0 -87 44t-46 105q-51 33 -115 33q-135 0 -221 -114.5t-109 -313.5h408l6 -84h-420v-45q0 -66 6 -121h408l6 -84h-399 q37 -162 128 -247t218 -85q154 0 280 142l41 -23q-129 -254 -383 -254q-178 0 -304 128t-163 339h-137z" />
<glyph unicode="&#x2122;" horiz-adv-x="1878" d="M61 1001l15 279h678v-279h-62l-12 39q-37 115 -72 148t-137 33h-2v-607q0 -23 25 -28l90 -13l2 -55h-371l4 55l90 13q27 6 27 28v607h-2q-86 0 -126 -36t-77 -145l-14 -39h-56zM850 518l4 55l61 11q14 2 22.5 15t16 59.5t9.5 138.5l12 385q0 27 -25 30l-71 13l-5 55h300 l139 -569h20l185 569h303l-4 -55l-70 -13q-29 -6 -29 -30l8 -467q2 -121 41 -127l62 -15l4 -55h-334l2 55l62 15q16 4 21 27.5t3 99.5l-8 475h-20l-220 -647h-102l-174 653h-21l-12 -399q-4 -137 -1 -171t24 -42l65 -11l2 -55h-270z" />
<glyph unicode="&#x25fc;" horiz-adv-x="921" d="M0 0v922h922v-922h-922z" />
</font>
</defs>
</svg>
