<?xml version="1.0" standalone="no"?>
<!DOCTYPE svg PUBLIC "-//W3C//DTD SVG 1.1//EN" "http://www.w3.org/Graphics/SVG/1.1/DTD/svg11.dtd" >
<svg xmlns="http://www.w3.org/2000/svg" xmlns:xlink="http://www.w3.org/1999/xlink" version="1.1">
<metadata></metadata>
<defs>
<font id="freighttexfreighttextproSBdIt" horiz-adv-x="819" >
<font-face units-per-em="2048" ascent="1489" descent="-559" />
<missing-glyph horiz-adv-x="466" />
<glyph unicode="&#xfb01;" horiz-adv-x="1044" d="M-346 -356q0 53 30.5 85.5t79.5 32.5q57 0 93.5 -44t42.5 -111l110 39q39 92 86 366l133 787l-182 10l6 65l195 56q43 238 166 360q141 137 354 137q104 0 166.5 -50t62.5 -124q0 -53 -32.5 -90t-81.5 -37q-57 0 -97.5 49.5t-54.5 124.5l-205 -26q-57 -137 -90 -356h246 q57 37 100 36q37 0 101.5 -46t58.5 -68l-194 -713l49 -18l164 118l36 -39q-47 -82 -129 -150.5t-149 -68.5q-35 0 -96.5 47t-57.5 70l189 715l-17 8h-321l-115 -598q-90 -471 -223 -612q-96 -102 -244 -103q-76 0 -128 41t-52 107z" />
<glyph unicode="&#xfb02;" horiz-adv-x="1067" d="M-346 -356q0 53 30.5 85.5t79.5 32.5q57 0 93.5 -44t42.5 -111l114 39q47 96 90 366l119 787l-176 10l6 65l195 56q43 238 166 360q141 137 354 137q86 0 145 -36l138 36l-275 -1300l47 -18l166 118l35 -39q-47 -82 -129 -150.5t-150 -68.5q-35 0 -95 48.5t-56 68.5 l145 723h-323l-115 -598q-90 -471 -223 -612q-96 -102 -244 -103q-76 0 -128 41t-52 107zM436 918h324l47 233q-53 39 -76 149l-205 -26q-57 -137 -90 -356z" />
<glyph unicode="&#xfb03;" horiz-adv-x="1570" d="M-346 -356q0 53 30.5 85.5t79.5 32.5q57 0 93.5 -44t42.5 -111l110 39q39 92 86 366l133 787l-182 10l6 65l195 56q41 231 164 354q66 63 134 95t171 32q82 0 140.5 -38t74.5 -95l10 12q137 137 352 137q106 0 169 -50t63 -124q0 -53 -34 -90t-83 -37q-57 0 -96 49.5 t-53 124.5l-207 -26q-53 -129 -88 -356h243q59 37 101 36q37 0 102.5 -46t56.5 -68l-192 -713l49 -18l164 118l35 -39q-47 -82 -128 -150.5t-149 -68.5q-35 0 -97.5 47t-57.5 70l188 715l-16 8h-320l-106 -535q-96 -485 -224 -614q-104 -104 -225 -104q-76 0 -129 41 t-53 106q0 51 31.5 85t80.5 34q57 0 93.5 -44t42.5 -112l96 41q45 102 88 367l115 735h-338l-115 -598q-90 -471 -223 -612q-96 -102 -244 -103q-76 0 -128 41t-52 107zM436 918h338q22 128 55 204h-8q-55 0 -93 48.5t-50 121.5l-158 -26q-53 -150 -84 -348z" />
<glyph unicode="&#xfb04;" horiz-adv-x="1595" d="M-346 -356q0 53 30.5 85.5t79.5 32.5q57 0 93.5 -44t42.5 -111l110 39q39 92 86 366l133 787l-182 10l6 65l195 56q41 231 164 354q66 63 134 95t171 32q82 0 140.5 -38t74.5 -95l10 12q137 137 352 137q86 0 146 -36l139 36l-276 -1300l49 -18l164 118l34 -39 q-45 -82 -127 -150.5t-149 -68.5q-35 0 -96.5 48.5t-57.5 68.5l146 723h-322l-106 -535q-96 -485 -224 -614q-104 -104 -225 -104q-76 0 -129 41t-53 106q0 51 31.5 85t80.5 34q57 0 93.5 -44t42.5 -112l96 41q45 102 88 367l115 735h-338l-115 -598q-90 -471 -223 -612 q-96 -102 -244 -103q-76 0 -128 41t-52 107zM436 918h338q22 128 55 204h-8q-55 0 -93 48.5t-50 121.5l-158 -26q-53 -150 -84 -348zM965 918h323l47 233q-55 41 -75 149l-207 -26q-53 -129 -88 -356z" />
<glyph horiz-adv-x="0" />
<glyph unicode="&#xd;" horiz-adv-x="681" />
<glyph unicode=" "  horiz-adv-x="466" />
<glyph unicode="&#x09;" horiz-adv-x="466" />
<glyph unicode="&#xa0;" horiz-adv-x="466" />
<glyph unicode="!" horiz-adv-x="591" d="M115 102q0 53 39 91t96 38q55 0 93 -38t38 -91q0 -55 -38 -94t-93 -39q-57 0 -96 39t-39 94zM262 410l12 807q4 94 111 94h8q72 0 103.5 -29t19.5 -80l-209 -796q-4 -12 -24.5 -11.5t-20.5 15.5z" />
<glyph unicode="&#x22;" horiz-adv-x="768" d="M66 825l223 498h4l174 -61l-315 -437h-86zM408 825l223 498h2l176 -61l-317 -437h-84z" />
<glyph unicode="#" horiz-adv-x="1175" d="M20 365v90h283l98 366h-260l2 88h281l104 383h90l-102 -383h334l104 383h88l-102 -383h260v-88h-282l-99 -366h260l-2 -90h-282l-103 -377h-88l101 377h-336l-103 -377h-90l103 377h-259zM393 455h336l98 366h-335z" />
<glyph unicode="$" horiz-adv-x="1073" d="M43 33l31 381l106 -2l60 -295q51 -25 106 -35l129 483q-158 84 -234.5 170t-76.5 223q0 147 134 248t314 101q43 0 62 -2l55 206h88q-55 -213 -57 -213q66 -8 160 -30l108 28l-53 -405l-111 2l-35 264q-35 16 -98 35l-117 -432q82 -47 127 -78t99.5 -80t79 -107.5 t24.5 -132.5q0 -176 -141 -284.5t-354 -108.5h-46l-84 -309h-88l86 315q-123 12 -274 58zM373 1042q-2 -76 40 -131t126 -110l110 405q-10 0 -30.5 1t-32.5 1q-86 0 -149.5 -47t-63.5 -119zM430 68q16 -2 51 -2q121 0 187.5 58t66.5 155q2 74 -45 131t-139 114z" />
<glyph unicode="%" horiz-adv-x="1527" d="M86 -31l1290 1340h121l-1290 -1340h-121zM106 946q0 156 110 267.5t263 111.5q137 0 230.5 -82t93.5 -219q0 -160 -109.5 -271.5t-267.5 -111.5q-135 0 -227.5 84t-92.5 221zM205 950q0 -100 65.5 -161.5t163.5 -61.5q113 0 189.5 81t76.5 196q0 102 -64.5 166.5 t-164.5 64.5q-111 0 -188.5 -86t-77.5 -199zM795 254q0 160 107.5 271.5t264.5 111.5q135 0 227.5 -82t92.5 -219q0 -158 -110.5 -270.5t-266.5 -112.5q-139 0 -227 82t-88 219zM893 262q0 -100 64.5 -161.5t160.5 -61.5q113 0 192 85t79 200q0 96 -67 159.5t-163 63.5 q-111 0 -188.5 -86t-77.5 -199z" />
<glyph unicode="&#x26;" horiz-adv-x="1320" d="M6 287q0 158 107.5 257t255.5 130v2q-139 135 -140 285q0 156 124 252t292 96q150 0 247 -74t97 -193q0 -246 -383 -335v-2l264 -287h2l232 203v4q-92 31 -92 114q0 51 39 84t96 33q59 0 99 -40t40 -97q0 -78 -63.5 -147.5t-200.5 -143.5l-102 -59l307 -334l-219 -76 l-246 289h-2q-121 -141 -231.5 -210t-237.5 -69q-123 0 -204 92.5t-81 225.5zM209 338q0 -88 51 -143.5t129 -55.5q121 0 324 156l-299 336q-205 -127 -205 -293zM434 1024q0 -63 17.5 -114.5t38 -79t63.5 -76.5q233 118 233 272q0 86 -42 143.5t-121 57.5 q-86 0 -137.5 -58.5t-51.5 -144.5z" />
<glyph unicode="'" horiz-adv-x="428" d="M66 825l225 498h2l174 -61l-315 -437h-86z" />
<glyph unicode="(" horiz-adv-x="808" d="M186 428q0 178 53.5 342t138.5 280.5t175 198.5t180 127l55 -76q-184 -98 -337.5 -335.5t-153.5 -536.5q0 -156 47 -303.5t122 -257t158 -188t164 -121.5l-55 -78q-90 45 -180 127t-175 199.5t-138.5 281.5t-53.5 340z" />
<glyph unicode=")" horiz-adv-x="808" d="M20 -444q184 98 338 335.5t154 536.5t-153.5 536.5t-338.5 335.5l58 76q88 -45 178 -127t175 -198.5t138.5 -280.5t53.5 -342q0 -176 -53.5 -340t-138.5 -281.5t-175 -199.5t-178 -127z" />
<glyph unicode="*" horiz-adv-x="720" d="M137 1167l29 37l129 -10l108 -180l33 10l-6 211l94 78l45 -15l29 -120l-137 -164l20 -27l199 76l104 -70v-45l-104 -69l-199 77l-20 -26l135 -164l-31 -121l-43 -12l-98 78l10 213l-31 8l-108 -176l-127 -13l-29 37l45 121l201 53v39l-201 58z" />
<glyph unicode="+" horiz-adv-x="983" d="M61 424l7 113h368v374h113v-374h366l7 -113h-373v-377h-113v377h-375z" />
<glyph unicode="," horiz-adv-x="475" d="M-70 -303q92 51 156 122.5t64 143.5q0 33 -14.5 62.5t-35 49t-42 35t-35.5 23.5l-15 8q0 49 45 85t105 36q78 0 133 -58.5t55 -140.5q0 -215 -366 -411z" />
<glyph unicode="-" horiz-adv-x="677" d="M68 432l6 117h534l6 -117h-546z" />
<glyph unicode="." horiz-adv-x="475" d="M45 116.5q0 59.5 44 102.5t108 43q61 0 103 -43t42 -102.5t-42 -103.5t-103 -44q-63 0 -107.5 44t-44.5 103.5z" />
<glyph unicode="/" horiz-adv-x="571" d="M12 -434l441 1796h102l-440 -1796h-103z" />
<glyph unicode="0" horiz-adv-x="1042" d="M78 412q0 233 134 409t341 176q174 0 286.5 -118.5t112.5 -323.5q0 -233 -133 -409.5t-340 -176.5q-176 0 -288.5 119t-112.5 324zM229 412q0 -133 73 -218t181 -85q106 0 182 75.5t107 173t31 197.5q0 133 -74 218t-182 85q-106 0 -182 -76.5t-106 -174t-30 -195.5z" />
<glyph unicode="1" horiz-adv-x="778" d="M47 0l10 78l144 22q49 8 53 47l92 684l-221 31l14 66l430 63l-112 -844q-4 -39 41 -47l147 -22l2 -78h-600z" />
<glyph unicode="2" horiz-adv-x="946" d="M18 0l7 137q43 31 129 89.5t122.5 84t98 70.5t89.5 72.5t60.5 65.5t45 71t14.5 67q2 86 -55.5 137.5t-147.5 53.5q-129 0 -266 -113l-17 53q80 88 199 146.5t229 56.5q125 -2 208 -72.5t79 -187.5q-2 -43 -17.5 -84t-35 -73.5t-62.5 -71.5t-74.5 -64.5t-95 -67.5 t-100.5 -63.5t-116 -69t-115 -69.5l-2 -10h49q272 0 352 16t121 82l51 82h88l-111 -338h-727z" />
<glyph unicode="3" horiz-adv-x="874" d="M-80 -248q0 47 33 82t80 35q68 0 109.5 -56.5t41.5 -123.5q31 -6 58 -6q127 0 212 93t85 220q0 111 -65.5 178.5t-176.5 67.5q-70 0 -147 -31l-23 59q72 39 107.5 59.5t103.5 65.5t102.5 81t64.5 87t30 103q0 84 -54.5 133t-138.5 49q-109 0 -276 -113l-17 56 q215 203 436 202q119 0 208 -65.5t89 -182.5q0 -221 -401 -403v-6q47 10 90 10q123 0 207 -77.5t84 -200.5q0 -193 -181.5 -334.5t-377.5 -141.5q-94 0 -188.5 40t-94.5 120z" />
<glyph unicode="4" horiz-adv-x="1026" d="M-20 156l800 852l82 -13l-106 -819h239l-28 -106h-228l-57 -447h-197l58 447h-561zM119 176h440l80 543h-10z" />
<glyph unicode="5" horiz-adv-x="919" d="M-78 -252q0 49 34 84t81 35q68 0 106.5 -53.5t38.5 -122.5q39 -12 82 -13q117 0 202 75t85 190q0 66 -33 126t-78 104t-113.5 86t-119.5 67.5t-117 52.5l232 588h555l-33 -191h-494l-94 -244q485 -188 485 -491q0 -201 -158.5 -327t-363.5 -126q-41 0 -87 7.5t-96 25 t-82 50t-32 77.5z" />
<glyph unicode="6" horiz-adv-x="1083" d="M84 453q0 225 149.5 426.5t384 325.5t494.5 149l29 -70q-637 -139 -844 -643l22 -2q74 96 171.5 152.5t189.5 56.5q131 0 222 -98.5t91 -268.5q0 -209 -153.5 -359.5t-338 -150.5t-301 134.5t-116.5 347.5zM289 375q0 -139 58.5 -231.5t158.5 -92.5q115 0 195.5 120 t80.5 288q0 123 -59 201.5t-137 78.5q-162 0 -269 -196q-29 -100 -28 -168z" />
<glyph unicode="7" horiz-adv-x="950" d="M20 -377l750 1159v9h-205q-209 0 -256 -8.5t-69 -47.5l-76 -123h-74l94 355h760l-2 -90l-790 -1254h-132z" />
<glyph unicode="8" horiz-adv-x="1052" d="M80 305q0 246 311 332v4q-193 115 -194 301q-2 164 120.5 264.5t296.5 100.5q152 0 262.5 -86t108.5 -232q-2 -123 -74.5 -194.5t-203.5 -112.5l2 -4q237 -143 237 -336q0 -176 -132 -273.5t-314 -97.5q-166 0 -293 90.5t-127 243.5zM279 301q0 -113 68.5 -183.5 t182.5 -70.5q100 0 160 53.5t62 153.5q0 59 -25 110.5t-81 98.5t-90 69.5t-103 65.5q-174 -113 -174 -297zM389 1030q0 -96 69.5 -167.5t186.5 -141.5q143 86 143 270q0 102 -52 173t-150 71q-90 0 -143.5 -56.5t-53.5 -148.5z" />
<glyph unicode="9" horiz-adv-x="1083" d="M-59 -319q313 70 527 232.5t314 405.5h-22q-74 -94 -171 -150t-190 -56q-129 0 -221 100t-92 270q0 211 153.5 360.5t340.5 149.5q182 0 298.5 -134t116.5 -347q0 -225 -149.5 -427t-384 -326t-494.5 -148zM297 506q0 -123 59.5 -205t137.5 -82q162 0 268 197 q29 102 29 174q0 141 -58.5 233t-159.5 92q-113 0 -194.5 -120.5t-81.5 -288.5z" />
<glyph unicode=":" horiz-adv-x="475" d="M45 116.5q0 59.5 44 102.5t108 43q61 0 103 -43t42 -102.5t-42 -103.5t-103 -44q-63 0 -107.5 44t-44.5 103.5zM131 739q0 61 43 103.5t107 42.5q61 0 103 -42.5t42 -103.5q0 -59 -42 -103t-103 -44q-63 0 -106.5 44t-43.5 103z" />
<glyph unicode=";" horiz-adv-x="475" d="M-70 -309q92 51 156 122.5t64 145.5q0 33 -14.5 61.5t-35 49t-42 35t-35.5 22.5l-15 8q0 49 45 85t105 36q78 0 133 -58.5t55 -140.5q0 -217 -366 -409zM131 739.5q0 59.5 44 102.5t108 43q61 0 103 -42.5t42 -103.5q0 -59 -42 -103t-103 -44q-63 0 -107.5 44 t-44.5 103.5z" />
<glyph unicode="&#x3c;" horiz-adv-x="983" d="M55 453v57l828 385l26 -102l-667 -308v-6l667 -309l-26 -102z" />
<glyph unicode="=" horiz-adv-x="983" d="M82 248l6 112h807l6 -112h-819zM82 713h819l-6 -113h-807z" />
<glyph unicode="&#x3e;" horiz-adv-x="983" d="M74 170l667 309v6l-667 308l26 102l828 -385v-57l-828 -385z" />
<glyph unicode="?" horiz-adv-x="780" d="M125 102.5q0 53.5 39 91t96 37.5q55 0 93 -38t38 -91q0 -55 -38 -94t-93 -39t-95 40t-40 93.5zM180 588q0 57 23.5 100t69.5 71.5t85 44t101 34.5q55 16 75.5 23t55.5 22.5t48 32t13 38.5q0 63 -92 112.5t-221 49.5q-35 0 -117 -10q-23 25 -22 65q0 59 47 97.5t135 38.5 q158 0 271.5 -106t113.5 -245q0 -72 -21.5 -124t-66.5 -85.5t-82 -51t-96 -36.5q-129 -41 -158 -69q-33 -29 -33 -72q0 -68 68 -141l-82 4q-115 98 -115 207z" />
<glyph unicode="@" horiz-adv-x="1746" d="M109 539q16 334 260.5 564t580.5 222q334 -8 549 -212t199 -517q-12 -233 -149.5 -378.5t-319.5 -145.5q-143 0 -192.5 56t-35.5 128q0 10 29 118.5t35 127.5h-27q-111 -197 -191.5 -297.5t-160.5 -100.5q-88 0 -153.5 64.5t-65.5 144.5q0 123 69.5 286t163.5 257 q113 113 232 113q145 0 190 -156h23l49 135h143l-120 -340l-54 -344q-8 -43 23 -70.5t96 -27.5q131 0 222 121t102 309q14 281 -175.5 461t-486.5 186q-291 8 -509 -200.5t-232 -501.5q-16 -322 180.5 -528t493.5 -206q115 0 256 39l22 -75q-143 -47 -285 -47 q-330 0 -554 231t-207 584zM655 356q0 -55 32 -87.5t69 -32.5q63 0 284 370q10 18 24.5 65.5t14.5 53.5q-25 45 -86 89t-116 44q-47 0 -72 -24q-49 -47 -99.5 -209t-50.5 -269z" />
<glyph unicode="A" horiz-adv-x="1239" d="M-59 0l6 78l67 20q55 16 86 52t88 157l392 873v73l239 56l209 -1135q8 -37 22.5 -53.5t51.5 -22.5l92 -20l6 -78h-571l6 78l92 14q41 8 50 36q4 12 4 29q0 22 -7 52l-37 235h-381l-51 -135q-35 -84 -35 -135q0 -64 54 -78l82 -18l6 -78h-471zM395 537h328l-84 544h-14z " />
<glyph unicode="B" horiz-adv-x="1214" d="M18 0l7 76l106 22q47 10 53 49l133 986q1 4 1 8q0 30 -42 41l-98 22l-6 76h551q223 0 329.5 -81t106.5 -212q0 -123 -94 -207t-236 -121q6 -6 7 -10q133 -25 215 -102.5t82 -190.5q0 -131 -97 -223q-129 -133 -413 -133h-605zM414 111l127 -27h57q121 0 200 74.5 t79 183.5q0 123 -81 197.5t-202 74.5h-113zM494 698h122q129 0 213 65.5t84 184.5q0 117 -81.5 182.5t-217.5 65.5h-51z" />
<glyph unicode="C" horiz-adv-x="1298" d="M102 545q0 150 60.5 294t167.5 251q219 219 512 219q172 0 299 -45l162 36l-60 -438h-117l-34 283q-103 69 -236 69h-4q-203 0 -350.5 -197.5t-147.5 -492.5q0 -244 133 -377q86 -86 228 -86q117 0 219 56l133 291h131l-96 -408l-113 20q-164 -53 -297 -53 q-289 0 -439.5 154.5t-150.5 423.5z" />
<glyph unicode="D" horiz-adv-x="1376" d="M18 0l7 76l106 22q47 10 53 49l133 986q1 4 1 8q0 30 -42 41l-98 22l-6 76h528h7q288 0 453 -152q167 -154 167 -409q0 -293 -207 -498q-98 -100 -259 -160.5t-353 -60.5h-490zM416 117l139 -31q229 8 373.5 177t144.5 462q0 215 -104.5 342t-311.5 127h-96z" />
<glyph unicode="E" horiz-adv-x="1234" d="M18 0l7 76l106 22q47 10 53 49l135 986q1 4 1 8q0 30 -41 41l-99 22l-6 76h1055l-53 -401h-121l-21 184q-4 39 -14 60.5t-29.5 38t-70 22.5t-110.5 8t-177 2h-72l-67 -502h38q109 0 147 9.5t56 46.5l68 137h92l-109 -467h-90l6 129q2 35 -33.5 47t-152.5 12h-35l-69 -520 h67q197 0 280 9t121 34t66 88l74 170h129l-90 -387h-1041z" />
<glyph unicode="F" horiz-adv-x="1193" d="M18 0l7 76l106 22q47 10 53 49l135 986q1 4 1 8q0 30 -41 41l-99 22l-6 76h1030l-53 -401h-121l-22 184q-6 41 -16.5 61.5t-30 37t-69.5 22.5t-109.5 8t-178.5 2h-43l-69 -520h55q111 0 148.5 9t54.5 46l67 139h92l-110 -469h-88l10 131q2 35 -35 46.5t-158 11.5h-49 l-59 -441q-1 -4 -1 -8q0 -32 42 -41l106 -22l6 -76h-555z" />
<glyph unicode="G" horiz-adv-x="1396" d="M102 545q0 150 60.5 294t167.5 251q219 219 522 219q172 0 299 -45l162 36l-60 -434h-116l-35 279q-103 69 -246 69h-4q-203 0 -350.5 -197.5t-147.5 -492.5q0 -244 133 -377q86 -86 232 -86q98 0 184 35l49 330q1 4 1 8q0 32 -46 41l-104 23l-6 75h542l-6 -75l-98 -23 q-49 -12 -55 -49l-47 -293l118 -20l4 -64q-295 -82 -553 -82q-295 0 -447.5 156t-152.5 422z" />
<glyph unicode="H" horiz-adv-x="1497" d="M23 0l6 76l106 22q47 10 53 49l134 986q1 4 1 8q0 30 -42 41l-99 22l-6 76h545l-6 -76l-107 -22q-47 -12 -53 -49l-57 -433h555l59 433q1 4 1 8q0 30 -42 41l-98 22l-6 76h546l-8 -76l-106 -22q-47 -12 -53 -49l-134 -986q-1 -4 -1 -8q0 -32 42 -41l99 -22l6 -76h-545 l6 76l105 22q47 10 53 49l63 461h-557l-61 -461q-1 -4 -1 -8q0 -32 42 -41l100 -22l6 -76h-546z" />
<glyph unicode="I" horiz-adv-x="749" d="M25 0l6 76l127 22q47 10 53 49l133 986q1 4 1 8q0 32 -42 41l-119 22l-6 76h586l-6 -76l-127 -22q-47 -10 -53 -49l-134 -986q-1 -4 -1 -8q0 -32 42 -41l121 -22l6 -76h-587z" />
<glyph unicode="J" horiz-adv-x="868" d="M-8 198.5q33 30.5 82 30.5q143 0 159 -188h3q70 25 109.5 113t68.5 307l92 672q1 5 1 9q0 33 -42 40l-141 22l-5 76h601l-7 -76l-120 -22q-47 -8 -54 -49l-82 -619q-74 -547 -454 -547q-104 0 -175 42q-69 41 -69 110q0 49 33 79.5z" />
<glyph unicode="K" horiz-adv-x="1341" d="M18 0l7 76l106 22q47 10 53 49l133 986q1 4 1 8q0 30 -42 41l-98 22l-6 76h547l-8 -76l-105 -22q-47 -12 -53 -49l-70 -512l367 337q135 131 151 160q8 12 9 23q-2 33 -56 49l-53 16l-6 76h520l-6 -76l-43 -8q-102 -20 -268 -156l-324 -286l324 -572q31 -53 52 -69.5 t62 -26.5l48 -12l4 -76h-492l6 76l62 20q21 7 21 25q0 15 -13 37l-242 456l-35 -28q-35 -31 -71 -62l-35 -28l-45 -349q-1 -4 -1 -8q0 -32 42 -41l98 -22l6 -76h-547z" />
<glyph unicode="L" horiz-adv-x="1163" d="M18 0l7 76l106 22q47 10 53 49l131 986q1 4 1 8q0 32 -42 41l-100 22l-6 76h561l-6 -76l-119 -22q-47 -10 -53 -49l-139 -1047h59q229 0 300 23.5t108 107.5l86 199h125l-99 -416h-973z" />
<glyph unicode="M" horiz-adv-x="1699" d="M-16 0l6 76l112 24q27 6 40.5 24.5t37 104.5t51.5 265l105 639q1 6 1 11q0 33 -34 40l-121 20l-6 76h488l131 -987h16l459 987h467l-8 -76l-125 -22q-49 -8 -54 -52l-67 -645q-19 -165 -21 -247q-1 -19 0 -35q0 -53 6 -72q8 -25 33 -31l107 -24l6 -76h-574l7 76l112 24 q35 8 51.5 78t40.5 307l68 641h-16l-506 -1085h-197l-147 1104h-15l-106 -651q-25 -145 -35 -216t-11 -114t5 -51.5t22 -12.5l113 -24l6 -76h-448z" />
<glyph unicode="N" horiz-adv-x="1466" d="M6 0l6 76l99 20q57 10 82.5 83t58.5 325l72 526q4 32 4 56q0 30 -6 48q-12 32 -54 46l-90 24l-6 76h403l510 -971h13l65 467q19 145 27 215q5 50 6 88q0 15 -1 29q-3 47 -15.5 59.5t-42.5 16.5l-103 20l-6 76h485l-6 -76l-98 -20q-39 -8 -60.5 -36t-41 -112t-41.5 -260 l-109 -792h-153l-566 1067h-12l-74 -547q-18 -141 -26 -212q-5 -48 -5 -86q-1 -17 1 -32q4 -47 17 -60.5t42 -17.5l102 -20l6 -76h-483z" />
<glyph unicode="O" horiz-adv-x="1443" d="M100 563q0 305 187 516q201 227 508 228q260 0 425.5 -167t165.5 -427q0 -328 -219 -547q-190 -197 -475 -197q-260 0 -426 167t-166 427zM352 520q0 -248 115 -362q92 -92 240 -92q111 0 197.5 71.5t134.5 182t73 223.5t25 215q0 248 -117 364q-92 92 -238 92 q-90 0 -164.5 -48t-123 -123.5t-81 -170t-47 -183.5t-14.5 -169z" />
<glyph unicode="P" horiz-adv-x="1177" d="M18 0l7 76l106 22q47 10 53 49l135 986q1 4 1 8q0 30 -41 41l-99 22l-6 76h520q215 0 343 -97t128 -259q0 -190 -158.5 -300t-385.5 -110q-55 0 -150 12l-51 -379q-1 -5 -1 -9q0 -33 42 -40l137 -22l4 -76h-584zM483 612q61 -16 121 -16q143 0 231.5 87t88.5 239 q0 123 -79 198.5t-202 75.5h-80z" />
<glyph unicode="Q" horiz-adv-x="1447" d="M100 563q0 301 185 514q199 229 510 230q260 0 425.5 -167t165.5 -427q0 -330 -217 -547q-168 -172 -409 -193q86 -150 213 -211q119 -57 314 -57h26l2 -67q-119 -31 -279 -31h-10q-214 0 -331 82q-120 84 -226 319q-170 61 -269.5 210t-99.5 345zM352 518 q0 -248 115 -362q92 -92 240 -93q111 0 197.5 73t133.5 183.5t72 224.5t25 216q0 248 -115 364q-92 92 -240 93q-111 0 -197.5 -73t-135 -183.5t-72 -225t-23.5 -217.5z" />
<glyph unicode="R" horiz-adv-x="1269" d="M20 0l7 76l104 22q47 10 53 49l131 986q1 4 1 8q0 29 -42 41l-98 22l-6 76h573q209 0 324 -85t115 -220q0 -143 -95.5 -240.5t-265.5 -142.5l219 -395q23 -43 44.5 -67t32.5 -30t36 -12l45 -12l6 -76h-336l-69 152l-197 405l-125 6l-57 -416q-1 -4 -1 -8q0 -29 42 -41 l106 -22l6 -76h-553zM489 662l138 -27q135 16 216 92t81 207q0 121 -75 191.5t-204 70.5h-86z" />
<glyph unicode="S" horiz-adv-x="1060" d="M43 33l31 381l106 -2l60 -295q104 -49 241 -49q119 0 185.5 57t66.5 154v5q1 85 -61 144q-64 61 -203 141q-164 94 -234.5 174t-70.5 215q0 147 134 248t314 101q133 0 308 -39l108 28l-53 -405l-111 2l-35 264q-111 49 -243 49q-86 0 -149.5 -46t-63.5 -116 q0 -96 64.5 -159.5t209.5 -143.5q145 -82 221 -165t76 -214q0 -176 -141 -284.5t-354 -108.5q-201 0 -406 64z" />
<glyph unicode="T" horiz-adv-x="1292" d="M90 864l90 416h1149l-55 -416h-113l-22 185q-10 88 -61.5 115.5t-217.5 29.5h-8l-137 -1047q-1 -5 -1 -9q0 -33 42 -40l131 -22l6 -76h-612l6 76l141 22q47 8 53 49l135 1047h-4q-164 0 -220 -22.5t-95 -108.5l-78 -199h-129z" />
<glyph unicode="U" horiz-adv-x="1456" d="M160 1280h547l-7 -76l-106 -22q-47 -12 -53 -49l-88 -635q-10 -76 -11 -119q0 -143 85 -218t231 -75q309 0 360 356l45 334q19 143 27 214q5 51 6 89q0 15 -1 29q-3 47 -16.5 59.5t-41.5 16.5l-103 20l-6 76h483l-6 -76l-98 -20q-37 -8 -57.5 -37t-40 -111t-45.5 -260 l-50 -362q-33 -225 -175 -338t-357 -113q-213 0 -344 103.5t-131 300.5q0 47 8 116l90 650q1 4 1 8q0 30 -42 41l-98 22z" />
<glyph unicode="V" horiz-adv-x="1230" d="M66 1280h571l-6 -78l-94 -14q-41 -8 -49 -36q-3 -11 -4 -26q0 -23 8 -55l147 -858h12l359 815q22 51 22 85q0 58 -61 71l-78 18l-6 78h471l-6 -78l-72 -20q-55 -16 -86 -52t-88 -157l-453 -973h-196l-219 1106q-6 35 -21.5 51.5t-52.5 24.5l-92 20z" />
<glyph unicode="W" horiz-adv-x="1841" d="M63 1280h578l-6 -78l-96 -14q-49 -9 -49 -75q0 -19 4 -42l110 -864l10 -2l336 766l-20 135q-6 35 -21.5 51.5t-54.5 24.5l-94 20l-6 78h575l-6 -78l-96 -14q-37 -8 -47 -37q-5 -14 -6 -34q0 -20 6 -46l123 -862l12 -2l297 790q28 68 28 112q0 61 -55 75l-76 18l-6 78h475 l-6 -78l-71 -22q-59 -18 -98.5 -59.5t-84.5 -147.5l-391 -973h-209l-121 801h-12l-358 -801h-209l-180 1106q-6 35 -21.5 51.5t-52.5 24.5l-94 20z" />
<glyph unicode="X" horiz-adv-x="1298" d="M-41 0l6 76l66 16q100 27 209 154l331 383l-227 403q-43 76 -67.5 105.5t-61.5 42.5l-78 24l-4 76h563l-8 -76l-76 -14q-51 -8 -51 -54q0 -39 37 -106l125 -252h12l228 279q39 45 39 76q0 38 -62 53l-70 18l-6 76h488l-6 -76l-66 -16q-104 -27 -221 -166l-279 -324 l254 -456q41 -74 64.5 -101.5t62.5 -40.5l76 -24l4 -76h-561l6 76l76 14q51 8 51 55q0 39 -35 105l-151 299h-13l-256 -316q-44 -50 -44 -83q0 -40 65 -56l70 -18l8 -76h-498z" />
<glyph unicode="Y" horiz-adv-x="1218" d="M66 1280h557l-9 -78l-82 -12q-35 -4 -45 -26.5t-1.5 -58.5t34.5 -97l164 -375h12l265 399q44 61 44 99q0 2 -1 5q-3 38 -60 50l-82 16l-6 78h481l-6 -78l-53 -14q-61 -16 -106.5 -50t-110.5 -130l-318 -465l-53 -396q-1 -4 -1 -8q0 -32 42 -41l131 -22l4 -76h-614l10 76 l141 22q47 8 54 49l51 390l-248 522q-29 57 -53.5 82.5t-65.5 38.5l-71 22z" />
<glyph unicode="Z" horiz-adv-x="1193" d="M8 0l10 84l926 1096v12h-219q-147 0 -219 -14.5t-101.5 -43t-62.5 -100.5l-63 -164h-113l53 410h1014l-12 -86l-930 -1096v-12h215q160 0 240.5 17.5t109.5 43t59 86.5l70 164h125l-96 -397h-1006z" />
<glyph unicode="[" horiz-adv-x="753" d="M190 -455v1788h525v-94h-416v-1599h416v-95h-525z" />
<glyph unicode="\" horiz-adv-x="571" d="M14 1362h103l440 -1796h-102z" />
<glyph unicode="]" horiz-adv-x="753" d="M39 -360h416v1599h-416v94h524v-1788h-524v95z" />
<glyph unicode="^" d="M170 1051l227 376h215l123 -376h-69l-174 252h-5l-247 -252h-70z" />
<glyph unicode="_" horiz-adv-x="962" d="M-63 -109l6 109h987l6 -109h-999z" />
<glyph unicode="`" horiz-adv-x="817" d="M207 1427h233l140 -376h-70z" />
<glyph unicode="a" horiz-adv-x="1024" d="M43 233q0 156 68.5 318t169.5 262q143 143 280 143h2q114 0 158 -151h14l47 149h179l-111 -358l-111 -477l60 -21l155 115l35 -39q-43 -78 -125 -141.5t-149 -63.5q-41 0 -104.5 24.5t-63.5 49.5q0 23 110 369h-18q-137 -246 -214 -344.5t-169 -98.5t-152.5 70t-60.5 194 zM238 287q0 -158 104 -158q53 0 115.5 83t199.5 316l41 152q-37 61 -102.5 112.5t-122.5 51.5q-37 0 -67 -35q-57 -57 -112.5 -225t-55.5 -297z" />
<glyph unicode="b" horiz-adv-x="978" d="M80 115l203 1042q3 13 3 23q0 28 -20 37l-125 55l13 55l378 100l-114 -473l-109 -442h19q123 238 206.5 340t178.5 102q88 0 146.5 -83t58.5 -212q0 -160 -57.5 -304t-155.5 -242q-141 -145 -322 -146q-63 0 -139 31t-122 65.5t-42 51.5zM258 190q51 -55 121 -96t115 -41 q31 0 65 35q66 66 115 224.5t49 293.5q0 82 -25.5 135.5t-70.5 53.5q-55 0 -118 -83t-204 -325z" />
<glyph unicode="c" horiz-adv-x="827" d="M59 301q0 152 69 302.5t192.5 250.5t263.5 100q102 0 171.5 -54t69.5 -134q0 -55 -33.5 -94t-80.5 -39q-49 0 -75 27.5t-26 70.5q1 39 21 72q-16 14 -70.5 31.5t-95.5 17.5q-12 0 -45 -29q-55 -55 -109.5 -209.5t-54.5 -287.5q0 -100 50 -160t128 -60q68 0 254 130 l29 -41q-90 -111 -172 -168.5t-187 -57.5q-135 0 -217 94.5t-82 237.5z" />
<glyph unicode="d" horiz-adv-x="1024" d="M43 233q0 156 68.5 318t169.5 262q143 143 280 143q63 0 97 -41t55 -110h14l72 352q3 12 3 22q0 28 -22 38l-123 55l11 55l381 100l-213 -876l-97 -432l60 -21l155 115l35 -39q-43 -78 -125 -141.5t-149 -63.5q-39 0 -102.5 30t-63.5 54q0 18 108 359h-18 q-137 -246 -214 -344.5t-169 -98.5t-152.5 70t-60.5 194zM238 287q0 -158 104 -158q53 0 115.5 83t199.5 316l41 152q-37 61 -102.5 112.5t-122.5 51.5q-37 0 -67 -35q-57 -57 -112.5 -225t-55.5 -297z" />
<glyph unicode="e" d="M59 301q0 156 70 306.5t189.5 248.5t252.5 98q109 0 172.5 -55t63.5 -141q0 -88 -82 -148.5t-336 -187.5q-86 -43 -133 -68v-37q0 -94 51 -152.5t127 -58.5q68 0 254 130l29 -41q-90 -111 -172 -168.5t-187 -57.5q-135 0 -217 94.5t-82 237.5zM256 420h6 q217 117 294 184.5t77 149.5q0 35 -58.5 62.5t-99.5 27.5q-45 0 -67 -23q-41 -41 -85 -152.5t-67 -248.5z" />
<glyph unicode="f" horiz-adv-x="585" d="M-346 -358q0 53 30.5 86.5t79.5 33.5q57 0 93.5 -45t42.5 -112l112 41q35 84 84 366l133 787l-182 10l6 65l199 56q47 240 166 358q125 125 295 125q96 0 154.5 -49t58.5 -117q0 -51 -32 -88t-81 -37q-55 0 -93 49.5t-50 122.5l-148 -24q-57 -150 -84 -352h240l6 -109 h-266l-117 -596q-92 -479 -221 -614q-100 -102 -246 -103q-76 0 -128 41t-52 105z" />
<glyph unicode="g" horiz-adv-x="921" d="M-133 -276q0 86 84 148t196 99v13q-94 55 -94 137q0 63 51.5 112.5t139.5 75.5v13q-63 41 -101.5 110.5t-38.5 145.5q0 166 124 272t296 106q96 0 242 -41l231 3l-47 -168l-233 53v-21q92 -90 92 -196q0 -137 -113.5 -229.5t-251.5 -92.5q-59 0 -137 25q-37 -8 -62.5 -38 t-25.5 -56q0 -37 37 -58.5t131 -54.5l88 -31q156 -51 237 -110.5t81 -163.5q0 -117 -144.5 -207t-392.5 -90q-172 0 -280.5 63.5t-108.5 180.5zM35 -244q0 -78 93 -132t237 -54q111 0 189.5 41t78.5 104q0 49 -56.5 85t-170.5 75q-160 55 -201 74q-170 -84 -170 -193z M289 512q6 -102 47 -147q33 -29 70 -29q66 0 129 63q49 49 75.5 140.5t26.5 175.5q0 51 -51 96t-109 45q-49 0 -78 -29q-51 -51 -81 -142q-29 -85 -29 -163v-10z" />
<glyph unicode="h" horiz-adv-x="1050" d="M31 -2l75 303l173 856q3 13 3 23q0 28 -20 37l-125 55l13 55l378 100l-116 -475l-129 -553h20q176 385 264 473q82 82 181 82q66 0 113.5 -43t47.5 -108q0 -96 -90 -383q-16 -53 -55 -178l-39 -125l57 -19l156 115l35 -39q-43 -80 -124 -142.5t-151 -62.5 q-41 0 -102 24.5t-61 49.5q0 51 108 385q74 240 74 279q0 31 -29 55t-65 24q-47 0 -124 -119.5t-200 -375.5l-59 -299z" />
<glyph unicode="i" horiz-adv-x="546" d="M29 700q41 94 116.5 174t143.5 80q41 0 113.5 -26.5t66.5 -46.5l-209 -762l57 -21l156 115l37 -39q-45 -80 -126 -142.5t-148 -62.5q-39 0 -104.5 28t-61.5 48l200 758l-61 12l-143 -156zM336 1233q0 68 38 115t87 47q55 0 88 -36t33 -89q0 -68 -38 -115t-87 -47 q-57 0 -89 36t-32 89z" />
<glyph unicode="j" horiz-adv-x="532" d="M-317 -395q0 47 34.5 78.5t81.5 31.5q102 0 144 -133l41 8q43 109 125 476l161 737l-63 12l-144 -156l-38 41q43 94 118.5 174t141.5 80q25 0 68.5 -11t79.5 -29.5t32 -32.5l-158 -697q-111 -485 -252 -626q-98 -94 -205 -95q-68 0 -117.5 39t-49.5 103zM338 1233 q0 66 38 114t87 48q57 0 90 -36t33 -89q0 -68 -38 -115t-87 -47q-57 0 -90 36t-33 89z" />
<glyph unicode="k" horiz-adv-x="931" d="M31 -2l75 303l173 856q3 13 3 23q0 28 -20 37l-125 55l13 55l376 100l-114 -473l-111 -452h14l406 215v20q-90 18 -90 107q0 51 40 89t93 38q59 0 100 -41t41 -94q0 -100 -63.5 -150.5t-243.5 -128.5q-8 -4 -13 -6t-14.5 -6t-15.5 -6l-23 -11l150 -401h43l131 121l39 -39 q-37 -88 -119 -163t-153 -75q-20 0 -59.5 19.5t-41.5 32.5l-143 442l-74 -31l-67 -442z" />
<glyph unicode="l" horiz-adv-x="536" d="M55 45l226 1112q3 12 3 22q0 28 -22 38l-123 55l11 55l372 100l-276 -1308l57 -21l156 115l35 -39q-43 -80 -124 -142.5t-149 -62.5q-39 0 -104.5 29t-61.5 47z" />
<glyph unicode="m" horiz-adv-x="1589" d="M27 700q41 94 116.5 174t143.5 80q43 0 109.5 -21.5t66.5 -45.5q0 -61 -119 -488h18q182 391 267 473q82 82 178 82q66 0 103.5 -43t37.5 -114q0 -37 -18.5 -113t-47 -174t-32.5 -111h18q184 391 269 473q82 82 178 82q66 0 114 -43t48 -108q0 -100 -91 -383 q-29 -100 -94 -301l58 -21l155 115l35 -39q-43 -80 -124 -142.5t-148 -62.5q-41 0 -103.5 24.5t-62.5 49.5q0 51 108 385q74 240 74 279q0 31 -28.5 55t-65.5 24q-47 0 -124 -119.5t-200 -375.5l-73 -299l-209 6l110 389q84 281 84 320q0 31 -29.5 55t-64.5 24 q-47 0 -125 -119.5t-199 -375.5l-61 -299l-209 6l74 303l104 502l-59 12l-146 -156z" />
<glyph unicode="n" horiz-adv-x="1081" d="M27 700q41 94 115.5 174t142.5 80q43 0 110.5 -21.5t67.5 -45.5q0 -61 -119 -488h18q182 391 267 473q82 82 178 82q68 0 115 -43t47 -108q0 -90 -88 -383l-97 -301l58 -21l155 115l37 -39q-45 -80 -126 -142.5t-148 -62.5q-41 0 -103.5 24.5t-62.5 49.5q0 35 108 385 q76 231 76 279q0 31 -29.5 55t-64.5 24q-47 0 -125 -119.5t-199 -375.5l-61 -299l-209 6l74 303l104 496l-59 10l-146 -148z" />
<glyph unicode="o" horiz-adv-x="944" d="M63 379q0 217 141.5 396t336.5 179q162 0 249 -111.5t87 -295.5q0 -219 -140.5 -398.5t-335.5 -179.5q-164 0 -251 112t-87 298zM256 305q0 -102 38 -178t107 -76q61 0 119 67.5t89.5 146.5t49.5 157q25 119 25 211q0 100 -37 169.5t-106 69.5q-88 0 -158 -115.5 t-102 -242.5q-25 -102 -25 -209z" />
<glyph unicode="p" horiz-adv-x="1030" d="M-154 -504l4 76l105 22q47 10 53 50l260 1157l-59 14l-146 -156l-36 41q41 94 116.5 174t143.5 80q41 0 110.5 -27.5t69.5 -52.5q0 -39 -105 -352h21q121 236 203 334t176 98q88 0 146.5 -83t58.5 -212q0 -156 -62.5 -305t-163.5 -248q-135 -139 -278 -139 q-108 0 -174 94h-6l-84 -417q-1 -5 -1 -9q0 -33 42 -41l135 -22l8 -76h-537zM315 217q129 -164 211 -164q29 0 64 35q68 68 125 228.5t57 289.5q0 82 -24.5 135.5t-71.5 53.5q-49 0 -115.5 -88.5t-202.5 -319.5z" />
<glyph unicode="q" horiz-adv-x="968" d="M43 233q0 156 68.5 318t169.5 262q143 143 280 143q115 0 160 -151h14l47 149h179l-111 -358l-203 -952q-1 -5 -1 -10q0 -31 42 -40l111 -22l6 -76h-529l7 76l116 22q43 10 54 50l112 465l92 303h-18q-137 -246 -214 -344.5t-169 -98.5t-152.5 70t-60.5 194zM238 287 q0 -158 104 -158q53 0 115.5 83t199.5 316l41 152q-37 61 -102.5 112.5t-122.5 51.5q-37 0 -67 -35q-57 -57 -112.5 -225t-55.5 -297z" />
<glyph unicode="r" horiz-adv-x="864" d="M27 700q41 94 116.5 174t143.5 80q43 0 109.5 -21.5t66.5 -45.5q0 -39 -49 -222.5t-82 -285.5h28q47 131 118 278.5t122 198.5q41 57 76 79.5t92 22.5q59 0 99 -40.5t40 -106.5q0 -61 -33.5 -101t-82.5 -40q-55 0 -85 38q-21 27 -21 66q0 16 3 33l-29 10 q-45 -37 -144 -221t-163 -332l-53 -272l-209 6l74 303l104 502l-59 12l-146 -156z" />
<glyph unicode="s" horiz-adv-x="747" d="M-10 137q0 51 30.5 83t81.5 32q41 0 66 -28.5t25 -69.5q0 -16 -13 -45q98 -47 191 -54q29 16 60.5 58.5t33.5 72.5q0 14 -3 29.5t-13.5 32t-19.5 29t-27.5 32t-27.5 29.5t-33 31.5t-32 29.5q-59 55 -93 91t-66 94q-29 52 -29 99v11q8 123 113.5 191.5t228.5 68.5h3 q271 0 271 -161q0 -53 -29.5 -85t-80.5 -32q-41 0 -66.5 28.5t-25.5 69.5q0 23 12 47q-92 43 -168 49q-29 -14 -59.5 -55t-32.5 -70q-2 -16 5 -35.5t16 -35t29.5 -39t33.5 -33.5l37 -39l34 -35q125 -125 158 -182q31 -56 31 -107v-6q-8 -119 -118 -191.5t-232 -72.5 q-291 0 -291 168z" />
<glyph unicode="t" horiz-adv-x="649" d="M72 809l6 68q12 4 31.5 12t60.5 23.5t68 25.5l28 10l47 258h189l-60 -288h258l7 -109h-285l-150 -690l58 -21l155 115l35 -39q-43 -80 -124 -142.5t-148 -62.5q-41 0 -106.5 22.5t-61.5 43.5l160 762z" />
<glyph unicode="u" horiz-adv-x="1081" d="M55 700q41 94 117 174t143 80q39 0 105.5 -29.5t66.5 -54.5q0 -47 -106 -374q-74 -236 -74 -273q0 -33 29 -59.5t65 -26.5q47 0 124 119t202 377l64 299l208 -4l-79 -303q-88 -459 -107 -508l59 -21l154 115l35 -41q-45 -78 -125 -139.5t-148 -61.5q-41 0 -103 25.5 t-62 50.5q0 39 120 479h-18q-184 -389 -268 -473q-82 -82 -181 -82q-66 0 -112.5 46t-46.5 112q0 100 88 377q12 41 33.5 110.5t36 116.5t22.5 72l-59 12l-146 -156z" />
<glyph unicode="v" horiz-adv-x="927" d="M-6 700q43 94 117.5 174t142.5 80q41 0 109.5 -24.5t68.5 -48.5l-10 -768h20l236 387q76 119 76 190q0 43 -38 77t-100 46q12 68 56.5 106.5t101.5 38.5q66 0 112 -43q44 -41 44 -112v-6q0 -80 -52 -174t-171 -258l-250 -357l-215 -39l-9 834l-59 12l-141 -156z" />
<glyph unicode="w" horiz-adv-x="1433" d="M-6 700q43 94 117.5 174t142.5 80q41 0 109.5 -24.5t68.5 -48.5v-768h14l302 647l-7 194l90 -18l97 -16l28 -807h15l207 387q73 131 73 188q0 45 -35.5 79t-95.5 46q12 68 55.5 106.5t100.5 38.5q63 0 107 -43t44 -118q0 -74 -43 -155t-145 -230q-23 -31 -33 -47 l-231 -357l-209 -39l-6 631h-10l-287 -592l-219 -39l-11 834l-57 12l-143 -156z" />
<glyph unicode="x" horiz-adv-x="1005" d="M8 202q31 40 78 40q52 0 78 -34q21 -28 21 -71q0 -10 -1 -22l56 -13l192 342l-147 367h-45l-109 -137l-35 41q117 241 227 241h1q27 0 84 -23.5t61 -39.5l90 -330h8q106 244 170 318.5t135 74.5q74 0 124 -38q48 -37 48 -91v-4q-2 -61 -33.5 -100t-78.5 -39q-51 0 -77 35 q-20 28 -20 70q0 11 1 24l-60 8l-188 -327l147 -377h43l111 137l35 -41q-121 -242 -230 -242q-25 0 -83 24.5t-60 39.5l-92 330h-13q-90 -188 -141 -271.5t-80.5 -103t-79.5 -19.5q-74 0 -123 37q-47 36 -47 90q0 62 33 104z" />
<glyph unicode="y" horiz-adv-x="927" d="M-195 -367q0 51 36 85t79 34q57 0 98 -43q39 -41 39 -100v-6h35l268 368l-120 33l-4 799l-60 12l-143 -156l-37 41q41 94 116.5 174t143.5 80q41 0 108.5 -24.5t67.5 -48.5l-18 -777h24l332 566v22q-111 43 -111 127q0 57 36 98t91 41q68 0 109 -41.5t41 -111.5 q0 -125 -240 -453l-196 -272l-117 -230q-96 -186 -191.5 -277t-205.5 -91q-72 0 -126.5 43t-54.5 108z" />
<glyph unicode="z" horiz-adv-x="851" d="M-8 88q0 119 168 186l461 396q-72 23 -330 194l-37 -33q41 -53 41 -98q0 -41 -26.5 -67.5t-67.5 -26.5h-7q-46 1 -72 27q-28 28 -28 69q0 80 75 145.5t196 73.5q29 0 55 -4t46.5 -10t41 -18.5t33 -19.5t28 -25.5t22.5 -26.5t19.5 -29.5t15.5 -28t13 -30t12 -25.5h23 l51 219q61 0 103 -34.5t42 -81.5q0 -121 -178 -191l-448 -383q45 -14 115.5 -58t143 -95.5t93.5 -63.5l39 33q-49 55 -49 104q0 39 27.5 64.5t72.5 28.5h6q44 0 68 -27q26 -29 26 -74q0 -80 -68.5 -146.5t-187.5 -76.5q-129 0 -200.5 65.5t-114.5 178.5h-22l-58 -230h-6 q-55 0 -95 34q-42 36 -42 85z" />
<glyph unicode="{" horiz-adv-x="702" d="M51 453l23 61q260 18 260 160q0 59 -57.5 182t-57.5 209q0 137 107.5 219t312.5 90v-74q-117 -10 -178.5 -60t-61.5 -124q0 -63 58.5 -186t58.5 -213q0 -98 -87 -171t-202 -83v-23q115 -10 202 -82.5t87 -171.5q0 -86 -58.5 -209.5t-58.5 -185.5q0 -74 62.5 -126 t177.5 -62v-72q-205 8 -312.5 90t-107.5 219q0 86 57.5 208t57.5 181q0 80 -67.5 116t-192.5 46z" />
<glyph unicode="|" horiz-adv-x="563" d="M233 -352v1796h99v-1796h-99z" />
<glyph unicode="}" horiz-adv-x="702" d="M51 -397q115 10 176.5 62t61.5 126q0 61 -57.5 184t-57.5 211q0 98 87 171t202 83v23q-115 10 -202 82.5t-87 171.5q0 90 57.5 213t57.5 186q0 74 -60.5 124t-177.5 60v74q205 -8 312.5 -90t107.5 -219q0 -86 -58.5 -209t-58.5 -182q0 -141 262 -160l23 -61l-23 -62 q-262 -20 -262 -162q0 -61 58.5 -182t58.5 -207q0 -137 -107.5 -219t-312.5 -90v72z" />
<glyph unicode="~" horiz-adv-x="770" d="M16 373q35 131 92.5 189.5t145.5 58.5q72 0 167 -73t128 -73t58.5 27.5t60.5 101.5h69q-35 -133 -92 -191.5t-145 -58.5q-55 0 -113.5 37t-106 74t-78 37t-54 -28t-60.5 -101h-72z" />
<glyph unicode="&#xa1;" horiz-adv-x="591" d="M129 74l209 796q2 14 23.5 13.5t21.5 -15.5l-14 -809q0 -92 -111 -92h-6q-74 0 -104.5 29t-18.5 78zM264 1176q0 55 38 94t93 39q57 0 96 -39t39 -94q0 -53 -38.5 -91t-96.5 -38q-55 0 -93 38t-38 91z" />
<glyph unicode="&#xa2;" horiz-adv-x="806" d="M59 303q0 154 60.5 300.5t177.5 247.5t258 103h2l92 349h86l-96 -359q78 -20 124 -69.5t46 -110.5q0 -55 -35 -91t-84 -36q-35 0 -65.5 18.5t-42.5 42.5l-156 -589q57 0 252 127l35 -41q-164 -202 -326 -220l-80 -315h-86l80 313q-106 14 -174 106.5t-68 223.5zM256 324 q0 -162 92 -205q12 45 31.5 117.5t59.5 227t67 257.5l26 104q-41 18 -88 19q-16 0 -38 -23q-51 -53 -100.5 -209.5t-49.5 -287.5z" />
<glyph unicode="&#xa3;" horiz-adv-x="1028" d="M-33 37q156 35 224.5 115.5t87.5 228.5q6 43 14 145h-223l6 90h223q14 182 18 213q29 207 157 333t317 126q113 0 180 -46t67 -120q0 -53 -31.5 -88t-84.5 -35q-63 0 -95 52.5t-10 124.5q-35 31 -94 30q-152 4 -191 -305q-6 -53 -15 -151.5t-13 -133.5h305l6 -90h-321 q-4 -37 -17 -106q-29 -139 -90 -217v-10q18 -4 87 -27t120 -35t92 -12q80 0 127 43q37 37 88 135l47 -14q-6 -147 -77.5 -239.5t-204.5 -92.5q-39 0 -78 10t-65.5 21.5t-59.5 36t-47.5 37t-42.5 42.5l-37 35q-137 -150 -354 -184z" />
<glyph unicode="&#xa4;" horiz-adv-x="890" d="M72 1032l78 78l118 -119q88 53 178 53q92 0 183 -55l112 113l76 -76l-115 -115q49 -90 50 -176q0 -88 -52 -176l127 -127l-77 -78l-125 125q-88 -53 -179 -53q-94 0 -178 51l-114 -115l-76 76l115 115q-53 86 -54 182q0 94 51 178zM244 735q0 -86 55 -146.5t147 -60.5 q90 0 145.5 60.5t55.5 146.5t-55 146.5t-146 60.5q-92 0 -147 -60.5t-55 -146.5z" />
<glyph unicode="&#xa5;" horiz-adv-x="1253" d="M102 1280h543l-6 -78l-80 -12q-47 -8 -47 -57.5t51 -157.5l142 -313h8l239 350q41 61 55.5 97t4 56.5t-48.5 28.5l-43 8l-7 78h416l-6 -78l-33 -8q-66 -20 -111.5 -54t-109.5 -124l-274 -391h305l8 -90h-358l-23 -162h373l8 -90h-389l-19 -136q-6 -41 41 -49l140 -22 l6 -76h-608l6 76l143 22q45 6 53 49l21 136h-334l4 90h342l23 162h-369l4 90h336l-244 491q-27 51 -88 70l-67 16z" />
<glyph unicode="&#xa6;" horiz-adv-x="563" d="M233 -285v686h99v-686h-99zM233 629v686h99v-686h-99z" />
<glyph unicode="&#xa7;" horiz-adv-x="899" d="M80 633q0 88 59.5 161.5t143.5 110.5q-41 59 -41 125q0 109 98 192t246 83q98 0 174 -43t76 -117q0 -49 -34 -85t-79 -36q-59 0 -94 49t-37 129q-27 16 -68 17q-66 0 -98.5 -36t-32.5 -83q0 -45 38 -92t69.5 -70t113.5 -78q68 -49 91.5 -67.5t70.5 -62.5t65.5 -85 t18.5 -88q0 -88 -58.5 -163t-142.5 -111q41 -57 41 -125q0 -106 -101 -196.5t-259 -90.5q-100 0 -179 43t-79 119q0 51 36 85t83 34q59 0 98 -49.5t41 -127.5q33 -20 82 -20q57 0 92 40t35 95q0 41 -34 84t-61.5 64.5t-101.5 72.5q-14 10 -22 17q-84 57 -125 89t-83 92 t-42 124zM225 725q0 -57 44 -106.5t128 -108.5q180 -125 230 -184q90 47 90 137q0 59 -43 108.5t-123 104.5q-10 8 -58.5 42t-67.5 48t-52 43t-54 53q-41 -20 -67.5 -58t-26.5 -79z" />
<glyph unicode="&#xa8;" d="M168 1241q0 57 35 97t92 40t92 -40t35 -97q0 -55 -35 -95t-92 -40t-92 40t-35 95zM594 1241q0 57 35 97t92 40t92 -40t35 -97q0 -55 -35 -95t-92 -40t-92 40t-35 95z" />
<glyph unicode="&#xa9;" horiz-adv-x="1538" d="M76 639q0 287 202.5 490.5t491.5 203.5q287 0 488.5 -203.5t201.5 -490.5q0 -289 -201.5 -490.5t-488.5 -201.5q-289 0 -491.5 201.5t-202.5 490.5zM158 639q0 -254 179 -436.5t433 -182.5q252 0 431 182.5t179 436.5t-179 437.5t-431 183.5q-254 0 -433 -183.5 t-179 -437.5zM393 633q0 170 112.5 280.5t282.5 110.5q98 0 170 -27l101 27v-274h-72l-49 161q-57 41 -159.5 41t-169 -77.5t-66.5 -210.5q0 -152 70.5 -247t197.5 -95q74 0 113 30l71 172h74l-22 -254l-70 15q-82 -33 -184 -33q-193 0 -296.5 107.5t-103.5 273.5z" />
<glyph unicode="&#xaa;" horiz-adv-x="747" d="M117 795q0 104 46 224t118 189q98 98 208 99q47 0 72 -29t39 -80h12l27 111l123 -4l-68 -279l-71 -326l39 -10l129 115l20 -31q-41 -68 -106.5 -127t-114.5 -59q-25 0 -61.5 31.5t-36.5 52.5q0 16 12 53t38.5 111.5t47.5 140.5h-12q-109 -205 -179.5 -297t-132.5 -92 q-68 0 -108.5 55t-40.5 152zM260 834q0 -57 22.5 -88t57.5 -31q41 0 213 284l29 99q-92 115 -168 114q-25 0 -49 -24q-37 -37 -71 -146.5t-34 -207.5z" />
<glyph unicode="&#xab;" horiz-adv-x="1013" d="M47 406v102l506 301l16 -43l-338 -315l263 -295l-29 -43zM453 406v102l514 321l16 -43l-369 -335l285 -316l-27 -43z" />
<glyph unicode="&#xac;" horiz-adv-x="983" d="M72 522l6 113h833v-436h-112v323h-727z" />
<glyph unicode="&#xad;" horiz-adv-x="677" d="M68 432l6 117h534l6 -117h-546z" />
<glyph unicode="&#xae;" horiz-adv-x="1538" d="M76 641q0 287 202.5 489.5t491.5 202.5q287 0 489.5 -202.5t202.5 -489.5q0 -289 -202.5 -491.5t-489.5 -202.5q-289 0 -491.5 202.5t-202.5 491.5zM158 641q0 -256 179 -438.5t433 -182.5q252 0 431 182.5t179 438.5q0 254 -179 437.5t-431 183.5t-432 -183.5 t-180 -437.5zM444 274l5 66l59 14q29 6 29 27v522q0 23 -29 31l-59 12l-5 66h338q139 0 209 -54.5t70 -134.5q0 -156 -178 -209l145 -215q25 -35 62 -49l53 -10l4 -66h-215l-43 82l-141 228l-72 4v-207q0 -20 29 -27l61 -14l4 -66h-326zM676 659l76 -10q157 11 157 152 q0 152 -184 141h-49v-283z" />
<glyph unicode="&#xaf;" d="M195 1114l20 100h543l-2 -100h-561z" />
<glyph unicode="&#xb0;" horiz-adv-x="839" d="M141 948q0 156 109.5 267.5t263.5 111.5q137 0 230.5 -82t93.5 -219q0 -160 -110 -271.5t-267 -111.5q-135 0 -227.5 84t-92.5 221zM240 952q-2 -98 63.5 -160.5t163.5 -62.5q113 -2 189.5 80t78.5 197q2 100 -63.5 164.5t-167.5 66.5q-111 0 -186.5 -85t-77.5 -200z" />
<glyph unicode="&#xb1;" horiz-adv-x="983" d="M63 485l7 113h366v332h113v-332h364l7 -113h-371v-335h-113v335h-373zM66 8l6 113h839l7 -113h-852z" />
<glyph unicode="&#xb2;" horiz-adv-x="675" d="M-8 559v80q43 35 130 98.5t128 97t92 83t72.5 94.5t21.5 94q0 59 -41 91t-96 32q-96 0 -217 -84l-14 33q55 66 142 118t183 52q102 0 168 -54.5t66 -144.5q0 -55 -37 -112.5t-94.5 -106.5t-139.5 -104.5t-159 -104.5q-35 -20 -52 -31v-6h88q166 0 214.5 6t70.5 31l39 53 h57l-75 -215h-547z" />
<glyph unicode="&#xb3;" horiz-adv-x="675" d="M2 653q0 33 24.5 56.5t59.5 23.5q57 0 85 -44t24 -97q2 0 16 -3t25 -3q78 0 124 59.5t46 136.5q0 53 -31 85t-86 32q-31 0 -96 -18l-21 45q16 8 50 24.5t48 24.5l41 20q27 12 38 20.5t29.5 21t27 22.5t18.5 23.5t13 26.5t3 28q0 43 -36.5 67.5t-86.5 24.5 q-109 0 -217 -86l-14 37q147 168 342 168q84 0 148.5 -41t64.5 -109q0 -47 -24.5 -86t-71.5 -65.5t-83 -42t-91 -33.5l-11 -4q-2 0 -6 -1t-8 -3v-9q41 14 90 15q76 0 121 -43t45 -121q0 -117 -118 -197t-261 -80q-76 0 -148.5 32t-72.5 93z" />
<glyph unicode="&#xb4;" horiz-adv-x="817" d="M350 1051l240 376h233l-405 -376h-68z" />
<glyph unicode="&#xb5;" horiz-adv-x="1114" d="M18 924h353l-15 -605q-2 -188 185 -188q115 0 204 90v584q0 16 -15 24.5t-62 12.5l-70 6l-8 76h358v-764q0 -51 29 -60l121 -37l-6 -55l-347 -39v140h-10q-55 -76 -99 -108t-108 -32q-43 0 -81.5 20.5t-55 38t-43.5 50.5h-10l16 -563l-231 -19l31 774l4 533 q0 20 -9.5 25.5t-50.5 9.5q-4 0 -8 1t-9 2t-11 1l-45 6z" />
<glyph unicode="&#xb6;" horiz-adv-x="1013" d="M133 870q0 213 141.5 311.5t384.5 98.5h304l-177 -1346h-116l78 586q-90 -14 -142 -14q-211 0 -342 102.5t-131 261.5z" />
<glyph unicode="&#xb7;" horiz-adv-x="475" d="M57 477.5q0 59.5 43 102.5t106.5 43t105.5 -43t42 -102.5t-42 -103.5t-105 -44q-61 0 -105.5 44t-44.5 103.5z" />
<glyph unicode="&#xb8;" d="M43 -506q346 41 346 182q0 96 -160 97q-72 0 -135 -15l4 45l262 240h97l-176 -156q119 -4 186.5 -48t67.5 -124q0 -111 -132.5 -186.5t-347.5 -87.5z" />
<glyph unicode="&#xb9;" horiz-adv-x="675" d="M59 559l4 64l132 14q35 2 38 29l78 544l-157 25l10 43l350 76l-98 -688q-4 -25 26 -29l99 -14l4 -64h-486z" />
<glyph unicode="&#xba;" horiz-adv-x="688" d="M127 885q0 162 100.5 292t245.5 130q119 0 182.5 -80t63.5 -217q0 -162 -99.5 -292t-246.5 -130q-119 0 -182.5 81t-63.5 216zM266 834q0 -76 28 -128.5t79 -52.5q47 0 88 50.5t63.5 106.5t36.5 114q17 67 17 149q0 72 -27 120t-78 48q-63 0 -114.5 -86t-73.5 -176 q-18 -88 -19 -145z" />
<glyph unicode="&#xbb;" horiz-adv-x="1013" d="M-4 127l366 336l-284 315l26 43l422 -313v-102l-516 -322zM408 147l340 316l-263 295l29 43l416 -293v-102l-506 -302z" />
<glyph unicode="&#xbc;" horiz-adv-x="1464" d="M37 -238l1294 1518h119l-1294 -1518h-119zM100 559l4 64l132 14q35 2 38 29l78 544l-157 25l10 43l350 76l-98 -688q-4 -25 26 -29l99 -14l4 -64h-486zM756 -14l483 518l109 -27l-72 -479h137l-18 -76h-127l-35 -215h-168l35 215h-340zM844 -2h264l51 324h-12z" />
<glyph unicode="&#xbd;" horiz-adv-x="1464" d="M37 -238l1294 1518h119l-1294 -1518h-119zM100 559l4 64l132 14q35 2 38 29l78 544l-157 25l10 43l350 76l-98 -688q-4 -25 26 -29l99 -14l4 -64h-486zM739 -213q43 35 130 98.5t128 97t92.5 83t73 94.5t21.5 94q0 59 -41 91t-96 32q-96 0 -218 -84l-14 33q55 66 142 118 t184 52q102 0 167.5 -54.5t65.5 -144.5q0 -55 -37 -112.5t-94 -106.5t-139 -104.5t-160 -104.5q-35 -20 -51 -31v-6h88q166 0 214 6t71 31l39 53h57l-76 -215h-547v80z" />
<glyph unicode="&#xbe;" horiz-adv-x="1464" d="M37 -238l1294 1518h119l-1294 -1518h-119zM43 653q0 33 24.5 56.5t59.5 23.5q57 0 85 -44t24 -97q2 0 16 -3t24 -3q78 0 124 59.5t46 136.5q0 53 -30.5 85t-85.5 32q-31 0 -97 -18l-20 45q16 8 50 24.5t48 24.5l41 20q27 12 38 20.5t29.5 21t27 22.5t18.5 23.5t13 26.5 t3 28q0 43 -36.5 67.5t-86.5 24.5q-109 0 -217 -86l-14 37q147 168 342 168q84 0 148.5 -41t64.5 -109q0 -47 -24.5 -86t-71.5 -65.5t-83 -42t-91 -33.5l-11 -4q-2 0 -6 -1t-8 -3v-9q41 14 90 15q76 0 121 -43t45 -121q0 -117 -118 -197t-261 -80q-76 0 -148.5 32t-72.5 93z M756 -14l483 518l109 -27l-72 -479h137l-18 -76h-127l-35 -215h-168l35 215h-340zM844 -2h264l51 324h-12z" />
<glyph unicode="&#xbf;" horiz-adv-x="780" d="M37 330q0 72 22.5 125t65.5 85.5t83 50t97 36.5q51 16 73.5 24t56.5 25.5t47.5 40t13.5 53.5q0 66 -70 139l82 -2q43 -37 79 -93t36 -116q0 -57 -22.5 -100t-70 -71.5t-85 -44t-99.5 -33.5q-8 -2 -20 -7q-61 -18 -90 -28.5t-56.5 -32t-27.5 -49.5q0 -63 92 -112.5 t221 -49.5q39 0 117 10q25 -27 24 -63q0 -61 -48 -99t-134 -38q-158 0 -272.5 105.5t-114.5 244.5zM412 1186q0 53 37.5 92t93.5 39q57 0 96 -38t39 -93.5t-39 -93t-96 -37.5q-55 0 -93 39t-38 92z" />
<glyph unicode="&#xc0;" horiz-adv-x="1239" d="M-59 0l6 78l67 20q55 16 86 52t88 157l392 873v73l239 56l209 -1135q8 -37 22.5 -53.5t51.5 -22.5l92 -20l6 -78h-571l6 78l92 14q41 8 50 36t-3 81l-37 235h-381l-51 -135q-78 -188 19 -213l82 -18l6 -78h-471zM395 537h328l-84 544h-14zM418 1769h233l140 -376h-70z " />
<glyph unicode="&#xc1;" horiz-adv-x="1239" d="M-59 0l6 78l67 20q55 16 86 52t88 157l392 873v73l239 56l209 -1135q8 -37 22.5 -53.5t51.5 -22.5l92 -20l6 -78h-571l6 78l92 14q41 8 50 36t-3 81l-37 235h-381l-51 -135q-78 -188 19 -213l82 -18l6 -78h-471zM395 537h328l-84 544h-14zM606 1393l240 376h233 l-405 -376h-68z" />
<glyph unicode="&#xc2;" horiz-adv-x="1239" d="M-59 0l6 78l67 20q55 16 86 52t88 157l392 873v73l239 56l209 -1135q8 -37 22.5 -53.5t51.5 -22.5l92 -20l6 -78h-571l6 78l92 14q41 8 50 36t-3 81l-37 235h-381l-51 -135q-78 -188 19 -213l82 -18l6 -78h-471zM395 537h328l-84 544h-14zM422 1393l225 376h215l125 -376 h-69l-177 252h-4l-245 -252h-70z" />
<glyph unicode="&#xc3;" horiz-adv-x="1239" d="M-59 0l6 78l67 20q55 16 86 52t88 157l392 873v73l239 56l209 -1135q8 -37 22.5 -53.5t51.5 -22.5l92 -20l6 -78h-571l6 78l92 14q41 8 50 36t-3 81l-37 235h-381l-51 -135q-78 -188 19 -213l82 -18l6 -78h-471zM381 1427q68 264 240 265q70 0 165 -73t127 -73 q31 0 56.5 28t64.5 101h70q-70 -264 -242 -264q-55 0 -112.5 37t-104.5 74t-77.5 37t-54.5 -28t-60 -104h-72zM395 537h328l-84 544h-14z" />
<glyph unicode="&#xc4;" horiz-adv-x="1239" d="M-59 0l6 78l67 20q55 16 86 52t88 157l392 873v73l239 56l209 -1135q8 -37 22.5 -53.5t51.5 -22.5l92 -20l6 -78h-571l6 78l92 14q41 8 50 36t-3 81l-37 235h-381l-51 -135q-78 -188 19 -213l82 -18l6 -78h-471zM377 1583q0 57 34.5 97t92 40t92.5 -40t35 -97 q0 -55 -35 -95t-92.5 -40t-92 40t-34.5 95zM395 537h328l-84 544h-14zM803 1583q0 57 34.5 97t92 40t92.5 -40t35 -97q0 -55 -35 -95t-92.5 -40t-92 40t-34.5 95z" />
<glyph unicode="&#xc5;" horiz-adv-x="1239" d="M-59 0l6 78l67 20q55 16 86 52t88 157l424 948q-78 57 -73 158q2 82 54 138.5t138 56.5t138.5 -56.5t52.5 -138.5q0 -113 -91 -168l197 -1071q6 -35 21.5 -51.5t52.5 -24.5l92 -20l6 -78h-571l6 78l92 14q41 8 50 36t-3 81l-37 235h-381l-51 -135q-78 -188 19 -213 l82 -18l6 -78h-471zM393 535h328l-82 546h-14zM604 1413q0 -55 35 -94t92 -39q55 0 90 39t35 94t-35 95t-90 40q-57 0 -92 -40t-35 -95z" />
<glyph unicode="&#xc6;" horiz-adv-x="1712" d="M-111 0l7 78l67 20q53 16 92 56.5t107 142.5l504 807q41 63 -35 80l-103 20l-2 76h1188l-53 -401h-121l-20 184q-4 39 -14.5 60.5t-30 38t-69.5 22.5t-110.5 8t-177.5 2h-45l-69 -502h14q109 0 146.5 9.5t56.5 46.5l67 137h92l-108 -467h-90l6 129q2 35 -34 47t-153 12 h-10l-67 -520h41q197 0 279.5 9t120.5 34t67 88l73 170h129l-90 -387h-1005l8 76l108 22q47 8 54 49l43 310h-377l-76 -123q-82 -129 -82 -182q0 -41 55 -56l82 -18l6 -78h-471zM430 547h334l88 653h-14z" />
<glyph unicode="&#xc7;" horiz-adv-x="1298" d="M102 545q0 150 60.5 294t167.5 251q219 219 512 219q172 0 299 -45l162 36l-60 -438h-117l-34 283q-104 70 -240 69q-203 0 -350.5 -197.5t-147.5 -492.5q0 -244 133 -377q86 -86 228 -86q117 0 219 56l133 291h131l-96 -408l-113 20q-152 -51 -287 -53l-90 -80 q119 -4 186.5 -48t67.5 -124q0 -111 -132 -186.5t-347 -87.5l-12 53q346 41 346 182q0 96 -160 97q-72 0 -135 -15l4 45l182 168q-250 20 -380 173t-130 401z" />
<glyph unicode="&#xc8;" horiz-adv-x="1234" d="M18 0l7 76l106 22q47 10 53 49l135 986q6 37 -40 49l-99 22l-6 76h1055l-53 -401h-121l-21 184q-4 39 -14 60.5t-29.5 38t-70 22.5t-110.5 8t-177 2h-72l-67 -502h38q109 0 147 9.5t56 46.5l68 137h92l-109 -467h-90l6 129q2 35 -33.5 47t-152.5 12h-35l-69 -520h67 q197 0 280 9t121 34t66 88l74 170h129l-90 -387h-1041zM451 1769h233l139 -376h-69z" />
<glyph unicode="&#xc9;" horiz-adv-x="1234" d="M18 0l7 76l106 22q47 10 53 49l135 986q6 37 -40 49l-99 22l-6 76h1055l-53 -401h-121l-21 184q-4 39 -14 60.5t-29.5 38t-70 22.5t-110.5 8t-177 2h-72l-67 -502h38q109 0 147 9.5t56 46.5l68 137h92l-109 -467h-90l6 129q2 35 -33.5 47t-152.5 12h-35l-69 -520h67 q197 0 280 9t121 34t66 88l74 170h129l-90 -387h-1041zM584 1393l239 376h234l-406 -376h-67z" />
<glyph unicode="&#xca;" horiz-adv-x="1234" d="M18 0l7 76l106 22q47 10 53 49l135 986q6 37 -40 49l-99 22l-6 76h1055l-53 -401h-121l-21 184q-4 39 -14 60.5t-29.5 38t-70 22.5t-110.5 8t-177 2h-72l-67 -502h38q109 0 147 9.5t56 46.5l68 137h92l-109 -467h-90l6 129q2 35 -33.5 47t-152.5 12h-35l-69 -520h67 q197 0 280 9t121 34t66 88l74 170h129l-90 -387h-1041zM436 1393l226 376h215l124 -376h-69l-176 252h-4l-246 -252h-70z" />
<glyph unicode="&#xcb;" horiz-adv-x="1234" d="M18 0l7 76l106 22q47 10 53 49l135 986q6 37 -40 49l-99 22l-6 76h1055l-53 -401h-121l-21 184q-4 39 -14 60.5t-29.5 38t-70 22.5t-110.5 8t-177 2h-72l-67 -502h38q109 0 147 9.5t56 46.5l68 137h92l-109 -467h-90l6 129q2 35 -33.5 47t-152.5 12h-35l-69 -520h67 q197 0 280 9t121 34t66 88l74 170h129l-90 -387h-1041zM395 1583q0 57 35 97t92.5 40t92 -40t34.5 -97q0 -55 -34.5 -95t-92 -40t-92.5 40t-35 95zM821 1583q0 57 35 97t92.5 40t92 -40t34.5 -97q0 -55 -34.5 -95t-92 -40t-92.5 40t-35 95z" />
<glyph unicode="&#xcc;" horiz-adv-x="749" d="M25 0l6 76l127 22q47 10 53 49l133 986q6 39 -41 49l-119 22l-6 76h586l-6 -76l-127 -22q-47 -10 -53 -49l-134 -986q-6 -39 41 -49l121 -22l6 -76h-587zM172 1769h234l139 -376h-70z" />
<glyph unicode="&#xcd;" horiz-adv-x="749" d="M25 0l6 76l127 22q47 10 53 49l133 986q6 39 -41 49l-119 22l-6 76h586l-6 -76l-127 -22q-47 -10 -53 -49l-134 -986q-6 -39 41 -49l121 -22l6 -76h-587zM442 1393l240 376h233l-405 -376h-68z" />
<glyph unicode="&#xce;" horiz-adv-x="749" d="M25 0l6 76l127 22q47 10 53 49l133 986q6 39 -41 49l-119 22l-6 76h586l-6 -76l-127 -22q-47 -10 -53 -49l-134 -986q-6 -39 41 -49l121 -22l6 -76h-587zM197 1393l225 376h215l125 -376h-70l-176 252h-4l-246 -252h-69z" />
<glyph unicode="&#xcf;" horiz-adv-x="749" d="M25 0l6 76l127 22q47 10 53 49l133 986q6 39 -41 49l-119 22l-6 76h586l-6 -76l-127 -22q-47 -10 -53 -49l-134 -986q-6 -39 41 -49l121 -22l6 -76h-587zM158 1583q0 57 34.5 97t92 40t92.5 -40t35 -97q0 -55 -35 -95t-92.5 -40t-92 40t-34.5 95zM584 1583q0 57 34.5 97 t92 40t92.5 -40t35 -97q0 -55 -35 -95t-92.5 -40t-92 40t-34.5 95z" />
<glyph unicode="&#xd0;" horiz-adv-x="1376" d="M18 0l7 76l106 22q47 10 53 49l62 457h-156l6 90h162l59 439q6 37 -41 49l-98 22l-6 76h528q293 2 460 -152.5t167 -408.5q0 -293 -207 -498q-98 -100 -259 -160.5t-353 -60.5h-490zM416 117l139 -31q229 8 373.5 177t144.5 462q0 215 -104.5 342t-311.5 127h-96 l-67 -500h223l6 -90h-242z" />
<glyph unicode="&#xd1;" horiz-adv-x="1466" d="M6 0l6 76l99 20q57 10 82.5 83t58.5 325l72 526q10 72 -2.5 104.5t-53.5 45.5l-90 24l-6 76h403l510 -971h13l65 467q20 145 27.5 215t4.5 117t-15.5 59.5t-42.5 16.5l-103 20l-6 76h485l-6 -76l-98 -20q-39 -8 -60.5 -36t-41 -112t-41.5 -260l-109 -792h-153l-566 1067 h-12l-74 -547q-18 -141 -25.5 -212t-4 -118t16.5 -60.5t42 -17.5l102 -20l6 -76h-483zM459 1427q68 264 239 265q70 0 165 -73t128 -73q31 0 56.5 28t64.5 101h70q-70 -264 -242 -264q-55 0 -112.5 37t-104.5 74t-78 37t-54.5 -28t-60.5 -104h-71z" />
<glyph unicode="&#xd2;" horiz-adv-x="1443" d="M100 563q0 305 187 516q201 227 508 228q260 0 425.5 -167t165.5 -427q0 -328 -219 -547q-190 -197 -475 -197q-260 0 -426 167t-166 427zM352 520q0 -248 115 -362q92 -92 240 -92q111 0 197.5 71.5t134.5 182t73 223.5t25 215q0 248 -117 364q-92 92 -238 92 q-90 0 -164.5 -48t-123 -123.5t-81 -170t-47 -183.5t-14.5 -169zM514 1769h234l139 -376h-70z" />
<glyph unicode="&#xd3;" horiz-adv-x="1443" d="M100 563q0 305 187 516q201 227 508 228q260 0 425.5 -167t165.5 -427q0 -328 -219 -547q-190 -197 -475 -197q-260 0 -426 167t-166 427zM352 520q0 -248 115 -362q92 -92 240 -92q111 0 197.5 71.5t134.5 182t73 223.5t25 215q0 248 -117 364q-92 92 -238 92 q-90 0 -164.5 -48t-123 -123.5t-81 -170t-47 -183.5t-14.5 -169zM713 1393l239 376h234l-406 -376h-67z" />
<glyph unicode="&#xd4;" horiz-adv-x="1443" d="M100 563q0 305 187 516q201 227 508 228q260 0 425.5 -167t165.5 -427q0 -328 -219 -547q-190 -197 -475 -197q-260 0 -426 167t-166 427zM352 520q0 -248 115 -362q92 -92 240 -92q111 0 197.5 71.5t134.5 182t73 223.5t25 215q0 248 -117 364q-92 92 -238 92 q-90 0 -164.5 -48t-123 -123.5t-81 -170t-47 -183.5t-14.5 -169zM555 1393l225 376h215l125 -376h-69l-177 252h-4l-245 -252h-70z" />
<glyph unicode="&#xd5;" horiz-adv-x="1443" d="M100 563q0 305 187 516q201 227 508 228q260 0 425.5 -167t165.5 -427q0 -328 -219 -547q-190 -197 -475 -197q-260 0 -426 167t-166 427zM352 520q0 -248 115 -362q92 -92 240 -92q111 0 197.5 71.5t134.5 182t73 223.5t25 215q0 248 -117 364q-92 92 -238 92 q-90 0 -164.5 -48t-123 -123.5t-81 -170t-47 -183.5t-14.5 -169zM498 1427q68 264 239 265q70 0 165 -73t128 -73q31 0 56.5 28t64.5 101h70q-70 -264 -242 -264q-55 0 -112.5 37t-104.5 74t-78 37t-54.5 -28t-60.5 -104h-71z" />
<glyph unicode="&#xd6;" horiz-adv-x="1443" d="M100 563q0 305 187 516q201 227 508 228q260 0 425.5 -167t165.5 -427q0 -328 -219 -547q-190 -197 -475 -197q-260 0 -426 167t-166 427zM352 520q0 -248 115 -362q92 -92 240 -92q111 0 197.5 71.5t134.5 182t73 223.5t25 215q0 248 -117 364q-92 92 -238 92 q-90 0 -164.5 -48t-123 -123.5t-81 -170t-47 -183.5t-14.5 -169zM489 1583q0 57 35 97t92.5 40t92 -40t34.5 -97q0 -55 -34.5 -95t-92 -40t-92.5 40t-35 95zM915 1583q0 57 35 97t92.5 40t92 -40t34.5 -97q0 -55 -34.5 -95t-92 -40t-92.5 40t-35 95z" />
<glyph unicode="&#xd7;" horiz-adv-x="983" d="M70 137l342 344l-342 342l77 80l345 -342l344 342l77 -80l-342 -342l342 -344l-77 -80l-344 344l-345 -344z" />
<glyph unicode="&#xd8;" horiz-adv-x="1443" d="M106 563q0 305 187 516q201 227 508 228q145 0 260 -52l88 154h96q-111 -193 -112 -195q123 -76 191.5 -206.5t68.5 -294.5q0 -328 -219 -547q-190 -197 -476 -197q-141 0 -258 54l-102 -175h-94l125 211q-125 80 -194 211t-69 293zM354 520q0 -210 90 -325l555 952 q-82 70 -211 70q-111 0 -198.5 -72t-137 -183.5t-74 -225t-24.5 -216.5zM504 131q88 -68 209 -68q111 0 197.5 72t136 182.5t74 225t24.5 215.5q0 208 -88 325z" />
<glyph unicode="&#xd9;" horiz-adv-x="1456" d="M160 1280h547l-7 -76l-106 -22q-47 -12 -53 -49l-88 -635q-10 -76 -11 -119q0 -143 85 -218t231 -75q309 0 360 356l45 334q20 143 27.5 214t4.5 118t-16.5 59.5t-41.5 16.5l-103 20l-6 76h483l-6 -76l-98 -20q-37 -8 -57.5 -37t-40 -111t-45.5 -260l-50 -362 q-33 -225 -175 -338t-357 -113q-213 0 -344 103.5t-131 300.5q0 47 8 116l90 650q6 37 -41 49l-98 22zM571 1769h234l139 -376h-70z" />
<glyph unicode="&#xda;" horiz-adv-x="1456" d="M160 1280h547l-7 -76l-106 -22q-47 -12 -53 -49l-88 -635q-10 -76 -11 -119q0 -143 85 -218t231 -75q309 0 360 356l45 334q20 143 27.5 214t4.5 118t-16.5 59.5t-41.5 16.5l-103 20l-6 76h483l-6 -76l-98 -20q-37 -8 -57.5 -37t-40 -111t-45.5 -260l-50 -362 q-33 -225 -175 -338t-357 -113q-213 0 -344 103.5t-131 300.5q0 47 8 116l90 650q6 37 -41 49l-98 22zM786 1393l240 376h234l-406 -376h-68z" />
<glyph unicode="&#xdb;" horiz-adv-x="1456" d="M160 1280h547l-7 -76l-106 -22q-47 -12 -53 -49l-88 -635q-10 -76 -11 -119q0 -143 85 -218t231 -75q309 0 360 356l45 334q20 143 27.5 214t4.5 118t-16.5 59.5t-41.5 16.5l-103 20l-6 76h483l-6 -76l-98 -20q-37 -8 -57.5 -37t-40 -111t-45.5 -260l-50 -362 q-33 -225 -175 -338t-357 -113q-213 0 -344 103.5t-131 300.5q0 47 8 116l90 650q6 37 -41 49l-98 22zM582 1393l225 376h215l125 -376h-70l-176 252h-4l-246 -252h-69z" />
<glyph unicode="&#xdc;" horiz-adv-x="1456" d="M160 1280h547l-7 -76l-106 -22q-47 -12 -53 -49l-88 -635q-10 -76 -11 -119q0 -143 85 -218t231 -75q309 0 360 356l45 334q20 143 27.5 214t4.5 118t-16.5 59.5t-41.5 16.5l-103 20l-6 76h483l-6 -76l-98 -20q-37 -8 -57.5 -37t-40 -111t-45.5 -260l-50 -362 q-33 -225 -175 -338t-357 -113q-213 0 -344 103.5t-131 300.5q0 47 8 116l90 650q6 37 -41 49l-98 22zM498 1583q0 57 34.5 97t92 40t92.5 -40t35 -97q0 -55 -35 -95t-92.5 -40t-92 40t-34.5 95zM924 1583q0 57 34.5 97t92 40t92.5 -40t35 -97q0 -55 -35 -95t-92.5 -40 t-92 40t-34.5 95z" />
<glyph unicode="&#xdd;" horiz-adv-x="1218" d="M66 1280h557l-9 -78l-82 -12q-35 -4 -45 -26.5t-1.5 -58.5t34.5 -97l164 -375h12l265 399q47 66 43.5 104t-60.5 50l-82 16l-6 78h481l-6 -78l-53 -14q-61 -16 -106.5 -50t-110.5 -130l-318 -465l-53 -396q-6 -39 41 -49l131 -22l4 -76h-614l10 76l141 22q47 8 54 49 l51 390l-248 522q-29 57 -53.5 82.5t-65.5 38.5l-71 22zM668 1393l239 376h234l-406 -376h-67z" />
<glyph unicode="&#xde;" horiz-adv-x="1177" d="M18 0l7 76l106 22q47 10 53 49l138 986q6 37 -41 49l-99 22l-6 76h545l-6 -76l-107 -22q-47 -12 -53 -49l-14 -107h123q213 0 342 -97t129 -259q0 -190 -159 -300t-386 -110q-53 0 -152 12l-18 -125q-6 -41 41 -49l137 -22l4 -76h-584zM451 358q61 -16 120 -16 q143 0 231.5 87t88.5 239q0 123 -79 199.5t-200 76.5h-82z" />
<glyph unicode="&#xdf;" horiz-adv-x="1103" d="M-332 -358q0 53 32 86.5t79 33.5q57 0 94 -45t43 -112l111 41q31 76 86 366l125 787l-175 10l7 65l194 56q106 485 465 485q150 0 237 -79t87 -195q0 -228 -297 -285q119 -82 198.5 -206t79.5 -267q0 -160 -117.5 -287t-273.5 -127q-98 0 -165.5 53.5t-67.5 133.5 q0 63 41 105t98 42q68 0 97.5 -46t11 -102.5t-69.5 -80.5q20 -20 67 -21q80 0 139.5 70t59.5 178q2 135 -77 275.5t-228 246.5l10 62q143 2 224 72.5t81 191.5q0 74 -41 125t-110 51q-106 0 -162.5 -96t-97.5 -311l-136 -705q-96 -481 -223 -614q-102 -102 -246 -103 q-76 0 -128 41t-52 105z" />
<glyph unicode="&#xe0;" horiz-adv-x="1024" d="M43 233q0 156 68.5 318t169.5 262q143 143 280 143q115 1 160 -151h14l47 149h179l-111 -358l-111 -477l60 -21l155 115l35 -39q-43 -78 -125 -141.5t-149 -63.5q-41 0 -104.5 24.5t-63.5 49.5q0 23 110 369h-18q-137 -246 -214 -344.5t-169 -98.5t-152.5 70t-60.5 194z M238 287q0 -158 104 -158q53 0 115.5 83t199.5 316l41 152q-37 61 -102.5 112.5t-122.5 51.5q-37 0 -67 -35q-57 -57 -112.5 -225t-55.5 -297zM336 1427h233l140 -376h-70z" />
<glyph unicode="&#xe1;" horiz-adv-x="1024" d="M43 233q0 156 68.5 318t169.5 262q143 143 280 143q115 1 160 -151h14l47 149h179l-111 -358l-111 -477l60 -21l155 115l35 -39q-43 -78 -125 -141.5t-149 -63.5q-41 0 -104.5 24.5t-63.5 49.5q0 23 110 369h-18q-137 -246 -214 -344.5t-169 -98.5t-152.5 70t-60.5 194z M238 287q0 -158 104 -158q53 0 115.5 83t199.5 316l41 152q-37 61 -102.5 112.5t-122.5 51.5q-37 0 -67 -35q-57 -57 -112.5 -225t-55.5 -297zM479 1051l240 376h233l-405 -376h-68z" />
<glyph unicode="&#xe2;" horiz-adv-x="1024" d="M43 233q0 156 68.5 318t169.5 262q143 143 280 143q115 1 160 -151h14l47 149h179l-111 -358l-111 -477l60 -21l155 115l35 -39q-43 -78 -125 -141.5t-149 -63.5q-41 0 -104.5 24.5t-63.5 49.5q0 23 110 369h-18q-137 -246 -214 -344.5t-169 -98.5t-152.5 70t-60.5 194z M238 287q0 -158 104 -158q53 0 115.5 83t199.5 316l41 152q-37 61 -102.5 112.5t-122.5 51.5q-37 0 -67 -35q-57 -57 -112.5 -225t-55.5 -297zM313 1051l226 376h215l125 -376h-70l-176 252h-4l-246 -252h-70z" />
<glyph unicode="&#xe3;" horiz-adv-x="1024" d="M43 233q0 156 68.5 318t169.5 262q143 143 280 143q115 1 160 -151h14l47 149h179l-111 -358l-111 -477l60 -21l155 115l35 -39q-43 -78 -125 -141.5t-149 -63.5q-41 0 -104.5 24.5t-63.5 49.5q0 23 110 369h-18q-137 -246 -214 -344.5t-169 -98.5t-152.5 70t-60.5 194z M238 287q0 -158 104 -158q53 0 115.5 83t199.5 316l41 152q-37 61 -102.5 112.5t-122.5 51.5q-37 0 -67 -35q-57 -57 -112.5 -225t-55.5 -297zM250 1085q68 264 239 265q70 0 165.5 -73t127.5 -73q31 0 56.5 28t64.5 101h70q-70 -264 -242 -264q-55 0 -112.5 37t-104.5 74 t-77.5 37t-54.5 -28t-60 -104h-72z" />
<glyph unicode="&#xe4;" horiz-adv-x="1024" d="M43 233q0 156 68.5 318t169.5 262q143 143 280 143q115 1 160 -151h14l47 149h179l-111 -358l-111 -477l60 -21l155 115l35 -39q-43 -78 -125 -141.5t-149 -63.5q-41 0 -104.5 24.5t-63.5 49.5q0 23 110 369h-18q-137 -246 -214 -344.5t-169 -98.5t-152.5 70t-60.5 194z M238 287q0 -158 104 -158q53 0 115.5 83t199.5 316l41 152q-37 61 -102.5 112.5t-122.5 51.5q-37 0 -67 -35q-57 -57 -112.5 -225t-55.5 -297zM281 1241q0 57 34.5 97t92 40t92.5 -40t35 -97q0 -55 -35 -95t-92.5 -40t-92 40t-34.5 95zM707 1241q0 57 34.5 97t92 40 t92.5 -40t35 -97q0 -55 -35 -95t-92.5 -40t-92 40t-34.5 95z" />
<glyph unicode="&#xe5;" horiz-adv-x="1024" d="M43 233q0 156 68.5 318t169.5 262q143 143 280 143q115 1 160 -151h14l47 149h179l-111 -358l-111 -477l60 -21l155 115l35 -39q-43 -78 -125 -141.5t-149 -63.5q-41 0 -104.5 24.5t-63.5 49.5q0 23 110 369h-18q-137 -246 -214 -344.5t-169 -98.5t-152.5 70t-60.5 194z M238 287q0 -158 104 -158q53 0 115.5 83t199.5 316l41 152q-37 61 -102.5 112.5t-122.5 51.5q-37 0 -67 -35q-57 -57 -112.5 -225t-55.5 -297zM438 1249q2 82 54.5 138.5t138.5 56.5t139 -56.5t53 -138.5t-53 -138t-139 -56t-140.5 57t-52.5 137zM504 1249.5 q0 -55.5 34.5 -94.5t92 -39t92.5 39t35 94.5t-35 95t-92.5 39.5t-92 -39.5t-34.5 -95z" />
<glyph unicode="&#xe6;" horiz-adv-x="1333" d="M43 264q0 156 60.5 301.5t160.5 247.5q147 143 281 143q74 0 121 -68.5t65 -164.5q158 231 354 231q109 0 172.5 -55t63.5 -141q0 -88 -82 -148.5t-336 -187.5q-86 -43 -133 -68v-37q0 -94 51 -152.5t129 -58.5q70 0 252 130l29 -41q-88 -111 -171 -168.5t-188 -57.5 q-131 0 -212.5 93.5t-86.5 234.5v16q-199 -344 -329 -344q-92 0 -146.5 82t-54.5 213zM238 317q0 -76 24.5 -128t59.5 -52q29 0 58.5 21.5t67 76t59 88t70 119.5t62.5 111q29 45 49 86q-39 82 -107.5 143.5t-125.5 61.5q-37 0 -68 -35q-55 -55 -102 -207.5t-47 -284.5z M770 420h6q219 115 295 183.5t76 150.5q0 35 -58.5 62.5t-99.5 27.5q-45 0 -67 -23q-39 -39 -84 -151.5t-68 -249.5z" />
<glyph unicode="&#xe7;" horiz-adv-x="827" d="M59 301q0 152 69 302.5t192.5 250.5t263.5 100q102 0 171.5 -54t69.5 -134q0 -55 -33.5 -94t-80.5 -39q-49 0 -75 27.5t-26 70.5q0 39 21 72q-16 14 -70.5 31.5t-95.5 17.5q-12 0 -45 -29q-55 -55 -109.5 -209.5t-54.5 -287.5q0 -100 50 -160t128 -60q68 0 254 130 l29 -41q-80 -96 -149.5 -151.5t-155.5 -70.5l-99 -86q119 -4 186.5 -48t67.5 -124q0 -111 -132 -186.5t-347 -87.5l-12 53q346 41 346 182q0 96 -160 97q-72 0 -135 -15l4 45l184 168q-117 14 -186.5 106.5t-69.5 223.5z" />
<glyph unicode="&#xe8;" d="M59 301q0 156 70 306.5t189.5 248.5t252.5 98q109 0 172.5 -55t63.5 -141q0 -88 -82 -148.5t-336 -187.5q-86 -43 -133 -68v-37q0 -94 51 -152.5t127 -58.5q68 0 254 130l29 -41q-90 -111 -172 -168.5t-187 -57.5q-135 0 -217 94.5t-82 237.5zM256 420h6 q217 117 294 184.5t77 149.5q0 35 -58.5 62.5t-99.5 27.5q-45 0 -67 -23q-41 -41 -85 -152.5t-67 -248.5zM279 1427h233l139 -376h-69z" />
<glyph unicode="&#xe9;" d="M59 301q0 156 70 306.5t189.5 248.5t252.5 98q109 0 172.5 -55t63.5 -141q0 -88 -82 -148.5t-336 -187.5q-86 -43 -133 -68v-37q0 -94 51 -152.5t127 -58.5q68 0 254 130l29 -41q-90 -111 -172 -168.5t-187 -57.5q-135 0 -217 94.5t-82 237.5zM256 420h6 q217 117 294 184.5t77 149.5q0 35 -58.5 62.5t-99.5 27.5q-45 0 -67 -23q-41 -41 -85 -152.5t-67 -248.5zM438 1051l240 376h233l-405 -376h-68z" />
<glyph unicode="&#xea;" d="M59 301q0 156 70 306.5t189.5 248.5t252.5 98q109 0 172.5 -55t63.5 -141q0 -88 -82 -148.5t-336 -187.5q-86 -43 -133 -68v-37q0 -94 51 -152.5t127 -58.5q68 0 254 130l29 -41q-90 -111 -172 -168.5t-187 -57.5q-135 0 -217 94.5t-82 237.5zM254 1051l225 376h215 l125 -376h-69l-177 252h-4l-245 -252h-70zM256 420h6q217 117 294 184.5t77 149.5q0 35 -58.5 62.5t-99.5 27.5q-45 0 -67 -23q-41 -41 -85 -152.5t-67 -248.5z" />
<glyph unicode="&#xeb;" d="M59 301q0 156 70 306.5t189.5 248.5t252.5 98q109 0 172.5 -55t63.5 -141q0 -88 -82 -148.5t-336 -187.5q-86 -43 -133 -68v-37q0 -94 51 -152.5t127 -58.5q68 0 254 130l29 -41q-90 -111 -172 -168.5t-187 -57.5q-135 0 -217 94.5t-82 237.5zM225 1241q0 57 35 97 t92.5 40t92 -40t34.5 -97q0 -55 -34.5 -95t-92 -40t-92.5 40t-35 95zM256 420h6q217 117 294 184.5t77 149.5q0 35 -58.5 62.5t-99.5 27.5q-45 0 -67 -23q-41 -41 -85 -152.5t-67 -248.5zM651 1241q0 57 35 97t92.5 40t92 -40t34.5 -97q0 -55 -34.5 -95t-92 -40t-92.5 40 t-35 95z" />
<glyph unicode="&#xec;" horiz-adv-x="546" d="M29 700q41 94 116.5 174t143.5 80q41 0 113.5 -26.5t66.5 -46.5l-209 -762l57 -21l156 115l37 -39q-45 -80 -126 -142.5t-148 -62.5q-39 0 -104.5 28t-61.5 48l200 758l-61 12l-143 -156zM80 1427h233l140 -376h-70z" />
<glyph unicode="&#xed;" horiz-adv-x="546" d="M29 700q41 94 116.5 174t143.5 80q41 0 113.5 -26.5t66.5 -46.5l-209 -762l57 -21l156 115l37 -39q-45 -80 -126 -142.5t-148 -62.5q-39 0 -104.5 28t-61.5 48l200 758l-61 12l-143 -156zM217 1051l240 376h233l-405 -376h-68z" />
<glyph unicode="&#xee;" horiz-adv-x="546" d="M29 700q41 94 116.5 174t143.5 80q41 0 113.5 -26.5t66.5 -46.5l-209 -762l57 -21l156 115l37 -39q-45 -80 -126 -142.5t-148 -62.5q-39 0 -104.5 28t-61.5 48l200 758l-61 12l-143 -156zM66 1051l225 376h215l125 -376h-70l-176 252h-4l-246 -252h-69z" />
<glyph unicode="&#xef;" horiz-adv-x="546" d="M29 700q41 94 116.5 174t143.5 80q41 0 113.5 -26.5t66.5 -46.5l-209 -762l57 -21l156 115l37 -39q-45 -80 -126 -142.5t-148 -62.5q-39 0 -104.5 28t-61.5 48l200 758l-61 12l-143 -156zM35 1241q0 57 34.5 97t92 40t92.5 -40t35 -97q0 -55 -35 -95t-92.5 -40t-92 40 t-34.5 95zM461 1241q0 57 34.5 97t92 40t92.5 -40t35 -97q0 -55 -35 -95t-92.5 -40t-92 40t-34.5 95z" />
<glyph unicode="&#xf0;" horiz-adv-x="944" d="M63 379q0 217 136.5 396t324.5 179q131 0 187 -108q-22 182 -133 303l-322 -90l23 92l225 66q-80 59 -191 96l43 84q160 -49 279 -146l285 80l-23 -92l-186 -53q195 -199 198 -486q0 -291 -151.5 -511t-356.5 -220q-164 0 -251 112t-87 298zM256 305q0 -102 38 -178 t107 -76q61 0 119 67.5t89.5 146.5t49.5 157q25 119 25 211q0 100 -37 169.5t-106 69.5q-88 0 -157.5 -115.5t-102.5 -242.5q-25 -102 -25 -209z" />
<glyph unicode="&#xf1;" horiz-adv-x="1081" d="M27 700q41 94 115.5 174t142.5 80q43 0 110.5 -21.5t67.5 -45.5q0 -61 -119 -488h18q182 391 267 473q82 82 178 82q68 0 115 -43t47 -108q0 -90 -88 -383l-97 -301l58 -21l155 115l37 -39q-45 -80 -126 -142.5t-148 -62.5q-41 0 -103.5 24.5t-62.5 49.5q0 35 108 385 q76 231 76 279q0 31 -29.5 55t-64.5 24q-47 0 -125 -119.5t-199 -375.5l-61 -299l-209 6l74 303l104 496l-59 10l-146 -148zM260 1085q68 264 240 265q70 0 165 -73t128 -73q31 0 56 28t64 101h70q-70 -264 -242 -264q-55 0 -112.5 37t-104.5 74t-77.5 37t-54 -28 t-60.5 -104h-72z" />
<glyph unicode="&#xf2;" horiz-adv-x="944" d="M63 379q0 217 141.5 396t336.5 179q162 0 249 -111.5t87 -295.5q0 -219 -140.5 -398.5t-335.5 -179.5q-164 0 -251 112t-87 298zM256 305q0 -102 38 -178t107 -76q61 0 119 67.5t89.5 146.5t49.5 157q25 119 25 211q0 100 -37 169.5t-106 69.5q-88 0 -158 -115.5 t-102 -242.5q-25 -102 -25 -209zM295 1427h233l140 -376h-70z" />
<glyph unicode="&#xf3;" horiz-adv-x="944" d="M63 379q0 217 141.5 396t336.5 179q162 0 249 -111.5t87 -295.5q0 -219 -140.5 -398.5t-335.5 -179.5q-164 0 -251 112t-87 298zM256 305q0 -102 38 -178t107 -76q61 0 119 67.5t89.5 146.5t49.5 157q25 119 25 211q0 100 -37 169.5t-106 69.5q-88 0 -158 -115.5 t-102 -242.5q-25 -102 -25 -209zM469 1051l240 376h233l-405 -376h-68z" />
<glyph unicode="&#xf4;" horiz-adv-x="944" d="M63 379q0 217 141.5 396t336.5 179q162 0 249 -111.5t87 -295.5q0 -219 -140.5 -398.5t-335.5 -179.5q-164 0 -251 112t-87 298zM256 305q0 -102 38 -178t107 -76q61 0 119 67.5t89.5 146.5t49.5 157q25 119 25 211q0 100 -37 169.5t-106 69.5q-88 0 -158 -115.5 t-102 -242.5q-25 -102 -25 -209zM285 1051l225 376h215l125 -376h-70l-176 252h-4l-246 -252h-69z" />
<glyph unicode="&#xf5;" horiz-adv-x="944" d="M63 379q0 217 141.5 396t336.5 179q162 0 249 -111.5t87 -295.5q0 -219 -140.5 -398.5t-335.5 -179.5q-164 0 -251 112t-87 298zM242 1085q68 264 239 265q70 0 165 -73t128 -73q31 0 56.5 28t64.5 101h70q-70 -264 -242 -264q-55 0 -112.5 37t-104.5 74t-78 37 t-54.5 -28t-60.5 -104h-71zM256 305q0 -102 38 -178t107 -76q61 0 119 67.5t89.5 146.5t49.5 157q25 119 25 211q0 100 -37 169.5t-106 69.5q-88 0 -158 -115.5t-102 -242.5q-25 -102 -25 -209z" />
<glyph unicode="&#xf6;" horiz-adv-x="944" d="M63 379q0 217 141.5 396t336.5 179q162 0 249 -111.5t87 -295.5q0 -219 -140.5 -398.5t-335.5 -179.5q-164 0 -251 112t-87 298zM256 305q0 -102 38 -178t107 -76q61 0 119 67.5t89.5 146.5t49.5 157q25 119 25 211q0 100 -37 169.5t-106 69.5q-88 0 -158 -115.5 t-102 -242.5q-25 -102 -25 -209zM270 1241q0 57 35 97t92.5 40t92 -40t34.5 -97q0 -55 -34.5 -95t-92 -40t-92.5 40t-35 95zM696 1241q0 57 35 97t92.5 40t92 -40t34.5 -97q0 -55 -34.5 -95t-92 -40t-92.5 40t-35 95z" />
<glyph unicode="&#xf7;" horiz-adv-x="983" d="M76 424l6 113h817l6 -113h-829zM385 190.5q0 45.5 29.5 77t77 31.5t78 -31.5t30.5 -77t-30.5 -77t-78 -31.5t-77 31.5t-29.5 77zM385 770q0 45 29.5 77t77 32t78 -32t30.5 -77t-30.5 -76.5t-78 -31.5t-77 31.5t-29.5 76.5z" />
<glyph unicode="&#xf8;" horiz-adv-x="944" d="M6 -264l178 309q-121 109 -121 334q0 217 141.5 396t336.5 179q90 0 149 -32l176 303h84l-198 -344q125 -109 125 -334q0 -219 -140.5 -398.5t-335.5 -179.5q-90 0 -155 35l-154 -268h-86zM252 305q0 -58 16 -117l367 637q-37 49 -94 49q-88 0 -159 -116.5t-103 -243.5 q-27 -111 -27 -209zM303 104q39 -55 98 -55q63 0 121 67.5t89.5 146.5t50.5 159q25 117 24 211q0 59 -12 108q-369 -637 -371 -637z" />
<glyph unicode="&#xf9;" horiz-adv-x="1081" d="M55 700q41 94 117 174t143 80q39 0 105.5 -29.5t66.5 -54.5q0 -47 -106 -374q-74 -236 -74 -273q0 -33 29 -59.5t65 -26.5q47 0 124 119t202 377l64 299l208 -4l-79 -303q-88 -459 -107 -508l59 -21l154 115l35 -41q-45 -78 -125 -139.5t-148 -61.5q-41 0 -103 25.5 t-62 50.5q0 39 120 479h-18q-184 -389 -268 -473q-82 -82 -181 -82q-66 0 -112.5 46t-46.5 112q0 100 88 377q12 41 33.5 110.5t36 116.5t22.5 72l-59 12l-146 -156zM334 1427h233l140 -376h-70z" />
<glyph unicode="&#xfa;" horiz-adv-x="1081" d="M55 700q41 94 117 174t143 80q39 0 105.5 -29.5t66.5 -54.5q0 -47 -106 -374q-74 -236 -74 -273q0 -33 29 -59.5t65 -26.5q47 0 124 119t202 377l64 299l208 -4l-79 -303q-88 -459 -107 -508l59 -21l154 115l35 -41q-45 -78 -125 -139.5t-148 -61.5q-41 0 -103 25.5 t-62 50.5q0 39 120 479h-18q-184 -389 -268 -473q-82 -82 -181 -82q-66 0 -112.5 46t-46.5 112q0 100 88 377q12 41 33.5 110.5t36 116.5t22.5 72l-59 12l-146 -156zM512 1051l240 376h233l-405 -376h-68z" />
<glyph unicode="&#xfb;" horiz-adv-x="1081" d="M55 700q41 94 117 174t143 80q39 0 105.5 -29.5t66.5 -54.5q0 -47 -106 -374q-74 -236 -74 -273q0 -33 29 -59.5t65 -26.5q47 0 124 119t202 377l64 299l208 -4l-79 -303q-88 -459 -107 -508l59 -21l154 115l35 -41q-45 -78 -125 -139.5t-148 -61.5q-41 0 -103 25.5 t-62 50.5q0 39 120 479h-18q-184 -389 -268 -473q-82 -82 -181 -82q-66 0 -112.5 46t-46.5 112q0 100 88 377q12 41 33.5 110.5t36 116.5t22.5 72l-59 12l-146 -156zM338 1051l225 376h215l125 -376h-69l-177 252h-4l-245 -252h-70z" />
<glyph unicode="&#xfc;" horiz-adv-x="1081" d="M55 700q41 94 117 174t143 80q39 0 105.5 -29.5t66.5 -54.5q0 -47 -106 -374q-74 -236 -74 -273q0 -33 29 -59.5t65 -26.5q47 0 124 119t202 377l64 299l208 -4l-79 -303q-88 -459 -107 -508l59 -21l154 115l35 -41q-45 -78 -125 -139.5t-148 -61.5q-41 0 -103 25.5 t-62 50.5q0 39 120 479h-18q-184 -389 -268 -473q-82 -82 -181 -82q-66 0 -112.5 46t-46.5 112q0 100 88 377q12 41 33.5 110.5t36 116.5t22.5 72l-59 12l-146 -156zM319 1241q0 57 35 97t92.5 40t92 -40t34.5 -97q0 -55 -34.5 -95t-92 -40t-92.5 40t-35 95zM745 1241 q0 57 35 97t92.5 40t92 -40t34.5 -97q0 -55 -34.5 -95t-92 -40t-92.5 40t-35 95z" />
<glyph unicode="&#xfd;" horiz-adv-x="927" d="M-195 -367q0 51 36 85t79 34q57 0 98 -43t39 -106h35l268 368l-120 33l-4 799l-60 12l-143 -156l-37 41q41 94 116.5 174t143.5 80q41 0 108.5 -24.5t67.5 -48.5l-18 -777h24l332 566v22q-111 43 -111 127q0 57 36 98t91 41q68 0 109 -41.5t41 -111.5q0 -125 -240 -453 l-196 -272l-117 -230q-96 -186 -191.5 -277t-205.5 -91q-72 0 -126.5 43t-54.5 108zM461 1051l239 376h234l-406 -376h-67z" />
<glyph unicode="&#xfe;" horiz-adv-x="974" d="M-209 -504l4 76l107 22q45 10 53 50l324 1513q12 47 -17 60l-125 55l13 55l378 100l-114 -473l-105 -432h19q121 236 203.5 334t177.5 98q88 0 146 -83t58 -212q0 -156 -62.5 -305t-162.5 -248q-139 -139 -278 -139q-106 0 -177 94h-6l-84 -417q-6 -41 41 -50l138 -22 l6 -76h-537zM256 207q47 -61 109.5 -107.5t105.5 -46.5q31 0 66 35q68 68 125 228.5t57 289.5q0 82 -25.5 135.5t-70.5 53.5q-51 0 -118 -87t-202 -321z" />
<glyph unicode="&#xff;" horiz-adv-x="927" d="M-195 -367q0 51 36 85t79 34q57 0 98 -43t39 -106h35l268 368l-120 33l-4 799l-60 12l-143 -156l-37 41q41 94 116.5 174t143.5 80q41 0 108.5 -24.5t67.5 -48.5l-18 -777h24l332 566v22q-111 43 -111 127q0 57 36 98t91 41q68 0 109 -41.5t41 -111.5q0 -125 -240 -453 l-196 -272l-117 -230q-96 -186 -191.5 -277t-205.5 -91q-72 0 -126.5 43t-54.5 108zM246 1241q0 57 34.5 97t92 40t92.5 -40t35 -97q0 -55 -35 -95t-92.5 -40t-92 40t-34.5 95zM672 1241q0 57 34.5 97t92 40t92.5 -40t35 -97q0 -55 -35 -95t-92.5 -40t-92 40t-34.5 95z" />
<glyph unicode="&#x152;" horiz-adv-x="1916" d="M100 561q0 293 207 498q100 100 260 160.5t353 60.5h999l-68 -401h-106l-21 184q-4 39 -14 60.5t-29.5 38t-69.5 22.5t-110.5 8t-177.5 2h-72l-67 -502h39q104 0 151 13.5t68 52.5l51 127h92l-108 -467h-91l7 129q2 35 -34 47t-153 12h-35l-69 -520h67q197 0 280 9 t121 34t66 88l74 170h129l-90 -387h-1020q-295 0 -462 153.5t-167 407.5zM354 555q0 -217 106.5 -343t311.5 -126h96l144 1077l-140 31q-229 -8 -373.5 -177t-144.5 -462z" />
<glyph unicode="&#x153;" horiz-adv-x="1406" d="M63 377q0 221 137.5 399t340.5 178q209 0 278 -196q137 197 340 196q109 0 172.5 -55t63.5 -141q0 -88 -82 -148.5t-336 -187.5q-86 -43 -133 -68v-37q0 -94 51 -152.5t127 -58.5q68 0 254 130l29 -41q-90 -111 -172 -168.5t-187 -57.5q-176 0 -241 158 q-123 -158 -304 -158q-164 0 -251 112t-87 296zM256 305q0 -102 38 -178t107 -76q61 0 119 67.5t89.5 146.5t49.5 157q25 119 25 211q0 100 -37 169.5t-106 69.5q-88 0 -158 -115.5t-102 -242.5q-25 -102 -25 -209zM844 420h6q217 117 294 184.5t77 149.5q0 35 -58.5 62.5 t-99.5 27.5q-45 0 -68 -23q-41 -41 -85 -152.5t-66 -248.5z" />
<glyph unicode="&#x178;" horiz-adv-x="1218" d="M66 1280h557l-9 -78l-82 -12q-35 -4 -45 -26.5t-1.5 -58.5t34.5 -97l164 -375h12l265 399q47 66 43.5 104t-60.5 50l-82 16l-6 78h481l-6 -78l-53 -14q-61 -16 -106.5 -50t-110.5 -130l-318 -465l-53 -396q-6 -39 41 -49l131 -22l4 -76h-614l10 76l141 22q47 8 54 49 l51 390l-248 522q-29 57 -53.5 82.5t-65.5 38.5l-71 22zM418 1583q0 57 34.5 97t92 40t92.5 -40t35 -97q0 -55 -35 -95t-92.5 -40t-92 40t-34.5 95zM844 1583q0 57 34.5 97t92 40t92.5 -40t35 -97q0 -55 -35 -95t-92.5 -40t-92 40t-34.5 95z" />
<glyph unicode="&#x2c6;" d="M182 1051l226 376h215l125 -376h-70l-176 252h-4l-246 -252h-70z" />
<glyph unicode="&#x2dc;" d="M125 1085q68 264 240 265q70 0 165 -73t127 -73q31 0 56.5 28t64.5 101h70q-70 -264 -242 -264q-55 0 -112.5 37t-104.5 74t-77.5 37t-54.5 -28t-60 -104h-72z" />
<glyph unicode="&#x2000;" horiz-adv-x="884" />
<glyph unicode="&#x2001;" horiz-adv-x="1769" />
<glyph unicode="&#x2002;" horiz-adv-x="884" />
<glyph unicode="&#x2003;" horiz-adv-x="1769" />
<glyph unicode="&#x2004;" horiz-adv-x="589" />
<glyph unicode="&#x2005;" horiz-adv-x="442" />
<glyph unicode="&#x2006;" horiz-adv-x="294" />
<glyph unicode="&#x2007;" horiz-adv-x="294" />
<glyph unicode="&#x2008;" horiz-adv-x="221" />
<glyph unicode="&#x2009;" horiz-adv-x="353" />
<glyph unicode="&#x200a;" horiz-adv-x="98" />
<glyph unicode="&#x2010;" horiz-adv-x="677" d="M68 432l6 117h534l6 -117h-546z" />
<glyph unicode="&#x2011;" horiz-adv-x="677" d="M68 432l6 117h534l6 -117h-546z" />
<glyph unicode="&#x2012;" horiz-adv-x="677" d="M68 432l6 117h534l6 -117h-546z" />
<glyph unicode="&#x2013;" horiz-adv-x="962" d="M61 432l7 117h837l6 -117h-850z" />
<glyph unicode="&#x2014;" horiz-adv-x="1925" d="M61 432l7 117h1800l6 -117h-1813z" />
<glyph unicode="&#x2018;" horiz-adv-x="485" d="M109 924q0 131 123.5 248.5t316.5 195.5l35 -45q-102 -53 -180 -135t-78 -160q0 -29 12 -56.5t29.5 -47t36 -33.5t29.5 -22.5t11 -10.5q-10 -49 -53 -84t-102 -35q-80 0 -130 54.5t-50 130.5z" />
<glyph unicode="&#x2019;" horiz-adv-x="485" d="M90 784q90 51 153.5 123t63.5 146q0 33 -14 61.5t-34.5 49t-41 34.5t-35.5 23l-14 8q0 49 45 85t104 36q78 0 133.5 -58.5t55.5 -140.5q0 -215 -367 -410z" />
<glyph unicode="&#x201a;" horiz-adv-x="485" d="M-70 -305q92 51 156 122.5t64 145.5q0 33 -14.5 62.5t-35 50t-41 35t-34.5 22.5l-15 8q0 49 45 85t105 36q78 0 133 -58.5t55 -140.5q0 -219 -368 -411z" />
<glyph unicode="&#x201c;" horiz-adv-x="913" d="M109 938q0 215 366 410l49 -43q-90 -51 -153.5 -123t-63.5 -144q0 -33 14.5 -62.5t35 -49t41 -34.5t34.5 -24l14 -8q0 -49 -45 -85t-104 -36q-78 0 -133 58.5t-55 140.5zM559 938q0 217 365 410l49 -43q-90 -51 -153.5 -123t-63.5 -144q0 -33 14 -62.5t34.5 -49t41 -34.5 t35.5 -24l14 -8q0 -49 -45 -85t-105 -36q-76 0 -131 58.5t-55 140.5z" />
<glyph unicode="&#x201d;" horiz-adv-x="913" d="M100 784q92 51 155.5 123t63.5 146q0 33 -14 61.5t-34.5 49t-42 34.5t-35.5 23l-15 8q0 49 45 85t105 36q78 0 133 -58.5t55 -140.5q0 -215 -366 -410zM549 784q92 51 155.5 123t63.5 146q0 33 -14.5 61.5t-35 49t-41 34.5t-34.5 23l-14 8q0 49 44 85t103 36 q78 0 133.5 -58.5t55.5 -140.5q0 -217 -365 -410z" />
<glyph unicode="&#x201e;" horiz-adv-x="913" d="M-59 -305q92 51 156.5 122.5t64.5 145.5q0 33 -14.5 62.5t-35 50t-42 35t-35.5 22.5l-15 8q0 49 45.5 85t104.5 36q78 0 133 -58.5t55 -140.5q0 -219 -368 -411zM391 -305q92 51 155.5 122.5t63.5 145.5q0 33 -14 62.5t-34.5 50t-41 35t-35.5 22.5l-14 8q0 49 44 85 t103 36q78 0 133.5 -58.5t55.5 -140.5q0 -219 -365 -411z" />
<glyph unicode="&#x2022;" horiz-adv-x="931" d="M72 475q0 45 43 146.5t73.5 132t133 72.5t145.5 42q45 0 146.5 -42t132 -72.5t72.5 -132t42 -146.5t-41 -146.5t-74 -133.5q-31 -31 -133 -73t-147 -42q-43 0 -145.5 42t-131.5 73q-31 33 -73.5 135t-42.5 145z" />
<glyph unicode="&#x2026;" horiz-adv-x="1425" d="M45 116.5q0 59.5 44 102.5t108 43q61 0 103 -43t42 -102.5t-42 -103.5t-103 -44q-63 0 -107.5 44t-44.5 103.5zM520 116.5q0 59.5 44 102.5t108 43q61 0 103 -43t42 -102.5t-42 -103.5t-103 -44q-63 0 -107.5 44t-44.5 103.5zM995 116.5q0 59.5 44 102.5t108 43 q61 0 103 -43t42 -102.5t-42 -103.5t-103 -44q-63 0 -107.5 44t-44.5 103.5z" />
<glyph unicode="&#x202f;" horiz-adv-x="353" />
<glyph unicode="&#x2039;" horiz-adv-x="614" d="M51 406v102l516 321l17 -43l-367 -335l283 -316l-27 -43z" />
<glyph unicode="&#x203a;" horiz-adv-x="614" d="M41 127l336 326l-254 325l27 43l421 -313l-12 -111l-504 -313z" />
<glyph unicode="&#x205f;" horiz-adv-x="442" />
<glyph unicode="&#x20ac;" horiz-adv-x="1048" d="M16 440l7 90h127v17q4 82 14 145h-115l6 90h127q61 227 223 367.5t369 140.5q147 0 229 -51t82 -129q0 -53 -29.5 -89t-80.5 -36q-57 0 -93 53.5t-36 124.5q-51 37 -131 37q-125 0 -216 -109.5t-126 -308.5h413l7 -90h-433q-6 -68 -6 -137v-25h400l6 -90h-400 q23 -160 104 -248t216 -88q133 0 276 117l27 -45q-61 -92 -162.5 -149.5t-214.5 -57.5q-195 0 -310.5 132t-139.5 339h-140z" />
<glyph unicode="&#x2122;" horiz-adv-x="1898" d="M109 993l14 287h692v-287h-72l-12 39q-35 117 -67.5 152t-128.5 35h-3v-603q0 -23 25 -28l86 -13l2 -57h-379l6 57l84 13q27 6 27 28v603h-2q-82 0 -119 -38t-74 -149l-12 -39h-67zM901 518l6 57l62 11q25 4 34 41t13 170l12 383q0 25 -27 30l-69 13l-4 57h321l127 -563 h21l172 563h323l-4 -57l-69 -13q-29 -6 -29 -30l8 -465q2 -115 41 -125l64 -15l4 -57h-353l2 57l64 15q16 4 21.5 26.5t3.5 98.5l-9 475h-20l-211 -647h-121l-162 653h-20l-15 -399q-4 -137 -0.5 -170t23.5 -41l66 -11l4 -57h-279z" />
<glyph unicode="&#x25fc;" horiz-adv-x="952" d="M0 0v952h952v-952h-952z" />
</font>
</defs>
</svg>
