<?xml version="1.0" standalone="no"?>
<!DOCTYPE svg PUBLIC "-//W3C//DTD SVG 1.1//EN" "http://www.w3.org/Graphics/SVG/1.1/DTD/svg11.dtd" >
<svg xmlns="http://www.w3.org/2000/svg" xmlns:xlink="http://www.w3.org/1999/xlink" version="1.1">
<metadata></metadata>
<defs>
<font id="freighttextpfreighttextproSBd" horiz-adv-x="819" >
<font-face units-per-em="2048" ascent="1491" descent="-557" />
<missing-glyph horiz-adv-x="466" />
<glyph unicode="&#xfb01;" horiz-adv-x="1185" d="M18 809l13 109h143l2 45q14 215 150.5 339.5t351.5 124.5q94 0 167 -45t73 -120q0 -51 -33 -83t-82 -32q-115 0 -150 145l-2 8l-123 25q-141 -88 -141 -346v-61h361l249 32v-831q0 -31 78 -37l53 -6l7 -76h-469l6 76l53 6q70 6 70 39v684h-408v-686q0 -33 78 -37l98 -6 l6 -76h-514l6 76l54 6q70 6 69 39v676z" />
<glyph unicode="&#xfb02;" horiz-adv-x="1183" d="M18 809l13 109h143l2 45q14 215 150.5 339.5t351.5 124.5q106 0 174 -49l145 49v-1308q0 -33 78 -37l51 -6l7 -76h-467l6 76l53 6q70 6 70 39v684h-408v-686q0 -33 78 -37l98 -6l6 -76h-514l6 76l54 6q70 6 69 39v676zM387 918h408v229q-106 2 -142 145l-2 8l-123 25 q-141 -88 -141 -346v-61z" />
<glyph unicode="&#xfb03;" horiz-adv-x="1800" d="M18 809l13 109h143l2 24q20 207 149.5 336t305.5 129q86 0 147.5 -42t61.5 -103q0 -53 -32 -82t-79 -29q-51 0 -90 38t-57 114l-2 8l-60 4q-133 -82 -133 -342v-55h401l5 45q12 215 148 339.5t351 124.5q94 0 167 -45t73 -120q0 -51 -33 -83t-82 -32q-115 0 -149 145 l-2 8l-123 25q-141 -88 -142 -346v-61h361l250 32v-831q0 -31 78 -37l53 -6l6 -76h-469l6 76l53 6q70 6 70 39v684h-408v-686q0 -33 78 -37l99 -6l6 -76h-514l6 76l53 6q70 8 70 39v686h-412v-668q0 -39 55 -45l129 -18l7 -76h-523l6 76l70 18q53 6 53 45v658z" />
<glyph unicode="&#xfb04;" horiz-adv-x="1798" d="M18 809l13 109h143l2 24q20 207 149.5 336t305.5 129q86 0 147.5 -42t61.5 -103q0 -53 -32 -82t-79 -29q-51 0 -90 38t-57 114l-2 8l-60 4q-133 -82 -133 -342v-55h401l5 45q12 215 148 339.5t351 124.5q106 0 174 -49l146 49v-1308q0 -33 78 -37l51 -6l6 -76h-467l6 76 l53 6q70 6 70 39v684h-408v-686q0 -33 78 -37l99 -6l6 -76h-514l6 76l53 6q70 8 70 39v686h-412v-668q0 -39 55 -45l129 -18l7 -76h-523l6 76l70 18q53 6 53 45v658zM1001 918h408v229q-106 2 -141 145l-2 8l-123 25q-141 -88 -142 -346v-61z" />
<glyph horiz-adv-x="0" />
<glyph unicode="&#xd;" horiz-adv-x="681" />
<glyph unicode=" "  horiz-adv-x="466" />
<glyph unicode="&#x09;" horiz-adv-x="466" />
<glyph unicode="&#xa0;" horiz-adv-x="466" />
<glyph unicode="!" horiz-adv-x="591" d="M164 102q0 53 39 91t96 38q55 0 93 -38t38 -91q0 -55 -38 -94t-93 -39q-57 0 -96 39t-39 94zM178 1210q-6 47 22.5 73t96.5 26h4q68 0 95.5 -26t21.5 -73l-96 -802q-2 -14 -22.5 -14.5t-25.5 14.5z" />
<glyph unicode="&#x22;" horiz-adv-x="784" d="M20 825l224 498h4l174 -61l-316 -437h-86zM365 825l223 498h2l174 -61l-318 -437h-81z" />
<glyph unicode="#" horiz-adv-x="1175" d="M6 367v86h281l98 368h-258v88h283l104 383h90l-102 -383h334l102 383h90l-102 -383h260v-88h-285l-98 -368h260v-86h-283l-102 -379h-90l102 379h-336l-102 -379h-90l102 379h-258zM377 453h336l98 368h-334z" />
<glyph unicode="$" horiz-adv-x="1081" d="M111 408h102l90 -295q6 -4 21.5 -9.5t19.5 -7.5l125 475q-168 63 -256 143.5t-88 227.5q0 150 115.5 257.5t330.5 109.5q63 0 91 -2l53 204h90l-55 -215q53 -8 79 -14l107 29v-416h-102l-68 268q-27 10 -47 17l-109 -416q92 -35 150.5 -62.5t120 -74.5t91 -112.5 t29.5 -152.5q0 -160 -132 -275.5t-355 -117.5q-76 0 -111 4l-79 -299h-91l82 310q-80 12 -180 45zM317 1022q0 -86 53.5 -136t155.5 -91q2 4 3 11t7.5 30.5t12.5 46t14 54.5t16.5 60.5t16.5 59t14 55.5l13 45q4 20 8 31l2 10q-51 10 -88 10q-109 0 -168.5 -53t-59.5 -133z M430 78q59 -12 113 -12q125 2 193.5 65.5t68.5 151.5q0 100 -62.5 155.5t-189.5 104.5q-123 -463 -123 -465z" />
<glyph unicode="%" horiz-adv-x="1527" d="M35 987q0 143 93 242.5t246.5 99.5t247 -98.5t93.5 -243.5q0 -141 -93.5 -239.5t-246.5 -98.5q-152 0 -246 98.5t-94 239.5zM135 987q0 -100 65.5 -173t174 -73t174 73t65.5 173q0 106 -65.5 178t-174 72t-174 -71.5t-65.5 -178.5zM190 -31l1039 1340h110l-1038 -1340 h-111zM813 291q0 141 93 239.5t247 98.5q152 0 246 -98.5t94 -239.5q0 -143 -93 -242.5t-247 -99.5t-247 98t-93 244zM913 291q0 -106 65.5 -178t174.5 -72t174.5 72t65.5 178q0 100 -65.5 173t-174.5 73t-174.5 -73t-65.5 -173z" />
<glyph unicode="&#x26;" horiz-adv-x="1445" d="M51 301q0 125 82 225.5t211 149.5q-94 45 -146.5 121.5t-52.5 173.5q0 141 118 239.5t290 98.5q154 0 250 -78t96 -189q0 -102 -67.5 -184t-196.5 -131q203 -94 313 -274q106 141 107 178q27 59 -45 74l-47 10l-5 73h449l-6 -73l-53 -13q-117 -31 -193 -129l-160 -198 q70 -141 121 -198.5t137 -57.5q72 0 162 55l33 -53q-150 -154 -299 -154q-106 0 -176 58.5t-125 177.5q-188 -233 -432 -234q-168 0 -266.5 96.5t-98.5 235.5zM250 381q0 -106 81 -181t193 -75q76 0 153 42t134 120q-63 133 -158.5 209.5t-244.5 138.5q-156 -106 -158 -254z M332 1038q0 -92 55 -157.5t176 -116.5q139 80 139 252q0 84 -48 145.5t-132 61.5q-86 0 -138 -53.5t-52 -131.5z" />
<glyph unicode="'" horiz-adv-x="442" d="M20 825l226 498h2l174 -61l-316 -437h-86z" />
<glyph unicode="(" horiz-adv-x="808" d="M186 442q0 176 53.5 340t138.5 282t175 200t180 127l55 -76q-82 -43 -164.5 -123t-157.5 -189.5t-122 -257t-47 -303.5q0 -301 154.5 -538.5t336.5 -333.5l-55 -76q-88 43 -179 126t-176 200t-138.5 280.5t-53.5 341.5z" />
<glyph unicode=")" horiz-adv-x="808" d="M20 -432q82 43 165 123t158 189.5t122 258t47 304t-47 303t-122 257t-158 189.5t-165 123l58 76q88 -45 178 -127t175 -200t138.5 -282t53.5 -340q0 -178 -53.5 -341.5t-138.5 -280.5t-175 -200t-178 -126z" />
<glyph unicode="*" horiz-adv-x="720" d="M68 780l45 121l200 53v39l-200 58l-45 116l26 37l129 -10l109 -180l33 10l-7 211l95 78l45 -15l30 -120l-139 -164l21 -27l198 76l105 -70v-45l-105 -69l-198 77l-21 -26l135 -164l-30 -121l-43 -12l-97 78l8 213l-30 8l-109 -176l-125 -13z" />
<glyph unicode="+" horiz-adv-x="983" d="M61 424l7 113h368v374h113v-374h366l7 -113h-373v-377h-113v377h-375z" />
<glyph unicode="," horiz-adv-x="475" d="M59 -328q182 127 183 269q0 55 -43 98t-86 63l-43 21q0 55 42 95t109 40q78 0 139.5 -60.5t61.5 -146.5q0 -207 -307 -422z" />
<glyph unicode="-" horiz-adv-x="677" d="M68 432l6 117h534l6 -117h-546z" />
<glyph unicode="." horiz-adv-x="477" d="M90 116.5q0 59.5 43 102.5t106.5 43t105.5 -43t42 -102.5t-42 -103.5t-105 -44q-61 0 -105.5 44t-44.5 103.5z" />
<glyph unicode="/" horiz-adv-x="571" d="M12 -416l441 1796h102l-440 -1796h-103z" />
<glyph unicode="0" horiz-adv-x="1155" d="M78 481.5q0 229.5 140 372.5t361.5 143t359.5 -141t138 -370.5t-140 -373t-361.5 -143.5t-359.5 141.5t-138 371zM227 485.5q0 -163.5 98.5 -268t254 -104.5t251 102t95.5 266t-97.5 267.5t-253 103.5t-252 -101.5t-96.5 -265z" />
<glyph unicode="1" horiz-adv-x="778" d="M80 844l6 65l420 84v-846q0 -39 47 -47l133 -22l6 -78h-569l6 78l127 22q47 14 47 47v678z" />
<glyph unicode="2" horiz-adv-x="978" d="M63 131q287 213 373 299q119 121 119 215q0 84 -55.5 137.5t-147.5 53.5q-121 0 -223 -136l-43 23q43 131 148.5 202.5t236.5 71.5t221 -75.5t90 -194.5q0 -141 -172 -291q-74 -61 -372 -268v-10h102q152 0 228.5 3t131 14t74 28.5t37.5 52.5l43 82h72l-25 -338h-825z " />
<glyph unicode="3" horiz-adv-x="882" d="M20 -246q0 45 31 77t76 32q63 0 108.5 -53.5t55.5 -122.5q14 -4 43 -4q109 0 191.5 79.5t82.5 210.5q0 125 -71.5 201t-188.5 76q-82 0 -166 -37l-24 61q23 14 82 52.5t86.5 56.5t72.5 53t65.5 61.5t38 63.5t17.5 76q0 84 -57 141.5t-148 57.5q-133 0 -231 -136 q-16 4 -43 23q43 129 152.5 201.5t246.5 72.5q133 0 219 -75.5t86 -184.5q0 -102 -68.5 -185t-215.5 -167v-6q158 0 259 -86t101 -232q0 -190 -159.5 -331.5t-374.5 -141.5q-115 0 -191 48.5t-76 117.5z" />
<glyph unicode="4" horiz-adv-x="1026" d="M16 109l658 878h114v-805h240l-14 -147h-226v-412h-196v412h-567zM168 182h424v553h-8z" />
<glyph unicode="5" horiz-adv-x="892" d="M12 -250q0 45 31 77t76 32q59 0 105 -48.5t57 -117.5q35 -10 63 -10q115 0 191.5 81.5t76.5 200.5q0 272 -516 402l152 600h569l-6 -191h-510l-63 -246q555 -145 555 -469q0 -193 -156 -332t-354 -139q-121 0 -196 44t-75 116z" />
<glyph unicode="6" horiz-adv-x="1075" d="M80 483q0 346 263 595t630 272l14 -72q-272 -37 -441 -196.5t-227 -381.5l3 -4q137 117 299 117q166 0 266 -111.5t100 -283.5q0 -199 -134 -327t-329 -128q-205 0 -324.5 151.5t-119.5 368.5zM301 483q0 -168 72.5 -297t195.5 -129q98 0 152.5 84t54.5 213 q0 150 -72.5 242t-183.5 92q-119 0 -203 -84q-16 -29 -16 -121z" />
<glyph unicode="7" horiz-adv-x="987" d="M53 612l45 355h836l10 -90l-641 -1254h-131l612 1159v9h-282q-211 0 -254 -7.5t-62 -48.5l-61 -123h-72z" />
<glyph unicode="8" horiz-adv-x="1052" d="M86 301q0 109 75 194t199 128v2q-117 63 -181 139t-64 190q2 135 113.5 246t308.5 111q166 0 277.5 -91.5t109.5 -234.5q0 -190 -246 -289v-2q137 -72 216 -152.5t77 -209.5q0 -152 -126 -257.5t-335 -105.5q-178 0 -302 92.5t-122 239.5zM281 311q0 -113 76.5 -189.5 t195.5 -76.5q109 0 173.5 57.5t64.5 143.5q0 31 -6.5 58.5t-20.5 52t-26.5 43t-41 40t-44 33.5t-53.5 32.5t-53.5 28t-59.5 29t-56 27.5q-147 -115 -149 -279zM297 1040q0 -57 20.5 -101t70.5 -83t85 -58.5t113 -58.5q14 -6 20 -10q123 86 123 248q2 102 -62.5 182 t-168.5 80q-90 0 -145.5 -58.5t-55.5 -140.5z" />
<glyph unicode="9" horiz-adv-x="1075" d="M82 -311q272 37 441 197.5t229 379.5l-4 4q-139 -117 -297 -116q-164 0 -266.5 112.5t-102.5 282.5q0 199 134 328t329 129q207 0 326.5 -153t119.5 -370q0 -229 -123 -423.5t-326.5 -310.5t-443.5 -132zM293 614q0 -150 72.5 -241.5t185.5 -91.5q117 0 203 81 q14 25 14 123q0 166 -72.5 295t-193.5 129q-100 0 -154.5 -84t-54.5 -211z" />
<glyph unicode=":" horiz-adv-x="475" d="M90 116.5q0 59.5 43 102.5t106.5 43t105.5 -42t42 -103q0 -59 -42 -103.5t-105 -44.5q-61 0 -105.5 44t-44.5 103.5zM90 739.5q0 59.5 43 102.5t106.5 43t105.5 -42.5t42 -103.5q0 -59 -42 -103t-105 -44q-61 0 -105.5 44t-44.5 103.5z" />
<glyph unicode=";" horiz-adv-x="475" d="M59 -328q182 127 183 269q0 55 -43 98t-86 63l-43 21q0 55 42 95t109 40q78 0 139.5 -60.5t61.5 -146.5q0 -207 -307 -422zM86 739.5q0 59.5 43 102.5t106.5 43t105.5 -42.5t42 -103.5q0 -59 -42 -103t-105 -44q-61 0 -105.5 44t-44.5 103.5z" />
<glyph unicode="&#x3c;" horiz-adv-x="983" d="M55 453v57l828 385l26 -102l-667 -308v-6l667 -309l-26 -102z" />
<glyph unicode="=" horiz-adv-x="983" d="M82 248l6 112h807l6 -112h-819zM82 713h819l-6 -113h-807z" />
<glyph unicode="&#x3e;" horiz-adv-x="983" d="M74 170l667 309v6l-667 308l26 102l828 -385v-57l-828 -385z" />
<glyph unicode="?" horiz-adv-x="774" d="M106 1180q0 57 48.5 93t132.5 36q164 0 288.5 -110t124.5 -251q0 -123 -53 -176t-178 -102q-113 -43 -139 -72q-25 -27 -25 -63q0 -63 84 -152h-72q-141 98 -141 221q0 98 58.5 146.5t189.5 95.5q129 49 156 76q20 20 20 47q0 61 -91 102t-220 41q-61 0 -148 -14 q-35 31 -35 82zM205 102q0 53 39 91t94 38q57 0 94 -38t37 -91q0 -55 -37 -95t-94 -40q-55 0 -94 40t-39 95z" />
<glyph unicode="@" horiz-adv-x="1746" d="M109 539q16 334 260.5 564t580.5 222q334 -8 549 -212t199 -517q-12 -233 -149.5 -378.5t-319.5 -145.5q-143 0 -192.5 56t-35.5 128q0 10 29 118.5t35 127.5h-27q-111 -197 -191.5 -297.5t-160.5 -100.5q-88 0 -153.5 64.5t-65.5 144.5q0 123 69.5 286t163.5 257 q113 113 232 113q145 0 190 -156h23l49 135h143l-120 -340l-54 -344q-8 -43 23 -70.5t96 -27.5q131 0 222 121t102 309q14 281 -175.5 461t-486.5 186q-291 8 -509 -200.5t-232 -501.5q-16 -322 180.5 -528t493.5 -206q115 0 256 39l22 -75q-143 -47 -285 -47 q-330 0 -554 231t-207 584zM655 356q0 -55 32 -87.5t69 -32.5q63 0 284 370q10 18 24.5 65.5t14.5 53.5q-25 45 -86 89t-116 44q-47 0 -72 -24q-49 -47 -99.5 -209t-50.5 -269z" />
<glyph unicode="A" horiz-adv-x="1261" d="M-37 0l6 78l54 14q49 12 76.5 38t64.5 105.5t102 260.5l240 663v80l217 80l389 -1157q14 -51 82 -64l94 -20l6 -78h-589l6 78l88 14q41 8 53 27.5t5 57.5t-38 130l-43 137h-422l-37 -120q-40 -110 -40 -163q1 -5 1 -9q4 -52 54 -60l76 -14l6 -78h-451zM385 537h360 l-165 534h-15z" />
<glyph unicode="B" horiz-adv-x="1226" d="M78 0l6 76l80 10q72 8 72 37v1036q0 14 -14.5 21.5t-61.5 13.5l-76 10l-6 76h553q481 0 481 -285q0 -125 -95 -213t-241 -110v-10q186 -18 284.5 -104.5t98.5 -213.5q0 -166 -139 -255t-406 -89h-536zM467 104l127 -24h35q119 4 199.5 70.5t80.5 181.5q0 137 -97 209.5 t-257 72.5h-88v-510zM467 696l123 2q133 2 201.5 73t68.5 169q0 119 -74.5 188.5t-222.5 69.5h-96v-502z" />
<glyph unicode="C" horiz-adv-x="1425" d="M90 625q0 311 206 497.5t521 186.5q164 0 295 -45l176 36v-436h-119l-69 279q-127 74 -281 74q-215 0 -343 -157t-128 -407q0 -272 128 -434t360 -162q135 0 239 58l96 293h125l-43 -408l-118 23q-156 -53 -324 -54q-317 0 -519 173t-202 483z" />
<glyph unicode="D" horiz-adv-x="1437" d="M78 0l6 76l80 10q72 8 72 37v1036q0 14 -14.5 21.5t-61.5 13.5l-76 10l-6 76l504 6h16q335 0 540 -169q210 -173 210 -445q0 -285 -203 -478.5t-567 -193.5h-500zM467 113l147 -31q223 2 352.5 154t129.5 385q0 266 -145.5 421.5t-420.5 155.5h-63v-1085z" />
<glyph unicode="E" horiz-adv-x="1265" d="M78 0l6 76l80 10q72 8 72 37v1036q0 14 -14.5 21.5t-61.5 13.5l-76 10l-6 76h1061v-401h-119l-47 184q-18 66 -51 90.5t-108 32.5t-263 8h-84v-502h53q106 0 143 10.5t52 45.5l47 137h94l-45 -467h-90l-19 129q-4 35 -37.5 47t-150.5 12h-47v-520h78q197 0 278.5 9 t116.5 34t57 88l47 170h130l-39 -387h-1057z" />
<glyph unicode="F" horiz-adv-x="1191" d="M78 0l6 76l80 10q72 8 72 37v1036q0 14 -14.5 21.5t-61.5 13.5l-76 10l-6 76h1034v-401h-121l-43 184q-10 33 -18 52.5t-29.5 35.5t-44 23.5t-74 12.5t-105.5 6t-153 1h-57v-520h70q106 0 143 10t51 45l49 139h92l-47 -469h-88l-18 131q-4 35 -38 46.5t-151 11.5h-63 v-467q0 -16 15.5 -23.5t58.5 -11.5l118 -10l7 -76h-588z" />
<glyph unicode="G" horiz-adv-x="1484" d="M90 625q0 311 214 497.5t525 186.5q166 0 291 -45l172 36v-434h-125l-67 279q-119 72 -279 72q-205 0 -339 -160t-134 -402q0 -276 123 -437t346 -161q123 0 225 49v347q0 16 -15 23t-58 11l-95 11l-6 75h562l-7 -75l-82 -11q-72 -8 -71 -36v-299l123 -15l6 -57 q-291 -111 -592 -111q-317 0 -517 177.5t-200 478.5z" />
<glyph unicode="H" horiz-adv-x="1527" d="M78 0l6 76l80 10q72 8 72 37v1036q0 14 -14.5 21.5t-61.5 13.5l-76 10l-6 76h547l-7 -76l-79 -10q-72 -8 -72 -37v-457h594v459q0 16 -15.5 23.5t-58.5 11.5l-76 10l-6 76h545l-6 -76l-80 -10q-72 -8 -72 -37v-1036q0 -14 14.5 -21.5t61.5 -13.5l76 -10l6 -76h-545l6 76 l78 10q72 6 72 37v485h-594v-487q0 -16 15.5 -23.5t58.5 -11.5l77 -10l7 -76h-547z" />
<glyph unicode="I" horiz-adv-x="751" d="M82 0l6 76l100 10q72 8 72 37v1036q0 14 -14.5 21.5t-61.5 13.5l-96 10l-6 76h588l-6 -76l-101 -10q-72 -8 -71 -37v-1036q0 -16 15 -23.5t58 -11.5l99 -10l6 -76h-588z" />
<glyph unicode="J" horiz-adv-x="866" d="M8 117q0 47 32 76.5t81 29.5q61 0 110 -49q43 -43 62 -129h2q68 33 95.5 120t27.5 306v688q0 16 -15.5 23.5t-58.5 11.5l-119 10l-6 76h600l-6 -76l-92 -10q-72 -8 -72 -37v-602q0 -297 -106.5 -441.5t-304.5 -144.5q-100 0 -165 42t-65 106z" />
<glyph unicode="K" horiz-adv-x="1349" d="M78 0l6 76l80 10q72 8 72 37v1036q0 14 -14.5 21.5t-61.5 13.5l-76 10l-6 76h547l-7 -76l-79 -10q-72 -8 -72 -37v-536l360 358q113 113 113 167q0 31 -37 42q-6 2 -16 4l-78 12l-6 76h538l-6 -76l-75 -14q-55 -10 -105.5 -43t-124.5 -105l-285 -280l406 -578 q37 -51 62.5 -70.5t68.5 -27.5l55 -10l6 -76h-520l6 76l60 14q18 6 17.5 23t-17.5 45l-301 456l-121 -116v-377q0 -16 15.5 -23.5t58.5 -11.5l77 -10l7 -76h-547z" />
<glyph unicode="L" horiz-adv-x="1181" d="M78 0l6 76l80 12q72 6 72 37v1034q0 14 -15.5 21.5t-60.5 11.5l-76 12l-6 76h559l-6 -76l-92 -12q-72 -6 -72 -37v-1069h49q180 0 256 9t108.5 34t53.5 88l53 197h127l-43 -414h-993z" />
<glyph unicode="M" horiz-adv-x="1792" d="M39 0l6 76l111 14q25 4 37 24.5t24 109.5t23 270l26 528q1 11 1 21q0 118 -85 139l-114 20l-7 78h512l316 -930h14l311 930h500l-6 -78l-135 -10q-47 -6 -47 -62l20 -645q4 -166 12.5 -250.5t20.5 -112.5t35 -32l108 -14l7 -76h-572l6 76l111 14q31 4 40 84q5 42 5 127 q0 75 -4 184l-23 664h-16l-383 -1108h-139l-363 1067h-24l-29 -614q-9 -206 -9 -292q0 -29 1 -45q4 -63 35 -67l114 -14l6 -76h-446z" />
<glyph unicode="N" horiz-adv-x="1519" d="M66 0l6 76l96 20q39 6 55.5 30t24.5 107.5t8 270.5v514q0 127 -82 164l-96 22l-6 76h397l702 -971h13v467q0 193 -7.5 272.5t-22.5 104.5t-54 31l-105 20l-6 76h477l-6 -76l-96 -20q-39 -6 -55.5 -30t-24.5 -107.5t-8 -270.5v-792h-146l-772 1058h-12v-538q0 -190 7 -271 t22.5 -106t54.5 -31l105 -20l6 -76h-475z" />
<glyph unicode="O" horiz-adv-x="1542" d="M90 627q0 287 201 483.5t485 196.5q297 0 485.5 -183.5t188.5 -476.5q0 -287 -198.5 -483.5t-483.5 -196.5q-297 0 -487.5 183.5t-190.5 476.5zM348 651q0 -274 124 -436t304 -162t299 151t119 419q0 274 -124 436t-304 162t-299 -151.5t-119 -418.5z" />
<glyph unicode="P" horiz-adv-x="1202" d="M78 0l6 76l80 10q72 8 72 37v1036q0 14 -14.5 21.5t-61.5 13.5l-76 10l-6 76h551q246 0 380 -97t134 -251q0 -199 -150.5 -310.5t-371.5 -111.5q-55 0 -154 8v-397q0 -16 15.5 -23.5t58.5 -11.5l110 -10l6 -76h-579zM467 608q63 -14 143 -14q125 0 203 81t78 218 q0 139 -76 221t-207 82h-141v-588z" />
<glyph unicode="Q" horiz-adv-x="1542" d="M90 627q0 287 201 483.5t485 196.5q297 0 485.5 -183.5t188.5 -476.5q0 -229 -130 -405t-337 -242q94 -162 235 -217q105 -41 243 -41q45 0 93 4l9 -72q-121 -45 -285 -45q-209 0 -335 79t-224 261q-279 14 -454 195.5t-175 462.5zM348 651q0 -274 124 -436t304 -162 t299 151t119 419q0 274 -124 436t-304 162t-299 -151.5t-119 -418.5z" />
<glyph unicode="R" horiz-adv-x="1269" d="M78 0l6 76l80 10q72 8 72 37v1036q0 14 -14.5 21.5t-61.5 13.5l-76 10l-6 76h565q240 0 360.5 -85t120.5 -232q0 -125 -77 -214.5t-216 -138.5l265 -413q43 -59 66.5 -80t56.5 -27l59 -14l8 -76h-364l-80 152l-232 411l-143 -4v-438q0 -16 15.5 -23.5t58.5 -11.5l82 -10 l6 -76h-551zM467 653l135 -12q268 25 268 279q0 138 -74 210q-67 64 -188 65q-14 0 -28 -1l-113 -2v-539z" />
<glyph unicode="S" horiz-adv-x="1091" d="M102 408h109l92 -291q115 -51 219 -51h15q125 0 192.5 64.5t67.5 152.5q0 61 -21.5 105t-72 77t-93.5 51.5t-125 46.5q-88 31 -145 58.5t-113.5 71.5t-84 105.5t-27.5 143.5q0 150 116.5 257.5t333.5 109.5q117 0 264 -27l107 29v-416h-107l-73 272q-100 41 -213 41 q-111 0 -171.5 -54t-60.5 -132q0 -45 17.5 -81t39 -59.5t68.5 -48t78 -38t94 -35.5q197 -70 295 -153t98 -245q0 -160 -134 -275.5t-357 -117.5h-11q-175 0 -372 60z" />
<glyph unicode="T" horiz-adv-x="1290" d="M41 864l37 416h1149v-416h-117l-45 185q-25 90 -78 116.5t-219 28.5h-6v-1073q0 -16 14.5 -23.5t57.5 -11.5l112 -10l6 -76h-614l6 76l113 10q72 8 71 37v1071h-6q-166 0 -221 -23.5t-82 -107.5l-53 -199h-125z" />
<glyph unicode="U" horiz-adv-x="1458" d="M66 1280h544l-6 -76l-80 -10q-70 -8 -69 -37v-690q0 -193 91 -286t255 -93q160 0 248 93t88 270v325q0 190 -7.5 271t-22.5 106t-54 31l-105 20l-6 76h477l-6 -76l-96 -20q-39 -6 -55.5 -31t-24.5 -106.5t-8 -270.5v-352q0 -211 -135.5 -336t-366.5 -125 q-236 0 -371 113.5t-135 333.5v749q0 14 -14 21.5t-60 13.5l-75 10z" />
<glyph unicode="V" horiz-adv-x="1300" d="M-33 1280h584l-6 -78l-88 -14q-56 -8 -56 -45q0 -31 45 -170l261 -783h24l213 621q64 201 64 282v17q-8 74 -86 86l-58 6l-6 78h483l-6 -78l-53 -14q-72 -16 -112 -80t-134 -326l-280 -784h-224l-389 1120q-16 53 -73 64l-97 20z" />
<glyph unicode="W" horiz-adv-x="1927" d="M-33 1280h592l-6 -78l-94 -14q-27 -4 -39 -13.5t-11 -38t9 -61.5t31 -102l219 -711h12l254 713l-47 143q-16 53 -76 64l-94 20l-6 78h583l-6 -78l-96 -14q-47 -8 -47 -52t39 -163l215 -713l14 2l158 520q53 172 65 254q5 35 6 61q0 34 -10 50q-16 29 -71 41l-76 14l-8 78 h491l-6 -78l-45 -14q-53 -16 -79 -41t-61.5 -103.5t-95.5 -261.5l-254 -784h-163l-271 838h-10l-293 -838h-168l-377 1120q-16 53 -73 64l-99 20z" />
<glyph unicode="X" horiz-adv-x="1296" d="M2 0l6 76l78 18q43 12 80 46t90 104l289 383l-332 469q-53 76 -94 86l-90 22l-6 76h569l-6 -76l-74 -14q-31 -6 -43 -18.5t-6 -38t25.5 -59.5t58.5 -91l137 -211h10l174 260q48 67 48 107q0 41 -52 53l-65 12l-6 76h458l-6 -76l-76 -18q-76 -18 -182 -162l-237 -322 l364 -524q45 -66 90 -80l90 -22l6 -76h-569l6 76l76 14q29 4 40 16.5t5 39t-25.5 60.5t-56.5 89l-170 260h-10l-197 -295q-56 -72 -56 -115q0 -44 60 -57l64 -12l6 -76h-471z" />
<glyph unicode="Y" horiz-adv-x="1236" d="M-20 1280h552l-6 -78l-75 -12q-31 -6 -39 -26q-3 -7 -3 -17q0 -20 11 -50q16 -46 61 -124l193 -332h12l205 363q37 61 47 100t-4 59.5t-53 28.5l-54 10l-6 78h432l-6 -78l-35 -10q-57 -16 -99 -52t-101 -132l-269 -455v-432q0 -16 15.5 -23.5t58.5 -11.5l113 -10l6 -76 h-617l7 76l114 10q72 8 72 37v403l-360 584q-41 61 -103 76l-63 16z" />
<glyph unicode="Z" horiz-adv-x="1204" d="M78 0v84l788 1100v10h-231q-150 -2 -219.5 -16.5t-96 -44t-49.5 -99.5l-41 -164h-112v410h1020v-84l-793 -1102l-2 -10l254 2q160 0 238.5 16.5t104.5 43t48 87.5l47 164h125l-43 -397h-1038z" />
<glyph unicode="[" horiz-adv-x="753" d="M190 -442v1788h525v-93h-416v-1601h416v-94h-525z" />
<glyph unicode="\" horiz-adv-x="571" d="M14 1380h103l440 -1796h-102z" />
<glyph unicode="]" horiz-adv-x="753" d="M39 -348h416v1601h-416v93h524v-1788h-524v94z" />
<glyph unicode="^" d="M133 1051l227 393h99l227 -393h-65l-209 217h-4l-209 -217h-66z" />
<glyph unicode="_" horiz-adv-x="962" d="M-18 -109l6 109h987l6 -109h-999z" />
<glyph unicode="`" d="M100 1427h232l192 -376h-69z" />
<glyph unicode="a" horiz-adv-x="960" d="M63 694q0 84 141.5 172t280.5 88q178 0 248 -90q63 -81 63 -277q0 -22 -1 -46l-15 -342q-1 -9 -1 -16q0 -68 48 -68q33 0 99 49l35 -49q-113 -150 -222 -150q-63 0 -104 41t-45 121h-10q-131 -158 -261 -158q-102 0 -175.5 67.5t-73.5 172.5q0 125 123.5 207t396.5 147 v19v11q0 135 -50 193q-52 60 -151 60q-49 0 -97 -15.5t-48 -27.5q0 -2 12 -17.5t24.5 -40t12.5 -51.5q0 -39 -32 -70.5t-83 -31.5q-49 0 -82 29.5t-33 72.5zM270 260q0 -66 42 -104.5t100 -38.5q78 0 166 82l8 293q-178 -45 -247 -102.5t-69 -129.5z" />
<glyph unicode="b" horiz-adv-x="1093" d="M2 1272l6 55l346 100v-641h11q133 154 292 154q166 0 267.5 -127t101.5 -315q0 -215 -135 -372t-361 -157q-117 0 -241 49h-2l-111 -61h-26v1202q0 45 -29 60zM354 182q111 -125 221 -125q94 0 162 99.5t68 259.5q0 168 -68.5 266t-179.5 98q-119 0 -203 -98v-500z" />
<glyph unicode="c" horiz-adv-x="929" d="M68 430q0 225 144 374.5t353 149.5q141 0 223 -59t82 -145q0 -61 -36.5 -89t-88.5 -28q-63 -1 -98 61q-24 41 -24 92q0 24 6 50v4q-40 26 -95 26h-4q-106 0 -176.5 -90t-70.5 -250q0 -172 85 -283.5t216 -111.5q154 0 254 119l43 -25q-53 -123 -155.5 -189.5 t-236.5 -66.5q-182 0 -301.5 131t-119.5 330z" />
<glyph unicode="d" horiz-adv-x="1112" d="M68 426q0 215 140 366.5t370 151.5q70 0 157 -24h2v297q0 45 -26 57l-136 45l9 53l358 49v-1261q0 -51 29 -60l121 -37l-7 -55l-348 -39v144h-6q-121 -141 -285 -142q-166 0 -272 129t-106 326zM287 502q0 -172 72.5 -274.5t193.5 -102.5q100 0 184 78v520 q-111 129 -221 129q-100 0 -164.5 -96.5t-64.5 -253.5z" />
<glyph unicode="e" horiz-adv-x="966" d="M68 430q0 225 140 374.5t347 149.5q150 0 242 -85t92 -228q0 -59 -12 -113l-596 9v-23q2 -172 86 -277.5t217 -105.5q154 0 254 119l43 -25q-53 -123 -155.5 -189.5t-238.5 -66.5q-182 0 -300.5 131t-118.5 330zM285 604h65q41 0 127 1t142.5 1t54.5 0q1 15 1 29 q0 103 -39 165q-44 70 -122 70q-84 0 -149.5 -70.5t-79.5 -195.5z" />
<glyph unicode="f" horiz-adv-x="677" d="M18 809l13 109h143l2 45q12 205 144.5 334.5t310.5 129.5q86 0 147.5 -42t61.5 -103q0 -53 -32 -82t-79 -29q-51 0 -90 38t-57 114l-2 8l-60 4q-133 -82 -133 -342v-75h281l-15 -113h-266v-686q0 -33 78 -37l98 -6l6 -76h-514l6 76l54 6q70 6 69 39v676z" />
<glyph unicode="g" horiz-adv-x="987" d="M18 -293q0 156 199 234v8q-61 14 -101 61t-40 103q0 61 50 117.5t126 84.5l6 11q-182 82 -182 284q0 145 105.5 244.5t277.5 99.5q127 0 252 -59h288l-2 -143l-213 36v-10q47 -72 47 -147q0 -147 -108.5 -244.5t-273.5 -97.5q-59 0 -121 14q-25 -12 -49.5 -37.5 t-24.5 -50.5q0 -41 36 -66.5t95 -25.5q45 0 130 3t118 3q127 0 214 -81t87 -200q0 -164 -152.5 -272t-392.5 -108q-168 0 -269.5 65.5t-101.5 173.5zM197 -233q0 -94 79.5 -152.5t208.5 -58.5q121 0 198 59t77 147q0 154 -180 168h-279q-35 -14 -69.5 -59t-34.5 -104z M281 639q0 -156 77 -233q45 -41 95 -41q72 0 116 41q62 56 62 208q0 150 -68 217q-49 45 -106 46q-80 0 -128 -63.5t-48 -174.5z" />
<glyph unicode="h" horiz-adv-x="1120" d="M14 1272l6 55l349 100v-622h10q183 149 330 149h2q104 0 172 -67q78 -80 78 -234v-532q0 -16 16 -24.5t67 -14.5l48 -6l6 -76h-463l6 76l45 6q70 4 70 39v414q0 145 -44 201.5t-139 56.5q-109 0 -204 -76v-598q0 -33 77 -37l64 -6l6 -76h-479l6 76l53 6q70 6 70 39v1038 q0 43 -29 60z" />
<glyph unicode="i" horiz-adv-x="581" d="M57 803l2 59l334 92v-835q0 -33 78 -37l51 -6l6 -76h-467l7 76l51 6q70 6 69 39v504q0 94 -15 122.5t-73 45.5zM143 1249.5q0 57.5 35 96t94.5 38.5t94 -38.5t34.5 -96t-34.5 -97.5t-94 -40t-94.5 40t-35 97.5z" />
<glyph unicode="j" horiz-adv-x="550" d="M-150 -401q0 45 35 75.5t78 30.5q104 0 152 -123q65 27 65 268v7v768q0 94 -15 122.5t-73 45.5l-43 10l2 59l334 92v-981q-14 -229 -128 -368.5t-243 -139.5q-74 0 -119 35t-45 99zM135 1249.5q0 57.5 35 96t94.5 38.5t94 -38.5t34.5 -96t-34.5 -97.5t-94 -40t-94.5 40 t-35 97.5z" />
<glyph unicode="k" horiz-adv-x="1046" d="M14 1272l6 55l349 100v-952l112 103q55 51 73.5 68.5t51.5 51t43 53t10 35.5q0 45 -75 58l-27 4l-6 76h457l-7 -76l-36 -8q-55 -8 -114.5 -51.5t-176.5 -149.5l-80 -72l270 -393q57 -84 107 -90l55 -8l6 -76h-319l-105 184l-159 256l-80 -73v-248q0 -16 14 -23.5 t61 -13.5l45 -6l7 -76h-459l6 76l53 6q70 8 70 39v1038q0 43 -29 60z" />
<glyph unicode="l" horiz-adv-x="577" d="M37 1272l6 55l348 100v-1308q0 -33 78 -37l51 -6l6 -76h-469l6 76l54 6q70 6 69 39v1038q0 45 -28 60z" />
<glyph unicode="m" horiz-adv-x="1703" d="M53 803l2 59l336 92v-149h6q175 149 316 149h2q104 0 172 -67q41 -43 57 -94h8q173 161 334 161h2q104 0 172 -67q78 -80 78 -234v-532q0 -16 16.5 -24.5t67.5 -14.5l47 -6l6 -76h-465l7 76l47 6q70 4 69 39v414q0 258 -182 258q-94 0 -188 -82q2 -12 2 -58v-532 q0 -16 16 -24.5t68 -14.5l45 -6l6 -76h-463l8 76l45 6q70 4 70 39v414q0 258 -182 258q-90 0 -187 -76v-598q0 -33 78 -37l57 -6l6 -76h-475l6 76l54 6q70 6 69 39v504q0 94 -16 122.5t-72 45.5z" />
<glyph unicode="n" horiz-adv-x="1146" d="M53 803l2 59l336 92v-149h10q183 149 330 149h2q102 0 170 -67q78 -78 78 -234v-532q0 -16 16.5 -24.5t67.5 -14.5l49 -6l6 -76h-465l7 76l45 6q70 4 69 39v414q0 145 -44 201.5t-138 56.5q-111 0 -203 -76v-598q0 -33 78 -37l61 -6l7 -76h-480l6 76l54 6q70 6 69 39v504 q0 94 -16 122.5t-72 45.5z" />
<glyph unicode="o" horiz-adv-x="1093" d="M68 457q0 207 144 352t355 145q205 0 332 -135t127 -336q0 -215 -143.5 -364.5t-356.5 -149.5q-209 0 -333.5 139.5t-124.5 348.5zM293 514q0 -281 102 -389q68 -68 160 -68q104 0 174 95.5t70 255.5q0 283 -103 387q-65 69 -154 69h-3q-106 0 -176 -95t-70 -255z" />
<glyph unicode="p" horiz-adv-x="1110" d="M35 -504l6 76l57 6q70 6 70 39v1008q0 94 -15.5 122.5t-72.5 45.5l-45 10l2 59l336 92v-168h10q133 154 291 154q166 0 268 -127t102 -315q0 -215 -134 -372t-355 -157q-88 0 -180 27h-2v-381q0 -33 78 -37l73 -6l6 -76h-495zM373 182q111 -125 221 -125q94 0 161.5 99.5 t67.5 259.5q0 168 -68.5 266t-179.5 98q-119 0 -202 -98v-500z" />
<glyph unicode="q" horiz-adv-x="1089" d="M68 426q0 215 140 366.5t370 151.5q113 0 221 -47h2l117 57h24v-1337q0 -16 15.5 -24.5t66.5 -14.5l49 -6l6 -76h-495l6 76l78 6q70 4 69 39v496h-6q-121 -141 -285 -142q-166 0 -272 129t-106 326zM287 502q0 -172 72.5 -274.5t193.5 -102.5q100 0 184 78v520 q-111 129 -221 129q-100 0 -164.5 -96.5t-64.5 -253.5z" />
<glyph unicode="r" horiz-adv-x="817" d="M53 803l2 59l336 92v-260h10q84 139 144.5 199.5t132.5 60.5q61 0 97 -36t36 -95q0 -53 -29.5 -88t-83.5 -35q-72 0 -116 74q-121 -74 -191 -203v-452q0 -33 78 -37l74 -6l6 -76h-492l6 76l54 6q70 6 69 39v504q0 94 -16 122.5t-72 45.5z" />
<glyph unicode="s" horiz-adv-x="858" d="M92 287h121l49 -183q76 -51 158 -51q72 0 128 43t56 111q0 23 -7 42t-27.5 36.5t-33 27t-50 25.5t-50 21.5t-59.5 21.5q-68 27 -107 46t-84 53t-66.5 82t-21.5 114q0 117 93.5 198.5t252.5 81.5q113 0 213 -34l76 26l12 -299h-114l-49 176q-63 45 -150 45 q-68 0 -113 -35.5t-45 -93.5q0 -63 47.5 -96t170.5 -80q66 -25 106.5 -45t87.5 -54t69.5 -83.5t22.5 -112.5q0 -127 -101.5 -214t-277.5 -87q-174 0 -297 47z" />
<glyph unicode="t" horiz-adv-x="747" d="M14 809l2 68l279 241l82 -12l-2 -188h334l-15 -113h-319l-13 -483v-13q0 -190 173 -190q84 0 172 47l8 -55q-55 -63 -136 -102.5t-163 -39.5q-118 0 -186 74q-67 72 -66 213v8l12 533z" />
<glyph unicode="u" horiz-adv-x="1114" d="M18 924h353l-13 -537v-12q0 -133 43 -187q45 -56 140 -57q104 0 204 74v600q0 16 -15 24.5t-62 12.5l-70 6l-8 76h358v-764q0 -51 29 -60l121 -37l-6 -55l-347 -39v150h-10q-188 -150 -334 -150q-102 0 -170 68q-78 78 -77 233l4 533q0 20 -9.5 25.5t-50.5 9.5q-4 0 -8 1 t-9 2t-11 1l-45 6z" />
<glyph unicode="v" horiz-adv-x="978" d="M-39 924h488l-7 -76l-61 -14q-47 -7 -47 -46q0 -13 6 -30l213 -561l184 510q20 49 20 77q0 8 -1 12q-6 28 -51 35l-64 17l-6 76h381l-6 -76l-56 -12q-41 -6 -63.5 -34t-52.5 -104l-277 -716h-133l-311 774q-16 39 -36 53t-63 20l-49 17z" />
<glyph unicode="w" horiz-adv-x="1472" d="M-31 924h467l-6 -76l-53 -14q-51 -7 -51 -45q0 -14 8 -33l182 -549l178 493l-18 56q-14 39 -34.5 53t-63.5 22l-50 17l-6 76h473l-6 -76l-53 -14q-31 -4 -43 -25t0 -53l188 -553l150 491q16 45 16 75q1 15 -3 25q-10 34 -64 42l-50 12l-6 76h381l-6 -76l-49 -12 q-47 -8 -69.5 -34t-49.5 -104l-235 -716h-127l-226 596l-225 -596h-129l-276 774q-25 68 -90 78l-48 12z" />
<glyph unicode="x" horiz-adv-x="1001" d="M-14 0l6 74l59 14q41 8 72 32.5t88 90.5l195 233l-205 271q-47 61 -76 84.5t-68 31.5l-47 17l-6 76h479l-6 -76l-35 -10q-31 -6 -41 -17.5t-1.5 -35t38.5 -62.5l105 -154h4l115 152q45 60 45 84t-48 35l-43 8l-6 76h389l-6 -76l-59 -14q-45 -8 -76 -32t-88 -91l-172 -205 l223 -299q74 -100 144 -117l41 -14l4 -76h-475l6 74l34 10q51 11 51 37q0 24 -40 78l-127 182h-4l-133 -178q-31 -41 -41.5 -63.5t-1 -37t44.5 -20.5l41 -8l6 -74h-385z" />
<glyph unicode="y" horiz-adv-x="964" d="M-39 924h479l-6 -76l-55 -14q-49 -4 -49 -39q0 -16 10 -37l229 -527l168 476q16 45 16 71q0 11 -3 18q-9 27 -58 35l-61 17l-6 76h389l-6 -76l-58 -12q-41 -6 -63.5 -34t-52.5 -104l-242 -637l-111 -329q-47 -139 -102 -203t-143 -64q-66 0 -107 34t-41 87q0 49 27.5 82 t81.5 33q84 0 127 -76q39 20 84 142l69 198v8l-364 783q-18 39 -37 52t-62 21l-45 17z" />
<glyph unicode="z" horiz-adv-x="974" d="M59 0v74l578 766l-68 -2q-188 -2 -244.5 -24.5t-76.5 -104.5l-43 -148h-111v363h789v-74l-578 -766h98q193 2 256.5 25.5t104.5 105.5l74 147h106l-86 -362h-799z" />
<glyph unicode="{" horiz-adv-x="702" d="M51 453l23 61q260 18 260 160q0 59 -57.5 182t-57.5 209q0 137 107.5 219t312.5 90v-74q-117 -10 -178.5 -60t-61.5 -124q0 -63 58.5 -186t58.5 -213q0 -98 -87 -171t-202 -83v-23q115 -10 202 -82.5t87 -171.5q0 -86 -58.5 -209.5t-58.5 -185.5q0 -74 62.5 -126 t177.5 -62v-72q-205 8 -312.5 90t-107.5 219q0 86 57.5 208t57.5 181q0 80 -67.5 116t-192.5 46z" />
<glyph unicode="|" horiz-adv-x="563" d="M233 -352v1796h99v-1796h-99z" />
<glyph unicode="}" horiz-adv-x="702" d="M66 -397q115 10 177 62t62 126q0 61 -58.5 185t-58.5 210q0 98 87 171t202 83v23q-115 10 -202 82.5t-87 171.5q0 90 58.5 213t58.5 186q0 74 -61.5 124t-177.5 60v74q205 -8 312 -90t107 -219q0 -86 -57 -209t-57 -182q0 -141 260 -160l22 -61l-22 -62 q-260 -20 -260 -162q0 -59 57 -181t57 -208q0 -137 -107.5 -219t-311.5 -90v72z" />
<glyph unicode="~" d="M63 365q37 264 207 264q70 0 175.5 -74t138.5 -74q31 0 52 29t50 102h70q-37 -264 -207 -264q-70 0 -177.5 73t-138 73t-51 -28t-47.5 -101h-72z" />
<glyph unicode="&#xa1;" horiz-adv-x="591" d="M164 1176q0 55 39 94t96 39q55 0 93 -39t38 -94q0 -53 -38 -91t-93 -38q-57 0 -96 37.5t-39 91.5zM178 68l96 802q4 14 24.5 14.5t23.5 -14.5l96 -802q6 -47 -21.5 -73t-95.5 -26h-4q-68 0 -96.5 25.5t-22.5 73.5z" />
<glyph unicode="&#xa2;" horiz-adv-x="927" d="M68 451q0 223 145 363t352 140q45 0 76 -8l94 354h88l-98 -372q70 -27 107.5 -74t37.5 -104q0 -49 -29.5 -79t-68.5 -30q-72 0 -108 57l-37 -139l-74 -278l-35 -140q37 -10 78 -10q143 0 246 117l41 -23q-53 -119 -154.5 -187.5t-228.5 -68.5h-27l-82 -309h-88l86 324 q-145 41 -233 169t-88 298zM283 526q-1 -244 157 -346l172 662q-35 20 -82 20q-106 0 -176.5 -89t-70.5 -247z" />
<glyph unicode="&#xa3;" horiz-adv-x="1028" d="M29 37q145 41 205.5 124t60.5 222q0 45 -4 143h-221l6 90h213q-6 94 -6 179q0 225 119.5 360t324.5 135q111 0 171 -45t60 -121q0 -49 -33.5 -82.5t-80.5 -33.5q-59 0 -93 49t-20 121q-37 25 -86 24q-160 0 -160 -315q0 -27 3.5 -120t5.5 -151h315l6 -90h-319v-24 q0 -205 -74 -314v-10q6 0 120.5 -28.5t166.5 -28.5q90 0 131 41q45 47 88 151l49 -12q12 -147 -54.5 -248.5t-205.5 -101.5q-55 0 -113.5 21.5t-87.5 41t-84 62.5t-61 49q-119 -137 -316 -180z" />
<glyph unicode="&#xa4;" horiz-adv-x="890" d="M72 1032l78 78l118 -119q88 53 178 53q92 0 183 -55l112 113l76 -76l-115 -115q49 -90 50 -176q0 -88 -52 -176l127 -127l-77 -78l-125 125q-88 -53 -179 -53q-94 0 -178 51l-114 -115l-76 76l115 115q-53 86 -54 182q0 94 51 178zM244 735q0 -86 55 -146.5t147 -60.5 q90 0 145.5 60.5t55.5 146.5t-55 146.5t-146 60.5q-92 0 -147 -60.5t-55 -146.5z" />
<glyph unicode="&#xa5;" horiz-adv-x="1253" d="M10 1280h543l-6 -78l-76 -12q-23 -4 -33 -17.5t-7 -39t21.5 -64.5t51.5 -94l180 -313h10l193 350q35 59 44 96t-4.5 57.5t-52.5 28.5l-47 8l-6 78h416l-6 -78l-31 -8q-61 -18 -103 -53t-96 -125l-223 -391h330l6 -90h-369v-162h363l6 -90h-366v-136q0 -41 47 -49l141 -22 l6 -76h-606l6 76l141 22q47 8 47 49v136h-356l6 90h352v162h-358l6 90h314l-310 491q-35 55 -98 70l-70 16z" />
<glyph unicode="&#xa6;" horiz-adv-x="563" d="M233 -285v686h99v-686h-99zM233 629v686h99v-686h-99z" />
<glyph unicode="&#xa7;" horiz-adv-x="892" d="M53 641q0 80 47 146.5t121 103.5q-57 76 -57 153q0 98 98 181.5t234 83.5q98 0 168.5 -42t70.5 -116q0 -49 -31.5 -80t-76.5 -31q-113 0 -142 166q-37 14 -67 15q-51 0 -82 -32t-31 -87q0 -43 40 -88t83 -74t125 -76q66 -39 85 -51t71.5 -50t72 -62.5t39 -65.5t19.5 -84 q0 -82 -47.5 -148.5t-120.5 -105.5q55 -76 55 -152q0 -109 -101.5 -193.5t-244.5 -84.5q-98 0 -172 42t-74 116q0 49 32 79.5t77 30.5q57 0 97 -44t54 -122q37 -14 74 -14q55 0 87 35t32 96q0 35 -17.5 65.5t-61.5 64.5t-72.5 53.5t-96.5 58.5q-164 98 -213 147 q-74 76 -74 166zM184 729q0 -66 47.5 -113t143.5 -106q25 -16 84 -50t101 -62.5t73 -59.5q74 45 74 123q0 45 -31 87t-61.5 65.5t-98.5 68.5q-27 16 -85 49t-99 61.5t-72 59.5q-76 -51 -76 -123z" />
<glyph unicode="&#xa8;" d="M70 1241q0 57 34.5 97t92.5 40q59 0 93 -40t34 -97q0 -55 -34 -95t-93 -40q-57 0 -92 40t-35 95zM496 1241q0 57 34.5 97t92 40t92.5 -40t35 -97q0 -55 -35 -95t-92.5 -40t-92 40t-34.5 95z" />
<glyph unicode="&#xa9;" horiz-adv-x="1538" d="M76 639q0 287 202.5 490.5t491.5 203.5q287 0 488.5 -203.5t201.5 -490.5q0 -289 -201.5 -490.5t-488.5 -201.5q-289 0 -491.5 201.5t-202.5 490.5zM158 639q0 -254 179 -436.5t433 -182.5q252 0 431 182.5t179 436.5t-179 437.5t-431 183.5q-254 0 -433 -183.5 t-179 -437.5zM393 633q0 170 112.5 280.5t282.5 110.5q98 0 170 -27l101 27v-274h-72l-49 161q-57 41 -159.5 41t-169 -77.5t-66.5 -210.5q0 -152 70.5 -247t197.5 -95q74 0 113 30l71 172h74l-22 -254l-70 15q-82 -33 -184 -33q-193 0 -296.5 107.5t-103.5 273.5z" />
<glyph unicode="&#xaa;" horiz-adv-x="737" d="M57 750q0 182 394 251l2 54q6 74 -42.5 122t-117.5 48q-23 0 -44.5 -8.5t-32.5 -16.5t-11 -14q0 -2 7 -12.5t14 -28t7 -31.5q0 -33 -23.5 -54.5t-62 -21.5t-64.5 23.5t-26 60.5q0 66 114 126.5t228 60.5q102 0 164 -59.5t58 -145.5l-13 -328q-2 -84 58 -84q35 0 67 21 l6 -45q-27 -35 -74 -59.5t-96 -24.5q-104 0 -120 114h-7q-115 -115 -213 -114q-68 0 -120 46t-52 120zM223 805q0 -45 26.5 -75t69.5 -30q62 1 123 58l7 190q-225 -41 -226 -143z" />
<glyph unicode="&#xab;" horiz-adv-x="1013" d="M68 399v107l456 293l21 -41l-289 -305l289 -306l-21 -41zM473 399v107l461 315l22 -43l-317 -325l317 -326l-22 -43z" />
<glyph unicode="&#xac;" horiz-adv-x="983" d="M72 522l6 113h833v-436h-112v323h-727z" />
<glyph unicode="&#xad;" horiz-adv-x="677" d="M68 432l6 117h534l6 -117h-546z" />
<glyph unicode="&#xae;" horiz-adv-x="1538" d="M76 641q0 287 202.5 489.5t491.5 202.5q287 0 489.5 -202.5t202.5 -489.5q0 -289 -202.5 -491.5t-489.5 -202.5q-289 0 -491.5 202.5t-202.5 491.5zM158 641q0 -256 179 -438.5t433 -182.5q252 0 431 182.5t179 438.5q0 254 -179 437.5t-431 183.5t-432 -183.5 t-180 -437.5zM444 274l5 66l59 14q29 6 29 27v522q0 23 -29 31l-59 12l-5 66h338q139 0 209 -54.5t70 -134.5q0 -156 -178 -209l145 -215q25 -35 62 -49l53 -10l4 -66h-215l-43 82l-141 228l-72 4v-207q0 -20 29 -27l61 -14l4 -66h-326zM676 659l76 -10q157 11 157 152 q0 152 -184 141h-49v-283z" />
<glyph unicode="&#xaf;" d="M131 1114l8 100h543l10 -100h-561z" />
<glyph unicode="&#xb0;" horiz-adv-x="839" d="M80 987q0 143 93 242.5t246.5 99.5t247 -98.5t93.5 -243.5q0 -141 -93.5 -239.5t-246.5 -98.5q-152 0 -246 98.5t-94 239.5zM180 987q0 -100 65.5 -173t174 -73t174 73t65.5 173q0 106 -65.5 178t-174 72t-174 -71.5t-65.5 -178.5z" />
<glyph unicode="&#xb1;" horiz-adv-x="983" d="M63 485l7 113h366v332h113v-332h364l7 -113h-371v-335h-113v335h-373zM66 8l6 113h839l7 -113h-852z" />
<glyph unicode="&#xb2;" horiz-adv-x="675" d="M33 635q35 33 111.5 102.5t107.5 100t75 81t60 91.5t16 84q0 59 -39.5 94t-103.5 35q-96 0 -201 -84l-18 30q51 78 130 130.5t173 52.5q115 0 183.5 -59.5t68.5 -155.5q0 -88 -78 -169t-270 -227q-43 -33 -66 -49v-8h92q178 0 218 5t57 32l31 53h59l-49 -215h-547z" />
<glyph unicode="&#xb3;" horiz-adv-x="675" d="M33 1180q133 172 325 172q94 0 159 -45t65 -111q0 -39 -19.5 -72.5t-62.5 -62.5t-78 -47.5t-98 -46.5v-6q102 37 195 -11.5t93 -152.5q0 -106 -106 -187.5t-256 -81.5q-92 0 -152.5 34t-60.5 89q0 33 24.5 56.5t57.5 23.5q53 0 80.5 -42t33.5 -97h33q66 0 112 48t46 120 q0 68 -43 106.5t-102 38.5q-43 0 -93 -24l-26 43q14 8 63 36.5t65.5 41t46.5 36t40 44t10 44.5q0 47 -36 74t-93 27q-100 0 -195 -84z" />
<glyph unicode="&#xb4;" d="M293 1051l188 376h236l-355 -376h-69z" />
<glyph unicode="&#xb5;" horiz-adv-x="1114" d="M18 924h353l-15 -605q-2 -188 185 -188q115 0 204 90v584q0 16 -15 24.5t-62 12.5l-70 6l-8 76h358v-764q0 -51 29 -60l121 -37l-6 -55l-347 -39v140h-10q-55 -76 -99 -108t-108 -32q-43 0 -81.5 20.5t-55 38t-43.5 50.5h-10l16 -563l-231 -19l31 774l4 533 q0 20 -9.5 25.5t-50.5 9.5q-4 0 -8 1t-9 2t-11 1l-45 6z" />
<glyph unicode="&#xb6;" horiz-adv-x="1013" d="M72 895q0 193 127 289t346 96h301v-1346h-117v601q-88 -23 -170 -23q-238 0 -362.5 106.5t-124.5 276.5z" />
<glyph unicode="&#xb7;" horiz-adv-x="475" d="M90 479.5q0 59.5 43 102.5t106.5 43t105.5 -43t42 -102.5t-42 -103.5t-105 -44q-61 0 -105.5 44t-44.5 103.5z" />
<glyph unicode="&#xb8;" d="M190 -506q324 37 324 172q0 47 -45 77t-129 30q-72 0 -135 -15v45l229 240h98l-153 -158q127 -2 200.5 -52t73.5 -138q0 -106 -118.5 -174t-323.5 -80z" />
<glyph unicode="&#xb9;" horiz-adv-x="675" d="M96 1221l4 43l346 94v-690q0 -23 31 -29l98 -16l5 -64h-480l4 64l125 16q31 6 31 29v538z" />
<glyph unicode="&#xba;" d="M53 942q0 154 101.5 260.5t259 106.5t254 -104.5t96.5 -256.5q0 -156 -99.5 -260t-256.5 -104q-160 0 -257.5 103.5t-97.5 254.5zM236 985q0 -201 81 -287q41 -41 107 -41q70 0 114 68.5t44 179.5q0 209 -80 285q-43 43 -107 43q-72 0 -115.5 -68.5t-43.5 -179.5z" />
<glyph unicode="&#xbb;" horiz-adv-x="1013" d="M70 127l317 326l-317 325l22 43l463 -315v-107l-463 -315zM481 147l289 306l-289 305l23 41l454 -293v-107l-454 -293z" />
<glyph unicode="&#xbc;" horiz-adv-x="1464" d="M96 1221l4 43l346 94v-690q0 -23 31 -29l98 -16l5 -64h-480l4 64l125 16q31 6 31 29v538zM168 -238l1094 1518h118l-1093 -1518h-119zM803 -16l395 505h125v-493h131l-8 -74h-123v-215h-168v215h-342zM885 -4h270v338h-6z" />
<glyph unicode="&#xbd;" horiz-adv-x="1464" d="M96 1221l4 43l346 94v-690q0 -23 31 -29l98 -16l5 -64h-480l4 64l125 16q31 6 31 29v538zM137 -238l1094 1518h119l-1094 -1518h-119zM821 -217q35 33 112 102.5t107.5 100t74.5 81t60.5 91.5t16.5 84q0 59 -40 94t-103 35q-96 0 -201 -84l-19 30q51 78 130 130.5 t174 52.5q115 0 183 -59.5t68 -155.5q0 -88 -77.5 -169t-270.5 -227q-43 -33 -65 -49v-8h92q178 0 218 5t56 32l31 53h59l-49 -215h-547z" />
<glyph unicode="&#xbe;" horiz-adv-x="1464" d="M33 1180q133 172 325 172q94 0 159 -45t65 -111q0 -39 -19.5 -72.5t-62.5 -62.5t-78 -47.5t-98 -46.5v-6q102 37 195 -11.5t93 -152.5q0 -106 -106 -187.5t-256 -81.5q-92 0 -152.5 34t-60.5 89q0 33 24.5 56.5t57.5 23.5q53 0 80.5 -42t33.5 -97h33q66 0 112 48t46 120 q0 68 -43 106.5t-102 38.5q-43 0 -93 -24l-26 43q14 8 63 36.5t65.5 41t46.5 36t40 44t10 44.5q0 47 -36 74t-93 27q-100 0 -195 -84zM168 -238l1094 1518h118l-1093 -1518h-119zM803 -16l395 505h125v-493h131l-8 -74h-123v-215h-168v215h-342zM885 -4h270v338h-6z" />
<glyph unicode="&#xbf;" horiz-adv-x="774" d="M78 330q0 123 52 176t177 100q6 2 21 8q49 20 73.5 31.5t47 37.5t22.5 58q0 63 -82 152h72q53 -37 97 -96.5t44 -124.5q0 -96 -59.5 -145.5t-188.5 -94.5q-51 -20 -68.5 -27.5t-51 -23.5t-45 -33.5t-11.5 -38.5q0 -61 91 -103t220 -42q49 0 148 16q35 -35 35 -82 q0 -57 -48.5 -94t-131.5 -37q-164 0 -289 109.5t-125 253.5zM307 1175.5q0 53.5 38 93.5t95 40q55 0 94 -39t39 -94q0 -53 -38.5 -92.5t-94.5 -39.5q-57 0 -95 39t-38 92.5z" />
<glyph unicode="&#xc0;" horiz-adv-x="1261" d="M-37 0l6 78l54 14q49 12 76.5 38t64.5 105.5t102 260.5l240 663v80l217 80l389 -1157q14 -51 82 -64l94 -20l6 -78h-589l6 78l88 14q41 8 53 27.5t5 57.5t-38 130l-43 137h-422l-37 -120q-43 -119 -39.5 -171.5t54.5 -60.5l76 -14l6 -78h-451zM270 1769h232l192 -376h-69 zM385 537h360l-165 534h-15z" />
<glyph unicode="&#xc1;" horiz-adv-x="1261" d="M-37 0l6 78l54 14q49 12 76.5 38t64.5 105.5t102 260.5l240 663v80l217 80l389 -1157q14 -51 82 -64l94 -20l6 -78h-589l6 78l88 14q41 8 53 27.5t5 57.5t-38 130l-43 137h-422l-37 -120q-43 -119 -39.5 -171.5t54.5 -60.5l76 -14l6 -78h-451zM385 537h360l-165 534h-15z M541 1393l188 376h236l-355 -376h-69z" />
<glyph unicode="&#xc2;" horiz-adv-x="1261" d="M-37 0l6 78l54 14q49 12 76.5 38t64.5 105.5t102 260.5l240 663v80l217 80l389 -1157q14 -51 82 -64l94 -20l6 -78h-589l6 78l88 14q41 8 53 27.5t5 57.5t-38 130l-43 137h-422l-37 -120q-43 -119 -39.5 -171.5t54.5 -60.5l76 -14l6 -78h-451zM354 1393l228 393h98 l227 -393h-65l-209 217h-4l-209 -217h-66zM385 537h360l-165 534h-15z" />
<glyph unicode="&#xc3;" horiz-adv-x="1261" d="M-37 0l6 78l54 14q49 12 76.5 38t64.5 105.5t102 260.5l240 663v80l217 80l389 -1157q14 -51 82 -64l94 -20l6 -78h-589l6 78l88 14q41 8 53 27.5t5 57.5t-38 130l-43 137h-422l-37 -120q-43 -119 -39.5 -171.5t54.5 -60.5l76 -14l6 -78h-451zM285 1427q37 264 207 265 q70 0 175 -74t138 -74q31 0 52.5 29t49.5 102h70q-37 -264 -207 -264q-70 0 -177.5 72.5t-138 72.5t-51 -27.5t-47.5 -101.5h-71zM385 537h360l-165 534h-15z" />
<glyph unicode="&#xc4;" horiz-adv-x="1261" d="M-37 0l6 78l54 14q49 12 76.5 38t64.5 105.5t102 260.5l240 663v80l217 80l389 -1157q14 -51 82 -64l94 -20l6 -78h-589l6 78l88 14q41 8 53 27.5t5 57.5t-38 130l-43 137h-422l-37 -120q-43 -119 -39.5 -171.5t54.5 -60.5l76 -14l6 -78h-451zM291 1583q0 57 34.5 97 t92.5 40q59 0 93 -40t34 -97q0 -55 -34 -95t-93 -40q-57 0 -92 40t-35 95zM385 537h360l-165 534h-15zM717 1583q0 57 34.5 97t92 40t92.5 -40t35 -97q0 -55 -35 -95t-92.5 -40t-92 40t-34.5 95z" />
<glyph unicode="&#xc5;" horiz-adv-x="1261" d="M-37 0l6 78l54 14q70 16 109.5 82t133.5 324l273 745q-100 49 -101 170q0 82 52.5 138.5t138.5 56.5t139 -56.5t53 -138.5q0 -104 -76 -158l367 -1093q14 -51 82 -64l94 -20l6 -78h-589l6 78l88 14q41 8 53 27.5t5 57.5t-38 130l-43 137h-422l-37 -120 q-43 -119 -39.5 -171.5t54.5 -60.5l76 -14l6 -78h-451zM385 535h360l-167 540h-13zM504 1413q0 -55 34.5 -94t90.5 -39q57 0 92 39t35 94t-35 95t-92 40q-55 0 -90 -40t-35 -95z" />
<glyph unicode="&#xc6;" horiz-adv-x="1746" d="M-82 0l6 78l56 12q57 16 85.5 36.5t84 104.5t147.5 267l283 553q61 121 -56 141l-63 12l-6 76h1181v-401h-112l-47 184q-16 66 -48 90.5t-107 32.5t-267 8h-62v-502h33q111 0 146.5 9.5t50.5 46.5l47 137h90l-45 -467h-86l-19 129q-4 37 -36.5 48t-153.5 11h-27v-520h51 q201 0 285 9t118 34t54 88l49 170h123l-39 -387h-1016l7 76l104 22q47 8 47 49v310h-389l-57 -109q-51 -102 -67.5 -155.5t-7.5 -74t42 -26.5l76 -14l6 -78h-461zM432 547h344v641h-18z" />
<glyph unicode="&#xc7;" horiz-adv-x="1425" d="M90 625q0 311 206 497.5t521 186.5q164 0 295 -45l176 36v-436h-119l-69 279q-127 74 -281 74q-215 0 -343 -157t-128 -407q0 -272 128 -434t360 -162q135 0 239 58l96 293h125l-43 -408l-118 23q-127 -45 -283 -54l-82 -84q127 -2 200.5 -52t73.5 -138 q0 -106 -118.5 -174t-323.5 -80l-20 53q324 37 323 172q0 47 -45 77t-129 30q-72 0 -135 -15v45l160 168q-295 14 -480.5 186.5t-185.5 467.5z" />
<glyph unicode="&#xc8;" horiz-adv-x="1265" d="M78 0l6 76l80 10q72 8 72 37v1036q0 14 -14.5 21.5t-61.5 13.5l-76 10l-6 76h1061v-401h-119l-47 184q-18 66 -51 90.5t-108 32.5t-263 8h-84v-502h53q106 0 143 10.5t52 45.5l47 137h94l-45 -467h-90l-19 129q-4 35 -37.5 47t-150.5 12h-47v-520h78q197 0 278.5 9 t116.5 34t57 88l47 170h130l-39 -387h-1057zM301 1769h231l193 -376h-70z" />
<glyph unicode="&#xc9;" horiz-adv-x="1265" d="M78 0l6 76l80 10q72 8 72 37v1036q0 14 -14.5 21.5t-61.5 13.5l-76 10l-6 76h1061v-401h-119l-47 184q-18 66 -51 90.5t-108 32.5t-263 8h-84v-502h53q106 0 143 10.5t52 45.5l47 137h94l-45 -467h-90l-19 129q-4 35 -37.5 47t-150.5 12h-47v-520h78q197 0 278.5 9 t116.5 34t57 88l47 170h130l-39 -387h-1057zM563 1393l189 376h235l-354 -376h-70z" />
<glyph unicode="&#xca;" horiz-adv-x="1265" d="M78 0l6 76l80 10q72 8 72 37v1036q0 14 -14.5 21.5t-61.5 13.5l-76 10l-6 76h1061v-401h-119l-47 184q-18 66 -51 90.5t-108 32.5t-263 8h-84v-502h53q106 0 143 10.5t52 45.5l47 137h94l-45 -467h-90l-19 129q-4 35 -37.5 47t-150.5 12h-47v-520h78q197 0 278.5 9 t116.5 34t57 88l47 170h130l-39 -387h-1057zM356 1393l228 393h98l227 -393h-65l-209 217h-4l-209 -217h-66z" />
<glyph unicode="&#xcb;" horiz-adv-x="1265" d="M78 0l6 76l80 10q72 8 72 37v1036q0 14 -14.5 21.5t-61.5 13.5l-76 10l-6 76h1061v-401h-119l-47 184q-18 66 -51 90.5t-108 32.5t-263 8h-84v-502h53q106 0 143 10.5t52 45.5l47 137h94l-45 -467h-90l-19 129q-4 35 -37.5 47t-150.5 12h-47v-520h78q197 0 278.5 9 t116.5 34t57 88l47 170h130l-39 -387h-1057zM293 1583q0 57 34.5 97t92.5 40q59 0 93 -40t34 -97q0 -55 -34 -95t-93 -40q-57 0 -92 40t-35 95zM719 1583q0 57 34.5 97t92 40t92.5 -40t35 -97q0 -55 -35 -95t-92.5 -40t-92 40t-34.5 95z" />
<glyph unicode="&#xcc;" horiz-adv-x="751" d="M4 1769h232l192 -376h-70zM82 0l6 76l100 10q72 8 72 37v1036q0 14 -14.5 21.5t-61.5 13.5l-96 10l-6 76h588l-6 -76l-101 -10q-72 -8 -71 -37v-1036q0 -16 15 -23.5t58 -11.5l99 -10l6 -76h-588z" />
<glyph unicode="&#xcd;" horiz-adv-x="751" d="M82 0l6 76l100 10q72 8 72 37v1036q0 14 -14.5 21.5t-61.5 13.5l-96 10l-6 76h588l-6 -76l-101 -10q-72 -8 -71 -37v-1036q0 -16 15 -23.5t58 -11.5l99 -10l6 -76h-588zM322 1393l188 376h235l-354 -376h-69z" />
<glyph unicode="&#xce;" horiz-adv-x="751" d="M82 0l6 76l100 10q72 8 72 37v1036q0 14 -14.5 21.5t-61.5 13.5l-96 10l-6 76h588l-6 -76l-101 -10q-72 -8 -71 -37v-1036q0 -16 15 -23.5t58 -11.5l99 -10l6 -76h-588zM98 1393l228 393h98l227 -393h-65l-209 217h-4l-209 -217h-66z" />
<glyph unicode="&#xcf;" horiz-adv-x="751" d="M35 1583q0 57 34.5 97t92.5 40q59 0 93 -40t34 -97q0 -55 -34 -95t-93 -40q-57 0 -92 40t-35 95zM82 0l6 76l100 10q72 8 72 37v1036q0 14 -14.5 21.5t-61.5 13.5l-96 10l-6 76h588l-6 -76l-101 -10q-72 -8 -71 -37v-1036q0 -16 15 -23.5t58 -11.5l99 -10l6 -76h-588z M461 1583q0 57 34.5 97t92 40t92.5 -40t35 -97q0 -55 -35 -95t-92.5 -40t-92 40t-34.5 95z" />
<glyph unicode="&#xd0;" horiz-adv-x="1413" d="M68 604l6 90h162v439q0 39 -48 49l-104 22l-6 76l491 6q338 4 552 -169t214 -445q0 -301 -200.5 -486.5t-569.5 -185.5h-487l6 76l104 22q47 10 48 49v457h-168zM457 117l147 -31q225 -8 358.5 142.5t133.5 383.5q0 270 -148.5 427t-427.5 157h-63v-502h237l6 -90h-243 v-487z" />
<glyph unicode="&#xd1;" horiz-adv-x="1519" d="M66 0l6 76l96 20q39 6 55.5 30t24.5 107.5t8 270.5v514q0 127 -82 164l-96 22l-6 76h397l702 -971h13v467q0 193 -7.5 272.5t-22.5 104.5t-54 31l-105 20l-6 76h477l-6 -76l-96 -20q-39 -6 -55.5 -30t-24.5 -107.5t-8 -270.5v-792h-146l-772 1058h-12v-538q0 -190 7 -271 t22.5 -106t54.5 -31l105 -20l6 -76h-475zM414 1427q37 264 207 265q70 0 175 -74t138 -74q31 0 52.5 29t49.5 102h70q-37 -264 -207 -264q-70 0 -177.5 72.5t-138 72.5t-51 -27.5t-47.5 -101.5h-71z" />
<glyph unicode="&#xd2;" horiz-adv-x="1542" d="M90 627q0 287 201 483.5t485 196.5q297 0 485.5 -183.5t188.5 -476.5q0 -287 -198.5 -483.5t-483.5 -196.5q-297 0 -487.5 183.5t-190.5 476.5zM348 651q0 -274 124 -436t304 -162t299 151t119 419q0 274 -124 436t-304 162t-299 -151.5t-119 -418.5zM461 1769h231 l193 -376h-70z" />
<glyph unicode="&#xd3;" horiz-adv-x="1542" d="M90 627q0 287 201 483.5t485 196.5q297 0 485.5 -183.5t188.5 -476.5q0 -287 -198.5 -483.5t-483.5 -196.5q-297 0 -487.5 183.5t-190.5 476.5zM348 651q0 -274 124 -436t304 -162t299 151t119 419q0 274 -124 436t-304 162t-299 -151.5t-119 -418.5zM670 1393l188 376 h236l-355 -376h-69z" />
<glyph unicode="&#xd4;" horiz-adv-x="1542" d="M90 627q0 287 201 483.5t485 196.5q297 0 485.5 -183.5t188.5 -476.5q0 -287 -198.5 -483.5t-483.5 -196.5q-297 0 -487.5 183.5t-190.5 476.5zM348 651q0 -274 124 -436t304 -162t299 151t119 419q0 274 -124 436t-304 162t-299 -151.5t-119 -418.5zM494 1393l227 393 h98l228 -393h-66l-209 217h-4l-209 -217h-65z" />
<glyph unicode="&#xd5;" horiz-adv-x="1542" d="M90 627q0 287 201 483.5t485 196.5q297 0 485.5 -183.5t188.5 -476.5q0 -287 -198.5 -483.5t-483.5 -196.5q-297 0 -487.5 183.5t-190.5 476.5zM348 651q0 -274 124 -436t304 -162t299 151t119 419q0 274 -124 436t-304 162t-299 -151.5t-119 -418.5zM424 1427 q37 264 207 265q70 0 175 -74t138 -74q31 0 52.5 29t50.5 102h69q-37 -264 -207 -264q-70 0 -177 72.5t-138 72.5t-51.5 -27.5t-46.5 -101.5h-72z" />
<glyph unicode="&#xd6;" horiz-adv-x="1542" d="M90 627q0 287 201 483.5t485 196.5q297 0 485.5 -183.5t188.5 -476.5q0 -287 -198.5 -483.5t-483.5 -196.5q-297 0 -487.5 183.5t-190.5 476.5zM348 651q0 -274 124 -436t304 -162t299 151t119 419q0 274 -124 436t-304 162t-299 -151.5t-119 -418.5zM430 1583 q0 57 35 97t92 40q59 0 93 -40t34 -97q0 -55 -34 -95t-93 -40q-57 0 -92 40t-35 95zM856 1583q0 57 35 97t92 40t92 -40t35 -97q0 -55 -35 -95t-92 -40t-92 40t-35 95z" />
<glyph unicode="&#xd7;" horiz-adv-x="983" d="M70 137l342 344l-342 342l77 80l345 -342l344 342l77 -80l-342 -342l342 -344l-77 -80l-344 344l-345 -344z" />
<glyph unicode="&#xd8;" horiz-adv-x="1542" d="M82 627q0 287 186.5 484.5t481.5 197.5q164 0 303 -64l96 164h100l-121 -205q135 -86 210 -229.5t75 -323.5q0 -287 -186.5 -484.5t-481.5 -197.5q-166 0 -296 60l-107 -181h-98l127 222q-135 86 -212 230t-77 327zM315 666q0 -272 144 -447l522 901q-113 96 -250 97 q-184 0 -300 -147.5t-116 -403.5zM520 156q106 -90 244 -90q186 0 301 145t115 401q0 266 -138 441z" />
<glyph unicode="&#xd9;" horiz-adv-x="1458" d="M66 1280h544l-6 -76l-80 -10q-70 -8 -69 -37v-690q0 -193 91 -286t255 -93q160 0 248 93t88 270v325q0 190 -7.5 271t-22.5 106t-54 31l-105 20l-6 76h477l-6 -76l-96 -20q-39 -6 -55.5 -31t-24.5 -106.5t-8 -270.5v-352q0 -211 -135.5 -336t-366.5 -125 q-236 0 -371 113.5t-135 333.5v749q0 14 -14 21.5t-60 13.5l-75 10zM420 1769h231l193 -376h-70z" />
<glyph unicode="&#xda;" horiz-adv-x="1458" d="M66 1280h544l-6 -76l-80 -10q-70 -8 -69 -37v-690q0 -193 91 -286t255 -93q160 0 248 93t88 270v325q0 190 -7.5 271t-22.5 106t-54 31l-105 20l-6 76h477l-6 -76l-96 -20q-39 -6 -55.5 -31t-24.5 -106.5t-8 -270.5v-352q0 -211 -135.5 -336t-366.5 -125 q-236 0 -371 113.5t-135 333.5v749q0 14 -14 21.5t-60 13.5l-75 10zM705 1393l188 376h235l-354 -376h-69z" />
<glyph unicode="&#xdb;" horiz-adv-x="1458" d="M66 1280h544l-6 -76l-80 -10q-70 -8 -69 -37v-690q0 -193 91 -286t255 -93q160 0 248 93t88 270v325q0 190 -7.5 271t-22.5 106t-54 31l-105 20l-6 76h477l-6 -76l-96 -20q-39 -6 -55.5 -31t-24.5 -106.5t-8 -270.5v-352q0 -211 -135.5 -336t-366.5 -125 q-236 0 -371 113.5t-135 333.5v749q0 14 -14 21.5t-60 13.5l-75 10zM494 1393l227 393h98l228 -393h-66l-209 217h-4l-209 -217h-65z" />
<glyph unicode="&#xdc;" horiz-adv-x="1458" d="M66 1280h544l-6 -76l-80 -10q-70 -8 -69 -37v-690q0 -193 91 -286t255 -93q160 0 248 93t88 270v325q0 190 -7.5 271t-22.5 106t-54 31l-105 20l-6 76h477l-6 -76l-96 -20q-39 -6 -55.5 -31t-24.5 -106.5t-8 -270.5v-352q0 -211 -135.5 -336t-366.5 -125 q-236 0 -371 113.5t-135 333.5v749q0 14 -14 21.5t-60 13.5l-75 10zM406 1583q0 57 34.5 97t91.5 40q59 0 93 -40t34 -97q0 -55 -33.5 -95t-93.5 -40q-57 0 -91.5 40t-34.5 95zM831 1583q0 57 35 97t92.5 40t92 -40t34.5 -97q0 -55 -34.5 -95t-92 -40t-92.5 40t-35 95z" />
<glyph unicode="&#xdd;" horiz-adv-x="1236" d="M-20 1280h552l-6 -78l-75 -12q-31 -6 -39.5 -26.5t8 -66.5t61.5 -124l193 -332h12l205 363q37 61 47 100t-4 59.5t-53 28.5l-54 10l-6 78h432l-6 -78l-35 -10q-57 -16 -99 -52t-101 -132l-269 -455v-432q0 -16 15.5 -23.5t58.5 -11.5l113 -10l6 -76h-617l7 76l114 10 q72 8 72 37v403l-360 584q-41 61 -103 76l-63 16zM502 1393l188 376h236l-355 -376h-69z" />
<glyph unicode="&#xde;" horiz-adv-x="1232" d="M78 0l6 76l80 10q72 8 72 37v1036q0 14 -14.5 21.5t-61.5 13.5l-76 10l-6 76h547l-7 -76l-79 -10q-72 -8 -72 -37v-125h162q248 0 381 -99t133 -259q0 -193 -150.5 -302.5t-371.5 -109.5q-43 0 -154 8v-149q0 -16 15.5 -23.5t58.5 -11.5l110 -10l6 -76h-579zM467 362 q82 -16 158 -16q123 0 194.5 79t71.5 212q0 145 -88 228t-248 83h-88v-586z" />
<glyph unicode="&#xdf;" horiz-adv-x="1124" d="M18 809l13 109l143 4l2 30q20 229 134 350t302 121q162 0 258.5 -78.5t96.5 -211.5q0 -197 -252 -267q152 -82 261 -216t109 -290q0 -158 -104 -275.5t-246 -117.5q-109 0 -181.5 54.5t-72.5 134.5q0 59 38 99t95 40q66 0 97.5 -44t20.5 -98.5t-52 -82.5q37 -18 63 -19 q70 0 120 59.5t50 145.5q0 135 -99 275.5t-298 244.5v101q135 27 195.5 89t60.5 175q0 82 -52 137t-130 55q-203 0 -203 -305v-1028h-332l6 76l64 6q59 2 59 39v676z" />
<glyph unicode="&#xe0;" horiz-adv-x="960" d="M63 694q0 84 141.5 172t280.5 88q178 0 248 -90t62 -323l-15 -342q-6 -84 47 -84q33 0 99 49l35 -49q-113 -150 -222 -150q-63 0 -104 41t-45 121h-10q-131 -158 -261 -158q-102 0 -175.5 67.5t-73.5 172.5q0 125 123.5 207t396.5 147v19q2 143 -49.5 203.5t-151.5 60.5 q-49 0 -97 -15.5t-48 -27.5q0 -2 12 -17.5t24.5 -40t12.5 -51.5q0 -39 -32 -70.5t-83 -31.5q-49 0 -82 29.5t-33 72.5zM106 1427h232l192 -376h-69zM270 260q0 -66 42 -104.5t100 -38.5q78 0 166 82l8 293q-178 -45 -247 -102.5t-69 -129.5z" />
<glyph unicode="&#xe1;" horiz-adv-x="960" d="M63 694q0 84 141.5 172t280.5 88q178 0 248 -90t62 -323l-15 -342q-6 -84 47 -84q33 0 99 49l35 -49q-113 -150 -222 -150q-63 0 -104 41t-45 121h-10q-131 -158 -261 -158q-102 0 -175.5 67.5t-73.5 172.5q0 125 123.5 207t396.5 147v19q2 143 -49.5 203.5t-151.5 60.5 q-49 0 -97 -15.5t-48 -27.5q0 -2 12 -17.5t24.5 -40t12.5 -51.5q0 -39 -32 -70.5t-83 -31.5q-49 0 -82 29.5t-33 72.5zM270 260q0 -66 42 -104.5t100 -38.5q78 0 166 82l8 293q-178 -45 -247 -102.5t-69 -129.5zM360 1051l189 376h235l-354 -376h-70z" />
<glyph unicode="&#xe2;" horiz-adv-x="960" d="M63 694q0 84 141.5 172t280.5 88q178 0 248 -90t62 -323l-15 -342q-6 -84 47 -84q33 0 99 49l35 -49q-113 -150 -222 -150q-63 0 -104 41t-45 121h-10q-131 -158 -261 -158q-102 0 -175.5 67.5t-73.5 172.5q0 125 123.5 207t396.5 147v19q2 143 -49.5 203.5t-151.5 60.5 q-49 0 -97 -15.5t-48 -27.5q0 -2 12 -17.5t24.5 -40t12.5 -51.5q0 -39 -32 -70.5t-83 -31.5q-49 0 -82 29.5t-33 72.5zM164 1051l227 393h98l228 -393h-66l-209 217h-4l-209 -217h-65zM270 260q0 -66 42 -104.5t100 -38.5q78 0 166 82l8 293q-178 -45 -247 -102.5 t-69 -129.5z" />
<glyph unicode="&#xe3;" horiz-adv-x="960" d="M63 694q0 84 141.5 172t280.5 88q178 0 248 -90t62 -323l-15 -342q-6 -84 47 -84q33 0 99 49l35 -49q-113 -150 -222 -150q-63 0 -104 41t-45 121h-10q-131 -158 -261 -158q-102 0 -175.5 67.5t-73.5 172.5q0 125 123.5 207t396.5 147v19q2 143 -49.5 203.5t-151.5 60.5 q-49 0 -97 -15.5t-48 -27.5q0 -2 12 -17.5t24.5 -40t12.5 -51.5q0 -39 -32 -70.5t-83 -31.5q-49 0 -82 29.5t-33 72.5zM94 1085q37 264 207 265q70 0 175.5 -74t137.5 -74q31 0 52.5 29t50.5 102h69q-37 -264 -206 -264q-70 0 -177.5 72.5t-138.5 72.5t-51 -27.5t-47 -101.5 h-72zM270 260q0 -66 42 -104.5t100 -38.5q78 0 166 82l8 293q-178 -45 -247 -102.5t-69 -129.5z" />
<glyph unicode="&#xe4;" horiz-adv-x="960" d="M63 694q0 84 141.5 172t280.5 88q178 0 248 -90t62 -323l-15 -342q-6 -84 47 -84q33 0 99 49l35 -49q-113 -150 -222 -150q-63 0 -104 41t-45 121h-10q-131 -158 -261 -158q-102 0 -175.5 67.5t-73.5 172.5q0 125 123.5 207t396.5 147v19q2 143 -49.5 203.5t-151.5 60.5 q-49 0 -97 -15.5t-48 -27.5q0 -2 12 -17.5t24.5 -40t12.5 -51.5q0 -39 -32 -70.5t-83 -31.5q-49 0 -82 29.5t-33 72.5zM117 1241q0 57 34.5 97t92.5 40q59 0 93 -40t34 -97q0 -55 -34 -95t-93 -40q-57 0 -92 40t-35 95zM270 260q0 -66 42 -104.5t100 -38.5q78 0 166 82 l8 293q-178 -45 -247 -102.5t-69 -129.5zM543 1241q0 57 34.5 97t92 40t92.5 -40t35 -97q0 -55 -35 -95t-92.5 -40t-92 40t-34.5 95z" />
<glyph unicode="&#xe5;" horiz-adv-x="958" d="M63 694q0 84 141.5 172t280.5 88q178 0 248 -90t62 -323l-15 -342q-6 -84 47 -84q33 0 99 49l35 -49q-113 -150 -222 -150q-63 0 -104 41t-45 121h-10q-131 -158 -261 -158q-102 0 -175.5 67.5t-73.5 172.5q0 125 123.5 207t396.5 147v19q2 143 -49.5 203.5t-151.5 60.5 q-49 0 -97 -15.5t-48 -27.5q0 -2 12 -17.5t24.5 -40t12.5 -51.5q0 -39 -32 -70.5t-83 -31.5q-49 0 -82 29.5t-33 72.5zM268 1249q0 82 53.5 138.5t139.5 56.5t139 -56.5t53 -138.5t-53 -138t-139 -56t-139.5 56t-53.5 138zM270 260q0 -66 42 -104.5t100 -38.5q78 0 166 82 l8 293q-178 -45 -247 -102.5t-69 -129.5zM334 1249.5q0 -55.5 34.5 -94.5t92 -39t92.5 39t35 94.5t-35 94t-92.5 38.5t-92 -38.5t-34.5 -94z" />
<glyph unicode="&#xe6;" horiz-adv-x="1480" d="M63 694q0 84 140.5 172t281.5 88q213 0 269 -123q135 123 315 123q150 0 242 -85t92 -228q0 -59 -12 -113l-596 9v-23q2 -172 86 -277.5t217 -105.5q154 0 254 119l43 -25q-53 -123 -155.5 -189.5t-238.5 -66.5q-235 0 -356 207q-61 -90 -147 -148.5t-179 -58.5 q-102 0 -175.5 67.5t-73.5 172.5q0 125 123.5 207t396.5 147l2 25q10 131 -46.5 194.5t-156.5 63.5q-49 0 -97 -15.5t-48 -27.5q0 -2 12 -17.5t24.5 -40t12.5 -51.5q0 -39 -32 -70.5t-83 -31.5q-49 0 -82 29.5t-33 72.5zM270 260q0 -66 41 -104.5t107 -38.5q102 0 200 108 q-37 92 -36 205q0 30 4 59q-176 -45 -246 -101t-70 -128zM799 604h28h74q51 0 96 1t93 1h73q27 0 25 0q8 123 -37 193.5t-123 70.5q-84 0 -149.5 -70.5t-79.5 -195.5z" />
<glyph unicode="&#xe7;" horiz-adv-x="929" d="M68 430q0 225 144 374.5t353 149.5q141 0 223 -59t82 -145q0 -61 -36.5 -89t-88.5 -28q-63 0 -98 61.5t-18 141.5v4q-41 27 -99 26q-106 0 -176.5 -90t-70.5 -250q0 -172 85 -283.5t216 -111.5q154 0 254 119l43 -25q-98 -221 -326 -252l-86 -88q127 -2 200.5 -52 t73.5 -138q0 -106 -118.5 -174t-323.5 -80l-20 53q324 37 323 172q0 47 -45 77t-129 30q-72 0 -135 -15v45l160 168q-170 12 -278.5 140.5t-108.5 318.5z" />
<glyph unicode="&#xe8;" horiz-adv-x="966" d="M68 430q0 225 140 374.5t347 149.5q150 0 242 -85t92 -228q0 -59 -12 -113l-596 9v-23q2 -172 86 -277.5t217 -105.5q154 0 254 119l43 -25q-53 -123 -155.5 -189.5t-238.5 -66.5q-182 0 -300.5 131t-118.5 330zM174 1427h232l192 -376h-70zM285 604h65q41 0 127 1 t142.5 1t54.5 0q6 123 -38 193.5t-122 70.5q-84 0 -149.5 -70.5t-79.5 -195.5z" />
<glyph unicode="&#xe9;" horiz-adv-x="966" d="M68 430q0 225 140 374.5t347 149.5q150 0 242 -85t92 -228q0 -59 -12 -113l-596 9v-23q2 -172 86 -277.5t217 -105.5q154 0 254 119l43 -25q-53 -123 -155.5 -189.5t-238.5 -66.5q-182 0 -300.5 131t-118.5 330zM285 604h65q41 0 127 1t142.5 1t54.5 0q6 123 -38 193.5 t-122 70.5q-84 0 -149.5 -70.5t-79.5 -195.5zM377 1051l188 376h236l-355 -376h-69z" />
<glyph unicode="&#xea;" horiz-adv-x="966" d="M68 430q0 225 140 374.5t347 149.5q150 0 242 -85t92 -228q0 -59 -12 -113l-596 9v-23q2 -172 86 -277.5t217 -105.5q154 0 254 119l43 -25q-53 -123 -155.5 -189.5t-238.5 -66.5q-182 0 -300.5 131t-118.5 330zM207 1051l227 393h98l228 -393h-66l-209 217h-4l-209 -217 h-65zM285 604h65q41 0 127 1t142.5 1t54.5 0q6 123 -38 193.5t-122 70.5q-84 0 -149.5 -70.5t-79.5 -195.5z" />
<glyph unicode="&#xeb;" horiz-adv-x="966" d="M68 430q0 225 140 374.5t347 149.5q150 0 242 -85t92 -228q0 -59 -12 -113l-596 9v-23q2 -172 86 -277.5t217 -105.5q154 0 254 119l43 -25q-53 -123 -155.5 -189.5t-238.5 -66.5q-182 0 -300.5 131t-118.5 330zM143 1241q0 57 35 97t92 40q59 0 93 -40t34 -97 q0 -55 -33.5 -95t-93.5 -40q-57 0 -92 40t-35 95zM285 604h65q41 0 127 1t142.5 1t54.5 0q6 123 -38 193.5t-122 70.5q-84 0 -149.5 -70.5t-79.5 -195.5zM569 1241q0 57 35 97t92.5 40t92 -40t34.5 -97q0 -55 -34.5 -95t-92 -40t-92.5 40t-35 95z" />
<glyph unicode="&#xec;" horiz-adv-x="581" d="M-27 1427h232l192 -376h-69zM57 803l2 59l334 92v-835q0 -33 78 -37l51 -6l6 -76h-467l7 76l51 6q70 6 69 39v504q0 94 -15 122.5t-73 45.5z" />
<glyph unicode="&#xed;" horiz-adv-x="581" d="M57 803l2 59l334 92v-835q0 -33 78 -37l51 -6l6 -76h-467l7 76l51 6q70 6 69 39v504q0 94 -15 122.5t-73 45.5zM174 1051l188 376h236l-354 -376h-70z" />
<glyph unicode="&#xee;" horiz-adv-x="581" d="M14 1051l228 393h98l227 -393h-65l-209 217h-4l-209 -217h-66zM57 803l2 59l334 92v-835q0 -33 78 -37l51 -6l6 -76h-467l7 76l51 6q70 6 69 39v504q0 94 -15 122.5t-73 45.5z" />
<glyph unicode="&#xef;" horiz-adv-x="581" d="M-49 1241q0 57 34.5 97t92.5 40q59 0 93 -40t34 -97q0 -55 -34 -95t-93 -40q-57 0 -92 40t-35 95zM57 803l2 59l334 92v-835q0 -33 78 -37l51 -6l6 -76h-467l7 76l51 6q70 6 69 39v504q0 94 -15 122.5t-73 45.5zM377 1241q0 57 34.5 97t92 40t92.5 -40t35 -97 q0 -55 -35 -95t-92.5 -40t-92 40t-34.5 95z" />
<glyph unicode="&#xf0;" horiz-adv-x="1075" d="M68 459q0 215 128 351t302 136q182 0 284 -162q-57 228 -215 363l-299 -98v94l211 69q-100 63 -215 95l29 67q170 -33 315 -119l256 86v-94l-164 -55q150 -115 232 -283t84 -368q0 -252 -133 -412t-342 -160q-211 0 -342 141.5t-131 348.5zM289 520q0 -268 119 -391 q70 -66 155 -66q104 0 169 90.5t65 247.5q0 268 -117 390q-68 68 -158 67q-106 0 -169.5 -90t-63.5 -248z" />
<glyph unicode="&#xf1;" horiz-adv-x="1146" d="M53 803l2 59l336 92v-149h10q184 150 332 149q102 0 170 -67q78 -78 78 -234v-532q0 -16 16.5 -24.5t67.5 -14.5l49 -6l6 -76h-465l7 76l45 6q70 4 69 39v414q0 145 -44 201.5t-138 56.5q-111 0 -203 -76v-598q0 -33 78 -37l61 -6l7 -76h-480l6 76l54 6q70 6 69 39v504 q0 94 -16 122.5t-72 45.5zM227 1085q37 264 207 265q70 0 175.5 -74t138.5 -74q31 0 52 29t50 102h70q-37 -264 -207 -264q-70 0 -177.5 72.5t-138 72.5t-51 -27.5t-47.5 -101.5h-72z" />
<glyph unicode="&#xf2;" horiz-adv-x="1089" d="M94 457q0 207 145.5 352t354.5 145q205 0 332 -135t127 -336q0 -215 -143.5 -364.5t-356.5 -149.5q-209 0 -334 139.5t-125 348.5zM176 1427h232l192 -376h-70zM319 514q0 -281 103 -389q68 -68 160 -68q104 0 173.5 95.5t69.5 255.5q0 283 -102 387q-66 70 -158 69 q-106 0 -176 -95t-70 -255z" />
<glyph unicode="&#xf3;" horiz-adv-x="1093" d="M68 457q0 207 144 352t355 145q205 0 332 -135t127 -336q0 -215 -143.5 -364.5t-356.5 -149.5q-209 0 -333.5 139.5t-124.5 348.5zM293 514q0 -281 102 -389q68 -68 160 -68q104 0 174 95.5t70 255.5q0 283 -103 387q-66 70 -157 69q-106 0 -176 -95t-70 -255zM455 1051 l188 376h236l-355 -376h-69z" />
<glyph unicode="&#xf4;" horiz-adv-x="1093" d="M68 457q0 207 144 352t355 145q205 0 332 -135t127 -336q0 -215 -143.5 -364.5t-356.5 -149.5q-209 0 -333.5 139.5t-124.5 348.5zM268 1051l228 393h98l227 -393h-65l-209 217h-4l-209 -217h-66zM293 514q0 -281 102 -389q68 -68 160 -68q104 0 174 95.5t70 255.5 q0 283 -103 387q-66 70 -157 69q-106 0 -176 -95t-70 -255z" />
<glyph unicode="&#xf5;" horiz-adv-x="1093" d="M68 457q0 207 144 352t355 145q205 0 332 -135t127 -336q0 -215 -143.5 -364.5t-356.5 -149.5q-209 0 -333.5 139.5t-124.5 348.5zM199 1085q37 264 207 265q70 0 175 -74t138 -74q31 0 52.5 29t49.5 102h70q-37 -264 -207 -264q-70 0 -177.5 72.5t-138 72.5t-51 -27.5 t-47.5 -101.5h-71zM293 514q0 -281 102 -389q68 -68 160 -68q104 0 174 95.5t70 255.5q0 283 -103 387q-66 70 -157 69q-106 0 -176 -95t-70 -255z" />
<glyph unicode="&#xf6;" horiz-adv-x="1093" d="M68 457q0 207 144 352t355 145q205 0 332 -135t127 -336q0 -215 -143.5 -364.5t-356.5 -149.5q-209 0 -333.5 139.5t-124.5 348.5zM205 1241q0 57 34.5 97t92.5 40q59 0 93 -40t34 -97q0 -55 -34 -95t-93 -40q-57 0 -92 40t-35 95zM293 514q0 -281 102 -389 q68 -68 160 -68q104 0 174 95.5t70 255.5q0 283 -103 387q-66 70 -157 69q-106 0 -176 -95t-70 -255zM631 1241q0 57 34.5 97t92 40t92.5 -40t35 -97q0 -55 -35 -95t-92.5 -40t-92 40t-34.5 95z" />
<glyph unicode="&#xf7;" horiz-adv-x="983" d="M76 424l6 113h817l6 -113h-829zM385 190.5q0 45.5 29.5 77t77 31.5t78 -31.5t30.5 -77t-30.5 -77t-78 -31.5t-77 31.5t-29.5 77zM385 770q0 45 29.5 77t77 32t78 -32t30.5 -77t-30.5 -76.5t-78 -31.5t-77 31.5t-29.5 76.5z" />
<glyph unicode="&#xf8;" horiz-adv-x="1089" d="M72 459q0 209 136 352t341 143q106 0 207 -47l184 318l82 -13l-201 -344q90 -66 141.5 -173t51.5 -232q0 -209 -135.5 -351.5t-339.5 -142.5q-113 0 -209 45l-160 -278l-82 12l176 305q-90 68 -141 174.5t-51 231.5zM279 520q0 -190 73 -311l332 575q-66 74 -174 74 q-104 0 -167.5 -89t-63.5 -249zM399 135q72 -72 174 -72q100 0 166 90t66 248q0 186 -72 310z" />
<glyph unicode="&#xf9;" horiz-adv-x="1114" d="M18 924h353l-13 -537q-2 -143 43 -199.5t140 -56.5q104 0 204 74v600q0 16 -15 24.5t-62 12.5l-70 6l-8 76h358v-764q0 -51 29 -60l121 -37l-6 -55l-347 -39v150h-10q-188 -150 -334 -150q-102 0 -170 68q-78 78 -77 233l4 533q0 20 -9.5 25.5t-50.5 9.5q-4 0 -8 1t-9 2 t-11 1l-45 6zM203 1427h231l193 -376h-70z" />
<glyph unicode="&#xfa;" horiz-adv-x="1114" d="M18 924h353l-13 -537q-2 -143 43 -199.5t140 -56.5q104 0 204 74v600q0 16 -15 24.5t-62 12.5l-70 6l-8 76h358v-764q0 -51 29 -60l121 -37l-6 -55l-347 -39v150h-10q-188 -150 -334 -150q-102 0 -170 68q-78 78 -77 233l4 533q0 20 -9.5 25.5t-50.5 9.5q-4 0 -8 1t-9 2 t-11 1l-45 6zM440 1051l189 376h235l-354 -376h-70z" />
<glyph unicode="&#xfb;" horiz-adv-x="1114" d="M18 924h353l-13 -537q-2 -143 43 -199.5t140 -56.5q104 0 204 74v600q0 16 -15 24.5t-62 12.5l-70 6l-8 76h358v-764q0 -51 29 -60l121 -37l-6 -55l-347 -39v150h-10q-188 -150 -334 -150q-102 0 -170 68q-78 78 -77 233l4 533q0 20 -9.5 25.5t-50.5 9.5q-4 0 -8 1t-9 2 t-11 1l-45 6zM258 1051l227 393h99l227 -393h-66l-208 217h-5l-208 -217h-66z" />
<glyph unicode="&#xfc;" horiz-adv-x="1114" d="M18 924h353l-13 -537q-2 -143 43 -199.5t140 -56.5q104 0 204 74v600q0 16 -15 24.5t-62 12.5l-70 6l-8 76h358v-764q0 -51 29 -60l121 -37l-6 -55l-347 -39v150h-10q-188 -150 -334 -150q-102 0 -170 68q-78 78 -77 233l4 533q0 20 -9.5 25.5t-50.5 9.5q-4 0 -8 1t-9 2 t-11 1l-45 6zM190 1241q0 57 35 97t92 40q59 0 93 -40t34 -97q0 -55 -33.5 -95t-93.5 -40q-57 0 -92 40t-35 95zM616 1241q0 57 35 97t92.5 40t92 -40t34.5 -97q0 -55 -34.5 -95t-92 -40t-92.5 40t-35 95z" />
<glyph unicode="&#xfd;" horiz-adv-x="964" d="M-39 924h479l-6 -76l-55 -14q-70 -6 -39 -76l229 -527l168 476q23 63 13.5 89.5t-58.5 34.5l-61 17l-6 76h389l-6 -76l-58 -12q-41 -6 -63.5 -34t-52.5 -104l-242 -637l-111 -329q-47 -139 -102 -203t-143 -64q-66 0 -107 34t-41 87q0 49 27.5 82t81.5 33q84 0 127 -76 q39 20 84 142l69 198v8l-364 783q-18 39 -37 52t-62 21l-45 17zM365 1051l188 376h235l-354 -376h-69z" />
<glyph unicode="&#xfe;" horiz-adv-x="1091" d="M2 1272l6 55l346 100v-641h11q133 154 292 154q166 0 267.5 -127t101.5 -315q0 -215 -133 -372t-356 -157q-90 0 -179 27h-4v-381q0 -31 78 -37l76 -6l6 -76h-498l7 76l57 6q70 6 70 39v1542q0 47 -29 60zM354 182q111 -125 221 -125q94 0 162 99.5t68 259.5 q0 168 -68.5 266t-179.5 98q-119 0 -203 -98v-500z" />
<glyph unicode="&#xff;" horiz-adv-x="964" d="M-39 924h479l-6 -76l-55 -14q-70 -6 -39 -76l229 -527l168 476q23 63 13.5 89.5t-58.5 34.5l-61 17l-6 76h389l-6 -76l-58 -12q-41 -6 -63.5 -34t-52.5 -104l-242 -637l-111 -329q-47 -139 -102 -203t-143 -64q-66 0 -107 34t-41 87q0 49 27.5 82t81.5 33q84 0 127 -76 q39 20 84 142l69 198v8l-364 783q-18 39 -37 52t-62 21l-45 17zM162 1241q0 57 34.5 97t92.5 40q59 0 93 -40t34 -97q0 -55 -34 -95t-93 -40q-57 0 -92 40t-35 95zM588 1241q0 57 34.5 97t92 40t92.5 -40t35 -97q0 -55 -35 -95t-92.5 -40t-92 40t-34.5 95z" />
<glyph unicode="&#x152;" horiz-adv-x="1988" d="M92 612q0 285 203 477.5t567 192.5l1000 -2v-399h-111l-47 186q-10 39 -22.5 59.5t-33 37t-72.5 21.5t-113.5 7t-182.5 2h-94v-502h67q113 0 149 9.5t50 43.5l47 138h86l-43 -463h-84l-18 129q-4 35 -37 46t-154 11h-63v-520h84q203 0 287.5 9t117.5 33t54 85l49 172h120 l-40 -385h-1018q-334 0 -541 171t-207 441zM326 664q0 -264 150.5 -420t430.5 -156h64v1081l-148 31q-233 0 -365 -151.5t-132 -384.5z" />
<glyph unicode="&#x153;" horiz-adv-x="1697" d="M72 459q4 209 146 352t353 143q229 0 355 -172q139 172 364 172q150 0 242 -85t92 -228q0 -59 -12 -113l-600 9v-23q0 -170 87 -276.5t220 -106.5q154 0 254 119l43 -25q-53 -123 -155.5 -189.5t-237.5 -66.5q-207 0 -326 164q-141 -164 -367 -164q-211 0 -336.5 141.5 t-121.5 348.5zM297 520q-4 -283 102 -395q63 -68 158 -68q104 0 173 93t71 251q4 285 -103 394q-59 70 -155 69q-109 0 -176.5 -91t-69.5 -253zM1016 604h67q41 0 128 1t143.5 1t54.5 0q6 123 -38 193.5t-122 70.5q-84 0 -151.5 -70.5t-81.5 -195.5z" />
<glyph unicode="&#x178;" horiz-adv-x="1236" d="M-20 1280h552l-6 -78l-75 -12q-31 -6 -39.5 -26.5t8 -66.5t61.5 -124l193 -332h12l205 363q37 61 47 100t-4 59.5t-53 28.5l-54 10l-6 78h432l-6 -78l-35 -10q-57 -16 -99 -52t-101 -132l-269 -455v-432q0 -16 15.5 -23.5t58.5 -11.5l113 -10l6 -76h-617l7 76l114 10 q72 8 72 37v403l-360 584q-41 61 -103 76l-63 16zM315 1583q0 57 35 97t92 40q59 0 93 -40t34 -97q0 -55 -33.5 -95t-93.5 -40q-57 0 -92 40t-35 95zM741 1583q0 57 35 97t92.5 40t92 -40t34.5 -97q0 -55 -34.5 -95t-92 -40t-92.5 40t-35 95z" />
<glyph unicode="&#x2c6;" d="M133 1051l227 393h99l227 -393h-65l-209 217h-4l-209 -217h-66z" />
<glyph unicode="&#x2dc;" d="M63 1085q37 264 207 265q70 0 175.5 -74t138.5 -74q31 0 52 29t50 102h70q-37 -264 -207 -264q-70 0 -177.5 72.5t-138 72.5t-51 -27.5t-47.5 -101.5h-72z" />
<glyph unicode="&#x2000;" horiz-adv-x="893" />
<glyph unicode="&#x2001;" horiz-adv-x="1786" />
<glyph unicode="&#x2002;" horiz-adv-x="893" />
<glyph unicode="&#x2003;" horiz-adv-x="1786" />
<glyph unicode="&#x2004;" horiz-adv-x="595" />
<glyph unicode="&#x2005;" horiz-adv-x="446" />
<glyph unicode="&#x2006;" horiz-adv-x="297" />
<glyph unicode="&#x2007;" horiz-adv-x="297" />
<glyph unicode="&#x2008;" horiz-adv-x="223" />
<glyph unicode="&#x2009;" horiz-adv-x="357" />
<glyph unicode="&#x200a;" horiz-adv-x="99" />
<glyph unicode="&#x2010;" horiz-adv-x="677" d="M68 432l6 117h534l6 -117h-546z" />
<glyph unicode="&#x2011;" horiz-adv-x="677" d="M68 432l6 117h534l6 -117h-546z" />
<glyph unicode="&#x2012;" horiz-adv-x="677" d="M68 432l6 117h534l6 -117h-546z" />
<glyph unicode="&#x2013;" horiz-adv-x="962" d="M59 432l7 117h835l6 -117h-848z" />
<glyph unicode="&#x2014;" horiz-adv-x="1925" d="M59 432l7 117h1798l6 -117h-1811z" />
<glyph unicode="&#x2018;" horiz-adv-x="485" d="M61 948q0 205 308 420l55 -41q-182 -129 -182 -268q0 -55 43 -98t86 -64l43 -20q0 -55 -42 -95.5t-110 -40.5q-76 0 -138.5 60.5t-62.5 146.5z" />
<glyph unicode="&#x2019;" horiz-adv-x="485" d="M68 764q182 125 182 268q0 35 -17.5 66.5t-43 51t-51 33t-43 20.5t-17.5 9q0 55 42 96.5t109 41.5q76 0 138.5 -60.5t62.5 -146.5q0 -207 -307 -422z" />
<glyph unicode="&#x201a;" horiz-adv-x="485" d="M68 -328q182 125 182 269q0 35 -17.5 66.5t-43 51t-51 32.5t-43 20.5t-17.5 9.5q0 55 42 96t109 41q76 0 138.5 -60.5t62.5 -146.5q0 -207 -307 -422z" />
<glyph unicode="&#x201c;" horiz-adv-x="913" d="M61 948q0 205 308 420l55 -41q-182 -129 -182 -268q0 -55 43 -98t86 -64l43 -20q0 -55 -42 -95.5t-110 -40.5q-76 0 -138.5 60.5t-62.5 146.5zM512 948q0 205 305 420l57 -41q-182 -127 -182 -268q0 -55 43 -98t86 -64l43 -20q0 -55 -42 -95.5t-109 -40.5 q-78 0 -139.5 60.5t-61.5 146.5z" />
<glyph unicode="&#x201d;" horiz-adv-x="913" d="M68 764q182 125 182 268q0 35 -17.5 66.5t-43 51t-51 33t-43 20.5t-17.5 9q0 55 42 96.5t109 41.5q76 0 138.5 -60.5t62.5 -146.5q0 -207 -307 -422zM518 764q182 123 182 268q0 35 -17 66.5t-43 51t-51.5 33t-43 20.5t-17.5 9q0 55 42 96.5t110 41.5q78 0 139.5 -60.5 t61.5 -146.5q0 -207 -306 -422z" />
<glyph unicode="&#x201e;" horiz-adv-x="909" d="M68 -328q182 125 182 269q0 35 -17.5 66.5t-43 51t-51 32.5t-43 20.5t-17.5 9.5q0 55 42 96t109 41q76 0 138.5 -60.5t62.5 -146.5q0 -207 -307 -422zM518 -328q182 123 182 269q0 35 -17 66.5t-43 51t-51.5 32.5t-43 20.5t-17.5 9.5q0 55 42 96t110 41q78 0 139.5 -60.5 t61.5 -146.5q0 -207 -306 -422z" />
<glyph unicode="&#x2022;" horiz-adv-x="931" d="M72 475q0 45 43 146.5t73.5 132t133 72.5t145.5 42q45 0 146.5 -42t132 -72.5t72.5 -132t42 -146.5t-41 -146.5t-74 -133.5q-31 -31 -133 -73t-147 -42q-43 0 -145.5 42t-131.5 73q-31 33 -73.5 135t-42.5 145z" />
<glyph unicode="&#x2026;" horiz-adv-x="1425" d="M92 117q0 61 43 103t106.5 42t105.5 -43t42 -102.5t-42 -103.5t-105.5 -44t-106.5 44t-43 104zM567 117q0 61 43 103t106.5 42t105.5 -43t42 -102.5t-42 -103.5t-105.5 -44t-106.5 44t-43 104zM1042 117q0 61 43 103t106.5 42t105.5 -43t42 -102.5t-42 -103.5t-105.5 -44 t-106.5 44t-43 104z" />
<glyph unicode="&#x202f;" horiz-adv-x="357" />
<glyph unicode="&#x2039;" horiz-adv-x="634" d="M72 399v107l463 315l22 -43l-297 -325l297 -326l-22 -43z" />
<glyph unicode="&#x203a;" horiz-adv-x="634" d="M90 127l297 326l-297 325l23 43l462 -315v-107l-462 -315z" />
<glyph unicode="&#x205f;" horiz-adv-x="446" />
<glyph unicode="&#x20ac;" horiz-adv-x="1079" d="M45 440l6 90h117q-2 23 -2 72q0 29 4 90h-125l6 90h131q45 227 192.5 366.5t350.5 139.5q129 0 217 -50t88 -124q0 -47 -30.5 -77.5t-77.5 -30.5q-55 0 -92 48t-46 111q-43 29 -100 29q-127 0 -208 -111.5t-103 -300.5h409l6 -90h-423v-43q0 -63 6 -119h411l6 -90h-401 q37 -158 124 -239.5t212 -81.5q152 0 281 137l38 -25q-55 -121 -154.5 -191.5t-234.5 -70.5q-182 0 -308 127t-165 344h-135z" />
<glyph unicode="&#x2122;" horiz-adv-x="1898" d="M57 993l15 287h694v-287h-74l-10 39q-37 119 -69.5 153t-129.5 34h-2v-603q0 -23 25 -28l86 -13l2 -57h-377l4 57l84 13q27 6 27 28v603h-2q-82 0 -119 -38t-74 -149l-12 -39h-68zM852 518l4 57l62 11q25 4 34 41t13 170l12 383q0 27 -25 30l-71 13l-4 57h323l125 -563 h21l172 563h323l-4 -57l-68 -13q-29 -6 -28 -30l8 -465q2 -72 11 -95.5t30 -29.5l61 -15l4 -57h-352l2 57l64 15q16 4 21 26.5t3 98.5l-8 475h-20l-209 -647h-123l-162 653h-20l-13 -399q-4 -137 -1 -170t24 -41l65 -11l2 -57h-276z" />
<glyph unicode="&#x25fc;" horiz-adv-x="921" d="M0 0v922h922v-922h-922z" />
</font>
</defs>
</svg>
