<?xml version="1.0" standalone="no"?>
<!DOCTYPE svg PUBLIC "-//W3C//DTD SVG 1.1//EN" "http://www.w3.org/Graphics/SVG/1.1/DTD/svg11.dtd" >
<svg xmlns="http://www.w3.org/2000/svg" xmlns:xlink="http://www.w3.org/1999/xlink" version="1.1">
<metadata></metadata>
<defs>
<font id="freighttextfreighttextproMdIt" horiz-adv-x="968" >
<font-face units-per-em="2048" ascent="1489" descent="-559" />
<missing-glyph horiz-adv-x="466" />
<glyph unicode="&#xfb01;" horiz-adv-x="987" d="M-334 -375q0 49 29 81t74 32q53 0 84.5 -41t37.5 -103l113 48q37 86 92 387l142 782l-187 8l6 60l195 47q47 254 164 370q129 129 329 129q92 0 149.5 -46t57.5 -107q0 -49 -29.5 -84t-74.5 -35q-53 0 -89 41t-50 111l-217 -29q-59 -137 -89 -358h248q53 33 86 32.5 t92.5 -42.5t53.5 -64l-201 -735l59 -21l162 123l35 -37q-39 -76 -120 -140.5t-142 -64.5q-33 0 -87 43t-50 64l192 737l-16 6h-330l-111 -586q-94 -510 -215 -639q-92 -98 -233 -98q-68 0 -114 36t-46 93z" />
<glyph unicode="&#xfb02;" horiz-adv-x="1021" d="M-334 -375q0 49 29 81t74 32q53 0 84.5 -41t37.5 -103l119 48q51 102 96 387l123 782l-178 8l6 60l195 47q47 254 164 370q129 129 329 129q72 0 127 -30l117 32l-274 -1318l59 -21l162 123l35 -37q-39 -76 -120 -140.5t-142 -64.5q-31 0 -87.5 44t-52.5 63l146 743h-330 l-111 -586q-94 -510 -215 -639q-92 -98 -233 -98q-68 0 -114 36t-46 93zM403 918h330l51 253q-55 39 -75 134l-217 -29q-59 -137 -89 -358z" />
<glyph unicode="&#xfb03;" horiz-adv-x="1499" d="M-334 -375q0 49 29 81t74 32q53 0 84.5 -41t37.5 -103l113 48q37 86 92 387l142 782l-187 8l6 60l195 47q45 248 164 366q115 115 276 115q88 0 142.5 -44t54.5 -103v-7l39 43q129 129 329 129q92 0 149.5 -46t57.5 -107q0 -49 -29.5 -84t-74.5 -35q-53 0 -89 41t-50 111 l-217 -29q-59 -137 -89 -358h248q53 33 86 32.5t92.5 -42.5t53.5 -64l-201 -735l59 -21l162 123l35 -37q-39 -76 -120 -140.5t-142 -64.5q-33 0 -87 43t-50 64l192 737l-16 6h-330l-102 -524q-98 -516 -215 -639q-100 -100 -207 -100q-68 0 -114 35.5t-46 93.5 q0 49 28.5 80.5t73.5 31.5q53 0 85 -41t38 -102l92 49q47 102 97 387l116 729h-358l-111 -586q-94 -510 -215 -639q-92 -98 -233 -98q-68 0 -114 36t-46 93zM403 918h361q24 147 65 237q-25 -8 -41 -8q-51 0 -84.5 40t-46.5 105l-165 -28q-61 -143 -89 -346z" />
<glyph unicode="&#xfb04;" horiz-adv-x="1533" d="M-334 -375q0 49 29 81t74 32q53 0 84.5 -41t37.5 -103l113 48q37 86 92 387l142 782l-187 8l6 60l195 47q45 248 164 366q115 115 276 115q88 0 142.5 -44t54.5 -103v-7l39 43q129 129 329 129q72 0 127 -30l117 32l-274 -1318l59 -21l162 123l35 -37 q-39 -76 -120 -140.5t-142 -64.5q-31 0 -87.5 44t-52.5 63l146 743h-330l-102 -524q-98 -516 -215 -639q-100 -100 -207 -100q-68 0 -114 35.5t-46 93.5q0 49 28.5 80.5t73.5 31.5q53 0 85 -41t38 -102l92 49q47 102 97 387l116 729h-358l-111 -586q-94 -510 -215 -639 q-92 -98 -233 -98q-68 0 -114 36t-46 93zM403 918h361q24 147 65 237q-25 -8 -41 -8q-51 0 -84.5 40t-46.5 105l-165 -28q-61 -143 -89 -346zM915 918h330l51 253q-53 37 -75 134l-217 -29q-59 -137 -89 -358z" />
<glyph horiz-adv-x="0" />
<glyph unicode="&#xd;" horiz-adv-x="681" />
<glyph unicode=" "  horiz-adv-x="466" />
<glyph unicode="&#x09;" horiz-adv-x="466" />
<glyph unicode="&#xa0;" horiz-adv-x="466" />
<glyph unicode="!" horiz-adv-x="581" d="M121 92q0 49 36 84t89 35t87 -35t34 -84q0 -51 -34 -87t-87 -36t-89 37t-36 86zM256 401l20 826q4 84 95 84h6q72 0 97 -25t15 -72l-192 -815q-2 -12 -21.5 -11t-19.5 13z" />
<glyph unicode="&#x22;" horiz-adv-x="757" d="M70 825l219 498h4l164 -57l-310 -441h-77zM403 825l220 498h2l163 -57l-309 -441h-76z" />
<glyph unicode="#" horiz-adv-x="1159" d="M0 369v77h283l102 381h-262v78h283l106 387h80l-105 -387h349l104 387h80l-105 -387h265v-78h-285l-102 -381h264v-77h-285l-102 -381h-80l102 381h-350l-102 -381h-80l102 381h-262zM362 446h351l102 381h-348z" />
<glyph unicode="$" horiz-adv-x="1044" d="M39 29l24 366h84l58 -280q49 -27 121 -43l139 518q-150 84 -223.5 169t-73.5 216q0 141 130 237.5t296 96.5q45 0 63 -2l56 204h80q-55 -209 -58 -208q66 -8 146 -27l106 24l-53 -393h-90l-27 254q-43 23 -108 39l-123 -455q80 -47 123 -77.5t96 -79.5t77.5 -107.5 t24.5 -130.5q0 -168 -139 -274.5t-346 -106.5h-43l-84 -309h-80l84 313q-125 12 -260 56zM344 1047q-2 -80 41 -140t133 -119l115 424q-45 4 -72 5q-84 0 -150.5 -47.5t-66.5 -122.5zM403 61q18 -2 56 -2q127 0 196.5 60.5t71.5 161.5q2 80 -47.5 140t-147.5 126z" />
<glyph unicode="%" horiz-adv-x="1527" d="M92 -31l1290 1340h121l-1290 -1340h-121zM113 946q0 156 109.5 267.5t262.5 111.5q137 0 230.5 -82t93.5 -219q0 -160 -109.5 -271.5t-267.5 -111.5q-135 0 -227 84t-92 221zM211 950q0 -100 65.5 -161.5t163.5 -61.5q113 0 190 81t77 196q0 102 -64.5 166.5t-165.5 64.5 q-111 0 -188.5 -86t-77.5 -199zM801 254q0 160 107.5 271.5t265.5 111.5q135 0 227 -82t92 -219q0 -158 -110.5 -270.5t-266.5 -112.5q-139 0 -227 82t-88 219zM899 262q0 -100 64.5 -161.5t160.5 -61.5q113 0 192 85t79 200q0 96 -66.5 159.5t-163.5 63.5 q-111 0 -188.5 -86t-77.5 -199z" />
<glyph unicode="&#x26;" horiz-adv-x="1284" d="M6 281q0 164 109.5 266t263.5 131v2q-137 137 -137 285q0 152 115.5 248t275.5 96q141 0 233 -73t92 -192q0 -129 -94 -210.5t-293 -133.5v-2l269 -292h2l243 208v4q-47 10 -73.5 41t-26.5 68q0 47 35 74.5t88 27.5t89 -35.5t36 -84.5q0 -139 -227 -281l-119 -74 l305 -331l-188 -56l-246 287h-2q-125 -145 -231.5 -216t-235.5 -71q-121 0 -202 92.5t-81 221.5zM178 326q0 -94 52.5 -153.5t123.5 -59.5q117 0 361 188l-299 338q-238 -127 -238 -313zM412 1018q0 -68 17 -121t35.5 -79.5t59.5 -74.5q139 66 201.5 128.5t62.5 150.5 q0 92 -43 151.5t-129 59.5q-94 0 -149 -62.5t-55 -152.5z" />
<glyph unicode="'" horiz-adv-x="425" d="M70 825l221 498h2l164 -57l-310 -441h-77z" />
<glyph unicode="(" horiz-adv-x="808" d="M188 428q0 178 53.5 342t138.5 280.5t175 199.5t178 126l53 -71q-182 -98 -336.5 -337t-154.5 -540t154.5 -539.5t336.5 -334.5l-53 -74q-88 43 -178 126t-175 199.5t-138.5 280.5t-53.5 342z" />
<glyph unicode=")" horiz-adv-x="808" d="M23 -449q182 98 336.5 337t154.5 540t-154.5 539.5t-336.5 337.5l55 71q88 -43 177 -125t174 -199.5t138.5 -281.5t53.5 -342t-53.5 -342t-138.5 -281.5t-174 -199.5t-177 -125z" />
<glyph unicode="*" horiz-adv-x="714" d="M135 1161l27 37l131 -18l106 -166l33 10l-4 199l88 86l45 -15l23 -125l-127 -155l20 -27l189 68l108 -62v-45l-108 -61l-189 69l-20 -26l123 -156l-23 -125l-43 -12l-92 88l8 199l-31 8l-106 -160l-127 -20l-29 36l58 119l186 49v37l-186 54z" />
<glyph unicode="+" horiz-adv-x="983" d="M63 426l7 109h368v376h109v-376h366l7 -109h-373v-379h-109v379h-375z" />
<glyph unicode="," horiz-adv-x="475" d="M-61 -305q84 45 147.5 115.5t63.5 144.5q0 31 -14.5 60.5t-35 49t-41 34t-34.5 22.5l-15 8q0 47 43 79t99 32q72 0 127 -56.5t55 -136.5q0 -199 -346 -391z" />
<glyph unicode="-" horiz-adv-x="671" d="M68 426l6 109h528l6 -109h-540z" />
<glyph unicode="." horiz-adv-x="475" d="M55 106.5q0 55.5 40 94.5t99.5 39t97.5 -39t38 -94.5t-39 -96.5t-96 -41q-59 0 -99.5 41t-40.5 96.5z" />
<glyph unicode="/" horiz-adv-x="571" d="M14 -434l441 1796h98l-440 -1796h-99z" />
<glyph unicode="0" horiz-adv-x="1030" d="M78 408q0 231 132 406t339 175q174 0 283.5 -117.5t109.5 -320.5q0 -231 -132 -406.5t-339 -175.5q-174 0 -283.5 118t-109.5 321zM211 408q0 -141 74.5 -229.5t191.5 -88.5q111 0 189.5 78t110.5 178.5t32 204.5q0 141 -75 229t-191 88q-111 0 -190 -77.5t-110.5 -178 t-31.5 -204.5z" />
<glyph unicode="1" horiz-adv-x="776" d="M53 0l6 72l154 22q49 6 53 47l94 703l-223 33l15 61l393 39l-113 -836q-4 -41 41 -47l158 -22l6 -72h-584z" />
<glyph unicode="2" horiz-adv-x="927" d="M20 0l7 127q49 35 134 93.5t126 87t102.5 74.5t90 74.5t61 66.5t45 72t12.5 69q0 88 -62.5 139t-154.5 51q-133 0 -264 -115l-15 49q74 82 185.5 138.5t216.5 56.5q119 0 203 -67.5t84 -182.5q0 -170 -216 -332q-82 -63 -389 -245q-6 -4 -10 -6l-2 -11h33q195 0 284 8.5 t133 30t74 72.5l50 80h88l-107 -330h-709z" />
<glyph unicode="3" horiz-adv-x="856" d="M-72 -268q0 43 31 74.5t74 31.5q59 0 103 -48t48 -109q31 -8 68 -9q127 0 214 94.5t87 221.5q0 113 -67.5 182.5t-180.5 69.5q-68 0 -143 -31l-21 51q225 131 310 217q92 98 94 191q0 88 -53.5 138t-141.5 50q-111 0 -280 -115l-15 52q211 193 420 192q117 0 204 -66.5 t87 -181.5q0 -66 -37 -129t-98.5 -114.5t-120.5 -89t-125 -68.5v-4q35 6 72 6q123 0 205.5 -79t82.5 -202q0 -188 -177 -329.5t-371 -141.5q-49 0 -106.5 12.5t-110 47.5t-52.5 86z" />
<glyph unicode="4" horiz-adv-x="980" d="M-27 82v78l797 839h59l-106 -819h235l-28 -98h-221l-60 -459h-166l60 459h-570zM109 180h448l82 549h-10z" />
<glyph unicode="5" horiz-adv-x="890" d="M-70 -270q0 45 32 75.5t75 30.5q61 0 101 -47t44 -108q27 -8 66 -9q125 0 217 76t92 197q0 246 -461 444l221 569h535l-29 -170h-475l-100 -268q473 -186 473 -483q0 -201 -155.5 -326t-360.5 -125q-53 0 -109.5 10.5t-111 45t-54.5 88.5z" />
<glyph unicode="6" horiz-adv-x="1058" d="M88 453q0 225 151.5 424.5t383 319.5t481.5 142l18 -63q-317 -68 -535 -236t-327 -422h25q74 100 172 158t186 58q133 0 225.5 -95.5t92.5 -271.5q0 -203 -145.5 -349.5t-326.5 -146.5q-176 0 -288.5 137.5t-112.5 344.5zM260 389q0 -147 61.5 -246.5t174.5 -99.5 q121 0 206.5 118.5t85.5 284.5q0 125 -64.5 211t-148.5 86q-180 0 -292 -215q-23 -98 -23 -139z" />
<glyph unicode="7" horiz-adv-x="925" d="M18 -377l748 1170l2 10h-225q-111 0 -156 -1t-81 -7.5t-44 -14.5t-20 -28l-74 -123h-68l86 329h729l-2 -94l-782 -1241h-113z" />
<glyph unicode="8" horiz-adv-x="1019" d="M88 311q0 244 313 336v6q-188 113 -190 301q-2 160 113.5 256.5t281.5 96.5q139 0 240.5 -89.5t99.5 -232.5q-2 -123 -71.5 -193.5t-198.5 -115.5l2 -6q235 -139 235 -338q0 -176 -122.5 -268.5t-305.5 -92.5q-158 0 -277.5 94.5t-119.5 245.5zM256 303 q0 -119 70.5 -191.5t191.5 -72.5q106 0 168 55t64 164q0 59 -26 113.5t-80 101.5t-93 74.5t-105 68.5q-190 -121 -190 -313zM375 1030q0 -168 252 -321q153 89 153 284q0 104 -52 178t-153 74q-94 0 -147 -59.5t-53 -155.5z" />
<glyph unicode="9" horiz-adv-x="1058" d="M-63 -319q317 68 535 235.5t327 421.5h-25q-74 -100 -172 -157.5t-186 -57.5q-133 0 -225.5 95t-92.5 271q0 203 145.5 349.5t325.5 146.5q176 0 289 -137t113 -344q0 -225 -151.5 -425t-383 -319.5t-481.5 -142.5zM270 510q0 -125 64.5 -211t148.5 -86q180 0 293 215 q23 98 23 139q0 147 -61.5 246.5t-174.5 99.5q-121 0 -207 -118.5t-86 -284.5z" />
<glyph unicode=":" horiz-adv-x="475" d="M55 106.5q0 55.5 40 94.5t99.5 39t97.5 -39t38 -94.5t-39 -96.5t-96 -41q-59 0 -99.5 41t-40.5 96.5zM139 733q0 55 40 94t99.5 39t97.5 -39t38 -94t-39 -96t-96 -41q-59 0 -99.5 41t-40.5 96z" />
<glyph unicode=";" horiz-adv-x="475" d="M-61 -305q84 45 147.5 115.5t63.5 144.5q0 31 -14.5 60.5t-35 49t-41 34t-34.5 22.5l-15 8q0 47 43 79t99 32q72 0 127 -56.5t55 -136.5q0 -199 -346 -391zM141 733q0 55 40 94t99.5 39t97.5 -39t38 -94t-39 -96t-96 -41q-59 0 -99.5 41t-40.5 96z" />
<glyph unicode="&#x3c;" horiz-adv-x="983" d="M57 455v53l824 387l26 -100l-663 -310v-6l663 -311l-26 -100z" />
<glyph unicode="=" horiz-adv-x="983" d="M84 248l6 108h803l6 -108h-815zM84 713h815l-6 -109h-803z" />
<glyph unicode="&#x3e;" horiz-adv-x="983" d="M76 168l663 311v6l-663 310l26 100l824 -387v-53l-824 -387z" />
<glyph unicode="?" horiz-adv-x="763" d="M133 92q0 49 36 84t89 35t87 -35t34 -84q0 -51 -34 -87t-87 -36t-89 37t-36 86zM182 592q0 55 21.5 98t64.5 70.5t80 43t96 34.5q143 45 177 77q25 23 24 56q0 68 -97 120t-233 52q-47 0 -104 -8q-14 20 -14 51q0 53 42 87t119 34q156 0 267.5 -103.5t111.5 -232.5 q0 -70 -20.5 -120t-61.5 -82t-77.5 -48t-92.5 -35q-129 -43 -161 -74q-37 -35 -37 -88q0 -68 67 -151l-61 4q-111 117 -111 215z" />
<glyph unicode="@" horiz-adv-x="1708" d="M121 555q20 322 261 542t562 210q326 -10 536 -217t189 -515q-16 -231 -150.5 -364t-304.5 -133q-86 0 -137 19.5t-65.5 53t-14 61t10.5 60.5l55 234h-29q-211 -401 -348 -402q-82 0 -146.5 62.5t-64.5 128.5q0 121 71.5 294t162.5 263q106 106 221 106q66 0 118 -38.5 t72 -110.5h23l45 121h108l-118 -334l-37 -334q-20 -106 106 -106q131 0 224.5 116.5t107.5 307.5q20 272 -165 454.5t-474 192.5q-283 8 -497 -190.5t-232 -483.5q-20 -315 171 -522t476 -207q117 0 252 39l23 -74q-141 -47 -279 -47q-322 0 -539 230.5t-194 582.5zM637 326 q0 -53 35 -83t69 -30q37 0 124 126t175 284q33 59 33 100q-20 43 -80.5 89t-122.5 46q-49 0 -73 -24q-53 -53 -106.5 -224.5t-53.5 -283.5z" />
<glyph unicode="A" horiz-adv-x="1210" d="M-47 0l6 72l76 24q47 14 71.5 41t55.5 92l424 961v67l207 52l200 -1147q6 -31 19.5 -46.5t48.5 -21.5l106 -22l7 -72h-539l6 72l107 18q39 7 39 53q0 9 -1 19l-45 299h-376l-68 -174q-33 -85 -33 -129v-10q4 -44 47 -54l92 -22l7 -72h-457zM399 547h328l-84 561h-10z" />
<glyph unicode="B" horiz-adv-x="1181" d="M23 0l6 72l112 22q47 8 54 49l133 994q1 4 1 8q0 32 -42 41l-105 22l-6 72h504q227 0 331.5 -83t104.5 -214q0 -119 -90 -203t-223 -121l10 -10q133 -27 210 -105t77 -182q0 -131 -99 -229q-133 -133 -417 -133h-561zM387 111l139 -31h72q121 0 202 74.5t81 187.5 q0 123 -86 199.5t-215 76.5h-125zM465 696h129q137 0 227 66.5t90 183.5q0 123 -87 188.5t-232 65.5h-57z" />
<glyph unicode="C" horiz-adv-x="1265" d="M102 543q0 154 59.5 298t166.5 251q217 217 506 217q160 0 286 -41l148 30l-58 -419h-92l-24 270q-119 74 -265 74q-209 0 -363.5 -194.5t-154.5 -500.5q0 -244 138 -381q92 -92 245 -92q125 0 240 62l123 278h106l-96 -395l-104 18q-147 -49 -277 -49 q-285 0 -434.5 153.5t-149.5 420.5z" />
<glyph unicode="D" horiz-adv-x="1349" d="M23 0l6 72l112 22q47 8 54 49l133 994q1 4 1 8q0 32 -42 41l-105 22l-6 72h510q281 0 444.5 -152.5t163.5 -402.5q0 -299 -202 -500q-100 -102 -261 -163.5t-356 -61.5h-452zM387 111l141 -31q246 8 399.5 182t153.5 473q0 213 -111.5 339t-326.5 126h-111z" />
<glyph unicode="E" horiz-adv-x="1183" d="M23 0l6 72l112 22q47 8 54 49l135 994q1 4 1 8q0 32 -42 41l-105 22l-6 72h1004l-52 -381h-100l-22 199q-2 27 -6.5 41t-21.5 27.5t-38.5 18.5t-73 9t-110 5t-162.5 1h-61l-70 -510h43q123 0 157.5 7.5t51.5 37.5l65 137h80l-104 -440h-78l10 131q2 20 -10 29.5t-55 14.5 t-131 5h-39l-72 -532h49q215 0 301 7t121 26.5t55 68.5l80 189h111l-88 -371h-989z" />
<glyph unicode="F" horiz-adv-x="1153" d="M23 0l6 72l112 22q47 8 54 49l135 994q1 4 1 8q0 32 -42 41l-105 22l-6 72h983l-51 -381h-100l-23 199q-8 61 -41 78q-47 24 -311 24h-21h-41h-38l-70 -522h65q121 0 157 7t50 38l68 137h78l-105 -440h-76l11 131q2 20 -11.5 29.5t-56.5 14.5t-131 5h-61l-62 -457 q-1 -4 -1 -8q0 -32 42 -41l107 -22l6 -72h-522z" />
<glyph unicode="G" horiz-adv-x="1357" d="M102 543q0 154 59.5 298t166.5 251q217 217 506 217q160 0 286 -41l148 30l-58 -419h-92l-24 270q-119 74 -265 74q-209 0 -363.5 -194.5t-154.5 -500.5q0 -244 138 -381q92 -92 245 -92q106 0 205 43l47 326q4 25 -5 35t-38 14l-112 23l-7 71h514l-6 -71l-98 -23 q-49 -12 -55 -49l-45 -295l118 -23l5 -57q-303 -80 -539 -80q-283 0 -429.5 156t-146.5 418z" />
<glyph unicode="H" horiz-adv-x="1476" d="M27 0l6 72l112 22q47 8 54 49l133 994q1 4 1 8q0 32 -42 41l-103 22l-6 72h518l-6 -72l-112 -22q-47 -8 -54 -49l-57 -439h588l59 439q4 23 -5 33t-36 16l-104 22l-6 72h520l-8 -72l-111 -22q-47 -8 -53 -49l-135 -994q-1 -4 -1 -8q0 -32 42 -41l104 -22l6 -72h-520l6 72 l113 22q47 8 53 49l64 469h-590l-62 -469q-1 -4 -1 -8q0 -32 42 -41l105 -22l6 -72h-520z" />
<glyph unicode="I" horiz-adv-x="735" d="M29 0l6 72l133 22q47 8 53 49l135 994q1 5 1 9q0 33 -42 40l-125 22l-6 72h559l-6 -72l-133 -22q-47 -10 -53 -49l-133 -994q-1 -5 -1 -9q0 -33 42 -40l125 -22l6 -72h-561z" />
<glyph unicode="J" horiz-adv-x="833" d="M-43 106q0 41 28.5 68t75.5 27q129 0 150 -164h2q78 16 121 103t76 345l88 652q1 5 1 9q0 33 -42 40l-146 22l-6 72h580l-6 -72l-131 -22q-47 -8 -54 -49l-82 -625q-72 -543 -430 -543q-98 0 -161.5 37t-63.5 100z" />
<glyph unicode="K" horiz-adv-x="1306" d="M23 0l6 72l112 22q47 8 54 49l135 994q1 4 1 8q0 32 -42 41l-105 22l-6 72h520l-8 -72l-110 -22q-47 -8 -54 -49l-69 -514l374 333q18 16 42 39t38.5 36t30.5 29.5t26.5 28t18.5 22.5t12.5 19.5t4.5 16.5q0 33 -60 49l-55 14l-6 72h508l-7 -70l-32 -4 q-63 -10 -120.5 -42.5t-141.5 -102.5l-367 -326l336 -565q29 -51 48 -64.5t60 -21.5l60 -14l6 -72h-465l6 72l72 22q29 8 4 49l-268 484l-144 -121l-47 -363q-1 -4 -1 -8q0 -32 42 -41l105 -22l6 -72h-520z" />
<glyph unicode="L" horiz-adv-x="1142" d="M23 0l6 72l112 22q47 8 54 49l131 994q1 5 1 9q0 33 -42 40l-107 22l-6 72h539l-6 -72l-130 -22q-47 -8 -53 -49l-139 -1057h59q182 0 260 7t111 26.5t53 68.5l95 228h106l-98 -410h-946z" />
<glyph unicode="M" horiz-adv-x="1632" d="M-18 0l6 72l118 24q25 4 39.5 23.5t38 107.5t52.5 271l106 645q1 5 1 9q0 30 -36 36l-123 20l-6 72h438l146 -1001h10l481 1001h418l-6 -72l-131 -22q-49 -8 -53 -49l-66 -648q-18 -163 -20 -249v-29q0 -62 7 -84q9 -27 32 -31l110 -24l6 -72h-546l6 72l118 24 q33 6 50.5 81t42.5 312l65 639h-10l-524 -1087h-146l-164 1108h-10l-106 -651q-25 -147 -35 -220t-11 -117t5 -52.5t22 -12.5l113 -24l6 -72h-444z" />
<glyph unicode="N" horiz-adv-x="1466" d="M20 0l7 72l98 16q61 10 86 77.5t59 332.5l68 503q4 39 4 69q0 38 -7 60q-13 39 -61 54l-92 24l-6 72h379l532 -989h11l67 491q34 245 34 329q0 23 -3 34q-8 37 -51 45q-4 2 -10 2l-99 16l-6 72h479l-6 -72l-98 -16q-43 -8 -63.5 -32.5t-40 -107.5t-44.5 -270l-108 -800 h-111l-592 1095h-10l-76 -579q-30 -229 -30 -318q0 -33 4 -47q12 -37 61 -45l97 -16l6 -72h-478z" />
<glyph unicode="O" horiz-adv-x="1423" d="M102 565q0 301 179 512q195 231 503 232q260 0 422 -168t162 -428q0 -330 -211 -545q-188 -199 -471 -199q-260 0 -422 168t-162 428zM311 539q0 -252 123 -375q104 -104 273 -105q113 0 203.5 69t143 174.5t79 220t26.5 220.5q0 252 -123 375q-104 104 -272 105 q-113 0 -204 -69t-143 -174.5t-79 -220t-27 -220.5z" />
<glyph unicode="P" horiz-adv-x="1150" d="M23 0l6 72l112 22q47 8 54 49l135 994q1 4 1 8q0 32 -42 41l-105 22l-6 72h500q209 0 334 -97t125 -255q0 -190 -156 -298t-373 -108q-72 0 -164 15l-53 -394q-1 -5 -1 -9q0 -34 42 -40l148 -22l6 -72h-563zM457 618q78 -20 145 -20q147 0 237.5 89t90.5 245 q0 121 -81 195.5t-210 74.5h-102z" />
<glyph unicode="Q" horiz-adv-x="1429" d="M102 565q0 301 179 512q195 231 503 232q260 0 422 -168t162 -428q0 -330 -211 -545q-168 -178 -420 -197q80 -154 213 -216q118 -55 295 -55q23 0 47 1v-68q-90 -24 -226 -24h-11q-231 0 -348 81t-222 310q-176 59 -279.5 209.5t-103.5 355.5zM311 539q0 -252 123 -375 q104 -104 273 -105q113 0 203.5 69t143 174.5t79 220t26.5 220.5q0 252 -123 375q-104 104 -272 105q-113 0 -204 -69t-143 -174.5t-79 -220t-27 -220.5z" />
<glyph unicode="R" horiz-adv-x="1241" d="M25 0l6 72l110 22q47 8 54 49l131 994q1 4 1 8q0 32 -42 41l-105 22l-6 72h543q205 0 315.5 -85t110.5 -218q0 -147 -97.5 -245.5t-265.5 -141.5l213 -385q25 -49 50.5 -77t34.5 -32t32 -10l57 -14l7 -72h-304l-278 565l-141 6l-60 -428q-1 -5 -1 -9q0 -33 42 -40 l123 -22l6 -72h-536zM463 666l145 -29q145 16 231.5 93t86.5 210q0 121 -78 190.5t-217 69.5h-101z" />
<glyph unicode="S" horiz-adv-x="1028" d="M39 29l24 366h84l58 -280q104 -55 254 -56q127 0 196.5 60.5t71.5 161.5v6q1 91 -63 155q-66 66 -207 152q-156 94 -222.5 172t-66.5 209q0 141 130 237.5t296 96.5q131 0 287 -33l106 24l-53 -393h-90l-27 254q-121 55 -256 56q-84 0 -150.5 -47.5t-66.5 -122.5v-6 q0 -96 62 -161q64 -67 210 -153q139 -82 215 -166t76 -211q0 -168 -139 -274.5t-346 -106.5q-201 0 -383 60z" />
<glyph unicode="T" horiz-adv-x="1269" d="M98 879l86 401h1114l-53 -401h-94l-25 198q-6 49 -23.5 71.5t-79.5 36t-196 15.5h-4l-139 -1057q-1 -5 -1 -9q0 -33 42 -40l141 -22l6 -72h-598l9 72l151 22q45 6 53 49l138 1057h-2q-190 0 -245.5 -16.5t-88.5 -85.5l-84 -219h-107z" />
<glyph unicode="U" horiz-adv-x="1462" d="M168 1280h520l-6 -72l-113 -22q-47 -8 -53 -49l-86 -625q-10 -76 -10 -115q0 -162 90 -238.5t244 -76.5q315 0 366 348l47 352q34 240 34 328q0 27 -3 39q-14 35 -63 43l-97 16l-6 72h477l-6 -72l-98 -16q-41 -8 -61.5 -33.5t-40 -106.5t-46.5 -270l-51 -374 q-33 -219 -172 -329t-354 -110q-205 0 -333 98.5t-128 290.5q0 55 8 121l92 658q1 4 1 9q0 32 -41 40l-105 22z" />
<glyph unicode="V" horiz-adv-x="1208" d="M68 1280h538l-6 -72l-106 -18q-41 -8 -41 -50q0 -10 2 -22l157 -925h11l389 890q12 25 12 45q0 43 -57 58l-88 22l-7 72h457l-6 -72l-80 -24q-45 -14 -71.5 -41t-55.5 -92l-485 -1051h-170l-213 1118q-4 31 -17.5 45.5t-50.5 22.5l-106 22z" />
<glyph unicode="W" horiz-adv-x="1773" d="M68 1280h538l-6 -72l-106 -18q-40 -7 -40 -55q0 -8 1 -17l116 -938l9 -2l346 801l-23 139q-4 31 -18.5 45.5t-50.5 22.5l-107 22l-6 72h536l-6 -72l-106 -18q-43 -8 -43 -51q0 -10 2 -21l141 -934l10 -2l326 901q14 29 2 61t-51 42l-88 22l-6 72h456l-6 -72l-80 -24 q-92 -29 -131 -133l-397 -1051h-188l-125 813h-11l-358 -813h-184l-166 1118q-4 31 -17.5 45.5t-50.5 22.5l-106 22z" />
<glyph unicode="X" horiz-adv-x="1288" d="M-33 0l6 72l58 14q115 29 209 143l344 414l-228 408q-37 68 -60.5 94t-66.5 39l-79 24l-5 72h529l-8 -72l-84 -12q-54 -8 -54 -48q0 -36 41 -108l140 -278h10l256 321q26 32 26 55q0 37 -65 52l-78 18l-6 72h485l-6 -72l-57 -14q-115 -29 -209 -143l-303 -365l254 -457 q37 -68 60.5 -94t66.5 -39l80 -24l4 -72h-529l9 72l84 12q53 8 53 47q0 36 -41 109l-168 327h-8l-297 -370q-26 -32 -26 -55q0 -37 65 -52l77 -18l7 -72h-486z" />
<glyph unicode="Y" horiz-adv-x="1214" d="M70 1280h528l-8 -72l-84 -12q-33 -4 -44 -23.5t-3 -52.5t35 -88l180 -395h10l293 446q20 32 20 55q0 39 -59 52l-90 18l-6 72h485l-6 -72l-57 -14q-63 -16 -106.5 -45t-90.5 -98l-340 -502l-53 -406q-1 -5 -1 -9q0 -33 42 -40l141 -22l6 -72h-598l8 72l152 22q45 6 53 49 l53 406l-245 502q-33 63 -59.5 90.5t-71.5 42.5l-80 24z" />
<glyph unicode="Z" horiz-adv-x="1153" d="M6 0l10 74l940 1116v10h-223q-168 0 -247.5 -15.5t-105.5 -39t-58 -88.5l-64 -170h-90l51 393h979l-10 -76l-942 -1116v-10l215 2q180 2 265 14t115.5 35t57.5 76l72 180h104l-94 -385h-975z" />
<glyph unicode="[" horiz-adv-x="753" d="M193 -455v1788h520v-90h-416v-1608h416v-90h-520z" />
<glyph unicode="\" horiz-adv-x="571" d="M16 1362h99l440 -1796h-98z" />
<glyph unicode="]" horiz-adv-x="753" d="M41 -365h416v1608h-416v90h520v-1788h-520v90z" />
<glyph unicode="^" horiz-adv-x="819" d="M186 1044l220 383h188l113 -383h-45l-175 263h-4l-252 -263h-45z" />
<glyph unicode="_" horiz-adv-x="962" d="M-80 -109l6 109h987l7 -109h-1000z" />
<glyph unicode="`" horiz-adv-x="819" d="M223 1427h205l135 -383h-45z" />
<glyph unicode="a" d="M41 223q0 160 66.5 325t162.5 261q143 143 277 143q94 0 141 -143h12l41 141h146l-103 -346l-108 -495l59 -21l162 123l35 -37q-39 -76 -120 -140.5t-142 -64.5q-39 0 -96.5 21.5t-57.5 44.5q0 31 111 379h-17q-127 -242 -207.5 -343.5t-166.5 -101.5q-82 0 -138.5 67.5 t-56.5 186.5zM203 264q0 -155 103 -155h1q51 0 118 88t214 346l33 143q-39 61 -103.5 114.5t-126.5 53.5q-33 0 -67 -35q-51 -51 -111.5 -236.5t-60.5 -318.5z" />
<glyph unicode="b" horiz-adv-x="917" d="M80 94l207 1080q6 39 -13 47l-129 57l9 51l342 98l-113 -477l-107 -444h17q127 242 208 343t167 101q78 0 131 -85t53 -210q0 -164 -51 -307t-146 -237q-145 -145 -309 -146q-72 0 -172 52.5t-94 76.5zM219 176q57 -55 126 -94t116 -39q29 0 63 35q63 63 114.5 229 t51.5 307q0 86 -23.5 141.5t-70.5 55.5q-51 0 -117.5 -88t-214.5 -346z" />
<glyph unicode="c" horiz-adv-x="784" d="M61 289q0 154 66 305t181.5 253.5t246.5 102.5q96 0 161.5 -51t65.5 -121q0 -47 -29.5 -81.5t-70.5 -34.5q-88 0 -88 81q0 37 16 62q-10 14 -67.5 33.5t-102.5 19.5q-16 0 -49 -33q-57 -57 -112.5 -216.5t-55.5 -297.5q0 -100 51.5 -159.5t126.5 -59.5q74 0 244 121 l27 -37q-90 -106 -164 -156.5t-168 -50.5q-121 0 -200 92.5t-79 227.5z" />
<glyph unicode="d" d="M41 223q0 160 66.5 325t162.5 261q143 143 277 143q94 0 141 -143h12l70 365q6 39 -12 47l-129 57l8 51l342 98l-201 -845l-102 -473l59 -21l162 123l35 -37q-39 -76 -120 -140.5t-142 -64.5q-39 0 -96.5 21.5t-57.5 44.5q0 31 111 379h-17q-127 -242 -207.5 -343.5 t-166.5 -101.5q-82 0 -138.5 67.5t-56.5 186.5zM203 264q0 -155 103 -155h1q51 0 118 88t214 346l33 143q-39 61 -103.5 114.5t-126.5 53.5q-33 0 -67 -35q-51 -51 -111.5 -236.5t-60.5 -318.5z" />
<glyph unicode="e" horiz-adv-x="774" d="M61 289q0 244 147.5 452.5t334.5 208.5q98 0 158.5 -55t60.5 -137q0 -90 -85 -151.5t-360 -198.5l-94 -48v-49q0 -100 51.5 -159.5t126.5 -59.5q74 0 244 121l27 -37q-90 -106 -164 -156.5t-168 -50.5q-121 0 -200 92.5t-79 227.5zM225 420h4q236 123 311.5 191.5 t75.5 148.5q0 35 -61 61.5t-102 26.5q-47 0 -72 -25q-39 -39 -84 -148.5t-72 -254.5z" />
<glyph unicode="f" horiz-adv-x="550" d="M-334 -375q0 49 29 81t74 32q53 0 84.5 -41t37.5 -103l113 48q37 86 92 387l142 782l-187 8l6 60l199 47q45 248 164 366q115 115 272 115q88 0 142.5 -44t54.5 -103q0 -47 -29 -80t-72 -33q-51 0 -84.5 40t-46.5 105l-165 -28q-61 -143 -89 -346h234l8 -99h-260 l-111 -586q-94 -510 -215 -639q-92 -98 -233 -98q-68 0 -114 36t-46 93z" />
<glyph unicode="g" horiz-adv-x="888" d="M-127 -258q0 84 86 148.5t195 103.5v10q-102 55 -103 137q0 61 53.5 109.5t143.5 75.5v10q-61 41 -97 110.5t-36 145.5q0 160 120.5 259t282.5 99q96 0 242 -39h203l-41 -151l-224 49v-21q78 -96 78 -192q0 -131 -109.5 -224t-230.5 -93q-66 0 -133 24q-45 -8 -74.5 -41 t-29.5 -61q0 -37 33.5 -59.5t134.5 -59.5l84 -31q76 -27 119.5 -46t96 -52t77 -76t24.5 -96q0 -111 -140.5 -199t-381.5 -88q-158 0 -265.5 65.5t-107.5 182.5zM16 -229q0 -80 98.5 -137.5t241.5 -57.5q111 0 195 44t84 116q0 49 -59.5 86t-174.5 78q-158 53 -194 71 q-190 -94 -191 -200zM266 537q6 -119 51 -164q33 -33 72 -33q76 0 148 72q47 49 72.5 129.5t25.5 160.5q0 59 -53.5 110.5t-114.5 51.5q-57 0 -92 -35q-51 -51 -82 -132q-27 -72 -27 -142v-18z" />
<glyph unicode="h" horiz-adv-x="1011" d="M35 0l74 301l172 873q6 39 -13 47l-129 57l8 51l342 98l-114 -479l-133 -573h18q193 412 283 502q73 73 157 73h2q53 0 98.5 -42t45.5 -99q0 -98 -84 -377q-68 -233 -96 -326l57 -18l162 123l35 -37q-39 -76 -120 -140.5t-143 -64.5q-37 0 -93 21.5t-56 44.5 q0 45 104 381q80 258 80 299q0 33 -28.5 60.5t-65.5 27.5q-88 0 -340 -527l-55 -286z" />
<glyph unicode="i" horiz-adv-x="518" d="M27 696q41 90 117.5 172t136.5 82q23 0 61.5 -9t69 -25.5t26.5 -30.5l-211 -776l60 -21l162 123l34 -37q-39 -76 -119.5 -140.5t-142.5 -64.5q-37 0 -94 23.5t-53 42.5l202 778l-59 10l-156 -164zM334 1231q0 59 33.5 101t76.5 42q51 0 80 -31.5t29 -78.5 q0 -59 -33 -101.5t-78 -42.5q-51 0 -79.5 32t-28.5 79z" />
<glyph unicode="j" horiz-adv-x="516" d="M-283 -416q0 45 33 74t76 29q86 0 133 -113l29 6q49 106 139 531l149 702l-59 10l-156 -164l-34 37q41 90 117.5 172t136.5 82q23 0 61.5 -9t69 -25.5t26.5 -30.5l-153 -676q-61 -266 -116.5 -426t-135.5 -240t-174 -80q-55 0 -98.5 34t-43.5 87zM334 1231q0 59 33.5 101 t76.5 42q51 0 80 -31.5t29 -78.5q0 -59 -33 -101.5t-78 -42.5q-51 0 -79.5 32t-28.5 79z" />
<glyph unicode="k" horiz-adv-x="897" d="M35 0l74 301l172 873q6 39 -13 47l-129 57l8 51l342 98l-114 -479l-101 -436h15l411 217v19q-90 12 -90 96q0 45 37 79.5t84 34.5q51 0 87 -36.5t36 -81.5q0 -27 -3 -48.5t-13.5 -41t-18.5 -34t-30.5 -30.5t-37 -25.5t-50 -27t-56 -26.5t-70 -31.5t-77.5 -34.5l-23 -11 l150 -419h45l141 133l35 -37q-39 -86 -117 -161t-139 -75q-18 0 -55 20.5t-41 31.5l-144 458l-74 -32l-73 -459z" />
<glyph unicode="l" horiz-adv-x="512" d="M51 35l225 1139q6 39 -12 47l-129 57l8 51l338 98l-274 -1318l59 -21l162 123l35 -37q-39 -76 -120 -140.5t-142 -64.5q-20 0 -57.5 11.5t-66 27t-26.5 27.5z" />
<glyph unicode="m" horiz-adv-x="1509" d="M27 696q41 90 117.5 172t136.5 82q39 0 96 -21.5t57 -43.5q0 -41 -127 -510h19q193 412 282 502q73 73 158 73h2q51 0 84 -42t33 -107q0 -57 -107 -426h19q193 412 282 502q73 73 158 73h2q53 0 98 -42t45 -99q0 -98 -84 -377q-68 -233 -98 -323l60 -21l161 123l35 -37 q-39 -76 -120 -140.5t-142 -64.5q-37 0 -93.5 21.5t-56.5 44.5q0 45 105 381q80 258 80 299q0 33 -29 60.5t-65 27.5q-88 0 -340 -527l-68 -286l-168 10l119 416q6 25 31.5 106.5t37 124.5t11.5 68q0 33 -29 60.5t-65 27.5q-88 0 -340 -527l-56 -286l-168 10l72 301l104 512 l-59 10l-156 -164z" />
<glyph unicode="n" horiz-adv-x="1038" d="M27 696q41 90 116.5 172t135.5 82q39 0 97 -21.5t58 -43.5q0 -41 -127 -510h19q193 412 282 502q73 73 158 73h2q53 0 98 -42t45 -99q0 -98 -84 -377q-12 -43 -34.5 -116.5t-38 -126t-25.5 -80.5l59 -21l162 123l35 -37q-39 -76 -120 -140.5t-142 -64.5q-37 0 -93.5 21.5 t-56.5 44.5q0 45 105 381q80 258 80 299q0 33 -29 60.5t-65 27.5q-88 0 -340 -527l-56 -286l-168 10l72 301l104 502l-57 10l-160 -154z" />
<glyph unicode="o" horiz-adv-x="901" d="M66 371q0 213 136 396t318 183q154 0 232.5 -109.5t78.5 -291.5q0 -213 -136 -396.5t-318 -183.5q-154 0 -232.5 109.5t-78.5 292.5zM223 313q0 -109 40 -192.5t114 -83.5q68 0 129 73.5t93 150.5t48 149q25 117 25 215q0 106 -39 182t-113 76q-63 0 -124.5 -71 t-94.5 -145.5t-51 -142.5q-27 -106 -27 -211z" />
<glyph unicode="p" horiz-adv-x="974" d="M-160 -504l4 72l115 22q45 8 55 50l265 1169l-62 14l-156 -164l-34 37q41 90 117.5 172t136.5 82q39 0 100 -21.5t61 -43.5q0 -31 -110 -379h16q127 242 208 343t167 101q78 0 131 -85t53 -210q0 -160 -61.5 -308t-157.5 -245q-135 -135 -276 -135q-94 0 -160 80h-2 l-80 -407q-1 -5 -1 -9q0 -33 40 -41l137 -22l8 -72h-514zM279 197q135 -154 213 -154q29 0 63 35q66 66 128 233.5t62 302.5q0 86 -23.5 141.5t-70.5 55.5q-51 0 -117.5 -88t-214.5 -346z" />
<glyph unicode="q" horiz-adv-x="907" d="M41 223q0 160 66.5 325t162.5 261q143 143 277 143q94 0 141 -143h12l41 141h146l-103 -346l-204 -964q-2 -7 -2 -13q0 -30 40 -37l117 -22l6 -72h-501l6 72l114 22q45 8 56 50l116 469l95 305h-17q-127 -242 -207.5 -343.5t-166.5 -101.5q-82 0 -138.5 67.5t-56.5 186.5 zM203 264q0 -155 103 -155h1q51 0 118 88t214 346l33 143q-39 61 -103.5 114.5t-126.5 53.5q-33 0 -67 -35q-51 -51 -111.5 -236.5t-60.5 -318.5z" />
<glyph unicode="r" horiz-adv-x="804" d="M27 696q41 90 117.5 172t136.5 82q39 0 96 -21.5t57 -43.5q0 -35 -51 -229.5t-80 -280.5h31q147 406 266 524q51 51 129 51q53 0 88 -34.5t35 -88.5q0 -55 -29.5 -92t-72.5 -37q-49 0 -74 32q-19 24 -19 62q0 12 2 25q-2 2 -5 4t-10 6t-9 0q-96 -82 -311 -561l-56 -276 l-168 10l72 301l104 512l-59 10l-156 -164z" />
<glyph unicode="s" horiz-adv-x="710" d="M16.5 198.5q28.5 28.5 73.5 28.5q35 0 55.5 -24.5t20.5 -59.5q0 -20 -14 -45q115 -47 188 -51q31 14 67.5 59.5t41.5 77.5v5q0 33 -26 75q-28 45 -48.5 66.5t-77.5 77.5q-175 169 -175 280q0 6 1 12q12 117 112.5 183.5t206.5 66.5h3q251 0 251 -153q0 -45 -27.5 -74 t-72.5 -29q-35 0 -55.5 24.5t-20.5 59.5q0 20 12 45q-92 43 -167 47q-29 -10 -64 -53t-37 -78q-2 -16 1 -32.5t13.5 -35t17.5 -30.5t26.5 -33.5t27.5 -31t33 -33.5l31 -31l20 -20l25 -25q4 -4 21.5 -23.5t24.5 -30t22.5 -29.5t21.5 -31.5t16 -31t14.5 -34t7.5 -32.5t1 -34 q-10 -115 -113.5 -183.5t-208.5 -68.5q-278 0 -278 157q0 44 28.5 72.5z" />
<glyph unicode="t" horiz-adv-x="620" d="M76 819l6 62q12 4 30.5 11t58.5 23.5t67 26.5l26 8l47 250h154l-57 -282h258l6 -99h-283l-151 -710l59 -21l162 123l35 -37q-39 -76 -120 -140.5t-143 -64.5q-39 0 -96 17.5t-53 36.5l160 786z" />
<glyph unicode="u" horiz-adv-x="1038" d="M57 696q41 90 118 172t136 82q37 0 95.5 -21.5t58.5 -43.5q0 -45 -105 -381q-79 -255 -79 -298q0 -34 28.5 -61.5t65.5 -27.5q88 0 340 526l55 287l168 -10l-72 -302q-84 -444 -106 -509l59 -21l162 123l35 -37q-39 -76 -120 -140.5t-142 -64.5q-37 0 -93.5 21.5 t-56.5 44.5q0 41 127 510h-18q-193 -412 -283 -502q-74 -74 -160 -74q-53 0 -98 42t-45 100q0 98 84 376q16 53 50 170t46 156l-59 10l-156 -164z" />
<glyph unicode="v" horiz-adv-x="884" d="M-8 696q41 90 117.5 172t136.5 82q39 0 98 -21.5t59 -43.5l-18 -776h16l246 393q78 119 78 196q0 41 -34 71t-91 42q10 70 49 105.5t92 35.5q59 0 101 -39q40 -37 39 -107v-7q0 -76 -55.5 -175.5t-178.5 -267.5l-237 -348l-174 -39l6 844l-60 10l-155 -164z" />
<glyph unicode="w" horiz-adv-x="1368" d="M-8 696q41 90 117.5 172t136.5 82q39 0 98 -21.5t59 -43.5l-6 -776h11l313 647l-2 194l67 -16l82 -16l23 -809h10l219 393q78 135 78 196q0 41 -34 71t-91 42q10 70 49 105.5t92 35.5q58 0 100 -39q40 -37 40 -107v-7q0 -18 -3 -37t-11.5 -41.5t-15.5 -39.5t-23.5 -46 t-25.5 -46.5t-33.5 -53t-36 -53t-42 -61.5t-43.5 -65l-221 -348l-174 -39v633h-6l-303 -594l-174 -39v844l-60 10l-155 -164z" />
<glyph unicode="x" d="M12 187q28 36 72 36q50 1 74 -31q20 -25 19 -67q0 -10 -1 -21l57 -10l195 348l-152 381h-47l-106 -143l-31 37q115 235 210 235h1q18 0 66.5 -20.5t52.5 -30.5l106 -352h4q111 250 171.5 325.5t127.5 75.5q70 0 119 -35q47 -34 47 -84v-4q-2 -57 -31.5 -93t-72.5 -36 q-49 0 -73 32q-19 25 -18 66q0 10 1 21l-60 8l-190 -336l156 -389h45l108 144l31 -37q-121 -236 -213 -236q-18 0 -66.5 20.5t-50.5 31.5l-108 352h-11q-94 -195 -144 -277t-78.5 -104.5t-76.5 -22.5q-69 0 -117 35q-46 34 -46 84q-1 58 30 97z" />
<glyph unicode="y" horiz-adv-x="878" d="M-221 -387q0 47 34.5 80t73.5 33q51 0 91 -40q38 -38 38 -91v-5l35 4l277 392l-101 26l15 801l-60 10l-155 -164l-35 37q41 90 117.5 172t136.5 82q39 0 98 -21.5t59 -43.5l-24 -776h22l347 577v21q-106 41 -107 120q0 53 32 90t81 37q63 0 99 -37.5t36 -103.5 q0 -51 -43 -137t-76 -136.5t-100 -148.5l-207 -295l-121 -229q-104 -197 -200.5 -294t-202.5 -97q-63 0 -111.5 39t-48.5 98z" />
<glyph unicode="z" horiz-adv-x="831" d="M-2 76q0 55 32.5 94t106.5 86l496 424q-55 14 -193.5 98t-148.5 88l-41 -32q41 -55 41 -91q0 -39 -24.5 -62.5t-63.5 -23.5q-47 0 -72 26t-25 62q0 76 72 137.5t193 65.5q47 0 86 -12t63.5 -26.5t48 -43t32.5 -44t25.5 -49.5t18.5 -38h21l51 215q55 0 94 -32.5t39 -73.5 q0 -53 -36 -91t-114 -89l-481 -412q51 -14 195.5 -108.5t165.5 -102.5l43 35q-51 55 -52 98q0 35 27 58.5t70 23.5q41 0 64.5 -24.5t23.5 -63.5q0 -74 -65.5 -136.5t-180.5 -72.5q-125 0 -193.5 64.5t-109.5 173.5h-21l-55 -228q-55 0 -94 33t-39 74z" />
<glyph unicode="{" horiz-adv-x="688" d="M49 440l23 58q268 8 268 157q0 66 -60.5 186t-60.5 212q0 137 104.5 218t294.5 91v-72q-117 -10 -184 -63t-67 -127q0 -66 60 -186.5t60 -213.5q0 -98 -86 -172.5t-176 -76.5v-25q90 -4 176 -78t86 -172q0 -90 -60 -209t-60 -184q0 -74 67.5 -130t183.5 -67v-67 q-188 10 -293.5 91t-105.5 218q0 90 60.5 210t60.5 185q0 145 -268 158z" />
<glyph unicode="|" horiz-adv-x="565" d="M236 -383v1796h94v-1796h-94z" />
<glyph unicode="}" horiz-adv-x="688" d="M49 -414q117 10 184.5 66.5t67.5 130.5q0 66 -60.5 184.5t-60.5 208.5q0 98 86 172t176 78v25q-90 2 -176 76.5t-86 172.5q0 92 60.5 213t60.5 187q0 74 -67.5 127t-184.5 63v72q190 -10 295 -91t105 -218q0 -92 -60.5 -212t-60.5 -186q0 -150 268 -157l22 -58l-22 -59 q-268 -12 -268 -158q0 -66 60.5 -185.5t60.5 -209.5q0 -137 -105.5 -218t-294.5 -91v67z" />
<glyph unicode="~" horiz-adv-x="753" d="M25 375q37 121 92 176t139 55q57 0 113.5 -37t102.5 -74.5t79 -37.5q29 0 55.5 28.5t65.5 104.5h53q-37 -121 -92 -176.5t-139 -55.5q-74 0 -168.5 75t-126.5 75q-29 0 -55.5 -28.5t-65.5 -104.5h-53z" />
<glyph unicode="&#xa1;" horiz-adv-x="581" d="M147 63l193 816q2 12 21.5 11t19.5 -13l-21 -826q-4 -84 -94 -84h-6q-72 0 -97.5 24.5t-15.5 71.5zM270 1186q0 51 34 87t87 36t89 -37t36 -86t-36 -84t-89 -35t-87 35t-34 84z" />
<glyph unicode="&#xa2;" horiz-adv-x="774" d="M61 289q0 240 134.5 446.5t332.5 214.5h2l97 353h75l-98 -361q78 -18 124 -67.5t46 -106.5q0 -47 -32.5 -82t-73.5 -35q-37 0 -70 21.5t-43 48.5l-170 -629q55 -8 254 121l33 -37q-166 -197 -326 -205l-80 -311h-76l82 315q-92 16 -151.5 104.5t-59.5 209.5zM223 311 q0 -168 94 -209l195 725q-35 20 -90 21q-16 0 -39 -23q-53 -53 -106.5 -218t-53.5 -296z" />
<glyph unicode="&#xa3;" horiz-adv-x="976" d="M-53 29q160 39 231.5 119.5t89.5 222.5q10 84 17 157h-222l7 84h221q12 172 18 226q27 209 150 329.5t301 120.5q104 0 167.5 -43t63.5 -110q0 -49 -30.5 -83t-77.5 -34q-59 0 -90 47t-11 115q-39 31 -98 30q-160 4 -197 -305q0 -4 -24 -293h313l6 -84h-327 q-8 -78 -17 -120q-27 -141 -88 -220v-10q25 -6 87.5 -29.5t115.5 -38t94 -14.5q74 0 115 41q29 29 94 139l43 -14q-12 -131 -83 -221t-195 -90q-23 0 -44.5 3t-39 7t-37 13.5t-32.5 16.5t-31.5 20.5t-29 20.5t-28 23.5t-24.5 23.5t-24.5 23.5t-23.5 22.5 q-139 -145 -348 -176z" />
<glyph unicode="&#xa4;" horiz-adv-x="890" d="M76 1032l74 74l118 -119q82 53 178 53q98 0 183 -55l112 113l72 -72l-115 -115q49 -84 50 -176q0 -94 -52 -176l127 -127l-73 -74l-125 125q-82 -53 -178.5 -53t-178.5 51l-114 -114l-72 71l115 115q-53 80 -54 182q0 100 52 178zM240 735q0 -86 56 -148.5t150 -62.5 q92 0 148.5 62.5t56.5 148.5q0 88 -56 149.5t-149 61.5q-94 0 -150 -61.5t-56 -149.5z" />
<glyph unicode="&#xa5;" horiz-adv-x="1253" d="M109 1280h514l-7 -72l-86 -12q-51 -8 -49 -55t60 -162l155 -322h4l265 387q33 49 43 81t-1.5 48.5t-43.5 24.5l-45 10l-7 72h408l-6 -72l-29 -8q-63 -18 -109.5 -49t-97.5 -102l-297 -424h310l8 -84h-363l-22 -166h377l8 -84h-396l-20 -148q-6 -41 41 -49l149 -22l7 -72 h-592l6 72l153 22q45 6 54 49l20 148h-336l4 84h342l23 166h-369l4 84h338l-247 493q-29 55 -99 74l-65 16z" />
<glyph unicode="&#xa6;" horiz-adv-x="565" d="M236 -285v686h94v-686h-94zM236 629v686h94v-686h-94z" />
<glyph unicode="&#xa7;" horiz-adv-x="862" d="M78 653q0 88 61.5 162t143.5 107q-31 61 -31 120q0 100 91 181.5t230 81.5q78 0 154 -41t76 -111q0 -45 -32 -78t-73 -33q-113 0 -125 168q-29 14 -55 15q-66 0 -100.5 -38t-34.5 -87t38 -101.5t65.5 -74t109.5 -82.5q59 -45 85 -66.5t68 -63.5t59 -84t17 -89 q0 -86 -60 -161t-144 -110q33 -57 32 -121q0 -96 -94 -186t-246 -90q-80 0 -155.5 41t-75.5 113q0 47 31.5 77.5t76.5 30.5q106 0 123 -166q35 -18 78 -18q57 0 93 43t36 100q0 49 -37 99.5t-67.5 75t-106.5 81.5q-57 41 -86.5 65.5t-69.5 65.5t-57.5 83t-17.5 91zM207 729 q0 -59 42 -109.5t122 -111.5q12 -10 46 -34.5t51 -39t44 -36t46.5 -43t35.5 -44.5q102 54 102 152q0 100 -157 219l-46 34.5t-52.5 40t-43 36t-48 45t-36.5 43.5q-43 -23 -74.5 -66t-31.5 -86z" />
<glyph unicode="&#xa8;" horiz-adv-x="819" d="M182 1243q0 53 33 91t88 38t88 -38t33 -91t-33 -91t-88 -38t-88 38t-33 91zM592 1243q0 53 32.5 91t88 38t88.5 -38t33 -91t-33 -91t-88.5 -38t-88 38t-32.5 91z" />
<glyph unicode="&#xa9;" horiz-adv-x="1503" d="M82 639q0 279 195.5 475.5t474 196.5t474 -196.5t195.5 -475.5t-195.5 -474.5t-474 -195.5t-474 195.5t-195.5 474.5zM160 639q0 -246 173 -423t418.5 -177t418.5 177t173 423t-173 424t-418.5 178t-418.5 -178t-173 -424zM393 629q0 170 105.5 278.5t271.5 108.5 q86 0 164 -25l94 25v-268h-55l-47 149q-57 45 -166 45q-102 0 -170 -75.5t-68 -198.5q0 -152 73 -243t204 -91q74 0 114 33l70 161h57l-24 -247l-62 12q-82 -31 -176 -31q-182 0 -283.5 102.5t-101.5 264.5z" />
<glyph unicode="&#xaa;" horiz-adv-x="706" d="M117 801q0 100 46 221t113 188q98 98 203 99q68 -1 103 -105h10l24 105h97l-60 -254l-78 -361l39 -10l138 121l18 -27q-41 -66 -107.5 -126t-109.5 -60q-23 0 -52.5 29.5t-29.5 48.5q0 16 11.5 52t38 112.5t48.5 150.5h-10q-102 -205 -173 -299t-126 -94 q-68 0 -105.5 56.5t-37.5 152.5zM233 821q0 -55 24 -87t58 -32q41 0 222 308l24 90q-27 45 -74 84t-92 39q-25 0 -49 -25q-39 -39 -76 -154.5t-37 -222.5z" />
<glyph unicode="&#xab;" horiz-adv-x="1003" d="M57 414v86l496 299l14 -41l-342 -307l264 -287l-26 -41zM446 414v86l498 319l14 -41l-364 -327l280 -308l-24 -41z" />
<glyph unicode="&#xac;" horiz-adv-x="983" d="M72 524l6 109h833v-434h-108v325h-731z" />
<glyph unicode="&#xad;" horiz-adv-x="671" d="M68 426l6 109h528l6 -109h-540z" />
<glyph unicode="&#xae;" horiz-adv-x="1503" d="M82 639q0 279 195.5 475.5t474 196.5t474 -196.5t195.5 -475.5t-195.5 -474.5t-474 -195.5t-474 195.5t-195.5 474.5zM160 639q0 -246 173 -423t418.5 -177t418.5 177t173 423t-173 424t-418.5 178t-418.5 -178t-173 -424zM446 285l5 63l59 12q27 6 27 27v512 q0 23 -27 29l-59 12l-5 64h312q133 0 200.5 -54.5t67.5 -130.5q0 -156 -172 -207l133 -200q37 -49 66 -56l63 -8l4 -63h-202l-44 80l-137 219l-80 4v-201q0 -20 29 -27l68 -12l2 -63h-310zM657 659l78 -10q160 10 160 151.5t-190 133.5l-48 -2v-273z" />
<glyph unicode="&#xaf;" horiz-adv-x="819" d="M217 1108l19 84h503l-6 -84h-516z" />
<glyph unicode="&#xb0;" horiz-adv-x="839" d="M139 950q0 156 109.5 267.5t263.5 111.5q137 0 230.5 -82t93.5 -219q0 -160 -110 -271.5t-267 -111.5q-135 0 -227.5 84t-92.5 221zM238 954q-2 -98 63.5 -160.5t163.5 -64.5q113 -2 189.5 81t78.5 198q2 100 -63.5 163.5t-167.5 65.5q-111 2 -186.5 -83t-77.5 -200z" />
<glyph unicode="&#xb1;" horiz-adv-x="983" d="M63 487l7 109h368v334h109v-334h366l7 -109h-373v-337h-109v337h-375zM66 12l6 109h839l7 -109h-852z" />
<glyph unicode="&#xb2;" horiz-adv-x="675" d="M2 559l2 76l135 100q94 72 132 103.5t93.5 84t76 96.5t20.5 89q0 63 -43 99t-105 36q-102 0 -219 -86l-12 31q147 162 315 162q96 0 163 -55.5t67 -141.5q0 -33 -13.5 -65.5t-30 -60.5t-52 -62.5t-61.5 -57t-78 -60.5t-79.5 -56.5t-90 -59.5t-87.5 -57v-6h90 q174 0 224.5 8t76.5 41l37 51h58l-74 -209h-545z" />
<glyph unicode="&#xb3;" horiz-adv-x="675" d="M8 639q0 29 22.5 51.5t55.5 22.5q51 0 80 -39t27 -84q31 -6 47 -6q84 0 135 58t51 136q0 57 -37 92t-98 35q-43 0 -107 -18l-16 39q14 6 58 27.5t59.5 29.5t50.5 26.5t49 31t32.5 29.5t26 35.5t7.5 39.5q0 47 -38 73.5t-87 26.5q-102 0 -215 -80l-13 35q61 66 147.5 108 t176.5 42q82 0 145.5 -41t63.5 -109q0 -41 -22.5 -77t-48 -57.5t-75 -45t-72 -31.5t-71.5 -24v-4q37 10 78 10q80 0 128 -44t48 -124q0 -117 -120 -196t-261 -79q-74 0 -140.5 28t-66.5 83z" />
<glyph unicode="&#xb4;" horiz-adv-x="819" d="M367 1044l237 383h205l-397 -383h-45z" />
<glyph unicode="&#xb5;" horiz-adv-x="1083" d="M18 918h324l-16 -594q0 -117 46 -165t142 -48q111 0 227 86v606q0 16 -15 24.5t-62 12.5l-80 6l-9 72h334v-773q0 -39 23 -47l137 -41l-6 -51l-322 -37v146h-10q-4 -4 -19.5 -22.5t-21.5 -25t-20.5 -21.5t-22.5 -21.5t-22.5 -17.5t-26.5 -16t-27.5 -11.5t-32 -8.5 t-34.5 -2q-117 0 -174 113q-4 4 -4 6h-11l21 -573l-205 -19l27 766l6 539q0 10 -2 16t-5 9t-11.5 5.5t-15.5 2.5t-24.5 2t-31.5 4l-49 6z" />
<glyph unicode="&#xb6;" horiz-adv-x="1026" d="M143 874q0 209 137.5 307.5t358.5 98.5h319l-176 -1346h-104l78 598q-88 -16 -152 -16q-207 0 -334 101.5t-127 256.5z" />
<glyph unicode="&#xb7;" horiz-adv-x="475" d="M55 467q0 55 40 94t99.5 39t97.5 -39t38 -94t-39 -96t-96 -41q-59 0 -99.5 41t-40.5 96z" />
<glyph unicode="&#xb8;" horiz-adv-x="819" d="M53 -504q344 43 344 191q0 94 -159 94q-61 0 -129 -12l6 41l254 233h90l-176 -160q115 0 181 -44t66 -122q0 -109 -127 -182.5t-340 -87.5z" />
<glyph unicode="&#xb9;" horiz-adv-x="675" d="M66 559l2 57l143 15q33 2 37 28l82 568l-170 22l10 41l332 60l-101 -691q-4 -25 27 -28l113 -15l4 -57h-479z" />
<glyph unicode="&#xba;" horiz-adv-x="657" d="M127 883q0 160 96 293t236 133q113 0 170 -79t57 -214q0 -158 -95 -291t-237 -133q-113 0 -170 79t-57 212zM244 844q0 -80 27.5 -137.5t82.5 -57.5q72 0 124 90t75 183q16 65 16 149q0 76 -27.5 128t-82.5 52q-66 0 -120 -88t-77 -174q-18 -72 -18 -145z" />
<glyph unicode="&#xbb;" horiz-adv-x="1003" d="M2 135l365 328l-281 307l25 41l403 -311v-86l-498 -320zM393 156l342 307l-264 287l27 41l405 -291v-86l-495 -299z" />
<glyph unicode="&#xbc;" horiz-adv-x="1464" d="M41 -238l1292 1518h113l-1292 -1518h-113zM106 559l3 57l143 15q33 2 37 28l82 568l-170 22l10 41l332 60l-101 -691q-4 -25 27 -28l113 -15l4 -57h-480zM756 -14l481 514l92 -17l-72 -485h142l-19 -70h-131l-35 -221h-143l33 221h-346zM838 -2h274l53 336h-12z" />
<glyph unicode="&#xbd;" horiz-adv-x="1464" d="M41 -238l1292 1518h113l-1292 -1518h-113zM106 559l3 57l143 15q33 2 37 28l82 568l-170 22l10 41l332 60l-101 -691q-4 -25 27 -28l113 -15l4 -57h-480zM750 -293l2 76l135 100q94 72 132 103.5t93 84t75.5 96.5t20.5 89q0 63 -43 99t-104 36q-102 0 -219 -86l-13 31 q147 162 316 162q96 0 162.5 -55.5t66.5 -141.5q0 -33 -13 -65.5t-29.5 -60.5t-52.5 -62.5t-61.5 -57t-78 -60.5t-80 -56.5t-90 -59.5t-86.5 -57v-6h90q174 0 224 8t77 41l37 51h57l-74 -209h-544z" />
<glyph unicode="&#xbe;" horiz-adv-x="1464" d="M41 -238l1292 1518h113l-1292 -1518h-113zM49 639q0 29 22.5 51.5t55.5 22.5q51 0 80 -39t26 -84q31 -6 48 -6q84 0 135 58t51 136q0 57 -37 92t-98 35q-41 0 -107 -18l-16 39q14 6 58 27.5t59.5 29.5t50.5 26.5t49 31t32.5 29.5t26 35.5t7.5 39.5q0 47 -38 73.5 t-87 26.5q-102 0 -215 -80l-13 35q61 66 147.5 108t176.5 42q82 0 145.5 -41t63.5 -109q0 -41 -22.5 -77t-48.5 -57.5t-75 -45t-71.5 -31.5t-71.5 -24v-4q37 10 78 10q80 0 128 -44t48 -124q0 -117 -120 -196t-261 -79q-74 0 -140.5 28t-66.5 83zM756 -14l481 514l92 -17 l-72 -485h142l-19 -70h-131l-35 -221h-143l33 221h-346zM838 -2h274l53 336h-12z" />
<glyph unicode="&#xbf;" horiz-adv-x="763" d="M49 319q0 70 20.5 120t61.5 82t78 48.5t92 34.5l61 21q18 6 51 21.5t47.5 29.5t27 37.5t12.5 52.5q0 68 -68 152l62 -5q111 -117 110 -215q0 -55 -21.5 -98t-64.5 -70.5t-80 -43t-96 -33.5q-143 -45 -176 -78q-25 -25 -25 -56q0 -68 97.5 -120t232.5 -52q47 0 104 9 q14 -20 15 -52q0 -53 -42 -86.5t-120 -33.5q-156 0 -267.5 103t-111.5 232zM408 1198q0 51 33.5 87t87 36t89 -37t35.5 -86t-35.5 -84t-89 -35t-87 35t-33.5 84z" />
<glyph unicode="&#xc0;" horiz-adv-x="1210" d="M-47 0l6 72l76 24q47 14 71.5 41t55.5 92l424 961v67l207 52l200 -1147q6 -31 19.5 -46.5t48.5 -21.5l106 -22l7 -72h-539l6 72l107 18q47 8 38 72l-45 299h-376l-68 -174q-37 -94 -33 -138.5t47 -54.5l92 -22l7 -72h-457zM399 547h328l-84 561h-10zM418 1769h205 l135 -383h-45z" />
<glyph unicode="&#xc1;" horiz-adv-x="1210" d="M-47 0l6 72l76 24q47 14 71.5 41t55.5 92l424 961v67l207 52l200 -1147q6 -31 19.5 -46.5t48.5 -21.5l106 -22l7 -72h-539l6 72l107 18q47 8 38 72l-45 299h-376l-68 -174q-37 -94 -33 -138.5t47 -54.5l92 -22l7 -72h-457zM399 547h328l-84 561h-10zM602 1386l238 383 h204l-397 -383h-45z" />
<glyph unicode="&#xc2;" horiz-adv-x="1210" d="M-47 0l6 72l76 24q47 14 71.5 41t55.5 92l424 961v67l207 52l200 -1147q6 -31 19.5 -46.5t48.5 -21.5l106 -22l7 -72h-539l6 72l107 18q47 8 38 72l-45 299h-376l-68 -174q-37 -94 -33 -138.5t47 -54.5l92 -22l7 -72h-457zM399 547h328l-84 561h-10zM440 1386l217 383 h189l115 -383h-46l-176 263h-4l-250 -263h-45z" />
<glyph unicode="&#xc3;" horiz-adv-x="1210" d="M-47 0l6 72l76 24q47 14 71.5 41t55.5 92l424 961v67l207 52l200 -1147q6 -31 19.5 -46.5t48.5 -21.5l106 -22l7 -72h-539l6 72l107 18q47 8 38 72l-45 299h-376l-68 -174q-37 -94 -33 -138.5t47 -54.5l92 -22l7 -72h-457zM391 1423q74 252 234 252q57 0 113.5 -36.5 t101.5 -74.5t78 -38q29 0 55 28.5t67 104.5h54q-76 -252 -236 -252q-74 0 -167 74.5t-126 74.5q-29 0 -55.5 -28.5t-65.5 -104.5h-53zM399 547h328l-84 561h-10z" />
<glyph unicode="&#xc4;" horiz-adv-x="1210" d="M-47 0l6 72l76 24q47 14 71.5 41t55.5 92l424 961v67l207 52l200 -1147q6 -31 19.5 -46.5t48.5 -21.5l106 -22l7 -72h-539l6 72l107 18q47 8 38 72l-45 299h-376l-68 -174q-37 -94 -33 -138.5t47 -54.5l92 -22l7 -72h-457zM377 1585q0 53 32.5 91t88 38t88 -38t32.5 -91 t-32.5 -91t-88 -38t-88 38t-32.5 91zM399 547h328l-84 561h-10zM786 1585q0 53 33 91t88.5 38t88 -38t32.5 -91t-32.5 -91t-88 -38t-88.5 38t-33 91z" />
<glyph unicode="&#xc5;" horiz-adv-x="1210" d="M-47 0l6 72l76 24q47 14 71.5 41t55.5 92l450 1024q-82 53 -77 156q2 78 51 131t131 53t132 -53t50 -131q0 -115 -94 -164l188 -1083q4 -31 17.5 -45.5t50.5 -22.5l106 -22l7 -72h-539l6 72l107 18q47 8 38 72l-45 299h-376l-68 -174q-37 -94 -33 -138.5t47 -54.5l92 -22 l7 -72h-457zM399 547h328l-84 561h-10zM596 1409q0 -53 33 -91t88 -38t88 38t33 91t-33 91t-88 38t-88 -38t-33 -91z" />
<glyph unicode="&#xc6;" horiz-adv-x="1632" d="M-96 0l6 72l76 24q78 23 147 133l559 908q23 37 -33 49l-108 22l-6 72h1095l-51 -381h-100l-23 199q-2 27 -6 41t-21.5 27.5t-39 18.5t-72.5 9t-109.5 5t-162.5 1h-27l-72 -510h11q123 0 157.5 7.5t51.5 37.5l65 137h80l-104 -440h-78l10 131q2 20 -10.5 29.5t-55.5 14.5 t-131 5h-6l-69 -532h14q215 0 301 7t121 26.5t55 68.5l80 189h111l-89 -371h-940l7 72l114 22q47 8 54 49l43 318h-367l-88 -146q-80 -131 -80 -176q0 -35 49 -45l92 -22l6 -72h-456zM434 547h326l90 659h-14z" />
<glyph unicode="&#xc7;" horiz-adv-x="1265" d="M102 543q0 154 59.5 298t166.5 251q217 217 506 217q160 0 286 -41l148 30l-58 -419h-92l-24 270q-119 74 -265 74q-209 0 -363.5 -194.5t-154.5 -500.5q0 -244 138 -381q92 -92 245 -92q125 0 240 62l123 278h106l-96 -395l-104 18q-147 -49 -277 -49h-4l-94 -86 q115 0 181.5 -44t66.5 -122q0 -109 -127 -182.5t-340 -87.5l-11 49q344 43 344 191q0 94 -159 94q-61 0 -129 -12l6 41l178 163q-244 25 -370 175.5t-126 394.5z" />
<glyph unicode="&#xc8;" horiz-adv-x="1183" d="M23 0l6 72l112 22q47 8 54 49l135 994q6 39 -41 49l-105 22l-6 72h1004l-52 -381h-100l-22 199q-2 27 -6.5 41t-21.5 27.5t-38.5 18.5t-73 9t-110 5t-162.5 1h-61l-70 -510h43q123 0 157.5 7.5t51.5 37.5l65 137h80l-104 -440h-78l10 131q2 20 -10 29.5t-55 14.5t-131 5 h-39l-72 -532h49q215 0 301 7t121 26.5t55 68.5l80 189h111l-88 -371h-989zM446 1769h205l135 -383h-45z" />
<glyph unicode="&#xc9;" horiz-adv-x="1183" d="M23 0l6 72l112 22q47 8 54 49l135 994q6 39 -41 49l-105 22l-6 72h1004l-52 -381h-100l-22 199q-2 27 -6.5 41t-21.5 27.5t-38.5 18.5t-73 9t-110 5t-162.5 1h-61l-70 -510h43q123 0 157.5 7.5t51.5 37.5l65 137h80l-104 -440h-78l10 131q2 20 -10 29.5t-55 14.5t-131 5 h-39l-72 -532h49q215 0 301 7t121 26.5t55 68.5l80 189h111l-88 -371h-989zM549 1386l237 383h205l-397 -383h-45z" />
<glyph unicode="&#xca;" horiz-adv-x="1183" d="M23 0l6 72l112 22q47 8 54 49l135 994q6 39 -41 49l-105 22l-6 72h1004l-52 -381h-100l-22 199q-2 27 -6.5 41t-21.5 27.5t-38.5 18.5t-73 9t-110 5t-162.5 1h-61l-70 -510h43q123 0 157.5 7.5t51.5 37.5l65 137h80l-104 -440h-78l10 131q2 20 -10 29.5t-55 14.5t-131 5 h-39l-72 -532h49q215 0 301 7t121 26.5t55 68.5l80 189h111l-88 -371h-989zM449 1386l217 383h188l115 -383h-45l-176 263h-5l-249 -263h-45z" />
<glyph unicode="&#xcb;" horiz-adv-x="1183" d="M23 0l6 72l112 22q47 8 54 49l135 994q6 39 -41 49l-105 22l-6 72h1004l-52 -381h-100l-22 199q-2 27 -6.5 41t-21.5 27.5t-38.5 18.5t-73 9t-110 5t-162.5 1h-61l-70 -510h43q123 0 157.5 7.5t51.5 37.5l65 137h80l-104 -440h-78l10 131q2 20 -10 29.5t-55 14.5t-131 5 h-39l-72 -532h49q215 0 301 7t121 26.5t55 68.5l80 189h111l-88 -371h-989zM385 1585q0 53 33 91t88 38t88 -38t33 -91t-33 -91t-88 -38t-88 38t-33 91zM795 1585q0 53 32.5 91t88 38t88 -38t32.5 -91t-32.5 -91t-88 -38t-88 38t-32.5 91z" />
<glyph unicode="&#xcc;" horiz-adv-x="735" d="M29 0l6 72l133 22q47 8 53 49l135 994q6 41 -41 49l-125 22l-6 72h559l-6 -72l-133 -22q-47 -10 -53 -49l-133 -994q-6 -41 41 -49l125 -22l6 -72h-561zM180 1769h205l135 -383h-45z" />
<glyph unicode="&#xcd;" horiz-adv-x="735" d="M29 0l6 72l133 22q47 8 53 49l135 994q6 41 -41 49l-125 22l-6 72h559l-6 -72l-133 -22q-47 -10 -53 -49l-133 -994q-6 -41 41 -49l125 -22l6 -72h-561zM446 1386l238 383h205l-397 -383h-46z" />
<glyph unicode="&#xce;" horiz-adv-x="735" d="M29 0l6 72l133 22q47 8 53 49l135 994q6 41 -41 49l-125 22l-6 72h559l-6 -72l-133 -22q-47 -10 -53 -49l-133 -994q-6 -41 41 -49l125 -22l6 -72h-561zM213 1386l217 383h188l115 -383h-45l-176 263h-4l-250 -263h-45z" />
<glyph unicode="&#xcf;" horiz-adv-x="735" d="M29 0l6 72l133 22q47 8 53 49l135 994q6 41 -41 49l-125 22l-6 72h559l-6 -72l-133 -22q-47 -10 -53 -49l-133 -994q-6 -41 41 -49l125 -22l6 -72h-561zM166 1585q0 53 32.5 91t88 38t88.5 -38t33 -91t-33 -91t-88.5 -38t-88 38t-32.5 91zM575 1585q0 53 33 91t88.5 38 t88 -38t32.5 -91t-32.5 -91t-88 -38t-88.5 38t-33 91z" />
<glyph unicode="&#xd0;" horiz-adv-x="1349" d="M23 0l6 72l112 22q47 8 54 49l63 467h-168l6 84h172l60 443q6 39 -41 49l-105 22l-6 72h510q281 0 444.5 -152.5t163.5 -402.5q0 -299 -202 -500q-100 -102 -261 -163.5t-356 -61.5h-452zM387 111l141 -31q246 8 399.5 182t153.5 473q0 213 -111.5 339t-326.5 126h-111 l-67 -506h221l6 -84h-237z" />
<glyph unicode="&#xd1;" horiz-adv-x="1466" d="M20 0l7 72l98 16q61 10 86 77.5t59 332.5l68 503q10 90 -3 129t-61 54l-92 24l-6 72h379l532 -989h11l67 491q43 313 31 363q-8 37 -51 45q-4 2 -10 2l-99 16l-6 72h479l-6 -72l-98 -16q-43 -8 -63.5 -32.5t-40 -107.5t-44.5 -270l-108 -800h-111l-592 1095h-10l-76 -579 q-41 -313 -26 -365q12 -37 61 -45l97 -16l6 -72h-478zM459 1423q74 252 233 252q57 0 113.5 -36.5t101.5 -74.5t78 -38q29 0 55.5 28.5t67.5 104.5h53q-76 -252 -235 -252q-74 0 -167 74.5t-126 74.5q-29 0 -55.5 -28.5t-65.5 -104.5h-53z" />
<glyph unicode="&#xd2;" horiz-adv-x="1423" d="M102 565q0 301 179 512q195 231 503 232q260 0 422 -168t162 -428q0 -330 -211 -545q-188 -199 -471 -199q-260 0 -422 168t-162 428zM311 539q0 -252 123 -375q104 -104 273 -105q113 0 203.5 69t143 174.5t79 220t26.5 220.5q0 252 -123 375q-104 104 -272 105 q-113 0 -204 -69t-143 -174.5t-79 -220t-27 -220.5zM524 1769h205l135 -383h-45z" />
<glyph unicode="&#xd3;" horiz-adv-x="1423" d="M102 565q0 301 179 512q195 231 503 232q260 0 422 -168t162 -428q0 -330 -211 -545q-188 -199 -471 -199q-260 0 -422 168t-162 428zM311 539q0 -252 123 -375q104 -104 273 -105q113 0 203.5 69t143 174.5t79 220t26.5 220.5q0 252 -123 375q-104 104 -272 105 q-113 0 -204 -69t-143 -174.5t-79 -220t-27 -220.5zM709 1386l237 383h205l-397 -383h-45z" />
<glyph unicode="&#xd4;" horiz-adv-x="1423" d="M102 565q0 301 179 512q195 231 503 232q260 0 422 -168t162 -428q0 -330 -211 -545q-188 -199 -471 -199q-260 0 -422 168t-162 428zM311 539q0 -252 123 -375q104 -104 273 -105q113 0 203.5 69t143 174.5t79 220t26.5 220.5q0 252 -123 375q-104 104 -272 105 q-113 0 -204 -69t-143 -174.5t-79 -220t-27 -220.5zM567 1386l217 383h189l114 -383h-45l-176 263h-4l-250 -263h-45z" />
<glyph unicode="&#xd5;" horiz-adv-x="1423" d="M102 565q0 301 179 512q195 231 503 232q260 0 422 -168t162 -428q0 -330 -211 -545q-188 -199 -471 -199q-260 0 -422 168t-162 428zM311 539q0 -252 123 -375q104 -104 273 -105q113 0 203.5 69t143 174.5t79 220t26.5 220.5q0 252 -123 375q-104 104 -272 105 q-113 0 -204 -69t-143 -174.5t-79 -220t-27 -220.5zM518 1423q74 252 234 252q57 0 113.5 -36.5t101.5 -74.5t77 -38q29 0 55.5 28.5t67.5 104.5h54q-76 -252 -236 -252q-74 0 -167 74.5t-126 74.5q-29 0 -55.5 -28.5t-65.5 -104.5h-53z" />
<glyph unicode="&#xd6;" horiz-adv-x="1423" d="M102 565q0 301 179 512q195 231 503 232q260 0 422 -168t162 -428q0 -330 -211 -545q-188 -199 -471 -199q-260 0 -422 168t-162 428zM311 539q0 -252 123 -375q104 -104 273 -105q113 0 203.5 69t143 174.5t79 220t26.5 220.5q0 252 -123 375q-104 104 -272 105 q-113 0 -204 -69t-143 -174.5t-79 -220t-27 -220.5zM483 1585q0 53 33 91t88 38t88 -38t33 -91t-33 -91t-88 -38t-88 38t-33 91zM893 1585q0 53 32.5 91t88 38t88.5 -38t33 -91t-33 -91t-88.5 -38t-88 38t-32.5 91z" />
<glyph unicode="&#xd7;" horiz-adv-x="983" d="M70 135l346 346l-346 344l77 76l345 -344l344 344l77 -76l-346 -344l346 -346l-77 -76l-344 344l-345 -344z" />
<glyph unicode="&#xd8;" horiz-adv-x="1423" d="M102 565q0 301 179 512q195 231 503 232q145 0 260 -56l91 156h96q-113 -195 -115 -197q119 -78 185.5 -208t66.5 -291q0 -330 -211 -545q-188 -199 -471 -199q-145 0 -260 56l-102 -177h-95l125 215q-119 80 -185.5 210t-66.5 292zM311 539q0 -238 109 -361l569 979 q-90 66 -225 66q-113 0 -204 -69t-143 -174.5t-79 -220t-27 -220.5zM483 123q88 -63 224 -64q113 0 203.5 69t143 174.5t79 220t26.5 220.5q0 236 -106 359z" />
<glyph unicode="&#xd9;" horiz-adv-x="1462" d="M168 1280h520l-6 -72l-113 -22q-47 -8 -53 -49l-86 -625q-10 -76 -10 -115q0 -162 90 -238.5t244 -76.5q315 0 366 348l47 352q45 315 31 367q-14 35 -63 43l-97 16l-6 72h477l-6 -72l-98 -16q-41 -8 -61.5 -33.5t-40 -106.5t-46.5 -270l-51 -374q-33 -219 -172 -329 t-354 -110q-205 0 -333 98.5t-128 290.5q0 55 8 121l92 658q6 39 -40 49l-105 22zM586 1769h205l135 -383h-45z" />
<glyph unicode="&#xda;" horiz-adv-x="1462" d="M168 1280h520l-6 -72l-113 -22q-47 -8 -53 -49l-86 -625q-10 -76 -10 -115q0 -162 90 -238.5t244 -76.5q315 0 366 348l47 352q45 315 31 367q-14 35 -63 43l-97 16l-6 72h477l-6 -72l-98 -16q-41 -8 -61.5 -33.5t-40 -106.5t-46.5 -270l-51 -374q-33 -219 -172 -329 t-354 -110q-205 0 -333 98.5t-128 290.5q0 55 8 121l92 658q6 39 -40 49l-105 22zM791 1386l237 383h205l-397 -383h-45z" />
<glyph unicode="&#xdb;" horiz-adv-x="1462" d="M168 1280h520l-6 -72l-113 -22q-47 -8 -53 -49l-86 -625q-10 -76 -10 -115q0 -162 90 -238.5t244 -76.5q315 0 366 348l47 352q45 315 31 367q-14 35 -63 43l-97 16l-6 72h477l-6 -72l-98 -16q-41 -8 -61.5 -33.5t-40 -106.5t-46.5 -270l-51 -374q-33 -219 -172 -329 t-354 -110q-205 0 -333 98.5t-128 290.5q0 55 8 121l92 658q6 39 -40 49l-105 22zM598 1386l217 383h189l114 -383h-45l-176 263h-4l-250 -263h-45z" />
<glyph unicode="&#xdc;" horiz-adv-x="1462" d="M168 1280h520l-6 -72l-113 -22q-47 -8 -53 -49l-86 -625q-10 -76 -10 -115q0 -162 90 -238.5t244 -76.5q315 0 366 348l47 352q45 315 31 367q-14 35 -63 43l-97 16l-6 72h477l-6 -72l-98 -16q-41 -8 -61.5 -33.5t-40 -106.5t-46.5 -270l-51 -374q-33 -219 -172 -329 t-354 -110q-205 0 -333 98.5t-128 290.5q0 55 8 121l92 658q6 39 -40 49l-105 22zM504 1585q0 53 32.5 91t88 38t88 -38t32.5 -91t-32.5 -91t-88 -38t-88 38t-32.5 91zM913 1585q0 53 33 91t88.5 38t88 -38t32.5 -91t-32.5 -91t-88 -38t-88.5 38t-33 91z" />
<glyph unicode="&#xdd;" horiz-adv-x="1214" d="M70 1280h528l-8 -72l-84 -12q-33 -4 -44 -23.5t-3 -52.5t35 -88l180 -395h10l293 446q55 86 -39 107l-90 18l-6 72h485l-6 -72l-57 -14q-63 -16 -106.5 -45t-90.5 -98l-340 -502l-53 -406q-6 -41 41 -49l141 -22l6 -72h-598l8 72l152 22q45 6 53 49l53 406l-245 502 q-33 63 -59.5 90.5t-71.5 42.5l-80 24zM666 1386l237 383h205l-397 -383h-45z" />
<glyph unicode="&#xde;" horiz-adv-x="1150" d="M23 0l6 72l112 22q47 8 54 49l137 994q6 39 -41 49l-103 22l-6 72h518l-6 -72l-112 -22q-47 -8 -54 -49l-14 -113h131q209 0 334 -97t125 -255q0 -190 -155.5 -298t-373.5 -108q-72 0 -163 15l-21 -138q-6 -43 41 -49l148 -22l6 -72h-563zM424 362q78 -20 145 -20 q147 0 237.5 89t90.5 245q0 121 -81 195.5t-210 74.5h-102z" />
<glyph unicode="&#xdf;" horiz-adv-x="1042" d="M-313 -375q0 49 28.5 81t73.5 32q53 0 85 -41t38 -103l113 48q37 86 92 387l133 782l-178 8l6 60l194 47q106 485 433 485q133 0 214.5 -73.5t81.5 -186.5q1 -227 -294 -295q113 -80 193.5 -208t80.5 -275q0 -150 -115.5 -277t-259.5 -127q-94 0 -156.5 51.5t-62.5 124.5 q0 59 39 101.5t96 42.5q72 0 96.5 -49.5t1 -104.5t-74.5 -72q23 -23 71 -22q88 0 151.5 77t63.5 189q2 135 -75.5 273.5t-229.5 248.5l11 52q152 4 232.5 73.5t80.5 196.5q0 70 -44 123t-114 53q-117 0 -173 -99.5t-95 -309.5l-129 -685q-98 -516 -215 -639 q-98 -98 -234 -98q-68 0 -113.5 36t-45.5 93z" />
<glyph unicode="&#xe0;" d="M41 223q0 160 66.5 325t162.5 261q143 143 277 143q94 0 141 -143h12l41 141h146l-103 -346l-108 -495l59 -21l162 123l35 -37q-39 -76 -120 -140.5t-142 -64.5q-39 0 -96.5 21.5t-57.5 44.5q0 31 111 379h-17q-127 -242 -207.5 -343.5t-166.5 -101.5q-82 0 -138.5 67.5 t-56.5 186.5zM203 264q0 -156 104 -155q51 0 118 88t214 346l33 143q-39 61 -103.5 114.5t-126.5 53.5q-33 0 -67 -35q-51 -51 -111.5 -236.5t-60.5 -318.5zM317 1427h205l135 -383h-45z" />
<glyph unicode="&#xe1;" d="M41 223q0 160 66.5 325t162.5 261q143 143 277 143q94 0 141 -143h12l41 141h146l-103 -346l-108 -495l59 -21l162 123l35 -37q-39 -76 -120 -140.5t-142 -64.5q-39 0 -96.5 21.5t-57.5 44.5q0 31 111 379h-17q-127 -242 -207.5 -343.5t-166.5 -101.5q-82 0 -138.5 67.5 t-56.5 186.5zM203 264q0 -156 104 -155q51 0 118 88t214 346l33 143q-39 61 -103.5 114.5t-126.5 53.5q-33 0 -67 -35q-51 -51 -111.5 -236.5t-60.5 -318.5zM440 1044l238 383h205l-398 -383h-45z" />
<glyph unicode="&#xe2;" d="M41 223q0 160 66.5 325t162.5 261q143 143 277 143q94 0 141 -143h12l41 141h146l-103 -346l-108 -495l59 -21l162 123l35 -37q-39 -76 -120 -140.5t-142 -64.5q-39 0 -96.5 21.5t-57.5 44.5q0 31 111 379h-17q-127 -242 -207.5 -343.5t-166.5 -101.5q-82 0 -138.5 67.5 t-56.5 186.5zM203 264q0 -156 104 -155q51 0 118 88t214 346l33 143q-39 61 -103.5 114.5t-126.5 53.5q-33 0 -67 -35q-51 -51 -111.5 -236.5t-60.5 -318.5zM289 1044l217 383h188l115 -383h-45l-176 263h-4l-250 -263h-45z" />
<glyph unicode="&#xe3;" d="M41 223q0 160 66.5 325t162.5 261q143 143 277 143q94 0 141 -143h12l41 141h146l-103 -346l-108 -495l59 -21l162 123l35 -37q-39 -76 -120 -140.5t-142 -64.5q-39 0 -96.5 21.5t-57.5 44.5q0 31 111 379h-17q-127 -242 -207.5 -343.5t-166.5 -101.5q-82 0 -138.5 67.5 t-56.5 186.5zM203 264q0 -156 104 -155q51 0 118 88t214 346l33 143q-39 61 -103.5 114.5t-126.5 53.5q-33 0 -67 -35q-51 -51 -111.5 -236.5t-60.5 -318.5zM219 1081q74 252 234 252q57 0 113.5 -38t101.5 -74.5t77 -36.5q29 0 55.5 28.5t67.5 104.5h54q-76 -252 -236 -252 q-74 0 -167 74.5t-126 74.5q-29 0 -55.5 -28.5t-65.5 -104.5h-53z" />
<glyph unicode="&#xe4;" d="M41 223q0 160 66.5 325t162.5 261q143 143 277 143q94 0 141 -143h12l41 141h146l-103 -346l-108 -495l59 -21l162 123l35 -37q-39 -76 -120 -140.5t-142 -64.5q-39 0 -96.5 21.5t-57.5 44.5q0 31 111 379h-17q-127 -242 -207.5 -343.5t-166.5 -101.5q-82 0 -138.5 67.5 t-56.5 186.5zM203 264q0 -156 104 -155q51 0 118 88t214 346l33 143q-39 61 -103.5 114.5t-126.5 53.5q-33 0 -67 -35q-51 -51 -111.5 -236.5t-60.5 -318.5zM256 1243q0 53 33 91t88 38t88 -38t33 -91t-33 -91t-88 -38t-88 38t-33 91zM666 1243q0 53 32.5 91t88 38t88 -38 t32.5 -91t-32.5 -91t-88 -38t-88 38t-32.5 91z" />
<glyph unicode="&#xe5;" d="M41 223q0 160 66.5 325t162.5 261q143 143 277 143q94 0 141 -143h12l41 141h146l-103 -346l-108 -495l59 -21l162 123l35 -37q-39 -76 -120 -140.5t-142 -64.5q-39 0 -96.5 21.5t-57.5 44.5q0 31 111 379h-17q-127 -242 -207.5 -343.5t-166.5 -101.5q-82 0 -138.5 67.5 t-56.5 186.5zM203 264q0 -156 104 -155q51 0 118 88t214 346l33 143q-39 61 -103.5 114.5t-126.5 53.5q-33 0 -67 -35q-51 -51 -111.5 -236.5t-60.5 -318.5zM399 1243q2 78 51.5 131t131.5 53t132 -53t50 -131t-50 -131t-132 -53t-133.5 53t-49.5 131zM461 1243 q0 -53 32.5 -91t88 -38t88 38t32.5 91t-32.5 91t-88 38t-88 -38t-32.5 -91z" />
<glyph unicode="&#xe6;" horiz-adv-x="1253" d="M41 264q0 162 56.5 305.5t152.5 239.5q143 143 276 143q66 0 109.5 -70.5t66.5 -160.5q76 119 149 174t171 55t158.5 -55t60.5 -137q0 -90 -85 -151.5t-359 -198.5q-20 -10 -31.5 -15.5t-29 -14.5t-34.5 -18v-49q0 -100 51.5 -159.5t127.5 -59.5q74 0 243 121l27 -37 q-90 -106 -164 -156.5t-168 -50.5q-121 0 -199.5 92.5t-78.5 227.5v20q-92 -162 -178.5 -251t-143.5 -89q-84 0 -131 83t-47 212zM203 305q0 -80 22.5 -132t55.5 -52q20 0 42.5 11t48 40t45 53.5t49.5 72.5t46 75.5t50 87t46 82.5q16 29 49 88q-39 90 -106.5 156.5 t-132.5 66.5q-33 0 -68 -35q-49 -49 -98 -213t-49 -301zM705 420h4q236 123 311.5 191.5t75.5 148.5q0 35 -61.5 61.5t-102.5 26.5q-47 0 -72 -25q-39 -39 -84 -148.5t-71 -254.5z" />
<glyph unicode="&#xe7;" horiz-adv-x="784" d="M59 -504q344 43 344 191q0 94 -159 94q-61 0 -129 -12l6 41q12 10 29.5 27.5t56.5 53t63 60.5l27 22q-104 14 -170 103.5t-66 212.5q0 154 66 305t181.5 253.5t246.5 102.5q96 0 161.5 -51t65.5 -121q0 -47 -29.5 -81.5t-70.5 -34.5q-88 0 -88 81q0 37 16 62 q-10 14 -67.5 33.5t-102.5 19.5q-16 0 -49 -33q-57 -57 -112.5 -216.5t-55.5 -297.5q0 -100 51.5 -159.5t126.5 -59.5q74 0 244 121l27 -37q-82 -94 -144.5 -142t-140.5 -61l-98 -90q115 0 181.5 -44t66.5 -122q0 -109 -127 -182.5t-340 -87.5z" />
<glyph unicode="&#xe8;" horiz-adv-x="774" d="M61 289q0 244 147.5 452.5t334.5 208.5q98 0 158.5 -55t60.5 -137q0 -90 -85 -151.5t-360 -198.5l-94 -48v-49q0 -100 51.5 -159.5t126.5 -59.5q74 0 244 121l27 -37q-90 -106 -164 -156.5t-168 -50.5q-121 0 -200 92.5t-79 227.5zM225 420h4q236 123 311.5 191.5 t75.5 148.5q0 35 -61 61.5t-102 26.5q-47 0 -72 -25q-39 -39 -84 -148.5t-72 -254.5zM283 1427h204l136 -383h-45z" />
<glyph unicode="&#xe9;" horiz-adv-x="774" d="M61 289q0 244 147.5 452.5t334.5 208.5q98 0 158.5 -55t60.5 -137q0 -90 -85 -151.5t-360 -198.5l-94 -48v-49q0 -100 51.5 -159.5t126.5 -59.5q74 0 244 121l27 -37q-90 -106 -164 -156.5t-168 -50.5q-121 0 -200 92.5t-79 227.5zM225 420h4q236 123 311.5 191.5 t75.5 148.5q0 35 -61 61.5t-102 26.5q-47 0 -72 -25q-39 -39 -84 -148.5t-72 -254.5zM426 1044l238 383h204l-397 -383h-45z" />
<glyph unicode="&#xea;" horiz-adv-x="774" d="M61 289q0 244 147.5 452.5t334.5 208.5q98 0 158.5 -55t60.5 -137q0 -90 -85 -151.5t-360 -198.5l-94 -48v-49q0 -100 51.5 -159.5t126.5 -59.5q74 0 244 121l27 -37q-90 -106 -164 -156.5t-168 -50.5q-121 0 -200 92.5t-79 227.5zM225 420h4q236 123 311.5 191.5 t75.5 148.5q0 35 -61 61.5t-102 26.5q-47 0 -72 -25q-39 -39 -84 -148.5t-72 -254.5zM264 1044l217 383h189l114 -383h-45l-176 263h-4l-250 -263h-45z" />
<glyph unicode="&#xeb;" horiz-adv-x="774" d="M61 289q0 244 147.5 452.5t334.5 208.5q98 0 158.5 -55t60.5 -137q0 -90 -85 -151.5t-360 -198.5l-94 -48v-49q0 -100 51.5 -159.5t126.5 -59.5q74 0 244 121l27 -37q-90 -106 -164 -156.5t-168 -50.5q-121 0 -200 92.5t-79 227.5zM221 1243q0 53 33 91t88 38t88 -38 t33 -91t-33 -91t-88 -38t-88 38t-33 91zM225 420h4q236 123 311.5 191.5t75.5 148.5q0 35 -61 61.5t-102 26.5q-47 0 -72 -25q-39 -39 -84 -148.5t-72 -254.5zM631 1243q0 53 32.5 91t88 38t88 -38t32.5 -91t-32.5 -91t-88 -38t-88 38t-32.5 91z" />
<glyph unicode="&#xec;" horiz-adv-x="518" d="M27 696q41 90 117.5 172t136.5 82q23 0 61.5 -9t69 -25.5t26.5 -30.5l-211 -776l60 -21l162 123l34 -37q-39 -76 -119.5 -140.5t-142.5 -64.5q-37 0 -94 23.5t-53 42.5l202 778l-59 10l-156 -164zM92 1427h205l135 -383h-45z" />
<glyph unicode="&#xed;" horiz-adv-x="518" d="M27 696q41 90 117.5 172t136.5 82q23 0 61.5 -9t69 -25.5t26.5 -30.5l-211 -776l60 -21l162 123l34 -37q-39 -76 -119.5 -140.5t-142.5 -64.5q-37 0 -94 23.5t-53 42.5l202 778l-59 10l-156 -164zM215 1044l238 383h204l-397 -383h-45z" />
<glyph unicode="&#xee;" horiz-adv-x="518" d="M27 696q41 90 117.5 172t136.5 82q23 0 61.5 -9t69 -25.5t26.5 -30.5l-211 -776l60 -21l162 123l34 -37q-39 -76 -119.5 -140.5t-142.5 -64.5q-37 0 -94 23.5t-53 42.5l202 778l-59 10l-156 -164zM74 1044l217 383h188l115 -383h-45l-176 263h-4l-250 -263h-45z" />
<glyph unicode="&#xef;" horiz-adv-x="518" d="M27 696q41 90 117.5 172t136.5 82q23 0 61.5 -9t69 -25.5t26.5 -30.5l-211 -776l60 -21l162 123l34 -37q-39 -76 -119.5 -140.5t-142.5 -64.5q-37 0 -94 23.5t-53 42.5l202 778l-59 10l-156 -164zM31 1243q0 53 32.5 91t88 38t88 -38t32.5 -91t-32.5 -91t-88 -38t-88 38 t-32.5 91zM440 1243q0 53 33 91t88 38t88 -38t33 -91t-33 -91t-88 -38t-88 38t-33 91z" />
<glyph unicode="&#xf0;" horiz-adv-x="901" d="M66 371q0 215 131 397t313 182q137 0 195 -129q-21 201 -144 334l-328 -100l21 88l238 74q-80 59 -201 96l39 86q158 -49 274 -148l291 90l-21 -88l-202 -63q190 -199 194 -485q0 -287 -147.5 -511.5t-341.5 -224.5q-154 0 -232.5 109.5t-78.5 292.5zM223 313 q0 -109 40 -192.5t114 -83.5q68 0 129 73.5t93 150.5t48 149q25 117 25 215q0 106 -39 182t-113 76q-63 0 -124.5 -71t-94.5 -145.5t-51 -142.5q-27 -106 -27 -211z" />
<glyph unicode="&#xf1;" horiz-adv-x="1038" d="M27 696q41 90 116.5 172t135.5 82q39 0 97 -21.5t58 -43.5q0 -41 -127 -510h19q193 412 282 502q74 74 160 73q53 0 98 -42t45 -99q0 -98 -84 -377q-12 -43 -34.5 -116.5t-38 -126t-25.5 -80.5l59 -21l162 123l35 -37q-39 -76 -120 -140.5t-142 -64.5q-37 0 -93.5 21.5 t-56.5 44.5q0 45 105 381q80 258 80 299q0 33 -29 60.5t-65 27.5q-88 0 -340 -527l-56 -286l-168 10l72 301l104 502l-57 10l-160 -154zM244 1081q74 252 233 252q57 0 113.5 -38t101.5 -74.5t78 -36.5q29 0 55.5 28.5t67.5 104.5h53q-76 -252 -235 -252q-74 0 -167 74.5 t-126 74.5q-29 0 -55.5 -28.5t-65.5 -104.5h-53z" />
<glyph unicode="&#xf2;" horiz-adv-x="901" d="M66 371q0 213 136 396t318 183q154 0 232.5 -109.5t78.5 -291.5q0 -213 -136 -396.5t-318 -183.5q-154 0 -232.5 109.5t-78.5 292.5zM223 313q0 -109 40 -192.5t114 -83.5q68 0 129 73.5t93 150.5t48 149q25 117 25 215q0 106 -39 182t-113 76q-63 0 -124.5 -71 t-94.5 -145.5t-51 -142.5q-27 -106 -27 -211zM305 1427h205l135 -383h-45z" />
<glyph unicode="&#xf3;" horiz-adv-x="901" d="M66 371q0 213 136 396t318 183q154 0 232.5 -109.5t78.5 -291.5q0 -213 -136 -396.5t-318 -183.5q-154 0 -232.5 109.5t-78.5 292.5zM223 313q0 -109 40 -192.5t114 -83.5q68 0 129 73.5t93 150.5t48 149q25 117 25 215q0 106 -39 182t-113 76q-63 0 -124.5 -71 t-94.5 -145.5t-51 -142.5q-27 -106 -27 -211zM449 1044l237 383h205l-397 -383h-45z" />
<glyph unicode="&#xf4;" horiz-adv-x="901" d="M66 371q0 213 136 396t318 183q154 0 232.5 -109.5t78.5 -291.5q0 -213 -136 -396.5t-318 -183.5q-154 0 -232.5 109.5t-78.5 292.5zM223 313q0 -109 40 -192.5t114 -83.5q68 0 129 73.5t93 150.5t48 149q25 117 25 215q0 106 -39 182t-113 76q-63 0 -124.5 -71 t-94.5 -145.5t-51 -142.5q-27 -106 -27 -211zM287 1044l217 383h188l115 -383h-45l-176 263h-4l-250 -263h-45z" />
<glyph unicode="&#xf5;" horiz-adv-x="901" d="M66 371q0 213 136 396t318 183q154 0 232.5 -109.5t78.5 -291.5q0 -213 -136 -396.5t-318 -183.5q-154 0 -232.5 109.5t-78.5 292.5zM223 313q0 -109 40 -192.5t114 -83.5q68 0 129 73.5t93 150.5t48 149q25 117 25 215q0 106 -39 182t-113 76q-63 0 -124.5 -71 t-94.5 -145.5t-51 -142.5q-27 -106 -27 -211zM229 1081q74 252 234 252q57 0 113.5 -38t101.5 -74.5t78 -36.5q29 0 55.5 28.5t67.5 104.5h53q-76 -252 -236 -252q-74 0 -167 74.5t-126 74.5q-29 0 -55 -28.5t-65 -104.5h-54z" />
<glyph unicode="&#xf6;" horiz-adv-x="901" d="M66 371q0 213 136 396t318 183q154 0 232.5 -109.5t78.5 -291.5q0 -213 -136 -396.5t-318 -183.5q-154 0 -232.5 109.5t-78.5 292.5zM223 313q0 -109 40 -192.5t114 -83.5q68 0 129 73.5t93 150.5t48 149q25 117 25 215q0 106 -39 182t-113 76q-63 0 -124.5 -71 t-94.5 -145.5t-51 -142.5q-27 -106 -27 -211zM264 1243q0 53 33 91t88 38t88 -38t33 -91t-33 -91t-88 -38t-88 38t-33 91zM674 1243q0 53 32.5 91t88 38t88 -38t32.5 -91t-32.5 -91t-88 -38t-88 38t-32.5 91z" />
<glyph unicode="&#xf7;" horiz-adv-x="995" d="M84 426l6 109h817l6 -109h-829zM395 193q0 43 31 73.5t76 30.5t74.5 -30.5t29.5 -73.5t-29.5 -75t-74.5 -32t-76 32t-31 75zM395 766q0 43 30 74.5t75 31.5t75.5 -31.5t30.5 -74.5t-30.5 -75t-75.5 -32t-75 32t-30 75z" />
<glyph unicode="&#xf8;" horiz-adv-x="901" d="M-12 -264l180 313q-102 104 -102 322q0 213 136 396t318 183q84 0 148 -35l178 310h82l-203 -353q106 -106 106 -323q0 -213 -136 -396.5t-318 -183.5q-90 0 -152 37l-155 -270h-82zM223 313q1 -71 19 -137l376 653q-41 53 -98 54q-63 0 -124.5 -71t-94.5 -145.5 t-51 -142.5q-27 -106 -27 -211zM276 96q39 -59 101 -59q68 0 129 73.5t93 150.5t48 149q25 117 25 215q-1 66 -17 127q-377 -655 -379 -656z" />
<glyph unicode="&#xf9;" horiz-adv-x="1038" d="M57 696q41 90 118 172t136 82q37 0 95.5 -21.5t58.5 -43.5q0 -45 -105 -381q-80 -258 -79 -299q0 -33 28.5 -60.5t65.5 -27.5q88 0 340 526l55 287l168 -10l-72 -302q-84 -444 -106 -509l59 -21l162 123l35 -37q-39 -76 -120 -140.5t-142 -64.5q-37 0 -93.5 21.5 t-56.5 44.5q0 41 127 510h-18q-193 -412 -283 -502q-74 -74 -160 -74q-53 0 -98 42t-45 100q0 98 84 376q16 53 50 170t46 156l-59 10l-156 -164zM332 1427h205l135 -383h-45z" />
<glyph unicode="&#xfa;" horiz-adv-x="1038" d="M57 696q41 90 118 172t136 82q37 0 95.5 -21.5t58.5 -43.5q0 -45 -105 -381q-80 -258 -79 -299q0 -33 28.5 -60.5t65.5 -27.5q88 0 340 526l55 287l168 -10l-72 -302q-84 -444 -106 -509l59 -21l162 123l35 -37q-39 -76 -120 -140.5t-142 -64.5q-37 0 -93.5 21.5 t-56.5 44.5q0 41 127 510h-18q-193 -412 -283 -502q-74 -74 -160 -74q-53 0 -98 42t-45 100q0 98 84 376q16 53 50 170t46 156l-59 10l-156 -164zM496 1044l237 383h205l-397 -383h-45z" />
<glyph unicode="&#xfb;" horiz-adv-x="1038" d="M57 696q41 90 118 172t136 82q37 0 95.5 -21.5t58.5 -43.5q0 -45 -105 -381q-80 -258 -79 -299q0 -33 28.5 -60.5t65.5 -27.5q88 0 340 526l55 287l168 -10l-72 -302q-84 -444 -106 -509l59 -21l162 123l35 -37q-39 -76 -120 -140.5t-142 -64.5q-37 0 -93.5 21.5 t-56.5 44.5q0 41 127 510h-18q-193 -412 -283 -502q-74 -74 -160 -74q-53 0 -98 42t-45 100q0 98 84 376q16 53 50 170t46 156l-59 10l-156 -164zM334 1044l217 383h188l115 -383h-45l-176 263h-4l-250 -263h-45z" />
<glyph unicode="&#xfc;" horiz-adv-x="1038" d="M57 696q41 90 118 172t136 82q37 0 95.5 -21.5t58.5 -43.5q0 -45 -105 -381q-80 -258 -79 -299q0 -33 28.5 -60.5t65.5 -27.5q88 0 340 526l55 287l168 -10l-72 -302q-84 -444 -106 -509l59 -21l162 123l35 -37q-39 -76 -120 -140.5t-142 -64.5q-37 0 -93.5 21.5 t-56.5 44.5q0 41 127 510h-18q-193 -412 -283 -502q-74 -74 -160 -74q-53 0 -98 42t-45 100q0 98 84 376q16 53 50 170t46 156l-59 10l-156 -164zM311 1243q0 53 33 91t88 38t88 -38t33 -91t-33 -91t-88 -38t-88 38t-33 91zM721 1243q0 53 32.5 91t88 38t88.5 -38t33 -91 t-33 -91t-88.5 -38t-88 38t-32.5 91z" />
<glyph unicode="&#xfd;" horiz-adv-x="878" d="M-221 -387q0 47 34.5 80t73.5 33q51 0 91 -40t38 -96l35 4l277 392l-101 26l15 801l-60 10l-155 -164l-35 37q41 90 117.5 172t136.5 82q39 0 98 -21.5t59 -43.5l-24 -776h22l347 577v21q-106 41 -107 120q0 53 32 90t81 37q63 0 99 -37.5t36 -103.5q0 -51 -43 -137 t-76 -136.5t-100 -148.5l-207 -295l-121 -229q-104 -197 -200.5 -294t-202.5 -97q-63 0 -111.5 39t-48.5 98zM436 1044l238 383h205l-398 -383h-45z" />
<glyph unicode="&#xfe;" horiz-adv-x="913" d="M-221 -504l4 72l115 22q45 8 55 50l328 1534q10 37 -13 47l-129 57l8 51l342 98l-112 -477l-107 -444h17q127 242 207.5 343t167.5 101q78 0 131 -85t53 -210q0 -160 -61.5 -308t-157.5 -245q-135 -135 -277 -135q-94 0 -160 80h-2l-79 -407q-6 -41 38 -50l138 -22l8 -72 h-514zM217 197q135 -154 213 -154q29 0 64 35q66 66 128 233.5t62 302.5q0 86 -23.5 141.5t-70.5 55.5q-51 0 -117.5 -88t-214.5 -346z" />
<glyph unicode="&#xff;" horiz-adv-x="878" d="M-221 -387q0 47 34.5 80t73.5 33q51 0 91 -40t38 -96l35 4l277 392l-101 26l15 801l-60 10l-155 -164l-35 37q41 90 117.5 172t136.5 82q39 0 98 -21.5t59 -43.5l-24 -776h22l347 577v21q-106 41 -107 120q0 53 32 90t81 37q63 0 99 -37.5t36 -103.5q0 -51 -43 -137 t-76 -136.5t-100 -148.5l-207 -295l-121 -229q-104 -197 -200.5 -294t-202.5 -97q-63 0 -111.5 39t-48.5 98zM231 1243q0 53 33 91t88.5 38t88 -38t32.5 -91t-32.5 -91t-88 -38t-88.5 38t-33 91zM641 1243q0 53 33 91t88 38t88 -38t33 -91t-33 -91t-88 -38t-88 38t-33 91z " />
<glyph unicode="&#x152;" horiz-adv-x="1851" d="M102 555q0 299 203 500q102 102 262 163.5t355 61.5h938l-72 -381h-80l-22 199q-2 27 -6.5 41t-22 27.5t-39 18.5t-72.5 9t-109.5 5t-162.5 1h-62l-69 -510h43q115 0 163 13.5t68 46.5l43 122h80l-104 -440h-78l10 131q2 20 -10 29.5t-55 14.5t-132 5h-38l-72 -532h49 q215 0 301 7t121 26.5t55 68.5l80 189h111l-88 -371h-979q-281 0 -445 152.5t-164 402.5zM315 545q0 -213 112 -339t327 -126h110l146 1089l-142 31q-246 -8 -399.5 -182t-153.5 -473z" />
<glyph unicode="&#x153;" horiz-adv-x="1347" d="M66 369q0 217 131 399t323 182q209 0 268 -207q135 207 328 207q98 0 158.5 -55t60.5 -137q0 -90 -85 -151.5t-359 -198.5q-20 -10 -31.5 -15.5t-29 -14.5t-33.5 -18v-49q0 -100 51 -159.5t127 -59.5q74 0 244 121l26 -37q-90 -106 -163.5 -156.5t-168.5 -50.5 q-174 0 -233 166q-125 -166 -303 -166q-154 0 -232.5 108.5t-78.5 291.5zM223 313q0 -109 40 -192.5t114 -83.5q68 0 129 73.5t93 150.5t48 149q25 117 25 215q0 106 -39 182t-113 76q-63 0 -124.5 -71t-94.5 -145.5t-51 -142.5q-27 -106 -27 -211zM799 420h4 q236 123 311.5 191.5t75.5 148.5q0 35 -61.5 61.5t-102.5 26.5q-47 0 -72 -25q-39 -39 -84 -148.5t-71 -254.5z" />
<glyph unicode="&#x178;" horiz-adv-x="1214" d="M70 1280h528l-8 -72l-84 -12q-33 -4 -44 -23.5t-3 -52.5t35 -88l180 -395h10l293 446q55 86 -39 107l-90 18l-6 72h485l-6 -72l-57 -14q-63 -16 -106.5 -45t-90.5 -98l-340 -502l-53 -406q-6 -41 41 -49l141 -22l6 -72h-598l8 72l152 22q45 6 53 49l53 406l-245 502 q-33 63 -59.5 90.5t-71.5 42.5l-80 24zM420 1585q0 53 32.5 91t88 38t88.5 -38t33 -91t-33 -91t-88.5 -38t-88 38t-32.5 91zM829 1585q0 53 33 91t88.5 38t88 -38t32.5 -91t-32.5 -91t-88 -38t-88.5 38t-33 91z" />
<glyph unicode="&#x2c6;" horiz-adv-x="819" d="M205 1044l217 383h188l115 -383h-45l-176 263h-4l-250 -263h-45z" />
<glyph unicode="&#x2dc;" horiz-adv-x="819" d="M135 1081q74 252 234 252q57 0 113.5 -38t101.5 -74.5t78 -36.5q29 0 55 28.5t67 104.5h54q-76 -252 -236 -252q-74 0 -167 74.5t-126 74.5q-29 0 -55.5 -28.5t-65.5 -104.5h-53z" />
<glyph unicode="&#x2000;" horiz-adv-x="884" />
<glyph unicode="&#x2001;" horiz-adv-x="1769" />
<glyph unicode="&#x2002;" horiz-adv-x="884" />
<glyph unicode="&#x2003;" horiz-adv-x="1769" />
<glyph unicode="&#x2004;" horiz-adv-x="589" />
<glyph unicode="&#x2005;" horiz-adv-x="442" />
<glyph unicode="&#x2006;" horiz-adv-x="294" />
<glyph unicode="&#x2007;" horiz-adv-x="294" />
<glyph unicode="&#x2008;" horiz-adv-x="221" />
<glyph unicode="&#x2009;" horiz-adv-x="353" />
<glyph unicode="&#x200a;" horiz-adv-x="98" />
<glyph unicode="&#x2010;" horiz-adv-x="671" d="M68 426l6 109h528l6 -109h-540z" />
<glyph unicode="&#x2011;" horiz-adv-x="671" d="M68 426l6 109h528l6 -109h-540z" />
<glyph unicode="&#x2012;" horiz-adv-x="671" d="M68 426l6 109h528l6 -109h-540z" />
<glyph unicode="&#x2013;" horiz-adv-x="962" d="M59 426l7 109h843l6 -109h-856z" />
<glyph unicode="&#x2014;" horiz-adv-x="1925" d="M59 426l7 109h1806l6 -109h-1819z" />
<glyph unicode="&#x2018;" horiz-adv-x="475" d="M113 938q0 131 127 248t317 190l31 -41q-98 -47 -181 -132t-83 -165q0 -20 6 -39.5t16 -35t21.5 -29.5t23.5 -24.5t21.5 -17.5t15.5 -11l6 -7q-12 -49 -54 -78.5t-97 -29.5q-74 0 -122 50t-48 122z" />
<glyph unicode="&#x2019;" horiz-adv-x="475" d="M90 805q84 45 147.5 115.5t63.5 144.5q0 31 -14.5 60.5t-35 49t-41 34t-34.5 22.5l-14 8q0 47 43 79t98 32q72 0 127 -56.5t55 -136.5q0 -199 -346 -391z" />
<glyph unicode="&#x201a;" horiz-adv-x="475" d="M-61 -305q84 45 147.5 115.5t63.5 144.5q0 31 -14.5 60.5t-35 49t-41 34t-34.5 22.5l-15 8q0 47 43 79t99 32q72 0 127 -56.5t55 -136.5q0 -199 -346 -391z" />
<glyph unicode="&#x201c;" horiz-adv-x="888" d="M113 958q0 199 346 392l49 -39q-84 -45 -147.5 -116t-63.5 -144q0 -31 14.5 -60.5t35 -49t41 -34t34.5 -22.5l14 -8q0 -47 -43 -79t-98 -32q-72 0 -127 56.5t-55 135.5zM555 958q0 199 346 392l49 -39q-84 -45 -147.5 -116t-63.5 -144q0 -31 14.5 -60.5t35 -49t41 -34 t34.5 -22.5l15 -8q0 -47 -43 -79t-99 -32q-72 0 -127 56.5t-55 135.5z" />
<glyph unicode="&#x201d;" horiz-adv-x="888" d="M104 805q84 45 147.5 115.5t63.5 144.5q0 31 -14 60.5t-34.5 49t-41 34t-35.5 22.5l-14 8q0 47 43 79t98 32q72 0 127.5 -56.5t55.5 -136.5q0 -199 -346 -391zM547 805q84 45 147.5 115.5t63.5 144.5q0 31 -14.5 60.5t-35 49t-41 34t-34.5 22.5l-15 8q0 47 43.5 79 t98.5 32q72 0 127 -56.5t55 -136.5q0 -199 -346 -391z" />
<glyph unicode="&#x201e;" horiz-adv-x="888" d="M-47 -305q84 45 147.5 115.5t63.5 144.5q0 31 -14.5 60.5t-35 49t-41 34t-34.5 22.5l-14 8q0 47 43 79t98 32q72 0 127 -56.5t55 -136.5q0 -199 -346 -391zM395 -305q84 45 147.5 115.5t63.5 144.5q0 31 -14 60.5t-34.5 49t-41 34t-35.5 22.5l-14 8q0 47 43 79t98 32 q72 0 127.5 -56.5t55.5 -136.5q0 -199 -347 -391z" />
<glyph unicode="&#x2022;" horiz-adv-x="931" d="M72 475q0 45 43 146.5t73.5 132t133 72.5t145.5 42q45 0 146.5 -42t132 -72.5t72.5 -132t42 -146.5t-41 -146.5t-74 -133.5q-31 -31 -133 -73t-147 -42q-43 0 -145.5 42t-131.5 73q-31 33 -73.5 135t-42.5 145z" />
<glyph unicode="&#x2026;" horiz-adv-x="1425" d="M55 106.5q0 55.5 40 94.5t99.5 39t97.5 -39t38 -94.5t-39 -96.5t-96 -41q-59 0 -99.5 41t-40.5 96.5zM530 106.5q0 55.5 40 94.5t99.5 39t97.5 -39t38 -94.5t-39 -96.5t-96 -41q-59 0 -99.5 41t-40.5 96.5zM1006 106.5q0 55.5 39.5 94.5t99 39t97.5 -39t38 -94.5 t-39 -96.5t-96 -41q-59 0 -99 41t-40 96.5z" />
<glyph unicode="&#x202f;" horiz-adv-x="353" />
<glyph unicode="&#x2039;" horiz-adv-x="614" d="M57 414v86l498 319l14 -41l-364 -327l280 -308l-24 -41z" />
<glyph unicode="&#x203a;" horiz-adv-x="614" d="M47 135l334 318l-250 317l25 41l403 -311l-12 -94l-486 -312z" />
<glyph unicode="&#x205f;" horiz-adv-x="442" />
<glyph unicode="&#x20ac;" horiz-adv-x="1032" d="M12 436l6 84h134v23q0 68 10 143h-117l6 84h127q59 236 224 379t368 143q150 0 230.5 -52t80.5 -130q0 -51 -25.5 -85t-74.5 -34q-53 0 -88 51.5t-39 118.5q-55 43 -149 43q-135 0 -230.5 -109.5t-128.5 -324.5h412l6 -84h-426q-6 -66 -6 -137v-29h393l6 -84h-393 q23 -164 106.5 -257t223.5 -93q131 0 278 119l25 -51q-66 -82 -163 -133.5t-202 -51.5q-193 0 -307.5 131t-140.5 336h-146z" />
<glyph unicode="&#x2122;" horiz-adv-x="1878" d="M109 1001l14 279h678v-279h-62l-12 39q-37 115 -71.5 148t-137.5 33h-2v-607q0 -23 25 -28l90 -13l2 -55h-371l4 55l90 13q27 6 27 28v607h-2q-86 0 -126 -36t-77 -145l-14 -39h-55zM897 518l4 55l62 11q14 2 22 15t15.5 59.5t9.5 138.5l12 385q0 27 -25 30l-71 13l-4 55 h299l139 -569h20l185 569h303l-4 -55l-70 -13q-29 -6 -29 -30l9 -467q2 -121 41 -127l61 -15l4 -55h-334l2 55l62 15q16 4 21 27.5t3 99.5l-8 475h-20l-220 -647h-102l-174 653h-20l-13 -399q-4 -137 -1 -171t24 -42l65 -11l2 -55h-270z" />
<glyph unicode="&#x25fc;" horiz-adv-x="952" d="M0 0v952h952v-952h-952z" />
</font>
</defs>
</svg>
