<?xml version="1.0" encoding="utf-8"?>
<!-- Generator: Adobe Illustrator 24.2.3, SVG Export Plug-In . SVG Version: 6.00 Build 0)  -->
<svg version="1.1" xmlns="http://www.w3.org/2000/svg" xmlns:xlink="http://www.w3.org/1999/xlink" x="0px" y="0px"
	 viewBox="0 0 1200 977.6" style="enable-background:new 0 0 1200 977.6;" xml:space="preserve">
<style type="text/css">
	.st0{fill:#FFDD00;}
	.st1{fill:#5B7FAD;}
	.st2{fill:none;stroke:#5B7FAD;stroke-width:4;stroke-miterlimit:10;}
	.st3{fill:#F48473;}
	.st4{fill:none;}
	.st5{fill:#C1DC83;}
	.st6{fill:none;stroke:#000000;stroke-width:4;stroke-miterlimit:10;}
	.st7{fill:#ED1C24;}
	.st8{fill:#CE3045;}
	.st9{fill:none;stroke:#F7941D;stroke-width:4;stroke-miterlimit:10;}
	.st10{fill:#F7941D;}
	.st11{fill:#FFF342;}
	.st12{fill:#F5846F;}
	.st13{fill:none;stroke:#151220;stroke-width:4;stroke-miterlimit:10;}
	.st14{fill:none;stroke:#231F20;stroke-width:4;stroke-miterlimit:10;}
	.st15{fill:none;stroke:#231F20;stroke-width:3;stroke-miterlimit:10;}
</style>
<g id="background">
</g>
<g id="yellow">
</g>
<g id="glasses">
	<path class="st0" d="M477,11.43c-8.64-3.14-18.32,3.2-22.52,11.38c-4.2,8.18-4.51,17.71-5.6,26.84
		c-1.09,9.13-3.42,18.83-10.34,24.89c-4.54,3.98-10.51,5.87-15.59,9.13c-11.6,7.45-17.68,22.73-13.97,36
		c3.71,13.28,17.14,23.27,30.91,22.63c13.77-0.65,26.34-12.16,27.8-25.87c1.42-13.3-6.49-25.72-8.56-38.94
		c-3.82-24.41,16.13-49.9,40.75-52.05c-6.71-6.25-14.58-11.26-23.09-14.7c4.4,12.34,8.81,24.68,13.21,37.02"/>
	<path class="st5" d="M168.3,384.7c-2.37,1.57-4.82,3.35-5.86,5.99c-0.84,2.12-0.63,4.5-0.35,6.76c2.12,17.18,7.95,33.9,16.97,48.68
		c1.27,2.08,2.72,4.22,4.95,5.19c2.02,0.88,4.34,0.63,6.53,0.34c33.92-4.56,66.76-16.95,95.24-35.92c3.79-2.52,7.58-5.24,10.18-8.97
		c6.74-9.65,3.46-23.61-4.32-32.44C260.5,339.05,200.72,363.21,168.3,384.7z"/>
</g>
<g id="person">
</g>
<g id="computer">
	<g>
		<path class="st13" d="M252.28,422.08c8.57,14.49,14.22,25.64,20.84,41.11"/>
		<path class="st13" d="M237.94,427.89c10.31,14.15,14.89,25.65,21.49,41.86"/>
		<path class="st13" d="M224.12,434.74c9.24,14.38,13.69,26.44,20.75,42"/>
		<path class="st13" d="M533.97,400.9c17.85,16.99,28.85,25.75,48.46,40.67"/>
		<path class="st13" d="M483.75,34.68c16.54,1.57,32.6,8.62,44.51,20.23c12.48,12.16,20.15,28.26,28.38,43.62
			c8.22,15.36,17.75,30.85,32.89,40.71c-15.45,3.63-30.1,12.44-38.5,25.91c-4.39,7.03-6.94,15.03-10.49,22.52
			s-8.45,14.81-15.83,18.59c-8.06,4.13-17.84,3.43-26.16,7.01c-10.16,4.38-16.62,14.46-21.26,24.5c-0.07,0.16-0.14,0.31-0.22,0.47
			c-3.63,7.92-6.27,16.16-7.94,24.53"/>
		<path class="st13" d="M229.96,483.89c-31.34-89.38-85.51-170.24-109.45-263.35c-3.32-22.22-5.3-47.16,8.42-64.95
			c10.93-14.16,25.78-22.17,43.49-24.67c8-1.13,19.91,0.26,27.68,2.46c5.85,1.65,11.15,4.79,16.38,7.89
			c8.02,4.76,16.04,9.52,25.8,15.16c36.64,19.67,68.96,46.82,106.23,65.24c5.95,2.94,12.08,5.67,18.48,7.9
			c18.78,6.52,39.67-1.48,48.83-19.12c2.26-4.35,3.91-9.02,4.85-13.75c3.64-18.36-1.26-37.31-7.5-54.96
			c-2.06-5.81-4.27-11.59-5.74-17.58c-4.32-17.64-1.82-36.86,6.88-52.81c8.7-15.94,23.5-28.46,42.67-34.26
			c3.38-0.98,6.83-1.7,10.31-2.15"/>
		<path class="st13" d="M144.02,682.11c-11.53-9.5-39.74-10.37-57.14-5.24c-14.33,4.22-53.96,20.74-68.87,38.76
			c26.83-52.03,46.39-86.86,75.58-137.61c0.21-0.54,0.43-1.08,0.64-1.62"/>
		<path class="st13" d="M94.07,577.79c26.45,12.68,52.58,26.04,78.35,40.07"/>
		<path class="st13" d="M509.01,169.85c17.94,10.12,41.24,9.95,59.04-0.41"/>
		<path class="st13" d="M801.09,343.74c-38.58,37.85-76.35,75.76-119.19,108.72c-13.11,10.09-27.97,20.43-44.48,19.32
			c-13.39-0.9-29.39-11.19-40.17-19.2c-4.94-3.67-9.88-7.35-14.83-11.02"/>
		<path class="st13" d="M770.54,287.47c6.45-6.6,7.78-8.36,17.87-7.48c6.69,0.58,13.25,2.07,19.85,3.31
			c7.76,1.46,15.7,1.95,23.59,1.47"/>
		<path class="st13" d="M832.04,297.31c-9.68,1.35-19.55,1.32-29.23-0.09c-4.43-0.65-9.28-1.51-13.13,0.77
			c-1.94,1.14-3.37,2.96-4.66,4.81c-3.33,4.8-5.94,10.11-7.7,15.68"/>
		<path class="st13" d="M415.84,620.84c-64.6,52.21-163.56,29.45-163.56,29.45c-28.18-6.96-54.4-18.88-79.98-33.1
			c-15.35,35.3-29.63,68.16-44.21,101.27c35.73,12.54,70.54,27.56,107.7,34.87c0,0,131.37,30.4,223.19-36.65
			c23.06-16.84,37.24-33.35,49.02-53.19c12.59-21.2,21.3-44.45,26.42-68.57c13.66-64.25,29.07-207.96-64.95-333.25
			c-0.69-0.92,45.39,13.84,69.06,31.84c17.9,13.61,34.67,30.34,48.69,47.93c10.4,13.05,20.81,26.11,31.21,39.16
			c5.58,7,11.47,14.25,19.61,17.96c8.14,3.72,17.16-0.44,24.27-6.48c42.92-37.31,74.39-65.46,108.22-104.6l3.33-3.36
			c11.37-10.5,15.04-13.45,23.47-17.57c1.95-0.95,3.75-1.5,5.42-1.8c4.15-0.73,9.74,1.2,12.2,4.63c3.34,4.64,2.41,10.63-0.54,15.04"
			/>
		<path class="st13" d="M284.5,457.73c-32.31-68.21-63.25-137.07-92.81-206.51c-3.32-8.35-6.24-15.23-6-22.43
			c0.24-7.2,4.64-14.8,11.69-16.28c5.88-1.23,11.71,1.95,16.84,5.08c32.76,20.01,63.62,42.94,94.43,65.85
			c11.27,8.38,22.57,16.78,32.67,26.52c35.93,34.63,54.13,83.16,79.98,125.85c8.11,16.03,16.2,32.07,24.3,48.08
			c21.65,42.81,43.39,85.48,65.82,127.68c36.25,68.2,74.3,135.18,116.69,199.51c38.65,58.65,64.7,102.3,140.08,156.42l-154.92-1.04
			c0,0-5.49-54.72-18.28-77.42l-32.66-0.39c-30.02-53.25-54.84-103.7-85.21-156.47c-24.28-42.55-46.54-86.43-71.59-129.27
			c-10.8-18.47-21.88-37.84-23.09-59.2c-1.87-33.1,20.26-64.79,56.37-71.57"/>
		<path class="st13" d="M825.58,335.9c-0.48-6.7,0.9-13.53,3.96-19.52c1.52-2.97,3.43-5.72,5.12-8.61c4.12-7.04,6.42-15.43,7.6-23.5
			"/>
		<path class="st13" d="M812.24,329.09c0.74-11.27,4.3-21.66,11.02-30.75"/>
		<path class="st13" d="M828.41,284.82c1.86-3.2,3.11-7.76,2.59-12.03"/>
		<path class="st13" d="M799.94,322.3c1.41-8.4,4.29-16.55,8.47-23.96"/>
		<line class="st13" x1="595" y1="889.04" x2="682.24" y2="889.04"/>
		<circle class="st13" cx="459.47" cy="116.6" r="35.88"/>
		<path class="st13" d="M455.53,80.94c0,0,5.48-65.2,37.51-65.2s25.41,31.23,25.41,31.23"/>
		<path class="st13" d="M470.67,82.51c0,0,6.25-64.32,35.71-64.32"/>
		<path class="st13" d="M424.53,124.75c-19.19,12.4-49.59,14.08-72.27,11.26c-41.32-5.13-69.02-15.88-82.48-29.63
			c-20.29-20.71-11.62-40.43-11.62-40.43c9.54-23.86,36.79-23.53,49.42-17.62c16.49,7.72,26,31.53,28.64,49.54
			c2.77,18.93-0.22,38.67-8.49,55.93c-17.85,37.28-58.47,61.42-70.65,100.91c-11.71,37.97,6.68,78.93,31.18,110.21
			c5.55,7.09,11.62,14.28,13.58,23.07s-1.96,20.12-10.18,23.33"/>
		<path class="st13" d="M221.98,462.47l-7.09,3.36c-4.57,2.16-10.02,0.22-12.18-4.34l-16.97-35.76c-2.16-4.57-0.22-10.02,4.34-12.18
			l8.87-4.21"/>
		<path class="st13" d="M250.6,384.83l14.78-7.01c4.56-2.16,10.02-0.22,12.18,4.34l16.97,35.76c2.16,4.57,0.21,10.02-4.34,12.18
			l-15.29,7.26"/>
		<circle class="st13" cx="285.58" cy="421.79" r="3.12"/>
		<path class="st13" d="M593.17,522.23c9.33,43.61,24.85,86.23,49.11,123.65c24.26,37.42,57.56,69.51,97.66,89.03
			c68.14,33.17,154.18,25.94,215.83-18.12"/>
		<path class="st13" d="M673.5,686.29c-17.67,18.91-28.25,43.72-32.71,69.21c-4.46,25.49-2.44,51.71,1.58,77.27"/>
		<path class="st13" d="M730.63,756.62c23.14,21.99,34.49,55.73,29.33,87.23c-1.48,9.03-4.21,17.82-7.48,26.36
			c-3.69,9.63-8.07,19-13.1,28.01c-1.75,3.13-3.62,6.36-3.84,9.94c-0.37,6.01,4.07,11.36,9.19,14.54s11.03,4.85,16.31,7.76
			c13.29,7.32,21.27,22.57,25.53,37.04l-23.73-0.03c0.06,0.01,0.12,0.02,0.18,0.03"/>
		<path class="st13" d="M1026.66,742.09c-7.02,13.14-7.08,30.08,0.97,42.62s24.34,19.6,38.72,15.7c8.14-2.21,15.07-7.44,21.78-12.56
			c10.33-7.89,20.66-15.77,30.4-24.69c9.55,9.52,19.11,19.04,28.54,28.42c9.07-17.33,7.01-38.7-6.18-53.15
			c-2.59-2.84-8.34-6.61-11.69-7.02c-7.31-0.89-13.91,2.29-20.23,6.17c-13.6,8.36-22.23,14.06-35.83,22.42"/>
		<path class="st13" d="M1056.69,580.87c18.22,16.59,30.28,39.38,35.74,63.42s4.54,49.25-0.63,73.35
			c-3.53,16.43-9.37,29.71-18.66,42.37"/>
		<path class="st13" d="M984.57,576.55c5.21,12.19,3.89,26.43-0.98,38.76s-13.01,23.07-21.46,33.28
			c-8.08,9.75-16.78,19.58-20.43,31.71c-3.65,12.13-0.55,27.39,10.54,33.5c7.51,4.14,16.81,3.22,25.06,0.85
			c13.18-3.79,25.67-11.36,33.21-22.82c4-6.08,6.48-13.01,8.57-19.98c8.96-29.83,10.96-63.61-4.12-90.87"/>
		<path class="st13" d="M1056.69,580.87c24.98,19.28,59.31,27.15,90.12,20.36c9.15-2.02,18.19-5.31,25.64-10.99
			c7.45-5.69,13.21-13.98,14.47-23.27s-2.55-19.44-10.44-24.51c-9.6-6.17-22.27-3.81-33,0.07c-21.37,7.75-42.12,20.92-64.77,19.01
			c-14.8-1.25-28.21-8.9-40.82-16.76c-5.74-3.58-11.43-7.25-17.65-10.57c-2.55-1.37-5.23-2.51-7.96-3.46l-75.34-26.29
			c-12.62-4.4-25.62-9.03-35.4-18.14c-10.99-10.23-16.88-27.73-7.53-40.56c2.24-3.07,6.09-4.68,9.75-3.68
			c6.05,1.66,6.75,8.82,5.85,14.47c-1.66,10.37-12.39,28.27-12.39,28.27c-7.26,13.56-13.23,27.81-17.82,42.5
			c-3.14,10.05-5.64,20.45-5.47,30.98c0.18,10.53,3.26,21.3,10.18,29.23c11.78,13.5,31.84,16.15,49.66,14.3
			c17.82-1.85,36.18-7.21,54.07-6.2"/>
		<path class="st13" d="M1054.98,801.48c-26.36,38.29-66.43,69.13-110.21,84.75c-43.78,15.61-92,17.92-137.42,8.01
			c-19.89-4.34-39.56-11.11-56.25-22.78"/>
		<path class="st13" d="M805.62,281.55c-30.62-4.03-67.72-8.02-91.03-20.71c-13.34-7.26-18.95-20.2-16.95-26.8
			c4.42-14.61,21.13-14.42,34.07-12.18c12.93,2.25,24.16,10.08,34.26,18.47C781.22,253,795.34,266.93,805.62,281.55z"/>
		<path class="st13" d="M807.84,264.58c10.03,0.73,19.79,4.83,27.33,11.48c7.55,6.66,12.12,16.17,11.91,25.95
			c-0.07,3.29-0.98,6.51-2.44,9.47c-2.87,5.83-8.49,18.82-7.37,29.17c1.49,13.77,6.38,29.57,6.38,29.57s4.98,14.14,3.83,33.68
			c-1.8,30.48-19.58,57.07-44.82,74.26c-27.19,18.52-62.7,23.16-87.55,44.72c-23.2,20.13-33.24,54.21-23.19,84.31
			c5.99,22.5,19.5,42.93,37.85,57.24c18.36,14.32,41.46,22.44,64.74,22.76c26.85,0.37,52.81-9.26,77.15-20.59
			c24.34-11.33,47.99-24.57,73.73-32.21c11.36-3.37,21.55-6.48,33.19-8.73"/>
		<line class="st13" x1="1084.51" y1="620.23" x2="1025.94" y2="622.74"/>
		
			<ellipse transform="matrix(0.987 -0.1609 0.1609 0.987 -75.406 164.0323)" class="st13" cx="975.4" cy="547.74" rx="5.92" ry="8.65"/>
	</g>
</g>
</svg>
