<?xml version="1.0" encoding="utf-8"?>
<!-- Generator: Adobe Illustrator 24.2.3, SVG Export Plug-In . SVG Version: 6.00 Build 0)  -->
<svg version="1.1" xmlns="http://www.w3.org/2000/svg" xmlns:xlink="http://www.w3.org/1999/xlink" x="0px" y="0px"
	 viewBox="0 0 1200 1200" style="enable-background:new 0 0 1200 1200;" xml:space="preserve">
<style type="text/css">
	.st0{fill:#FFDD00;}
	.st1{fill:#5B7FAD;}
	.st2{fill:none;stroke:#5B7FAD;stroke-width:4;stroke-miterlimit:10;}
	.st3{fill:#F48473;}
	.st4{fill:none;}
	.st5{fill:#C1DC83;}
	.st6{fill:none;stroke:#000000;stroke-width:4;stroke-miterlimit:10;}
	.st7{fill:#ED1C24;}
	.st8{fill:#CE3045;}
	.st9{fill:none;stroke:#F7941D;stroke-width:4;stroke-miterlimit:10;}
	.st10{fill:#F7941D;}
	.st11{fill:#FFF342;}
	.st12{fill:#F5846F;}
	.st13{fill:none;stroke:#151220;stroke-width:4;stroke-miterlimit:10;}
	.st14{fill:none;stroke:#231F20;stroke-width:4;stroke-miterlimit:10;}
	.st15{fill:none;stroke:#231F20;stroke-width:3;stroke-miterlimit:10;}
</style>
<g id="background">
</g>
<g id="yellow">
</g>
<g id="glasses">
</g>
<g id="person">
</g>
<g id="computer">
	<path class="st7" d="M462.4,72.98c-5.16,0.38-10.4,0.97-15.2,2.92c-8.68,3.52-15.07,11.16-19.71,19.3
		c-6.48,11.36-10.25,24.15-12,37.11c-1.91,14.1-1.39,28.95,4.59,41.87c10.35,22.38,34.92,34.76,58.97,40.2
		c22.75,5.15,49.55,4.45,65.73-12.36c10.01-10.4,14.08-25.17,15.84-39.5c2.59-21.05,0.71-43.43-10.18-61.63
		C531.53,69.29,494.87,70.56,462.4,72.98z"/>
	<path class="st5" d="M552.65,402.81c-19.42,25.62-38.84,51.23-58.26,76.85c-1.24,1.64-2.53,3.38-2.81,5.41
		c-0.22,1.54-7.32,9.27-6.84,10.75c0,0,29.32,12.16,33.99,24.57c5.87,15.6,4.64,29.8,2.45,46.32
		c-4.66,35.09-22.41,70.42-46.93,81.74c20.98,8.88,4.59,2.57,23.28,9.69c56.43,21.51,161.76,41.9,213.83,72.48
		c7.17-50.71-36.37-95.59-29.2-146.3c0.5-3.54,1.04-7.2,2.98-10.2c2.49-3.87,10.62-17.73,14.85-19.54
		c20.13-8.62,41.79-21.11,63.67-21.92c-4.05-29.2-7.41-65.82-11.47-95.02c-22.85,9.09-51.35,42.58-75.95,42.88
		C623.82,481.16,581.6,443.65,552.65,402.81z"/>
	<path class="st6" d="M330.74,281.91c14.53,48.47,34.09,94.81,66.47,133.69c25.87,31.06,57.06,58.11,93.12,76.38
		s76.95,24.78,117.34,23.09c104.78-4.39,183.51-80.57,210.73-151.21c10.78-27.98,14.91-58.14,15.79-88.1
		c1.24-42.31-4.07-85.46-21.36-124.1s-47.43-72.51-86.45-88.92"/>
	<path class="st6" d="M400.71,266.34c11.37,62.53,55.57,115.61,109.29,149.57c30.64,19.37,65.44,34.12,88.77,61.87
		c31.19,37.1,35.39,90.42,26.84,138.75c-16.59,72.6-55.13,137.89-90.38,203.49s-68.34,135.03-72.35,209.39
		c-1.8,33.31,4.38,70.67,30.68,90.7c20.4,14.13,46.49,16.71,71.3,17.1c37.66,0.6,75.38-2.81,112.32-10.14"/>
	<path class="st6" d="M676.26,1109.95c-11.22,5.04-23.99,6.54-36.07,4.23"/>
	<path class="st6" d="M674.09,1095.2c-11.13,3.46-23.01,4.49-34.57,3"/>
	<path class="st6" d="M673.34,1079.46c-10.76,4.51-23.01,5.37-34.3,2.42"/>
	<path class="st6" d="M670.16,1063.25c-38.4,2.23-94.04,9.07-127.03-26.4c-50.66-54.49-83.24-195.09-77.77-272.84
		c3.04-43.22,18.11-86.26,48.49-117.14c25.35-25.77,62.07-43.47,97.49-36.24c24.36,4.97,45.68,21.55,58.28,42.98
		c12.6,21.43,16.76,47.31,13.57,71.96c-2.21,17.05-7.83,33.65-16.43,48.53c-27.24,47.14-81.19,72.65-134.42,84.07
		c-53.23,11.42-108.38,11.58-161.65,22.8c-53.27,11.22-107.35,36.28-135.12,83.11"/>
	<path class="st6" d="M248.18,979.51c5.16-11.27,13.73-20.95,24.31-27.42"/>
	<path class="st6" d="M260.8,992.42c6.37-9.58,14.86-17.74,24.68-23.74"/>
	<path class="st6" d="M273.77,1002.09c6.98-6.94,14.55-13.28,22.6-18.93"/>
	<path class="st6" d="M288.01,1017.74c31.03-35.67,76.47-58.43,123.62-61.9"/>
	<path class="st6" d="M711.37,72.14c14.16,5.57,26.99,14.49,37.15,25.82"/>
	<path class="st6" d="M693.93,82.61c14.83,6.18,28.22,15.79,38.82,27.86"/>
	<path class="st6" d="M676.59,93.83c16.71,5.34,31.86,15.45,43.22,28.82"/>
	<path class="st6" d="M661.89,104.16c18.89,6.45,34.88,19.67,47.63,35.02s22.58,32.88,32.33,50.29
		c13.85,24.73,27.7,49.46,41.54,74.19c16.66,29.76,33.52,59.79,56.3,85.16s52.33,46.06,85.91,52.01
		c33.58,5.95,71.23-5.06,91.59-32.42"/>
	<path class="st6" d="M384.8,269.27c1.73,15.84,6.16,31.38,13.05,45.75"/>
	<path class="st6" d="M365.56,272.99c3.06,16.01,7.57,31.75,13.46,46.95"/>
	<path class="st6" d="M347.58,277.23c2.85,15.66,7.57,30.97,14.05,45.51"/>
	<path class="st6" d="M684.68,453.47c34.42-11.91,60.08-42.82,71.87-77.28c6.21-18.13,9.01-37.72,5.72-56.61
		c-3.3-18.88-13.08-36.98-28.57-48.27c-15.48-11.3-36.83-14.98-54.47-7.47c-14.2,6.05-24.63,18.24-35.67,29.02
		c-11.04,10.78-24.46,20.98-39.89,21.13c9.22,4.19,16.36,12.72,18.86,22.53c1.53,6.02,1.39,12.33,2.47,18.45
		c2.94,16.69,15.71,31.27,31.87,36.39c16.16,5.12,34.99,0.56,47.01-11.38"/>
	<circle class="st6" cx="447.24" cy="158.22" r="77.22"/>
</g>
</svg>
