<?xml version="1.0" encoding="utf-8"?>
<!-- Generator: Adobe Illustrator 24.2.3, SVG Export Plug-In . SVG Version: 6.00 Build 0)  -->
<svg version="1.1" xmlns="http://www.w3.org/2000/svg" xmlns:xlink="http://www.w3.org/1999/xlink" x="0px" y="0px"
	 viewBox="0 0 894.86 1207.56" style="enable-background:new 0 0 894.86 1207.56;" xml:space="preserve">
<style type="text/css">
	.st0{fill:#FFDD00;}
	.st1{fill:#5B7FAD;}
	.st2{fill:none;stroke:#5B7FAD;stroke-width:4;stroke-miterlimit:10;}
	.st3{fill:#F48473;}
	.st4{fill:none;}
	.st5{fill:#C1DC83;}
	.st6{fill:none;stroke:#000000;stroke-width:4;stroke-miterlimit:10;}
	.st7{fill:#ED1C24;}
	.st8{fill:#CE3045;}
	.st9{fill:none;stroke:#F7941D;stroke-width:4;stroke-miterlimit:10;}
	.st10{fill:#F7941D;}
	.st11{fill:#FFF342;}
	.st12{fill:#F5846F;}
	.st13{fill:none;stroke:#151220;stroke-width:4;stroke-miterlimit:10;}
	.st14{fill:none;stroke:#231F20;stroke-width:4;stroke-miterlimit:10;}
	.st15{fill:none;stroke:#231F20;stroke-width:3;stroke-miterlimit:10;}
</style>
<g id="background">
</g>
<g id="yellow">
</g>
<g id="glasses">
</g>
<g id="person">
</g>
<g id="computer">
	<path class="st7" d="M269.16,22.47c-5.67,0.42-11.41,1.06-16.68,3.2c-9.53,3.87-16.54,12.25-21.63,21.18
		c-7.11,12.47-11.25,26.5-13.17,40.73c-2.1,15.48-1.52,31.78,5.03,45.95c11.36,24.56,38.32,38.14,64.71,44.12
		c24.97,5.65,54.38,4.89,72.13-13.56c10.99-11.42,15.45-27.62,17.38-43.35c2.84-23.11,0.77-47.66-11.17-67.64
		C345.03,18.43,304.8,19.82,269.16,22.47z"/>
	<path class="st5" d="M368.21,384.45c-21.31,28.11-42.62,56.22-63.94,84.34c-1.36,1.8-2.77,3.7-3.09,5.94
		c-0.24,1.69-8.03,10.17-7.51,11.8c0,0,32.18,13.35,37.31,26.97c6.44,17.12,5.1,32.7,2.69,50.84c-5.11,38.51-24.59,77.28-51.5,89.7
		c23.03,9.74,5.04,2.82,25.55,10.64c61.93,23.6,177.52,45.98,234.67,79.54c7.86-55.66-39.91-104.91-32.05-160.56
		c0.55-3.88,1.15-7.9,3.27-11.2c2.73-4.25,11.65-19.46,16.3-21.45c22.09-9.46,45.86-23.17,69.88-24.06
		c-4.45-32.04-8.13-72.24-12.58-104.28c-25.08,9.98-56.36,46.72-83.35,47.06C446.31,470.43,399.98,429.28,368.21,384.45z"/>
	<path class="st6" d="M124.67,251.76c15.95,53.19,37.41,104.05,72.95,146.71c28.39,34.09,62.62,63.77,102.2,83.82
		s84.45,27.2,128.78,25.34c115-4.81,201.4-88.42,231.26-165.94c11.83-30.7,16.37-63.8,17.33-96.69
		c1.36-46.44-4.47-93.78-23.44-136.19s-52.05-79.58-94.88-97.59"/>
	<path class="st6" d="M201.46,234.68c12.48,68.62,60.98,126.88,119.94,164.14c33.63,21.26,71.82,37.45,97.42,67.9
		c34.23,40.71,38.84,99.23,29.46,152.27c-18.21,79.67-60.5,151.33-99.19,223.32s-75,148.19-79.4,229.79
		c-1.97,36.56,4.81,77.55,33.67,99.55c22.38,15.51,51.02,18.33,78.25,18.77c41.33,0.66,82.72-3.08,123.26-11.13"/>
	<path class="st6" d="M503.87,1160.51c-12.31,5.53-26.33,7.18-39.59,4.64"/>
	<path class="st6" d="M501.48,1144.32c-12.22,3.79-25.25,4.92-37.94,3.29"/>
	<path class="st6" d="M500.66,1127.05c-11.81,4.95-25.26,5.9-37.64,2.65"/>
	<path class="st6" d="M497.17,1109.26c-42.14,2.45-103.21,9.95-139.41-28.98c-55.6-59.8-91.35-214.1-85.35-299.43
		c3.34-47.43,19.87-94.67,53.21-128.56c27.82-28.28,68.12-47.71,106.99-39.77c26.73,5.46,50.14,23.65,63.96,47.17
		c13.82,23.52,18.39,51.92,14.89,78.98c-2.42,18.71-8.59,36.93-18.03,53.26c-29.9,51.73-89.1,79.73-147.52,92.27
		s-118.94,12.71-177.41,25.02S50.7,949.03,20.22,1000.42"/>
	<path class="st6" d="M34.06,1017.35c5.66-12.37,15.07-22.99,26.68-30.09"/>
	<path class="st6" d="M47.91,1031.53c7-10.51,16.31-19.47,27.08-26.05"/>
	<path class="st6" d="M62.14,1042.14c7.66-7.61,15.97-14.57,24.81-20.78"/>
	<path class="st6" d="M77.77,1059.32c34.05-39.15,83.92-64.12,135.67-67.93"/>
	<path class="st6" d="M542.39,21.55c15.54,6.12,29.62,15.91,40.77,28.34"/>
	<path class="st6" d="M523.25,33.04c16.28,6.78,30.97,17.33,42.6,30.58"/>
	<path class="st6" d="M504.23,45.36c18.34,5.87,34.97,16.96,47.43,31.63"/>
	<path class="st6" d="M488.1,56.69c20.73,7.08,38.28,21.59,52.28,38.43s24.78,36.08,35.48,55.19c15.2,27.14,30.39,54.28,45.59,81.43
		c18.29,32.66,36.78,65.61,61.79,93.46c25.01,27.85,57.43,50.55,94.29,57.08s78.17-5.55,100.52-35.58"/>
	<path class="st6" d="M184,237.9c1.9,17.38,6.76,34.44,14.32,50.2"/>
	<path class="st6" d="M162.88,241.98c3.36,17.57,8.31,34.84,14.77,51.52"/>
	<path class="st6" d="M143.15,246.64c3.12,17.18,8.31,33.99,15.42,49.95"/>
	<path class="st6" d="M513.1,440.05c37.77-13.07,65.93-47,78.88-84.81c6.81-19.9,9.89-41.4,6.28-62.12
		c-3.62-20.72-14.36-40.58-31.35-52.98c-16.99-12.4-40.42-16.44-59.77-8.19c-15.58,6.64-27.04,20.02-39.15,31.85
		c-12.12,11.83-26.84,23.03-43.77,23.19c10.12,4.6,17.96,13.96,20.7,24.73c1.68,6.6,1.53,13.54,2.71,20.25
		c3.23,18.32,17.24,34.32,34.97,39.94c17.73,5.62,38.4,0.62,51.6-12.49"/>
	<circle class="st6" cx="252.52" cy="116.02" r="84.75"/>
</g>
</svg>
