<?xml version="1.0" encoding="utf-8"?>
<!-- Generator: Adobe Illustrator 24.2.3, SVG Export Plug-In . SVG Version: 6.00 Build 0)  -->
<svg version="1.1" xmlns="http://www.w3.org/2000/svg" xmlns:xlink="http://www.w3.org/1999/xlink" x="0px" y="0px"
	 viewBox="0 0 1029.77 1044.42" style="enable-background:new 0 0 1029.77 1044.42;" xml:space="preserve">
<style type="text/css">
	.st0{fill:#FFDD00;}
	.st1{fill:#5B7FAD;}
	.st2{fill:none;stroke:#5B7FAD;stroke-width:4;stroke-miterlimit:10;}
	.st3{fill:#F48473;}
	.st4{fill:none;}
	.st5{fill:#C1DC83;}
	.st6{fill:none;stroke:#000000;stroke-width:4;stroke-miterlimit:10;}
	.st7{fill:#ED1C24;}
	.st8{fill:#CE3045;}
	.st9{fill:none;stroke:#F7941D;stroke-width:4;stroke-miterlimit:10;}
	.st10{fill:#F7941D;}
	.st11{fill:#FFF342;}
	.st12{fill:#F5846F;}
	.st13{fill:none;stroke:#151220;stroke-width:4;stroke-miterlimit:10;}
	.st14{fill:none;stroke:#231F20;stroke-width:4;stroke-miterlimit:10;}
	.st15{fill:none;stroke:#231F20;stroke-width:3;stroke-miterlimit:10;}
</style>
<g id="background">
</g>
<g id="yellow">
</g>
<g id="glasses">
</g>
<g id="person">
</g>
<g id="computer">
	<path class="st0" d="M941.14,42.64c-6.22,2.78-8.62,10.3-9.52,17.05c-0.79,5.93-0.96,11.94-0.51,17.9
		c0.08,1.04,0.22,2.16,0.94,2.91c0.57,0.58,1.39,0.82,2.18,1.03c6.14,1.6,12.48,2.39,18.82,2.35c3.38-0.02,6.99-0.37,9.61-2.5
		c1.64-1.33,2.71-3.23,3.59-5.15c3.93-8.5,4.87-18.35,2.62-27.44c-0.33-1.34-0.77-2.73-1.77-3.68
		C962.34,40.62,946.75,40.3,941.14,42.64z"/>
	<path class="st3" d="M396.71,341.17c-7.65,0.01-15.64,2.51-20.62,8.32c-5.24,6.12-6.31,14.94-4.76,22.85
		c0.41,2.12,1.03,4.27,2.4,5.93c1.81,2.19,4.64,3.22,7.32,4.14c4.57,1.58,9.15,3.16,13.72,4.74c2.54,0.88,5.11,1.76,7.78,2.02
		c8.6,0.82,16.84-5.3,20.36-13.19c3.52-7.88,3.02-17.06,0.69-25.38C421.17,341.92,404.49,341.16,396.71,341.17z"/>
	<path class="st1" d="M699.8,629.16c-10.97-19.24-33.68-27.66-53.66-37.22c-47.35-22.68-86.54-58.49-123.23-95.37
		c-32.85-33.02-65.22-68.91-117.41-64.19c-5.82,0.53-11.91,1.82-16.22,5.77c-3.97,3.64-5.86,9.06-6.63,14.4
		c-4.06,28.13,18.24,52.45,38.65,72.23c33.21,32.21,66.86,66.14,84.07,109.08c14.63,36.51,16.21,76.7,23.17,115.4
		c0.85,4.73,1.95,9.76,5.39,13.12c3.76,3.66,9.4,4.45,14.63,4.8c51.39,3.4,103.83-19.68,136.02-59.88
		C702.21,685.29,713.77,653.68,699.8,629.16z M473.14,479.49c-3.83,8.01-10.95,14-18.91,17.32c-17.98,7.52-38.76,3.62-50.34-13.43
		c-6.03-8.88-8.51-20.3-6.74-31.02c0.39-2.38,1.03-4.82,2.52-6.67c2.64-3.28,7.2-3.92,11.3-3.88c11.35,0.11,22.42,3.6,33.13,7.52
		c10.48,3.83,21.39,8.56,27.87,17.98c1.44,2.1,2.66,4.53,2.61,7.11C474.54,476.2,473.9,477.9,473.14,479.49z"/>
	<path class="st12" d="M57.44,335.18c0.8,7.55,2.24,15.92,5.74,22.49c2.56,4.81,9.9,2.35,9.07-3.04
		c-1.09-7.12-2.33-14.22-3.72-21.29c-5.9-30.07-14.53-60.32-11.49-90.82c0.53-5.34-2.6-20.39-8.28-11.75
		c-3.42,5.2,1.63,25.75,2.1,31.88C52.69,286.86,54.89,311.04,57.44,335.18z"/>
	<path class="st12" d="M53.61,214.58c1.02,0.18,7.02,2.11,10.73,9.23c4.71,9.04,4.15,27.19-4.15,32.21
		c-9.84,5.95-22.84-3.73-24.82-13.83c-1.07-5.47-0.7-11.59,1.21-16.82C37.37,223.22,42.15,212.61,53.61,214.58z"/>
	<path class="st6" d="M505.49,1028.85c-36.44,4.49-105.2,7.8-124.11-4.52c-19.86-12.94-14.69-36.86-3.94-58.68
		c8.04-16.31,21.72-35.15,21.72-35.15l-30.72-10.6c44.59-48.22,99.81-109.12,108.01-181.89c10.02-88.8-45.72-210.52-122.92-260.29
		c-81.04-52.24-296.35-90.35-340.13-133.8"/>
	<path class="st6" d="M502.35,1004.74c-5.72,1.73-11.78,2.34-17.73,1.78"/>
	<path class="st6" d="M499.33,991.94c-5.21,1.91-10.84,2.63-16.36,2.09"/>
	<path class="st6" d="M504.29,1015.56c-5.21,1.91-10.84,2.63-16.36,2.09"/>
	<path class="st6" d="M497.53,979.7c-11.27,2.92-66.86,8.01-66.01-11.89c1.6-37.31,152.38-143.5,101.74-331.26
		c-6.87-25.47-35.13-60.25-83.72-40.83c-15.4,6.16-39.81,30.15-23.2,58.1c18.81,31.64,72.44,16.86,111.97-8.04
		c21.16-13.33,39.08-23.54,59.89-35.1c138.36-76.38,227.37,106.73,246.95,136.78l23.95-17.33c10.68,12.47,21.36,24.95,32.04,37.42
		c7.15,8.35,15.1,17.19,25.86,19.44c9.36,1.96,18.95-1.53,27.62-5.54c23.4-10.83,44.76-26.05,62.64-44.64"/>
	<path class="st6" d="M1011.98,727.2c-1.98,4.14-5.62,7.45-9.93,9.03"/>
	<path class="st6" d="M1004.41,718.51c-3.45,3.69-7.3,7-11.46,9.85"/>
	<path class="st6" d="M995.46,708.35c-3.54,3.89-7.08,7.78-10.62,11.67"/>
	<path class="st6" d="M987.08,700.46c-10.28,13.07-43.29,39.76-60.96,22.98c-8.26-7.84-57.39-84.15-88.63-113.31
		c-31.24-29.16-69.18-51.65-110.62-62.08c-47.76-12.02-97.87-7.38-147.07-9.43c-42.47-1.77-93.74-16.73-93.74-62.24
		c0-23.48,21.88-48.66,61.36-43.77c82.8,10.27,180.28,5.02,232.62-59.05c0,0,26.59-33.7,35.22-67.77"/>
	<path class="st6" d="M44.27,304.19C93.68,349.5,259.45,376,435.26,452.41c65.88,27.08,136.8,44.57,206.3,36.04
		c69.5-8.53,137.55-41.34,180.17-96.9c0,0,23.24-30.49,38.12-63.84"/>
	<path class="st6" d="M59.47,327.1c-10.25-3-18.06-9.41-24.75-14"/>
	<path class="st6" d="M46.17,348.6c-10.01-3.02-19.21-10.01-27.75-16.03"/>
	<path class="st6" d="M53.53,338.59c-10.01-3.02-19.21-10.01-27.75-16.03"/>
	<path class="st6" d="M462.7,307.87c7.28,16.33,19.67,30.96,36.11,37.99c-11.65-0.3-22.97,8.06-26.11,19.28
		c-3.07,10.95,1.08,23.13-2.81,33.81c-4.95,13.57-21.99,19.77-36.02,16.35c-14.03-3.42-25.16-14.16-33.58-25.9
		c-8.42-11.74-14.84-24.84-23.73-36.22c-9.24-11.83-21.47-21.83-35.91-25.96c-18.12-5.18-37.37-0.71-56.14,0.92
		c-33.27,2.9-67.29-3.44-97.28-18.13c-14.96-7.32-29.39-17.16-37.87-31.5c-8.69-14.68-10.21-32.93-6.33-49.54
		s12.79-31.72,23.67-44.87c19.36-23.4,49.29-42.11,78.92-35.44c18.59,4.19,34.22,18.22,42.32,35.48c8.1,17.25,9.11,37.34,4.9,55.93
		c-0.78,3.45-2.16,7.35-5.48,8.55c-3.8,1.38-8.01-1.9-9.09-5.79s0.1-8.02,1.45-11.83c6.6-18.72,18.37-36.9,36.53-44.92
		c25.19-11.12,60.75-8.55,70.33,26.44C408.57,292.97,438.02,252.54,462.7,307.87z"/>
	<path class="st6" d="M875.63,237.73c18.79,5.67,38.04,11.39,57.64,10.42c19.6-0.97,39.97-9.96,49.28-27.24
		c5.89-10.94,6.77-24.12,4.14-36.27c-5.13-23.73-24.25-44.19-47.89-49.72c-23.64-5.52-50.49,4.92-63.19,25.61
		c-13.91,22.66-10.08,52.07-19.96,76.76c-11.42,28.54-39.48,46.87-67.77,58.87c-5.94,2.52-14.28,4.15-17.62-1.37
		c-3.47-5.72,2.38-12.51,7.82-16.4C809.62,255.86,848.45,229.54,875.63,237.73z"/>
	<path class="st6" d="M952.4,14.15c-8.6-6.63-22.79-3.86-28.27,5.51c-2.41,4.12-3.21,9-5.35,13.27
		c-5.99,11.96-21.62,17.8-25.01,30.74c-2.66,10.16,4.27,21.29,14.02,25.16s21.25,1.37,29.88-4.6c8.64-5.97,14.74-14.98,19.29-24.44
		c3.82-7.93,6.72-16.57,6.25-25.36S957.56,18.12,952.4,14.15z"/>
	<path class="st6" d="M926.49,43.8c-3.55,2.11-15.87,12.82-5.58,21.21c3.78,3.08,13.04,0.44,16.46-2.28
		C949.01,53.48,942.57,34.24,926.49,43.8z"/>
	<path class="st6" d="M826.35,310.97c-2.98,8.96-6.66,17.68-10.99,26.06"/>
	<path class="st6" d="M837.33,315.27c-2.24,9.37-5.98,18.38-11.02,26.59"/>
	<path class="st6" d="M849.51,320.93c-3.56,9.81-8.13,19.25-13.62,28.13"/>
	<line class="st6" x1="399.16" y1="930.5" x2="442.25" y2="945.17"/>
	<line class="st6" x1="909.82" y1="701.32" x2="869.1" y2="730.12"/>
	<circle class="st6" cx="778.22" cy="291.17" r="3"/>
	<path class="st6" d="M452.52,324.72c1.24,8.06-4.28,15.59-12.34,16.83s-15.59-4.28-16.83-12.34"/>
</g>
</svg>
