<?xml version="1.0" encoding="utf-8"?>
<!-- Generator: Adobe Illustrator 24.2.3, SVG Export Plug-In . SVG Version: 6.00 Build 0)  -->
<svg version="1.1" xmlns="http://www.w3.org/2000/svg" xmlns:xlink="http://www.w3.org/1999/xlink" x="0px" y="0px"
	 viewBox="0 0 945.3 966.56" style="enable-background:new 0 0 945.3 966.56;" xml:space="preserve">
<style type="text/css">
	.st0{fill:#FFDD00;}
	.st1{fill:#5B7FAD;}
	.st2{fill:none;stroke:#5B7FAD;stroke-width:4;stroke-miterlimit:10;}
	.st3{fill:#F48473;}
	.st4{fill:none;}
	.st5{fill:#C1DC83;}
	.st6{fill:none;stroke:#000000;stroke-width:4;stroke-miterlimit:10;}
	.st7{fill:#ED1C24;}
	.st8{fill:#CE3045;}
	.st9{fill:none;stroke:#F7941D;stroke-width:4;stroke-miterlimit:10;}
	.st10{fill:#F7941D;}
	.st11{fill:#FFF342;}
	.st12{fill:#F5846F;}
	.st13{fill:none;stroke:#151220;stroke-width:4;stroke-miterlimit:10;}
	.st14{fill:none;stroke:#231F20;stroke-width:4;stroke-miterlimit:10;}
	.st15{fill:none;stroke:#231F20;stroke-width:3;stroke-miterlimit:10;}
</style>
<g id="background">
</g>
<g id="yellow">
	<path class="st0" d="M916.71,167.39c-12.49-24.49-39.52-42.1-66.88-39.4c-47.52,4.68-74.87,62.36-121.8,71.2
		c-23.96,4.51-48.05-4.75-71.68-10.75s-51.45-7.86-69.73,8.28c-5.54,4.9-9.78,11.15-15.45,15.91
		c-27.67,23.26-73.53,1.63-104.37,20.49c-12.27,7.5-20.27,20.59-24.66,34.28c-15.66,48.76,16.65,107.36,66.24,120.15
		c14.96,3.86,30.59,3.98,46.03,4.08c40.96,0.27,81.92,0.54,122.88,0.81c32.69,0.22,65.4,0.43,98.07-1.02
		c8.53-0.38,17.46-1,24.7-5.52c5.42-3.38,9.36-8.64,13.2-13.74c26.59-35.32,54.89-69.35,84.77-101.94
		C924.88,240.97,936.4,206,916.71,167.39z"/>
	<path class="st0" d="M916.71,167.49c-12.49-24.49-39.52-42.1-66.88-39.4c-47.52,4.68-74.87,62.36-121.8,71.2
		c-23.96,4.51-48.05-4.75-71.68-10.75c-23.64-6-51.45-7.86-69.73,8.28c-5.54,4.9-9.78,11.15-15.45,15.91
		c-27.67,23.26-73.53,1.63-104.37,20.49c-12.27,7.5-20.27,20.59-24.66,34.28c-15.66,48.76,16.65,107.36,66.24,120.15
		c14.96,3.86,30.59,3.98,46.03,4.08c40.96,0.27,81.92,0.54,122.88,0.81c32.69,0.22,65.4,0.43,98.07-1.02
		c8.53-0.38,17.46-1,24.7-5.52c5.42-3.38,9.36-8.64,13.2-13.74c26.59-35.32,54.89-69.35,84.77-101.94
		C924.88,241.06,936.4,206.1,916.71,167.49z"/>
	<path class="st0" d="M916.71,167.59c-12.49-24.49-39.52-42.1-66.88-39.4c-47.52,4.68-74.87,62.36-121.8,71.2
		c-23.96,4.51-48.05-4.75-71.68-10.75s-51.45-7.86-69.73,8.28c-5.54,4.9-9.78,11.15-15.45,15.91
		c-27.67,23.26-73.53,1.63-104.37,20.49c-12.27,7.5-20.27,20.59-24.66,34.28c-15.66,48.76,16.65,107.36,66.24,120.15
		c14.96,3.86,30.59,3.98,46.03,4.08c40.96,0.27,81.92,0.54,122.88,0.81c32.69,0.22,65.4,0.43,98.07-1.02
		c8.53-0.38,17.46-1,24.7-5.52c5.42-3.38,9.36-8.64,13.2-13.74c26.59-35.32,54.89-69.35,84.77-101.94
		C924.88,241.16,936.4,206.19,916.71,167.59z"/>
	<path class="st0" d="M916.71,167.68c-12.49-24.49-39.52-42.1-66.88-39.4c-47.52,4.68-74.87,62.36-121.8,71.2
		c-23.96,4.51-48.05-4.75-71.68-10.75s-51.45-7.86-69.73,8.28c-5.54,4.9-9.78,11.15-15.45,15.91
		c-27.67,23.26-73.53,1.63-104.37,20.49c-12.27,7.5-20.27,20.59-24.66,34.28c-15.66,48.76,16.65,107.36,66.24,120.15
		c14.96,3.86,30.59,3.98,46.03,4.08c40.96,0.27,81.92,0.54,122.88,0.81c32.69,0.22,65.4,0.43,98.07-1.02
		c8.53-0.38,17.46-1,24.7-5.52c5.42-3.38,9.36-8.64,13.2-13.74c26.59-35.32,54.89-69.35,84.77-101.94
		C924.88,241.25,936.4,206.29,916.71,167.68z"/>
	<path class="st0" d="M916.71,167.78c-12.49-24.49-39.52-42.1-66.88-39.4c-47.52,4.68-74.87,62.36-121.8,71.2
		c-23.96,4.51-48.05-4.75-71.68-10.75s-51.45-7.86-69.73,8.28c-5.54,4.9-9.78,11.15-15.45,15.91
		c-27.67,23.26-73.53,1.63-104.37,20.49c-12.27,7.5-20.27,20.59-24.66,34.28c-15.66,48.76,16.65,107.36,66.24,120.15
		c14.96,3.86,30.59,3.98,46.03,4.08c40.96,0.27,81.92,0.54,122.88,0.81c32.69,0.22,65.4,0.43,98.07-1.02
		c8.53-0.38,17.46-1,24.7-5.52c5.42-3.38,9.36-8.64,13.2-13.74c26.59-35.32,54.89-69.35,84.77-101.94
		C924.88,241.35,936.4,206.38,916.71,167.78z"/>
	<path class="st0" d="M916.71,167.87c-12.49-24.49-39.52-42.1-66.88-39.4c-47.52,4.68-74.87,62.36-121.8,71.2
		c-23.96,4.51-48.05-4.75-71.68-10.75s-51.45-7.86-69.73,8.28c-5.54,4.9-9.78,11.15-15.45,15.91
		c-27.67,23.26-73.53,1.63-104.37,20.49c-12.27,7.5-20.27,20.59-24.66,34.28c-15.66,48.76,16.65,107.36,66.24,120.15
		c14.96,3.86,30.59,3.98,46.03,4.08c40.96,0.27,81.92,0.54,122.88,0.81c32.69,0.22,65.4,0.43,98.07-1.02
		c8.53-0.38,17.46-1,24.7-5.52c5.42-3.38,9.36-8.64,13.2-13.74c26.59-35.32,54.89-69.35,84.77-101.94
		C924.88,241.45,936.4,206.48,916.71,167.87z"/>
	<path class="st0" d="M916.71,167.97c-12.49-24.49-39.52-42.1-66.88-39.4c-47.52,4.68-74.87,62.36-121.8,71.2
		c-23.96,4.51-48.05-4.75-71.68-10.75s-51.45-7.86-69.73,8.28c-5.54,4.9-9.78,11.15-15.45,15.91
		c-27.67,23.26-73.53,1.63-104.37,20.49c-12.27,7.5-20.27,20.59-24.66,34.28c-15.66,48.76,16.65,107.36,66.24,120.15
		c14.96,3.86,30.59,3.98,46.03,4.08c40.96,0.27,81.92,0.54,122.88,0.81c32.69,0.22,65.4,0.43,98.07-1.02
		c8.53-0.38,17.46-1,24.7-5.52c5.42-3.38,9.36-8.64,13.2-13.74c26.59-35.32,54.89-69.35,84.77-101.94
		C924.88,241.54,936.4,206.57,916.71,167.97z"/>
	<path class="st0" d="M916.71,168.06c-12.49-24.49-39.52-42.1-66.88-39.4c-47.52,4.68-74.87,62.36-121.8,71.2
		c-23.96,4.51-48.05-4.75-71.68-10.75s-51.45-7.86-69.73,8.28c-5.54,4.9-9.78,11.15-15.45,15.91
		c-27.67,23.26-73.53,1.63-104.37,20.49c-12.27,7.5-20.27,20.59-24.66,34.28c-15.66,48.76,16.65,107.36,66.24,120.15
		c14.96,3.86,30.59,3.98,46.03,4.08c40.96,0.27,81.92,0.54,122.88,0.81c32.69,0.22,65.4,0.43,98.07-1.02
		c8.53-0.38,17.46-1,24.7-5.52c5.42-3.38,9.36-8.64,13.2-13.74c26.59-35.32,54.89-69.35,84.77-101.94
		C924.88,241.64,936.4,206.67,916.71,168.06z"/>
	<path class="st0" d="M916.71,168.16c-12.49-24.49-39.52-42.1-66.88-39.4c-47.52,4.68-74.87,62.36-121.8,71.2
		c-23.96,4.51-48.05-4.75-71.68-10.75s-51.45-7.86-69.73,8.28c-5.54,4.9-9.78,11.15-15.45,15.91
		c-27.67,23.26-73.53,1.63-104.37,20.49c-12.27,7.5-20.27,20.59-24.66,34.28c-15.66,48.76,16.65,107.36,66.24,120.15
		c14.96,3.86,30.59,3.98,46.03,4.08c40.96,0.27,81.92,0.54,122.88,0.81c32.69,0.22,65.4,0.43,98.07-1.02
		c8.53-0.38,17.46-1,24.7-5.52c5.42-3.38,9.36-8.64,13.2-13.74c26.59-35.32,54.89-69.35,84.77-101.94
		C924.88,241.73,936.4,206.76,916.71,168.16z"/>
	<path class="st0" d="M916.71,168.25c-12.49-24.49-39.52-42.1-66.88-39.4c-47.52,4.68-74.87,62.36-121.8,71.2
		c-23.96,4.51-48.05-4.75-71.68-10.75c-23.64-6-51.45-7.86-69.73,8.28c-5.54,4.9-9.78,11.15-15.45,15.91
		c-27.67,23.26-73.53,1.63-104.37,20.49c-12.27,7.5-20.27,20.59-24.66,34.28c-15.66,48.76,16.65,107.36,66.24,120.15
		c14.96,3.86,30.59,3.98,46.03,4.08c40.96,0.27,81.92,0.54,122.88,0.81c32.69,0.22,65.4,0.43,98.07-1.02
		c8.53-0.38,17.46-1,24.7-5.52c5.42-3.38,9.36-8.64,13.2-13.74c26.59-35.32,54.89-69.35,84.77-101.94
		C924.88,241.83,936.4,206.86,916.71,168.25z"/>
	<path class="st0" d="M916.71,168.35c-12.49-24.49-39.52-42.1-66.88-39.4c-47.52,4.68-74.87,62.36-121.8,71.2
		c-23.96,4.51-48.05-4.75-71.68-10.75s-51.45-7.86-69.73,8.28c-5.54,4.9-9.78,11.15-15.45,15.91
		c-27.67,23.26-73.53,1.63-104.37,20.49c-12.27,7.5-20.27,20.59-24.66,34.28c-15.66,48.76,16.65,107.36,66.24,120.15
		c14.96,3.86,30.59,3.98,46.03,4.08c40.96,0.27,81.92,0.54,122.88,0.81c32.69,0.22,65.4,0.43,98.07-1.02
		c8.53-0.38,17.46-1,24.7-5.52c5.42-3.38,9.36-8.64,13.2-13.74c26.59-35.32,54.89-69.35,84.77-101.94
		C924.88,241.92,936.4,206.95,916.71,168.35z"/>
</g>
<g id="glasses">
	<path class="st1" d="M401.96,72.69c-4.54,6.61-5.12,15.27-3.64,23.16c1.51,8.08,5.27,16.07,11.9,20.92
		c6.63,4.85,16.47,5.77,22.96,0.74c7.19-5.57,8.25-15.92,7.89-25c-0.24-6.03-0.89-12.22-3.69-17.56
		C430.71,62.3,410.16,60.75,401.96,72.69z"/>
	<path class="st1" d="M462.83,65.06c-2.67,0.42-5.43,0.87-7.67,2.39c-4.34,2.96-5.3,8.85-5.79,14.07c-0.54,5.89-0.95,11.85,0,17.68
		c0.96,5.83,3.41,11.59,7.81,15.54s10.94,5.76,16.45,3.63c3.16-1.22,5.76-3.59,7.87-6.24c5.48-6.87,8.03-16.01,6.92-24.73
		c-0.91-7.15-4.25-13.53-9.08-18.81C474.38,63.17,470.04,63.94,462.83,65.06z"/>
	<path class="st1" d="M401.96,72.79c-4.54,6.61-5.12,15.27-3.64,23.16c1.51,8.08,5.27,16.07,11.9,20.92
		c6.63,4.85,16.47,5.77,22.96,0.74c7.19-5.57,8.25-15.92,7.89-25c-0.24-6.03-0.89-12.22-3.69-17.56
		C430.71,62.4,410.16,60.85,401.96,72.79z"/>
	<path class="st1" d="M462.83,65.16c-2.67,0.42-5.43,0.87-7.67,2.39c-4.34,2.96-5.3,8.85-5.79,14.07c-0.54,5.89-0.95,11.85,0,17.68
		c0.96,5.83,3.41,11.59,7.81,15.54s10.94,5.76,16.45,3.63c3.16-1.22,5.76-3.59,7.87-6.24c5.48-6.87,8.03-16.01,6.92-24.73
		c-0.91-7.15-4.25-13.53-9.08-18.81C474.38,63.27,470.04,64.03,462.83,65.16z"/>
	<path class="st1" d="M401.96,72.88c-4.54,6.61-5.12,15.27-3.64,23.16c1.51,8.08,5.27,16.07,11.9,20.92
		c6.63,4.85,16.47,5.77,22.96,0.74c7.19-5.57,8.25-15.92,7.89-25c-0.24-6.03-0.89-12.22-3.69-17.56
		C430.71,62.49,410.16,60.94,401.96,72.88z"/>
	<path class="st1" d="M462.83,65.25c-2.67,0.42-5.43,0.87-7.67,2.39c-4.34,2.96-5.3,8.85-5.79,14.07c-0.54,5.89-0.95,11.85,0,17.68
		c0.96,5.83,3.41,11.59,7.81,15.54s10.94,5.76,16.45,3.63c3.16-1.22,5.76-3.59,7.87-6.24c5.48-6.87,8.03-16.01,6.92-24.73
		c-0.91-7.15-4.25-13.53-9.08-18.81C474.38,63.36,470.04,64.13,462.83,65.25z"/>
	<path class="st1" d="M401.96,72.98c-4.54,6.61-5.12,15.27-3.64,23.16c1.51,8.08,5.27,16.07,11.9,20.92
		c6.63,4.85,16.47,5.77,22.96,0.74c7.19-5.57,8.25-15.92,7.89-25c-0.24-6.03-0.89-12.22-3.69-17.56
		C430.71,62.59,410.16,61.04,401.96,72.98z"/>
	<path class="st1" d="M462.83,65.35c-2.67,0.42-5.43,0.87-7.67,2.39c-4.34,2.96-5.3,8.85-5.79,14.07c-0.54,5.89-0.95,11.85,0,17.68
		c0.96,5.83,3.41,11.59,7.81,15.54c4.4,3.95,10.94,5.76,16.45,3.63c3.16-1.22,5.76-3.59,7.87-6.24c5.48-6.87,8.03-16.01,6.92-24.73
		c-0.91-7.15-4.25-13.53-9.08-18.81C474.38,63.46,470.04,64.22,462.83,65.35z"/>
	<path class="st1" d="M401.96,73.07c-4.54,6.61-5.12,15.27-3.64,23.16c1.51,8.08,5.27,16.07,11.9,20.92
		c6.63,4.85,16.47,5.77,22.96,0.74c7.19-5.57,8.25-15.92,7.89-25c-0.24-6.03-0.89-12.22-3.69-17.56
		C430.71,62.68,410.16,61.13,401.96,73.07z"/>
	<path class="st1" d="M462.83,65.44c-2.67,0.42-5.43,0.87-7.67,2.39c-4.34,2.96-5.3,8.85-5.79,14.07c-0.54,5.89-0.95,11.85,0,17.68
		c0.96,5.83,3.41,11.59,7.81,15.54s10.94,5.76,16.45,3.63c3.16-1.22,5.76-3.59,7.87-6.24c5.48-6.87,8.03-16.01,6.92-24.73
		c-0.91-7.15-4.25-13.53-9.08-18.81C474.38,63.55,470.04,64.32,462.83,65.44z"/>
	<path class="st1" d="M401.96,73.17c-4.54,6.61-5.12,15.27-3.64,23.16c1.51,8.08,5.27,16.07,11.9,20.92
		c6.63,4.85,16.47,5.77,22.96,0.74c7.19-5.57,8.25-15.92,7.89-25c-0.24-6.03-0.89-12.22-3.69-17.56
		C430.71,62.78,410.16,61.23,401.96,73.17z"/>
	<path class="st1" d="M462.83,65.54c-2.67,0.42-5.43,0.87-7.67,2.39c-4.34,2.96-5.3,8.85-5.79,14.07c-0.54,5.89-0.95,11.85,0,17.68
		c0.96,5.83,3.41,11.59,7.81,15.54s10.94,5.76,16.45,3.63c3.16-1.22,5.76-3.59,7.87-6.24c5.48-6.87,8.03-16.01,6.92-24.73
		c-0.91-7.15-4.25-13.53-9.08-18.81C474.38,63.65,470.04,64.41,462.83,65.54z"/>
	<path class="st1" d="M401.96,73.26c-4.54,6.61-5.12,15.27-3.64,23.16c1.51,8.08,5.27,16.07,11.9,20.92
		c6.63,4.85,16.47,5.77,22.96,0.74c7.19-5.57,8.25-15.92,7.89-25c-0.24-6.03-0.89-12.22-3.69-17.56
		C430.71,62.87,410.16,61.32,401.96,73.26z"/>
	<path class="st1" d="M462.83,65.63c-2.67,0.42-5.43,0.87-7.67,2.39c-4.34,2.96-5.3,8.85-5.79,14.07c-0.54,5.89-0.95,11.85,0,17.68
		c0.96,5.83,3.41,11.59,7.81,15.54s10.94,5.76,16.45,3.63c3.16-1.22,5.76-3.59,7.87-6.24c5.48-6.87,8.03-16.01,6.92-24.73
		c-0.91-7.15-4.25-13.53-9.08-18.81C474.38,63.74,470.04,64.51,462.83,65.63z"/>
	<path class="st1" d="M401.96,73.36c-4.54,6.61-5.12,15.27-3.64,23.16c1.51,8.08,5.27,16.07,11.9,20.92
		c6.63,4.85,16.47,5.77,22.96,0.74c7.19-5.57,8.25-15.92,7.89-25c-0.24-6.03-0.89-12.22-3.69-17.56
		C430.71,62.97,410.16,61.42,401.96,73.36z"/>
	<path class="st1" d="M462.83,65.73c-2.67,0.42-5.43,0.87-7.67,2.39c-4.34,2.96-5.3,8.85-5.79,14.07c-0.54,5.89-0.95,11.85,0,17.68
		c0.96,5.83,3.41,11.59,7.81,15.54s10.94,5.76,16.45,3.63c3.16-1.22,5.76-3.59,7.87-6.24c5.48-6.87,8.03-16.01,6.92-24.73
		c-0.91-7.15-4.25-13.53-9.08-18.81C474.38,63.84,470.04,64.6,462.83,65.73z"/>
	<path class="st1" d="M401.96,73.45c-4.54,6.61-5.12,15.27-3.64,23.16c1.51,8.08,5.27,16.07,11.9,20.92
		c6.63,4.85,16.47,5.77,22.96,0.74c7.19-5.57,8.25-15.92,7.89-25c-0.24-6.03-0.89-12.22-3.69-17.56
		C430.71,63.06,410.16,61.51,401.96,73.45z"/>
	<path class="st1" d="M462.83,65.82c-2.67,0.42-5.43,0.87-7.67,2.39c-4.34,2.96-5.3,8.85-5.79,14.07c-0.54,5.89-0.95,11.85,0,17.68
		c0.96,5.83,3.41,11.59,7.81,15.54s10.94,5.76,16.45,3.63c3.16-1.22,5.76-3.59,7.87-6.24c5.48-6.87,8.03-16.01,6.92-24.73
		c-0.91-7.15-4.25-13.53-9.08-18.81C474.38,63.93,470.04,64.7,462.83,65.82z"/>
	<path class="st1" d="M401.96,73.55c-4.54,6.61-5.12,15.27-3.64,23.16c1.51,8.08,5.27,16.07,11.9,20.92
		c6.63,4.85,16.47,5.77,22.96,0.74c7.19-5.57,8.25-15.92,7.89-25c-0.24-6.03-0.89-12.22-3.69-17.56
		C430.71,63.16,410.16,61.61,401.96,73.55z"/>
	<path class="st1" d="M462.83,65.92c-2.67,0.42-5.43,0.87-7.67,2.39c-4.34,2.96-5.3,8.85-5.79,14.07c-0.54,5.89-0.95,11.85,0,17.68
		c0.96,5.83,3.41,11.59,7.81,15.54s10.94,5.76,16.45,3.63c3.16-1.22,5.76-3.59,7.87-6.24c5.48-6.87,8.03-16.01,6.92-24.73
		c-0.91-7.15-4.25-13.53-9.08-18.81C474.38,64.03,470.04,64.79,462.83,65.92z"/>
	<path class="st1" d="M401.96,73.64c-4.54,6.61-5.12,15.27-3.64,23.16c1.51,8.08,5.27,16.07,11.9,20.92
		c6.63,4.85,16.47,5.77,22.96,0.74c7.19-5.57,8.25-15.92,7.89-25c-0.24-6.03-0.89-12.22-3.69-17.56
		C430.71,63.25,410.16,61.7,401.96,73.64z"/>
	<path class="st1" d="M462.83,66.01c-2.67,0.42-5.43,0.87-7.67,2.39c-4.34,2.96-5.3,8.85-5.79,14.07c-0.54,5.89-0.95,11.85,0,17.68
		c0.96,5.83,3.41,11.59,7.81,15.54s10.94,5.76,16.45,3.63c3.16-1.22,5.76-3.59,7.87-6.24c5.48-6.87,8.03-16.01,6.92-24.73
		c-0.91-7.15-4.25-13.53-9.08-18.81C474.38,64.12,470.04,64.89,462.83,66.01z"/>
	<path class="st2" d="M437.86,89.84c4.43-1.21,9.07-1.65,13.65-1.3"/>
</g>
<g id="person">
	<path class="st6" d="M321.71,948.28c-19.24-16.96-25.54-22.61-37.68-42.17c-17.74-28.6-21.46-48.41-10.73-80.31
		c10.73-31.9,45.72-68.48,63.87-96.82c7.74-12.08,34.33-50.78-54.56-65.22c-42.97-6.98-128.24-23.09-183.25,63.57
		c-43.58,68.66-57.55,126.68-76.75,201.72c0,0-4.27,13.58,9.05,14.58c6.63,0.49,12.46-1.79,16.64-15.58
		c26.18-86.39,61.88-223.53,146.09-240.48c25.56-5.14,39.77-3.91,65.59-0.33"/>
	<path class="st6" d="M378.08,917.13c-23.96-19.49-46.34-46-45.63-76.88c0.68-29.36,21.97-53.89,43.79-73.56
		c41.26-37.2,90.18-77.23,128.28-117.66c26.77-28.4,47.11-51.71,62.4-87.62c9.24-21.69,16.17-46.26,8.55-68.57
		c-10.99-32.19-49.67-48.03-83.43-43.86s-63.49,23.53-91.35,43.04c-63.78,44.65-113.33,122.65-211.04,138.63
		c-27.1,4.43-68.9-6.05-61.39-41.53c15.2-71.83,223.54-92.03,323.15-81.03c112.78,12.46,205.06,57.85,265.75,160.47
		c35.81,60.56,79.72,201.89,130.83,212.81c19.92,4.26,40.41-1.44,59.82-7.58"/>
	<path class="st6" d="M926.47,925.76c-33.69,10.74-123.23,29.93-159.72-26.96c-54.93-85.64-59.15-116.99-101.79-174.4
		c-37.76-50.84-95.93-106.44-190.11-104.15c-45.88,1.11-92.32,7.4-146.37,15.43c-54.75,8.13-99.85,0.65-132.91-27.8
		c-79.75-68.63-58.9-164.38-19.04-267.33c13.92-35.96,28.92-72.56,30.15-111.1c0.41-13.02-3.44-30.9-16.16-33.7
		c-10.11-2.23-23.87,3.88-32.33,29.46c-11.5,34.78-15.23,72.09-11.08,108.48c6.16,54,36.44,89.75,84.31,115.49
		c36.97,19.88,110.06,23.37,162.07-4.56c76.46-41.06,133.83-103.98,167.64-118.53c12.23-5.27,27-6.22,38.79-0.03
		c17.4,9.14,20.35,31.67,20.94,51.31"/>
	<path class="st6" d="M626.89,334.26c6.48,12.41,9.7,26.49,9.25,40.48"/>
	<path class="st6" d="M641.93,329.24c6.21,12.83,9.11,27.25,8.34,41.48"/>
	<path class="st6" d="M664.6,369.24c-0.21-15.77-0.57-32.18-8.45-47.64c9.53,13.2,21.55,24.58,35.24,33.38"/>
	<path class="st6" d="M703.36,345.49c-22.58-11.06-33.94-36.54-53.08-52.84c-26.42-22.49-68.4-33.69-105.05-22.4
		c-55.16,16.99-176.23,124.55-236.51,119.09c-75.62-6.85-48.79-129.79,9.36-175c27.23-21.17,57.09-19.7,57.09-19.7
		c29.41-1.3,62.42,7.51,69.59-10.63c2.88-7.27,4.76-25.29,5.4-33.09c1.28-15.71,12.57-18.5,28.08-21.26
		c-21.26-21.71-12.38-59.19-27.38-85.61c-14.93-26.31-36.59-37.65-68.1-34.96c-41.41,3.53-61.64,28.97-60.13,85.71
		c0.53,19.97-10.14,38.69-47.34,55.92"/>
	<path class="st6" d="M911.31,887.25c-7.94,2.58-13.07,3.98-22.57,5.21"/>
	<path class="st6" d="M916,900.26c-6.69,1.61-16.52,3.4-23.21,5.02"/>
	<path class="st6" d="M921.22,912.6c-6.47,2.17-16.25,4.01-22.98,5.15"/>
	<path class="st6" d="M334.31,939.6c-5.29-5.6-10.58-11.21-15.87-16.81"/>
	<path class="st6" d="M349.47,932.91c-5.29-5.6-10.58-11.21-15.87-16.81"/>
	<path class="st6" d="M344.57,905.86c5.91,7.19,12.65,13.69,20.04,19.33"/>
	<path class="st6" d="M321.71,948.38c-19.24-16.96-25.54-22.61-37.68-42.17c-17.74-28.6-21.46-48.41-10.73-80.31
		c10.73-31.9,45.72-68.48,63.87-96.82c7.74-12.08,34.33-50.78-54.56-65.22c-42.97-6.98-128.24-23.09-183.25,63.57
		c-43.58,68.66-57.55,126.68-76.75,201.72c0,0-4.27,13.58,9.05,14.58c6.63,0.49,12.46-1.79,16.64-15.58
		c26.18-86.39,61.88-223.53,146.09-240.48c25.56-5.14,39.77-3.91,65.59-0.33"/>
	<path class="st6" d="M378.08,917.23c-23.96-19.49-46.34-46-45.63-76.88c0.68-29.36,21.97-53.89,43.79-73.56
		c41.26-37.2,90.18-77.23,128.28-117.66c26.77-28.4,47.11-51.71,62.4-87.62c9.24-21.69,16.17-46.26,8.55-68.57
		c-10.99-32.19-49.67-48.03-83.43-43.86c-33.76,4.17-63.49,23.53-91.35,43.04c-63.78,44.65-113.33,122.65-211.04,138.63
		c-27.1,4.43-68.9-6.05-61.39-41.53c15.2-71.83,223.54-92.03,323.15-81.03c112.78,12.46,205.06,57.85,265.75,160.47
		c35.81,60.56,79.72,201.89,130.83,212.81c19.92,4.26,40.41-1.44,59.82-7.58"/>
	<path class="st6" d="M926.47,925.86c-33.69,10.74-123.23,29.93-159.72-26.96c-54.93-85.64-59.15-116.99-101.79-174.4
		c-37.76-50.84-95.93-106.44-190.11-104.15c-45.88,1.11-92.32,7.4-146.37,15.43c-54.75,8.12-99.85,0.65-132.91-27.8
		c-79.75-68.64-58.9-164.38-19.04-267.33c13.92-35.96,28.92-72.56,30.15-111.1c0.41-13.02-3.44-30.9-16.16-33.7
		c-10.11-2.23-23.87,3.88-32.33,29.46c-11.5,34.78-15.23,72.09-11.08,108.48c6.16,54,36.44,89.75,84.31,115.49
		c36.97,19.88,110.06,23.37,162.07-4.56c76.46-41.06,133.83-103.98,167.64-118.53c12.23-5.27,27-6.22,38.79-0.03
		c17.4,9.14,20.35,31.67,20.94,51.31"/>
	<path class="st6" d="M626.89,334.35c6.48,12.41,9.7,26.49,9.25,40.48"/>
	<path class="st6" d="M641.93,329.33c6.21,12.83,9.11,27.25,8.34,41.48"/>
	<path class="st6" d="M664.6,369.33c-0.21-15.77-0.57-32.18-8.45-47.64c9.53,13.2,21.55,24.58,35.24,33.38"/>
	<path class="st6" d="M703.36,345.58c-22.58-11.06-33.94-36.54-53.08-52.84c-26.42-22.49-68.4-33.69-105.05-22.4
		c-55.16,16.99-176.23,124.55-236.51,119.09c-75.62-6.85-48.79-129.79,9.36-175c27.23-21.17,57.09-19.7,57.09-19.7
		c29.41-1.3,62.42,7.51,69.59-10.63c2.88-7.27,4.76-25.29,5.4-33.09c1.28-15.71,12.57-18.5,28.08-21.26
		c-21.26-21.71-12.38-59.19-27.38-85.61c-14.93-26.31-36.59-37.65-68.1-34.96c-41.41,3.53-61.64,28.97-60.13,85.71
		c0.53,19.97-10.14,38.69-47.34,55.92"/>
	<path class="st6" d="M334.31,939.7c-5.29-5.6-10.58-11.21-15.87-16.81"/>
	<path class="st6" d="M349.47,933.01c-5.29-5.6-10.58-11.21-15.87-16.81"/>
	<path class="st6" d="M344.57,905.96c5.91,7.19,12.65,13.69,20.04,19.33"/>
	<path class="st6" d="M321.71,948.47c-19.24-16.96-25.54-22.61-37.68-42.17c-17.74-28.6-21.46-48.41-10.73-80.31
		c10.73-31.9,45.72-68.48,63.87-96.82c7.74-12.08,34.33-50.78-54.56-65.22c-42.97-6.98-128.24-23.09-183.25,63.57
		C55.78,796.17,41.81,854.2,22.62,929.24c0,0-4.27,13.58,9.05,14.58c6.63,0.49,12.46-1.79,16.64-15.58
		c26.18-86.39,61.88-223.53,146.09-240.48c25.56-5.14,39.77-3.91,65.59-0.33"/>
	<path class="st6" d="M378.08,917.32c-23.96-19.49-46.34-46-45.63-76.88c0.68-29.36,21.97-53.89,43.79-73.56
		c41.26-37.2,90.18-77.23,128.28-117.66c26.77-28.4,47.11-51.71,62.4-87.62c9.24-21.69,16.17-46.26,8.55-68.57
		c-10.99-32.19-49.67-48.03-83.43-43.86c-33.76,4.17-63.49,23.53-91.35,43.04c-63.78,44.65-113.33,122.65-211.04,138.63
		c-27.1,4.43-68.9-6.05-61.39-41.53c15.2-71.83,223.54-92.03,323.15-81.03c112.78,12.46,205.06,57.85,265.75,160.47
		c35.81,60.56,79.72,201.89,130.83,212.81c19.92,4.26,40.41-1.44,59.82-7.58"/>
	<path class="st6" d="M926.47,925.95c-33.69,10.74-123.23,29.93-159.72-26.96C711.82,813.34,707.6,782,664.96,724.59
		c-37.76-50.84-95.93-106.44-190.11-104.15c-45.88,1.11-92.32,7.4-146.37,15.43c-54.75,8.13-99.85,0.65-132.91-27.8
		c-79.75-68.63-58.9-164.38-19.04-267.33c13.92-35.96,28.92-72.56,30.15-111.1c0.41-13.02-3.44-30.9-16.16-33.7
		c-10.11-2.23-23.87,3.88-32.33,29.46c-11.5,34.78-15.23,72.09-11.08,108.48c6.16,54,36.44,89.75,84.31,115.49
		c36.97,19.88,110.06,23.37,162.07-4.56c76.46-41.06,133.83-103.98,167.64-118.53c12.23-5.27,27-6.22,38.79-0.03
		c17.4,9.14,20.35,31.67,20.94,51.31"/>
	<path class="st6" d="M626.89,334.45c6.48,12.41,9.7,26.49,9.25,40.48"/>
	<path class="st6" d="M641.93,329.43c6.21,12.83,9.11,27.25,8.34,41.48"/>
	<path class="st6" d="M664.6,369.43c-0.21-15.77-0.57-32.18-8.45-47.64c9.53,13.2,21.55,24.58,35.24,33.38"/>
	<path class="st6" d="M703.36,345.68c-22.58-11.06-33.94-36.54-53.08-52.84c-26.42-22.49-68.4-33.69-105.05-22.4
		c-55.16,16.99-176.23,124.55-236.51,119.09c-75.62-6.85-48.79-129.79,9.36-175c27.23-21.17,57.09-19.7,57.09-19.7
		c29.41-1.3,62.42,7.51,69.59-10.63c2.88-7.27,4.76-25.29,5.4-33.09c1.28-15.71,12.57-18.5,28.08-21.26
		c-21.26-21.71-12.38-59.19-27.38-85.61c-14.93-26.31-36.59-37.65-68.1-34.96c-41.41,3.53-61.64,28.97-60.13,85.71
		c0.53,19.97-10.14,38.69-47.34,55.92"/>
	<path class="st6" d="M334.31,939.79c-5.29-5.6-10.58-11.21-15.87-16.81"/>
	<path class="st6" d="M349.47,933.1c-5.29-5.6-10.58-11.21-15.87-16.81"/>
	<path class="st6" d="M344.57,906.05c5.91,7.19,12.65,13.69,20.04,19.33"/>
	<path class="st6" d="M321.71,948.57c-19.24-16.96-25.54-22.61-37.68-42.17c-17.74-28.6-21.46-48.41-10.73-80.31
		c10.73-31.9,45.72-68.48,63.87-96.82c7.74-12.08,34.33-50.78-54.56-65.22c-42.97-6.98-128.24-23.09-183.25,63.57
		C55.78,796.27,41.81,854.3,22.62,929.33c0,0-4.27,13.58,9.05,14.58c6.63,0.49,12.46-1.79,16.64-15.58
		C74.5,841.94,110.2,704.8,194.41,687.86c25.56-5.14,39.77-3.91,65.59-0.33"/>
	<path class="st6" d="M378.08,917.42c-23.96-19.49-46.34-46-45.63-76.88c0.68-29.36,21.97-53.89,43.79-73.56
		c41.26-37.2,90.18-77.23,128.28-117.66c26.77-28.4,47.11-51.71,62.4-87.62c9.24-21.69,16.17-46.26,8.55-68.57
		c-10.99-32.19-49.67-48.03-83.43-43.86c-33.76,4.17-63.49,23.53-91.35,43.04c-63.78,44.65-113.33,122.65-211.04,138.63
		c-27.1,4.43-68.9-6.05-61.39-41.53c15.2-71.83,223.54-92.03,323.15-81.03c112.78,12.46,205.06,57.85,265.75,160.47
		c35.81,60.56,79.72,201.89,130.83,212.81c19.92,4.26,40.41-1.44,59.82-7.58"/>
	<path class="st6" d="M926.47,926.05c-33.69,10.74-123.23,29.93-159.72-26.96c-54.93-85.64-59.15-116.99-101.79-174.4
		c-37.76-50.84-95.93-106.44-190.11-104.15c-45.88,1.11-92.32,7.4-146.37,15.43c-54.75,8.12-99.85,0.65-132.91-27.8
		c-79.75-68.64-58.9-164.38-19.04-267.33c13.92-35.96,28.92-72.56,30.15-111.1c0.41-13.02-3.44-30.9-16.16-33.7
		c-10.11-2.23-23.87,3.88-32.33,29.46c-11.5,34.78-15.23,72.09-11.08,108.48c6.16,54,36.44,89.75,84.31,115.49
		c36.97,19.88,110.06,23.37,162.07-4.56c76.46-41.06,133.83-103.98,167.64-118.53c12.23-5.27,27-6.22,38.79-0.03
		c17.4,9.14,20.35,31.67,20.94,51.31"/>
	<path class="st6" d="M626.89,334.54c6.48,12.41,9.7,26.49,9.25,40.48"/>
	<path class="st6" d="M641.93,329.52c6.21,12.83,9.11,27.25,8.34,41.48"/>
	<path class="st6" d="M664.6,369.52c-0.21-15.77-0.57-32.18-8.45-47.64c9.53,13.2,21.55,24.58,35.24,33.38"/>
	<path class="st6" d="M703.36,345.77c-22.58-11.06-33.94-36.54-53.08-52.84c-26.42-22.49-68.4-33.69-105.05-22.4
		c-55.16,16.99-176.23,124.55-236.51,119.09c-75.62-6.85-48.79-129.79,9.36-175c27.23-21.17,57.09-19.7,57.09-19.7
		c29.41-1.3,62.42,7.51,69.59-10.63c2.88-7.27,4.76-25.29,5.4-33.09c1.28-15.71,12.57-18.5,28.08-21.26
		c-21.26-21.71-12.38-59.19-27.38-85.61c-14.93-26.31-36.59-37.65-68.1-34.96c-41.41,3.53-61.64,28.97-60.13,85.71
		c0.53,19.97-10.14,38.69-47.34,55.92"/>
	<path class="st6" d="M334.31,939.89c-5.29-5.6-10.58-11.21-15.87-16.81"/>
	<path class="st6" d="M349.47,933.2c-5.29-5.6-10.58-11.21-15.87-16.81"/>
	<path class="st6" d="M344.57,906.15c5.91,7.19,12.65,13.69,20.04,19.33"/>
	<path class="st6" d="M321.71,948.66c-19.24-16.96-25.54-22.61-37.68-42.17c-17.74-28.6-21.46-48.41-10.73-80.31
		c10.73-31.9,45.72-68.48,63.87-96.82c7.74-12.08,34.33-50.78-54.56-65.22c-42.97-6.98-128.24-23.09-183.25,63.57
		c-43.58,68.66-57.55,126.68-76.75,201.72c0,0-4.27,13.58,9.05,14.58c6.63,0.49,12.46-1.79,16.64-15.58
		C74.5,842.04,110.2,704.9,194.41,687.95c25.56-5.14,39.77-3.91,65.59-0.33"/>
	<path class="st6" d="M378.08,917.51c-23.96-19.49-46.34-46-45.63-76.88c0.68-29.36,21.97-53.89,43.79-73.56
		c41.26-37.2,90.18-77.23,128.28-117.66c26.77-28.4,47.11-51.71,62.4-87.62c9.24-21.69,16.17-46.26,8.55-68.57
		c-10.99-32.19-49.67-48.03-83.43-43.86c-33.76,4.17-63.49,23.53-91.35,43.04c-63.78,44.65-113.33,122.65-211.04,138.63
		c-27.1,4.43-68.9-6.05-61.39-41.53c15.2-71.83,223.54-92.03,323.15-81.03c112.78,12.46,205.06,57.85,265.75,160.47
		C752.98,729.5,796.89,870.83,848,881.75c19.92,4.26,40.41-1.44,59.82-7.58"/>
	<path class="st6" d="M926.47,926.14c-33.69,10.74-123.23,29.93-159.72-26.96c-54.93-85.64-59.15-116.99-101.79-174.4
		c-37.76-50.84-95.93-106.44-190.11-104.15c-45.88,1.11-92.32,7.4-146.37,15.43c-54.75,8.13-99.85,0.65-132.91-27.8
		c-79.75-68.63-58.9-164.38-19.04-267.33c13.92-35.96,28.92-72.56,30.15-111.1c0.41-13.02-3.44-30.9-16.16-33.7
		c-10.11-2.23-23.87,3.88-32.33,29.46c-11.5,34.78-15.23,72.09-11.08,108.48c6.16,54,36.44,89.75,84.31,115.49
		c36.97,19.88,110.06,23.37,162.07-4.56c76.46-41.06,133.83-103.98,167.64-118.53c12.23-5.27,27-6.22,38.79-0.03
		c17.4,9.14,20.35,31.67,20.94,51.31"/>
	<path class="st6" d="M626.89,334.64c6.48,12.41,9.7,26.49,9.25,40.48"/>
	<path class="st6" d="M641.93,329.62c6.21,12.83,9.11,27.25,8.34,41.48"/>
	<path class="st6" d="M664.6,369.62c-0.21-15.77-0.57-32.18-8.45-47.64c9.53,13.2,21.55,24.58,35.24,33.38"/>
	<path class="st6" d="M703.36,345.87c-22.58-11.06-33.94-36.54-53.08-52.84c-26.42-22.49-68.4-33.69-105.05-22.4
		c-55.16,16.99-176.23,124.55-236.51,119.09c-75.62-6.85-48.79-129.79,9.36-175c27.23-21.17,57.09-19.7,57.09-19.7
		c29.41-1.3,62.42,7.51,69.59-10.63c2.88-7.27,4.76-25.29,5.4-33.09c1.28-15.71,12.57-18.5,28.08-21.26
		c-21.26-21.71-12.38-59.19-27.38-85.61c-14.93-26.31-36.59-37.65-68.1-34.96c-41.41,3.53-61.64,28.97-60.13,85.71
		c0.53,19.97-10.14,38.69-47.34,55.92"/>
	<path class="st6" d="M334.31,939.98c-5.29-5.6-10.58-11.21-15.87-16.81"/>
	<path class="st6" d="M349.47,933.29c-5.29-5.6-10.58-11.21-15.87-16.81"/>
	<path class="st6" d="M344.57,906.25c5.91,7.19,12.65,13.69,20.04,19.33"/>
	<path class="st6" d="M321.71,948.76c-19.24-16.96-25.54-22.61-37.68-42.17c-17.74-28.6-21.46-48.41-10.73-80.31
		c10.73-31.9,45.72-68.48,63.87-96.82c7.74-12.08,34.33-50.78-54.56-65.22c-42.97-6.98-128.24-23.09-183.25,63.57
		c-43.58,68.66-57.55,126.68-76.75,201.72c0,0-4.27,13.58,9.05,14.58c6.63,0.49,12.46-1.79,16.64-15.58
		c26.18-86.39,61.88-223.53,146.09-240.48c25.56-5.14,39.77-3.91,65.59-0.33"/>
	<path class="st6" d="M378.08,917.61c-23.96-19.49-46.34-46-45.63-76.88c0.68-29.36,21.97-53.89,43.79-73.56
		c41.26-37.2,90.18-77.23,128.28-117.66c26.77-28.4,47.11-51.71,62.4-87.62c9.24-21.69,16.17-46.26,8.55-68.57
		c-10.99-32.19-49.67-48.03-83.43-43.86c-33.76,4.17-63.49,23.53-91.35,43.04c-63.78,44.65-113.33,122.65-211.04,138.63
		c-27.1,4.43-68.9-6.05-61.39-41.53c15.2-71.83,223.54-92.03,323.15-81.03c112.78,12.46,205.06,57.85,265.75,160.47
		C752.98,729.6,796.89,870.92,848,881.85c19.92,4.26,40.41-1.44,59.82-7.58"/>
	<path class="st6" d="M926.47,926.24c-33.69,10.74-123.23,29.93-159.72-26.96c-54.93-85.64-59.15-116.99-101.79-174.4
		c-37.76-50.84-95.93-106.44-190.11-104.15c-45.88,1.11-92.32,7.4-146.37,15.43c-54.75,8.12-99.85,0.65-132.91-27.8
		c-79.75-68.64-58.9-164.38-19.04-267.33c13.92-35.96,28.92-72.56,30.15-111.1c0.41-13.02-3.44-30.9-16.16-33.7
		c-10.11-2.23-23.87,3.88-32.33,29.46c-11.5,34.78-15.23,72.09-11.08,108.48c6.16,54,36.44,89.75,84.31,115.49
		c36.97,19.88,110.06,23.37,162.07-4.56c76.46-41.06,133.83-103.98,167.64-118.53c12.23-5.27,27-6.22,38.79-0.03
		c17.4,9.14,20.35,31.67,20.94,51.31"/>
	<path class="st6" d="M626.89,334.73c6.48,12.41,9.7,26.49,9.25,40.48"/>
	<path class="st6" d="M641.93,329.71c6.21,12.83,9.11,27.25,8.34,41.48"/>
	<path class="st6" d="M664.6,369.71c-0.21-15.77-0.57-32.18-8.45-47.64c9.53,13.2,21.55,24.58,35.24,33.38"/>
	<path class="st6" d="M703.36,345.96c-22.58-11.06-33.94-36.54-53.08-52.84c-26.42-22.49-68.4-33.69-105.05-22.4
		c-55.16,16.99-176.23,124.55-236.51,119.09c-75.62-6.85-48.79-129.79,9.36-175c27.23-21.17,57.09-19.7,57.09-19.7
		c29.41-1.3,62.42,7.51,69.59-10.63c2.88-7.27,4.76-25.29,5.4-33.09c1.28-15.71,12.57-18.5,28.08-21.26
		c-21.26-21.71-12.38-59.19-27.38-85.61c-14.93-26.31-36.59-37.65-68.1-34.96c-41.41,3.53-61.64,28.97-60.13,85.71
		c0.53,19.97-10.14,38.69-47.34,55.92"/>
	<path class="st6" d="M334.31,940.08c-5.29-5.6-10.58-11.21-15.87-16.81"/>
	<path class="st6" d="M349.47,933.39c-5.29-5.6-10.58-11.21-15.87-16.81"/>
	<path class="st6" d="M344.57,906.34c5.91,7.19,12.65,13.69,20.04,19.33"/>
	<path class="st6" d="M321.71,948.85c-19.24-16.96-25.54-22.61-37.68-42.17c-17.74-28.6-21.46-48.41-10.73-80.31
		c10.73-31.9,45.72-68.48,63.87-96.82c7.74-12.08,34.33-50.78-54.56-65.22c-42.97-6.98-128.24-23.09-183.25,63.57
		c-43.58,68.66-57.55,126.68-76.75,201.72c0,0-4.27,13.58,9.05,14.58c6.63,0.49,12.46-1.79,16.64-15.58
		c26.18-86.39,61.88-223.53,146.09-240.48c25.56-5.14,39.77-3.91,65.59-0.33"/>
	<path class="st6" d="M378.08,917.7c-23.96-19.49-46.34-46-45.63-76.88c0.68-29.36,21.97-53.89,43.79-73.56
		c41.26-37.2,90.18-77.23,128.28-117.66c26.77-28.4,47.11-51.71,62.4-87.62c9.24-21.69,16.17-46.26,8.55-68.57
		c-10.99-32.19-49.67-48.03-83.43-43.86c-33.76,4.17-63.49,23.53-91.35,43.04c-63.78,44.65-113.33,122.65-211.04,138.63
		c-27.1,4.43-68.9-6.05-61.39-41.53c15.2-71.83,223.54-92.03,323.15-81.03c112.78,12.46,205.06,57.85,265.75,160.47
		c35.81,60.56,79.72,201.89,130.83,212.81c19.92,4.26,40.41-1.44,59.82-7.58"/>
	<path class="st6" d="M926.47,926.33c-33.69,10.74-123.23,29.93-159.72-26.96c-54.93-85.64-59.15-116.99-101.79-174.4
		c-37.76-50.84-95.93-106.44-190.11-104.15c-45.88,1.11-92.32,7.4-146.37,15.43c-54.75,8.13-99.85,0.65-132.91-27.8
		c-79.75-68.63-58.9-164.38-19.04-267.33c13.92-35.96,28.92-72.56,30.15-111.1c0.41-13.02-3.44-30.9-16.16-33.7
		c-10.11-2.23-23.87,3.88-32.33,29.46c-11.5,34.78-15.23,72.09-11.08,108.48c6.16,54,36.44,89.75,84.31,115.49
		c36.97,19.88,110.06,23.37,162.07-4.56c76.46-41.06,133.83-103.98,167.64-118.53c12.23-5.27,27-6.22,38.79-0.03
		c17.4,9.14,20.35,31.67,20.94,51.31"/>
	<path class="st6" d="M626.89,334.83c6.48,12.41,9.7,26.49,9.25,40.48"/>
	<path class="st6" d="M641.93,329.81c6.21,12.83,9.11,27.25,8.34,41.48"/>
	<path class="st6" d="M664.6,369.81c-0.21-15.77-0.57-32.18-8.45-47.64c9.53,13.2,21.55,24.58,35.24,33.38"/>
	<path class="st6" d="M703.36,346.06c-22.58-11.06-33.94-36.54-53.08-52.84c-26.42-22.49-68.4-33.69-105.05-22.4
		c-55.16,16.99-176.23,124.55-236.51,119.09c-75.62-6.85-48.79-129.79,9.36-175c27.23-21.17,57.09-19.7,57.09-19.7
		c29.41-1.3,62.42,7.51,69.59-10.63c2.88-7.27,4.76-25.29,5.4-33.09c1.28-15.71,12.57-18.5,28.08-21.26
		c-21.26-21.71-12.38-59.19-27.38-85.61c-14.93-26.31-36.59-37.65-68.1-34.96c-41.41,3.53-61.64,28.97-60.13,85.71
		c0.53,19.97-10.14,38.69-47.34,55.92"/>
	<path class="st6" d="M334.31,940.18c-5.29-5.6-10.58-11.21-15.87-16.81"/>
	<path class="st6" d="M349.47,933.48c-5.29-5.6-10.58-11.21-15.87-16.81"/>
	<path class="st6" d="M344.57,906.44c5.91,7.19,12.65,13.69,20.04,19.33"/>
	<path class="st6" d="M321.71,948.95c-19.24-16.96-25.54-22.61-37.68-42.17c-17.74-28.6-21.46-48.41-10.73-80.31
		c10.73-31.9,45.72-68.48,63.87-96.82c7.74-12.08,34.33-50.78-54.56-65.22c-42.97-6.98-128.24-23.09-183.25,63.57
		c-43.58,68.66-57.55,126.68-76.75,201.72c0,0-4.27,13.58,9.05,14.58c6.63,0.49,12.46-1.79,16.64-15.58
		c26.18-86.39,61.88-223.53,146.09-240.48c25.56-5.14,39.77-3.91,65.59-0.33"/>
	<path class="st6" d="M378.08,917.8c-23.96-19.49-46.34-46-45.63-76.88c0.68-29.36,21.97-53.89,43.79-73.56
		c41.26-37.2,90.18-77.23,128.28-117.66c26.77-28.4,47.11-51.71,62.4-87.62c9.24-21.69,16.17-46.26,8.55-68.57
		c-10.99-32.19-49.67-48.03-83.43-43.86c-33.76,4.17-63.49,23.53-91.35,43.04c-63.78,44.65-113.33,122.65-211.04,138.63
		c-27.1,4.43-68.9-6.05-61.39-41.53c15.2-71.83,223.54-92.03,323.15-81.03c112.78,12.46,205.06,57.85,265.75,160.47
		c35.81,60.56,79.72,201.89,130.83,212.81c19.92,4.26,40.41-1.44,59.82-7.58"/>
	<path class="st6" d="M926.47,926.43c-33.69,10.74-123.23,29.93-159.72-26.96c-54.93-85.64-59.15-116.99-101.79-174.4
		c-37.76-50.84-95.93-106.44-190.11-104.15c-45.88,1.11-92.32,7.4-146.37,15.43c-54.75,8.13-99.85,0.65-132.91-27.8
		c-79.75-68.64-58.9-164.38-19.04-267.33c13.92-35.96,28.92-72.56,30.15-111.1c0.41-13.02-3.44-30.9-16.16-33.7
		c-10.11-2.23-23.87,3.88-32.33,29.46c-11.5,34.78-15.23,72.09-11.08,108.48c6.16,54,36.44,89.75,84.31,115.49
		c36.97,19.88,110.06,23.37,162.07-4.56c76.46-41.06,133.83-103.98,167.64-118.53c12.23-5.27,27-6.22,38.79-0.03
		c17.4,9.14,20.35,31.67,20.94,51.31"/>
	<path class="st6" d="M626.89,334.92c6.48,12.41,9.7,26.49,9.25,40.48"/>
	<path class="st6" d="M641.93,329.9c6.21,12.83,9.11,27.25,8.34,41.48"/>
	<path class="st6" d="M664.6,369.9c-0.21-15.77-0.57-32.18-8.45-47.64c9.53,13.2,21.55,24.58,35.24,33.38"/>
	<path class="st6" d="M703.36,346.15c-22.58-11.06-33.94-36.54-53.08-52.84c-26.42-22.49-68.4-33.69-105.05-22.4
		c-55.16,16.99-176.23,124.55-236.51,119.09c-75.62-6.85-48.79-129.79,9.36-175c27.23-21.17,57.09-19.7,57.09-19.7
		c29.41-1.3,62.42,7.51,69.59-10.63c2.88-7.27,4.76-25.29,5.4-33.09c1.28-15.71,12.57-18.5,28.08-21.26
		c-21.26-21.71-12.38-59.19-27.38-85.61c-14.93-26.31-36.59-37.65-68.1-34.96c-41.41,3.53-61.64,28.97-60.13,85.71
		c0.53,19.97-10.14,38.69-47.34,55.92"/>
	<path class="st6" d="M334.31,940.27c-5.29-5.6-10.58-11.21-15.87-16.81"/>
	<path class="st6" d="M349.47,933.58c-5.29-5.6-10.58-11.21-15.87-16.81"/>
	<path class="st6" d="M344.57,906.53c5.91,7.19,12.65,13.69,20.04,19.33"/>
	<path class="st6" d="M321.71,949.04c-19.24-16.96-25.54-22.61-37.68-42.17c-17.74-28.6-21.46-48.41-10.73-80.31
		c10.73-31.9,45.72-68.48,63.87-96.82c7.74-12.08,34.33-50.78-54.56-65.22c-42.97-6.98-128.24-23.09-183.25,63.57
		c-43.58,68.66-57.55,126.68-76.75,201.72c0,0-4.27,13.58,9.05,14.58c6.63,0.49,12.46-1.79,16.64-15.58
		c26.18-86.39,61.88-223.53,146.09-240.48c25.56-5.14,39.77-3.91,65.59-0.33"/>
	<path class="st6" d="M378.08,917.89c-23.96-19.49-46.34-46-45.63-76.88c0.68-29.36,21.97-53.89,43.79-73.56
		c41.26-37.2,90.18-77.23,128.28-117.66c26.77-28.4,47.11-51.71,62.4-87.62c9.24-21.69,16.17-46.26,8.55-68.57
		c-10.99-32.19-49.67-48.03-83.43-43.86c-33.76,4.17-63.49,23.53-91.35,43.04c-63.78,44.65-113.33,122.65-211.04,138.63
		c-27.1,4.43-68.9-6.05-61.39-41.53c15.2-71.83,223.54-92.03,323.15-81.03c112.78,12.46,205.06,57.85,265.75,160.47
		c35.81,60.56,79.72,201.89,130.83,212.81c19.92,4.26,40.41-1.44,59.82-7.58"/>
	<path class="st6" d="M926.47,926.52c-33.69,10.74-123.23,29.93-159.72-26.96c-54.93-85.64-59.15-116.99-101.79-174.4
		c-37.76-50.84-95.93-106.44-190.11-104.15c-45.88,1.11-92.32,7.4-146.37,15.43c-54.75,8.13-99.85,0.65-132.91-27.8
		c-79.75-68.63-58.9-164.38-19.04-267.33c13.92-35.96,28.92-72.56,30.15-111.1c0.41-13.02-3.44-30.9-16.16-33.7
		c-10.11-2.23-23.87,3.88-32.33,29.46c-11.5,34.78-15.23,72.09-11.08,108.48c6.16,54,36.44,89.75,84.31,115.49
		c36.97,19.88,110.06,23.37,162.07-4.56c76.46-41.06,133.83-103.98,167.64-118.53c12.23-5.27,27-6.22,38.79-0.03
		c17.4,9.14,20.35,31.67,20.94,51.31"/>
	<path class="st6" d="M626.89,335.02c6.48,12.41,9.7,26.49,9.25,40.48"/>
	<path class="st6" d="M641.93,330c6.21,12.83,9.11,27.25,8.34,41.48"/>
	<path class="st6" d="M664.6,370c-0.21-15.77-0.57-32.18-8.45-47.64c9.53,13.2,21.55,24.58,35.24,33.38"/>
	<path class="st6" d="M703.36,346.25c-22.58-11.06-33.94-36.54-53.08-52.84c-26.42-22.49-68.4-33.69-105.05-22.4
		C490.06,288,368.99,395.56,308.71,390.1c-75.62-6.85-48.79-129.79,9.36-175c27.23-21.17,57.09-19.7,57.09-19.7
		c29.41-1.3,62.42,7.51,69.59-10.63c2.88-7.27,4.76-25.29,5.4-33.09c1.28-15.71,12.57-18.5,28.08-21.26
		c-21.26-21.71-12.38-59.19-27.38-85.61c-14.93-26.31-36.59-37.65-68.1-34.96c-41.41,3.53-61.64,28.97-60.13,85.71
		c0.53,19.97-10.14,38.69-47.34,55.92"/>
	<path class="st6" d="M334.31,940.37c-5.29-5.6-10.58-11.21-15.87-16.81"/>
	<path class="st6" d="M349.47,933.67c-5.29-5.6-10.58-11.21-15.87-16.81"/>
	<path class="st6" d="M344.57,906.63c5.91,7.19,12.65,13.69,20.04,19.33"/>
	<path class="st6" d="M321.71,949.14c-19.24-16.96-25.54-22.61-37.68-42.17c-17.74-28.6-21.46-48.41-10.73-80.31
		c10.73-31.9,45.72-68.48,63.87-96.82c7.74-12.08,34.33-50.78-54.56-65.22c-42.97-6.98-128.24-23.09-183.25,63.57
		c-43.58,68.66-57.55,126.68-76.75,201.72c0,0-4.27,13.58,9.05,14.58c6.63,0.49,12.46-1.79,16.64-15.58
		c26.18-86.39,61.88-223.53,146.09-240.48c25.56-5.14,39.77-3.91,65.59-0.33"/>
	<path class="st6" d="M378.08,917.99c-23.96-19.49-46.34-46-45.63-76.88c0.68-29.36,21.97-53.89,43.79-73.56
		c41.26-37.2,90.18-77.23,128.28-117.66c26.77-28.4,47.11-51.71,62.4-87.62c9.24-21.69,16.17-46.26,8.55-68.57
		c-10.99-32.19-49.67-48.03-83.43-43.86c-33.76,4.17-63.49,23.53-91.35,43.04c-63.78,44.65-113.33,122.65-211.04,138.63
		c-27.1,4.43-68.9-6.05-61.39-41.53c15.2-71.83,223.54-92.03,323.15-81.03c112.78,12.46,205.06,57.85,265.75,160.47
		C752.98,729.98,796.89,871.3,848,882.23c19.92,4.26,40.41-1.44,59.82-7.58"/>
	<path class="st6" d="M926.47,926.62c-33.69,10.74-123.23,29.93-159.72-26.96c-54.93-85.64-59.15-116.99-101.79-174.4
		c-37.76-50.84-95.93-106.44-190.11-104.15c-45.88,1.11-92.32,7.4-146.37,15.43c-54.75,8.13-99.85,0.65-132.91-27.8
		c-79.75-68.64-58.9-164.38-19.04-267.33c13.92-35.96,28.92-72.56,30.15-111.1c0.41-13.02-3.44-30.9-16.16-33.7
		c-10.11-2.23-23.87,3.88-32.33,29.46c-11.5,34.78-15.23,72.09-11.08,108.48c6.16,54,36.44,89.75,84.31,115.49
		c36.97,19.88,110.06,23.37,162.07-4.56c76.46-41.06,133.83-103.98,167.64-118.53c12.23-5.27,27-6.22,38.79-0.03
		c17.4,9.14,20.35,31.67,20.94,51.31"/>
	<path class="st6" d="M626.89,335.11c6.48,12.41,9.7,26.49,9.25,40.48"/>
	<path class="st6" d="M641.93,330.09c6.21,12.83,9.11,27.25,8.34,41.48"/>
	<path class="st6" d="M664.6,370.09c-0.21-15.77-0.57-32.18-8.45-47.64c9.53,13.2,21.55,24.58,35.24,33.38"/>
	<path class="st6" d="M703.36,346.34c-22.58-11.06-33.94-36.54-53.08-52.84c-26.42-22.49-68.4-33.69-105.05-22.4
		C490.06,288.1,368.99,395.66,308.71,390.2c-75.62-6.85-48.79-129.79,9.36-175c27.23-21.17,57.09-19.7,57.09-19.7
		c29.41-1.3,62.42,7.51,69.59-10.63c2.88-7.27,4.76-25.29,5.4-33.09c1.28-15.71,12.57-18.5,28.08-21.26
		c-21.26-21.71-12.38-59.19-27.38-85.61c-14.93-26.31-36.59-37.65-68.1-34.96c-41.41,3.53-61.64,28.97-60.13,85.71
		c0.53,19.97-10.14,38.69-47.34,55.92"/>
	<path class="st6" d="M334.31,940.46c-5.29-5.6-10.58-11.21-15.87-16.81"/>
	<path class="st6" d="M349.47,933.77c-5.29-5.6-10.58-11.21-15.87-16.81"/>
	<path class="st6" d="M344.57,906.72c5.91,7.19,12.65,13.69,20.04,19.33"/>
	<path class="st6" d="M321.71,949.23c-19.24-16.96-25.54-22.61-37.68-42.17c-17.74-28.6-21.46-48.41-10.73-80.31
		c10.73-31.9,45.72-68.48,63.87-96.82c7.74-12.08,34.33-50.78-54.56-65.22c-42.97-6.98-128.24-23.09-183.25,63.57
		C55.78,796.94,41.81,854.96,22.62,930c0,0-4.27,13.58,9.05,14.58c6.63,0.49,12.46-1.79,16.64-15.58
		c26.18-86.39,61.88-223.53,146.09-240.48c25.56-5.14,39.77-3.91,65.59-0.33"/>
	<path class="st6" d="M378.08,918.08c-23.96-19.49-46.34-46-45.63-76.88c0.68-29.36,21.97-53.89,43.79-73.56
		c41.26-37.2,90.18-77.23,128.28-117.66c26.77-28.4,47.11-51.71,62.4-87.62c9.24-21.69,16.17-46.26,8.55-68.57
		c-10.99-32.19-49.67-48.03-83.43-43.86s-63.49,23.53-91.35,43.04c-63.78,44.65-113.33,122.65-211.04,138.63
		c-27.1,4.43-68.9-6.05-61.39-41.53c15.2-71.83,223.54-92.03,323.15-81.03c112.78,12.46,205.06,57.85,265.75,160.47
		C752.98,730.07,796.89,871.4,848,882.32c19.92,4.26,40.41-1.44,59.82-7.58"/>
	<path class="st6" d="M926.47,926.71c-33.69,10.74-123.23,29.93-159.72-26.96c-54.93-85.64-59.15-116.99-101.79-174.4
		c-37.76-50.84-95.93-106.44-190.11-104.15c-45.88,1.11-92.32,7.4-146.37,15.43c-54.75,8.13-99.85,0.65-132.91-27.8
		c-79.75-68.63-58.9-164.38-19.04-267.33c13.92-35.96,28.92-72.56,30.15-111.1c0.41-13.02-3.44-30.9-16.16-33.7
		c-10.11-2.23-23.87,3.88-32.33,29.46c-11.5,34.78-15.23,72.09-11.08,108.48c6.16,54,36.44,89.75,84.31,115.49
		c36.97,19.88,110.06,23.37,162.07-4.56c76.46-41.06,133.83-103.98,167.64-118.53c12.23-5.27,27-6.22,38.79-0.03
		c17.4,9.14,20.35,31.67,20.94,51.31"/>
	<path class="st6" d="M626.89,335.21c6.48,12.41,9.7,26.49,9.25,40.48"/>
	<path class="st6" d="M641.93,330.19c6.21,12.83,9.11,27.25,8.34,41.48"/>
	<path class="st6" d="M664.6,370.19c-0.21-15.77-0.57-32.18-8.45-47.64c9.53,13.2,21.55,24.58,35.24,33.38"/>
	<path class="st6" d="M703.36,346.44c-22.58-11.06-33.94-36.54-53.08-52.84c-26.42-22.49-68.4-33.69-105.05-22.4
		c-55.16,16.99-176.23,124.55-236.51,119.09c-75.62-6.85-48.79-129.79,9.36-175c27.23-21.17,57.09-19.7,57.09-19.7
		c29.41-1.3,62.42,7.51,69.59-10.63c2.88-7.27,4.76-25.29,5.4-33.09c1.28-15.71,12.57-18.5,28.08-21.26
		C456.99,108.9,465.86,71.42,450.86,45c-14.93-26.31-36.59-37.65-68.1-34.96c-41.41,3.53-61.64,28.97-60.13,85.71
		c0.53,19.97-10.14,38.69-47.34,55.92"/>
	<path class="st6" d="M334.31,940.56c-5.29-5.6-10.58-11.21-15.87-16.81"/>
	<path class="st6" d="M349.47,933.87c-5.29-5.6-10.58-11.21-15.87-16.81"/>
	<path class="st6" d="M344.57,906.82c5.91,7.19,12.65,13.69,20.04,19.33"/>
</g>
<g id="computer">
	<path class="st6" d="M933.58,244.68l-3.64-3c-2.54-2.1-6.3-1.73-8.4,0.81l-119.4,144.88c-1.13,1.38-2.82,2.17-4.61,2.17H609.76
		c-3.3,0-5.97,2.67-5.97,5.97v4.05c0,3.3,2.67,5.97,5.97,5.97h196.48c1.78,0,3.48-0.8,4.61-2.18L934.4,253.07
		C936.49,250.53,936.13,246.77,933.58,244.68z"/>
	<path class="st6" d="M933.58,244.77l-3.64-3c-2.54-2.1-6.3-1.73-8.4,0.81l-119.4,144.88c-1.13,1.38-2.82,2.17-4.61,2.17H609.76
		c-3.3,0-5.97,2.67-5.97,5.97v4.05c0,3.3,2.67,5.97,5.97,5.97h196.48c1.78,0,3.48-0.8,4.61-2.18L934.4,253.17
		C936.49,250.63,936.13,246.87,933.58,244.77z"/>
	<path class="st6" d="M933.58,244.87l-3.64-3c-2.54-2.1-6.3-1.73-8.4,0.81l-119.4,144.88c-1.13,1.38-2.82,2.17-4.61,2.17H609.76
		c-3.3,0-5.97,2.67-5.97,5.97v4.05c0,3.3,2.67,5.97,5.97,5.97h196.48c1.78,0,3.48-0.8,4.61-2.18L934.4,253.26
		C936.49,250.72,936.13,246.96,933.58,244.87z"/>
	<path class="st6" d="M933.58,244.96l-3.64-3c-2.54-2.1-6.3-1.73-8.4,0.81l-119.4,144.88c-1.13,1.38-2.82,2.17-4.61,2.17H609.76
		c-3.3,0-5.97,2.67-5.97,5.97v4.05c0,3.3,2.67,5.97,5.97,5.97h196.48c1.78,0,3.48-0.8,4.61-2.18L934.4,253.36
		C936.49,250.82,936.13,247.06,933.58,244.96z"/>
	<path class="st6" d="M933.58,245.06l-3.64-3c-2.54-2.1-6.3-1.73-8.4,0.81l-119.4,144.88c-1.13,1.38-2.82,2.17-4.61,2.17H609.76
		c-3.3,0-5.97,2.67-5.97,5.97v4.05c0,3.3,2.67,5.97,5.97,5.97h196.48c1.78,0,3.48-0.8,4.61-2.18L934.4,253.45
		C936.49,250.91,936.13,247.15,933.58,245.06z"/>
	<path class="st6" d="M933.58,245.15l-3.64-3c-2.54-2.1-6.3-1.73-8.4,0.81l-119.4,144.88c-1.13,1.38-2.82,2.17-4.61,2.17H609.76
		c-3.3,0-5.97,2.67-5.97,5.97v4.05c0,3.3,2.67,5.97,5.97,5.97h196.48c1.78,0,3.48-0.8,4.61-2.18L934.4,253.55
		C936.49,251.01,936.13,247.25,933.58,245.15z"/>
	<path class="st6" d="M933.58,245.25l-3.64-3c-2.54-2.1-6.3-1.73-8.4,0.81l-119.4,144.88c-1.13,1.38-2.82,2.17-4.61,2.17H609.76
		c-3.3,0-5.97,2.67-5.97,5.97v4.05c0,3.3,2.67,5.97,5.97,5.97h196.48c1.78,0,3.48-0.8,4.61-2.18L934.4,253.65
		C936.49,251.1,936.13,247.34,933.58,245.25z"/>
	<path class="st6" d="M933.58,245.35l-3.64-3c-2.54-2.1-6.3-1.73-8.4,0.81l-119.4,144.88c-1.13,1.38-2.82,2.17-4.61,2.17H609.76
		c-3.3,0-5.97,2.67-5.97,5.97v4.05c0,3.3,2.67,5.97,5.97,5.97h196.48c1.78,0,3.48-0.8,4.61-2.18L934.4,253.74
		C936.49,251.2,936.13,247.44,933.58,245.35z"/>
	<path class="st6" d="M933.58,245.44l-3.64-3c-2.54-2.1-6.3-1.73-8.4,0.81l-119.4,144.88c-1.13,1.38-2.82,2.17-4.61,2.17H609.76
		c-3.3,0-5.97,2.67-5.97,5.97v4.05c0,3.3,2.67,5.97,5.97,5.97h196.48c1.78,0,3.48-0.8,4.61-2.18L934.4,253.84
		C936.49,251.29,936.13,247.53,933.58,245.44z"/>
	<path class="st6" d="M933.58,245.54l-3.64-3c-2.54-2.1-6.3-1.73-8.4,0.81l-119.4,144.88c-1.13,1.38-2.82,2.17-4.61,2.17H609.76
		c-3.3,0-5.97,2.67-5.97,5.97v4.05c0,3.3,2.67,5.97,5.97,5.97h196.48c1.78,0,3.48-0.8,4.61-2.18L934.4,253.93
		C936.49,251.39,936.13,247.63,933.58,245.54z"/>
	<path class="st6" d="M933.58,245.63l-3.64-3c-2.54-2.1-6.3-1.73-8.4,0.81l-119.4,144.88c-1.13,1.38-2.82,2.17-4.61,2.17H609.76
		c-3.3,0-5.97,2.67-5.97,5.97v4.05c0,3.3,2.67,5.97,5.97,5.97h196.48c1.78,0,3.48-0.8,4.61-2.18L934.4,254.03
		C936.49,251.48,936.13,247.73,933.58,245.63z"/>
</g>
</svg>
