<?xml version="1.0" encoding="utf-8"?>
<!-- Generator: Adobe Illustrator 24.2.3, SVG Export Plug-In . SVG Version: 6.00 Build 0)  -->
<svg version="1.1" xmlns="http://www.w3.org/2000/svg" xmlns:xlink="http://www.w3.org/1999/xlink" x="0px" y="0px"
	 viewBox="0 0 859.96 846.31" style="enable-background:new 0 0 859.96 846.31;" xml:space="preserve">
<style type="text/css">
	.st0{fill:#FFDD00;}
	.st1{fill:#5B7FAD;}
	.st2{fill:none;stroke:#5B7FAD;stroke-width:4;stroke-miterlimit:10;}
	.st3{fill:#F48473;}
	.st4{fill:none;}
	.st5{fill:#C1DC83;}
	.st6{fill:none;stroke:#000000;stroke-width:4;stroke-miterlimit:10;}
	.st7{fill:#ED1C24;}
	.st8{fill:#CE3045;}
	.st9{fill:none;stroke:#F7941D;stroke-width:4;stroke-miterlimit:10;}
	.st10{fill:#F7941D;}
	.st11{fill:#FFF342;}
	.st12{fill:#F5846F;}
	.st13{fill:none;stroke:#151220;stroke-width:4;stroke-miterlimit:10;}
	.st14{fill:none;stroke:#231F20;stroke-width:4;stroke-miterlimit:10;}
	.st15{fill:none;stroke:#231F20;stroke-width:3;stroke-miterlimit:10;}
</style>
<g id="background">
</g>
<g id="yellow">
</g>
<g id="glasses">
</g>
<g id="person">
</g>
<g id="computer">
	<path class="st9" d="M792.89,162.79c-21.04,16.87-42.18,33.8-65.36,47.59c-13.55,8.06-27.72,15-41.5,22.66
		c-11.48,6.38-22.67,13.26-33.86,20.14c-9.9,6.08-19.8,12.17-29.7,18.25c-18.61,11.44-37.23,22.88-55.3,35.15
		c-31.96,21.69-57.39,52.22-90.4,72.28c-27.55,16.75-56.82,30.46-86.02,44.13c-33.64,15.75-74.34,33.44-107.97,49.19"/>
	<path class="st9" d="M774.94,161.94c-52.52,39.52-108.09,74.97-166.05,105.94c-30.2,16.14-61.13,35.61-89.59,54.66
		c-14.67,9.82-22.23,21.07-36.56,31.38c-61.08,43.97-141.77,80.64-213.6,103.11"/>
	<path class="st9" d="M792.48,182.94c-34.23,33.04-82.71,45.81-123.88,69.66c-11.37,6.59-22.21,14.04-33.04,21.49
		c-17.99,12.37-35.98,24.75-53.97,37.12c-19.94,13.71-36.97,36.59-56.49,50.89c-14.35,10.52-28.5,21.36-43.55,30.85
		c-58.13,36.65-130.57,57.62-185.11,99.41"/>
	<path class="st10" d="M298.59,493.24c-3.68,3.45-8.04,6.16-12.76,7.94c-11.27-12.87-19.69-28.22-24.5-44.64
		c2.94-0.97,8.11-3.16,11.1-1.51c3.36,1.85,6.22,9.04,8.32,12.23C282.22,469.47,298.89,492.96,298.59,493.24z"/>
	<path class="st11" d="M303.06,80.08c-9.5-20.82-28.42-37.11-50.42-43.41s-46.68-2.49-65.76,10.14
		c-18.72,12.4-26.28,25.76-45.8,36.84c-14.87,8.44-51.6-36.74-92.11-55.14C37.07,23.09,21.9,46.63,91.11,77.91
		c28.86,13.04,58.08,25.42,89.66,27.83c31.58,2.41,63.32,0.26,94.97,1.19c25.91,0.76,52.63,3.49,77.13-5
		c20.54-7.12,39.06-25.16,41.88-45.86c0.9-6.61-4.72-12.32-11.34-11.43c-24.9,3.32-47.86,17.15-69.94,29.91"/>
	<path class="st6" d="M358.71,457.03c-23.23-26.98-44-54.71-72.59-75.93c-19.54-14.5-40.54-27.69-63.94-34.37
		c-17.79-5.08-36.51-6.26-55-5.56c-42.54,1.63-88.53,16-110.92,52.21c-10.55,17.06-14.8,37.9-11.78,57.73
		c3.49,22.9,16.17,43.49,31.44,60.92c15.26,17.43,33.21,32.27,49.75,48.48c29.84,29.25,89.57,92.48,86.94,161.47
		c-2.15,56.4-30.21,81.95-70.18,95.76s-84.35,11.15-125.68-0.95"/>
	<path class="st6" d="M408.78,424.02c-25.5-32.59-51.31-65.51-83.61-91.38c-32.3-25.87-72.18-44.44-113.56-43.63
		c-41.38,0.81-83.59,24-99.44,62.23c-5.84,14.08-7.98,29.42-8.95,44.63c-5.27,82.23,21.85,162.55,42.22,242.39
		c7.79,30.55,13.82,65.77-4.7,91.28c-8.7,11.98-21.98,20.12-36.1,24.56c-24.33,7.65-52.02,4.56-73.58-9.07"/>
	<path class="st6" d="M727.34,231.33c-33.47,17.56-65.17,38.5-94.46,62.39c-11.61,9.47-23.24,19.96-28.75,33.89
		c-3.45,8.72-4.25,18.21-5.03,27.55c-1.19,14.37-2.38,28.73-3.57,43.1c-1.69,20.46-3.5,41.38-11.91,60.11s-24.84,35.17-45.2,37.84
		c-23.48,3.07-48.24-12.15-70.11-3.06c-21.44,8.91-29.99,27.42-33.72,50.33c-5.84,35.85-26.28,61.51-70.43,72.64
		c-14.56,3.67-29.03,7.36-43.28,12.12c-74.75,24.95-55.74,186.02,48.45,206.72"/>
	<path class="st6" d="M384.23,819.52c-12.33,3.66-18.03,0.89-29.42-5.7"/>
	<path class="st6" d="M388.9,806.72c-10.23,1.71-16.78-0.81-25.23-6.83"/>
	<path class="st6" d="M398.53,794.56c-9.77,0.69-19.77-3.37-26.28-10.68"/>
	<path class="st6" d="M407.39,783.57c-28.49-7.7-52.42-30.49-61.5-58.57c-5.11-15.82-5.05-34.88,6.12-47.2
		c13.47-14.85,36.91-14.12,56.48-9.77c38.46,8.54,74.24,26.33,112.11,37.2c19.79,5.68,40.73,9.29,60.91,5.19
		c64.75-13.16,52.18-75.84,46.97-90.03c-26.22-71.4-71.63-119.94-72.37-189.93c-0.18-16.67,2.25-33.29,1.86-49.95
		c-0.69-29.62-10.53-58.96-27.84-83.01"/>
	<path class="st6" d="M516.42,304.11c10.33,11.77,17.58,26.22,20.83,41.54"/>
	<path class="st6" d="M503.52,313.78c10.98,11.9,18.48,26.96,21.36,42.89"/>
	<path class="st6" d="M490.58,324.67c11.16,10.93,19.38,24.84,23.56,39.89"/>
	<path class="st6" d="M379.04,386.88c27.91,1.37,52.57,22.06,42.54,63.64c-19.07,66.19-57.4,93.18-88.06,100.9
		c-52.81,13.31-105.78-9.53-124.23-48.56c-18.45-39.03-6.09-90.42,28.67-116.03c25.4-18.72,58.51-23.17,90.06-23.65
		c12.52-0.19,25.64,0,36.72-5.82c25-13.13,27.2-48.7,46.64-69.18c21.63-22.79,58.12-21.2,88.85-14.67c17.82,3.79,36,8.69,54,5.9
		c16.31-2.53,30.93-11.15,45.1-19.61c44.14-26.34,88.27-52.68,132.41-79.01c5.87-3.5,11.89-7.14,15.96-12.63
		c7.22-9.74,5.66-24.45-2.3-33.33c-3.31-3.69-9.39-1.6-9.79,3.34c-0.29,3.52,0.63,7.23,2.55,10.21c3.6,5.61,9.94,8.93,16.39,10.63
		c10.02,2.64,21.84,1.42,28.99-6.07c5.57-5.84,6.4-15.93,2.11-22.25c-2.62-3.86-8.45-2.93-9.65,1.57
		c-1.85,6.97,3.22,16.77,10.92,19.52c10.41,3.71,21.79-0.07,32.79-1.17c11-1.1,24.65,2.63,27.18,13.39
		c1.65,7.01-2.34,14.19-7.42,19.29c-5.08,5.1-11.34,8.96-16.11,14.35c-5.52,6.24-8.86,15.73-3.24,22.84
		c3.35,4.24,9.54,5.31,13.67,1.82c5.08-4.31,2.66-11.92-2.22-15.29c-4.16-2.87-9.52-3.32-14.58-3.14
		c-12.49,0.44-26.18,5.26-31.58,16.54c-4.37,9.12,0.89,21.91,9.54,25.06c4.4,1.6,9.36-1.06,10.24-5.66
		c0.93-4.88-1.11-10.68-5.06-14.01c-5.89-4.98-15.07-7.18-22.78-7.01c-17.99,0.4-33.96,4.38-50,12.55"/>
	<path class="st6" d="M480.61,338.23c15.85,13.5,18.17,26.19,22.91,42.48c4.7,16.15,9.9,26.2,21.02,38.68
		c10.97,12.31,27.22,18.71,43.62,16.97c75.1-8,117.64-51.56,119.9-101.14c4.54-99.58-58.31-164.99-135.68-189.43
		c-62.89-19.87-157.6-3.77-193.26-4.2c-56.57-0.68-64.06-29.23-68.44-49.18c-20.49-93.36-107.59-77.4-130.2-42.5
		c-16.69,25.77-20.76,56.01-29.08,85.57c-2.37,8.41-6.14,16.44-7.5,25.07s0.88,13.02,7.53,18.68c7.66,6.53,21.74,0.84,29.41,7.35
		c6.08,5.16,7.96,22.69,12.82,29.01c8.9,11.6,23.34,14.97,37.47,11.21c14.13-3.77,26.54-12.11,39.87-18.12
		c36.42-16.44,80.18-14.59,115.95,3.21s63.27,50.81,76.12,88.65c18.68,55,14.88,117.85-28.33,156.67
		c-12.94,11.63-39.17,24.22-56.51,25.7c-17.34,1.48-36.13-6.33-44.14-21.78c-6.9-13.32-4.7-30.18,3.32-42.85
		c1.29-2.03,2.7-3.96,4.24-5.8"/>
	<path class="st6" d="M26.69,764.14c7.5,3.45,15.59,5.61,23.82,6.37"/>
	<path class="st6" d="M24.12,781.47c7.5,3.44,15.59,5.61,23.82,6.37"/>
	<path class="st6" d="M19.28,798.81c8.96,4.17,16.05,7.86,27.56,7.86"/>
	<path class="st6" d="M344.06,414.33c6.53,5.48,24.67,27.19,28.97,34.55"/>
	<path class="st6" d="M358.71,406.43c6.69,6.61,22.55,28.4,27.73,36.25"/>
	<path class="st6" d="M369.34,399.17c5.22,6.02,23.57,25.92,27.96,32.57"/>
	<path class="st6" d="M52.45,42.71c0,0,119.06,112.56,334.94,20.27"/>
</g>
</svg>
