<?xml version="1.0" encoding="utf-8"?>
<!-- Generator: Adobe Illustrator 24.2.3, SVG Export Plug-In . SVG Version: 6.00 Build 0)  -->
<svg version="1.1" xmlns="http://www.w3.org/2000/svg" xmlns:xlink="http://www.w3.org/1999/xlink" x="0px" y="0px"
	 viewBox="0 0 1514.21 660.51" style="enable-background:new 0 0 1514.21 660.51;" xml:space="preserve">
<style type="text/css">
	.st0{fill:#FFDD00;}
	.st1{fill:#5B7FAD;}
	.st2{fill:none;stroke:#5B7FAD;stroke-width:4;stroke-miterlimit:10;}
	.st3{fill:#F48473;}
	.st4{fill:none;}
	.st5{fill:#C1DC83;}
	.st6{fill:none;stroke:#000000;stroke-width:4;stroke-miterlimit:10;}
	.st7{fill:#ED1C24;}
	.st8{fill:#CE3045;}
	.st9{fill:none;stroke:#F7941D;stroke-width:4;stroke-miterlimit:10;}
	.st10{fill:#F7941D;}
	.st11{fill:#FFF342;}
	.st12{fill:#F5846F;}
	.st13{fill:none;stroke:#151220;stroke-width:4;stroke-miterlimit:10;}
	.st14{fill:none;stroke:#231F20;stroke-width:4;stroke-miterlimit:10;}
	.st15{fill:none;stroke:#231F20;stroke-width:3;stroke-miterlimit:10;}
</style>
<g id="background">
</g>
<g id="yellow">
</g>
<g id="glasses">
</g>
<g id="person">
</g>
<g id="computer">
	<path class="st8" d="M768.14,477.95c-3.66,0.53-7.3,1.46-10.48,3.15c-4.46,2.37-7.84,6.11-10.32,10.18
		c-7.59,12.45-6.78,28.67,2.27,40.31c9.05,11.64,26.04,18.02,41.69,15.4c5.47-0.92,10.84-2.92,14.76-6.43
		c6.83-6.12,8.08-15.45,8.96-24.03C817.56,491.46,797.65,473.73,768.14,477.95z"/>
	<path class="st0" d="M822.24,126.6c0.13-1.9,0.21-3.84-0.29-5.68c-0.64-2.34-2.16-4.34-3.84-6.09
		c-8.37-8.77-20.59-12.63-32.42-15.29c-17.59-3.95-35.61-6-53.63-6.09c-9.03-0.05-18.16,0.41-26.85,2.87
		c-9.48,2.68-18.14,7.67-26.42,13c-15.44,9.95-30.61,22.09-37.66,39.05c-6.78,16.29-5.08,35.16,1.16,51.67s16.66,31.07,27.39,45.08
		c9.98,13.02,22.06,26.75,38.36,28.54c7.52,0.82,15.04-1.06,22.36-2.93c8.07-2.06,16.31-4.2,23.25-8.78
		c4.34-2.86,8.04-6.6,11.37-10.59c12.3-14.71,19.73-32.59,30.02-48.62c4.18-6.52,6.89-11.67,9.13-18.97
		c2.73-8.86,8.13-16.7,11.31-25.44C819.21,148.13,821.5,137.42,822.24,126.6z"/>
	<path class="st6" d="M397.33,404.72c-22.64,44.56-78.43,167.61-15.48,226.88c40.58,38.21,132.45,21.09,213.42,5.28"/>
	<path class="st6" d="M774.55,282.68c16.04-3.76,30.63-13.43,40.33-26.74"/>
	<path class="st6" d="M769.13,263.03c18.42-9.11,34.32-23.24,45.54-40.46"/>
	<path class="st6" d="M763.63,186.99c0.69,18.28-30.9,36.45-29.62,48.76c0.76,7.37,7.72,9.64,12.05,8.73
		c13.44-2.83,52.41-29.52,61.96-52.1l12.77-26.93c1.37-2.88-0.8-6.19-3.99-6.09l-33.25,1.13c-3.16,0.11-6.04,1.86-7.59,4.61
		L763.63,186.99z"/>
	<path class="st6" d="M740.97,188.46c-2.5,15.58-18.8,17.83-26.77,42.52c-3.24,10.03-6.18,31.43-50.39,32.31
		c-29.22,0.58-200.24-6.97-278.21-9.55c-82.17-2.72-168.4-4.58-241.65,32.76c-65.53,33.41-114.34,97.9-128.7,170.04
		c-7.55,37.96-5.75,78.42,9.57,113.96s45.01,65.6,81.95,77.18s120.24,9.19,150.77-114.08c7.08-28.57,13.49-57.33,22.72-85.28
		c8.45-25.59,19.36-50.5,35.06-72.41c52.23-72.88,188.58-57.99,162.62,90.98c-13.92,79.85-11.3,118.97,111.94,94.64"/>
	<path class="st6" d="M822.9,272.87c-15.02,23.12-40.56,37.56-66.7,46.3c-78.9,26.37-273.84-5.93-378.37,16.24
		c-18.74,3.97-26.44,8.81-37.65,16.13c-47.79,31.19-107.79,42.7-138.62,12.03c-23.63-23.5-21.97-63.23-3.7-87.12
		c19.25-25.17,60.53-42.9,91.57-63.78c26.29-17.69,47.9-35.62,51.31-108.33c2.68-57.29,48.08-79.45,48.08-79.45
		c53.1-28.82,101.62-1.1,117.14,15.63c20.73,22.35,31.36,43.1,39.09,68.39c3.57,11.68,5.15,25.97-3.41,34.69
		c-5.67,5.78-14.5,7.57-20.12,13.39c-7.08,7.32-7.16,18.65-9.63,28.54c-3.01,12.04-10.79,23.4-22.26,28.14
		c-11.45,4.73-24.76,3.03-36.44-1.1c-49.91-17.64-74.42,29.98-81.87,40.73"/>
	<path class="st6" d="M591.75,578.88c0,0-19.49,5.08-40.49,7.15"/>
	<path class="st6" d="M594.33,598.88c0,0-25.49,6.1-40.49,7.65"/>
	<path class="st6" d="M594.62,617.46c0,0-27.4,7.16-40.93,7.49"/>
	<path class="st6" d="M518.28,55.14c-5.09-7.07-16.76-6.44-24.36-2.55s-12.4,11.62-16.06,19.32s-4.15,9.34-9.73,15.8
		c-3.03,3.5-6.9,6.46-11.41,7.5c-4.51,1.04-14.73,2.09-21.35-14.86c-3.74-9.57-14.29-10.84-21.48-7.79
		c-7.2,3.05-10.27,8.6-11.08,16.38c-0.81,7.77,4.03,13.62,7.72,20.5c2.76,5.15,4.91,8.78,6.1,14.5c2.01,9.64-3.42,18.16-11.72,23.45
		c-8.3,5.29-20.25,4.74-31.43,5.16l-39.31,0.15"/>
	<line class="st6" x1="814.21" y1="159.45" x2="788.22" y2="217.62"/>
	<line class="st6" x1="749.31" y1="212.82" x2="734.72" y2="237.15"/>
	<path class="st6" d="M487.99,178.03c0,0,22.25,15.54,50.14-0.19"/>
	<path class="st6" d="M1458.09,29.8c65.09,73.92,47.01,145.86-1.21,174.62c-37.86,22.58-92.86,25.59-135.39,37.16
		c-39.39,10.72-69.98,41.79-93.84,74.92c-23.86,33.13-43.21,69.72-70.96,99.67c-27.75,29.95-66.84,53.22-107.45,49
		c-23.78-2.48-45.55-14.02-66.36-25.78c-14.28-8.07-29.96-16.64-46.13-13.91c-17.44,2.95-27.69,18.88-32.06,36.03
		s-4.43,35.34-0.77,52.65c6.04,28.6,15.69,58.3,37.95,77.24c18.34,15.6,48.35,20.79,65.76,4.15c13.04-12.47,14.94-32.89,11.31-50.56
		c-5.32-25.89-34.4-77.78-89.17-114.8c-15.21-10.28-47.27,4.89-80.83,2.16c-55.23-4.49-68.32-15.93-75.04-23.3
		c-2.64-2.89-4.44-8.61-3.31-11.47c2.06-5.21,8.59-7.02,12.77-2.57c3.25,3.46,3.34,8.98,2.71,13.69c-0.63,4.71-2.81,9.04-4.6,13.44
		c-13.57,33.27-3.65,74.67,23.52,98.18c27.16,23.51,71.04,25.34,102.01,7.14"/>
	<path class="st6" d="M1394.61,280.09c14.41,35.85,29.08,74.72,19.61,112.18c-9.17,36.26-40.12,66.43-39.93,103.83
		c0.15,30.48,21.42,57.91,21.33,88.38c-0.02,5.48-0.82,11.19-3.88,15.73c-3.12,4.62-8.17,7.49-13.04,10.19
		c-20.84,11.57-41.67,23.14-62.51,34.7c-3.24,1.8-6.51,3.61-10.06,4.64c-4.21,1.23-8.66,1.32-13.04,1.4
		c-10.34,0.19-20.68,0.38-31.01,0.57c-1.45,0.03-3.02,0.02-4.18-0.86c-1.14-0.86-1.58-2.35-1.85-3.76
		c-2.48-12.79,4.68-26.81,16.49-32.3c8.52-3.96,18.36-3.63,27.43-6.08c22.75-6.13,37.74-29.6,39.91-53.06
		c2.17-23.46-6.2-46.67-17.02-67.6c-10.82-20.93-24.23-40.55-33.41-62.25c-5.21-12.31-9.01-25.2-11.32-38.37
		c-1.4-7.98-1.85-16.68,0.37-24.25c1.8-6.14,8.09-5.85,11.88-0.13c17.8,26.9,6.75,83.24-8.83,114.93s-42.5,57.65-74.74,72.08
		c-25.35,11.34-53.4,15.63-78.73,27.02c-33.35,15-60.9,42.49-74.61,73.32c-101.75,0.09-203.5,0.18-305.25,0.27
		c-1.99,0-4.15-0.06-5.67-1.34c-1.43-1.21-1.89-3.2-2.03-5.06c-0.98-13.59,11.59-25.63,25.04-27.88c11.28-1.89,25.02,2.2,38.44,4.61
		c34.24,6.15,126.95,8.02,138.18-2.07c9.17-8.25,7.98-16.8-0.31-27.54"/>
	<circle class="st6" cx="873.34" cy="463.01" r="7.33"/>
	<path class="st8" d="M767.94,477.95c-3.66,0.53-7.3,1.46-10.48,3.15c-4.46,2.37-7.84,6.11-10.32,10.18
		c-7.59,12.45-6.78,28.67,2.27,40.31c9.05,11.64,26.04,18.02,41.69,15.4c5.47-0.92,10.84-2.92,14.76-6.43
		c6.83-6.12,8.08-15.45,8.96-24.03C817.36,491.46,797.45,473.73,767.94,477.95z"/>
	<path class="st0" d="M822.04,126.6c0.13-1.9,0.21-3.84-0.29-5.68c-0.64-2.34-2.16-4.34-3.84-6.09
		c-8.37-8.77-20.59-12.63-32.42-15.29c-17.59-3.95-35.61-6-53.63-6.09c-9.03-0.05-18.16,0.41-26.85,2.87
		c-9.48,2.68-18.14,7.67-26.42,13c-15.44,9.95-30.61,22.09-37.66,39.05c-6.78,16.29-5.08,35.16,1.16,51.67
		c6.24,16.51,16.66,31.07,27.39,45.08c9.98,13.02,22.06,26.75,38.36,28.54c7.52,0.82,15.04-1.06,22.36-2.93
		c8.07-2.06,16.31-4.2,23.25-8.78c4.34-2.86,8.04-6.6,11.37-10.59c12.3-14.71,19.73-32.59,30.02-48.62
		c4.18-6.52,6.89-11.67,9.13-18.97c2.73-8.86,8.13-16.7,11.31-25.44C819.01,148.13,821.3,137.42,822.04,126.6z"/>
	<path class="st6" d="M397.13,404.72c-22.64,44.56-78.43,167.61-15.48,226.88c40.58,38.21,132.45,21.09,213.42,5.28"/>
	<path class="st6" d="M774.35,282.68c16.04-3.76,30.63-13.43,40.33-26.74"/>
	<path class="st6" d="M768.93,263.03c18.42-9.11,34.32-23.24,45.54-40.46"/>
	<path class="st6" d="M763.43,186.99c0.69,18.28-30.9,36.45-29.62,48.76c0.76,7.37,7.72,9.64,12.05,8.73
		c13.44-2.83,52.41-29.52,61.96-52.1l12.77-26.93c1.37-2.88-0.8-6.19-3.99-6.09l-33.25,1.13c-3.16,0.11-6.04,1.86-7.59,4.61
		L763.43,186.99z"/>
	<path class="st6" d="M740.77,188.46c-2.5,15.58-18.8,17.83-26.77,42.52c-3.24,10.03-6.18,31.43-50.39,32.31
		c-29.22,0.58-200.24-6.97-278.21-9.55c-82.17-2.72-168.4-4.58-241.65,32.76c-65.53,33.41-114.34,97.9-128.7,170.04
		c-7.55,37.96-5.75,78.42,9.57,113.96s45.01,65.6,81.95,77.18s120.24,9.19,150.77-114.08c7.08-28.57,13.49-57.33,22.72-85.28
		c8.45-25.59,19.36-50.5,35.06-72.41c52.23-72.88,188.58-57.99,162.62,90.98c-13.92,79.85-11.3,118.97,111.94,94.64"/>
	<path class="st6" d="M822.7,272.87c-15.02,23.12-40.56,37.56-66.7,46.3c-78.9,26.37-273.84-5.93-378.37,16.24
		c-18.74,3.97-26.44,8.81-37.65,16.13c-47.79,31.19-107.79,42.7-138.62,12.03c-23.63-23.5-21.97-63.23-3.7-87.12
		c19.25-25.17,60.53-42.9,91.57-63.78c26.29-17.69,47.9-35.62,51.31-108.33c2.68-57.29,48.08-79.45,48.08-79.45
		c53.1-28.82,101.62-1.1,117.14,15.63c20.73,22.35,31.36,43.1,39.09,68.39c3.57,11.68,5.15,25.97-3.41,34.69
		c-5.67,5.78-14.5,7.57-20.12,13.39c-7.08,7.32-7.16,18.65-9.63,28.54c-3.01,12.04-10.79,23.4-22.26,28.14
		c-11.45,4.73-24.76,3.03-36.44-1.1c-49.91-17.64-74.42,29.98-81.87,40.73"/>
	<path class="st6" d="M591.55,578.88c0,0-19.49,5.08-40.49,7.15"/>
	<path class="st6" d="M594.13,598.88c0,0-25.49,6.1-40.49,7.65"/>
	<path class="st6" d="M594.42,617.46c0,0-27.4,7.16-40.93,7.49"/>
	<path class="st6" d="M518.08,55.14c-5.09-7.07-16.76-6.44-24.36-2.55s-12.4,11.62-16.06,19.32s-4.15,9.34-9.73,15.8
		c-3.03,3.5-6.9,6.46-11.41,7.5c-4.51,1.04-14.73,2.09-21.35-14.86c-3.74-9.57-14.29-10.84-21.48-7.79
		c-7.2,3.05-10.27,8.6-11.08,16.38s4.03,13.62,7.72,20.5c2.76,5.15,4.91,8.78,6.1,14.5c2.01,9.64-3.42,18.16-11.72,23.45
		c-8.3,5.29-20.25,4.74-31.43,5.16l-39.31,0.15"/>
	<line class="st6" x1="814.01" y1="159.45" x2="788.02" y2="217.62"/>
	<line class="st6" x1="749.11" y1="212.82" x2="734.52" y2="237.15"/>
	<path class="st6" d="M487.79,178.03c0,0,22.25,15.54,50.14-0.19"/>
	<path class="st6" d="M1457.89,29.8c65.09,73.92,47.01,145.86-1.21,174.62c-37.86,22.58-92.86,25.59-135.39,37.16
		c-39.39,10.72-69.98,41.79-93.84,74.92s-43.21,69.72-70.96,99.67c-27.75,29.95-66.84,53.22-107.45,49
		c-23.78-2.48-45.55-14.02-66.36-25.78c-14.28-8.07-29.96-16.64-46.13-13.91c-17.44,2.95-27.69,18.88-32.06,36.03
		s-4.43,35.34-0.77,52.65c6.04,28.6,15.69,58.3,37.95,77.24c18.34,15.6,48.35,20.79,65.76,4.15c13.04-12.47,14.94-32.89,11.31-50.56
		c-5.32-25.89-34.4-77.78-89.17-114.8c-15.21-10.28-47.27,4.89-80.83,2.16c-55.23-4.49-68.32-15.93-75.04-23.3
		c-2.64-2.89-4.44-8.61-3.31-11.47c2.06-5.21,8.59-7.02,12.77-2.57c3.25,3.46,3.34,8.98,2.71,13.69c-0.63,4.71-2.81,9.04-4.6,13.44
		c-13.57,33.27-3.65,74.67,23.52,98.18s71.04,25.34,102.01,7.14"/>
	<path class="st6" d="M1394.41,280.09c14.41,35.85,29.08,74.72,19.61,112.18c-9.17,36.26-40.12,66.43-39.93,103.83
		c0.15,30.48,21.42,57.91,21.33,88.38c-0.02,5.48-0.82,11.19-3.88,15.73c-3.12,4.62-8.17,7.49-13.04,10.19
		c-20.84,11.57-41.67,23.14-62.51,34.7c-3.24,1.8-6.51,3.61-10.06,4.64c-4.21,1.23-8.66,1.32-13.04,1.4
		c-10.34,0.19-20.68,0.38-31.01,0.57c-1.45,0.03-3.02,0.02-4.18-0.86c-1.14-0.86-1.58-2.35-1.85-3.76
		c-2.48-12.79,4.68-26.81,16.49-32.3c8.52-3.96,18.36-3.63,27.43-6.08c22.75-6.13,37.74-29.6,39.91-53.06
		c2.17-23.46-6.2-46.67-17.02-67.6c-10.82-20.93-24.23-40.55-33.41-62.25c-5.21-12.31-9.01-25.2-11.32-38.37
		c-1.4-7.98-1.85-16.68,0.37-24.25c1.8-6.14,8.09-5.85,11.88-0.13c17.8,26.9,6.75,83.24-8.83,114.93s-42.5,57.65-74.74,72.08
		c-25.35,11.34-53.4,15.63-78.73,27.02c-33.35,15-60.9,42.49-74.61,73.32c-101.75,0.09-203.5,0.18-305.25,0.27
		c-1.99,0-4.15-0.06-5.67-1.34c-1.43-1.21-1.89-3.2-2.03-5.06c-0.98-13.59,11.59-25.63,25.04-27.88c11.28-1.89,25.02,2.2,38.44,4.61
		c34.24,6.15,126.95,8.02,138.18-2.07c9.17-8.25,7.98-16.8-0.31-27.54"/>
	<circle class="st6" cx="873.14" cy="463.01" r="7.33"/>
</g>
</svg>
