<svg width="743" height="297" viewBox="0 0 743 297" fill="none" xmlns="http://www.w3.org/2000/svg">
<path d="M59.3601 134.785C41.4767 134.785 27.2788 128.622 16.7663 116.297C6.2538 103.972 0.997541 87.7807 0.997541 67.7224C0.997541 47.7849 6.31421 31.5328 16.9476 18.9661C27.5809 6.39942 41.8997 0.116085 59.9039 0.116085C73.4372 0.116085 84.5539 3.62025 93.2539 10.6286C102.075 17.6369 107.573 27.2432 109.748 39.4474H97.7851C95.9726 30.7474 91.7435 23.7994 85.0976 18.6036C78.4518 13.2869 69.9934 10.6286 59.7226 10.6286C45.1017 10.6286 33.7434 16.0057 25.6476 26.7599C17.6726 37.3932 13.6851 51.0474 13.6851 67.7224C13.6851 84.3974 17.6726 97.9912 25.6476 108.504C33.7434 118.895 45.0413 124.091 59.5413 124.091C71.5039 124.091 80.9893 120.466 87.9976 113.216C95.006 105.966 99.0539 96.662 100.141 85.3037H111.923C111.198 98.9578 106.727 110.256 98.5101 119.197C89.206 129.589 76.1559 134.785 59.3601 134.785ZM183.835 124.091C198.939 124.091 210.66 118.775 218.998 108.141C227.456 97.387 231.685 83.8537 231.685 67.5411C231.685 51.2286 227.456 37.7557 218.998 27.1224C210.66 16.3682 198.939 10.9911 183.835 10.9911C168.852 10.9911 157.191 16.3682 148.854 27.1224C140.516 37.7557 136.348 51.2286 136.348 67.5411C136.348 83.8537 140.516 97.387 148.854 108.141C157.191 118.775 168.852 124.091 183.835 124.091ZM183.835 134.966C165.831 134.966 151.27 128.622 140.154 115.935C129.158 103.247 123.66 87.1162 123.66 67.5411C123.66 47.9661 129.158 31.8349 140.154 19.1474C151.27 6.45984 165.831 0.116085 183.835 0.116085C201.96 0.116085 216.581 6.45984 227.698 19.1474C238.814 31.8349 244.373 47.9661 244.373 67.5411C244.373 87.1162 238.814 103.247 227.698 115.935C216.581 128.622 201.96 134.966 183.835 134.966ZM262.549 132.429V2.83483H320.367C331.967 2.83483 340.97 5.9765 347.374 12.2598C353.899 18.4223 357.161 26.9411 357.161 37.8161C357.161 54.0078 349.911 64.3995 335.411 68.9911V69.5349C341.936 71.7099 346.528 75.4557 349.186 80.7724C351.965 85.9682 353.597 93.7016 354.08 103.972C354.805 120.406 356.678 129.65 359.699 131.704V132.429H346.649C345.199 131.462 344.172 129.166 343.567 125.541C343.084 121.916 342.54 114.545 341.936 103.429C341.453 92.4328 339.097 84.8807 334.867 80.7724C330.759 76.6641 323.872 74.6099 314.205 74.6099H274.692V132.429H262.549ZM274.692 64.2786H316.199C325.503 64.2786 332.572 62.1036 337.405 57.7536C342.238 53.2828 344.655 46.9995 344.655 38.9036C344.655 30.5661 342.54 24.2828 338.311 20.0536C334.082 15.7036 327.255 13.5286 317.83 13.5286H274.692V64.2786ZM399.091 136.941C391.383 136.941 385.555 133.087 381.607 125.379C377.847 117.483 375.967 107.989 375.967 96.8967C375.967 83.9247 378.881 69.6367 384.709 54.0327C390.725 38.4287 398.151 26.2087 406.987 17.3727C410.747 13.6127 415.353 10.2287 420.805 7.2207C426.445 4.21271 431.239 2.70871 435.187 2.70871C436.879 2.70871 438.477 2.89671 439.981 3.2727C441.673 3.6487 443.177 4.1187 444.493 4.68271C445.809 5.24671 447.125 6.0927 448.441 7.2207C449.945 8.16071 451.167 9.00671 452.107 9.7587C453.047 10.5107 454.175 11.6387 455.491 13.1427C456.807 14.4587 457.747 15.5867 458.311 16.5267C458.875 17.2787 459.721 18.5007 460.849 20.1927C461.977 21.6967 462.635 22.7307 462.823 23.2947C463.199 23.6707 463.857 24.7047 464.797 26.3967L466.207 28.6527H468.745L474.949 2.9907H486.229L472.975 59.3907L458.029 123.687L467.053 125.661L489.895 102.819L494.407 107.895C490.271 114.099 484.913 120.491 478.333 127.071C471.941 133.651 466.771 136.941 462.823 136.941C459.815 136.941 456.055 135.813 451.543 133.557C447.219 131.301 445.057 129.233 445.057 127.353C445.057 123.781 450.791 102.913 462.259 64.7487H459.439C458.311 66.4407 454.833 71.9867 449.005 81.3867C443.177 90.7867 437.819 99.1527 432.931 106.485C428.043 113.629 422.309 120.491 415.729 127.071C409.149 133.651 403.603 136.941 399.091 136.941ZM402.193 125.661C403.885 125.661 405.765 125.003 407.833 123.687C409.901 122.371 412.251 120.209 414.883 117.201C417.703 114.005 420.335 110.997 422.779 108.177C425.223 105.169 428.231 100.939 431.803 95.4867C435.563 89.8467 438.665 85.1467 441.109 81.3867C443.741 77.4387 447.313 71.8927 451.825 64.7487C456.525 57.6047 460.191 51.9647 462.823 47.8287L465.361 39.0867C451.637 22.7307 439.699 14.5527 429.547 14.5527C424.659 14.5527 419.583 17.1847 414.319 22.4487C407.739 29.0287 402.005 39.8387 397.117 54.8787C392.229 69.7307 389.785 82.6087 389.785 93.5127C389.785 114.945 393.921 125.661 402.193 125.661ZM518.895 132.429V2.83483H531.039V121.191H600.095V132.429H518.895ZM616.613 132.429V2.83483H628.757V132.429H616.613ZM652.709 132.429V2.83483H740.796V13.5286H664.853V60.1099H734.453V70.6224H664.853V121.191H742.79V132.429H652.709ZM94.0851 292.429V162.835H110.579L155.348 275.935H155.71L199.391 162.835H216.429V292.429H204.648V179.51H204.285C201.989 186.397 199.935 192.258 198.123 197.091L160.604 292.429H149.91L112.029 197.091L105.685 179.51H105.323V292.429H94.0851ZM258.155 296.941C250.447 296.941 244.619 293.087 240.671 285.379C236.911 277.483 235.031 267.989 235.031 256.897C235.031 243.925 237.945 229.637 243.773 214.033C249.789 198.429 257.215 186.209 266.051 177.373C269.811 173.613 274.417 170.229 279.869 167.221C285.509 164.213 290.303 162.709 294.251 162.709C295.943 162.709 297.541 162.897 299.045 163.273C300.737 163.649 302.241 164.119 303.557 164.683C304.873 165.247 306.189 166.093 307.505 167.221C309.009 168.161 310.231 169.007 311.171 169.759C312.111 170.511 313.239 171.639 314.555 173.143C315.871 174.459 316.811 175.587 317.375 176.527C317.939 177.279 318.785 178.501 319.913 180.193C321.041 181.697 321.699 182.731 321.887 183.295C322.263 183.671 322.921 184.705 323.861 186.397L325.271 188.653H327.809L334.013 162.991H345.293L332.039 219.391L317.093 283.687L326.117 285.661L348.959 262.819L353.471 267.895C349.335 274.099 343.977 280.491 337.397 287.071C331.005 293.651 325.835 296.941 321.887 296.941C318.879 296.941 315.119 295.813 310.607 293.557C306.283 291.301 304.121 289.233 304.121 287.353C304.121 283.781 309.855 262.913 321.323 224.749H318.503C317.375 226.441 313.897 231.987 308.069 241.387C302.241 250.787 296.883 259.153 291.995 266.485C287.107 273.629 281.373 280.491 274.793 287.071C268.213 293.651 262.667 296.941 258.155 296.941ZM261.257 285.661C262.949 285.661 264.829 285.003 266.897 283.687C268.965 282.371 271.315 280.209 273.947 277.201C276.767 274.005 279.399 270.997 281.843 268.177C284.287 265.169 287.295 260.939 290.867 255.487C294.627 249.847 297.729 245.147 300.173 241.387C302.805 237.439 306.377 231.893 310.889 224.749C315.589 217.605 319.255 211.965 321.887 207.829L324.425 199.087C310.701 182.731 298.763 174.553 288.611 174.553C283.723 174.553 278.647 177.185 273.383 182.449C266.803 189.029 261.069 199.839 256.181 214.879C251.293 229.731 248.849 242.609 248.849 253.513C248.849 274.945 252.985 285.661 261.257 285.661ZM414.39 292.429V235.879L367.628 162.835H381.04L420.553 225.547H420.915L460.79 162.835H473.84L426.715 236.241V292.429H414.39ZM486.638 292.429V162.835H574.726V173.529H498.782V220.11H568.382V230.622H498.782V281.191H576.72V292.429H486.638ZM594.964 292.429V162.835H652.783C664.383 162.835 673.385 165.977 679.789 172.26C686.314 178.422 689.576 186.941 689.576 197.816C689.576 214.008 682.326 224.399 667.826 228.991V229.535C674.351 231.71 678.943 235.456 681.601 240.772C684.38 245.968 686.012 253.702 686.495 263.972C687.22 280.406 689.093 289.65 692.114 291.704V292.429H679.064C677.614 291.462 676.587 289.166 675.983 285.541C675.499 281.916 674.955 274.545 674.351 263.429C673.868 252.433 671.512 244.881 667.283 240.772C663.174 236.664 656.287 234.61 646.62 234.61H607.107V292.429H594.964ZM607.107 224.279H648.614C657.918 224.279 664.987 222.104 669.82 217.754C674.653 213.283 677.07 206.999 677.07 198.904C677.07 190.566 674.955 184.283 670.726 180.054C666.497 175.704 659.67 173.529 650.245 173.529H607.107V224.279Z" fill="black"/>
</svg>
