<svg width="67" height="69" viewBox="0 0 67 69" fill="none" xmlns="http://www.w3.org/2000/svg">
<path d="M56.4381 29.1704L60.9001 31.4182" stroke="#231F20" stroke-width="2.43844" stroke-miterlimit="10" stroke-linecap="round"/>
<path d="M57.8478 24.5081L62.9462 24.739" stroke="#231F20" stroke-width="2.43844" stroke-miterlimit="10" stroke-linecap="round"/>
<path d="M53.5249 33.0748L56.745 37.0343" stroke="#231F20" stroke-width="2.43844" stroke-miterlimit="10" stroke-linecap="round"/>
<path d="M42.9202 56.0063L47.3823 58.2541" stroke="#231F20" stroke-width="2.43844" stroke-miterlimit="10" stroke-linecap="round"/>
<path d="M44.3299 51.3449L49.4283 51.5758" stroke="#231F20" stroke-width="2.43844" stroke-miterlimit="10" stroke-linecap="round"/>
<path d="M40.007 59.9116L43.2272 63.8711" stroke="#231F20" stroke-width="2.43844" stroke-miterlimit="10" stroke-linecap="round"/>
<path d="M23.9634 46.0499C26.8303 40.3588 33.0804 37.4374 39.2608 40.5508C45.5957 43.742 46.7879 50.4124 43.921 56.1035C41.0281 61.8462 34.9583 64.8584 28.6234 61.6671C22.443 58.5538 21.0705 51.7925 23.9634 46.0499ZM41.9896 55.1306C44.5192 50.109 43.2968 44.9086 38.3268 42.4049C33.5112 39.979 28.4244 42.0013 25.8948 47.0228C23.3392 52.0959 24.7548 57.3614 29.5704 59.7873C34.5404 62.291 39.434 60.2037 41.9896 55.1306Z" fill="#231F20"/>
<path d="M37.3235 19.5278C40.1904 13.8367 46.4405 10.9153 52.6209 14.0287C58.9558 17.2199 60.148 23.8903 57.2811 29.5814C54.3882 35.3241 48.3184 38.3363 41.9835 35.1451C35.8031 32.0317 34.4307 25.2704 37.3235 19.5278ZM55.3497 28.6085C57.8793 23.5869 56.657 18.3865 51.6869 15.8828C46.8713 13.4569 41.7845 15.4792 39.2549 20.5007C36.6993 25.5738 38.1149 30.8393 42.9305 33.2652C47.9006 35.7689 52.7941 33.6816 55.3497 28.6085Z" fill="#231F20"/>
<path d="M45.8182 20.3711C47.4347 17.1623 50.9588 15.5152 54.4431 17.2704C58.0148 19.0697 58.6866 22.8305 57.0701 26.0393C55.4392 29.277 52.0172 30.9755 48.4455 29.1763C44.9612 27.4211 44.1872 23.6088 45.8182 20.3711Z" fill="#231F20"/>
<path d="M32.4581 46.8932C34.0745 43.6844 37.5987 42.0373 41.083 43.7925C44.6547 45.5918 45.3265 49.3526 43.71 52.5614C42.079 55.7991 38.6571 57.4976 35.0854 55.6984C31.6011 53.9432 30.8271 50.1309 32.4581 46.8932Z" fill="#231F20"/>
<path d="M26.7385 26.1986C27.016 25.6477 26.7585 24.9721 26.1805 24.7562C25.8229 24.6231 25.4639 24.4657 25.1041 24.2845C20.2886 21.8586 18.873 16.5931 21.4286 11.52C23.9582 6.49844 29.045 4.47623 33.8605 6.90208C34.2375 7.09195 34.5928 7.29738 34.9271 7.5176C35.4274 7.84695 36.1 7.69853 36.4048 7.18285C36.6903 6.69954 36.5441 6.07505 36.0706 5.77391C35.6583 5.51243 35.2167 5.26062 34.7946 5.04795C28.6142 1.93457 22.3641 4.85597 19.4972 10.5471C16.6043 16.2897 17.9768 23.051 24.1572 26.1643C24.5848 26.3798 25.0106 26.5659 25.4348 26.7258C25.9325 26.9129 26.4904 26.6911 26.7294 26.2166L26.7385 26.1986V26.1986Z" fill="#231F20"/>
<path d="M13.3803 52.7178C13.6571 52.1684 13.4004 51.4952 12.8246 51.2805C12.4655 51.1465 12.1053 50.9895 11.7448 50.8079C6.92925 48.3821 5.51365 43.1166 8.06922 38.0435C10.5988 33.0219 15.6856 30.9997 20.5012 33.4255C20.8617 33.6072 21.2023 33.8032 21.5237 34.012C22.0392 34.3481 22.7334 34.1528 23.0102 33.6034C23.2484 33.1305 23.0946 32.5521 22.65 32.2655C22.2682 32.0194 21.8644 31.7876 21.436 31.5718C15.254 28.4576 9.00397 31.379 6.13706 37.0702C3.24421 42.8128 4.61664 49.574 10.797 52.6874C11.2255 52.9032 11.6528 53.0901 12.0771 53.25C12.5724 53.436 13.1287 53.2153 13.3666 52.7432L13.3795 52.7174L13.3803 52.7178Z" fill="#231F20"/>
</svg>
