<svg width="303" height="109" viewBox="0 0 303 109" fill="none" xmlns="http://www.w3.org/2000/svg">
<path d="M45.9316 50.2994C39.9011 50.2994 35.1134 48.2214 31.5685 44.0652C28.0236 39.9091 26.2511 34.4491 26.2511 27.6852C26.2511 20.962 28.0439 15.4816 31.6296 11.244C35.2153 7.00634 40.0438 4.88752 46.115 4.88752C50.6786 4.88752 54.4273 6.06917 57.361 8.43246C60.3355 10.7958 62.1895 14.0351 62.9229 18.1505H58.889C58.2778 15.2167 56.8517 12.8738 54.6106 11.1217C52.3696 9.32888 49.5173 8.43246 46.0539 8.43246C41.1235 8.43246 37.2934 10.2457 34.5634 13.8721C31.8741 17.4578 30.5295 22.0621 30.5295 27.6852C30.5295 33.3082 31.8741 37.8921 34.5634 41.4371C37.2934 44.9413 41.1032 46.6934 45.9927 46.6934C50.0266 46.6934 53.2252 45.471 55.5885 43.0262C57.9518 40.5814 59.3168 37.4439 59.6835 33.6138H63.6563C63.4119 38.2181 61.9042 42.0279 59.1335 45.0431C55.996 48.5473 51.5954 50.2994 45.9316 50.2994ZM87.906 46.6934C92.9993 46.6934 96.9517 44.9005 99.7633 41.3148C102.616 37.6884 104.042 33.1248 104.042 27.624C104.042 22.1233 102.616 17.58 99.7633 13.9944C96.9517 10.3679 92.9993 8.5547 87.906 8.5547C82.8535 8.5547 78.9214 10.3679 76.1099 13.9944C73.2984 17.58 71.8927 22.1233 71.8927 27.624C71.8927 33.1248 73.2984 37.6884 76.1099 41.3148C78.9214 44.9005 82.8535 46.6934 87.906 46.6934ZM87.906 50.3606C81.8348 50.3606 76.9249 48.2214 73.1762 43.943C69.4683 39.6646 67.6143 34.225 67.6143 27.624C67.6143 21.0231 69.4683 15.5835 73.1762 11.3051C76.9249 7.02671 81.8348 4.88752 87.906 4.88752C94.018 4.88752 98.9483 7.02671 102.697 11.3051C106.446 15.5835 108.32 21.0231 108.32 27.624C108.32 34.225 106.446 39.6646 102.697 43.943C98.9483 48.2214 94.018 50.3606 87.906 50.3606ZM114.449 49.5049V5.80432H133.946C137.858 5.80432 140.894 6.86372 143.053 8.98254C145.253 11.0606 146.354 13.9332 146.354 17.6004C146.354 23.0604 143.909 26.5646 139.019 28.113V28.2964C141.22 29.0298 142.768 30.2929 143.664 32.0858C144.602 33.8379 145.152 36.4456 145.315 39.9091C145.559 45.4506 146.191 48.5677 147.209 49.2604V49.5049H142.809C142.32 49.1789 141.973 48.4047 141.77 47.1823C141.607 45.9599 141.423 43.4744 141.22 39.7257C141.057 36.0178 140.262 33.4712 138.836 32.0858C137.451 30.7004 135.128 30.0077 131.868 30.0077H118.544V49.5049H114.449ZM118.544 26.5239H132.541C135.678 26.5239 138.062 25.7904 139.692 24.3236C141.321 22.816 142.136 20.6971 142.136 17.9671C142.136 15.1556 141.423 13.0368 139.997 11.6107C138.571 10.1438 136.269 9.41038 133.091 9.41038H118.544V26.5239ZM160.493 51.0264C157.894 51.0264 155.928 49.7268 154.597 47.1275C153.329 44.4649 152.695 41.2634 152.695 37.5231C152.695 33.1488 153.678 28.3307 155.643 23.0688C157.672 17.807 160.176 13.6863 163.155 10.7067C164.423 9.43874 165.977 8.29761 167.815 7.28328C169.717 6.26895 171.334 5.76178 172.665 5.76178C173.235 5.76178 173.774 5.82518 174.281 5.95197C174.852 6.07876 175.359 6.23725 175.803 6.42744C176.247 6.61762 176.69 6.9029 177.134 7.28328C177.641 7.60026 178.053 7.88554 178.37 8.13912C178.687 8.39271 179.068 8.77308 179.512 9.28025C179.955 9.72402 180.272 10.1044 180.463 10.4214C180.653 10.675 180.938 11.087 181.318 11.6576C181.699 12.1648 181.921 12.5134 181.984 12.7036C182.111 12.8304 182.333 13.1791 182.65 13.7497L183.125 14.5104H183.981L186.073 5.85687H189.877L185.407 24.8756L180.367 46.557L183.41 47.2226L191.113 39.52L192.635 41.2317C191.24 43.3238 189.433 45.4792 187.214 47.6981C185.059 49.917 183.315 51.0264 181.984 51.0264C180.97 51.0264 179.702 50.646 178.18 49.8853C176.722 49.1245 175.993 48.4272 175.993 47.7932C175.993 46.5887 177.927 39.5517 181.794 26.6824H180.843C180.463 27.253 179.29 29.1231 177.324 32.2929C175.359 35.4627 173.552 38.2838 171.904 40.7563C170.256 43.1653 168.322 45.4792 166.103 47.6981C163.885 49.917 162.014 51.0264 160.493 51.0264ZM161.539 47.2226C162.109 47.2226 162.743 47.0007 163.441 46.557C164.138 46.1132 164.931 45.3842 165.818 44.3698C166.769 43.2921 167.657 42.2778 168.481 41.3268C169.305 40.3125 170.319 38.8861 171.524 37.0476C172.792 35.1457 173.838 33.5608 174.662 32.2929C175.549 30.9616 176.754 29.0914 178.275 26.6824C179.86 24.2734 181.096 22.3715 181.984 20.9768L182.84 18.0289C178.212 12.5134 174.186 9.75572 170.763 9.75572C169.115 9.75572 167.403 10.6433 165.628 12.4183C163.409 14.6372 161.475 18.2825 159.827 23.3541C158.179 28.3624 157.355 32.705 157.355 36.382C157.355 43.6091 158.749 47.2226 161.539 47.2226ZM200.892 49.5049V5.80432H204.987V45.7155H228.274V49.5049H200.892ZM233.844 49.5049V5.80432H237.939V49.5049H233.844ZM246.016 49.5049V5.80432H275.72V9.41038H250.111V25.1181H273.581V28.6631H250.111V45.7155H276.392V49.5049H246.016Z" fill="black"/>
<path d="M4.8101 106.806V63.1051H10.372L25.4685 101.244H25.5908L40.3206 63.1051H46.0659V106.806H42.0931V68.7281H41.9709C41.1967 71.0507 40.504 73.0269 39.8928 74.6567L27.241 106.806H23.635L10.8609 74.6567L8.72176 68.7281H8.59952V106.806H4.8101ZM60.1363 108.327C57.5371 108.327 55.5718 107.028 54.2405 104.428C52.9726 101.766 52.3386 98.5642 52.3386 94.8239C52.3386 90.4495 53.3213 85.6315 55.2865 80.3696C57.3152 75.1078 59.8193 70.987 62.7989 68.0074C64.0669 66.7395 65.6201 65.5984 67.4585 64.5841C69.3604 63.5697 70.977 63.0626 72.3083 63.0626C72.8789 63.0626 73.4177 63.126 73.9249 63.2527C74.4955 63.3795 75.0026 63.538 75.4464 63.7282C75.8902 63.9184 76.334 64.2037 76.7777 64.5841C77.2849 64.901 77.697 65.1863 78.0139 65.4399C78.3309 65.6935 78.7113 66.0739 79.1551 66.581C79.5988 67.0248 79.9158 67.4052 80.106 67.7222C80.2962 67.9757 80.5815 68.3878 80.9618 68.9584C81.3422 69.4655 81.5641 69.8142 81.6275 70.0044C81.7543 70.1312 81.9762 70.4799 82.2932 71.0504L82.7686 71.8112H83.6245L85.7165 63.1577H89.5203L85.0509 82.1764L80.0109 103.858L83.0539 104.523L90.7565 96.8208L92.278 98.5325C90.8833 100.625 89.0765 102.78 86.8577 104.999C84.7022 107.218 82.9588 108.327 81.6275 108.327C80.6132 108.327 79.3453 107.947 77.8238 107.186C76.3657 106.425 75.6366 105.728 75.6366 105.094C75.6366 103.889 77.5702 96.8525 81.4373 83.9832H80.4864C80.106 84.5537 78.9332 86.4239 76.9679 89.5937C75.0026 92.7635 73.1959 95.5846 71.5476 98.057C69.8993 100.466 67.9657 102.78 65.7469 104.999C63.528 107.218 61.6578 108.327 60.1363 108.327ZM61.1824 104.523C61.7529 104.523 62.3869 104.302 63.0842 103.858C63.7816 103.414 64.574 102.685 65.4616 101.671C66.4125 100.593 67.3001 99.5785 68.1242 98.6276C68.9483 97.6133 69.9627 96.1869 71.1672 94.3484C72.4351 92.4465 73.4811 90.8616 74.3053 89.5937C75.1928 88.2624 76.3973 86.3922 77.9188 83.9832C79.5037 81.5741 80.74 79.6723 81.6275 78.2776L82.4833 75.3296C77.8555 69.8142 73.8298 67.0565 70.4064 67.0565C68.7582 67.0565 67.0465 67.944 65.2714 69.7191C63.0525 71.938 61.119 75.5832 59.4707 80.6549C57.8224 85.6632 56.9982 90.0058 56.9982 93.6827C56.9982 100.91 58.3929 104.523 61.1824 104.523ZM112.821 106.806V87.7363L97.0519 63.1051H101.575L114.899 84.2525H115.021L128.467 63.1051H132.868L116.977 87.8586V106.806H112.821ZM137.184 106.806V63.1051H166.888V66.7112H141.279V82.4189H164.749V85.9639H141.279V103.016H167.56V106.806H137.184ZM173.712 106.806V63.1051H193.209C197.121 63.1051 200.157 64.1645 202.316 66.2833C204.517 68.3614 205.617 71.234 205.617 74.9012C205.617 80.3612 203.172 83.8654 198.282 85.4138V85.5971C200.483 86.3306 202.031 87.5937 202.927 89.3866C203.865 91.1387 204.415 93.7464 204.578 97.2099C204.822 102.751 205.454 105.868 206.472 106.561V106.806H202.072C201.583 106.48 201.236 105.706 201.033 104.483C200.87 103.261 200.686 100.775 200.483 97.0265C200.32 93.3186 199.525 90.7719 198.099 89.3866C196.714 88.0012 194.391 87.3085 191.131 87.3085H177.807V106.806H173.712ZM177.807 83.8247H191.804C194.941 83.8247 197.325 83.0912 198.955 81.6244C200.584 80.1167 201.399 77.9979 201.399 75.2679C201.399 72.4564 200.686 70.3376 199.26 68.9115C197.834 67.4446 195.532 66.7112 192.354 66.7112H177.807V83.8247Z" fill="black"/>
</svg>
