<svg width="1440" height="561" viewBox="0 0 1440 561" fill="none" xmlns="http://www.w3.org/2000/svg">
<rect width="1440" height="561" fill="#001939"/>
<path d="M698.036 233.7H704.876C705.98 233.7 706.884 233.908 707.588 234.324C708.308 234.74 708.828 235.276 709.148 235.932C709.468 236.572 709.628 237.252 709.628 237.972C709.628 238.676 709.484 239.284 709.196 239.796C708.908 240.308 708.548 240.716 708.116 241.02C707.7 241.308 707.3 241.492 706.916 241.572V241.716C707.364 241.764 707.86 241.932 708.404 242.22C708.948 242.492 709.42 242.916 709.82 243.492C710.236 244.068 710.444 244.796 710.444 245.676C710.444 246.476 710.26 247.244 709.892 247.98C709.54 248.716 708.98 249.324 708.212 249.804C707.444 250.268 706.476 250.5 705.308 250.5H698.036V233.7ZM704.156 240.948C704.988 240.948 705.708 240.732 706.316 240.3C706.94 239.852 707.252 239.172 707.252 238.26C707.252 237.38 706.956 236.74 706.364 236.34C705.772 235.94 705.036 235.74 704.156 235.74H700.46V240.948H704.156ZM704.708 248.46C705.636 248.46 706.42 248.244 707.06 247.812C707.716 247.364 708.044 246.628 708.044 245.604C708.044 244.612 707.716 243.9 707.06 243.468C706.42 243.036 705.636 242.82 704.708 242.82H700.46V248.46H704.708ZM718.244 243.996H715.484V250.5H713.012V233.7H718.892C720.252 233.7 721.372 233.956 722.252 234.468C723.132 234.964 723.772 235.604 724.172 236.388C724.572 237.172 724.772 238.004 724.772 238.884C724.772 240.036 724.444 241.068 723.788 241.98C723.132 242.892 722.124 243.5 720.764 243.804L724.988 250.5H722.3L718.244 243.996ZM715.484 241.908H718.556C719.628 241.908 720.532 241.684 721.268 241.236C722.004 240.772 722.372 239.988 722.372 238.884C722.372 237.796 722.004 237.028 721.268 236.58C720.532 236.132 719.628 235.908 718.556 235.908H715.484V241.908ZM736.21 245.868H729.706L728.098 250.5H725.578L731.794 233.7H734.146L740.386 250.5H737.866L736.21 245.868ZM735.514 243.9L732.994 236.844H732.874L730.402 243.9H735.514ZM742.731 233.7H745.563L753.867 246.588H753.939V233.7H756.411V250.5H753.531L745.275 237.876H745.203V250.5H742.731V233.7ZM759.887 233.7H766.151C767.655 233.7 768.967 234.036 770.087 234.708C771.223 235.38 772.103 236.348 772.727 237.612C773.351 238.876 773.663 240.364 773.663 242.076C773.663 243.804 773.351 245.308 772.727 246.588C772.103 247.852 771.223 248.82 770.087 249.492C768.951 250.164 767.631 250.5 766.127 250.5H759.887V233.7ZM765.743 248.22C767.343 248.22 768.623 247.708 769.583 246.684C770.543 245.66 771.023 244.124 771.023 242.076C771.023 240.028 770.543 238.492 769.583 237.468C768.639 236.444 767.359 235.932 765.743 235.932H762.311V248.22H765.743ZM776.39 233.7H778.91V250.5H776.39V233.7ZM782.481 233.7H785.313L793.617 246.588H793.689V233.7H796.161V250.5H793.281L785.025 237.876H784.953V250.5H782.481V233.7ZM806.313 250.668C804.697 250.668 803.337 250.252 802.233 249.42C801.145 248.588 800.337 247.516 799.809 246.204C799.281 244.892 799.017 243.508 799.017 242.052C799.017 240.564 799.281 239.164 799.809 237.852C800.353 236.524 801.185 235.444 802.305 234.612C803.441 233.764 804.849 233.34 806.529 233.34C808.417 233.34 809.945 233.86 811.113 234.9C812.297 235.924 813.113 237.228 813.561 238.812H810.945C810.641 237.788 810.121 236.996 809.385 236.436C808.665 235.876 807.713 235.596 806.529 235.596C804.945 235.596 803.713 236.18 802.833 237.348C801.969 238.516 801.537 240.1 801.537 242.1C801.537 244.148 801.993 245.748 802.905 246.9C803.817 248.052 805.065 248.628 806.649 248.628C807.593 248.628 808.401 248.428 809.073 248.028C809.761 247.628 810.281 247.084 810.633 246.396C810.985 245.708 811.169 244.94 811.185 244.092L811.209 243.516H806.889V241.692H813.585V250.5H811.665V247.812H811.473C811.233 248.228 810.977 248.612 810.705 248.964C810.449 249.3 809.945 249.668 809.193 250.068C808.441 250.468 807.481 250.668 806.313 250.668ZM818.333 250.668C817.885 250.668 817.509 250.516 817.205 250.212C816.917 249.908 816.773 249.54 816.773 249.108C816.773 248.676 816.917 248.316 817.205 248.028C817.509 247.724 817.885 247.572 818.333 247.572C818.781 247.572 819.149 247.724 819.437 248.028C819.741 248.316 819.893 248.676 819.893 249.108C819.893 249.54 819.741 249.908 819.437 250.212C819.149 250.516 818.781 250.668 818.333 250.668ZM818.333 241.044C817.885 241.044 817.509 240.892 817.205 240.588C816.917 240.284 816.773 239.916 816.773 239.484C816.773 239.052 816.917 238.692 817.205 238.404C817.509 238.1 817.885 237.948 818.333 237.948C818.781 237.948 819.149 238.1 819.437 238.404C819.741 238.692 819.893 239.052 819.893 239.484C819.893 239.916 819.741 240.284 819.437 240.588C819.149 240.892 818.781 241.044 818.333 241.044ZM834.752 243.996H831.992V250.5H829.52V233.7H835.4C836.76 233.7 837.88 233.956 838.76 234.468C839.64 234.964 840.28 235.604 840.68 236.388C841.08 237.172 841.28 238.004 841.28 238.884C841.28 240.036 840.952 241.068 840.296 241.98C839.64 242.892 838.632 243.5 837.272 243.804L841.496 250.5H838.808L834.752 243.996ZM831.992 241.908H835.064C836.136 241.908 837.04 241.684 837.776 241.236C838.512 240.772 838.88 239.988 838.88 238.884C838.88 237.796 838.512 237.028 837.776 236.58C837.04 236.132 836.136 235.908 835.064 235.908H831.992V241.908ZM849.523 250.668C848.227 250.668 847.131 250.364 846.235 249.756C845.339 249.148 844.667 248.348 844.219 247.356C843.787 246.348 843.571 245.268 843.571 244.116C843.571 242.948 843.787 241.868 844.219 240.876C844.667 239.868 845.339 239.06 846.235 238.452C847.131 237.828 848.227 237.516 849.523 237.516C850.819 237.516 851.915 237.828 852.811 238.452C853.707 239.06 854.379 239.868 854.827 240.876C855.275 241.868 855.499 242.94 855.499 244.092C855.499 245.244 855.275 246.324 854.827 247.332C854.379 248.324 853.707 249.132 852.811 249.756C851.915 250.364 850.819 250.668 849.523 250.668ZM849.523 248.604C850.627 248.604 851.483 248.172 852.091 247.308C852.715 246.444 853.027 245.364 853.027 244.068C853.027 242.772 852.715 241.7 852.091 240.852C851.483 240.004 850.627 239.58 849.523 239.58C848.435 239.58 847.579 240.012 846.955 240.876C846.331 241.724 846.019 242.788 846.019 244.068C846.019 245.364 846.323 246.444 846.931 247.308C847.555 248.172 848.419 248.604 849.523 248.604ZM863.774 250.692C862.446 250.692 861.334 250.38 860.438 249.756C859.542 249.132 858.87 248.324 858.422 247.332C857.99 246.324 857.774 245.244 857.774 244.092C857.774 242.956 857.99 241.892 858.422 240.9C858.87 239.892 859.542 239.076 860.438 238.452C861.334 237.828 862.446 237.516 863.774 237.516C865.422 237.516 866.726 237.996 867.686 238.956C868.646 239.9 869.222 241.076 869.414 242.484H866.99C866.846 241.62 866.502 240.924 865.958 240.396C865.43 239.852 864.71 239.58 863.798 239.58C862.614 239.58 861.726 240.012 861.134 240.876C860.542 241.74 860.246 242.812 860.246 244.092C860.246 245.372 860.542 246.444 861.134 247.308C861.726 248.172 862.614 248.604 863.798 248.604C864.71 248.604 865.43 248.34 865.958 247.812C866.502 247.284 866.846 246.588 866.99 245.724H869.414C869.222 247.132 868.646 248.316 867.686 249.276C866.726 250.22 865.422 250.692 863.774 250.692ZM872.323 237.852H874.795V250.5H872.323V237.852ZM873.547 235.548C873.115 235.548 872.755 235.404 872.467 235.116C872.179 234.828 872.035 234.468 872.035 234.036C872.035 233.604 872.179 233.244 872.467 232.956C872.755 232.668 873.115 232.524 873.547 232.524C873.979 232.524 874.339 232.676 874.627 232.98C874.915 233.268 875.059 233.62 875.059 234.036C875.059 234.452 874.915 234.812 874.627 235.116C874.339 235.404 873.979 235.548 873.547 235.548ZM883.789 250.668C882.493 250.668 881.397 250.364 880.501 249.756C879.605 249.148 878.933 248.348 878.485 247.356C878.053 246.348 877.837 245.268 877.837 244.116C877.837 242.948 878.053 241.868 878.485 240.876C878.933 239.868 879.605 239.06 880.501 238.452C881.397 237.828 882.493 237.516 883.789 237.516C885.085 237.516 886.181 237.828 887.077 238.452C887.973 239.06 888.645 239.868 889.093 240.876C889.541 241.868 889.765 242.94 889.765 244.092C889.765 245.244 889.541 246.324 889.093 247.332C888.645 248.324 887.973 249.132 887.077 249.756C886.181 250.364 885.085 250.668 883.789 250.668ZM883.789 248.604C884.893 248.604 885.749 248.172 886.357 247.308C886.981 246.444 887.293 245.364 887.293 244.068C887.293 242.772 886.981 241.7 886.357 240.852C885.749 240.004 884.893 239.58 883.789 239.58C882.701 239.58 881.845 240.012 881.221 240.876C880.597 241.724 880.285 242.788 880.285 244.068C880.285 245.364 880.589 246.444 881.197 247.308C881.821 248.172 882.685 248.604 883.789 248.604ZM903.955 233.7C905.315 233.7 906.435 233.972 907.315 234.516C908.195 235.06 908.835 235.756 909.235 236.604C909.635 237.452 909.835 238.356 909.835 239.316C909.835 240.26 909.635 241.148 909.235 241.98C908.835 242.812 908.195 243.5 907.315 244.044C906.435 244.572 905.315 244.836 903.955 244.836H900.499V250.5H898.075V233.7H903.955ZM903.619 242.724C904.691 242.724 905.595 242.468 906.331 241.956C907.067 241.444 907.435 240.564 907.435 239.316C907.435 238.068 907.067 237.196 906.331 236.7C905.595 236.188 904.691 235.932 903.619 235.932H900.499V242.724H903.619ZM916.698 250.668C915.61 250.668 914.674 250.388 913.89 249.828C913.106 249.268 912.506 248.492 912.09 247.5C911.69 246.508 911.49 245.38 911.49 244.116C911.49 242.836 911.698 241.7 912.114 240.708C912.53 239.716 913.13 238.94 913.914 238.38C914.714 237.804 915.666 237.516 916.77 237.516C917.874 237.516 918.754 237.772 919.41 238.284C920.066 238.796 920.562 239.388 920.898 240.06H921.066V237.852H923.562V250.5H921.066V248.052H920.898C920.546 248.756 920.034 249.372 919.362 249.9C918.69 250.412 917.802 250.668 916.698 250.668ZM917.538 248.604C918.674 248.604 919.538 248.172 920.13 247.308C920.738 246.428 921.042 245.356 921.042 244.092C921.042 242.828 920.738 241.764 920.13 240.9C919.538 240.036 918.674 239.604 917.538 239.604C916.386 239.604 915.514 240.036 914.922 240.9C914.33 241.764 914.034 242.82 914.034 244.068C914.034 245.348 914.322 246.428 914.898 247.308C915.49 248.172 916.37 248.604 917.538 248.604ZM930.477 250.596C929.453 250.596 928.693 250.436 928.197 250.116C927.701 249.796 927.389 249.388 927.261 248.892C927.133 248.38 927.069 247.724 927.069 246.924L927.093 232.5H929.565V246.492C929.565 247.084 929.589 247.524 929.637 247.812C929.701 248.1 929.861 248.332 930.117 248.508C930.373 248.684 930.781 248.772 931.341 248.772C931.645 248.772 931.917 248.748 932.157 248.7V250.476C931.485 250.556 930.925 250.596 930.477 250.596ZM940.179 250.668C938.883 250.668 937.787 250.364 936.891 249.756C935.995 249.148 935.323 248.348 934.875 247.356C934.443 246.348 934.227 245.268 934.227 244.116C934.227 242.948 934.443 241.868 934.875 240.876C935.323 239.868 935.995 239.06 936.891 238.452C937.787 237.828 938.883 237.516 940.179 237.516C941.475 237.516 942.571 237.828 943.467 238.452C944.363 239.06 945.035 239.868 945.483 240.876C945.931 241.868 946.155 242.94 946.155 244.092C946.155 245.244 945.931 246.324 945.483 247.332C945.035 248.324 944.363 249.132 943.467 249.756C942.571 250.364 941.475 250.668 940.179 250.668ZM940.179 248.604C941.283 248.604 942.139 248.172 942.747 247.308C943.371 246.444 943.683 245.364 943.683 244.068C943.683 242.772 943.371 241.7 942.747 240.852C942.139 240.004 941.283 239.58 940.179 239.58C939.091 239.58 938.235 240.012 937.611 240.876C936.987 241.724 936.675 242.788 936.675 244.068C936.675 245.364 936.979 246.444 937.587 247.308C938.211 248.172 939.075 248.604 940.179 248.604ZM948.934 237.852H951.406V240.084H951.598C951.646 239.892 951.806 239.596 952.078 239.196C952.35 238.796 952.766 238.42 953.326 238.068C953.886 237.7 954.59 237.516 955.438 237.516C956.35 237.516 957.102 237.724 957.694 238.14C958.302 238.556 958.75 239.004 959.038 239.484C959.326 239.964 959.47 240.268 959.47 240.396H959.662C959.742 240.172 959.918 239.844 960.19 239.412C960.478 238.964 960.934 238.54 961.558 238.14C962.198 237.724 962.99 237.516 963.934 237.516C964.974 237.516 965.83 237.788 966.502 238.332C967.19 238.86 967.686 239.532 967.99 240.348C968.294 241.148 968.446 241.98 968.446 242.844V250.5H965.974V243.084C965.974 241.996 965.686 241.172 965.11 240.612C964.55 240.036 963.854 239.748 963.022 239.748C962.158 239.748 961.422 240.044 960.814 240.636C960.222 241.212 959.926 242.028 959.926 243.084V250.5H957.454V243.084C957.454 241.996 957.166 241.172 956.59 240.612C956.03 240.036 955.334 239.748 954.502 239.748C953.638 239.748 952.902 240.044 952.294 240.636C951.702 241.212 951.406 242.028 951.406 243.084V250.5H948.934V237.852ZM976.276 250.668C975.188 250.668 974.252 250.388 973.468 249.828C972.684 249.268 972.084 248.492 971.668 247.5C971.268 246.508 971.068 245.38 971.068 244.116C971.068 242.836 971.276 241.7 971.692 240.708C972.108 239.716 972.708 238.94 973.492 238.38C974.292 237.804 975.244 237.516 976.348 237.516C977.452 237.516 978.332 237.772 978.988 238.284C979.644 238.796 980.14 239.388 980.476 240.06H980.644V237.852H983.14V250.5H980.644V248.052H980.476C980.124 248.756 979.612 249.372 978.94 249.9C978.268 250.412 977.38 250.668 976.276 250.668ZM977.116 248.604C978.252 248.604 979.116 248.172 979.708 247.308C980.316 246.428 980.62 245.356 980.62 244.092C980.62 242.828 980.316 241.764 979.708 240.9C979.116 240.036 978.252 239.604 977.116 239.604C975.964 239.604 975.092 240.036 974.5 240.9C973.908 241.764 973.612 242.82 973.612 244.068C973.612 245.348 973.9 246.428 974.476 247.308C975.068 248.172 975.948 248.604 977.116 248.604ZM986.528 237.852H989V239.868H989.144C989.352 239.308 989.72 238.836 990.248 238.452C990.792 238.052 991.488 237.852 992.336 237.852C992.56 237.852 992.752 237.86 992.912 237.876C993.072 237.892 993.232 237.932 993.392 237.996L993.296 240.348C992.864 240.22 992.416 240.156 991.952 240.156C991.008 240.156 990.28 240.428 989.768 240.972C989.256 241.5 989 242.38 989 243.612V250.5H986.528V237.852ZM1006.06 243.996H1003.3V250.5H1000.82V233.7H1006.7C1008.06 233.7 1009.18 233.956 1010.06 234.468C1010.94 234.964 1011.58 235.604 1011.98 236.388C1012.38 237.172 1012.58 238.004 1012.58 238.884C1012.58 240.036 1012.26 241.068 1011.6 241.98C1010.94 242.892 1009.94 243.5 1008.58 243.804L1012.8 250.5H1010.11L1006.06 243.996ZM1003.3 241.908H1006.37C1007.44 241.908 1008.34 241.684 1009.08 241.236C1009.82 240.772 1010.18 239.988 1010.18 238.884C1010.18 237.796 1009.82 237.028 1009.08 236.58C1008.34 236.132 1007.44 235.908 1006.37 235.908H1003.3V241.908ZM1020.83 250.668C1019.53 250.668 1018.44 250.364 1017.54 249.756C1016.64 249.148 1015.97 248.348 1015.52 247.356C1015.09 246.348 1014.88 245.268 1014.88 244.116C1014.88 242.948 1015.09 241.868 1015.52 240.876C1015.97 239.868 1016.64 239.06 1017.54 238.452C1018.44 237.828 1019.53 237.516 1020.83 237.516C1022.12 237.516 1023.22 237.828 1024.12 238.452C1025.01 239.06 1025.68 239.868 1026.13 240.876C1026.58 241.868 1026.8 242.94 1026.8 244.092C1026.8 245.244 1026.58 246.324 1026.13 247.332C1025.68 248.324 1025.01 249.132 1024.12 249.756C1023.22 250.364 1022.12 250.668 1020.83 250.668ZM1020.83 248.604C1021.93 248.604 1022.79 248.172 1023.4 247.308C1024.02 246.444 1024.33 245.364 1024.33 244.068C1024.33 242.772 1024.02 241.7 1023.4 240.852C1022.79 240.004 1021.93 239.58 1020.83 239.58C1019.74 239.58 1018.88 240.012 1018.26 240.876C1017.64 241.724 1017.32 242.788 1017.32 244.068C1017.32 245.364 1017.63 246.444 1018.24 247.308C1018.86 248.172 1019.72 248.604 1020.83 248.604ZM1036.42 250.668C1035.33 250.668 1034.45 250.412 1033.78 249.9C1033.11 249.372 1032.6 248.756 1032.25 248.052H1032.08V250.5H1029.56V232.5H1032.08V240.06H1032.25C1032.58 239.388 1033.08 238.796 1033.73 238.284C1034.39 237.772 1035.27 237.516 1036.37 237.516C1037.48 237.516 1038.42 237.804 1039.21 238.38C1040.01 238.94 1040.61 239.716 1041.01 240.708C1041.42 241.7 1041.63 242.836 1041.63 244.116C1041.63 245.38 1041.42 246.508 1041.01 247.5C1040.61 248.492 1040.01 249.268 1039.23 249.828C1038.45 250.388 1037.51 250.668 1036.42 250.668ZM1035.61 248.604C1036.76 248.604 1037.62 248.172 1038.2 247.308C1038.79 246.444 1039.09 245.372 1039.09 244.092C1039.09 242.828 1038.8 241.772 1038.22 240.924C1037.65 240.06 1036.77 239.628 1035.61 239.628C1034.47 239.628 1033.6 240.06 1032.99 240.924C1032.4 241.788 1032.1 242.852 1032.1 244.116C1032.1 245.38 1032.4 246.444 1032.99 247.308C1033.6 248.172 1034.47 248.604 1035.61 248.604ZM1044.64 237.852H1047.11V250.5H1044.64V237.852ZM1045.86 235.548C1045.43 235.548 1045.07 235.404 1044.78 235.116C1044.49 234.828 1044.35 234.468 1044.35 234.036C1044.35 233.604 1044.49 233.244 1044.78 232.956C1045.07 232.668 1045.43 232.524 1045.86 232.524C1046.29 232.524 1046.65 232.676 1046.94 232.98C1047.23 233.268 1047.37 233.62 1047.37 234.036C1047.37 234.452 1047.23 234.812 1046.94 235.116C1046.65 235.404 1046.29 235.548 1045.86 235.548ZM1055.09 250.668C1054.05 250.668 1053.16 250.468 1052.41 250.068C1051.65 249.668 1051.08 249.148 1050.68 248.508C1050.28 247.852 1050.08 247.172 1050.08 246.468V246.348H1052.53V246.444C1052.53 247.02 1052.76 247.54 1053.22 248.004C1053.69 248.452 1054.33 248.676 1055.17 248.676C1055.85 248.676 1056.42 248.508 1056.87 248.172C1057.32 247.836 1057.54 247.38 1057.54 246.804C1057.54 246.308 1057.37 245.924 1057.01 245.652C1056.66 245.364 1056.21 245.172 1055.67 245.076L1054.09 244.836C1053.06 244.676 1052.19 244.316 1051.47 243.756C1050.75 243.18 1050.39 242.348 1050.39 241.26C1050.39 240.076 1050.81 239.156 1051.66 238.5C1052.51 237.844 1053.61 237.516 1054.95 237.516C1055.93 237.516 1056.77 237.7 1057.49 238.068C1058.21 238.42 1058.76 238.892 1059.13 239.484C1059.49 240.076 1059.68 240.716 1059.68 241.404V241.5H1057.23V241.452C1057.23 240.972 1057.04 240.508 1056.65 240.06C1056.27 239.612 1055.68 239.388 1054.88 239.388C1054.21 239.388 1053.66 239.556 1053.25 239.892C1052.83 240.228 1052.62 240.668 1052.62 241.212C1052.62 241.676 1052.8 242.052 1053.15 242.34C1053.5 242.628 1053.94 242.812 1054.47 242.892L1056.2 243.204C1057.25 243.396 1058.13 243.772 1058.84 244.332C1059.56 244.892 1059.92 245.708 1059.92 246.78C1059.92 247.548 1059.71 248.228 1059.29 248.82C1058.88 249.412 1058.3 249.868 1057.57 250.188C1056.83 250.508 1056.01 250.668 1055.09 250.668ZM1068.03 250.692C1066.7 250.692 1065.59 250.38 1064.7 249.756C1063.8 249.132 1063.13 248.324 1062.68 247.332C1062.25 246.324 1062.03 245.244 1062.03 244.092C1062.03 242.956 1062.25 241.892 1062.68 240.9C1063.13 239.892 1063.8 239.076 1064.7 238.452C1065.59 237.828 1066.7 237.516 1068.03 237.516C1069.68 237.516 1070.98 237.996 1071.94 238.956C1072.9 239.9 1073.48 241.076 1073.67 242.484H1071.25C1071.1 241.62 1070.76 240.924 1070.22 240.396C1069.69 239.852 1068.97 239.58 1068.06 239.58C1066.87 239.58 1065.98 240.012 1065.39 240.876C1064.8 241.74 1064.5 242.812 1064.5 244.092C1064.5 245.372 1064.8 246.444 1065.39 247.308C1065.98 248.172 1066.87 248.604 1068.06 248.604C1068.97 248.604 1069.69 248.34 1070.22 247.812C1070.76 247.284 1071.1 246.588 1071.25 245.724H1073.67C1073.48 247.132 1072.9 248.316 1071.94 249.276C1070.98 250.22 1069.68 250.692 1068.03 250.692ZM1081.79 250.668C1080.49 250.668 1079.4 250.364 1078.5 249.756C1077.6 249.148 1076.93 248.348 1076.48 247.356C1076.05 246.348 1075.84 245.268 1075.84 244.116C1075.84 242.948 1076.05 241.868 1076.48 240.876C1076.93 239.868 1077.6 239.06 1078.5 238.452C1079.4 237.828 1080.49 237.516 1081.79 237.516C1083.08 237.516 1084.18 237.828 1085.08 238.452C1085.97 239.06 1086.64 239.868 1087.09 240.876C1087.54 241.868 1087.76 242.94 1087.76 244.092C1087.76 245.244 1087.54 246.324 1087.09 247.332C1086.64 248.324 1085.97 249.132 1085.08 249.756C1084.18 250.364 1083.08 250.668 1081.79 250.668ZM1081.79 248.604C1082.89 248.604 1083.75 248.172 1084.36 247.308C1084.98 246.444 1085.29 245.364 1085.29 244.068C1085.29 242.772 1084.98 241.7 1084.36 240.852C1083.75 240.004 1082.89 239.58 1081.79 239.58C1080.7 239.58 1079.84 240.012 1079.22 240.876C1078.6 241.724 1078.28 242.788 1078.28 244.068C1078.28 245.364 1078.59 246.444 1079.2 247.308C1079.82 248.172 1080.68 248.604 1081.79 248.604ZM698.132 271.7H700.652V288.5H698.132V271.7ZM714.375 286.292V288.5H704.223V271.7H706.743L706.719 286.292H714.375ZM727.102 286.292V288.5H716.95V271.7H719.47L719.446 286.292H727.102ZM736.253 288.716C734.125 288.716 732.469 288.068 731.285 286.772C730.101 285.476 729.509 283.588 729.509 281.108V271.7H731.957V281.012C731.957 282.372 732.245 283.604 732.821 284.708C733.413 285.796 734.557 286.34 736.253 286.34C737.901 286.34 739.013 285.796 739.589 284.708C740.181 283.62 740.477 282.388 740.477 281.012V271.7H742.949V281.108C742.949 283.588 742.349 285.476 741.149 286.772C739.965 288.068 738.333 288.716 736.253 288.716ZM751.795 288.692C750.483 288.692 749.355 288.428 748.411 287.9C747.483 287.356 746.779 286.66 746.299 285.812C745.835 284.964 745.603 284.076 745.603 283.148V283.028H748.339V283.148C748.339 283.66 748.459 284.172 748.699 284.684C748.939 285.18 749.323 285.604 749.851 285.956C750.379 286.292 751.043 286.46 751.843 286.46C752.819 286.46 753.611 286.212 754.219 285.716C754.843 285.22 755.155 284.548 755.155 283.7C755.155 282.996 754.915 282.436 754.435 282.02C753.971 281.604 753.379 281.324 752.659 281.18L750.355 280.724C749.347 280.516 748.371 280.092 747.427 279.452C746.499 278.796 746.035 277.708 746.035 276.188C746.035 275.212 746.267 274.356 746.731 273.62C747.211 272.884 747.875 272.324 748.723 271.94C749.571 271.54 750.539 271.34 751.627 271.34C752.875 271.34 753.947 271.588 754.843 272.084C755.739 272.58 756.411 273.228 756.859 274.028C757.323 274.812 757.555 275.636 757.555 276.5V276.596H754.819V276.524C754.819 276.092 754.715 275.644 754.507 275.18C754.299 274.716 753.947 274.324 753.451 274.004C752.971 273.668 752.339 273.5 751.555 273.5C750.627 273.5 749.891 273.756 749.347 274.268C748.819 274.764 748.555 275.388 748.555 276.14C748.555 276.796 748.779 277.332 749.227 277.748C749.691 278.164 750.291 278.444 751.027 278.588L753.163 279.02C754.395 279.276 755.467 279.748 756.379 280.436C757.307 281.124 757.771 282.188 757.771 283.628C757.771 284.62 757.515 285.5 757.003 286.268C756.507 287.036 755.803 287.636 754.891 288.068C753.995 288.484 752.963 288.692 751.795 288.692ZM771.711 273.908H766.887V288.5H764.415V273.908H759.591V271.7H771.711V273.908ZM779.487 281.996H776.727V288.5H774.255V271.7H780.135C781.495 271.7 782.615 271.956 783.495 272.468C784.375 272.964 785.015 273.604 785.415 274.388C785.815 275.172 786.015 276.004 786.015 276.884C786.015 278.036 785.687 279.068 785.031 279.98C784.375 280.892 783.367 281.5 782.007 281.804L786.231 288.5H783.543L779.487 281.996ZM776.727 279.908H779.799C780.871 279.908 781.775 279.684 782.511 279.236C783.247 278.772 783.615 277.988 783.615 276.884C783.615 275.796 783.247 275.028 782.511 274.58C781.775 274.132 780.871 273.908 779.799 273.908H776.727V279.908ZM797.452 283.868H790.948L789.34 288.5H786.82L793.036 271.7H795.388L801.628 288.5H799.108L797.452 283.868ZM796.756 281.9L794.236 274.844H794.116L791.644 281.9H796.756ZM813.5 273.908H808.676V288.5H806.204V273.908H801.38V271.7H813.5V273.908ZM816.14 271.7H818.66V288.5H816.14V271.7ZM829.195 288.668C827.579 288.668 826.195 288.3 825.043 287.564C823.907 286.812 823.043 285.788 822.451 284.492C821.859 283.18 821.563 281.7 821.563 280.052C821.563 278.404 821.859 276.924 822.451 275.612C823.043 274.284 823.915 273.244 825.067 272.492C826.219 271.724 827.595 271.34 829.195 271.34C830.779 271.34 832.139 271.716 833.275 272.468C834.427 273.22 835.299 274.26 835.891 275.588C836.483 276.9 836.779 278.396 836.779 280.076C836.779 281.74 836.483 283.22 835.891 284.516C835.299 285.812 834.427 286.828 833.275 287.564C832.139 288.3 830.779 288.668 829.195 288.668ZM829.171 286.412C830.195 286.412 831.083 286.14 831.835 285.596C832.587 285.052 833.163 284.3 833.563 283.34C833.963 282.364 834.163 281.26 834.163 280.028C834.163 278.796 833.963 277.7 833.563 276.74C833.163 275.764 832.587 274.996 831.835 274.436C831.083 273.876 830.195 273.596 829.171 273.596C828.147 273.596 827.259 273.876 826.507 274.436C825.755 274.996 825.179 275.764 824.779 276.74C824.379 277.716 824.179 278.812 824.179 280.028C824.179 281.244 824.379 282.34 824.779 283.316C825.179 284.276 825.755 285.036 826.507 285.596C827.259 286.14 828.147 286.412 829.171 286.412ZM839.645 271.7H842.477L850.781 284.588H850.853V271.7H853.325V288.5H850.445L842.189 275.876H842.117V288.5H839.645V271.7ZM858.317 288.668C857.869 288.668 857.493 288.516 857.189 288.212C856.901 287.908 856.757 287.54 856.757 287.108C856.757 286.676 856.901 286.316 857.189 286.028C857.493 285.724 857.869 285.572 858.317 285.572C858.765 285.572 859.133 285.724 859.421 286.028C859.725 286.316 859.877 286.676 859.877 287.108C859.877 287.54 859.725 287.908 859.421 288.212C859.133 288.516 858.765 288.668 858.317 288.668ZM858.317 279.044C857.869 279.044 857.493 278.892 857.189 278.588C856.901 278.284 856.757 277.916 856.757 277.484C856.757 277.052 856.901 276.692 857.189 276.404C857.493 276.1 857.869 275.948 858.317 275.948C858.765 275.948 859.133 276.1 859.421 276.404C859.725 276.692 859.877 277.052 859.877 277.484C859.877 277.916 859.725 278.284 859.421 278.588C859.133 278.892 858.765 279.044 858.317 279.044ZM879.249 283.868H872.745L871.137 288.5H868.617L874.833 271.7H877.185L883.425 288.5H880.905L879.249 283.868ZM878.553 281.9L876.033 274.844H875.913L873.441 281.9H878.553ZM885.77 275.852H888.266V278.012H888.458C888.762 277.308 889.258 276.716 889.946 276.236C890.634 275.756 891.482 275.516 892.49 275.516C893.578 275.516 894.474 275.78 895.178 276.308C895.882 276.82 896.394 277.484 896.714 278.3C897.034 279.1 897.194 279.956 897.194 280.868V288.5H894.722V281.228C894.722 280.076 894.426 279.196 893.834 278.588C893.258 277.98 892.49 277.676 891.53 277.676C890.522 277.676 889.722 278.004 889.13 278.66C888.554 279.316 888.266 280.172 888.266 281.228V288.5H885.77V275.852ZM900.466 275.852H902.962V278.012H903.154C903.458 277.308 903.954 276.716 904.642 276.236C905.33 275.756 906.178 275.516 907.186 275.516C908.274 275.516 909.17 275.78 909.874 276.308C910.578 276.82 911.09 277.484 911.41 278.3C911.73 279.1 911.89 279.956 911.89 280.868V288.5H909.418V281.228C909.418 280.076 909.122 279.196 908.53 278.588C907.954 277.98 907.186 277.676 906.226 277.676C905.218 277.676 904.418 278.004 903.826 278.66C903.25 279.316 902.962 280.172 902.962 281.228V288.5H900.466V275.852ZM915.307 275.852H917.779V288.5H915.307V275.852ZM916.531 273.548C916.099 273.548 915.739 273.404 915.451 273.116C915.163 272.828 915.019 272.468 915.019 272.036C915.019 271.604 915.163 271.244 915.451 270.956C915.739 270.668 916.099 270.524 916.531 270.524C916.963 270.524 917.323 270.676 917.611 270.98C917.899 271.268 918.043 271.62 918.043 272.036C918.043 272.452 917.899 272.812 917.611 273.116C917.323 273.404 916.963 273.548 916.531 273.548ZM921.515 270.596H924.035V280.628H924.131L928.619 275.852H931.403L926.147 281.564L931.619 288.5H928.787L924.131 282.356H924.035V288.5H921.515V270.596ZM938.05 288.668C936.962 288.668 936.026 288.388 935.242 287.828C934.458 287.268 933.858 286.492 933.442 285.5C933.042 284.508 932.842 283.38 932.842 282.116C932.842 280.836 933.05 279.7 933.466 278.708C933.882 277.716 934.482 276.94 935.266 276.38C936.066 275.804 937.018 275.516 938.122 275.516C939.226 275.516 940.106 275.772 940.762 276.284C941.418 276.796 941.914 277.388 942.25 278.06H942.418V275.852H944.914V288.5H942.418V286.052H942.25C941.898 286.756 941.386 287.372 940.714 287.9C940.042 288.412 939.154 288.668 938.05 288.668ZM938.89 286.604C940.026 286.604 940.89 286.172 941.482 285.308C942.09 284.428 942.394 283.356 942.394 282.092C942.394 280.828 942.09 279.764 941.482 278.9C940.89 278.036 940.026 277.604 938.89 277.604C937.738 277.604 936.866 278.036 936.274 278.9C935.682 279.764 935.386 280.82 935.386 282.068C935.386 283.348 935.674 284.428 936.25 285.308C936.842 286.172 937.722 286.604 938.89 286.604ZM953.856 271.7H957.528L962.112 283.724H962.184L966.744 271.7H970.416V288.5H967.968V275.42H967.872L963 288.5H961.272L956.4 275.42H956.304V288.5H953.856V271.7ZM979.227 288.692C977.899 288.692 976.787 288.38 975.891 287.756C974.995 287.132 974.323 286.324 973.875 285.332C973.443 284.324 973.227 283.244 973.227 282.092C973.227 280.956 973.443 279.892 973.875 278.9C974.323 277.892 974.995 277.076 975.891 276.452C976.787 275.828 977.899 275.516 979.227 275.516C980.875 275.516 982.179 275.996 983.139 276.956C984.099 277.9 984.675 279.076 984.867 280.484H982.443C982.299 279.62 981.955 278.924 981.411 278.396C980.883 277.852 980.163 277.58 979.251 277.58C978.067 277.58 977.179 278.012 976.587 278.876C975.995 279.74 975.699 280.812 975.699 282.092C975.699 283.372 975.995 284.444 976.587 285.308C977.179 286.172 978.067 286.604 979.251 286.604C980.163 286.604 980.883 286.34 981.411 285.812C981.955 285.284 982.299 284.588 982.443 283.724H984.867C984.675 285.132 984.099 286.316 983.139 287.276C982.179 288.22 980.875 288.692 979.227 288.692ZM990.056 273.908V278.972L996.896 278.924V280.94H990.056V288.5H987.56V271.7H997.784V273.908H990.056ZM1004.19 288.668C1003.1 288.668 1002.17 288.388 1001.38 287.828C1000.6 287.268 999.998 286.492 999.582 285.5C999.182 284.508 998.982 283.38 998.982 282.116C998.982 280.836 999.19 279.7 999.606 278.708C1000.02 277.716 1000.62 276.94 1001.41 276.38C1002.21 275.804 1003.16 275.516 1004.26 275.516C1005.37 275.516 1006.25 275.772 1006.9 276.284C1007.56 276.796 1008.05 277.388 1008.39 278.06H1008.56V275.852H1011.05V288.5H1008.56V286.052H1008.39C1008.04 286.756 1007.53 287.372 1006.85 287.9C1006.18 288.412 1005.29 288.668 1004.19 288.668ZM1005.03 286.604C1006.17 286.604 1007.03 286.172 1007.62 285.308C1008.23 284.428 1008.53 283.356 1008.53 282.092C1008.53 280.828 1008.23 279.764 1007.62 278.9C1007.03 278.036 1006.17 277.604 1005.03 277.604C1003.88 277.604 1003.01 278.036 1002.41 278.9C1001.82 279.764 1001.53 280.82 1001.53 282.068C1001.53 283.348 1001.81 284.428 1002.39 285.308C1002.98 286.172 1003.86 286.604 1005.03 286.604ZM1014.44 275.852H1016.91V277.868H1017.06C1017.27 277.308 1017.63 276.836 1018.16 276.452C1018.71 276.052 1019.4 275.852 1020.25 275.852C1020.47 275.852 1020.67 275.86 1020.83 275.876C1020.99 275.892 1021.15 275.932 1021.31 275.996L1021.21 278.348C1020.78 278.22 1020.33 278.156 1019.87 278.156C1018.92 278.156 1018.19 278.428 1017.68 278.972C1017.17 279.5 1016.91 280.38 1016.91 281.612V288.5H1014.44V275.852ZM1026.97 288.596C1025.95 288.596 1025.19 288.436 1024.69 288.116C1024.19 287.796 1023.88 287.388 1023.75 286.892C1023.63 286.38 1023.56 285.724 1023.56 284.924L1023.59 270.5H1026.06V284.492C1026.06 285.084 1026.08 285.524 1026.13 285.812C1026.19 286.1 1026.35 286.332 1026.61 286.508C1026.87 286.684 1027.27 286.772 1027.83 286.772C1028.14 286.772 1028.41 286.748 1028.65 286.7V288.476C1027.98 288.556 1027.42 288.596 1026.97 288.596ZM1035.81 288.668C1034.72 288.668 1033.78 288.388 1033 287.828C1032.22 287.268 1031.62 286.492 1031.2 285.5C1030.8 284.508 1030.6 283.38 1030.6 282.116C1030.6 280.836 1030.81 279.7 1031.22 278.708C1031.64 277.716 1032.24 276.94 1033.02 276.38C1033.82 275.804 1034.78 275.516 1035.88 275.516C1036.98 275.516 1037.86 275.772 1038.52 276.284C1039.18 276.796 1039.67 277.388 1040.01 278.06H1040.18V275.852H1042.67V288.5H1040.18V286.052H1040.01C1039.66 286.756 1039.14 287.372 1038.47 287.9C1037.8 288.412 1036.91 288.668 1035.81 288.668ZM1036.65 286.604C1037.78 286.604 1038.65 286.172 1039.24 285.308C1039.85 284.428 1040.15 283.356 1040.15 282.092C1040.15 280.828 1039.85 279.764 1039.24 278.9C1038.65 278.036 1037.78 277.604 1036.65 277.604C1035.5 277.604 1034.62 278.036 1034.03 278.9C1033.44 279.764 1033.14 280.82 1033.14 282.068C1033.14 283.348 1033.43 284.428 1034.01 285.308C1034.6 286.172 1035.48 286.604 1036.65 286.604ZM1046.08 275.852H1048.58V278.012H1048.77C1049.07 277.308 1049.57 276.716 1050.26 276.236C1050.95 275.756 1051.79 275.516 1052.8 275.516C1053.89 275.516 1054.79 275.78 1055.49 276.308C1056.19 276.82 1056.71 277.484 1057.03 278.3C1057.35 279.1 1057.51 279.956 1057.51 280.868V288.5H1055.03V281.228C1055.03 280.076 1054.74 279.196 1054.15 278.588C1053.57 277.98 1052.8 277.676 1051.84 277.676C1050.83 277.676 1050.03 278.004 1049.44 278.66C1048.87 279.316 1048.58 280.172 1048.58 281.228V288.5H1046.08V275.852ZM1066.2 288.668C1064.89 288.668 1063.79 288.356 1062.89 287.732C1061.99 287.108 1061.33 286.3 1060.9 285.308C1060.47 284.3 1060.25 283.228 1060.25 282.092C1060.25 280.956 1060.47 279.892 1060.9 278.9C1061.33 277.892 1061.99 277.076 1062.89 276.452C1063.8 275.828 1064.91 275.516 1066.23 275.516C1067.95 275.516 1069.33 276.084 1070.35 277.22C1071.38 278.34 1071.89 279.972 1071.89 282.116V282.812H1062.67V282.98C1062.67 283.62 1062.82 284.22 1063.11 284.78C1063.39 285.34 1063.8 285.796 1064.33 286.148C1064.86 286.484 1065.47 286.652 1066.15 286.652C1066.91 286.652 1067.55 286.468 1068.1 286.1C1068.64 285.716 1069.03 285.204 1069.27 284.564H1071.72C1071.4 285.748 1070.77 286.732 1069.83 287.516C1068.88 288.284 1067.67 288.668 1066.2 288.668ZM1069.47 281.108C1069.4 279.812 1069.07 278.876 1068.48 278.3C1067.91 277.708 1067.14 277.412 1066.18 277.412C1065.15 277.412 1064.33 277.748 1063.71 278.42C1063.1 279.092 1062.78 279.988 1062.75 281.108H1069.47ZM704.612 326.716C702.484 326.716 700.828 326.068 699.644 324.772C698.46 323.476 697.868 321.588 697.868 319.108V309.7H700.316V319.012C700.316 320.372 700.604 321.604 701.18 322.708C701.772 323.796 702.916 324.34 704.612 324.34C706.26 324.34 707.372 323.796 707.948 322.708C708.54 321.62 708.836 320.388 708.836 319.012V309.7H711.308V319.108C711.308 321.588 710.708 323.476 709.508 324.772C708.324 326.068 706.692 326.716 704.612 326.716ZM714.632 309.7H717.152V326.5H714.632V309.7ZM728.335 307.348H730.711L722.407 330.532H720.007L728.335 307.348ZM739.581 326.716C737.453 326.716 735.797 326.068 734.613 324.772C733.429 323.476 732.837 321.588 732.837 319.108V309.7H735.285V319.012C735.285 320.372 735.573 321.604 736.149 322.708C736.741 323.796 737.885 324.34 739.581 324.34C741.229 324.34 742.341 323.796 742.917 322.708C743.509 321.62 743.805 320.388 743.805 319.012V309.7H746.277V319.108C746.277 321.588 745.677 323.476 744.477 324.772C743.293 326.068 741.661 326.716 739.581 326.716ZM754.163 318.1L748.643 309.7H751.379L755.699 316.348H755.843L760.115 309.7H762.875L757.331 318.1L762.899 326.5H760.115L755.843 319.852H755.699L751.379 326.5H748.619L754.163 318.1ZM785.16 326.5H782.304L779.952 323.812H779.808L779.664 324.028C779.28 324.668 778.696 325.268 777.912 325.828C777.144 326.388 776.176 326.668 775.008 326.668C774.144 326.668 773.36 326.5 772.656 326.164C771.968 325.812 771.424 325.308 771.024 324.652C770.624 323.996 770.424 323.22 770.424 322.324C770.424 321.22 770.72 320.308 771.312 319.588C771.904 318.852 772.688 318.292 773.664 317.908L774.456 317.62V317.524L774.336 317.404C773.856 316.892 773.44 316.332 773.088 315.724C772.752 315.116 772.584 314.396 772.584 313.564C772.584 312.668 772.8 311.908 773.232 311.284C773.68 310.644 774.256 310.172 774.96 309.868C775.68 309.548 776.456 309.388 777.288 309.388C778.152 309.388 778.96 309.564 779.712 309.916C780.464 310.252 781.072 310.764 781.536 311.452C782 312.124 782.232 312.948 782.232 313.924V314.476H779.664V314.092C779.664 313.276 779.432 312.644 778.968 312.196C778.52 311.748 777.96 311.524 777.288 311.524C776.664 311.524 776.128 311.716 775.68 312.1C775.232 312.468 775.008 312.996 775.008 313.684C775.008 314.084 775.08 314.46 775.224 314.812C775.384 315.164 775.568 315.476 775.776 315.748C776 316.02 776.36 316.436 776.856 316.996L779.64 320.164L781.104 317.524H783.6L781.032 321.796L785.16 326.5ZM778.584 322.228L775.728 319.012L774.816 319.324C774.176 319.548 773.68 319.9 773.328 320.38C772.976 320.844 772.8 321.388 772.8 322.012C772.8 322.764 773.04 323.372 773.52 323.836C774 324.284 774.624 324.508 775.392 324.508C776.176 324.508 776.8 324.308 777.264 323.908C777.728 323.492 778.12 323.012 778.44 322.468L778.584 322.228ZM797.592 326.692C796.28 326.692 795.152 326.428 794.208 325.9C793.28 325.356 792.576 324.66 792.096 323.812C791.632 322.964 791.4 322.076 791.4 321.148V321.028H794.136V321.148C794.136 321.66 794.256 322.172 794.496 322.684C794.736 323.18 795.12 323.604 795.648 323.956C796.176 324.292 796.84 324.46 797.64 324.46C798.616 324.46 799.408 324.212 800.016 323.716C800.64 323.22 800.952 322.548 800.952 321.7C800.952 320.996 800.712 320.436 800.232 320.02C799.768 319.604 799.176 319.324 798.456 319.18L796.152 318.724C795.144 318.516 794.168 318.092 793.224 317.452C792.296 316.796 791.832 315.708 791.832 314.188C791.832 313.212 792.064 312.356 792.528 311.62C793.008 310.884 793.672 310.324 794.52 309.94C795.368 309.54 796.336 309.34 797.424 309.34C798.672 309.34 799.744 309.588 800.64 310.084C801.536 310.58 802.208 311.228 802.656 312.028C803.12 312.812 803.352 313.636 803.352 314.5V314.596H800.616V314.524C800.616 314.092 800.512 313.644 800.304 313.18C800.096 312.716 799.744 312.324 799.248 312.004C798.768 311.668 798.136 311.5 797.352 311.5C796.424 311.5 795.688 311.756 795.144 312.268C794.616 312.764 794.352 313.388 794.352 314.14C794.352 314.796 794.576 315.332 795.024 315.748C795.488 316.164 796.088 316.444 796.824 316.588L798.96 317.02C800.192 317.276 801.264 317.748 802.176 318.436C803.104 319.124 803.568 320.188 803.568 321.628C803.568 322.62 803.312 323.5 802.8 324.268C802.304 325.036 801.6 325.636 800.688 326.068C799.792 326.484 798.76 326.692 797.592 326.692ZM816.539 324.292V326.5H806.387V309.7H808.907L808.883 324.292H816.539ZM819.21 309.7H821.73V326.5H819.21V309.7ZM825.302 309.7H831.566C833.07 309.7 834.382 310.036 835.502 310.708C836.638 311.38 837.518 312.348 838.142 313.612C838.766 314.876 839.078 316.364 839.078 318.076C839.078 319.804 838.766 321.308 838.142 322.588C837.518 323.852 836.638 324.82 835.502 325.492C834.366 326.164 833.046 326.5 831.542 326.5H825.302V309.7ZM831.158 324.22C832.758 324.22 834.038 323.708 834.998 322.684C835.958 321.66 836.438 320.124 836.438 318.076C836.438 316.028 835.958 314.492 834.998 313.468C834.054 312.444 832.774 311.932 831.158 311.932H827.726V324.22H831.158ZM844.228 311.908V316.948H851.26V318.94H844.228V324.292H852.316V326.5H841.708V309.7H852.316V311.908H844.228ZM861.06 326.692C859.748 326.692 858.62 326.428 857.676 325.9C856.748 325.356 856.044 324.66 855.564 323.812C855.1 322.964 854.868 322.076 854.868 321.148V321.028H857.604V321.148C857.604 321.66 857.724 322.172 857.964 322.684C858.204 323.18 858.588 323.604 859.116 323.956C859.644 324.292 860.308 324.46 861.108 324.46C862.084 324.46 862.876 324.212 863.484 323.716C864.108 323.22 864.42 322.548 864.42 321.7C864.42 320.996 864.18 320.436 863.7 320.02C863.236 319.604 862.644 319.324 861.924 319.18L859.62 318.724C858.612 318.516 857.636 318.092 856.692 317.452C855.764 316.796 855.3 315.708 855.3 314.188C855.3 313.212 855.532 312.356 855.996 311.62C856.476 310.884 857.14 310.324 857.988 309.94C858.836 309.54 859.804 309.34 860.892 309.34C862.14 309.34 863.212 309.588 864.108 310.084C865.004 310.58 865.676 311.228 866.124 312.028C866.588 312.812 866.82 313.636 866.82 314.5V314.596H864.084V314.524C864.084 314.092 863.98 313.644 863.772 313.18C863.564 312.716 863.212 312.324 862.716 312.004C862.236 311.668 861.604 311.5 860.82 311.5C859.892 311.5 859.156 311.756 858.612 312.268C858.084 312.764 857.82 313.388 857.82 314.14C857.82 314.796 858.044 315.332 858.492 315.748C858.956 316.164 859.556 316.444 860.292 316.588L862.428 317.02C863.66 317.276 864.732 317.748 865.644 318.436C866.572 319.124 867.036 320.188 867.036 321.628C867.036 322.62 866.78 323.5 866.268 324.268C865.772 325.036 865.068 325.636 864.156 326.068C863.26 326.484 862.228 326.692 861.06 326.692ZM871.442 326.668C870.994 326.668 870.618 326.516 870.314 326.212C870.026 325.908 869.882 325.54 869.882 325.108C869.882 324.676 870.026 324.316 870.314 324.028C870.618 323.724 870.994 323.572 871.442 323.572C871.89 323.572 872.258 323.724 872.546 324.028C872.85 324.316 873.002 324.676 873.002 325.108C873.002 325.54 872.85 325.908 872.546 326.212C872.258 326.516 871.89 326.668 871.442 326.668ZM871.442 317.044C870.994 317.044 870.618 316.892 870.314 316.588C870.026 316.284 869.882 315.916 869.882 315.484C869.882 315.052 870.026 314.692 870.314 314.404C870.618 314.1 870.994 313.948 871.442 313.948C871.89 313.948 872.258 314.1 872.546 314.404C872.85 314.692 873.002 315.052 873.002 315.484C873.002 315.916 872.85 316.284 872.546 316.588C872.258 316.892 871.89 317.044 871.442 317.044ZM889.782 326.668C888.198 326.668 886.83 326.292 885.678 325.54C884.542 324.772 883.678 323.732 883.086 322.42C882.494 321.108 882.198 319.636 882.198 318.004C882.198 316.372 882.494 314.9 883.086 313.588C883.694 312.276 884.566 311.244 885.702 310.492C886.854 309.724 888.214 309.34 889.782 309.34C891.702 309.34 893.278 309.884 894.51 310.972C895.742 312.06 896.558 313.508 896.958 315.316H894.534C894.246 314.196 893.678 313.292 892.83 312.604C891.998 311.916 890.99 311.572 889.806 311.572C888.19 311.572 886.95 312.156 886.086 313.324C885.222 314.492 884.79 316.052 884.79 318.004C884.79 319.956 885.222 321.516 886.086 322.684C886.95 323.852 888.19 324.436 889.806 324.436C890.942 324.436 891.91 324.124 892.71 323.5C893.51 322.876 894.078 322.068 894.414 321.076H896.838C896.406 322.756 895.582 324.108 894.366 325.132C893.15 326.156 891.622 326.668 889.782 326.668ZM905.07 326.668C903.774 326.668 902.678 326.364 901.782 325.756C900.886 325.148 900.214 324.348 899.766 323.356C899.334 322.348 899.118 321.268 899.118 320.116C899.118 318.948 899.334 317.868 899.766 316.876C900.214 315.868 900.886 315.06 901.782 314.452C902.678 313.828 903.774 313.516 905.07 313.516C906.366 313.516 907.462 313.828 908.358 314.452C909.254 315.06 909.926 315.868 910.374 316.876C910.822 317.868 911.046 318.94 911.046 320.092C911.046 321.244 910.822 322.324 910.374 323.332C909.926 324.324 909.254 325.132 908.358 325.756C907.462 326.364 906.366 326.668 905.07 326.668ZM905.07 324.604C906.174 324.604 907.03 324.172 907.638 323.308C908.262 322.444 908.574 321.364 908.574 320.068C908.574 318.772 908.262 317.7 907.638 316.852C907.03 316.004 906.174 315.58 905.07 315.58C903.982 315.58 903.126 316.012 902.502 316.876C901.878 317.724 901.566 318.788 901.566 320.068C901.566 321.364 901.87 322.444 902.478 323.308C903.102 324.172 903.966 324.604 905.07 324.604ZM913.801 313.852H916.273V315.868H916.417C916.625 315.308 916.993 314.836 917.521 314.452C918.065 314.052 918.761 313.852 919.609 313.852C919.833 313.852 920.025 313.86 920.185 313.876C920.345 313.892 920.505 313.932 920.665 313.996L920.569 316.348C920.137 316.22 919.689 316.156 919.225 316.156C918.281 316.156 917.553 316.428 917.041 316.972C916.529 317.5 916.273 318.38 916.273 319.612V326.5H913.801V313.852ZM927.011 326.668C925.923 326.668 924.987 326.388 924.203 325.828C923.419 325.268 922.819 324.492 922.403 323.5C922.003 322.508 921.803 321.38 921.803 320.116C921.803 318.836 922.011 317.7 922.427 316.708C922.843 315.716 923.443 314.94 924.227 314.38C925.027 313.804 925.979 313.516 927.083 313.516C928.187 313.516 929.067 313.772 929.723 314.284C930.379 314.796 930.875 315.388 931.211 316.06H931.379V313.852H933.875V326.5H931.379V324.052H931.211C930.859 324.756 930.347 325.372 929.675 325.9C929.003 326.412 928.115 326.668 927.011 326.668ZM927.851 324.604C928.987 324.604 929.851 324.172 930.443 323.308C931.051 322.428 931.355 321.356 931.355 320.092C931.355 318.828 931.051 317.764 930.443 316.9C929.851 316.036 928.987 315.604 927.851 315.604C926.699 315.604 925.827 316.036 925.235 316.9C924.643 317.764 924.347 318.82 924.347 320.068C924.347 321.348 924.635 322.428 925.211 323.308C925.803 324.172 926.683 324.604 927.851 324.604ZM940.79 326.596C939.766 326.596 939.006 326.436 938.51 326.116C938.014 325.796 937.702 325.388 937.574 324.892C937.446 324.38 937.382 323.724 937.382 322.924L937.406 308.5H939.878V322.492C939.878 323.084 939.902 323.524 939.95 323.812C940.014 324.1 940.174 324.332 940.43 324.508C940.686 324.684 941.094 324.772 941.654 324.772C941.958 324.772 942.23 324.748 942.47 324.7V326.476C941.798 326.556 941.238 326.596 940.79 326.596ZM945.284 313.852H947.756V326.5H945.284V313.852ZM946.508 311.548C946.076 311.548 945.716 311.404 945.428 311.116C945.14 310.828 944.996 310.468 944.996 310.036C944.996 309.604 945.14 309.244 945.428 308.956C945.716 308.668 946.076 308.524 946.508 308.524C946.94 308.524 947.3 308.676 947.588 308.98C947.876 309.268 948.02 309.62 948.02 310.036C948.02 310.452 947.876 310.812 947.588 311.116C947.3 311.404 946.94 311.548 946.508 311.548ZM956.75 326.668C955.438 326.668 954.334 326.356 953.438 325.732C952.542 325.108 951.878 324.3 951.446 323.308C951.014 322.3 950.798 321.228 950.798 320.092C950.798 318.956 951.014 317.892 951.446 316.9C951.878 315.892 952.542 315.076 953.438 314.452C954.35 313.828 955.462 313.516 956.774 313.516C958.502 313.516 959.878 314.084 960.902 315.22C961.926 316.34 962.438 317.972 962.438 320.116V320.812H953.222V320.98C953.222 321.62 953.366 322.22 953.654 322.78C953.942 323.34 954.35 323.796 954.878 324.148C955.406 324.484 956.014 324.652 956.702 324.652C957.454 324.652 958.102 324.468 958.646 324.1C959.19 323.716 959.582 323.204 959.822 322.564H962.27C961.95 323.748 961.318 324.732 960.374 325.516C959.43 326.284 958.222 326.668 956.75 326.668ZM960.014 319.108C959.95 317.812 959.622 316.876 959.03 316.3C958.454 315.708 957.686 315.412 956.726 315.412C955.702 315.412 954.878 315.748 954.254 316.42C953.646 317.092 953.326 317.988 953.294 319.108H960.014ZM970.778 309.7H974.45L979.034 321.724H979.106L983.666 309.7H987.338V326.5H984.89V313.42H984.794L979.922 326.5H978.194L973.322 313.42H973.226V326.5H970.778V309.7ZM995.237 326.668C994.149 326.668 993.213 326.388 992.429 325.828C991.645 325.268 991.045 324.492 990.629 323.5C990.229 322.508 990.029 321.38 990.029 320.116C990.029 318.836 990.237 317.7 990.653 316.708C991.069 315.716 991.669 314.94 992.453 314.38C993.253 313.804 994.205 313.516 995.309 313.516C996.413 313.516 997.293 313.772 997.949 314.284C998.605 314.796 999.101 315.388 999.437 316.06H999.605V313.852H1002.1V326.5H999.605V324.052H999.437C999.085 324.756 998.573 325.372 997.901 325.9C997.229 326.412 996.341 326.668 995.237 326.668ZM996.077 324.604C997.213 324.604 998.077 324.172 998.669 323.308C999.277 322.428 999.581 321.356 999.581 320.092C999.581 318.828 999.277 317.764 998.669 316.9C998.077 316.036 997.213 315.604 996.077 315.604C994.925 315.604 994.053 316.036 993.461 316.9C992.869 317.764 992.573 318.82 992.573 320.068C992.573 321.348 992.861 322.428 993.437 323.308C994.029 324.172 994.909 324.604 996.077 324.604ZM1010.55 328.276C1010.3 328.884 1010.05 329.388 1009.81 329.788C1009.57 330.204 1009.16 330.596 1008.59 330.964C1008.03 331.348 1007.29 331.54 1006.38 331.54C1005.9 331.54 1005.39 331.476 1004.84 331.348V329.548C1005.23 329.612 1005.56 329.644 1005.85 329.644C1006.38 329.644 1006.8 329.548 1007.12 329.356C1007.44 329.164 1007.69 328.908 1007.87 328.588C1008.06 328.284 1008.27 327.844 1008.51 327.268L1009.04 325.996L1004.39 313.852H1006.95L1010.22 323.236H1010.36L1013.79 313.852H1016.34L1010.55 328.276ZM1023.83 326.668C1022.52 326.668 1021.41 326.356 1020.52 325.732C1019.62 325.108 1018.96 324.3 1018.52 323.308C1018.09 322.3 1017.88 321.228 1017.88 320.092C1017.88 318.956 1018.09 317.892 1018.52 316.9C1018.96 315.892 1019.62 315.076 1020.52 314.452C1021.43 313.828 1022.54 313.516 1023.85 313.516C1025.58 313.516 1026.96 314.084 1027.98 315.22C1029 316.34 1029.52 317.972 1029.52 320.116V320.812H1020.3V320.98C1020.3 321.62 1020.44 322.22 1020.73 322.78C1021.02 323.34 1021.43 323.796 1021.96 324.148C1022.48 324.484 1023.09 324.652 1023.78 324.652C1024.53 324.652 1025.18 324.468 1025.72 324.1C1026.27 323.716 1026.66 323.204 1026.9 322.564H1029.35C1029.03 323.748 1028.4 324.732 1027.45 325.516C1026.51 326.284 1025.3 326.668 1023.83 326.668ZM1027.09 319.108C1027.03 317.812 1026.7 316.876 1026.11 316.3C1025.53 315.708 1024.76 315.412 1023.8 315.412C1022.78 315.412 1021.96 315.748 1021.33 316.42C1020.72 317.092 1020.4 317.988 1020.37 319.108H1027.09ZM1032.3 313.852H1034.77V315.868H1034.92C1035.12 315.308 1035.49 314.836 1036.02 314.452C1036.56 314.052 1037.26 313.852 1038.11 313.852C1038.33 313.852 1038.52 313.86 1038.68 313.876C1038.84 313.892 1039 313.932 1039.16 313.996L1039.07 316.348C1038.64 316.22 1038.19 316.156 1037.72 316.156C1036.78 316.156 1036.05 316.428 1035.54 316.972C1035.03 317.5 1034.77 318.38 1034.77 319.612V326.5H1032.3V313.852Z" fill="white"/>
<path fill-rule="evenodd" clip-rule="evenodd" d="M499.157 153.587H331.861V296.484H383.615V317.388H530.761V351.355H383.615V405.413H550.911C568.365 405.413 582.514 391.264 582.514 373.81V294.119C582.514 276.665 568.365 262.516 550.911 262.516H530.761V296.483H383.615V262.516H530.761V185.19C530.761 167.736 516.611 153.587 499.157 153.587Z" fill="url(#paint0_linear_305_450)"/>
<defs>
<linearGradient id="paint0_linear_305_450" x1="611.101" y1="228.563" x2="180.475" y2="314.689" gradientUnits="userSpaceOnUse">
<stop stop-color="#1FD5D4"/>
<stop offset="0.427877" stop-color="#64EAC2"/>
<stop offset="0.989583" stop-color="#F0FF2C"/>
</linearGradient>
</defs>
</svg>
