<svg width="1533" height="547" viewBox="0 0 1533 547" fill="none" xmlns="http://www.w3.org/2000/svg">
<rect width="1533" height="547" fill="white"/>
<path d="M356.668 262.861L365.603 277.398V287.588H368.597V277.398L377.532 262.861H374.103L367.245 274.403H366.955L360.097 262.861H356.668ZM385.929 287.974C390.952 287.974 394.333 284.159 394.333 278.412C394.333 272.616 390.952 268.801 385.929 268.801C380.906 268.801 377.526 272.616 377.526 278.412C377.526 284.159 380.906 287.974 385.929 287.974ZM385.929 285.415C382.114 285.415 380.375 282.131 380.375 278.412C380.375 274.693 382.114 271.361 385.929 271.361C389.744 271.361 391.483 274.693 391.483 278.412C391.483 282.131 389.744 285.415 385.929 285.415ZM410.37 280.006C410.37 283.483 407.713 285.077 405.588 285.077C403.222 285.077 401.532 283.338 401.532 280.633V269.042H398.682V280.827C398.682 285.559 401.194 287.829 404.671 287.829C407.472 287.829 409.307 286.332 410.176 284.449H410.37V287.588H413.219V269.042H410.37V280.006ZM421.287 276.432C421.287 273.196 423.292 271.361 426.02 271.361C428.665 271.361 430.27 273.087 430.27 275.997V287.588H433.12V275.804C433.12 271.071 430.596 268.801 426.841 268.801C424.04 268.801 422.302 270.057 421.432 271.94H421.191V269.042H418.438V287.588H421.287V276.432ZM445.812 294.929C450.256 294.929 453.83 292.9 453.83 288.119V269.042H451.077V271.988H450.787C450.159 271.023 449 268.801 445.378 268.801C440.693 268.801 437.457 272.52 437.457 278.219C437.457 284.014 440.838 287.298 445.33 287.298C448.952 287.298 450.111 285.173 450.739 284.159H450.98V287.926C450.98 291.017 448.807 292.417 445.812 292.417C442.444 292.417 441.261 290.643 440.5 289.616L438.23 291.21C439.389 293.154 441.671 294.929 445.812 294.929ZM445.716 284.738C442.142 284.738 440.307 282.034 440.307 278.17C440.307 274.403 442.094 271.361 445.716 271.361C449.193 271.361 451.028 274.162 451.028 278.17C451.028 282.275 449.145 284.738 445.716 284.738ZM474.065 288.023C477.301 288.023 478.991 286.284 479.571 285.077H479.716V287.588H482.565V275.369C482.565 269.477 478.074 268.801 475.707 268.801C472.906 268.801 469.719 269.767 468.27 273.148L470.974 274.113C471.602 272.761 473.087 271.312 475.804 271.312C478.424 271.312 479.716 272.701 479.716 275.079V275.176C479.716 276.552 478.315 276.432 474.935 276.866C471.494 277.313 467.739 278.074 467.739 282.324C467.739 285.946 470.54 288.023 474.065 288.023ZM474.5 285.463C472.23 285.463 470.588 284.449 470.588 282.469C470.588 280.295 472.568 279.619 474.79 279.329C475.997 279.184 479.233 278.846 479.716 278.267V280.875C479.716 283.193 477.881 285.463 474.5 285.463ZM494.769 287.974C498.343 287.974 499.55 285.753 500.178 284.738H500.516V287.588H503.269V262.861H500.42V271.988H500.178C499.55 271.023 498.439 268.801 494.817 268.801C490.133 268.801 486.897 272.52 486.897 278.363C486.897 284.256 490.133 287.974 494.769 287.974ZM495.155 285.415C491.581 285.415 489.746 282.275 489.746 278.315C489.746 274.403 491.533 271.361 495.155 271.361C498.633 271.361 500.468 274.162 500.468 278.315C500.468 282.517 498.584 285.415 495.155 285.415ZM520.571 280.006C520.571 283.483 517.915 285.077 515.79 285.077C513.423 285.077 511.733 283.338 511.733 280.633V269.042H508.883V280.827C508.883 285.559 511.395 287.829 514.872 287.829C517.673 287.829 519.508 286.332 520.378 284.449H520.571V287.588H523.42V269.042H520.571V280.006ZM531.489 262.861H528.639V287.588H531.489V262.861ZM544.773 269.042H540.813V264.599H537.963V269.042H535.162V271.457H537.963V283.048C537.963 286.284 540.571 287.829 542.986 287.829C544.048 287.829 544.725 287.636 545.111 287.491L544.531 284.932C544.29 284.98 543.904 285.077 543.276 285.077C542.02 285.077 540.813 284.69 540.813 282.275V271.457H544.773V269.042ZM564.079 288.023C567.315 288.023 569.005 286.284 569.585 285.077H569.73V287.588H572.579V275.369C572.579 269.477 568.088 268.801 565.721 268.801C562.92 268.801 559.732 269.767 558.284 273.148L560.988 274.113C561.616 272.761 563.101 271.312 565.818 271.312C568.438 271.312 569.73 272.701 569.73 275.079V275.176C569.73 276.552 568.329 276.432 564.948 276.866C561.507 277.313 557.752 278.074 557.752 282.324C557.752 285.946 560.553 288.023 564.079 288.023ZM564.514 285.463C562.244 285.463 560.602 284.449 560.602 282.469C560.602 280.295 562.582 279.619 564.803 279.329C566.011 279.184 569.247 278.846 569.73 278.267V280.875C569.73 283.193 567.894 285.463 564.514 285.463ZM580.629 276.432C580.629 273.196 582.634 271.361 585.362 271.361C588.006 271.361 589.612 273.087 589.612 275.997V287.588H592.462V275.804C592.462 271.071 589.938 268.801 586.183 268.801C583.382 268.801 581.643 270.057 580.774 271.94H580.533V269.042H577.78V287.588H580.629V276.432ZM604.671 287.974C608.245 287.974 609.453 285.753 610.08 284.738H610.419V287.588H613.171V262.861H610.322V271.988H610.08C609.453 271.023 608.342 268.801 604.72 268.801C600.035 268.801 596.799 272.52 596.799 278.363C596.799 284.256 600.035 287.974 604.671 287.974ZM605.058 285.415C601.484 285.415 599.649 282.275 599.649 278.315C599.649 274.403 601.436 271.361 605.058 271.361C608.535 271.361 610.37 274.162 610.37 278.315C610.37 282.517 608.487 285.415 605.058 285.415ZM630.183 294.542C632.755 294.542 634.566 293.178 635.641 290.292L643.537 269.091L640.422 269.042L635.303 283.821H635.11L629.99 269.042H626.899L633.757 287.684L633.226 289.133C632.188 291.959 630.908 292.224 628.831 291.693L628.107 294.204C628.396 294.349 629.218 294.542 630.183 294.542ZM654.177 287.974C659.2 287.974 662.581 284.159 662.581 278.412C662.581 272.616 659.2 268.801 654.177 268.801C649.154 268.801 645.774 272.616 645.774 278.412C645.774 284.159 649.154 287.974 654.177 287.974ZM654.177 285.415C650.362 285.415 648.623 282.131 648.623 278.412C648.623 274.693 650.362 271.361 654.177 271.361C657.993 271.361 659.731 274.693 659.731 278.412C659.731 282.131 657.993 285.415 654.177 285.415ZM678.618 280.006C678.618 283.483 675.961 285.077 673.836 285.077C671.47 285.077 669.78 283.338 669.78 280.633V269.042H666.93V280.827C666.93 285.559 669.442 287.829 672.919 287.829C675.72 287.829 677.555 286.332 678.425 284.449H678.618V287.588H681.467V269.042H678.618V280.006ZM694.751 269.042H690.791V264.599H687.942V269.042H685.141V271.457H687.942V283.048C687.942 286.284 690.55 287.829 692.964 287.829C694.027 287.829 694.703 287.636 695.089 287.491L694.51 284.932C694.268 284.98 693.882 285.077 693.254 285.077C691.999 285.077 690.791 284.69 690.791 282.275V271.457H694.751V269.042ZM702.286 276.432C702.286 273.196 704.35 271.361 707.163 271.361C709.844 271.361 711.462 273.051 711.462 275.997V287.588H714.311V275.804C714.311 271.035 711.776 268.801 707.984 268.801C705.062 268.801 703.396 270.02 702.527 271.94H702.286V262.861H699.436V287.588H702.286V276.432ZM742.223 273.196C741.329 270.564 739.325 268.801 735.655 268.801C731.743 268.801 728.845 271.023 728.845 274.162C728.845 276.721 730.366 278.436 733.771 279.233L736.862 279.957C738.733 280.392 739.615 281.285 739.615 282.565C739.615 284.159 737.925 285.463 735.268 285.463C732.938 285.463 731.477 284.461 730.97 282.469L728.265 283.145C728.93 286.296 731.525 287.974 735.317 287.974C739.627 287.974 742.561 285.62 742.561 282.42C742.561 279.836 740.943 278.206 737.635 277.398L734.882 276.721C732.684 276.178 731.694 275.442 731.694 274.017C731.694 272.423 733.385 271.264 735.655 271.264C738.142 271.264 739.168 272.64 739.663 273.92L742.223 273.196ZM754.626 287.974C758.393 287.974 761.146 286.091 762.015 283.29L759.262 282.517C758.538 284.449 756.859 285.415 754.626 285.415C751.281 285.415 748.975 283.253 748.842 279.281H762.305V278.074C762.305 271.167 758.2 268.801 754.336 268.801C749.313 268.801 745.981 272.761 745.981 278.46C745.981 284.159 749.265 287.974 754.626 287.974ZM748.842 276.818C749.036 273.932 751.076 271.361 754.336 271.361C757.427 271.361 759.407 273.679 759.407 276.818H748.842ZM774.173 287.974C778.278 287.974 780.983 285.463 781.466 282.179H778.616C778.085 284.207 776.395 285.415 774.173 285.415C770.793 285.415 768.619 282.613 768.619 278.315C768.619 274.113 770.841 271.361 774.173 271.361C776.685 271.361 778.182 272.906 778.616 274.596H781.466C780.983 271.119 778.037 268.801 774.125 268.801C769.102 268.801 765.77 272.761 765.77 278.412C765.77 283.966 768.957 287.974 774.173 287.974ZM793.165 287.974C798.188 287.974 801.569 284.159 801.569 278.412C801.569 272.616 798.188 268.801 793.165 268.801C788.143 268.801 784.762 272.616 784.762 278.412C784.762 284.159 788.143 287.974 793.165 287.974ZM793.165 285.415C789.35 285.415 787.612 282.131 787.612 278.412C787.612 274.693 789.35 271.361 793.165 271.361C796.981 271.361 798.719 274.693 798.719 278.412C798.719 282.131 796.981 285.415 793.165 285.415ZM808.768 276.432C808.768 273.196 810.772 271.361 813.501 271.361C816.145 271.361 817.751 273.087 817.751 275.997V287.588H820.6V275.804C820.6 271.071 818.077 268.801 814.322 268.801C811.521 268.801 809.782 270.057 808.913 271.94H808.671V269.042H805.919V287.588H808.768V276.432ZM832.81 287.974C836.384 287.974 837.591 285.753 838.219 284.738H838.557V287.588H841.31V262.861H838.461V271.988H838.219C837.591 271.023 836.48 268.801 832.858 268.801C828.174 268.801 824.938 272.52 824.938 278.363C824.938 284.256 828.174 287.974 832.81 287.974ZM833.196 285.415C829.623 285.415 827.787 282.275 827.787 278.315C827.787 274.403 829.574 271.361 833.196 271.361C836.674 271.361 838.509 274.162 838.509 278.315C838.509 282.517 836.625 285.415 833.196 285.415ZM857.549 275.659H846.731V278.315H857.549V275.659ZM870.049 294.929C874.492 294.929 878.066 292.9 878.066 288.119V269.042H875.313V271.988H875.023C874.395 271.023 873.236 268.801 869.614 268.801C864.93 268.801 861.694 272.52 861.694 278.219C861.694 284.014 865.074 287.298 869.566 287.298C873.188 287.298 874.347 285.173 874.975 284.159H875.216V287.926C875.216 291.017 873.043 292.417 870.049 292.417C866.68 292.417 865.497 290.643 864.736 289.616L862.466 291.21C863.626 293.154 865.907 294.929 870.049 294.929ZM869.952 284.738C866.378 284.738 864.543 282.034 864.543 278.17C864.543 274.403 866.33 271.361 869.952 271.361C873.43 271.361 875.265 274.162 875.265 278.17C875.265 282.275 873.381 284.738 869.952 284.738ZM891.057 287.974C894.824 287.974 897.577 286.091 898.447 283.29L895.694 282.517C894.969 284.449 893.291 285.415 891.057 285.415C887.713 285.415 885.407 283.253 885.274 279.281H898.736V278.074C898.736 271.167 894.631 268.801 890.768 268.801C885.745 268.801 882.412 272.761 882.412 278.46C882.412 284.159 885.697 287.974 891.057 287.974ZM885.274 276.818C885.467 273.932 887.508 271.361 890.768 271.361C893.858 271.361 895.839 273.679 895.839 276.818H885.274ZM905.92 276.432C905.92 273.196 907.925 271.361 910.653 271.361C913.297 271.361 914.903 273.087 914.903 275.997V287.588H917.753V275.804C917.753 271.071 915.229 268.801 911.474 268.801C908.673 268.801 906.934 270.057 906.065 271.94H905.824V269.042H903.071V287.588H905.92V276.432ZM932.522 287.588H935.371V269.042H932.522V287.588ZM933.971 265.952C935.082 265.952 935.999 265.082 935.999 264.02C935.999 262.957 935.082 262.088 933.971 262.088C932.86 262.088 931.942 262.957 931.942 264.02C931.942 265.082 932.86 265.952 933.971 265.952ZM940.59 287.588H943.44V275.997C943.44 273.28 945.42 271.361 947.642 271.361C949.803 271.361 951.312 272.773 951.312 274.886V287.588H954.21V275.514C954.21 273.123 955.707 271.361 958.315 271.361C960.343 271.361 962.082 272.435 962.082 275.176V287.588H964.931V275.176C964.931 270.817 962.589 268.801 959.281 268.801C956.624 268.801 954.681 270.02 953.727 271.94H953.534C952.616 269.96 950.998 268.801 948.559 268.801C946.144 268.801 944.357 269.96 943.585 271.94H943.343V269.042H940.59V287.588ZM970.141 287.588H972.991V275.997C972.991 273.28 974.971 271.361 977.192 271.361C979.354 271.361 980.863 272.773 980.863 274.886V287.588H983.76V275.514C983.76 273.123 985.258 271.361 987.866 271.361C989.894 271.361 991.633 272.435 991.633 275.176V287.588H994.482V275.176C994.482 270.817 992.14 268.801 988.832 268.801C986.175 268.801 984.231 270.02 983.278 271.94H983.084C982.167 269.96 980.549 268.801 978.11 268.801C975.695 268.801 973.908 269.96 973.135 271.94H972.894V269.042H970.141V287.588ZM999.692 287.588H1002.54V269.042H999.692V287.588ZM1001.14 265.952C1002.25 265.952 1003.17 265.082 1003.17 264.02C1003.17 262.957 1002.25 262.088 1001.14 262.088C1000.03 262.088 999.112 262.957 999.112 264.02C999.112 265.082 1000.03 265.952 1001.14 265.952ZM1015.25 294.929C1019.69 294.929 1023.26 292.9 1023.26 288.119V269.042H1020.51V271.988H1020.22C1019.59 271.023 1018.43 268.801 1014.81 268.801C1010.13 268.801 1006.89 272.52 1006.89 278.219C1006.89 284.014 1010.27 287.298 1014.76 287.298C1018.39 287.298 1019.54 285.173 1020.17 284.159H1020.41V287.926C1020.41 291.017 1018.24 292.417 1015.25 292.417C1011.88 292.417 1010.69 290.643 1009.93 289.616L1007.66 291.21C1008.82 293.154 1011.1 294.929 1015.25 294.929ZM1015.15 284.738C1011.58 284.738 1009.74 282.034 1009.74 278.17C1009.74 274.403 1011.53 271.361 1015.15 271.361C1018.63 271.361 1020.46 274.162 1020.46 278.17C1020.46 282.275 1018.58 284.738 1015.15 284.738ZM1028.48 287.588H1031.33V275.852C1031.33 273.341 1033.31 271.506 1036.01 271.506C1036.77 271.506 1037.56 271.65 1037.75 271.699V268.801C1037.43 268.777 1036.68 268.753 1036.25 268.753C1034.03 268.753 1032.1 270.008 1031.43 271.844H1031.23V269.042H1028.48V287.588ZM1046.59 288.023C1049.82 288.023 1051.51 286.284 1052.09 285.077H1052.24V287.588H1055.09V275.369C1055.09 269.477 1050.6 268.801 1048.23 268.801C1045.43 268.801 1042.24 269.767 1040.79 273.148L1043.5 274.113C1044.12 272.761 1045.61 271.312 1048.33 271.312C1050.95 271.312 1052.24 272.701 1052.24 275.079V275.176C1052.24 276.552 1050.84 276.432 1047.46 276.866C1044.02 277.313 1040.26 278.074 1040.26 282.324C1040.26 285.946 1043.06 288.023 1046.59 288.023ZM1047.02 285.463C1044.75 285.463 1043.11 284.449 1043.11 282.469C1043.11 280.295 1045.09 279.619 1047.31 279.329C1048.52 279.184 1051.75 278.846 1052.24 278.267V280.875C1052.24 283.193 1050.4 285.463 1047.02 285.463ZM1063.14 276.432C1063.14 273.196 1065.14 271.361 1067.87 271.361C1070.51 271.361 1072.12 273.087 1072.12 275.997V287.588H1074.97V275.804C1074.97 271.071 1072.45 268.801 1068.69 268.801C1065.89 268.801 1064.15 270.057 1063.28 271.94H1063.04V269.042H1060.29V287.588H1063.14V276.432ZM1088.24 269.042H1084.28V264.599H1081.43V269.042H1078.63V271.457H1081.43V283.048C1081.43 286.284 1084.04 287.829 1086.45 287.829C1087.52 287.829 1088.19 287.636 1088.58 287.491L1088 284.932C1087.76 284.98 1087.37 285.077 1086.74 285.077C1085.49 285.077 1084.28 284.69 1084.28 282.275V271.457H1088.24V269.042ZM1105.33 273.196C1104.44 270.564 1102.43 268.801 1098.76 268.801C1094.85 268.801 1091.95 271.023 1091.95 274.162C1091.95 276.721 1093.48 278.436 1096.88 279.233L1099.97 279.957C1101.84 280.392 1102.72 281.285 1102.72 282.565C1102.72 284.159 1101.03 285.463 1098.38 285.463C1096.05 285.463 1094.59 284.461 1094.08 282.469L1091.37 283.145C1092.04 286.296 1094.63 287.974 1098.43 287.974C1102.74 287.974 1105.67 285.62 1105.67 282.42C1105.67 279.836 1104.05 278.206 1100.74 277.398L1097.99 276.721C1095.79 276.178 1094.8 275.442 1094.8 274.017C1094.8 272.423 1096.49 271.264 1098.76 271.264C1101.25 271.264 1102.28 272.64 1102.77 273.92L1105.33 273.196ZM1122.37 276.432C1122.37 273.196 1124.38 271.361 1127.1 271.361C1129.75 271.361 1131.35 273.087 1131.35 275.997V287.588H1134.2V275.804C1134.2 271.071 1131.68 268.801 1127.93 268.801C1125.12 268.801 1123.39 270.057 1122.52 271.94H1122.27V269.042H1119.52V287.588H1122.37V276.432ZM1147.19 287.974C1150.95 287.974 1153.71 286.091 1154.58 283.29L1151.82 282.517C1151.1 284.449 1149.42 285.415 1147.19 285.415C1143.84 285.415 1141.54 283.253 1141.4 279.281H1154.87V278.074C1154.87 271.167 1150.76 268.801 1146.9 268.801C1141.87 268.801 1138.54 272.761 1138.54 278.46C1138.54 284.159 1141.83 287.974 1147.19 287.974ZM1141.4 276.818C1141.6 273.932 1143.64 271.361 1146.9 271.361C1149.99 271.361 1151.97 273.679 1151.97 276.818H1141.4ZM1166.98 287.974C1170.74 287.974 1173.5 286.091 1174.36 283.29L1171.61 282.517C1170.89 284.449 1169.21 285.415 1166.98 285.415C1163.63 285.415 1161.32 283.253 1161.19 279.281H1174.65V278.074C1174.65 271.167 1170.55 268.801 1166.69 268.801C1161.66 268.801 1158.33 272.761 1158.33 278.46C1158.33 284.159 1161.61 287.974 1166.98 287.974ZM1161.19 276.818C1161.39 273.932 1163.43 271.361 1166.69 271.361C1169.78 271.361 1171.76 273.679 1171.76 276.818H1161.19ZM1185.99 287.974C1189.57 287.974 1190.77 285.753 1191.4 284.738H1191.74V287.588H1194.49V262.861H1191.64V271.988H1191.4C1190.77 271.023 1189.66 268.801 1186.04 268.801C1181.36 268.801 1178.12 272.52 1178.12 278.363C1178.12 284.256 1181.36 287.974 1185.99 287.974ZM1186.38 285.415C1182.8 285.415 1180.97 282.275 1180.97 278.315C1180.97 274.403 1182.76 271.361 1186.38 271.361C1189.86 271.361 1191.69 274.162 1191.69 278.315C1191.69 282.517 1189.81 285.415 1186.38 285.415ZM363.864 336.023C367.1 336.023 368.79 334.284 369.37 333.077H369.515V335.588H372.364V323.369C372.364 317.477 367.873 316.801 365.506 316.801C362.705 316.801 359.518 317.767 358.069 321.148L360.773 322.113C361.401 320.761 362.886 319.312 365.603 319.312C368.223 319.312 369.515 320.701 369.515 323.079V323.176C369.515 324.552 368.114 324.432 364.733 324.866C361.292 325.313 357.537 326.074 357.537 330.324C357.537 333.946 360.339 336.023 363.864 336.023ZM364.299 333.463C362.029 333.463 360.387 332.449 360.387 330.469C360.387 328.295 362.367 327.619 364.589 327.329C365.796 327.184 369.032 326.846 369.515 326.267V328.875C369.515 331.193 367.68 333.463 364.299 333.463ZM380.414 324.432C380.414 321.196 382.419 319.361 385.147 319.361C387.792 319.361 389.397 321.087 389.397 323.997V335.588H392.247V323.804C392.247 319.071 389.723 316.801 385.968 316.801C383.167 316.801 381.429 318.057 380.559 319.94H380.318V317.042H377.565V335.588H380.414V324.432ZM412.474 336.023C415.709 336.023 417.4 334.284 417.979 333.077H418.124V335.588H420.974V323.369C420.974 317.477 416.482 316.801 414.116 316.801C411.314 316.801 408.127 317.767 406.678 321.148L409.383 322.113C410.01 320.761 411.496 319.312 414.212 319.312C416.832 319.312 418.124 320.701 418.124 323.079V323.176C418.124 324.552 416.724 324.432 413.343 324.866C409.902 325.313 406.147 326.074 406.147 330.324C406.147 333.946 408.948 336.023 412.474 336.023ZM412.908 333.463C410.638 333.463 408.996 332.449 408.996 330.469C408.996 328.295 410.976 327.619 413.198 327.329C414.405 327.184 417.641 326.846 418.124 326.267V328.875C418.124 331.193 416.289 333.463 412.908 333.463ZM433.708 335.974C437.814 335.974 440.518 333.463 441.001 330.179H438.152C437.62 332.207 435.93 333.415 433.708 333.415C430.328 333.415 428.154 330.613 428.154 326.315C428.154 322.113 430.376 319.361 433.708 319.361C436.22 319.361 437.717 320.906 438.152 322.596H441.001C440.518 319.119 437.572 316.801 433.66 316.801C428.637 316.801 425.305 320.761 425.305 326.412C425.305 331.966 428.493 335.974 433.708 335.974ZM452.701 335.974C456.806 335.974 459.51 333.463 459.993 330.179H457.144C456.613 332.207 454.922 333.415 452.701 333.415C449.32 333.415 447.147 330.613 447.147 326.315C447.147 322.113 449.368 319.361 452.701 319.361C455.212 319.361 456.709 320.906 457.144 322.596H459.993C459.51 319.119 456.564 316.801 452.652 316.801C447.63 316.801 444.297 320.761 444.297 326.412C444.297 331.966 447.485 335.974 452.701 335.974ZM471.934 335.974C475.701 335.974 478.454 334.091 479.324 331.29L476.571 330.517C475.846 332.449 474.168 333.415 471.934 333.415C468.59 333.415 466.284 331.253 466.151 327.281H479.613V326.074C479.613 319.167 475.508 316.801 471.645 316.801C466.622 316.801 463.289 320.761 463.289 326.46C463.289 332.159 466.574 335.974 471.934 335.974ZM466.151 324.818C466.344 321.932 468.385 319.361 471.645 319.361C474.735 319.361 476.716 321.679 476.716 324.818H466.151ZM497.084 321.196C496.191 318.564 494.186 316.801 490.516 316.801C486.604 316.801 483.706 319.023 483.706 322.162C483.706 324.721 485.228 326.436 488.632 327.233L491.723 327.957C493.595 328.392 494.476 329.285 494.476 330.565C494.476 332.159 492.786 333.463 490.13 333.463C487.799 333.463 486.338 332.461 485.831 330.469L483.127 331.145C483.791 334.296 486.387 335.974 490.178 335.974C494.488 335.974 497.422 333.62 497.422 330.42C497.422 327.836 495.804 326.206 492.496 325.398L489.743 324.721C487.546 324.178 486.556 323.442 486.556 322.017C486.556 320.423 488.246 319.264 490.516 319.264C493.003 319.264 494.029 320.64 494.525 321.92L497.084 321.196ZM514.848 321.196C513.954 318.564 511.95 316.801 508.28 316.801C504.368 316.801 501.47 319.023 501.47 322.162C501.47 324.721 502.991 326.436 506.396 327.233L509.487 327.957C511.358 328.392 512.24 329.285 512.24 330.565C512.24 332.159 510.55 333.463 507.893 333.463C505.563 333.463 504.102 332.461 503.595 330.469L500.89 331.145C501.555 334.296 504.15 335.974 507.942 335.974C512.252 335.974 515.186 333.62 515.186 330.42C515.186 327.836 513.568 326.206 510.26 325.398L507.507 324.721C505.309 324.178 504.319 323.442 504.319 322.017C504.319 320.423 506.01 319.264 508.28 319.264C510.767 319.264 511.793 320.64 512.288 321.92L514.848 321.196ZM519.475 335.588H522.325V317.042H519.475V335.588ZM520.924 313.952C522.035 313.952 522.952 313.082 522.952 312.02C522.952 310.957 522.035 310.088 520.924 310.088C519.813 310.088 518.896 310.957 518.896 312.02C518.896 313.082 519.813 313.952 520.924 313.952ZM527.93 335.588H530.683V332.738H531.021C531.649 333.753 532.856 335.974 536.43 335.974C541.066 335.974 544.302 332.256 544.302 326.363C544.302 320.52 541.066 316.801 536.382 316.801C532.759 316.801 531.649 319.023 531.021 319.988H530.779V310.861H527.93V335.588ZM530.731 326.315C530.731 322.162 532.566 319.361 536.044 319.361C539.666 319.361 541.453 322.403 541.453 326.315C541.453 330.275 539.617 333.415 536.044 333.415C532.615 333.415 530.731 330.517 530.731 326.315ZM551.51 310.861H548.661V335.588H551.51V310.861ZM564.505 335.974C568.272 335.974 571.025 334.091 571.894 331.29L569.141 330.517C568.417 332.449 566.738 333.415 564.505 333.415C561.16 333.415 558.854 331.253 558.721 327.281H572.184V326.074C572.184 319.167 568.078 316.801 564.215 316.801C559.192 316.801 555.86 320.761 555.86 326.46C555.86 332.159 559.144 335.974 564.505 335.974ZM558.721 324.818C558.914 321.932 560.955 319.361 564.215 319.361C567.306 319.361 569.286 321.679 569.286 324.818H558.721ZM591.538 336.023C594.774 336.023 596.464 334.284 597.044 333.077H597.189V335.588H600.038V323.369C600.038 317.477 595.547 316.801 593.18 316.801C590.379 316.801 587.191 317.767 585.743 321.148L588.447 322.113C589.075 320.761 590.56 319.312 593.277 319.312C595.897 319.312 597.189 320.701 597.189 323.079V323.176C597.189 324.552 595.788 324.432 592.407 324.866C588.966 325.313 585.211 326.074 585.211 330.324C585.211 333.946 588.012 336.023 591.538 336.023ZM591.973 333.463C589.703 333.463 588.061 332.449 588.061 330.469C588.061 328.295 590.041 327.619 592.262 327.329C593.47 327.184 596.706 326.846 597.189 326.267V328.875C597.189 331.193 595.353 333.463 591.973 333.463ZM608.088 324.432C608.088 321.196 610.093 319.361 612.821 319.361C615.465 319.361 617.071 321.087 617.071 323.997V335.588H619.921V323.804C619.921 319.071 617.397 316.801 613.642 316.801C610.841 316.801 609.102 318.057 608.233 319.94H607.992V317.042H605.239V335.588H608.088V324.432ZM632.13 335.974C635.704 335.974 636.912 333.753 637.539 332.738H637.877V335.588H640.63V310.861H637.781V319.988H637.539C636.912 319.023 635.801 316.801 632.179 316.801C627.494 316.801 624.258 320.52 624.258 326.363C624.258 332.256 627.494 335.974 632.13 335.974ZM632.517 333.415C628.943 333.415 627.108 330.275 627.108 326.315C627.108 322.403 628.895 319.361 632.517 319.361C635.994 319.361 637.829 322.162 637.829 326.315C637.829 330.517 635.946 333.415 632.517 333.415ZM655.807 342.542H658.657V332.738H658.898C659.526 333.753 660.733 335.974 664.307 335.974C668.944 335.974 672.179 332.256 672.179 326.363C672.179 320.52 668.944 316.801 664.259 316.801C660.637 316.801 659.526 319.023 658.898 319.988H658.56V317.042H655.807V342.542ZM658.608 326.315C658.608 322.162 660.444 319.361 663.921 319.361C667.543 319.361 669.33 322.403 669.33 326.315C669.33 330.275 667.495 333.415 663.921 333.415C660.492 333.415 658.608 330.517 658.608 326.315ZM676.526 335.588H679.375V323.852C679.375 321.341 681.355 319.506 684.06 319.506C684.821 319.506 685.605 319.65 685.799 319.699V316.801C685.473 316.777 684.724 316.753 684.301 316.753C682.08 316.753 680.148 318.008 679.472 319.844H679.279V317.042H676.526V335.588ZM696.146 335.974C701.169 335.974 704.549 332.159 704.549 326.412C704.549 320.616 701.169 316.801 696.146 316.801C691.123 316.801 687.743 320.616 687.743 326.412C687.743 332.159 691.123 335.974 696.146 335.974ZM696.146 333.415C692.331 333.415 690.592 330.131 690.592 326.412C690.592 322.693 692.331 319.361 696.146 319.361C699.961 319.361 701.7 322.693 701.7 326.412C701.7 330.131 699.961 333.415 696.146 333.415ZM715.902 335.974C719.476 335.974 720.683 333.753 721.311 332.738H721.649V335.588H724.402V310.861H721.552V319.988H721.311C720.683 319.023 719.572 316.801 715.95 316.801C711.265 316.801 708.03 320.52 708.03 326.363C708.03 332.256 711.265 335.974 715.902 335.974ZM716.288 333.415C712.714 333.415 710.879 330.275 710.879 326.315C710.879 322.403 712.666 319.361 716.288 319.361C719.765 319.361 721.601 322.162 721.601 326.315C721.601 330.517 719.717 333.415 716.288 333.415ZM741.704 328.006C741.704 331.483 739.047 333.077 736.922 333.077C734.556 333.077 732.866 331.338 732.866 328.633V317.042H730.016V328.827C730.016 333.559 732.528 335.829 736.005 335.829C738.806 335.829 740.641 334.332 741.51 332.449H741.704V335.588H744.553V317.042H741.704V328.006ZM757.306 335.974C761.411 335.974 764.116 333.463 764.599 330.179H761.749C761.218 332.207 759.528 333.415 757.306 333.415C753.925 333.415 751.752 330.613 751.752 326.315C751.752 322.113 753.974 319.361 757.306 319.361C759.817 319.361 761.315 320.906 761.749 322.596H764.599C764.116 319.119 761.17 316.801 757.258 316.801C752.235 316.801 748.903 320.761 748.903 326.412C748.903 331.966 752.09 335.974 757.306 335.974ZM776.83 317.042H772.869V312.599H770.02V317.042H767.219V319.457H770.02V331.048C770.02 334.284 772.628 335.829 775.043 335.829C776.105 335.829 776.781 335.636 777.168 335.491L776.588 332.932C776.347 332.98 775.96 333.077 775.332 333.077C774.077 333.077 772.869 332.69 772.869 330.275V319.457H776.83V317.042ZM781.116 335.588H783.965V317.042H781.116V335.588ZM782.565 313.952C783.675 313.952 784.593 313.082 784.593 312.02C784.593 310.957 783.675 310.088 782.565 310.088C781.454 310.088 780.536 310.957 780.536 312.02C780.536 313.082 781.454 313.952 782.565 313.952ZM804.349 317.042H801.258L796.139 331.821H795.945L790.826 317.042H787.735L794.593 335.588H797.491L804.349 317.042ZM815.221 335.974C818.988 335.974 821.741 334.091 822.611 331.29L819.858 330.517C819.133 332.449 817.455 333.415 815.221 333.415C811.877 333.415 809.571 331.253 809.438 327.281H822.9V326.074C822.9 319.167 818.795 316.801 814.932 316.801C809.909 316.801 806.577 320.761 806.577 326.46C806.577 332.159 809.861 335.974 815.221 335.974ZM809.438 324.818C809.631 321.932 811.672 319.361 814.932 319.361C818.023 319.361 820.003 321.679 820.003 324.818H809.438ZM840.999 335.588H843.8L847.857 321.341H848.147L852.204 335.588H855.005L860.655 317.042H857.661L853.653 331.193H853.459L849.547 317.042H846.505L842.545 331.241H842.351L838.343 317.042H835.349L840.999 335.588ZM869.88 336.023C873.116 336.023 874.806 334.284 875.385 333.077H875.53V335.588H878.38V323.369C878.38 317.477 873.888 316.801 871.522 316.801C868.721 316.801 865.533 317.767 864.084 321.148L866.789 322.113C867.417 320.761 868.902 319.312 871.618 319.312C874.238 319.312 875.53 320.701 875.53 323.079V323.176C875.53 324.552 874.13 324.432 870.749 324.866C867.308 325.313 863.553 326.074 863.553 330.324C863.553 333.946 866.354 336.023 869.88 336.023ZM870.314 333.463C868.045 333.463 866.403 332.449 866.403 330.469C866.403 328.295 868.383 327.619 870.604 327.329C871.812 327.184 875.047 326.846 875.53 326.267V328.875C875.53 331.193 873.695 333.463 870.314 333.463ZM884.752 342.542C887.324 342.542 889.135 341.178 890.209 338.292L898.105 317.091L894.99 317.042L889.871 331.821H889.678L884.559 317.042H881.468L888.326 335.684L887.794 337.133C886.756 339.959 885.476 340.224 883.4 339.693L882.675 342.204C882.965 342.349 883.786 342.542 884.752 342.542ZM919.503 317.042H915.543V312.599H912.694V317.042H909.893V319.457H912.694V331.048C912.694 334.284 915.302 335.829 917.716 335.829C918.779 335.829 919.455 335.636 919.841 335.491L919.262 332.932C919.02 332.98 918.634 333.077 918.006 333.077C916.751 333.077 915.543 332.69 915.543 330.275V319.457H919.503V317.042ZM931.124 335.974C936.147 335.974 939.528 332.159 939.528 326.412C939.528 320.616 936.147 316.801 931.124 316.801C926.102 316.801 922.721 320.616 922.721 326.412C922.721 332.159 926.102 335.974 931.124 335.974ZM931.124 333.415C927.309 333.415 925.57 330.131 925.57 326.412C925.57 322.693 927.309 319.361 931.124 319.361C934.94 319.361 936.678 322.693 936.678 326.412C936.678 330.131 934.94 333.415 931.124 333.415ZM956.289 324.432C956.289 321.196 958.354 319.361 961.167 319.361C963.848 319.361 965.466 321.051 965.466 323.997V335.588H968.315V323.804C968.315 319.035 965.779 316.801 961.988 316.801C959.066 316.801 957.4 318.02 956.531 319.94H956.289V310.861H953.44V335.588H956.289V324.432ZM981.303 335.974C985.07 335.974 987.823 334.091 988.693 331.29L985.94 330.517C985.215 332.449 983.537 333.415 981.303 333.415C977.959 333.415 975.653 331.253 975.52 327.281H988.982V326.074C988.982 319.167 984.877 316.801 981.014 316.801C975.991 316.801 972.659 320.761 972.659 326.46C972.659 332.159 975.943 335.974 981.303 335.974ZM975.52 324.818C975.713 321.932 977.754 319.361 981.014 319.361C984.105 319.361 986.085 321.679 986.085 324.818H975.52ZM996.166 310.861H993.317V335.588H996.166V310.861ZM1001.39 342.542H1004.23V332.738H1004.48C1005.1 333.753 1006.31 335.974 1009.89 335.974C1014.52 335.974 1017.76 332.256 1017.76 326.363C1017.76 320.52 1014.52 316.801 1009.84 316.801C1006.21 316.801 1005.1 319.023 1004.48 319.988H1004.14V317.042H1001.39V342.542ZM1004.19 326.315C1004.19 322.162 1006.02 319.361 1009.5 319.361C1013.12 319.361 1014.91 322.403 1014.91 326.315C1014.91 330.275 1013.07 333.415 1009.5 333.415C1006.07 333.415 1004.19 330.517 1004.19 326.315ZM1031.67 335.588H1034.52V323.852C1034.52 321.341 1036.5 319.506 1039.2 319.506C1039.96 319.506 1040.75 319.65 1040.94 319.699V316.801C1040.61 316.777 1039.86 316.753 1039.44 316.753C1037.22 316.753 1035.29 318.008 1034.61 319.844H1034.42V317.042H1031.67V335.588ZM1051.53 335.974C1055.3 335.974 1058.05 334.091 1058.92 331.29L1056.16 330.517C1055.44 332.449 1053.76 333.415 1051.53 333.415C1048.18 333.415 1045.88 331.253 1045.74 327.281H1059.21V326.074C1059.21 319.167 1055.1 316.801 1051.24 316.801C1046.22 316.801 1042.88 320.761 1042.88 326.46C1042.88 332.159 1046.17 335.974 1051.53 335.974ZM1045.74 324.818C1045.94 321.932 1047.98 319.361 1051.24 319.361C1054.33 319.361 1056.31 321.679 1056.31 324.818H1045.74ZM1071.08 335.974C1075.18 335.974 1077.89 333.463 1078.37 330.179H1075.52C1074.99 332.207 1073.3 333.415 1071.08 333.415C1067.69 333.415 1065.52 330.613 1065.52 326.315C1065.52 322.113 1067.74 319.361 1071.08 319.361C1073.59 319.361 1075.08 320.906 1075.52 322.596H1078.37C1077.89 319.119 1074.94 316.801 1071.03 316.801C1066 316.801 1062.67 320.761 1062.67 326.412C1062.67 331.966 1065.86 335.974 1071.08 335.974ZM1090.07 335.974C1095.09 335.974 1098.47 332.159 1098.47 326.412C1098.47 320.616 1095.09 316.801 1090.07 316.801C1085.05 316.801 1081.66 320.616 1081.66 326.412C1081.66 332.159 1085.05 335.974 1090.07 335.974ZM1090.07 333.415C1086.25 333.415 1084.51 330.131 1084.51 326.412C1084.51 322.693 1086.25 319.361 1090.07 319.361C1093.88 319.361 1095.62 322.693 1095.62 326.412C1095.62 330.131 1093.88 333.415 1090.07 333.415ZM1105.67 324.432C1105.67 321.196 1107.67 319.361 1110.4 319.361C1113.05 319.361 1114.65 321.087 1114.65 323.997V335.588H1117.5V323.804C1117.5 319.071 1114.98 316.801 1111.22 316.801C1108.42 316.801 1106.68 318.057 1105.82 319.94H1105.57V317.042H1102.82V335.588H1105.67V324.432ZM1130.24 335.974C1134.35 335.974 1137.05 333.463 1137.54 330.179H1134.69C1134.16 332.207 1132.47 333.415 1130.24 333.415C1126.86 333.415 1124.69 330.613 1124.69 326.315C1124.69 322.113 1126.91 319.361 1130.24 319.361C1132.75 319.361 1134.25 320.906 1134.69 322.596H1137.54C1137.05 319.119 1134.11 316.801 1130.2 316.801C1125.17 316.801 1121.84 320.761 1121.84 326.412C1121.84 331.966 1125.03 335.974 1130.24 335.974ZM1141.7 335.588H1144.55V317.042H1141.7V335.588ZM1143.15 313.952C1144.26 313.952 1145.18 313.082 1145.18 312.02C1145.18 310.957 1144.26 310.088 1143.15 310.088C1142.04 310.088 1141.12 310.957 1141.12 312.02C1141.12 313.082 1142.04 313.952 1143.15 313.952ZM1152.62 310.861H1149.77V335.588H1152.62V310.861ZM1165.61 335.974C1169.38 335.974 1172.13 334.091 1173 331.29L1170.25 330.517C1169.53 332.449 1167.85 333.415 1165.61 333.415C1162.27 333.415 1159.96 331.253 1159.83 327.281H1173.29V326.074C1173.29 319.167 1169.19 316.801 1165.32 316.801C1160.3 316.801 1156.97 320.761 1156.97 326.46C1156.97 332.159 1160.25 335.974 1165.61 335.974ZM1159.83 324.818C1160.02 321.932 1162.06 319.361 1165.32 319.361C1168.42 319.361 1170.4 321.679 1170.4 324.818H1159.83ZM1195.26 317.042H1191.3V312.599H1188.45V317.042H1185.64V319.457H1188.45V331.048C1188.45 334.284 1191.05 335.829 1193.47 335.829C1194.53 335.829 1195.21 335.636 1195.59 335.491L1195.01 332.932C1194.77 332.98 1194.39 333.077 1193.76 333.077C1192.5 333.077 1191.3 332.69 1191.3 330.275V319.457H1195.26V317.042ZM1202.79 324.432C1202.79 321.196 1204.85 319.361 1207.67 319.361C1210.35 319.361 1211.97 321.051 1211.97 323.997V335.588H1214.81V323.804C1214.81 319.035 1212.28 316.801 1208.49 316.801C1205.57 316.801 1203.9 318.02 1203.03 319.94H1202.79V310.861H1199.94V335.588H1202.79V324.432ZM1227.8 335.974C1231.57 335.974 1234.32 334.091 1235.19 331.29L1232.44 330.517C1231.72 332.449 1230.04 333.415 1227.8 333.415C1224.46 333.415 1222.15 331.253 1222.02 327.281H1235.48V326.074C1235.48 319.167 1231.38 316.801 1227.51 316.801C1222.49 316.801 1219.16 320.761 1219.16 326.46C1219.16 332.159 1222.44 335.974 1227.8 335.974ZM1222.02 324.818C1222.21 321.932 1224.25 319.361 1227.51 319.361C1230.6 319.361 1232.58 321.679 1232.58 324.818H1222.02ZM1239.82 335.588H1242.67V317.042H1239.82V335.588ZM1241.27 313.952C1242.38 313.952 1243.29 313.082 1243.29 312.02C1243.29 310.957 1242.38 310.088 1241.27 310.088C1240.16 310.088 1239.24 310.957 1239.24 312.02C1239.24 313.082 1240.16 313.952 1241.27 313.952ZM1247.89 335.588H1250.73V323.852C1250.73 321.341 1252.71 319.506 1255.42 319.506C1256.18 319.506 1256.96 319.65 1257.16 319.699V316.801C1256.83 316.777 1256.08 316.753 1255.66 316.753C1253.44 316.753 1251.51 318.008 1250.83 319.844H1250.64V317.042H1247.89V335.588ZM361.256 372.432C361.256 369.196 363.321 367.361 366.134 367.361C368.814 367.361 370.432 369.051 370.432 371.997V383.588H373.282V371.804C373.282 367.035 370.746 364.801 366.955 364.801C364.033 364.801 362.367 366.02 361.498 367.94H361.256V358.861H358.407V383.588H361.256V372.432ZM386.029 383.974C391.051 383.974 394.432 380.159 394.432 374.412C394.432 368.616 391.051 364.801 386.029 364.801C381.006 364.801 377.625 368.616 377.625 374.412C377.625 380.159 381.006 383.974 386.029 383.974ZM386.029 381.415C382.213 381.415 380.475 378.131 380.475 374.412C380.475 370.693 382.213 367.361 386.029 367.361C389.844 367.361 391.583 370.693 391.583 374.412C391.583 378.131 389.844 381.415 386.029 381.415ZM398.782 383.588H401.631V371.997C401.631 369.28 403.611 367.361 405.833 367.361C407.994 367.361 409.503 368.773 409.503 370.886V383.588H412.401V371.514C412.401 369.123 413.898 367.361 416.506 367.361C418.535 367.361 420.273 368.435 420.273 371.176V383.588H423.123V371.176C423.123 366.817 420.78 364.801 417.472 364.801C414.816 364.801 412.872 366.02 411.918 367.94H411.725C410.807 365.96 409.189 364.801 406.751 364.801C404.336 364.801 402.549 365.96 401.776 367.94H401.535V365.042H398.782V383.588ZM436.108 383.974C439.875 383.974 442.628 382.091 443.497 379.29L440.744 378.517C440.02 380.449 438.342 381.415 436.108 381.415C432.764 381.415 430.458 379.253 430.325 375.281H443.787V374.074C443.787 367.167 439.682 364.801 435.818 364.801C430.796 364.801 427.463 368.761 427.463 374.46C427.463 380.159 430.747 383.974 436.108 383.974ZM430.325 372.818C430.518 369.932 432.558 367.361 435.818 367.361C438.909 367.361 440.889 369.679 440.889 372.818H430.325ZM463.142 384.023C466.377 384.023 468.068 382.284 468.647 381.077H468.792V383.588H471.642V371.369C471.642 365.477 467.15 364.801 464.784 364.801C461.982 364.801 458.795 365.767 457.346 369.148L460.051 370.113C460.678 368.761 462.164 367.312 464.88 367.312C467.5 367.312 468.792 368.701 468.792 371.079V371.176C468.792 372.552 467.392 372.432 464.011 372.866C460.57 373.313 456.815 374.074 456.815 378.324C456.815 381.946 459.616 384.023 463.142 384.023ZM463.576 381.463C461.306 381.463 459.664 380.449 459.664 378.469C459.664 376.295 461.644 375.619 463.866 375.329C465.073 375.184 468.309 374.846 468.792 374.267V376.875C468.792 379.193 466.957 381.463 463.576 381.463ZM479.692 372.432C479.692 369.196 481.696 367.361 484.425 367.361C487.069 367.361 488.675 369.087 488.675 371.997V383.588H491.524V371.804C491.524 367.071 489.001 364.801 485.246 364.801C482.445 364.801 480.706 366.057 479.837 367.94H479.595V365.042H476.842V383.588H479.692V372.432ZM503.734 383.974C507.308 383.974 508.515 381.753 509.143 380.738H509.481V383.588H512.234V358.861H509.384V367.988H509.143C508.515 367.023 507.404 364.801 503.782 364.801C499.097 364.801 495.862 368.52 495.862 374.363C495.862 380.256 499.097 383.974 503.734 383.974ZM504.12 381.415C500.546 381.415 498.711 378.275 498.711 374.315C498.711 370.403 500.498 367.361 504.12 367.361C507.597 367.361 509.433 370.162 509.433 374.315C509.433 378.517 507.549 381.415 504.12 381.415ZM530.26 372.432C530.26 369.196 532.325 367.361 535.138 367.361C537.818 367.361 539.436 369.051 539.436 371.997V383.588H542.286V371.804C542.286 367.035 539.75 364.801 535.959 364.801C533.037 364.801 531.371 366.02 530.502 367.94H530.26V358.861H527.411V383.588H530.26V372.432ZM555.033 383.974C560.055 383.974 563.436 380.159 563.436 374.412C563.436 368.616 560.055 364.801 555.033 364.801C550.01 364.801 546.629 368.616 546.629 374.412C546.629 380.159 550.01 383.974 555.033 383.974ZM555.033 381.415C551.217 381.415 549.479 378.131 549.479 374.412C549.479 370.693 551.217 367.361 555.033 367.361C558.848 367.361 560.587 370.693 560.587 374.412C560.587 378.131 558.848 381.415 555.033 381.415ZM580.922 369.196C580.029 366.564 578.024 364.801 574.354 364.801C570.442 364.801 567.544 367.023 567.544 370.162C567.544 372.721 569.066 374.436 572.47 375.233L575.561 375.957C577.433 376.392 578.314 377.285 578.314 378.565C578.314 380.159 576.624 381.463 573.968 381.463C571.637 381.463 570.176 380.461 569.669 378.469L566.965 379.145C567.629 382.296 570.225 383.974 574.016 383.974C578.326 383.974 581.26 381.62 581.26 378.42C581.26 375.836 579.642 374.206 576.334 373.398L573.581 372.721C571.384 372.178 570.394 371.442 570.394 370.017C570.394 368.423 572.084 367.264 574.354 367.264C576.841 367.264 577.867 368.64 578.362 369.92L580.922 369.196ZM593.615 365.042H589.654V360.599H586.805V365.042H584.004V367.457H586.805V379.048C586.805 382.284 589.413 383.829 591.828 383.829C592.89 383.829 593.566 383.636 593.953 383.491L593.373 380.932C593.132 380.98 592.745 381.077 592.118 381.077C590.862 381.077 589.654 380.69 589.654 378.275V367.457H593.615V365.042ZM614.998 383.974C619.103 383.974 621.807 381.463 622.29 378.179H619.441C618.909 380.207 617.219 381.415 614.998 381.415C611.617 381.415 609.444 378.613 609.444 374.315C609.444 370.113 611.665 367.361 614.998 367.361C617.509 367.361 619.006 368.906 619.441 370.596H622.29C621.807 367.119 618.861 364.801 614.949 364.801C609.926 364.801 606.594 368.761 606.594 374.412C606.594 379.966 609.782 383.974 614.998 383.974ZM638.143 376.006C638.143 379.483 635.487 381.077 633.362 381.077C630.995 381.077 629.305 379.338 629.305 376.633V365.042H626.456V376.827C626.456 381.559 628.967 383.829 632.444 383.829C635.245 383.829 637.081 382.332 637.95 380.449H638.143V383.588H640.993V365.042H638.143V376.006ZM649.061 358.861H646.211V383.588H649.061V358.861ZM662.345 365.042H658.385V360.599H655.536V365.042H652.734V367.457H655.536V379.048C655.536 382.284 658.143 383.829 660.558 383.829C661.621 383.829 662.297 383.636 662.683 383.491L662.104 380.932C661.862 380.98 661.476 381.077 660.848 381.077C659.592 381.077 658.385 380.69 658.385 378.275V367.457H662.345V365.042ZM678.319 376.006C678.319 379.483 675.663 381.077 673.538 381.077C671.171 381.077 669.481 379.338 669.481 376.633V365.042H666.631V376.827C666.631 381.559 669.143 383.829 672.62 383.829C675.421 383.829 677.256 382.332 678.126 380.449H678.319V383.588H681.168V365.042H678.319V376.006ZM686.387 383.588H689.237V371.852C689.237 369.341 691.217 367.506 693.921 367.506C694.682 367.506 695.467 367.65 695.66 367.699V364.801C695.334 364.777 694.585 364.753 694.163 364.753C691.941 364.753 690.009 366.008 689.333 367.844H689.14V365.042H686.387V383.588ZM706.249 383.974C710.016 383.974 712.769 382.091 713.638 379.29L710.885 378.517C710.161 380.449 708.482 381.415 706.249 381.415C702.904 381.415 700.598 379.253 700.465 375.281H713.928V374.074C713.928 367.167 709.823 364.801 705.959 364.801C700.936 364.801 697.604 368.761 697.604 374.46C697.604 380.159 700.888 383.974 706.249 383.974ZM700.465 372.818C700.659 369.932 702.699 367.361 705.959 367.361C709.05 367.361 711.03 369.679 711.03 372.818H700.465ZM731.399 369.196C730.505 366.564 728.501 364.801 724.83 364.801C720.919 364.801 718.021 367.023 718.021 370.162C718.021 372.721 719.542 374.436 722.947 375.233L726.038 375.957C727.909 376.392 728.791 377.285 728.791 378.565C728.791 380.159 727.1 381.463 724.444 381.463C722.114 381.463 720.653 380.461 720.146 378.469L717.441 379.145C718.105 382.296 720.701 383.974 724.492 383.974C728.803 383.974 731.737 381.62 731.737 378.42C731.737 375.836 730.119 374.206 726.811 373.398L724.058 372.721C721.86 372.178 720.87 371.442 720.87 370.017C720.87 368.423 722.561 367.264 724.83 367.264C727.318 367.264 728.344 368.64 728.839 369.92L731.399 369.196ZM745.975 383.588H748.728V380.738H749.066C749.694 381.753 750.901 383.974 754.475 383.974C759.111 383.974 762.347 380.256 762.347 374.363C762.347 368.52 759.111 364.801 754.426 364.801C750.804 364.801 749.694 367.023 749.066 367.988H748.824V358.861H745.975V383.588ZM748.776 374.315C748.776 370.162 750.611 367.361 754.088 367.361C757.711 367.361 759.498 370.403 759.498 374.315C759.498 378.275 757.662 381.415 754.088 381.415C750.659 381.415 748.776 378.517 748.776 374.315ZM774.481 383.974C778.248 383.974 781.001 382.091 781.87 379.29L779.118 378.517C778.393 380.449 776.715 381.415 774.481 381.415C771.137 381.415 768.831 379.253 768.698 375.281H782.16V374.074C782.16 367.167 778.055 364.801 774.191 364.801C769.169 364.801 765.836 368.761 765.836 374.46C765.836 380.159 769.12 383.974 774.481 383.974ZM768.698 372.818C768.891 369.932 770.931 367.361 774.191 367.361C777.282 367.361 779.262 369.679 779.262 372.818H768.698ZM794.029 383.974C798.134 383.974 800.838 381.463 801.321 378.179H798.472C797.941 380.207 796.25 381.415 794.029 381.415C790.648 381.415 788.475 378.613 788.475 374.315C788.475 370.113 790.696 367.361 794.029 367.361C796.54 367.361 798.037 368.906 798.472 370.596H801.321C800.838 367.119 797.892 364.801 793.98 364.801C788.958 364.801 785.625 368.761 785.625 374.412C785.625 379.966 788.813 383.974 794.029 383.974ZM810.944 384.023C814.18 384.023 815.87 382.284 816.45 381.077H816.595V383.588H819.444V371.369C819.444 365.477 814.953 364.801 812.586 364.801C809.785 364.801 806.598 365.767 805.149 369.148L807.853 370.113C808.481 368.761 809.966 367.312 812.683 367.312C815.303 367.312 816.595 368.701 816.595 371.079V371.176C816.595 372.552 815.194 372.432 811.814 372.866C808.373 373.313 804.618 374.074 804.618 378.324C804.618 381.946 807.419 384.023 810.944 384.023ZM811.379 381.463C809.109 381.463 807.467 380.449 807.467 378.469C807.467 376.295 809.447 375.619 811.669 375.329C812.876 375.184 816.112 374.846 816.595 374.267V376.875C816.595 379.193 814.76 381.463 811.379 381.463ZM836.333 376.006C836.333 379.483 833.676 381.077 831.551 381.077C829.185 381.077 827.494 379.338 827.494 376.633V365.042H824.645V376.827C824.645 381.559 827.156 383.829 830.634 383.829C833.435 383.829 835.27 382.332 836.139 380.449H836.333V383.588H839.182V365.042H836.333V376.006ZM857.537 369.196C856.644 366.564 854.64 364.801 850.969 364.801C847.057 364.801 844.159 367.023 844.159 370.162C844.159 372.721 845.681 374.436 849.086 375.233L852.176 375.957C854.048 376.392 854.929 377.285 854.929 378.565C854.929 380.159 853.239 381.463 850.583 381.463C848.252 381.463 846.792 380.461 846.284 378.469L843.58 379.145C844.244 382.296 846.84 383.974 850.631 383.974C854.941 383.974 857.875 381.62 857.875 378.42C857.875 375.836 856.257 374.206 852.949 373.398L850.196 372.721C847.999 372.178 847.009 371.442 847.009 370.017C847.009 368.423 848.699 367.264 850.969 367.264C853.456 367.264 854.483 368.64 854.978 369.92L857.537 369.196ZM869.94 383.974C873.707 383.974 876.46 382.091 877.329 379.29L874.577 378.517C873.852 380.449 872.174 381.415 869.94 381.415C866.596 381.415 864.29 379.253 864.157 375.281H877.619V374.074C877.619 367.167 873.514 364.801 869.65 364.801C864.628 364.801 861.295 368.761 861.295 374.46C861.295 380.159 864.579 383.974 869.94 383.974ZM864.157 372.818C864.35 369.932 866.39 367.361 869.65 367.361C872.741 367.361 874.721 369.679 874.721 372.818H864.157ZM899.581 365.042H895.621V360.599H892.772V365.042H889.971V367.457H892.772V379.048C892.772 382.284 895.38 383.829 897.795 383.829C898.857 383.829 899.533 383.636 899.92 383.491L899.34 380.932C899.099 380.98 898.712 381.077 898.084 381.077C896.829 381.077 895.621 380.69 895.621 378.275V367.457H899.581V365.042ZM907.116 372.432C907.116 369.196 909.18 367.361 911.993 367.361C914.674 367.361 916.292 369.051 916.292 371.997V383.588H919.141V371.804C919.141 367.035 916.606 364.801 912.814 364.801C909.893 364.801 908.226 366.02 907.357 367.94H907.116V358.861H904.266V383.588H907.116V372.432ZM932.13 383.974C935.897 383.974 938.65 382.091 939.519 379.29L936.766 378.517C936.042 380.449 934.363 381.415 932.13 381.415C928.785 381.415 926.479 379.253 926.346 375.281H939.809V374.074C939.809 367.167 935.703 364.801 931.84 364.801C926.817 364.801 923.485 368.761 923.485 374.46C923.485 380.159 926.769 383.974 932.13 383.974ZM926.346 372.818C926.539 369.932 928.58 367.361 931.84 367.361C934.931 367.361 936.911 369.679 936.911 372.818H926.346ZM945.414 390.542C947.986 390.542 949.797 389.178 950.871 386.292L958.768 365.091L955.653 365.042L950.533 379.821H950.34L945.221 365.042H942.13L948.988 383.684L948.456 385.133C947.418 387.959 946.138 388.224 944.062 387.693L943.337 390.204C943.627 390.349 944.448 390.542 945.414 390.542ZM976.302 383.588H979.103L983.16 369.341H983.45L987.506 383.588H990.308L995.958 365.042H992.964L988.955 379.193H988.762L984.85 365.042H981.808L977.847 379.241H977.654L973.646 365.042H970.651L976.302 383.588ZM1005.18 384.023C1008.42 384.023 1010.11 382.284 1010.69 381.077H1010.83V383.588H1013.68V371.369C1013.68 365.477 1009.19 364.801 1006.82 364.801C1004.02 364.801 1000.84 365.767 999.387 369.148L1002.09 370.113C1002.72 368.761 1004.2 367.312 1006.92 367.312C1009.54 367.312 1010.83 368.701 1010.83 371.079V371.176C1010.83 372.552 1009.43 372.432 1006.05 372.866C1002.61 373.313 998.856 374.074 998.856 378.324C998.856 381.946 1001.66 384.023 1005.18 384.023ZM1005.62 381.463C1003.35 381.463 1001.71 380.449 1001.71 378.469C1001.71 376.295 1003.69 375.619 1005.91 375.329C1007.11 375.184 1010.35 374.846 1010.83 374.267V376.875C1010.83 379.193 1009 381.463 1005.62 381.463ZM1021.73 372.432C1021.73 369.196 1023.74 367.361 1026.47 367.361C1029.11 367.361 1030.72 369.087 1030.72 371.997V383.588H1033.57V371.804C1033.57 367.071 1031.04 364.801 1027.29 364.801C1024.49 364.801 1022.75 366.057 1021.88 367.94H1021.64V365.042H1018.88V383.588H1021.73V372.432ZM1046.84 365.042H1042.88V360.599H1040.03V365.042H1037.23V367.457H1040.03V379.048C1040.03 382.284 1042.64 383.829 1045.05 383.829C1046.11 383.829 1046.79 383.636 1047.18 383.491L1046.6 380.932C1046.35 380.98 1045.97 381.077 1045.34 381.077C1044.08 381.077 1042.88 380.69 1042.88 378.275V367.457H1046.84V365.042ZM1068.75 365.042H1064.79V360.599H1061.94V365.042H1059.14V367.457H1061.94V379.048C1061.94 382.284 1064.55 383.829 1066.96 383.829C1068.03 383.829 1068.7 383.636 1069.09 383.491L1068.51 380.932C1068.27 380.98 1067.88 381.077 1067.25 381.077C1066 381.077 1064.79 380.69 1064.79 378.275V367.457H1068.75V365.042ZM1080.37 383.974C1085.4 383.974 1088.78 380.159 1088.78 374.412C1088.78 368.616 1085.4 364.801 1080.37 364.801C1075.35 364.801 1071.97 368.616 1071.97 374.412C1071.97 380.159 1075.35 383.974 1080.37 383.974ZM1080.37 381.415C1076.56 381.415 1074.82 378.131 1074.82 374.412C1074.82 370.693 1076.56 367.361 1080.37 367.361C1084.19 367.361 1085.93 370.693 1085.93 374.412C1085.93 378.131 1084.19 381.415 1080.37 381.415ZM1110.95 365.042H1106.79V363.159C1106.79 361.324 1107.57 360.358 1109.45 360.358C1110.27 360.358 1110.75 360.551 1111.04 360.648L1111.86 358.184C1111.43 357.991 1110.56 357.702 1109.16 357.702C1106.5 357.702 1103.94 359.295 1103.94 362.483V365.042H1100.95V367.457H1103.94V383.588H1106.79V367.457H1110.95V365.042ZM1121.95 383.974C1125.72 383.974 1128.47 382.091 1129.34 379.29L1126.59 378.517C1125.86 380.449 1124.19 381.415 1121.95 381.415C1118.61 381.415 1116.3 379.253 1116.17 375.281H1129.63V374.074C1129.63 367.167 1125.53 364.801 1121.66 364.801C1116.64 364.801 1113.31 368.761 1113.31 374.46C1113.31 380.159 1116.59 383.974 1121.95 383.974ZM1116.17 372.818C1116.36 369.932 1118.4 367.361 1121.66 367.361C1124.75 367.361 1126.73 369.679 1126.73 372.818H1116.17ZM1141.74 383.974C1145.51 383.974 1148.26 382.091 1149.13 379.29L1146.38 378.517C1145.65 380.449 1143.97 381.415 1141.74 381.415C1138.4 381.415 1136.09 379.253 1135.96 375.281H1149.42V374.074C1149.42 367.167 1145.31 364.801 1141.45 364.801C1136.43 364.801 1133.1 368.761 1133.1 374.46C1133.1 380.159 1136.38 383.974 1141.74 383.974ZM1135.96 372.818C1136.15 369.932 1138.19 367.361 1141.45 367.361C1144.54 367.361 1146.52 369.679 1146.52 372.818H1135.96ZM1156.6 358.861H1153.75V383.588H1156.6V358.861ZM1174.23 358.861H1171.39V383.588H1174.23V358.861ZM1179.45 383.588H1182.3V365.042H1179.45V383.588ZM1180.9 361.952C1182.01 361.952 1182.93 361.082 1182.93 360.02C1182.93 358.957 1182.01 358.088 1180.9 358.088C1179.79 358.088 1178.87 358.957 1178.87 360.02C1178.87 361.082 1179.79 361.952 1180.9 361.952ZM1187.52 383.588H1190.37V376.645L1192.36 374.798L1199.31 383.588H1202.93L1194.51 372.963L1202.35 365.042H1198.82L1190.71 373.301H1190.37V358.861H1187.52V383.588ZM1213.03 383.974C1216.8 383.974 1219.55 382.091 1220.42 379.29L1217.66 378.517C1216.94 380.449 1215.26 381.415 1213.03 381.415C1209.68 381.415 1207.38 379.253 1207.24 375.281H1220.71V374.074C1220.71 367.167 1216.6 364.801 1212.74 364.801C1207.72 364.801 1204.38 368.761 1204.38 374.46C1204.38 380.159 1207.67 383.974 1213.03 383.974ZM1207.24 372.818C1207.44 369.932 1209.48 367.361 1212.74 367.361C1215.83 367.361 1217.81 369.679 1217.81 372.818H1207.24ZM366.472 413.042H362.512V408.599H359.662V413.042H356.861V415.457H359.662V427.048C359.662 430.284 362.27 431.829 364.685 431.829C365.748 431.829 366.424 431.636 366.81 431.491L366.231 428.932C365.989 428.98 365.603 429.077 364.975 429.077C363.719 429.077 362.512 428.69 362.512 426.275V415.457H366.472V413.042ZM374.006 420.432C374.006 417.196 376.071 415.361 378.884 415.361C381.564 415.361 383.182 417.051 383.182 419.997V431.588H386.032V419.804C386.032 415.035 383.496 412.801 379.705 412.801C376.783 412.801 375.117 414.02 374.248 415.94H374.006V406.861H371.157V431.588H374.006V420.432ZM399.02 431.974C402.787 431.974 405.54 430.091 406.409 427.29L403.657 426.517C402.932 428.449 401.254 429.415 399.02 429.415C395.676 429.415 393.37 427.253 393.237 423.281H406.699V422.074C406.699 415.167 402.594 412.801 398.73 412.801C393.708 412.801 390.375 416.761 390.375 422.46C390.375 428.159 393.659 431.974 399.02 431.974ZM393.237 420.818C393.43 417.932 395.471 415.361 398.73 415.361C401.821 415.361 403.801 417.679 403.801 420.818H393.237ZM412.305 438.542C414.876 438.542 416.687 437.178 417.762 434.292L425.658 413.091L422.543 413.042L417.424 427.821H417.231L412.111 413.042H409.02L415.878 431.684L415.347 433.133C414.309 435.959 413.029 436.224 410.952 435.693L410.228 438.204C410.518 438.349 411.339 438.542 412.305 438.542ZM439.377 431.588H442.13V428.738H442.468C443.096 429.753 444.303 431.974 447.877 431.974C452.513 431.974 455.749 428.256 455.749 422.363C455.749 416.52 452.513 412.801 447.829 412.801C444.207 412.801 443.096 415.023 442.468 415.988H442.227V406.861H439.377V431.588ZM442.178 422.315C442.178 418.162 444.013 415.361 447.491 415.361C451.113 415.361 452.9 418.403 452.9 422.315C452.9 426.275 451.065 429.415 447.491 429.415C444.062 429.415 442.178 426.517 442.178 422.315ZM467.884 431.974C471.651 431.974 474.403 430.091 475.273 427.29L472.52 426.517C471.795 428.449 470.117 429.415 467.884 429.415C464.539 429.415 462.233 427.253 462.1 423.281H475.562V422.074C475.562 415.167 471.457 412.801 467.594 412.801C462.571 412.801 459.239 416.761 459.239 422.46C459.239 428.159 462.523 431.974 467.884 431.974ZM462.1 420.818C462.293 417.932 464.334 415.361 467.594 415.361C470.685 415.361 472.665 417.679 472.665 420.818H462.1ZM482.746 406.861H479.897V431.588H482.746V406.861ZM495.499 431.974C500.522 431.974 503.903 428.159 503.903 422.412C503.903 416.616 500.522 412.801 495.499 412.801C490.477 412.801 487.096 416.616 487.096 422.412C487.096 428.159 490.477 431.974 495.499 431.974ZM495.499 429.415C491.684 429.415 489.945 426.131 489.945 422.412C489.945 418.693 491.684 415.361 495.499 415.361C499.315 415.361 501.053 418.693 501.053 422.412C501.053 426.131 499.315 429.415 495.499 429.415ZM511.102 420.432C511.102 417.196 513.106 415.361 515.835 415.361C518.479 415.361 520.085 417.087 520.085 419.997V431.588H522.934V419.804C522.934 415.071 520.411 412.801 516.656 412.801C513.855 412.801 512.116 414.057 511.247 415.94H511.005V413.042H508.252V431.588H511.102V420.432ZM535.627 438.929C540.07 438.929 543.644 436.9 543.644 432.119V413.042H540.891V415.988H540.601C539.974 415.023 538.814 412.801 535.192 412.801C530.508 412.801 527.272 416.52 527.272 422.219C527.272 428.014 530.653 431.298 535.144 431.298C538.766 431.298 539.925 429.173 540.553 428.159H540.795V431.926C540.795 435.017 538.621 436.417 535.627 436.417C532.258 436.417 531.075 434.643 530.314 433.616L528.045 435.21C529.204 437.154 531.486 438.929 535.627 438.929ZM535.53 428.738C531.956 428.738 530.121 426.034 530.121 422.17C530.121 418.403 531.908 415.361 535.53 415.361C539.008 415.361 540.843 418.162 540.843 422.17C540.843 426.275 538.959 428.738 535.53 428.738ZM558.422 431.588H561.272V413.042H558.422V431.588ZM559.871 409.952C560.982 409.952 561.9 409.082 561.9 408.02C561.9 406.957 560.982 406.088 559.871 406.088C558.76 406.088 557.843 406.957 557.843 408.02C557.843 409.082 558.76 409.952 559.871 409.952ZM569.34 420.432C569.34 417.196 571.344 415.361 574.073 415.361C576.717 415.361 578.323 417.087 578.323 419.997V431.588H581.173V419.804C581.173 415.071 578.649 412.801 574.894 412.801C572.093 412.801 570.354 414.057 569.485 415.94H569.244V413.042H566.491V431.588H569.34V420.432ZM601.399 432.023C604.635 432.023 606.325 430.284 606.905 429.077H607.05V431.588H609.899V419.369C609.899 413.477 605.408 412.801 603.041 412.801C600.24 412.801 597.053 413.767 595.604 417.148L598.308 418.113C598.936 416.761 600.421 415.312 603.138 415.312C605.758 415.312 607.05 416.701 607.05 419.079V419.176C607.05 420.552 605.649 420.432 602.269 420.866C598.828 421.313 595.073 422.074 595.073 426.324C595.073 429.946 597.874 432.023 601.399 432.023ZM601.834 429.463C599.564 429.463 597.922 428.449 597.922 426.469C597.922 424.295 599.902 423.619 602.124 423.329C603.331 423.184 606.567 422.846 607.05 422.267V424.875C607.05 427.193 605.215 429.463 601.834 429.463ZM632.197 431.974C636.302 431.974 639.006 429.463 639.489 426.179H636.64C636.109 428.207 634.418 429.415 632.197 429.415C628.816 429.415 626.643 426.613 626.643 422.315C626.643 418.113 628.864 415.361 632.197 415.361C634.708 415.361 636.205 416.906 636.64 418.596H639.489C639.006 415.119 636.06 412.801 632.148 412.801C627.126 412.801 623.793 416.761 623.793 422.412C623.793 427.966 626.981 431.974 632.197 431.974ZM651.189 431.974C656.212 431.974 659.592 428.159 659.592 422.412C659.592 416.616 656.212 412.801 651.189 412.801C646.166 412.801 642.786 416.616 642.786 422.412C642.786 428.159 646.166 431.974 651.189 431.974ZM651.189 429.415C647.374 429.415 645.635 426.131 645.635 422.412C645.635 418.693 647.374 415.361 651.189 415.361C655.004 415.361 656.743 418.693 656.743 422.412C656.743 426.131 655.004 429.415 651.189 429.415ZM663.942 431.588H666.791V419.997C666.791 417.28 668.771 415.361 670.993 415.361C673.154 415.361 674.664 416.773 674.664 418.886V431.588H677.561V419.514C677.561 417.123 679.058 415.361 681.666 415.361C683.695 415.361 685.433 416.435 685.433 419.176V431.588H688.283V419.176C688.283 414.817 685.941 412.801 682.632 412.801C679.976 412.801 678.032 414.02 677.078 415.94H676.885C675.968 413.96 674.35 412.801 671.911 412.801C669.496 412.801 667.709 413.96 666.936 415.94H666.695V413.042H663.942V431.588ZM693.493 431.588H696.342V419.997C696.342 417.28 698.322 415.361 700.544 415.361C702.705 415.361 704.214 416.773 704.214 418.886V431.588H707.112V419.514C707.112 417.123 708.609 415.361 711.217 415.361C713.246 415.361 714.984 416.435 714.984 419.176V431.588H717.834V419.176C717.834 414.817 715.491 412.801 712.183 412.801C709.527 412.801 707.583 414.02 706.629 415.94H706.436C705.518 413.96 703.9 412.801 701.461 412.801C699.047 412.801 697.26 413.96 696.487 415.94H696.246V413.042H693.493V431.588ZM734.731 424.006C734.731 427.483 732.075 429.077 729.95 429.077C727.583 429.077 725.893 427.338 725.893 424.633V413.042H723.044V424.827C723.044 429.559 725.555 431.829 729.032 431.829C731.833 431.829 733.669 430.332 734.538 428.449H734.731V431.588H737.58V413.042H734.731V424.006ZM745.649 420.432C745.649 417.196 747.653 415.361 750.382 415.361C753.026 415.361 754.632 417.087 754.632 419.997V431.588H757.481V419.804C757.481 415.071 754.958 412.801 751.203 412.801C748.402 412.801 746.663 414.057 745.794 415.94H745.552V413.042H742.799V431.588H745.649V420.432ZM762.688 431.588H765.537V413.042H762.688V431.588ZM764.137 409.952C765.248 409.952 766.165 409.082 766.165 408.02C766.165 406.957 765.248 406.088 764.137 406.088C763.026 406.088 762.108 406.957 762.108 408.02C762.108 409.082 763.026 409.952 764.137 409.952ZM778.822 413.042H774.862V408.599H772.012V413.042H769.211V415.457H772.012V427.048C772.012 430.284 774.62 431.829 777.035 431.829C778.097 431.829 778.773 431.636 779.16 431.491L778.58 428.932C778.339 428.98 777.952 429.077 777.325 429.077C776.069 429.077 774.862 428.69 774.862 426.275V415.457H778.822V413.042ZM784.943 438.542C787.515 438.542 789.326 437.178 790.401 434.292L798.297 413.091L795.182 413.042L790.062 427.821H789.869L784.75 413.042H781.659L788.517 431.684L787.986 433.133C786.947 435.959 785.668 436.224 783.591 435.693L782.866 438.204C783.156 438.349 783.977 438.542 784.943 438.542ZM819.695 413.042H815.735V408.599H812.885V413.042H810.084V415.457H812.885V427.048C812.885 430.284 815.493 431.829 817.908 431.829C818.97 431.829 819.646 431.636 820.033 431.491L819.453 428.932C819.212 428.98 818.825 429.077 818.198 429.077C816.942 429.077 815.735 428.69 815.735 426.275V415.457H819.695V413.042ZM827.229 420.432C827.229 417.196 829.294 415.361 832.107 415.361C834.787 415.361 836.405 417.051 836.405 419.997V431.588H839.254V419.804C839.254 415.035 836.719 412.801 832.928 412.801C830.006 412.801 828.34 414.02 827.47 415.94H827.229V406.861H824.379V431.588H827.229V420.432ZM849.925 432.023C853.161 432.023 854.851 430.284 855.43 429.077H855.575V431.588H858.425V419.369C858.425 413.477 853.933 412.801 851.567 412.801C848.766 412.801 845.578 413.767 844.129 417.148L846.834 418.113C847.462 416.761 848.947 415.312 851.663 415.312C854.283 415.312 855.575 416.701 855.575 419.079V419.176C855.575 420.552 854.175 420.432 850.794 420.866C847.353 421.313 843.598 422.074 843.598 426.324C843.598 429.946 846.399 432.023 849.925 432.023ZM850.359 429.463C848.089 429.463 846.447 428.449 846.447 426.469C846.447 424.295 848.428 423.619 850.649 423.329C851.857 423.184 855.092 422.846 855.575 422.267V424.875C855.575 427.193 853.74 429.463 850.359 429.463ZM871.691 413.042H867.731V408.599H864.881V413.042H862.08V415.457H864.881V427.048C864.881 430.284 867.489 431.829 869.904 431.829C870.966 431.829 871.643 431.636 872.029 431.491L871.449 428.932C871.208 428.98 870.822 429.077 870.194 429.077C868.938 429.077 867.731 428.69 867.731 426.275V415.457H871.691V413.042ZM897.227 424.006C897.227 427.483 894.571 429.077 892.446 429.077C890.079 429.077 888.389 427.338 888.389 424.633V413.042H885.54V424.827C885.54 429.559 888.051 431.829 891.528 431.829C894.329 431.829 896.165 430.332 897.034 428.449H897.227V431.588H900.077V413.042H897.227V424.006ZM908.145 420.432C908.145 417.196 910.149 415.361 912.878 415.361C915.522 415.361 917.128 417.087 917.128 419.997V431.588H919.977V419.804C919.977 415.071 917.454 412.801 913.699 412.801C910.898 412.801 909.159 414.057 908.29 415.94H908.048V413.042H905.295V431.588H908.145V420.432ZM932.187 431.974C935.761 431.974 936.968 429.753 937.596 428.738H937.934V431.588H940.687V406.861H937.838V415.988H937.596C936.968 415.023 935.857 412.801 932.235 412.801C927.551 412.801 924.315 416.52 924.315 422.363C924.315 428.256 927.551 431.974 932.187 431.974ZM932.573 429.415C928.999 429.415 927.164 426.275 927.164 422.315C927.164 418.403 928.951 415.361 932.573 415.361C936.051 415.361 937.886 418.162 937.886 422.315C937.886 426.517 936.002 429.415 932.573 429.415ZM954.077 431.974C957.844 431.974 960.597 430.091 961.466 427.29L958.713 426.517C957.989 428.449 956.311 429.415 954.077 429.415C950.732 429.415 948.426 427.253 948.294 423.281H961.756V422.074C961.756 415.167 957.651 412.801 953.787 412.801C948.764 412.801 945.432 416.761 945.432 422.46C945.432 428.159 948.716 431.974 954.077 431.974ZM948.294 420.818C948.487 417.932 950.527 415.361 953.787 415.361C956.878 415.361 958.858 417.679 958.858 420.818H948.294ZM966.09 431.588H968.94V419.852C968.94 417.341 970.92 415.506 973.624 415.506C974.385 415.506 975.17 415.65 975.363 415.699V412.801C975.037 412.777 974.289 412.753 973.866 412.753C971.644 412.753 969.713 414.008 969.036 415.844H968.843V413.042H966.09V431.588ZM991.877 417.196C990.984 414.564 988.979 412.801 985.309 412.801C981.397 412.801 978.499 415.023 978.499 418.162C978.499 420.721 980.021 422.436 983.425 423.233L986.516 423.957C988.388 424.392 989.269 425.285 989.269 426.565C989.269 428.159 987.579 429.463 984.923 429.463C982.592 429.463 981.131 428.461 980.624 426.469L977.92 427.145C978.584 430.296 981.18 431.974 984.971 431.974C989.281 431.974 992.215 429.62 992.215 426.42C992.215 423.836 990.597 422.206 987.289 421.398L984.536 420.721C982.339 420.178 981.349 419.442 981.349 418.017C981.349 416.423 983.039 415.264 985.309 415.264C987.796 415.264 988.822 416.64 989.317 417.92L991.877 417.196ZM1004.57 413.042H1000.61V408.599H997.76V413.042H994.959V415.457H997.76V427.048C997.76 430.284 1000.37 431.829 1002.78 431.829C1003.85 431.829 1004.52 431.636 1004.91 431.491L1004.33 428.932C1004.09 428.98 1003.7 429.077 1003.07 429.077C1001.82 429.077 1000.61 428.69 1000.61 426.275V415.457H1004.57V413.042ZM1014.31 432.023C1017.55 432.023 1019.24 430.284 1019.82 429.077H1019.96V431.588H1022.81V419.369C1022.81 413.477 1018.32 412.801 1015.96 412.801C1013.15 412.801 1009.97 413.767 1008.52 417.148L1011.22 418.113C1011.85 416.761 1013.34 415.312 1016.05 415.312C1018.67 415.312 1019.96 416.701 1019.96 419.079V419.176C1019.96 420.552 1018.56 420.432 1015.18 420.866C1011.74 421.313 1007.99 422.074 1007.99 426.324C1007.99 429.946 1010.79 432.023 1014.31 432.023ZM1014.75 429.463C1012.48 429.463 1010.84 428.449 1010.84 426.469C1010.84 424.295 1012.82 423.619 1015.04 423.329C1016.25 423.184 1019.48 422.846 1019.96 422.267V424.875C1019.96 427.193 1018.13 429.463 1014.75 429.463ZM1030.86 420.432C1030.86 417.196 1032.87 415.361 1035.6 415.361C1038.24 415.361 1039.85 417.087 1039.85 419.997V431.588H1042.7V419.804C1042.7 415.071 1040.17 412.801 1036.42 412.801C1033.62 412.801 1031.88 414.057 1031.01 415.94H1030.77V413.042H1028.01V431.588H1030.86V420.432ZM1054.91 431.974C1058.48 431.974 1059.69 429.753 1060.31 428.738H1060.65V431.588H1063.41V406.861H1060.56V415.988H1060.31C1059.69 415.023 1058.58 412.801 1054.95 412.801C1050.27 412.801 1047.03 416.52 1047.03 422.363C1047.03 428.256 1050.27 431.974 1054.91 431.974ZM1055.29 429.415C1051.72 429.415 1049.88 426.275 1049.88 422.315C1049.88 418.403 1051.67 415.361 1055.29 415.361C1058.77 415.361 1060.6 418.162 1060.6 422.315C1060.6 426.517 1058.72 429.415 1055.29 429.415ZM1082.16 417.196C1081.26 414.564 1079.26 412.801 1075.59 412.801C1071.68 412.801 1068.78 415.023 1068.78 418.162C1068.78 420.721 1070.3 422.436 1073.7 423.233L1076.8 423.957C1078.67 424.392 1079.55 425.285 1079.55 426.565C1079.55 428.159 1077.86 429.463 1075.2 429.463C1072.87 429.463 1071.41 428.461 1070.9 426.469L1068.2 427.145C1068.86 430.296 1071.46 431.974 1075.25 431.974C1079.56 431.974 1082.49 429.62 1082.49 426.42C1082.49 423.836 1080.88 422.206 1077.57 421.398L1074.82 420.721C1072.62 420.178 1071.63 419.442 1071.63 418.017C1071.63 416.423 1073.32 415.264 1075.59 415.264C1078.08 415.264 1079.1 416.64 1079.6 417.92L1082.16 417.196ZM1104.41 413.042H1100.45V408.599H1097.6V413.042H1094.8V415.457H1097.6V427.048C1097.6 430.284 1100.21 431.829 1102.62 431.829C1103.69 431.829 1104.36 431.636 1104.75 431.491L1104.17 428.932C1103.93 428.98 1103.54 429.077 1102.91 429.077C1101.66 429.077 1100.45 428.69 1100.45 426.275V415.457H1104.41V413.042ZM1111.95 420.432C1111.95 417.196 1114.01 415.361 1116.82 415.361C1119.5 415.361 1121.12 417.051 1121.12 419.997V431.588H1123.97V419.804C1123.97 415.035 1121.44 412.801 1117.64 412.801C1114.72 412.801 1113.06 414.02 1112.19 415.94H1111.95V406.861H1109.1V431.588H1111.95V420.432ZM1136.96 431.974C1140.73 431.974 1143.48 430.091 1144.35 427.29L1141.6 426.517C1140.87 428.449 1139.19 429.415 1136.96 429.415C1133.62 429.415 1131.31 427.253 1131.18 423.281H1144.64V422.074C1144.64 415.167 1140.53 412.801 1136.67 412.801C1131.65 412.801 1128.31 416.761 1128.31 422.46C1128.31 428.159 1131.6 431.974 1136.96 431.974ZM1131.18 420.818C1131.37 417.932 1133.41 415.361 1136.67 415.361C1139.76 415.361 1141.74 417.679 1141.74 420.818H1131.18ZM1148.97 431.588H1151.82V419.997C1151.82 417.28 1153.8 415.361 1156.02 415.361C1158.19 415.361 1159.69 416.773 1159.69 418.886V431.588H1162.59V419.514C1162.59 417.123 1164.09 415.361 1166.7 415.361C1168.73 415.361 1170.46 416.435 1170.46 419.176V431.588H1173.31V419.176C1173.31 414.817 1170.97 412.801 1167.66 412.801C1165.01 412.801 1163.06 414.02 1162.11 415.94H1161.92C1161 413.96 1159.38 412.801 1156.94 412.801C1154.53 412.801 1152.74 413.96 1151.97 415.94H1151.73V413.042H1148.97V431.588ZM1180.6 431.781C1181.8 431.781 1182.77 430.803 1182.77 429.608C1182.77 428.412 1181.8 427.434 1180.6 427.434C1179.41 427.434 1178.43 428.412 1178.43 429.608C1178.43 430.803 1179.41 431.781 1180.6 431.781Z" fill="black"/>
<path d="M364.937 227.398V234.075C364.937 235.696 363.784 236.879 362.009 236.879C360.234 236.879 359.081 235.696 359.081 234.075V227.398H358.151V234.14C358.146 236.218 359.717 237.754 362.009 237.754C364.306 237.754 365.867 236.218 365.867 234.14V227.398H364.937ZM374.097 229.944H374.997C374.928 228.398 373.59 227.254 371.696 227.254C369.817 227.254 368.37 228.383 368.37 230.023C368.37 231.331 369.295 232.151 370.891 232.623L372.109 232.981C373.372 233.349 374.237 233.822 374.237 234.861C374.237 236.084 373.128 236.904 371.607 236.904C370.235 236.904 369.161 236.243 369.061 235.035H368.107C368.216 236.645 369.529 237.754 371.607 237.754C373.814 237.754 375.137 236.506 375.137 234.876C375.137 233.185 373.665 232.509 372.372 232.146L371.298 231.838C370.309 231.559 369.27 231.057 369.27 229.983C369.27 228.89 370.249 228.089 371.671 228.089C373.019 228.089 373.983 228.81 374.097 229.944ZM377.374 237.58H383.379V236.745H378.303V232.902H382.967V232.067H378.303V228.233H383.28V227.398H377.374V237.58ZM385.686 237.58H386.616V233.464H388.987C389.122 233.464 389.251 233.459 389.375 233.449L391.607 237.58H392.681L390.33 233.27C391.597 232.852 392.254 231.808 392.254 230.446C392.254 228.666 391.135 227.398 388.972 227.398H385.686V237.58ZM386.616 232.613V228.233H388.948C390.558 228.233 391.339 229.113 391.339 230.446C391.339 231.778 390.558 232.613 388.963 232.613H386.616ZM398.456 237.58H399.385V233.464H401.757C401.891 233.464 402.02 233.459 402.145 233.449L404.377 237.58H405.451L403.099 233.27C404.367 232.852 405.023 231.808 405.023 230.446C405.023 228.666 403.905 227.398 401.742 227.398H398.456V237.58ZM399.385 232.613V228.233H401.717C403.328 228.233 404.108 229.113 404.108 230.446C404.108 231.778 403.328 232.613 401.732 232.613H399.385ZM407.288 237.58H413.294V236.745H408.218V232.902H412.881V232.067H408.218V228.233H413.194V227.398H407.288V237.58ZM421.129 229.944H422.029C421.959 228.398 420.622 227.254 418.727 227.254C416.848 227.254 415.401 228.383 415.401 230.023C415.401 231.331 416.326 232.151 417.922 232.623L419.14 232.981C420.403 233.349 421.268 233.822 421.268 234.861C421.268 236.084 420.159 236.904 418.638 236.904C417.266 236.904 416.192 236.243 416.093 235.035H415.138C415.247 236.645 416.56 237.754 418.638 237.754C420.845 237.754 422.168 236.506 422.168 234.876C422.168 233.185 420.696 232.509 419.404 232.146L418.33 231.838C417.34 231.559 416.301 231.057 416.301 229.983C416.301 228.89 417.281 228.089 418.703 228.089C420.05 228.089 421.014 228.81 421.129 229.944ZM424.405 237.58H430.411V236.745H425.335V232.902H429.998V232.067H425.335V228.233H430.311V227.398H424.405V237.58ZM432.732 237.58L433.821 234.513H438.097L439.186 237.58H440.16L436.456 227.398H435.462L431.758 237.58H432.732ZM434.119 233.677L435.924 228.606H435.994L437.798 233.677H434.119ZM441.905 237.58H442.835V233.464H445.206C445.34 233.464 445.47 233.459 445.594 233.449L447.826 237.58H448.9L446.548 233.27C447.816 232.852 448.472 231.808 448.472 230.446C448.472 228.666 447.354 227.398 445.191 227.398H441.905V237.58ZM442.835 232.613V228.233H445.166C446.777 228.233 447.558 229.113 447.558 230.446C447.558 231.778 446.777 232.613 445.181 232.613H442.835ZM458.711 230.58C458.378 228.706 456.847 227.259 454.68 227.259C452.109 227.259 450.28 229.302 450.28 232.489C450.28 235.676 452.109 237.719 454.68 237.719C456.847 237.719 458.378 236.268 458.711 234.398H457.777C457.493 235.795 456.275 236.844 454.68 236.844C452.751 236.844 451.18 235.318 451.18 232.489C451.18 229.67 452.751 228.134 454.68 228.134C456.275 228.134 457.493 229.188 457.777 230.58H458.711ZM460.895 237.58H461.825V232.902H467.602V237.58H468.532V227.398H467.602V232.067H461.825V227.398H460.895V237.58ZM475.169 237.58H476.098V233.687H478.47C480.623 233.687 481.736 232.32 481.736 230.54C481.736 228.76 480.623 227.398 478.455 227.398H475.169V237.58ZM476.098 232.852V228.233H478.43C480.041 228.233 480.821 229.203 480.821 230.54C480.821 231.873 480.041 232.852 478.445 232.852H476.098ZM483.919 237.58H489.924V236.745H484.848V232.902H489.512V232.067H484.848V228.233H489.825V227.398H483.919V237.58ZM492.231 237.58H493.161V233.464H495.532C495.667 233.464 495.796 233.459 495.92 233.449L498.152 237.58H499.226L496.875 233.27C498.142 232.852 498.799 231.808 498.799 230.446C498.799 228.666 497.68 227.398 495.517 227.398H492.231V237.58ZM493.161 232.613V228.233H495.493C497.103 228.233 497.884 229.113 497.884 230.446C497.884 231.778 497.103 232.613 495.507 232.613H493.161ZM506.592 229.944H507.491C507.422 228.398 506.085 227.254 504.19 227.254C502.311 227.254 500.864 228.383 500.864 230.023C500.864 231.331 501.789 232.151 503.385 232.623L504.603 232.981C505.866 233.349 506.731 233.822 506.731 234.861C506.731 236.084 505.622 236.904 504.101 236.904C502.729 236.904 501.655 236.243 501.555 235.035H500.601C500.71 236.645 502.023 237.754 504.101 237.754C506.308 237.754 507.631 236.506 507.631 234.876C507.631 233.185 506.159 232.509 504.866 232.146L503.793 231.838C502.803 231.559 501.764 231.057 501.764 229.983C501.764 228.89 502.744 228.089 504.165 228.089C505.513 228.089 506.477 228.81 506.592 229.944ZM509.868 237.58H510.798V233.687H513.169C515.322 233.687 516.435 232.32 516.435 230.54C516.435 228.76 515.322 227.398 513.154 227.398H509.868V237.58ZM510.798 232.852V228.233H513.129C514.74 228.233 515.521 229.203 515.521 230.54C515.521 231.873 514.74 232.852 513.144 232.852H510.798ZM518.618 237.58H524.624V236.745H519.548V232.902H524.211V232.067H519.548V228.233H524.524V227.398H518.618V237.58ZM534.905 230.58C534.572 228.706 533.04 227.259 530.873 227.259C528.303 227.259 526.473 229.302 526.473 232.489C526.473 235.676 528.303 237.719 530.873 237.719C533.04 237.719 534.572 236.268 534.905 234.398H533.97C533.687 235.795 532.469 236.844 530.873 236.844C528.944 236.844 527.373 235.318 527.373 232.489C527.373 229.67 528.944 228.134 530.873 228.134C532.469 228.134 533.687 229.188 533.97 230.58H534.905ZM536.472 228.233H539.699V237.58H540.628V228.233H543.855V227.398H536.472V228.233ZM546.878 227.398H545.948V237.58H546.878V227.398ZM549.6 227.398H548.625L552.329 237.58H553.323L557.027 227.398H556.053L552.871 236.372H552.781L549.6 227.398ZM558.772 237.58H564.778V236.745H559.702V232.902H564.365V232.067H559.702V228.233H564.678V227.398H558.772V237.58Z" fill="black"/>
<path d="M383.729 142.797H385.323V136.124H389.388C393.079 136.124 394.988 133.78 394.988 130.729C394.988 127.678 393.079 125.342 389.363 125.342H383.729V142.797ZM385.323 134.692V126.774H389.32C392.082 126.774 393.42 128.436 393.42 130.729C393.42 133.013 392.082 134.692 389.346 134.692H385.323ZM398.414 142.797H399.931V134.342C399.931 132.399 401.422 130.993 403.468 130.993C403.869 130.993 404.244 131.061 404.38 131.078V129.536C404.175 129.527 403.826 129.51 403.579 129.51C401.934 129.51 400.528 130.396 399.999 131.717H399.888V129.706H398.414V142.797ZM411.658 143.07C415.05 143.07 417.42 140.3 417.42 136.311C417.42 132.297 415.05 129.527 411.658 129.527C408.266 129.527 405.897 132.297 405.897 136.311C405.897 140.3 408.266 143.07 411.658 143.07ZM411.658 141.68C408.94 141.68 407.422 139.243 407.422 136.311C407.422 133.379 408.94 130.908 411.658 130.908C414.377 130.908 415.894 133.379 415.894 136.311C415.894 139.243 414.377 141.68 411.658 141.68ZM421.065 142.797H422.54V140.368H422.727C423.256 141.57 424.364 143.07 426.75 143.07C429.963 143.07 432.136 140.351 432.136 136.286C432.136 132.254 429.954 129.527 426.724 129.527C424.329 129.527 423.247 131.027 422.727 132.203H422.591V125.342H421.065V142.797ZM422.565 136.26C422.565 133.124 424.006 130.908 426.562 130.908C429.187 130.908 430.611 133.243 430.611 136.26C430.611 139.311 429.17 141.68 426.562 141.68C424.023 141.68 422.565 139.422 422.565 136.26ZM436.986 125.342H435.469V142.797H436.986V125.342ZM446.293 143.07C448.918 143.07 450.682 141.646 451.278 140.001L449.838 139.533C449.335 140.709 448.15 141.68 446.293 141.68C443.616 141.68 441.92 139.729 441.852 136.703H451.602V135.953C451.602 131.581 448.9 129.527 446.062 129.527C442.67 129.527 440.327 132.365 440.327 136.328C440.327 140.3 442.628 143.07 446.293 143.07ZM441.861 135.365C442.023 132.928 443.668 130.908 446.062 130.908C448.406 130.908 450.051 132.842 450.051 135.365H441.861ZM454.945 142.797H456.462V134.411C456.462 132.374 457.817 130.925 459.633 130.925C461.422 130.925 462.462 132.118 462.462 133.891V142.797H464.013V134.18C464.013 132.297 465.138 130.925 467.133 130.925C468.863 130.925 470.013 131.964 470.013 134.027V142.797H471.53V134.027C471.53 131.095 470.022 129.536 467.593 129.536C465.684 129.536 464.303 130.464 463.715 131.913H463.604C463.025 130.43 461.874 129.536 460.067 129.536C458.354 129.536 457.076 130.362 456.556 131.717H456.42V129.706H454.945V142.797ZM492.089 129.706H493.632C493.513 127.055 491.22 125.095 487.973 125.095C484.751 125.095 482.271 127.03 482.271 129.842C482.271 132.084 483.856 133.49 486.592 134.3L488.68 134.913C490.845 135.544 492.328 136.354 492.328 138.135C492.328 140.232 490.427 141.638 487.82 141.638C485.467 141.638 483.626 140.504 483.456 138.433H481.82C482.007 141.195 484.257 143.095 487.82 143.095C491.604 143.095 493.871 140.956 493.871 138.161C493.871 135.263 491.348 134.104 489.132 133.482L487.291 132.953C485.595 132.476 483.814 131.615 483.814 129.774C483.814 127.899 485.493 126.527 487.93 126.527C490.24 126.527 491.893 127.763 492.089 129.706ZM502.547 129.706H499.777V126.57H498.251V129.706H496.3V131.027H498.251V139.737C498.251 141.876 499.939 142.993 501.618 142.993C502.248 142.993 502.675 142.874 502.964 142.763L502.641 141.391C502.427 141.45 502.155 141.51 501.754 141.51C500.723 141.51 499.777 141.024 499.777 139.379V131.027H502.547V129.706ZM509.648 143.095C511.83 143.095 513.16 141.885 513.705 140.726H513.799V142.797H515.316V133.908C515.316 130.396 512.674 129.527 510.671 129.527C508.668 129.527 506.606 130.32 505.719 132.459L507.16 132.979C507.637 131.854 508.822 130.891 510.714 130.891C512.699 130.891 513.799 131.982 513.799 133.771V134.078C513.799 135.067 512.572 135.084 510.373 135.357C507.415 135.723 505.344 136.55 505.344 139.141C505.344 141.663 507.271 143.095 509.648 143.095ZM509.853 141.706C508.14 141.706 506.861 140.794 506.861 139.209C506.861 137.624 508.157 136.959 510.373 136.686C511.447 136.558 513.356 136.32 513.799 135.885V137.777C513.799 139.925 512.273 141.706 509.853 141.706ZM524.508 129.706H521.738V126.57H520.212V129.706H518.261V131.027H520.212V139.737C520.212 141.876 521.9 142.993 523.579 142.993C524.209 142.993 524.636 142.874 524.925 142.763L524.601 141.391C524.388 141.45 524.116 141.51 523.715 141.51C522.684 141.51 521.738 141.024 521.738 139.379V131.027H524.508V129.706ZM533.105 143.07C535.73 143.07 537.494 141.646 538.091 140.001L536.65 139.533C536.148 140.709 534.963 141.68 533.105 141.68C530.429 141.68 528.733 139.729 528.665 136.703H538.415V135.953C538.415 131.581 535.713 129.527 532.875 129.527C529.483 129.527 527.139 132.365 527.139 136.328C527.139 140.3 529.44 143.07 533.105 143.07ZM528.673 135.365C528.835 132.928 530.48 130.908 532.875 130.908C535.219 130.908 536.864 132.842 536.864 135.365H528.673ZM541.758 142.797H543.275V134.411C543.275 132.374 544.63 130.925 546.445 130.925C548.235 130.925 549.275 132.118 549.275 133.891V142.797H550.826V134.18C550.826 132.297 551.951 130.925 553.945 130.925C555.675 130.925 556.826 131.964 556.826 134.027V142.797H558.343V134.027C558.343 131.095 556.834 129.536 554.405 129.536C552.496 129.536 551.116 130.464 550.528 131.913H550.417C549.837 130.43 548.687 129.536 546.88 129.536C545.167 129.536 543.888 130.362 543.369 131.717H543.232V129.706H541.758V142.797ZM567.652 143.07C570.277 143.07 572.041 141.646 572.638 140.001L571.197 139.533C570.695 140.709 569.51 141.68 567.652 141.68C564.976 141.68 563.28 139.729 563.212 136.703H572.962V135.953C572.962 131.581 570.26 129.527 567.422 129.527C564.03 129.527 561.686 132.365 561.686 136.328C561.686 140.3 563.987 143.07 567.652 143.07ZM563.22 135.365C563.382 132.928 565.027 130.908 567.422 130.908C569.766 130.908 571.41 132.842 571.41 135.365H563.22ZM577.822 134.615C577.822 132.331 579.322 130.925 581.384 130.925C583.396 130.925 584.691 132.271 584.691 134.411V142.797H586.208V134.317C586.208 131.214 584.41 129.536 581.768 129.536C579.85 129.536 578.529 130.422 577.915 131.76H577.779V129.706H576.305V142.797H577.822V134.615ZM595.359 129.706H592.589V126.57H591.064V129.706H589.112V131.027H591.064V139.737C591.064 141.876 592.751 142.993 594.43 142.993C595.061 142.993 595.487 142.874 595.777 142.763L595.453 141.391C595.24 141.45 594.967 141.51 594.567 141.51C593.535 141.51 592.589 141.024 592.589 139.379V131.027H595.359V129.706Z" fill="black"/>
<rect x="338.512" y="99.0068" width="303.218" height="70.0905" rx="33.25" stroke="#01A67B" stroke-width="1.5"/>
</svg>
